<svg width="36" height="28" viewBox="0 0 36 28" fill="none" xmlns="http://www.w3.org/2000/svg">
<path d="M27.1299 21C26.1674 21 25.3799 20.2125 25.3799 19.25H11.3799C11.3799 20.2125 10.5924 21 9.62988 21C8.66738 21 7.87988 20.2125 7.87988 19.25H0.879883V24.5C0.879883 26.425 2.45488 28 4.37988 28H32.3799C34.3049 28 35.8799 26.425 35.8799 24.5V19.25H28.8799C28.8799 20.2125 28.0924 21 27.1299 21ZM32.3799 7H27.1299V3.5C27.1299 1.575 25.5549 0 23.6299 0H13.1299C11.2049 0 9.62988 1.575 9.62988 3.5V7H4.37988C2.45488 7 0.879883 8.575 0.879883 10.5V17.5H7.87988V15.75C7.87988 14.7875 8.66738 14 9.62988 14C10.5924 14 11.3799 14.7875 11.3799 15.75V17.5H25.3799V15.75C25.3799 14.7875 26.1674 14 27.1299 14C28.0924 14 28.8799 14.7875 28.8799 15.75V17.5H35.8799V10.5C35.8799 8.575 34.3049 7 32.3799 7ZM23.6299 7H13.1299V3.5H23.6299V7Z" fill="#315C32"/>
</svg>
