<svg width="17" height="30" viewBox="0 0 17 30" fill="none" xmlns="http://www.w3.org/2000/svg">
<path d="M9.49285 13.1667C5.92507 12.1833 4.77772 11.1667 4.77772 9.58333C4.77772 7.76667 6.36515 6.5 9.02134 6.5C11.819 6.5 12.8563 7.91667 12.9506 10H16.4241C16.3141 7.13333 14.6638 4.5 11.3789 3.65V0H6.66377V3.6C3.61466 4.3 1.16279 6.4 1.16279 9.61667C1.16279 13.4667 4.16475 15.3833 8.54982 16.5C12.4791 17.5 13.265 18.9667 13.265 20.5167C13.265 21.6667 12.4948 23.5 9.02134 23.5C5.78362 23.5 4.51053 21.9667 4.33764 20H0.879883C1.06849 23.65 3.64609 25.7 6.66377 26.3833V30H11.3789V26.4167C14.4437 25.8 16.8799 23.9167 16.8799 20.5C16.8799 15.7667 13.0606 14.15 9.49285 13.1667Z" fill="#315C32"/>
</svg>
