<svg width="157" height="143" viewBox="0 0 157 143" fill="none" xmlns="http://www.w3.org/2000/svg">
<path fill-rule="evenodd" clip-rule="evenodd" d="M127.377 3.91781H29.6226C15.4439 3.91781 3.94969 15.3192 3.94969 29.3836V113.616C3.94969 127.681 15.4439 139.082 29.6226 139.082H127.377C141.556 139.082 153.05 127.681 153.05 113.616V29.3836C153.05 15.3192 141.556 3.91781 127.377 3.91781ZM29.6226 0C13.2625 0 0 13.1555 0 29.3836V113.616C0 129.845 13.2625 143 29.6226 143H127.377C143.737 143 157 129.845 157 113.616V29.3836C157 13.1555 143.737 0 127.377 0H29.6226Z" fill="#DFDEDB"/>
<path fill-rule="evenodd" clip-rule="evenodd" d="M85.6129 42.7821C85.6129 42.5746 85.5296 42.3757 85.3814 42.2291C85.2332 42.0824 85.0322 42 84.8226 42H62.6935C60.3879 42 58.1766 42.9063 56.5463 44.5196C54.9159 46.1329 54 48.321 54 50.6026V94.3974C54 96.679 54.9159 98.8671 56.5463 100.48C58.1766 102.094 60.3879 103 62.6935 103H94.3064C96.6121 103 98.8234 102.094 100.454 100.48C102.084 98.8671 103 96.679 103 94.3974V63.5752C103 63.3678 102.917 63.1689 102.769 63.0222C102.62 62.8756 102.419 62.7932 102.21 62.7932H87.9839C87.355 62.7932 86.752 62.546 86.3073 62.106C85.8627 61.666 85.6129 61.0693 85.6129 60.447V42.7821ZM87.9839 73.2821C88.6127 73.2821 89.2158 73.5292 89.6604 73.9692C90.105 74.4092 90.3548 75.006 90.3548 75.6282C90.3548 76.2504 90.105 76.8472 89.6604 77.2872C89.2158 77.7272 88.6127 77.9744 87.9839 77.9744H69.0161C68.3873 77.9744 67.7842 77.7272 67.3396 77.2872C66.895 76.8472 66.6452 76.2504 66.6452 75.6282C66.6452 75.006 66.895 74.4092 67.3396 73.9692C67.7842 73.5292 68.3873 73.2821 69.0161 73.2821H87.9839ZM87.9839 85.7949C88.6127 85.7949 89.2158 86.0421 89.6604 86.482C90.105 86.922 90.3548 87.5188 90.3548 88.141C90.3548 88.7633 90.105 89.36 89.6604 89.8C89.2158 90.24 88.6127 90.4872 87.9839 90.4872H69.0161C68.3873 90.4872 67.7842 90.24 67.3396 89.8C66.895 89.36 66.6452 88.7633 66.6452 88.141C66.6452 87.5188 66.895 86.922 67.3396 86.482C67.7842 86.0421 68.3873 85.7949 69.0161 85.7949H87.9839Z" fill="#D27C2C"/>
</svg>
