<svg width="16" height="30" viewBox="0 0 16 30" fill="none" xmlns="http://www.w3.org/2000/svg">
<path d="M8.61297 13.1667C5.04519 12.1833 3.89784 11.1667 3.89784 9.58333C3.89784 7.76667 5.48526 6.5 8.14145 6.5C10.9391 6.5 11.9764 7.91667 12.0707 10H15.5442C15.4342 7.13333 13.7839 4.5 10.499 3.65V0H5.78389V3.6C2.73477 4.3 0.282907 6.4 0.282907 9.61667C0.282907 13.4667 3.28487 15.3833 7.66994 16.5C11.5992 17.5 12.3851 18.9667 12.3851 20.5167C12.3851 21.6667 11.6149 23.5 8.14145 23.5C4.90373 23.5 3.63065 21.9667 3.45776 20H0C0.188605 23.65 2.76621 25.7 5.78389 26.3833V30H10.499V26.4167C13.5639 25.8 16 23.9167 16 20.5C16 15.7667 12.1807 14.15 8.61297 13.1667Z" fill="#315C32"/>
</svg>
