<svg width="157" height="143" viewBox="0 0 157 143" fill="none" xmlns="http://www.w3.org/2000/svg">
<path fill-rule="evenodd" clip-rule="evenodd" d="M127.377 3.91781H29.6226C15.4439 3.91781 3.94969 15.3192 3.94969 29.3836V113.616C3.94969 127.681 15.4439 139.082 29.6226 139.082H127.377C141.556 139.082 153.05 127.681 153.05 113.616V29.3836C153.05 15.3192 141.556 3.91781 127.377 3.91781ZM29.6226 0C13.2625 0 0 13.1555 0 29.3836V113.616C0 129.845 13.2625 143 29.6226 143H127.377C143.737 143 157 129.845 157 113.616V29.3836C157 13.1555 143.737 0 127.377 0H29.6226Z" fill="#DFDEDB"/>
<path d="M98 84.5C96.13 84.5 94.6 82.9813 94.6 81.125H67.4C67.4 82.9813 65.87 84.5 64 84.5C62.13 84.5 60.6 82.9813 60.6 81.125H47V91.25C47 94.9625 50.06 98 53.8 98H108.2C111.94 98 115 94.9625 115 91.25V81.125H101.4C101.4 82.9813 99.87 84.5 98 84.5ZM108.2 57.5H98V50.75C98 47.0375 94.94 44 91.2 44H70.8C67.06 44 64 47.0375 64 50.75V57.5H53.8C50.06 57.5 47 60.5375 47 64.25V77.75H60.6V74.375C60.6 72.5187 62.13 71 64 71C65.87 71 67.4 72.5187 67.4 74.375V77.75H94.6V74.375C94.6 72.5187 96.13 71 98 71C99.87 71 101.4 72.5187 101.4 74.375V77.75H115V64.25C115 60.5375 111.94 57.5 108.2 57.5ZM91.2 57.5H70.8V50.75H91.2V57.5Z" fill="#D27C2C"/>
</svg>
