<svg width="157" height="143" viewBox="0 0 157 143" fill="none" xmlns="http://www.w3.org/2000/svg">
<path fill-rule="evenodd" clip-rule="evenodd" d="M127.377 3.91781H29.6226C15.4439 3.91781 3.94969 15.3192 3.94969 29.3836V113.616C3.94969 127.681 15.4439 139.082 29.6226 139.082H127.377C141.556 139.082 153.05 127.681 153.05 113.616V29.3836C153.05 15.3192 141.556 3.91781 127.377 3.91781ZM29.6226 0C13.2625 0 0 13.1555 0 29.3836V113.616C0 129.845 13.2625 143 29.6226 143H127.377C143.737 143 157 129.845 157 113.616V29.3836C157 13.1555 143.737 0 127.377 0H29.6226Z" fill="#DFDEDB"/>
<path d="M78.9941 67.0389C70.2976 64.6461 67.501 62.1722 67.501 58.3194C67.501 53.8989 71.3703 50.8167 77.8448 50.8167C84.664 50.8167 87.1925 54.2639 87.4224 59.3333H95.889C95.6208 52.3578 91.5982 45.95 83.5914 43.8817V35H72.0982V43.76C64.666 45.4633 58.6896 50.5733 58.6896 58.4006C58.6896 67.7689 66.0069 72.4328 76.6955 75.15C86.2731 77.5833 88.1886 81.1522 88.1886 84.9239C88.1886 87.7222 86.3114 92.1833 77.8448 92.1833C69.9528 92.1833 66.8497 88.4522 66.4283 83.6667H58C58.4597 92.5483 64.7426 97.5367 72.0982 99.1994V108H83.5914V99.2806C91.0619 97.78 97 93.1972 97 84.8833C97 73.3656 87.6906 69.4317 78.9941 67.0389Z" fill="#D27C2C"/>
</svg>
