<svg width="156" height="144" viewBox="0 0 156 144" fill="none" xmlns="http://www.w3.org/2000/svg">
<path fill-rule="evenodd" clip-rule="evenodd" d="M126.566 3.94521H29.434C15.3455 3.94521 3.92453 15.4263 3.92453 29.589V114.411C3.92453 128.574 15.3455 140.055 29.434 140.055H126.566C140.655 140.055 152.075 128.574 152.075 114.411V29.589C152.075 15.4263 140.655 3.94521 126.566 3.94521ZM29.434 0C13.178 0 0 13.2475 0 29.589V114.411C0 130.753 13.178 144 29.434 144H126.566C142.822 144 156 130.753 156 114.411V29.589C156 13.2475 142.822 0 126.566 0H29.434Z" fill="#DFDEDB"/>
<path fill-rule="evenodd" clip-rule="evenodd" d="M84.0968 50.6667C84.0968 50.4899 84.0254 50.3203 83.8984 50.1953C83.7713 50.0702 83.599 50 83.4194 50H64.4516C62.4753 50 60.58 50.7726 59.1825 52.1479C57.7851 53.5232 57 55.3884 57 57.3333V94.6667C57 96.6116 57.7851 98.4769 59.1825 99.8521C60.58 101.227 62.4753 102 64.4516 102H91.5484C93.5247 102 95.42 101.227 96.8175 99.8521C98.2149 98.4769 99 96.6116 99 94.6667V68.392C99 68.2152 98.9286 68.0456 98.8016 67.9206C98.6745 67.7956 98.5022 67.7253 98.3226 67.7253H86.129C85.59 67.7253 85.0731 67.5146 84.692 67.1395C84.3109 66.7645 84.0968 66.2558 84.0968 65.7253V50.6667ZM86.129 76.6667C86.668 76.6667 87.1849 76.8774 87.5661 77.2525C87.9472 77.6275 88.1613 78.1362 88.1613 78.6667C88.1613 79.1971 87.9472 79.7058 87.5661 80.0809C87.1849 80.456 86.668 80.6667 86.129 80.6667H69.871C69.332 80.6667 68.8151 80.456 68.4339 80.0809C68.0528 79.7058 67.8387 79.1971 67.8387 78.6667C67.8387 78.1362 68.0528 77.6275 68.4339 77.2525C68.8151 76.8774 69.332 76.6667 69.871 76.6667H86.129ZM86.129 87.3333C86.668 87.3333 87.1849 87.544 87.5661 87.9191C87.9472 88.2942 88.1613 88.8029 88.1613 89.3333C88.1613 89.8638 87.9472 90.3725 87.5661 90.7475C87.1849 91.1226 86.668 91.3333 86.129 91.3333H69.871C69.332 91.3333 68.8151 91.1226 68.4339 90.7475C68.0528 90.3725 67.8387 89.8638 67.8387 89.3333C67.8387 88.8029 68.0528 88.2942 68.4339 87.9191C68.8151 87.544 69.332 87.3333 69.871 87.3333H86.129Z" fill="#315C32"/>
</svg>
