<svg width="156" height="144" viewBox="0 0 156 144" fill="none" xmlns="http://www.w3.org/2000/svg">
<path fill-rule="evenodd" clip-rule="evenodd" d="M126.566 3.94521H29.434C15.3455 3.94521 3.92453 15.4263 3.92453 29.589V114.411C3.92453 128.574 15.3455 140.055 29.434 140.055H126.566C140.655 140.055 152.075 128.574 152.075 114.411V29.589C152.075 15.4263 140.655 3.94521 126.566 3.94521ZM29.434 0C13.178 0 0 13.2475 0 29.589V114.411C0 130.753 13.178 144 29.434 144H126.566C142.822 144 156 130.753 156 114.411V29.589C156 13.2475 142.822 0 126.566 0H29.434Z" fill="#DFDEDB"/>
<path d="M65.2886 103L41 79.0232L52.0687 68.0965L65.2886 81.1853L103.931 43L115 53.9266L65.2886 103Z" fill="#D27C2C"/>
</svg>
