<svg width="256" height="111" viewBox="0 0 256 111" fill="none" xmlns="http://www.w3.org/2000/svg">
<path fill-rule="evenodd" clip-rule="evenodd" d="M105.656 1.97262C101.662 4.1233 80.1106 18.1118 77.6183 20.171L76.0754 21.4447L78.9565 26.0972L81.837 30.7505L74.4771 35.6377L67.1172 40.5243L64.362 35.9806C62.8458 33.4822 61.2728 31.4341 60.8648 31.43C60.4576 31.4258 54.759 34.9227 48.2014 39.201C41.6444 43.48 34.5227 48.1145 32.3761 49.5006C25.4071 54.0009 25.418 55.8339 32.4795 67.2835C42.1441 82.9534 42.8498 83.7927 46.3634 83.7927C47.2533 83.7927 53.6186 80.1575 60.5075 75.7137C67.3965 71.2706 73.121 67.7359 73.2285 67.8581C73.336 67.981 78.4171 76.0943 84.5202 85.8876C90.6234 95.6808 96.4356 104.597 97.4356 105.702C101.6 110.301 109.57 112.217 116.157 110.204C119.568 109.162 124.54 104.723 126.477 100.99C127.63 98.7665 127.972 96.9098 127.972 92.8703C127.972 86.4853 128.326 87.2108 114.369 64.9603C108.519 55.6328 103.889 47.743 104.08 47.4267C104.271 47.1104 109.134 43.8536 114.886 40.1891C127.499 32.1527 129.376 30.3784 128.767 27.0658C128.529 25.7705 125.547 20.1724 122.141 14.6246C116.084 4.75873 112.226 0 110.286 0C109.754 0 107.67 0.887505 105.656 1.97262ZM171.768 6.57284C170.57 7.10493 168.763 8.96512 167.554 10.9098C164.547 15.7474 146.648 47.2207 144.798 50.9222C141.912 56.7004 142.332 57.8065 156.628 82.0471C164.987 96.2206 170.049 104.114 171.288 104.912C173.006 106.017 175.665 106.13 199.878 106.131C224.796 106.132 226.714 106.045 228.683 104.821C230.254 103.843 234.006 97.9237 243.4 81.605C255.983 59.7449 256.008 59.6939 256 55.5127L255.991 51.323L243.067 29.4685C233.592 13.4459 229.631 7.34373 228.221 6.60007C225.514 5.17211 174.977 5.14767 171.768 6.57284ZM193.172 35.9205C187.364 38.0342 182.51 42.7706 179.893 48.8791C179.314 50.2289 178.811 53.5338 178.769 56.2605C178.702 60.5144 179 61.8376 180.924 65.8248C184.93 74.1251 191.765 78.4873 200.654 78.4167C208.619 78.3532 215.754 73.6203 219.459 65.9421C221.469 61.7755 221.593 61.094 221.302 55.7026C220.817 46.674 217.208 40.8929 209.651 37.0413C206.146 35.2544 204.7 34.9185 200.624 34.9444C197.955 34.9611 194.601 35.4003 193.172 35.9205ZM6.71918 83.0156C4.95177 83.8584 3.11727 85.5189 1.92759 87.3525C0.291602 89.8747 0 91.038 0 95.0377C0 100.275 0.856325 101.986 5.32209 105.673C8.22442 108.069 13.1372 108.873 16.978 107.579C20.2267 106.486 24.7732 101.363 25.3687 98.1262C26.1169 94.0587 25.3277 89.6198 23.3967 87.0376C19.8632 82.3124 12.1145 80.4438 6.71918 83.0156Z" fill="#3B546C"/>
</svg>
