<svg width="899" height="832" viewBox="0 0 899 832" fill="none" xmlns="http://www.w3.org/2000/svg">
<path fill-rule="evenodd" clip-rule="evenodd" d="M1046.24 1290.74L1041.7 -22.8581C1041.36 -120.548 961.858 -199.467 864.121 -199.129C766.384 -198.791 687.427 -119.324 687.765 -21.634L692.307 1291.96C692.645 1389.65 772.15 1468.57 869.887 1468.23C967.624 1467.89 1046.58 1388.43 1046.24 1290.74ZM863.963 -244.835C740.971 -244.41 641.611 -144.408 642.036 -21.4759L646.579 1292.12C647.004 1415.05 747.054 1514.36 870.045 1513.94C993.037 1513.51 1092.4 1413.51 1091.97 1290.58L1087.43 -23.0162C1087 -145.949 986.954 -245.26 863.963 -244.835Z" fill="#253F54"/>
<path fill-rule="evenodd" clip-rule="evenodd" d="M991.852 1289.12L987.321 -20.8627C987.089 -88.0577 932.411 -142.342 865.194 -142.109C797.978 -141.877 743.676 -87.2159 743.909 -20.0209L748.439 1289.96C748.672 1357.16 803.35 1411.44 870.566 1411.21C937.783 1410.97 992.084 1356.31 991.852 1289.12ZM865.036 -187.849C772.55 -187.529 697.835 -112.319 698.155 -19.8627L702.685 1290.12C703.005 1382.58 778.239 1457.27 870.724 1456.95C963.21 1456.63 1037.93 1381.42 1037.61 1288.96L1033.08 -21.021C1032.76 -113.477 957.522 -188.169 865.036 -187.849Z" fill="#3B546C"/>
<path fill-rule="evenodd" clip-rule="evenodd" d="M934.266 1287.38L929.752 -17.8532C929.628 -53.6944 900.621 -82.6494 864.963 -82.5261C829.305 -82.4028 800.499 -53.2478 800.623 -17.4066L805.137 1287.83C805.261 1323.67 834.268 1352.63 869.926 1352.5C905.584 1352.38 934.39 1323.23 934.266 1287.38ZM864.805 -128.228C804.035 -128.018 754.943 -78.3308 755.154 -17.2493L759.668 1287.99C759.88 1349.07 809.314 1398.42 870.084 1398.21C930.853 1397.99 979.946 1348.31 979.734 1287.23L975.22 -18.0104C975.009 -79.0919 925.574 -128.438 864.805 -128.228Z" fill="#C66D2C"/>
</svg>
