<svg width="376" height="157" viewBox="0 0 376 157" fill="none" xmlns="http://www.w3.org/2000/svg">
<path fill-rule="evenodd" clip-rule="evenodd" d="M74.5958 77.1761C75.9825 75.7895 76.6758 74.0015 76.6758 71.8121V30.761C76.6758 25.8713 74.1945 23.4265 69.2318 23.4265C67.0424 23.4265 65.2544 24.1198 63.8678 25.5064C62.5542 26.8201 61.8974 28.5716 61.8974 30.761V71.8121C61.8974 74.0015 62.5542 75.7895 63.8678 77.1761C65.2544 78.4897 67.0424 79.1466 69.2318 79.1466C71.4212 79.1466 73.2092 78.4897 74.5958 77.1761ZM62.7731 2.73675C64.5976 0.912249 66.7505 0 69.2318 0C71.7132 0 73.8296 0.912249 75.5811 2.73675C77.4056 4.48826 78.3178 6.60467 78.3178 9.08598C78.3178 11.5673 77.4056 13.7202 75.5811 15.5447C73.8296 17.2962 71.7132 18.172 69.2318 18.172C66.7505 18.172 64.5976 17.2962 62.7731 15.5447C61.0216 13.7202 60.1459 11.5673 60.1459 9.08598C60.1459 6.60467 61.0216 4.48826 62.7731 2.73675ZM123.139 72.3596C127.663 67.7618 129.926 62.1424 129.926 55.5013V54.516C129.926 52.3996 129.232 50.6481 127.846 49.2615C126.459 47.8749 124.708 47.1816 122.591 47.1816C120.475 47.1816 118.687 47.8749 117.227 49.2615C115.841 50.6481 115.147 52.3996 115.147 54.516V55.5013C115.147 57.9826 114.308 60.099 112.63 61.8505C110.951 63.529 108.871 64.3683 106.39 64.3683C103.908 64.3683 101.792 63.529 100.041 61.8505C98.362 60.099 97.5227 57.9826 97.5227 55.5013V38.424H122.591C127.481 38.424 129.926 35.9427 129.926 30.9801C129.926 28.7907 129.232 27.0392 127.846 25.7255C126.532 24.3389 124.781 23.6456 122.591 23.6456H97.5227V17.8437C97.5227 15.6543 96.8294 13.8663 95.4428 12.4797C94.0562 11.0931 92.2682 10.3998 90.0788 10.3998C87.8894 10.3998 86.1014 11.0931 84.7148 12.4797C83.4011 13.8663 82.7443 15.6543 82.7443 17.8437V55.5013C82.7443 62.2154 85.0067 67.8348 89.5314 72.3596C94.0562 76.8843 99.6756 79.1467 106.39 79.1467C113.031 79.1467 118.614 76.8843 123.139 72.3596ZM27.9148 64.5874C31.5637 64.5874 34.6654 63.3103 37.2197 60.756C39.8469 58.1287 41.1606 54.9906 41.1606 51.3416C41.1606 47.6926 39.8469 44.5909 37.2197 42.0367C34.6654 39.4824 31.5637 38.2052 27.9148 38.2052C24.2658 38.2052 21.1641 39.4824 18.6098 42.0367C16.0555 44.5909 14.7784 47.6926 14.7784 51.3416V94.1442C14.7784 96.3336 14.0851 98.1216 12.6985 99.5082C11.3119 100.895 9.52386 101.588 7.33447 101.588C5.14507 101.588 3.35707 100.895 1.97045 99.5082C0.656818 98.1216 0 96.3336 0 94.1442V51.3416C0 43.4598 2.66376 36.8551 7.99128 31.5276C13.3918 26.1271 20.0329 23.4268 27.9148 23.4268C35.7966 23.4268 42.4377 26.1271 47.8382 31.5276C53.2387 36.8551 55.939 43.4598 55.939 51.3416C55.939 59.2234 53.2387 65.8645 47.8382 71.2651C42.4377 76.6656 35.7966 79.3658 27.9148 79.3658C25.7254 79.3658 23.9374 78.6725 22.5507 77.2859C21.2371 75.8993 20.5803 74.1113 20.5803 71.9219C20.5803 69.7325 21.2371 67.981 22.5507 66.6673C23.9374 65.2807 25.7254 64.5874 27.9148 64.5874ZM173.379 113.431L148.752 113.363L148.683 135.146L124.064 135.078L123.996 156.862L148.623 156.93L148.691 135.148L173.31 135.216L173.379 113.431ZM123.817 113.294L99.1901 113.226L99.1218 135.008L74.5029 134.94L74.4346 156.725L99.0616 156.793L99.1299 135.011L123.749 135.079L123.817 113.294ZM74.2549 113.157L49.6279 113.089L49.5596 134.871L24.9406 134.803L24.8723 156.588L49.4994 156.656L49.5676 134.873L74.1866 134.941L74.2549 113.157ZM24.6933 113.022L0.0662971 112.951L7.52911e-05 134.736L24.6271 134.806L24.6933 113.022ZM198.317 156.588L173.69 156.52L173.759 134.736L198.378 134.804L198.446 113.021L223.073 113.089L223.005 134.874L198.386 134.806L198.317 156.588ZM247.878 156.725L223.251 156.657L223.319 134.872L247.938 134.94L248.007 113.158L272.634 113.226L272.565 135.011L247.946 134.943L247.878 156.725ZM297.44 156.863L272.813 156.795L272.882 135.01L297.501 135.078L297.569 113.295L322.196 113.364L322.128 135.148L297.509 135.08L297.44 156.863ZM347.136 112.951L371.763 113.019L371.695 134.804L347.068 134.736L347.136 112.951ZM322.375 156.93L347.002 157L347.068 135.216L322.441 135.145L322.375 156.93ZM229.288 56.5564C229.288 63.1733 227.053 68.7723 222.584 73.3533C218.114 77.8616 212.599 80.1157 206.039 80.1157C199.407 80.1157 193.856 77.8616 189.386 73.3533C184.917 68.845 182.682 63.246 182.682 56.5564V19.0359C182.682 16.8545 183.331 15.073 184.629 13.6914C185.998 12.3099 187.764 11.6191 189.927 11.6191C192.09 11.6191 193.856 12.3099 195.226 13.6914C196.595 15.073 197.28 16.8545 197.28 19.0359V24.8167H222.043C224.206 24.8167 225.936 25.5075 227.234 26.889C228.603 28.1979 229.288 29.943 229.288 32.1244C229.288 37.069 226.873 39.5413 222.043 39.5413H197.28V56.5564C197.28 59.0286 198.109 61.1373 199.767 62.8825C201.498 64.5549 203.588 65.3911 206.039 65.3911C208.49 65.3911 210.545 64.5549 212.203 62.8825C213.861 61.1373 214.69 59.0286 214.69 56.5564V55.5747C214.69 53.466 215.375 51.7209 216.744 50.3393C218.186 48.9577 219.952 48.267 222.043 48.267C224.134 48.267 225.864 48.9577 227.234 50.3393C228.603 51.7209 229.288 53.466 229.288 55.5747V56.5564ZM162.895 45.8534C162.895 44.0231 163.516 42.4857 164.758 41.2412C166 39.9966 167.681 39.3011 169.8 39.1547C171.992 38.935 173.746 38.1663 175.061 36.8486C176.376 35.5308 177.034 33.8104 177.034 31.6873C177.034 29.491 176.34 27.7339 174.951 26.4162C173.563 25.0252 171.773 24.3297 169.58 24.3297C163.516 24.3297 158.401 26.4162 154.236 30.5891C150.144 34.6889 148.098 39.777 148.098 45.8534V51.8932C148.098 51.9664 148.061 53.4672 147.988 56.3956V58.5919C147.988 60.4953 147.33 62.106 146.015 63.4237C144.773 64.6683 143.202 65.2906 141.302 65.2906C139.11 65.2906 137.32 65.9861 135.931 67.3771C134.616 68.768 133.958 70.5617 133.958 72.758C133.958 74.9543 134.616 76.7479 135.931 78.1389C137.32 79.4567 139.11 80.1156 141.302 80.1156C147.294 80.1156 152.336 78.0291 156.428 73.8561C160.593 69.6832 162.712 64.5951 162.785 58.5919L162.895 45.8534ZM346.956 65.3558C350.625 65.3558 353.744 64.0845 356.312 61.542C358.954 58.9268 360.275 55.803 360.275 52.1708C360.275 48.5386 358.954 45.4512 356.312 42.9087C353.744 40.3661 350.625 39.0948 346.956 39.0948C343.287 39.0948 340.168 40.3661 337.599 42.9087C335.031 45.4512 333.747 48.5386 333.747 52.1708V94.7767C333.747 96.9561 333.05 98.7359 331.655 100.116C330.261 101.496 328.463 102.186 326.262 102.186C324.06 102.186 322.262 101.496 320.868 100.116C319.547 98.7359 318.887 96.9561 318.887 94.7767V52.1708C318.887 44.3252 321.565 37.7509 326.922 32.4479C332.352 27.0722 339.03 24.3844 346.956 24.3844C354.881 24.3844 361.559 27.0722 366.99 32.4479C372.42 37.7509 375.135 44.3252 375.135 52.1708C375.135 60.0164 372.42 66.6271 366.99 72.0027C361.559 77.3784 354.881 80.0663 346.956 80.0663C344.754 80.0663 342.956 79.3761 341.562 77.9959C340.241 76.6157 339.581 74.8359 339.581 72.6565C339.581 70.4772 340.241 68.7337 341.562 67.4261C342.956 66.0459 344.754 65.3558 346.956 65.3558ZM269.321 19.2888C270.576 18.9704 272.026 18.7882 273.761 18.7309C274.295 18.7133 275.975 18.7236 276.603 18.7483C277.9 18.7994 279.31 18.8879 280.797 19.0114C281.14 19.0399 281.426 19.0632 281.432 19.0633C281.439 19.0633 281.341 19.1677 281.216 19.2952C280.934 19.5808 280.601 19.9317 280.049 20.5245C279.341 21.2857 278.886 21.7082 278.426 22.0298C277.459 22.707 276.324 23.0895 274.638 23.3058C274.031 23.3837 273.612 23.4173 272.445 23.4817C269.527 23.6427 267.818 23.8739 266.045 24.3473C265.268 24.5546 264.643 24.751 263.25 25.2262C262.743 25.399 262.077 25.6256 261.771 25.7298L261.213 25.9194L261.26 25.8378C261.286 25.7929 261.391 25.6224 261.492 25.4588C263.642 21.9967 266.013 20.128 269.321 19.2888ZM259.784 19.7636C260.797 19.5476 261.975 19.4026 263.188 19.3446C263.669 19.3216 264.478 19.3228 264.478 19.3465C264.478 19.393 264.278 19.7684 264.148 19.9645C263.836 20.4365 263.513 20.8142 262.891 21.4352C262.204 22.1198 261.687 22.579 260.389 23.6546C259.06 24.7566 258.916 24.8776 258.608 25.1455C258.444 25.2885 258.215 25.4975 258.099 25.6098L257.889 25.8142L257.757 25.6995C257.333 25.3301 256.923 24.9128 256.632 24.5551C255.786 23.5142 255.555 22.5953 255.945 21.8193C256.401 20.9144 257.733 20.201 259.784 19.7636ZM286.14 21.0146C287.473 20.3618 288.741 19.9887 289.852 19.9225C292.274 19.7782 294.799 20.8203 297.281 22.9886C299.051 24.5346 300.758 26.6664 301.99 28.8708C304.385 33.1568 306.004 40.4904 306.381 48.7656C306.423 49.6906 306.474 51.6245 306.477 52.4313C306.478 52.7408 306.436 54.6578 306.416 55.1784C306.207 60.7008 305.481 65.3891 304.276 69.0015C303.786 70.4725 303.207 71.9743 302.62 73.3C300.578 77.9131 298.102 81.2375 295.335 83.0813C294.116 83.8938 292.827 84.4203 291.553 84.6262C290.787 84.7499 289.921 84.7652 289.159 84.6683C286.566 84.3393 284.012 82.7844 281.746 80.1563C279.998 78.1289 278.456 75.4884 277.214 72.3961C275.272 67.5627 274.111 61.8058 273.805 55.4934C273.721 53.7721 273.725 51.6101 273.814 49.6842C273.933 47.0849 274.22 44.3491 274.631 41.8715C275.533 36.4353 277.04 31.7865 279.056 28.2146C280.988 24.7938 283.372 22.371 286.14 21.0146ZM252.594 24.9041C252.841 24.7794 253.077 24.6956 253.297 24.6538C253.479 24.6194 253.812 24.6311 253.97 24.6773C254.42 24.8097 254.754 25.1303 255.021 25.6843C255.229 26.1167 255.351 26.5903 255.435 27.296C255.479 27.6663 255.479 28.768 255.435 29.2208C255.373 29.8521 255.262 30.5338 255.124 31.1288C255.047 31.4581 254.932 31.8897 254.882 32.0379C254.859 32.1052 252.129 37.0518 252.096 37.0846C252.092 37.0888 251.803 36.8014 251.453 36.446C251.104 36.0906 250.447 35.4256 249.993 34.9682C248.66 33.6248 247.868 32.7913 247.284 32.1179L247.019 31.813L247.052 31.7592C247.069 31.7296 247.19 31.5204 247.321 31.2942C248.616 29.0443 249.853 27.3089 250.966 26.1788C251.595 25.5397 252.068 25.1696 252.594 24.9041ZM265.348 26.3331C267.768 25.6376 270.705 25.2713 274.384 25.2061C275.539 25.1856 275.796 25.1856 275.796 25.2057C275.796 25.2182 272.001 33.4972 271.981 33.5279C271.98 33.5295 271.518 33.5394 270.953 33.5501C266.646 33.6316 264.539 33.9507 261.783 34.9392C261.24 35.1339 260.712 35.3375 259.179 35.9436C256.908 36.8412 254.897 37.6101 254.897 37.5808C254.897 37.5172 255.273 36.3242 255.444 35.8436C257.267 30.7301 260.351 27.7691 265.348 26.3331ZM244.282 37.732C244.839 36.4266 245.444 35.3925 246.146 34.5463L246.285 34.3777L246.365 34.4126C246.48 34.4633 247.033 34.7548 247.238 34.8726C249.256 36.0337 250.283 37.3858 250.684 39.4131C250.805 40.0248 250.86 40.6752 250.861 41.4953C250.861 42.0795 250.85 42.316 250.764 43.4988C250.472 47.542 250.257 51.8194 250.183 55.0253C250.177 55.3117 250.166 55.5459 250.161 55.5459C250.155 55.5459 248.342 54.1119 246.132 52.3593L242.114 49.1727L242.108 49.1004C242.1 49.003 242.136 48.0917 242.167 47.5932C242.4 43.9093 243.163 40.3524 244.282 37.732ZM257.366 38.9192C259.829 36.7699 263.238 35.632 267.645 35.4878C268.039 35.4749 269.299 35.4785 269.707 35.4936C270.466 35.5218 271.624 35.5968 271.646 35.6192C271.655 35.628 269.802 46.9708 269.79 46.9831C269.782 46.9908 269.174 47.0756 267.672 47.2783C265.158 47.6175 264.145 47.7801 263.092 48.0134C260.609 48.5632 258.909 49.4014 257.126 50.9542C256.795 51.2419 255.868 52.1704 255.441 52.6413C254.738 53.4158 254.309 53.8265 253.37 54.6243L252.519 55.3474L252.508 55.2148C252.456 54.6237 252.446 52.3481 252.492 51.4515C252.65 48.3674 253.106 46.0058 253.959 43.8638C254.756 41.8622 255.906 40.1934 257.366 38.9192ZM288.928 36.9058C289.621 36.4114 290.279 36.1574 291.062 36.0825C291.198 36.0696 291.379 36.072 291.563 36.0892C293.093 36.2331 294.454 37.3942 295.613 39.5444C296.323 40.8623 296.813 42.4308 297.203 44.6379C298.042 49.384 298.064 55.8782 297.256 59.8269C296.904 61.5443 296.112 63.8328 295.419 65.1346C294.37 67.1039 293.264 68.1607 291.957 68.4447C291.796 68.4797 291.725 68.4846 291.387 68.4843C290.942 68.4839 290.805 68.462 290.396 68.3262C287.668 67.4212 285.163 62.8098 284.237 56.9894C283.952 55.1972 283.836 53.5579 283.856 51.6269C283.866 50.6781 283.875 50.4472 283.93 49.658C284.081 47.5068 284.471 45.2836 285.053 43.2602C285.652 41.1803 286.516 39.4496 287.608 38.1445C287.962 37.7206 288.521 37.1967 288.928 36.9058ZM257.871 52.5458C260.129 50.5682 263.341 49.5039 267.505 49.3531C268.079 49.3323 268.871 49.3324 269.514 49.3533C269.837 49.3638 270.103 49.3737 270.105 49.3752C270.106 49.3767 270.179 52.1811 270.267 55.6071C270.354 59.0332 270.431 61.9589 270.437 62.1088L270.448 62.3812L270.257 62.5042C269.731 62.844 269.272 63.0501 268.295 63.3848C267.713 63.5841 267.596 63.6352 266.601 64.1246C265.296 64.7666 264.838 65.0182 264.259 65.411C262.868 66.3535 261.166 67.9392 257.761 71.4643C257.303 71.9383 256.923 72.3261 256.917 72.3261C256.91 72.3261 256.82 72.1194 256.717 71.8668C255.463 68.794 254.715 65.985 254.45 63.3586C254.373 62.5932 254.362 62.3491 254.362 61.3988C254.362 60.474 254.371 60.2623 254.441 59.6228C254.709 57.164 255.543 55.1177 256.941 53.4873C257.166 53.2253 257.62 52.7651 257.871 52.5458ZM242.017 53.9361C242.008 53.6811 242 53.0722 242 52.583L242 51.6935L242.311 51.855C243.829 52.6422 244.989 53.4853 246.159 54.6526C247.203 55.6933 248.053 56.7926 248.902 58.2008C250.308 60.5324 251.488 63.3932 252.999 68.1354C253.51 69.7407 254.201 71.959 254.192 71.968C254.187 71.973 253.935 71.9253 253.632 71.8621C251.465 71.4094 250.099 71.0457 248.96 70.6179C246.397 69.6554 244.83 68.3184 244.1 66.4731C244.047 66.3384 243.948 66.0569 243.879 65.8477C242.905 62.8749 242.182 58.2515 242.017 53.9361ZM264.855 66.4455C266.205 65.7498 267.657 65.3684 269.315 65.2744C269.586 65.259 270.573 65.2664 270.787 65.2855L270.91 65.2964L272.479 70.4167C273.342 73.2328 274.051 75.553 274.055 75.5727C274.061 75.6038 274.015 75.6309 273.714 75.7765C273.097 76.0742 272.6 76.2549 271.532 76.5699C270.498 76.8748 270.043 77.043 269.445 77.3406C268.778 77.6722 268.188 78.0543 267.514 78.5909C266.953 79.0372 266.555 79.4169 265.825 80.2016C265.132 80.9466 264.752 81.283 264.152 81.6829C263.847 81.8862 263.705 81.9705 263.682 81.9618C263.594 81.928 262.907 81.3276 262.563 80.984C260.964 79.3871 260.042 77.4996 259.817 75.3619C259.775 74.9689 259.775 74.1379 259.816 73.7297C259.929 72.6149 260.228 71.5789 260.724 70.5913C260.923 70.1954 261.041 69.9935 261.311 69.5877C262.189 68.2704 263.403 67.1939 264.855 66.4455ZM246.956 71.8449C246.913 71.6813 246.878 71.5328 246.878 71.5148C246.878 71.4749 246.895 71.4769 247.395 71.5761C248.196 71.7344 248.936 71.9294 249.677 72.1766C251.844 72.9003 253.709 74.0394 255.353 75.6442C256.316 76.5836 256.755 77.0783 258.275 78.9314C259.402 80.3066 259.694 80.6482 260.417 81.4423C261.44 82.5652 262.049 83.3242 262.692 84.277C262.954 84.6658 263.478 85.487 263.478 85.5099C263.478 85.5263 262.619 85.5199 262.372 85.5017C260.412 85.3568 258.436 84.6804 256.38 83.4499C255.23 82.7619 254.134 81.9437 253.002 80.9286C252.676 80.6362 251.622 79.5852 251.324 79.2551C249.887 77.6636 248.759 76.0455 247.939 74.3996C247.466 73.4499 247.18 72.7058 246.956 71.8449ZM270.5 78.8113C271.504 78.4382 272.602 78.1994 273.769 78.1005C273.992 78.0816 275.213 78.0901 275.264 78.111C275.304 78.1273 281.905 85.697 281.891 85.7112C281.879 85.7238 279.374 85.8546 278.367 85.8952C272.619 86.1266 269.173 85.7326 267.813 84.6886C267.553 84.4896 267.386 84.2732 267.198 83.8952C266.937 83.3706 266.832 82.9231 266.851 82.4163C266.865 82.0542 266.943 81.7336 267.1 81.3986C267.583 80.3684 268.798 79.4437 270.5 78.8113Z" fill="#474747" fill-opacity="0.55"/>
</svg>
