<svg width="41" height="41" viewBox="0 0 41 41" fill="none" xmlns="http://www.w3.org/2000/svg">
<path d="M41 20.5C41 31.8218 31.8218 41 20.5 41C9.17816 41 0 31.8218 0 20.5C0 9.17816 9.17816 0 20.5 0C31.8218 0 41 9.17816 41 20.5Z" fill="#C66D2C"/>
<path d="M8 20.0468C8 20.5441 8.20503 21.021 8.57 21.3726C8.93496 21.7242 9.42995 21.9218 9.94608 21.9218L25.3591 21.9218L20.2474 26.8468C19.9036 27.2022 19.7165 27.6723 19.7254 28.1581C19.7343 28.6438 19.9385 29.1073 20.295 29.4508C20.6516 29.7944 21.1326 29.9911 21.6368 29.9997C22.141 30.0083 22.6289 29.828 22.9978 29.4968L31.4309 21.3718C31.7953 21.0202 32 20.5436 32 20.0468C32 19.5499 31.7953 19.0733 31.4309 18.7218L22.9978 10.5968C22.8197 10.4126 22.6048 10.2648 22.3661 10.1623C22.1274 10.0598 21.8697 10.0047 21.6084 10.0003C21.3471 9.99585 21.0875 10.0422 20.8452 10.1365C20.6029 10.2308 20.3828 10.3711 20.198 10.5492C20.0132 10.7272 19.8675 10.9393 19.7696 11.1728C19.6717 11.4062 19.6237 11.6563 19.6283 11.9081C19.6329 12.1598 19.6901 12.4081 19.7964 12.6381C19.9028 12.8681 20.0562 13.0751 20.2474 13.2468L25.3591 18.1718L9.94608 18.1718C8.87185 18.1718 8 19.0118 8 20.0468Z" fill="#F1EFE9"/>
</svg>
