<svg width="41" height="41" viewBox="0 0 41 41" fill="none" xmlns="http://www.w3.org/2000/svg">
<path d="M-2.38419e-07 20.5C-2.38419e-07 9.17816 9.17816 -2.38419e-07 20.5 -2.38419e-07C31.8218 -2.38419e-07 41 9.17816 41 20.5C41 31.8218 31.8218 41 20.5 41C9.17816 41 -2.38419e-07 31.8218 -2.38419e-07 20.5Z" fill="#C66D2C"/>
<path d="M33 20.9532C33 20.4559 32.795 19.979 32.43 19.6274C32.065 19.2758 31.57 19.0782 31.0539 19.0782L15.6409 19.0782L20.7526 14.1532C21.0964 13.7978 21.2835 13.3277 21.2746 12.8419C21.2657 12.3562 21.0615 11.8927 20.705 11.5492C20.3484 11.2056 19.8674 11.0089 19.3632 11.0003C18.859 10.9917 18.3711 11.172 18.0022 11.5032L9.56914 19.6282C9.2047 19.9798 9 20.4564 9 20.9532C9 21.4501 9.2047 21.9267 9.56914 22.2782L18.0022 30.4032C18.1803 30.5874 18.3952 30.7352 18.6339 30.8377C18.8726 30.9402 19.1303 30.9953 19.3916 30.9997C19.6529 31.0042 19.9125 30.9578 20.1548 30.8635C20.3971 30.7692 20.6172 30.6289 20.802 30.4508C20.9868 30.2728 21.1325 30.0607 21.2304 29.8272C21.3283 29.5938 21.3763 29.3437 21.3717 29.0919C21.3671 28.8402 21.3099 28.5919 21.2036 28.3619C21.0972 28.1319 20.9438 27.9249 20.7526 27.7532L15.6409 22.8282L31.0539 22.8282C32.1282 22.8282 33 21.9882 33 20.9532Z" fill="#F1EFE9"/>
</svg>
