<svg width="44" height="42" viewBox="0 0 44 42" fill="none" xmlns="http://www.w3.org/2000/svg">
<g clip-path="url(#clip0_98_1290)">
<path d="M35.7491 29.7943C35.8181 28.7634 35.1442 27.8116 34.1679 27.4927L27.0467 24.3786C26.0456 23.9366 24.8578 24.2671 24.2241 25.1721L23.3646 26.4156C20.9305 24.9319 19.5357 22.3795 19.5357 22.3795C19.5357 22.3795 17.6607 20.1434 17.133 17.3447L18.5877 16.9677C19.1045 16.8308 19.5588 16.5178 19.8733 16.0818C20.1878 15.6459 20.3431 15.1139 20.3128 14.5766L19.919 6.75146C19.9652 5.71649 19.3183 4.74582 18.3378 4.44988C16.5134 3.8827 13.5882 3.42464 11.6587 5.25708C11.6587 5.25708 3.29018 13.5836 12.6655 27.2306C22.0408 40.8776 32.6973 35.8816 32.6973 35.8816C35.0774 34.676 35.6546 31.7453 35.7863 29.8485L35.7491 29.7943Z" fill="#315C32"/>
</g>
<defs>
<clipPath id="clip0_98_1290">
<rect width="35" height="37" fill="white" transform="translate(43.5195 6.58691) rotate(100.255)"/>
</clipPath>
</defs>
</svg>
