<svg width="944" height="311" viewBox="0 0 944 311" fill="none" xmlns="http://www.w3.org/2000/svg">
<path d="M97.8399 117.7C97.1332 118.553 96.2999 119.207 95.3399 119.66C94.3799 120.1 93.3066 120.32 92.1199 120.32C91.0532 120.32 90.0599 120.127 89.1399 119.74C88.2332 119.353 87.4465 118.827 86.7799 118.16C86.1132 117.493 85.5865 116.707 85.1999 115.8C84.8132 114.88 84.6199 113.893 84.6199 112.84C84.6199 111.787 84.8132 110.807 85.1999 109.9C85.5865 108.98 86.1132 108.187 86.7799 107.52C87.4465 106.853 88.2332 106.327 89.1399 105.94C90.0599 105.553 91.0532 105.36 92.1199 105.36C93.2666 105.36 94.2732 105.56 95.1399 105.96C96.0199 106.36 96.7999 106.94 97.4799 107.7L95.5799 109.54C95.1532 109.047 94.6599 108.653 94.0999 108.36C93.5532 108.067 92.8999 107.92 92.1399 107.92C91.4732 107.92 90.8465 108.04 90.2599 108.28C89.6732 108.507 89.1599 108.833 88.7199 109.26C88.2932 109.687 87.9532 110.207 87.6999 110.82C87.4465 111.42 87.3199 112.093 87.3199 112.84C87.3199 113.587 87.4465 114.267 87.6999 114.88C87.9532 115.48 88.2932 115.993 88.7199 116.42C89.1599 116.847 89.6732 117.18 90.2599 117.42C90.8465 117.647 91.4732 117.76 92.1399 117.76C92.9399 117.76 93.6466 117.6 94.2599 117.28C94.8866 116.947 95.4399 116.48 95.9199 115.88L97.8399 117.7ZM103.937 109.88C104.697 109.88 105.39 110.013 106.017 110.28C106.657 110.533 107.203 110.893 107.657 111.36C108.123 111.813 108.483 112.36 108.737 113C109.003 113.64 109.137 114.34 109.137 115.1C109.137 115.86 109.003 116.56 108.737 117.2C108.483 117.84 108.123 118.393 107.657 118.86C107.203 119.313 106.657 119.673 106.017 119.94C105.39 120.193 104.697 120.32 103.937 120.32C103.177 120.32 102.477 120.193 101.837 119.94C101.21 119.673 100.663 119.313 100.197 118.86C99.7434 118.393 99.3834 117.84 99.1168 117.2C98.8634 116.56 98.7368 115.86 98.7368 115.1C98.7368 114.34 98.8634 113.64 99.1168 113C99.3834 112.36 99.7434 111.813 100.197 111.36C100.663 110.893 101.21 110.533 101.837 110.28C102.477 110.013 103.177 109.88 103.937 109.88ZM103.937 117.9C104.27 117.9 104.59 117.84 104.897 117.72C105.217 117.587 105.497 117.4 105.737 117.16C105.977 116.92 106.163 116.627 106.297 116.28C106.443 115.933 106.517 115.54 106.517 115.1C106.517 114.66 106.443 114.267 106.297 113.92C106.163 113.573 105.977 113.28 105.737 113.04C105.497 112.8 105.217 112.62 104.897 112.5C104.59 112.367 104.27 112.3 103.937 112.3C103.59 112.3 103.263 112.367 102.957 112.5C102.65 112.62 102.377 112.8 102.137 113.04C101.897 113.28 101.703 113.573 101.557 113.92C101.423 114.267 101.357 114.66 101.357 115.1C101.357 115.54 101.423 115.933 101.557 116.28C101.703 116.627 101.897 116.92 102.137 117.16C102.377 117.4 102.65 117.587 102.957 117.72C103.263 117.84 103.59 117.9 103.937 117.9ZM113.085 111.48H113.245C113.552 110.987 113.965 110.6 114.485 110.32C115.005 110.027 115.598 109.88 116.265 109.88C116.878 109.88 117.418 109.98 117.885 110.18C118.352 110.38 118.732 110.667 119.025 111.04C119.332 111.4 119.558 111.84 119.705 112.36C119.865 112.867 119.945 113.433 119.945 114.06V120H117.325V114.38C117.325 113.673 117.165 113.153 116.845 112.82C116.538 112.473 116.085 112.3 115.485 112.3C115.125 112.3 114.805 112.38 114.525 112.54C114.258 112.687 114.025 112.893 113.825 113.16C113.638 113.413 113.492 113.72 113.385 114.08C113.292 114.427 113.245 114.8 113.245 115.2V120H110.625V110.2H113.085V111.48ZM122.681 112.44H120.961V110.2H122.681V107.2H125.301V110.2H127.701V112.44H125.301V116.24C125.301 116.467 125.321 116.68 125.361 116.88C125.415 117.067 125.508 117.227 125.641 117.36C125.828 117.573 126.095 117.68 126.441 117.68C126.668 117.68 126.848 117.66 126.981 117.62C127.115 117.567 127.241 117.5 127.361 117.42L128.101 119.72C127.795 119.867 127.461 119.973 127.101 120.04C126.755 120.12 126.368 120.16 125.941 120.16C125.448 120.16 125.001 120.087 124.601 119.94C124.215 119.78 123.888 119.567 123.621 119.3C122.995 118.7 122.681 117.847 122.681 116.74V112.44ZM135.473 118.96H135.313C135.007 119.333 134.633 119.653 134.193 119.92C133.767 120.187 133.213 120.32 132.533 120.32C132.027 120.32 131.547 120.233 131.093 120.06C130.653 119.9 130.267 119.673 129.933 119.38C129.6 119.087 129.34 118.733 129.153 118.32C128.967 117.907 128.873 117.453 128.873 116.96C128.873 116.453 128.973 116 129.173 115.6C129.373 115.187 129.653 114.833 130.013 114.54C130.373 114.247 130.793 114.027 131.273 113.88C131.767 113.72 132.3 113.64 132.873 113.64C133.513 113.64 134.04 113.693 134.453 113.8C134.867 113.893 135.207 113.993 135.473 114.1V113.8C135.473 113.28 135.267 112.853 134.853 112.52C134.44 112.173 133.927 112 133.313 112C132.407 112 131.64 112.38 131.013 113.14L129.113 111.84C130.153 110.533 131.573 109.88 133.373 109.88C134.893 109.88 136.053 110.24 136.853 110.96C137.653 111.667 138.053 112.72 138.053 114.12V120H135.473V118.96ZM135.473 116.02C135.167 115.873 134.847 115.76 134.513 115.68C134.193 115.587 133.84 115.54 133.453 115.54C132.827 115.54 132.34 115.68 131.993 115.96C131.66 116.227 131.493 116.56 131.493 116.96C131.493 117.36 131.653 117.68 131.973 117.92C132.307 118.16 132.687 118.28 133.113 118.28C133.46 118.28 133.78 118.22 134.073 118.1C134.367 117.967 134.613 117.8 134.813 117.6C135.027 117.387 135.187 117.147 135.293 116.88C135.413 116.6 135.473 116.313 135.473 116.02ZM141.021 112.44H139.301V110.2H141.021V107.2H143.641V110.2H146.041V112.44H143.641V116.24C143.641 116.467 143.661 116.68 143.701 116.88C143.755 117.067 143.848 117.227 143.981 117.36C144.168 117.573 144.435 117.68 144.781 117.68C145.008 117.68 145.188 117.66 145.321 117.62C145.455 117.567 145.581 117.5 145.701 117.42L146.441 119.72C146.135 119.867 145.801 119.973 145.441 120.04C145.095 120.12 144.708 120.16 144.281 120.16C143.788 120.16 143.341 120.087 142.941 119.94C142.555 119.78 142.228 119.567 141.961 119.3C141.335 118.7 141.021 117.847 141.021 116.74V112.44ZM152.511 109.88C153.271 109.88 153.964 110.013 154.591 110.28C155.231 110.533 155.778 110.893 156.231 111.36C156.698 111.813 157.058 112.36 157.311 113C157.578 113.64 157.711 114.34 157.711 115.1C157.711 115.86 157.578 116.56 157.311 117.2C157.058 117.84 156.698 118.393 156.231 118.86C155.778 119.313 155.231 119.673 154.591 119.94C153.964 120.193 153.271 120.32 152.511 120.32C151.751 120.32 151.051 120.193 150.411 119.94C149.784 119.673 149.238 119.313 148.771 118.86C148.318 118.393 147.958 117.84 147.691 117.2C147.438 116.56 147.311 115.86 147.311 115.1C147.311 114.34 147.438 113.64 147.691 113C147.958 112.36 148.318 111.813 148.771 111.36C149.238 110.893 149.784 110.533 150.411 110.28C151.051 110.013 151.751 109.88 152.511 109.88ZM152.511 117.9C152.844 117.9 153.164 117.84 153.471 117.72C153.791 117.587 154.071 117.4 154.311 117.16C154.551 116.92 154.738 116.627 154.871 116.28C155.018 115.933 155.091 115.54 155.091 115.1C155.091 114.66 155.018 114.267 154.871 113.92C154.738 113.573 154.551 113.28 154.311 113.04C154.071 112.8 153.791 112.62 153.471 112.5C153.164 112.367 152.844 112.3 152.511 112.3C152.164 112.3 151.838 112.367 151.531 112.5C151.224 112.62 150.951 112.8 150.711 113.04C150.471 113.28 150.278 113.573 150.131 113.92C149.998 114.267 149.931 114.66 149.931 115.1C149.931 115.54 149.998 115.933 150.131 116.28C150.278 116.627 150.471 116.92 150.711 117.16C150.951 117.4 151.224 117.587 151.531 117.72C151.838 117.84 152.164 117.9 152.511 117.9Z" fill="#474747"/>
<path d="M463.02 108.24V111.56H468.76V114.12H463.02V117.44H469.4V120H460.32V105.68H469.4V108.24H463.02ZM473.827 111.48H473.987C474.294 110.987 474.707 110.6 475.227 110.32C475.747 110.027 476.34 109.88 477.007 109.88C477.62 109.88 478.16 109.98 478.627 110.18C479.094 110.38 479.474 110.667 479.767 111.04C480.074 111.4 480.3 111.84 480.447 112.36C480.607 112.867 480.687 113.433 480.687 114.06V120H478.067V114.38C478.067 113.673 477.907 113.153 477.587 112.82C477.28 112.473 476.827 112.3 476.227 112.3C475.867 112.3 475.547 112.38 475.267 112.54C475 112.687 474.767 112.893 474.567 113.16C474.38 113.413 474.234 113.72 474.127 114.08C474.034 114.427 473.987 114.8 473.987 115.2V120H471.367V110.2H473.827V111.48ZM490.151 118.82H489.991C489.751 119.233 489.378 119.587 488.871 119.88C488.365 120.173 487.738 120.32 486.991 120.32C486.365 120.32 485.765 120.193 485.191 119.94C484.631 119.673 484.131 119.313 483.691 118.86C483.265 118.393 482.925 117.84 482.671 117.2C482.418 116.56 482.291 115.86 482.291 115.1C482.291 114.34 482.418 113.64 482.671 113C482.925 112.36 483.265 111.813 483.691 111.36C484.131 110.893 484.631 110.533 485.191 110.28C485.765 110.013 486.365 109.88 486.991 109.88C487.738 109.88 488.365 110.027 488.871 110.32C489.378 110.613 489.751 110.967 489.991 111.38H490.151L489.991 109.98V105.68H492.611V120H490.151V118.82ZM487.531 117.9C487.878 117.9 488.205 117.84 488.511 117.72C488.831 117.587 489.111 117.4 489.351 117.16C489.591 116.92 489.785 116.627 489.931 116.28C490.078 115.933 490.151 115.54 490.151 115.1C490.151 114.66 490.078 114.267 489.931 113.92C489.785 113.573 489.591 113.28 489.351 113.04C489.111 112.8 488.831 112.62 488.511 112.5C488.205 112.367 487.878 112.3 487.531 112.3C487.185 112.3 486.851 112.367 486.531 112.5C486.225 112.633 485.951 112.82 485.711 113.06C485.471 113.3 485.278 113.593 485.131 113.94C484.985 114.287 484.911 114.673 484.911 115.1C484.911 115.527 484.985 115.913 485.131 116.26C485.278 116.607 485.471 116.9 485.711 117.14C485.951 117.38 486.225 117.567 486.531 117.7C486.851 117.833 487.185 117.9 487.531 117.9ZM504.026 117.64C503.573 118.44 502.959 119.087 502.186 119.58C501.426 120.073 500.493 120.32 499.386 120.32C498.639 120.32 497.946 120.193 497.306 119.94C496.679 119.673 496.133 119.307 495.666 118.84C495.199 118.373 494.833 117.827 494.566 117.2C494.313 116.56 494.186 115.86 494.186 115.1C494.186 114.393 494.313 113.727 494.566 113.1C494.819 112.46 495.173 111.907 495.626 111.44C496.079 110.96 496.613 110.58 497.226 110.3C497.853 110.02 498.539 109.88 499.286 109.88C500.073 109.88 500.773 110.013 501.386 110.28C501.999 110.533 502.513 110.893 502.926 111.36C503.339 111.813 503.653 112.353 503.866 112.98C504.079 113.607 504.186 114.287 504.186 115.02C504.186 115.113 504.186 115.193 504.186 115.26C504.173 115.34 504.166 115.413 504.166 115.48C504.153 115.547 504.146 115.62 504.146 115.7H496.766C496.819 116.1 496.926 116.447 497.086 116.74C497.259 117.02 497.466 117.26 497.706 117.46C497.959 117.647 498.233 117.787 498.526 117.88C498.819 117.96 499.119 118 499.426 118C500.026 118 500.519 117.867 500.906 117.6C501.306 117.32 501.619 116.973 501.846 116.56L504.026 117.64ZM501.646 113.84C501.633 113.667 501.573 113.473 501.466 113.26C501.373 113.047 501.226 112.847 501.026 112.66C500.839 112.473 500.599 112.32 500.306 112.2C500.026 112.08 499.686 112.02 499.286 112.02C498.726 112.02 498.233 112.18 497.806 112.5C497.379 112.82 497.079 113.267 496.906 113.84H501.646ZM505.859 110.2H508.319V111.56H508.479C508.599 111.32 508.759 111.1 508.959 110.9C509.159 110.7 509.379 110.527 509.619 110.38C509.873 110.233 510.139 110.12 510.419 110.04C510.713 109.96 510.999 109.92 511.279 109.92C511.626 109.92 511.919 109.953 512.159 110.02C512.413 110.087 512.626 110.173 512.799 110.28L512.099 112.66C511.939 112.58 511.759 112.52 511.559 112.48C511.373 112.427 511.139 112.4 510.859 112.4C510.499 112.4 510.173 112.473 509.879 112.62C509.586 112.753 509.333 112.947 509.119 113.2C508.919 113.453 508.759 113.753 508.639 114.1C508.533 114.433 508.479 114.8 508.479 115.2V120H505.859V110.2ZM522.678 117.64C522.225 118.44 521.612 119.087 520.838 119.58C520.078 120.073 519.145 120.32 518.038 120.32C517.292 120.32 516.598 120.193 515.958 119.94C515.332 119.673 514.785 119.307 514.318 118.84C513.852 118.373 513.485 117.827 513.218 117.2C512.965 116.56 512.838 115.86 512.838 115.1C512.838 114.393 512.965 113.727 513.218 113.1C513.472 112.46 513.825 111.907 514.278 111.44C514.732 110.96 515.265 110.58 515.878 110.3C516.505 110.02 517.192 109.88 517.938 109.88C518.725 109.88 519.425 110.013 520.038 110.28C520.652 110.533 521.165 110.893 521.578 111.36C521.992 111.813 522.305 112.353 522.518 112.98C522.732 113.607 522.838 114.287 522.838 115.02C522.838 115.113 522.838 115.193 522.838 115.26C522.825 115.34 522.818 115.413 522.818 115.48C522.805 115.547 522.798 115.62 522.798 115.7H515.418C515.472 116.1 515.578 116.447 515.738 116.74C515.912 117.02 516.118 117.26 516.358 117.46C516.612 117.647 516.885 117.787 517.178 117.88C517.472 117.96 517.772 118 518.078 118C518.678 118 519.172 117.867 519.558 117.6C519.958 117.32 520.272 116.973 520.498 116.56L522.678 117.64ZM520.298 113.84C520.285 113.667 520.225 113.473 520.118 113.26C520.025 113.047 519.878 112.847 519.678 112.66C519.492 112.473 519.252 112.32 518.958 112.2C518.678 112.08 518.338 112.02 517.938 112.02C517.378 112.02 516.885 112.18 516.458 112.5C516.032 112.82 515.732 113.267 515.558 113.84H520.298ZM529.369 124.74C528.889 124.74 528.476 124.613 528.129 124.36C527.783 124.107 527.536 123.793 527.389 123.42L528.669 122.88C528.723 123.04 528.809 123.173 528.929 123.28C529.049 123.387 529.196 123.44 529.369 123.44C529.583 123.44 529.743 123.373 529.849 123.24C529.969 123.12 530.029 122.973 530.029 122.8C530.029 122.627 529.969 122.467 529.849 122.32C529.743 122.187 529.583 122.12 529.369 122.12C529.249 122.12 529.143 122.147 529.049 122.2C528.969 122.267 528.896 122.333 528.829 122.4L527.609 121.84L528.229 120.22C527.603 120.113 527.036 119.913 526.529 119.62C526.023 119.327 525.583 118.96 525.209 118.52C524.836 118.067 524.549 117.553 524.349 116.98C524.149 116.393 524.049 115.767 524.049 115.1C524.049 114.34 524.176 113.64 524.429 113C524.696 112.36 525.056 111.813 525.509 111.36C525.976 110.893 526.523 110.533 527.149 110.28C527.789 110.013 528.489 109.88 529.249 109.88C530.383 109.88 531.336 110.14 532.109 110.66C532.883 111.18 533.449 111.853 533.809 112.68L531.409 113.68C531.183 113.227 530.889 112.887 530.529 112.66C530.183 112.42 529.743 112.3 529.209 112.3C528.863 112.3 528.536 112.367 528.229 112.5C527.923 112.633 527.649 112.82 527.409 113.06C527.183 113.3 527.003 113.593 526.869 113.94C526.736 114.287 526.669 114.673 526.669 115.1C526.669 115.527 526.736 115.913 526.869 116.26C527.003 116.607 527.183 116.9 527.409 117.14C527.649 117.38 527.923 117.567 528.229 117.7C528.536 117.833 528.863 117.9 529.209 117.9C529.756 117.9 530.216 117.78 530.589 117.54C530.976 117.287 531.283 116.927 531.509 116.46L533.909 117.5C533.509 118.3 532.949 118.953 532.229 119.46C531.509 119.967 530.616 120.253 529.549 120.32L529.269 120.94C529.336 120.927 529.396 120.92 529.449 120.92C529.503 120.92 529.563 120.92 529.629 120.92C530.149 120.92 530.589 121.087 530.949 121.42C531.323 121.753 531.509 122.22 531.509 122.82C531.509 123.38 531.309 123.84 530.909 124.2C530.523 124.56 530.009 124.74 529.369 124.74ZM540.05 109.88C540.81 109.88 541.503 110.013 542.13 110.28C542.77 110.533 543.317 110.893 543.77 111.36C544.237 111.813 544.597 112.36 544.85 113C545.117 113.64 545.25 114.34 545.25 115.1C545.25 115.86 545.117 116.56 544.85 117.2C544.597 117.84 544.237 118.393 543.77 118.86C543.317 119.313 542.77 119.673 542.13 119.94C541.503 120.193 540.81 120.32 540.05 120.32C539.29 120.32 538.59 120.193 537.95 119.94C537.323 119.673 536.777 119.313 536.31 118.86C535.857 118.393 535.497 117.84 535.23 117.2C534.977 116.56 534.85 115.86 534.85 115.1C534.85 114.34 534.977 113.64 535.23 113C535.497 112.36 535.857 111.813 536.31 111.36C536.777 110.893 537.323 110.533 537.95 110.28C538.59 110.013 539.29 109.88 540.05 109.88ZM540.05 117.9C540.383 117.9 540.703 117.84 541.01 117.72C541.33 117.587 541.61 117.4 541.85 117.16C542.09 116.92 542.277 116.627 542.41 116.28C542.557 115.933 542.63 115.54 542.63 115.1C542.63 114.66 542.557 114.267 542.41 113.92C542.277 113.573 542.09 113.28 541.85 113.04C541.61 112.8 541.33 112.62 541.01 112.5C540.703 112.367 540.383 112.3 540.05 112.3C539.703 112.3 539.377 112.367 539.07 112.5C538.763 112.62 538.49 112.8 538.25 113.04C538.01 113.28 537.817 113.573 537.67 113.92C537.537 114.267 537.47 114.66 537.47 115.1C537.47 115.54 537.537 115.933 537.67 116.28C537.817 116.627 538.01 116.92 538.25 117.16C538.49 117.4 538.763 117.587 539.07 117.72C539.377 117.84 539.703 117.9 540.05 117.9Z" fill="#474747"/>
<path d="M91.6999 226.32C91.0865 226.32 90.4999 226.233 89.9399 226.06C89.3799 225.887 88.8665 225.627 88.3999 225.28C87.9332 224.933 87.5265 224.513 87.1799 224.02C86.8332 223.513 86.5599 222.927 86.3599 222.26L88.8999 221.26C89.0865 221.98 89.4132 222.58 89.8799 223.06C90.3465 223.527 90.9599 223.76 91.7199 223.76C91.9999 223.76 92.2665 223.727 92.5199 223.66C92.7865 223.58 93.0199 223.473 93.2199 223.34C93.4332 223.193 93.5999 223.013 93.7199 222.8C93.8399 222.587 93.8999 222.34 93.8999 222.06C93.8999 221.793 93.8532 221.553 93.7599 221.34C93.6665 221.127 93.5065 220.927 93.2799 220.74C93.0665 220.553 92.7799 220.373 92.4199 220.2C92.0732 220.027 91.6399 219.847 91.1199 219.66L90.2399 219.34C89.8532 219.207 89.4599 219.027 89.0599 218.8C88.6732 218.573 88.3199 218.3 87.9999 217.98C87.6799 217.66 87.4132 217.287 87.1999 216.86C86.9999 216.42 86.8999 215.927 86.8999 215.38C86.8999 214.82 87.0065 214.3 87.2199 213.82C87.4465 213.327 87.7599 212.9 88.1599 212.54C88.5732 212.167 89.0599 211.88 89.6199 211.68C90.1932 211.467 90.8265 211.36 91.5199 211.36C92.2399 211.36 92.8599 211.46 93.3799 211.66C93.9132 211.847 94.3599 212.093 94.7199 212.4C95.0932 212.693 95.3932 213.02 95.6199 213.38C95.8465 213.74 96.0132 214.08 96.1199 214.4L93.7399 215.4C93.6065 215 93.3599 214.64 92.9999 214.32C92.6532 214 92.1732 213.84 91.5599 213.84C90.9732 213.84 90.4865 213.98 90.0999 214.26C89.7132 214.527 89.5199 214.88 89.5199 215.32C89.5199 215.747 89.7065 216.113 90.0799 216.42C90.4532 216.713 91.0465 217 91.8599 217.28L92.7599 217.58C93.3332 217.78 93.8532 218.013 94.3199 218.28C94.7999 218.533 95.2066 218.84 95.5399 219.2C95.8865 219.56 96.1465 219.973 96.3199 220.44C96.5065 220.893 96.5999 221.42 96.5999 222.02C96.5999 222.767 96.4465 223.413 96.1399 223.96C95.8465 224.493 95.4666 224.933 94.9999 225.28C94.5332 225.627 94.0065 225.887 93.4199 226.06C92.8332 226.233 92.2599 226.32 91.6999 226.32ZM107.784 223.64C107.33 224.44 106.717 225.087 105.944 225.58C105.184 226.073 104.25 226.32 103.144 226.32C102.397 226.32 101.704 226.193 101.064 225.94C100.437 225.673 99.8905 225.307 99.4238 224.84C98.9571 224.373 98.5905 223.827 98.3238 223.2C98.0705 222.56 97.9438 221.86 97.9438 221.1C97.9438 220.393 98.0705 219.727 98.3238 219.1C98.5771 218.46 98.9305 217.907 99.3838 217.44C99.8371 216.96 100.37 216.58 100.984 216.3C101.61 216.02 102.297 215.88 103.044 215.88C103.83 215.88 104.53 216.013 105.144 216.28C105.757 216.533 106.27 216.893 106.684 217.36C107.097 217.813 107.41 218.353 107.624 218.98C107.837 219.607 107.944 220.287 107.944 221.02C107.944 221.113 107.944 221.193 107.944 221.26C107.93 221.34 107.924 221.413 107.924 221.48C107.91 221.547 107.904 221.62 107.904 221.7H100.524C100.577 222.1 100.684 222.447 100.844 222.74C101.017 223.02 101.224 223.26 101.464 223.46C101.717 223.647 101.99 223.787 102.284 223.88C102.577 223.96 102.877 224 103.184 224C103.784 224 104.277 223.867 104.664 223.6C105.064 223.32 105.377 222.973 105.604 222.56L107.784 223.64ZM105.404 219.84C105.39 219.667 105.33 219.473 105.224 219.26C105.13 219.047 104.984 218.847 104.784 218.66C104.597 218.473 104.357 218.32 104.064 218.2C103.784 218.08 103.444 218.02 103.044 218.02C102.484 218.02 101.99 218.18 101.564 218.5C101.137 218.82 100.837 219.267 100.664 219.84H105.404ZM109.617 216.2H112.077V217.56H112.237C112.357 217.32 112.517 217.1 112.717 216.9C112.917 216.7 113.137 216.527 113.377 216.38C113.63 216.233 113.897 216.12 114.177 216.04C114.47 215.96 114.757 215.92 115.037 215.92C115.384 215.92 115.677 215.953 115.917 216.02C116.17 216.087 116.384 216.173 116.557 216.28L115.857 218.66C115.697 218.58 115.517 218.52 115.317 218.48C115.13 218.427 114.897 218.4 114.617 218.4C114.257 218.4 113.93 218.473 113.637 218.62C113.344 218.753 113.09 218.947 112.877 219.2C112.677 219.453 112.517 219.753 112.397 220.1C112.29 220.433 112.237 220.8 112.237 221.2V226H109.617V216.2ZM116.917 216.2H119.897L122.337 222.44H122.477L124.937 216.2H127.897L123.677 226H121.097L116.917 216.2ZM130.55 214.78C130.323 214.78 130.103 214.74 129.89 214.66C129.69 214.567 129.51 214.447 129.35 214.3C129.203 214.14 129.083 213.96 128.99 213.76C128.91 213.56 128.87 213.34 128.87 213.1C128.87 212.86 128.91 212.64 128.99 212.44C129.083 212.24 129.203 212.067 129.35 211.92C129.51 211.76 129.69 211.64 129.89 211.56C130.103 211.467 130.323 211.42 130.55 211.42C131.016 211.42 131.416 211.587 131.75 211.92C132.083 212.24 132.25 212.633 132.25 213.1C132.25 213.567 132.083 213.967 131.75 214.3C131.416 214.62 131.016 214.78 130.55 214.78ZM129.25 226V216.2H131.87V226H129.25ZM138.928 230.74C138.448 230.74 138.035 230.613 137.688 230.36C137.341 230.107 137.095 229.793 136.948 229.42L138.228 228.88C138.281 229.04 138.368 229.173 138.488 229.28C138.608 229.387 138.755 229.44 138.928 229.44C139.141 229.44 139.301 229.373 139.408 229.24C139.528 229.12 139.588 228.973 139.588 228.8C139.588 228.627 139.528 228.467 139.408 228.32C139.301 228.187 139.141 228.12 138.928 228.12C138.808 228.12 138.701 228.147 138.608 228.2C138.528 228.267 138.455 228.333 138.388 228.4L137.168 227.84L137.788 226.22C137.161 226.113 136.595 225.913 136.088 225.62C135.581 225.327 135.141 224.96 134.768 224.52C134.395 224.067 134.108 223.553 133.908 222.98C133.708 222.393 133.608 221.767 133.608 221.1C133.608 220.34 133.735 219.64 133.988 219C134.255 218.36 134.615 217.813 135.068 217.36C135.535 216.893 136.081 216.533 136.708 216.28C137.348 216.013 138.048 215.88 138.808 215.88C139.941 215.88 140.895 216.14 141.668 216.66C142.441 217.18 143.008 217.853 143.368 218.68L140.968 219.68C140.741 219.227 140.448 218.887 140.088 218.66C139.741 218.42 139.301 218.3 138.768 218.3C138.421 218.3 138.095 218.367 137.788 218.5C137.481 218.633 137.208 218.82 136.968 219.06C136.741 219.3 136.561 219.593 136.428 219.94C136.295 220.287 136.228 220.673 136.228 221.1C136.228 221.527 136.295 221.913 136.428 222.26C136.561 222.607 136.741 222.9 136.968 223.14C137.208 223.38 137.481 223.567 137.788 223.7C138.095 223.833 138.421 223.9 138.768 223.9C139.315 223.9 139.775 223.78 140.148 223.54C140.535 223.287 140.841 222.927 141.068 222.46L143.468 223.5C143.068 224.3 142.508 224.953 141.788 225.46C141.068 225.967 140.175 226.253 139.108 226.32L138.828 226.94C138.895 226.927 138.955 226.92 139.008 226.92C139.061 226.92 139.121 226.92 139.188 226.92C139.708 226.92 140.148 227.087 140.508 227.42C140.881 227.753 141.068 228.22 141.068 228.82C141.068 229.38 140.868 229.84 140.468 230.2C140.081 230.56 139.568 230.74 138.928 230.74ZM149.609 215.88C150.369 215.88 151.062 216.013 151.689 216.28C152.329 216.533 152.875 216.893 153.329 217.36C153.795 217.813 154.155 218.36 154.409 219C154.675 219.64 154.809 220.34 154.809 221.1C154.809 221.86 154.675 222.56 154.409 223.2C154.155 223.84 153.795 224.393 153.329 224.86C152.875 225.313 152.329 225.673 151.689 225.94C151.062 226.193 150.369 226.32 149.609 226.32C148.849 226.32 148.149 226.193 147.509 225.94C146.882 225.673 146.335 225.313 145.869 224.86C145.415 224.393 145.055 223.84 144.789 223.2C144.535 222.56 144.409 221.86 144.409 221.1C144.409 220.34 144.535 219.64 144.789 219C145.055 218.36 145.415 217.813 145.869 217.36C146.335 216.893 146.882 216.533 147.509 216.28C148.149 216.013 148.849 215.88 149.609 215.88ZM149.609 223.9C149.942 223.9 150.262 223.84 150.569 223.72C150.889 223.587 151.169 223.4 151.409 223.16C151.649 222.92 151.835 222.627 151.969 222.28C152.115 221.933 152.189 221.54 152.189 221.1C152.189 220.66 152.115 220.267 151.969 219.92C151.835 219.573 151.649 219.28 151.409 219.04C151.169 218.8 150.889 218.62 150.569 218.5C150.262 218.367 149.942 218.3 149.609 218.3C149.262 218.3 148.935 218.367 148.629 218.5C148.322 218.62 148.049 218.8 147.809 219.04C147.569 219.28 147.375 219.573 147.229 219.92C147.095 220.267 147.029 220.66 147.029 221.1C147.029 221.54 147.095 221.933 147.229 222.28C147.375 222.627 147.569 222.92 147.809 223.16C148.049 223.4 148.322 223.587 148.629 223.72C148.935 223.84 149.262 223.9 149.609 223.9ZM160.274 226.32C159.634 226.32 159.061 226.24 158.554 226.08C158.061 225.92 157.628 225.713 157.254 225.46C156.894 225.193 156.588 224.893 156.334 224.56C156.081 224.213 155.888 223.867 155.754 223.52L158.094 222.52C158.321 223.027 158.621 223.407 158.994 223.66C159.381 223.9 159.808 224.02 160.274 224.02C160.754 224.02 161.134 223.933 161.414 223.76C161.694 223.587 161.834 223.38 161.834 223.14C161.834 222.873 161.714 222.66 161.474 222.5C161.248 222.327 160.848 222.173 160.274 222.04L158.894 221.74C158.588 221.673 158.268 221.567 157.934 221.42C157.614 221.273 157.321 221.087 157.054 220.86C156.788 220.633 156.568 220.36 156.394 220.04C156.221 219.72 156.134 219.347 156.134 218.92C156.134 218.44 156.234 218.013 156.434 217.64C156.648 217.267 156.934 216.953 157.294 216.7C157.654 216.433 158.074 216.233 158.554 216.1C159.048 215.953 159.574 215.88 160.134 215.88C161.068 215.88 161.901 216.067 162.634 216.44C163.368 216.8 163.908 217.38 164.254 218.18L161.994 219.1C161.808 218.713 161.534 218.433 161.174 218.26C160.814 218.087 160.454 218 160.094 218C159.721 218 159.394 218.08 159.114 218.24C158.834 218.387 158.694 218.58 158.694 218.82C158.694 219.047 158.808 219.227 159.034 219.36C159.274 219.493 159.594 219.613 159.994 219.72L161.494 220.08C162.494 220.32 163.234 220.707 163.714 221.24C164.208 221.76 164.454 222.38 164.454 223.1C164.454 223.527 164.354 223.933 164.154 224.32C163.954 224.707 163.668 225.053 163.294 225.36C162.934 225.653 162.494 225.887 161.974 226.06C161.468 226.233 160.901 226.32 160.274 226.32Z" fill="#474747"/>
<path d="M91.6999 226.32C91.0865 226.32 90.4999 226.233 89.9399 226.06C89.3799 225.887 88.8665 225.627 88.3999 225.28C87.9332 224.933 87.5265 224.513 87.1799 224.02C86.8332 223.513 86.5599 222.927 86.3599 222.26L88.8999 221.26C89.0865 221.98 89.4132 222.58 89.8799 223.06C90.3465 223.527 90.9599 223.76 91.7199 223.76C91.9999 223.76 92.2665 223.727 92.5199 223.66C92.7865 223.58 93.0199 223.473 93.2199 223.34C93.4332 223.193 93.5999 223.013 93.7199 222.8C93.8399 222.587 93.8999 222.34 93.8999 222.06C93.8999 221.793 93.8532 221.553 93.7599 221.34C93.6665 221.127 93.5065 220.927 93.2799 220.74C93.0665 220.553 92.7799 220.373 92.4199 220.2C92.0732 220.027 91.6399 219.847 91.1199 219.66L90.2399 219.34C89.8532 219.207 89.4599 219.027 89.0599 218.8C88.6732 218.573 88.3199 218.3 87.9999 217.98C87.6799 217.66 87.4132 217.287 87.1999 216.86C86.9999 216.42 86.8999 215.927 86.8999 215.38C86.8999 214.82 87.0065 214.3 87.2199 213.82C87.4465 213.327 87.7599 212.9 88.1599 212.54C88.5732 212.167 89.0599 211.88 89.6199 211.68C90.1932 211.467 90.8265 211.36 91.5199 211.36C92.2399 211.36 92.8599 211.46 93.3799 211.66C93.9132 211.847 94.3599 212.093 94.7199 212.4C95.0932 212.693 95.3932 213.02 95.6199 213.38C95.8465 213.74 96.0132 214.08 96.1199 214.4L93.7399 215.4C93.6065 215 93.3599 214.64 92.9999 214.32C92.6532 214 92.1732 213.84 91.5599 213.84C90.9732 213.84 90.4865 213.98 90.0999 214.26C89.7132 214.527 89.5199 214.88 89.5199 215.32C89.5199 215.747 89.7065 216.113 90.0799 216.42C90.4532 216.713 91.0465 217 91.8599 217.28L92.7599 217.58C93.3332 217.78 93.8532 218.013 94.3199 218.28C94.7999 218.533 95.2066 218.84 95.5399 219.2C95.8865 219.56 96.1465 219.973 96.3199 220.44C96.5065 220.893 96.5999 221.42 96.5999 222.02C96.5999 222.767 96.4465 223.413 96.1399 223.96C95.8465 224.493 95.4666 224.933 94.9999 225.28C94.5332 225.627 94.0065 225.887 93.4199 226.06C92.8332 226.233 92.2599 226.32 91.6999 226.32ZM107.784 223.64C107.33 224.44 106.717 225.087 105.944 225.58C105.184 226.073 104.25 226.32 103.144 226.32C102.397 226.32 101.704 226.193 101.064 225.94C100.437 225.673 99.8905 225.307 99.4238 224.84C98.9571 224.373 98.5905 223.827 98.3238 223.2C98.0705 222.56 97.9438 221.86 97.9438 221.1C97.9438 220.393 98.0705 219.727 98.3238 219.1C98.5771 218.46 98.9305 217.907 99.3838 217.44C99.8371 216.96 100.37 216.58 100.984 216.3C101.61 216.02 102.297 215.88 103.044 215.88C103.83 215.88 104.53 216.013 105.144 216.28C105.757 216.533 106.27 216.893 106.684 217.36C107.097 217.813 107.41 218.353 107.624 218.98C107.837 219.607 107.944 220.287 107.944 221.02C107.944 221.113 107.944 221.193 107.944 221.26C107.93 221.34 107.924 221.413 107.924 221.48C107.91 221.547 107.904 221.62 107.904 221.7H100.524C100.577 222.1 100.684 222.447 100.844 222.74C101.017 223.02 101.224 223.26 101.464 223.46C101.717 223.647 101.99 223.787 102.284 223.88C102.577 223.96 102.877 224 103.184 224C103.784 224 104.277 223.867 104.664 223.6C105.064 223.32 105.377 222.973 105.604 222.56L107.784 223.64ZM105.404 219.84C105.39 219.667 105.33 219.473 105.224 219.26C105.13 219.047 104.984 218.847 104.784 218.66C104.597 218.473 104.357 218.32 104.064 218.2C103.784 218.08 103.444 218.02 103.044 218.02C102.484 218.02 101.99 218.18 101.564 218.5C101.137 218.82 100.837 219.267 100.664 219.84H105.404ZM109.617 216.2H112.077V217.56H112.237C112.357 217.32 112.517 217.1 112.717 216.9C112.917 216.7 113.137 216.527 113.377 216.38C113.63 216.233 113.897 216.12 114.177 216.04C114.47 215.96 114.757 215.92 115.037 215.92C115.384 215.92 115.677 215.953 115.917 216.02C116.17 216.087 116.384 216.173 116.557 216.28L115.857 218.66C115.697 218.58 115.517 218.52 115.317 218.48C115.13 218.427 114.897 218.4 114.617 218.4C114.257 218.4 113.93 218.473 113.637 218.62C113.344 218.753 113.09 218.947 112.877 219.2C112.677 219.453 112.517 219.753 112.397 220.1C112.29 220.433 112.237 220.8 112.237 221.2V226H109.617V216.2ZM116.917 216.2H119.897L122.337 222.44H122.477L124.937 216.2H127.897L123.677 226H121.097L116.917 216.2ZM130.55 214.78C130.323 214.78 130.103 214.74 129.89 214.66C129.69 214.567 129.51 214.447 129.35 214.3C129.203 214.14 129.083 213.96 128.99 213.76C128.91 213.56 128.87 213.34 128.87 213.1C128.87 212.86 128.91 212.64 128.99 212.44C129.083 212.24 129.203 212.067 129.35 211.92C129.51 211.76 129.69 211.64 129.89 211.56C130.103 211.467 130.323 211.42 130.55 211.42C131.016 211.42 131.416 211.587 131.75 211.92C132.083 212.24 132.25 212.633 132.25 213.1C132.25 213.567 132.083 213.967 131.75 214.3C131.416 214.62 131.016 214.78 130.55 214.78ZM129.25 226V216.2H131.87V226H129.25ZM138.928 230.74C138.448 230.74 138.035 230.613 137.688 230.36C137.341 230.107 137.095 229.793 136.948 229.42L138.228 228.88C138.281 229.04 138.368 229.173 138.488 229.28C138.608 229.387 138.755 229.44 138.928 229.44C139.141 229.44 139.301 229.373 139.408 229.24C139.528 229.12 139.588 228.973 139.588 228.8C139.588 228.627 139.528 228.467 139.408 228.32C139.301 228.187 139.141 228.12 138.928 228.12C138.808 228.12 138.701 228.147 138.608 228.2C138.528 228.267 138.455 228.333 138.388 228.4L137.168 227.84L137.788 226.22C137.161 226.113 136.595 225.913 136.088 225.62C135.581 225.327 135.141 224.96 134.768 224.52C134.395 224.067 134.108 223.553 133.908 222.98C133.708 222.393 133.608 221.767 133.608 221.1C133.608 220.34 133.735 219.64 133.988 219C134.255 218.36 134.615 217.813 135.068 217.36C135.535 216.893 136.081 216.533 136.708 216.28C137.348 216.013 138.048 215.88 138.808 215.88C139.941 215.88 140.895 216.14 141.668 216.66C142.441 217.18 143.008 217.853 143.368 218.68L140.968 219.68C140.741 219.227 140.448 218.887 140.088 218.66C139.741 218.42 139.301 218.3 138.768 218.3C138.421 218.3 138.095 218.367 137.788 218.5C137.481 218.633 137.208 218.82 136.968 219.06C136.741 219.3 136.561 219.593 136.428 219.94C136.295 220.287 136.228 220.673 136.228 221.1C136.228 221.527 136.295 221.913 136.428 222.26C136.561 222.607 136.741 222.9 136.968 223.14C137.208 223.38 137.481 223.567 137.788 223.7C138.095 223.833 138.421 223.9 138.768 223.9C139.315 223.9 139.775 223.78 140.148 223.54C140.535 223.287 140.841 222.927 141.068 222.46L143.468 223.5C143.068 224.3 142.508 224.953 141.788 225.46C141.068 225.967 140.175 226.253 139.108 226.32L138.828 226.94C138.895 226.927 138.955 226.92 139.008 226.92C139.061 226.92 139.121 226.92 139.188 226.92C139.708 226.92 140.148 227.087 140.508 227.42C140.881 227.753 141.068 228.22 141.068 228.82C141.068 229.38 140.868 229.84 140.468 230.2C140.081 230.56 139.568 230.74 138.928 230.74ZM149.609 215.88C150.369 215.88 151.062 216.013 151.689 216.28C152.329 216.533 152.875 216.893 153.329 217.36C153.795 217.813 154.155 218.36 154.409 219C154.675 219.64 154.809 220.34 154.809 221.1C154.809 221.86 154.675 222.56 154.409 223.2C154.155 223.84 153.795 224.393 153.329 224.86C152.875 225.313 152.329 225.673 151.689 225.94C151.062 226.193 150.369 226.32 149.609 226.32C148.849 226.32 148.149 226.193 147.509 225.94C146.882 225.673 146.335 225.313 145.869 224.86C145.415 224.393 145.055 223.84 144.789 223.2C144.535 222.56 144.409 221.86 144.409 221.1C144.409 220.34 144.535 219.64 144.789 219C145.055 218.36 145.415 217.813 145.869 217.36C146.335 216.893 146.882 216.533 147.509 216.28C148.149 216.013 148.849 215.88 149.609 215.88ZM149.609 223.9C149.942 223.9 150.262 223.84 150.569 223.72C150.889 223.587 151.169 223.4 151.409 223.16C151.649 222.92 151.835 222.627 151.969 222.28C152.115 221.933 152.189 221.54 152.189 221.1C152.189 220.66 152.115 220.267 151.969 219.92C151.835 219.573 151.649 219.28 151.409 219.04C151.169 218.8 150.889 218.62 150.569 218.5C150.262 218.367 149.942 218.3 149.609 218.3C149.262 218.3 148.935 218.367 148.629 218.5C148.322 218.62 148.049 218.8 147.809 219.04C147.569 219.28 147.375 219.573 147.229 219.92C147.095 220.267 147.029 220.66 147.029 221.1C147.029 221.54 147.095 221.933 147.229 222.28C147.375 222.627 147.569 222.92 147.809 223.16C148.049 223.4 148.322 223.587 148.629 223.72C148.935 223.84 149.262 223.9 149.609 223.9ZM160.274 226.32C159.634 226.32 159.061 226.24 158.554 226.08C158.061 225.92 157.628 225.713 157.254 225.46C156.894 225.193 156.588 224.893 156.334 224.56C156.081 224.213 155.888 223.867 155.754 223.52L158.094 222.52C158.321 223.027 158.621 223.407 158.994 223.66C159.381 223.9 159.808 224.02 160.274 224.02C160.754 224.02 161.134 223.933 161.414 223.76C161.694 223.587 161.834 223.38 161.834 223.14C161.834 222.873 161.714 222.66 161.474 222.5C161.248 222.327 160.848 222.173 160.274 222.04L158.894 221.74C158.588 221.673 158.268 221.567 157.934 221.42C157.614 221.273 157.321 221.087 157.054 220.86C156.788 220.633 156.568 220.36 156.394 220.04C156.221 219.72 156.134 219.347 156.134 218.92C156.134 218.44 156.234 218.013 156.434 217.64C156.648 217.267 156.934 216.953 157.294 216.7C157.654 216.433 158.074 216.233 158.554 216.1C159.048 215.953 159.574 215.88 160.134 215.88C161.068 215.88 161.901 216.067 162.634 216.44C163.368 216.8 163.908 217.38 164.254 218.18L161.994 219.1C161.808 218.713 161.534 218.433 161.174 218.26C160.814 218.087 160.454 218 160.094 218C159.721 218 159.394 218.08 159.114 218.24C158.834 218.387 158.694 218.58 158.694 218.82C158.694 219.047 158.808 219.227 159.034 219.36C159.274 219.493 159.594 219.613 159.994 219.72L161.494 220.08C162.494 220.32 163.234 220.707 163.714 221.24C164.208 221.76 164.454 222.38 164.454 223.1C164.454 223.527 164.354 223.933 164.154 224.32C163.954 224.707 163.668 225.053 163.294 225.36C162.934 225.653 162.494 225.887 161.974 226.06C161.468 226.233 160.901 226.32 160.274 226.32Z" fill="#474747"/>
<path d="M460.32 224V209.68H465.36C466.04 209.68 466.673 209.793 467.26 210.02C467.86 210.233 468.38 210.54 468.82 210.94C469.26 211.34 469.607 211.82 469.86 212.38C470.113 212.927 470.24 213.533 470.24 214.2C470.24 214.88 470.113 215.5 469.86 216.06C469.607 216.607 469.26 217.08 468.82 217.48C468.38 217.88 467.86 218.193 467.26 218.42C466.673 218.633 466.04 218.74 465.36 218.74H463.02V224H460.32ZM465.4 216.18C466.107 216.18 466.64 215.98 467 215.58C467.36 215.18 467.54 214.72 467.54 214.2C467.54 213.947 467.493 213.7 467.4 213.46C467.32 213.22 467.187 213.013 467 212.84C466.827 212.653 466.607 212.507 466.34 212.4C466.073 212.293 465.76 212.24 465.4 212.24H463.02V216.18H465.4ZM471.836 214.2H474.296V215.56H474.456C474.576 215.32 474.736 215.1 474.936 214.9C475.136 214.7 475.356 214.527 475.596 214.38C475.849 214.233 476.116 214.12 476.396 214.04C476.689 213.96 476.976 213.92 477.256 213.92C477.602 213.92 477.896 213.953 478.136 214.02C478.389 214.087 478.602 214.173 478.776 214.28L478.076 216.66C477.916 216.58 477.736 216.52 477.536 216.48C477.349 216.427 477.116 216.4 476.836 216.4C476.476 216.4 476.149 216.473 475.856 216.62C475.562 216.753 475.309 216.947 475.096 217.2C474.896 217.453 474.736 217.753 474.616 218.1C474.509 218.433 474.456 218.8 474.456 219.2V224H471.836V214.2ZM488.655 221.64C488.202 222.44 487.588 223.087 486.815 223.58C486.055 224.073 485.122 224.32 484.015 224.32C483.268 224.32 482.575 224.193 481.935 223.94C481.308 223.673 480.762 223.307 480.295 222.84C479.828 222.373 479.462 221.827 479.195 221.2C478.942 220.56 478.815 219.86 478.815 219.1C478.815 218.393 478.942 217.727 479.195 217.1C479.448 216.46 479.802 215.907 480.255 215.44C480.708 214.96 481.242 214.58 481.855 214.3C482.482 214.02 483.168 213.88 483.915 213.88C484.702 213.88 485.402 214.013 486.015 214.28C486.628 214.533 487.142 214.893 487.555 215.36C487.968 215.813 488.282 216.353 488.495 216.98C488.708 217.607 488.815 218.287 488.815 219.02C488.815 219.113 488.815 219.193 488.815 219.26C488.802 219.34 488.795 219.413 488.795 219.48C488.782 219.547 488.775 219.62 488.775 219.7H481.395C481.448 220.1 481.555 220.447 481.715 220.74C481.888 221.02 482.095 221.26 482.335 221.46C482.588 221.647 482.862 221.787 483.155 221.88C483.448 221.96 483.748 222 484.055 222C484.655 222 485.148 221.867 485.535 221.6C485.935 221.32 486.248 220.973 486.475 220.56L488.655 221.64ZM486.275 217.84C486.262 217.667 486.202 217.473 486.095 217.26C486.002 217.047 485.855 216.847 485.655 216.66C485.468 216.473 485.228 216.32 484.935 216.2C484.655 216.08 484.315 216.02 483.915 216.02C483.355 216.02 482.862 216.18 482.435 216.5C482.008 216.82 481.708 217.267 481.535 217.84H486.275ZM495.346 228.74C494.866 228.74 494.452 228.613 494.106 228.36C493.759 228.107 493.512 227.793 493.366 227.42L494.646 226.88C494.699 227.04 494.786 227.173 494.906 227.28C495.026 227.387 495.172 227.44 495.346 227.44C495.559 227.44 495.719 227.373 495.826 227.24C495.946 227.12 496.006 226.973 496.006 226.8C496.006 226.627 495.946 226.467 495.826 226.32C495.719 226.187 495.559 226.12 495.346 226.12C495.226 226.12 495.119 226.147 495.026 226.2C494.946 226.267 494.872 226.333 494.806 226.4L493.586 225.84L494.206 224.22C493.579 224.113 493.012 223.913 492.506 223.62C491.999 223.327 491.559 222.96 491.186 222.52C490.812 222.067 490.526 221.553 490.326 220.98C490.126 220.393 490.026 219.767 490.026 219.1C490.026 218.34 490.152 217.64 490.406 217C490.672 216.36 491.032 215.813 491.486 215.36C491.952 214.893 492.499 214.533 493.126 214.28C493.766 214.013 494.466 213.88 495.226 213.88C496.359 213.88 497.312 214.14 498.086 214.66C498.859 215.18 499.426 215.853 499.786 216.68L497.386 217.68C497.159 217.227 496.866 216.887 496.506 216.66C496.159 216.42 495.719 216.3 495.186 216.3C494.839 216.3 494.512 216.367 494.206 216.5C493.899 216.633 493.626 216.82 493.386 217.06C493.159 217.3 492.979 217.593 492.846 217.94C492.712 218.287 492.646 218.673 492.646 219.1C492.646 219.527 492.712 219.913 492.846 220.26C492.979 220.607 493.159 220.9 493.386 221.14C493.626 221.38 493.899 221.567 494.206 221.7C494.512 221.833 494.839 221.9 495.186 221.9C495.732 221.9 496.192 221.78 496.566 221.54C496.952 221.287 497.259 220.927 497.486 220.46L499.886 221.5C499.486 222.3 498.926 222.953 498.206 223.46C497.486 223.967 496.592 224.253 495.526 224.32L495.246 224.94C495.312 224.927 495.372 224.92 495.426 224.92C495.479 224.92 495.539 224.92 495.606 224.92C496.126 224.92 496.566 225.087 496.926 225.42C497.299 225.753 497.486 226.22 497.486 226.82C497.486 227.38 497.286 227.84 496.886 228.2C496.499 228.56 495.986 228.74 495.346 228.74ZM506.027 213.88C506.787 213.88 507.48 214.013 508.107 214.28C508.747 214.533 509.293 214.893 509.747 215.36C510.213 215.813 510.573 216.36 510.827 217C511.093 217.64 511.227 218.34 511.227 219.1C511.227 219.86 511.093 220.56 510.827 221.2C510.573 221.84 510.213 222.393 509.747 222.86C509.293 223.313 508.747 223.673 508.107 223.94C507.48 224.193 506.787 224.32 506.027 224.32C505.267 224.32 504.567 224.193 503.927 223.94C503.3 223.673 502.753 223.313 502.287 222.86C501.833 222.393 501.473 221.84 501.207 221.2C500.953 220.56 500.827 219.86 500.827 219.1C500.827 218.34 500.953 217.64 501.207 217C501.473 216.36 501.833 215.813 502.287 215.36C502.753 214.893 503.3 214.533 503.927 214.28C504.567 214.013 505.267 213.88 506.027 213.88ZM506.027 221.9C506.36 221.9 506.68 221.84 506.987 221.72C507.307 221.587 507.587 221.4 507.827 221.16C508.067 220.92 508.253 220.627 508.387 220.28C508.533 219.933 508.607 219.54 508.607 219.1C508.607 218.66 508.533 218.267 508.387 217.92C508.253 217.573 508.067 217.28 507.827 217.04C507.587 216.8 507.307 216.62 506.987 216.5C506.68 216.367 506.36 216.3 506.027 216.3C505.68 216.3 505.353 216.367 505.047 216.5C504.74 216.62 504.467 216.8 504.227 217.04C503.987 217.28 503.793 217.573 503.647 217.92C503.513 218.267 503.447 218.66 503.447 219.1C503.447 219.54 503.513 219.933 503.647 220.28C503.793 220.627 503.987 220.92 504.227 221.16C504.467 221.4 504.74 221.587 505.047 221.72C505.353 221.84 505.68 221.9 506.027 221.9ZM516.692 224.32C516.052 224.32 515.479 224.24 514.972 224.08C514.479 223.92 514.046 223.713 513.672 223.46C513.312 223.193 513.006 222.893 512.752 222.56C512.499 222.213 512.306 221.867 512.172 221.52L514.512 220.52C514.739 221.027 515.039 221.407 515.412 221.66C515.799 221.9 516.226 222.02 516.692 222.02C517.172 222.02 517.552 221.933 517.832 221.76C518.112 221.587 518.252 221.38 518.252 221.14C518.252 220.873 518.132 220.66 517.892 220.5C517.666 220.327 517.266 220.173 516.692 220.04L515.312 219.74C515.006 219.673 514.686 219.567 514.352 219.42C514.032 219.273 513.739 219.087 513.472 218.86C513.206 218.633 512.986 218.36 512.812 218.04C512.639 217.72 512.552 217.347 512.552 216.92C512.552 216.44 512.652 216.013 512.852 215.64C513.066 215.267 513.352 214.953 513.712 214.7C514.072 214.433 514.492 214.233 514.972 214.1C515.466 213.953 515.992 213.88 516.552 213.88C517.486 213.88 518.319 214.067 519.052 214.44C519.786 214.8 520.326 215.38 520.672 216.18L518.412 217.1C518.226 216.713 517.952 216.433 517.592 216.26C517.232 216.087 516.872 216 516.512 216C516.139 216 515.812 216.08 515.532 216.24C515.252 216.387 515.112 216.58 515.112 216.82C515.112 217.047 515.226 217.227 515.452 217.36C515.692 217.493 516.012 217.613 516.412 217.72L517.912 218.08C518.912 218.32 519.652 218.707 520.132 219.24C520.626 219.76 520.872 220.38 520.872 221.1C520.872 221.527 520.772 221.933 520.572 222.32C520.372 222.707 520.086 223.053 519.712 223.36C519.352 223.653 518.912 223.887 518.392 224.06C517.886 224.233 517.319 224.32 516.692 224.32Z" fill="#474747"/>
<g clip-path="url(#clip0_558_17)">
<path d="M62.7491 122.794C62.8181 121.763 62.1442 120.812 61.1679 120.493L54.0467 117.379C53.0456 116.937 51.8578 117.267 51.2241 118.172L50.3646 119.416C47.9305 117.932 46.5357 115.38 46.5357 115.38C46.5357 115.38 44.6607 113.143 44.133 110.345L45.5877 109.968C46.1045 109.831 46.5588 109.518 46.8733 109.082C47.1878 108.646 47.3431 108.114 47.3128 107.577L46.919 99.7515C46.9652 98.7165 46.3183 97.7458 45.3378 97.4499C43.5134 96.8827 40.5882 96.4246 38.6587 98.2571C38.6587 98.2571 30.2902 106.584 39.6655 120.231C49.0408 133.878 59.6973 128.882 59.6973 128.882C62.0774 127.676 62.6546 124.745 62.7863 122.848L62.7491 122.794Z" fill="#315C32"/>
</g>
<path d="M702.3 37.03C700.713 37.03 699.291 36.8314 698.035 36.4343C696.811 36.0372 695.737 35.5243 694.811 34.8956C693.918 34.2337 693.157 33.4891 692.529 32.6618C691.901 31.8014 691.421 30.941 691.091 30.0807L696.894 27.5987C697.456 28.8562 698.2 29.7994 699.126 30.4281C700.085 31.0238 701.143 31.3216 702.3 31.3216C703.491 31.3216 704.433 31.1065 705.128 30.6763C705.822 30.2461 706.169 29.7332 706.169 29.1375C706.169 28.4757 705.872 27.9462 705.276 27.5491C704.714 27.1189 703.722 26.7384 702.3 26.4074L698.878 25.6629C698.117 25.4974 697.324 25.2327 696.497 24.8687C695.704 24.5046 694.976 24.0414 694.315 23.4788C693.653 22.9162 693.108 22.2378 692.678 21.4436C692.248 20.6494 692.033 19.7228 692.033 18.6639C692.033 17.4726 692.281 16.4136 692.777 15.4871C693.306 14.5605 694.017 13.7828 694.91 13.1541C695.803 12.4922 696.844 11.9958 698.035 11.6649C699.258 11.3009 700.564 11.1189 701.953 11.1189C704.268 11.1189 706.335 11.5822 708.153 12.5088C709.972 13.4023 711.311 14.8418 712.171 16.8273L706.566 19.1106C706.103 18.151 705.425 17.456 704.532 17.0258C703.64 16.5956 702.747 16.3805 701.854 16.3805C700.928 16.3805 700.118 16.5791 699.424 16.9762C698.729 17.3402 698.382 17.82 698.382 18.4157C698.382 18.9783 698.663 19.425 699.225 19.7559C699.82 20.0868 700.614 20.3847 701.606 20.6494L705.326 21.5429C707.806 22.1386 709.641 23.0982 710.832 24.4219C712.055 25.7125 712.667 27.2513 712.667 29.0383C712.667 30.0972 712.419 31.1065 711.923 32.0662C711.427 33.0258 710.716 33.8862 709.79 34.6474C708.897 35.3754 707.806 35.9545 706.516 36.3847C705.26 36.8149 703.854 37.03 702.3 37.03Z" fill="#474747"/>
<path d="M683.463 8.389C682.901 8.389 682.356 8.28973 681.826 8.09118C681.33 7.85953 680.884 7.56171 680.487 7.19769C680.124 6.80059 679.826 6.35384 679.594 5.85746C679.396 5.36108 679.297 4.81506 679.297 4.21941C679.297 3.62375 679.396 3.07773 679.594 2.58135C679.826 2.08497 680.124 1.65477 680.487 1.29076C680.884 0.893653 681.33 0.595824 681.826 0.39727C682.356 0.165626 682.901 0.0498047 683.463 0.0498047C684.621 0.0498047 685.613 0.463455 686.439 1.29076C687.266 2.08497 687.679 3.06118 687.679 4.21941C687.679 5.37763 687.266 6.37039 686.439 7.19769C685.613 7.9919 684.621 8.389 683.463 8.389ZM680.239 36.236V11.9133H686.737V36.236H680.239Z" fill="#474747"/>
<path d="M668.278 33.6546H667.881C667.121 34.5812 666.195 35.3754 665.104 36.0372C664.046 36.6991 662.673 37.03 660.987 37.03C659.73 37.03 658.54 36.8149 657.416 36.3847C656.325 35.9876 655.366 35.425 654.539 34.697C653.712 33.969 653.067 33.092 652.605 32.0662C652.142 31.0403 651.91 29.9152 651.91 28.6908C651.91 27.4333 652.158 26.3082 652.654 25.3154C653.15 24.2895 653.845 23.4126 654.737 22.6846C655.63 21.9565 656.672 21.4105 657.862 21.0465C659.086 20.6494 660.408 20.4509 661.83 20.4509C663.417 20.4509 664.723 20.5832 665.748 20.848C666.774 21.0796 667.617 21.3278 668.278 21.5925V20.848C668.278 19.5574 667.766 18.4984 666.74 17.6711C665.715 16.8107 664.442 16.3805 662.921 16.3805C660.673 16.3805 658.771 17.3237 657.217 19.2099L652.505 15.9834C655.085 12.7404 658.606 11.1189 663.07 11.1189C666.84 11.1189 669.716 12.0124 671.7 13.7994C673.684 15.5532 674.676 18.1675 674.676 21.6422V36.2358H668.278V33.6546ZM668.278 26.3578C667.518 25.9938 666.724 25.7125 665.897 25.5139C665.104 25.2823 664.227 25.1665 663.268 25.1665C661.714 25.1665 660.507 25.514 659.648 26.2089C658.821 26.8707 658.408 27.698 658.408 28.6908C658.408 29.6835 658.805 30.4778 659.598 31.0734C660.425 31.6691 661.367 31.9669 662.425 31.9669C663.285 31.9669 664.079 31.818 664.806 31.5202C665.534 31.1892 666.145 30.7756 666.641 30.2792C667.17 29.7497 667.567 29.1541 667.832 28.4922C668.129 27.7973 668.278 27.0858 668.278 26.3578Z" fill="#474747"/>
<path d="M631.16 15.0899H631.557C632.318 13.8655 633.343 12.9059 634.632 12.2109C635.922 11.4829 637.393 11.1189 639.047 11.1189C640.568 11.1189 641.907 11.3671 643.064 11.8635C644.222 12.3599 645.164 13.0713 645.891 13.9979C646.652 14.8914 647.214 15.9834 647.578 17.274C647.975 18.5315 648.173 19.9379 648.173 21.4933V36.2358H641.676V22.2875C641.676 20.5336 641.279 19.243 640.485 18.4157C639.725 17.5553 638.6 17.1251 637.112 17.1251C636.22 17.1251 635.426 17.3237 634.732 17.7208C634.07 18.0848 633.492 18.5977 632.996 19.2595C632.533 19.8883 632.169 20.6494 631.904 21.5429C631.673 22.4033 631.557 23.3299 631.557 24.3226V36.2358H625.06V11.9131H631.16V15.0899Z" fill="#474747"/>
<path d="M608.473 11.1189C610.358 11.1189 612.077 11.4498 613.631 12.1117C615.219 12.7404 616.574 13.6339 617.699 14.7921C618.856 15.9172 619.749 17.274 620.377 18.8624C621.038 20.4509 621.369 22.1882 621.369 24.0744C621.369 25.9607 621.038 27.698 620.377 29.2864C619.749 30.8749 618.856 32.2482 617.699 33.4064C616.574 34.5315 615.219 35.425 613.631 36.0869C612.077 36.7156 610.358 37.03 608.473 37.03C606.588 37.03 604.852 36.7156 603.265 36.0869C601.711 35.425 600.355 34.5315 599.198 33.4064C598.074 32.2482 597.181 30.8749 596.519 29.2864C595.891 27.698 595.577 25.9607 595.577 24.0744C595.577 22.1882 595.891 20.4509 596.519 18.8624C597.181 17.274 598.074 15.9172 599.198 14.7921C600.355 13.6339 601.711 12.7404 603.265 12.1117C604.852 11.4498 606.588 11.1189 608.473 11.1189ZM608.473 31.0238C609.3 31.0238 610.093 30.8749 610.854 30.577C611.647 30.2461 612.342 29.7828 612.937 29.1872C613.532 28.5915 613.995 27.8635 614.326 27.0031C614.69 26.1427 614.871 25.1665 614.871 24.0744C614.871 22.9824 614.69 22.0062 614.326 21.1458C613.995 20.2854 613.532 19.5574 612.937 18.9617C612.342 18.3661 611.647 17.9193 610.854 17.6215C610.093 17.2906 609.3 17.1251 608.473 17.1251C607.613 17.1251 606.803 17.2906 606.043 17.6215C605.282 17.9193 604.604 18.3661 604.009 18.9617C603.414 19.5574 602.934 20.2854 602.571 21.1458C602.24 22.0062 602.075 22.9824 602.075 24.0744C602.075 25.1665 602.24 26.1427 602.571 27.0031C602.934 27.8635 603.414 28.5915 604.009 29.1872C604.604 29.7828 605.282 30.2461 606.043 30.577C606.803 30.8749 607.613 31.0238 608.473 31.0238Z" fill="#474747"/>
<path d="M587.995 8.389C587.432 8.389 586.887 8.28973 586.358 8.09118C585.862 7.85953 585.415 7.56171 585.019 7.19769C584.655 6.80059 584.357 6.35384 584.126 5.85746C583.927 5.36108 583.828 4.81506 583.828 4.21941C583.828 3.62375 583.927 3.07773 584.126 2.58135C584.357 2.08497 584.655 1.65477 585.019 1.29076C585.415 0.893653 585.862 0.595824 586.358 0.39727C586.887 0.165626 587.432 0.0498047 587.995 0.0498047C589.152 0.0498047 590.144 0.463455 590.971 1.29076C591.797 2.08497 592.211 3.06118 592.211 4.21941C592.211 5.37763 591.797 6.37039 590.971 7.19769C590.144 7.9919 589.152 8.389 587.995 8.389ZM584.771 36.236V11.9133H591.268V36.236H584.771Z" fill="#474747"/>
<path d="M580.409 30.031C579.351 32.0827 577.863 33.7704 575.945 35.0941C574.06 36.3847 571.696 37.03 568.852 37.03C566.967 37.03 565.231 36.7156 563.644 36.0869C562.09 35.425 560.734 34.515 559.577 33.3568C558.453 32.1985 557.56 30.8418 556.898 29.2864C556.27 27.698 555.956 25.9607 555.956 24.0744C555.956 22.1882 556.27 20.4509 556.898 18.8624C557.56 17.274 558.453 15.9172 559.577 14.7921C560.734 13.6339 562.09 12.7404 563.644 12.1117C565.231 11.4498 566.967 11.1189 568.852 11.1189C571.663 11.1189 574.027 11.7642 575.945 13.0548C577.863 14.3454 579.268 16.0165 580.161 18.0682L574.209 20.5501C573.647 19.425 572.919 18.5812 572.026 18.0186C571.167 17.4229 570.075 17.1251 568.753 17.1251C567.893 17.1251 567.083 17.2906 566.322 17.6215C565.562 17.9524 564.884 18.4157 564.289 19.0114C563.727 19.607 563.28 20.335 562.95 21.1954C562.619 22.0558 562.454 23.0155 562.454 24.0744C562.454 25.1334 562.619 26.0931 562.95 26.9535C563.28 27.8138 563.727 28.5419 564.289 29.1375C564.884 29.7332 565.562 30.1965 566.322 30.5274C567.083 30.8583 567.893 31.0238 568.753 31.0238C570.108 31.0238 571.249 30.7259 572.175 30.1303C573.134 29.5015 573.895 28.6081 574.457 27.4498L580.409 30.031Z" fill="#474747"/>
<path d="M548.371 8.389C547.809 8.389 547.264 8.28973 546.735 8.09118C546.239 7.85953 545.792 7.56171 545.395 7.19769C545.032 6.80059 544.734 6.35384 544.503 5.85746C544.304 5.36108 544.205 4.81506 544.205 4.21941C544.205 3.62375 544.304 3.07773 544.503 2.58135C544.734 2.08497 545.032 1.65477 545.395 1.29076C545.792 0.893653 546.239 0.595824 546.735 0.39727C547.264 0.165626 547.809 0.0498047 548.371 0.0498047C549.529 0.0498047 550.521 0.463455 551.347 1.29076C552.174 2.08497 552.587 3.06118 552.587 4.21941C552.587 5.37763 552.174 6.37039 551.347 7.19769C550.521 7.9919 549.529 8.389 548.371 8.389ZM545.147 36.236V11.9133H551.645V36.236H545.147Z" fill="#474747"/>
<path d="M533.114 33.3071H532.717C532.122 34.3329 531.196 35.2099 529.939 35.9379C528.683 36.6659 527.129 37.0299 525.277 37.0299C523.723 37.0299 522.235 36.7155 520.813 36.0868C519.424 35.4249 518.184 34.5315 517.093 33.4063C516.035 32.2481 515.192 30.8748 514.563 29.2864C513.935 27.698 513.621 25.9606 513.621 24.0744C513.621 22.1881 513.935 20.4508 514.563 18.8624C515.192 17.2739 516.035 15.9172 517.093 14.792C518.184 13.6338 519.424 12.7403 520.813 12.1116C522.235 11.4497 523.723 11.1188 525.277 11.1188C527.129 11.1188 528.683 11.4828 529.939 12.2109C531.196 12.9389 532.122 13.8158 532.717 14.8417H533.114L532.717 11.367V0.694824H539.215V36.2357H533.114V33.3071ZM526.616 31.0237C527.476 31.0237 528.286 30.8748 529.047 30.577C529.84 30.246 530.535 29.7828 531.13 29.1871C531.725 28.5914 532.204 27.8634 532.568 27.003C532.932 26.1426 533.114 25.1664 533.114 24.0744C533.114 22.9823 532.932 22.0061 532.568 21.1457C532.204 20.2853 531.725 19.5573 531.13 18.9616C530.535 18.366 529.84 17.9192 529.047 17.6214C528.286 17.2905 527.476 17.125 526.616 17.125C525.756 17.125 524.93 17.2905 524.136 17.6214C523.376 17.9523 522.698 18.4156 522.103 19.0113C521.507 19.6069 521.028 20.335 520.664 21.1954C520.301 22.0558 520.119 23.0154 520.119 24.0744C520.119 25.1333 520.301 26.093 520.664 26.9534C521.028 27.8138 521.507 28.5418 522.103 29.1375C522.698 29.7331 523.376 30.1964 524.136 30.5273C524.93 30.8582 525.756 31.0237 526.616 31.0237Z" fill="#474747"/>
<path d="M503.688 33.6546H503.291C502.531 34.5812 501.605 35.3754 500.514 36.0372C499.456 36.6991 498.083 37.03 496.397 37.03C495.141 37.03 493.95 36.8149 492.826 36.3847C491.735 35.9876 490.776 35.425 489.949 34.697C489.122 33.969 488.478 33.092 488.015 32.0662C487.552 31.0403 487.32 29.9152 487.32 28.6908C487.32 27.4333 487.568 26.3082 488.064 25.3154C488.56 24.2895 489.255 23.4126 490.148 22.6846C491.04 21.9565 492.082 21.4105 493.272 21.0465C494.496 20.6494 495.818 20.4509 497.24 20.4509C498.827 20.4509 500.134 20.5832 501.159 20.848C502.184 21.0796 503.027 21.3278 503.688 21.5925V20.848C503.688 19.5574 503.176 18.4984 502.151 17.6711C501.126 16.8107 499.853 16.3805 498.331 16.3805C496.083 16.3805 494.182 17.3237 492.627 19.2099L487.916 15.9834C490.495 12.7404 494.016 11.1189 498.48 11.1189C502.25 11.1189 505.127 12.0124 507.111 13.7994C509.095 15.5532 510.087 18.1675 510.087 21.6422V36.2358H503.688V33.6546ZM503.688 26.3578C502.928 25.9938 502.134 25.7125 501.307 25.5139C500.514 25.2823 499.638 25.1665 498.679 25.1665C497.125 25.1665 495.918 25.514 495.058 26.2089C494.231 26.8707 493.818 27.698 493.818 28.6908C493.818 29.6835 494.215 30.4778 495.008 31.0734C495.835 31.6691 496.777 31.9669 497.835 31.9669C498.695 31.9669 499.489 31.818 500.216 31.5202C500.944 31.1892 501.555 30.7756 502.051 30.2792C502.581 29.7497 502.977 29.1541 503.242 28.4922C503.539 27.7973 503.688 27.0858 503.688 26.3578Z" fill="#474747"/>
<path d="M463.457 37.03C461.869 37.03 460.448 36.8314 459.191 36.4343C457.968 36.0372 456.893 35.5243 455.967 34.8956C455.074 34.2337 454.314 33.4891 453.685 32.6618C453.057 31.8014 452.578 30.941 452.247 30.0807L458.05 27.5987C458.612 28.8562 459.356 29.7994 460.282 30.4281C461.241 31.0238 462.299 31.3216 463.457 31.3216C464.647 31.3216 465.589 31.1065 466.284 30.6763C466.978 30.2461 467.325 29.7332 467.325 29.1375C467.325 28.4757 467.028 27.9462 466.433 27.5491C465.87 27.1189 464.878 26.7384 463.457 26.4074L460.034 25.6629C459.274 25.4974 458.48 25.2327 457.653 24.8687C456.86 24.5046 456.132 24.0414 455.471 23.4788C454.81 22.9162 454.264 22.2378 453.834 21.4436C453.404 20.6494 453.189 19.7228 453.189 18.6639C453.189 17.4726 453.437 16.4136 453.933 15.4871C454.463 14.5605 455.173 13.7828 456.066 13.1541C456.959 12.4922 458.001 11.9958 459.191 11.6649C460.415 11.3009 461.721 11.1189 463.109 11.1189C465.424 11.1189 467.491 11.5822 469.309 12.5088C471.128 13.4023 472.467 14.8418 473.327 16.8273L467.722 19.1106C467.259 18.151 466.581 17.456 465.689 17.0258C464.796 16.5956 463.903 16.3805 463.01 16.3805C462.084 16.3805 461.274 16.5791 460.58 16.9762C459.885 17.3402 459.538 17.82 459.538 18.4157C459.538 18.9783 459.819 19.425 460.381 19.7559C460.977 20.0868 461.77 20.3847 462.762 20.6494L466.482 21.5429C468.962 22.1386 470.797 23.0982 471.988 24.4219C473.211 25.7125 473.823 27.2513 473.823 29.0383C473.823 30.0972 473.575 31.1065 473.079 32.0662C472.583 33.0258 471.872 33.8862 470.946 34.6474C470.053 35.3754 468.962 35.9545 467.673 36.3847C466.416 36.8149 465.011 37.03 463.457 37.03Z" fill="#474747"/>
<path d="M449.046 30.3785C447.921 32.364 446.4 33.969 444.483 35.1934C442.598 36.4178 440.283 37.03 437.539 37.03C435.687 37.03 433.967 36.7156 432.38 36.0869C430.826 35.425 429.47 34.515 428.313 33.3568C427.156 32.1985 426.246 30.8418 425.585 29.2864C424.957 27.698 424.643 25.9607 424.643 24.0744C424.643 22.3206 424.957 20.666 425.585 19.1106C426.213 17.5222 427.09 16.1489 428.214 14.9907C429.338 13.7994 430.661 12.8562 432.182 12.1613C433.736 11.4664 435.439 11.1189 437.291 11.1189C439.241 11.1189 440.977 11.4498 442.499 12.1117C444.02 12.7404 445.293 13.6339 446.318 14.7921C447.343 15.9172 448.12 17.2575 448.649 18.8128C449.178 20.3681 449.442 22.0558 449.442 23.8759C449.442 24.1075 449.442 24.3061 449.442 24.4715C449.409 24.6701 449.393 24.8521 449.393 25.0176C449.36 25.183 449.343 25.365 449.343 25.5636H431.041C431.173 26.5563 431.438 27.4167 431.835 28.1448C432.264 28.8397 432.777 29.4354 433.372 29.9317C434 30.395 434.678 30.7425 435.406 30.9741C436.133 31.1727 436.877 31.272 437.638 31.272C439.126 31.272 440.349 30.941 441.308 30.2792C442.3 29.5843 443.077 28.7239 443.639 27.698L449.046 30.3785ZM443.143 20.9472C443.11 20.517 442.961 20.0372 442.697 19.5077C442.465 18.9783 442.102 18.4819 441.606 18.0186C441.143 17.5553 440.548 17.1747 439.82 16.8769C439.126 16.5791 438.283 16.4302 437.291 16.4302C435.902 16.4302 434.678 16.8273 433.62 17.6215C432.562 18.4157 431.818 19.5243 431.388 20.9472H443.143Z" fill="#474747"/>
<path d="M408.96 11.1189C410.845 11.1189 412.565 11.4499 414.119 12.1117C415.706 12.7404 417.062 13.6339 418.186 14.7922C419.343 15.9173 420.236 17.2741 420.864 18.8625C421.526 20.4509 421.856 22.1882 421.856 24.0745C421.856 25.9607 421.526 27.6981 420.864 29.2865C420.236 30.8749 419.343 32.2482 418.186 33.4064C417.062 34.5316 415.706 35.4251 414.119 36.0869C412.565 36.7156 410.845 37.03 408.96 37.03C407.076 37.03 405.34 36.7156 403.752 36.0869C402.198 35.4251 400.843 34.5316 399.685 33.4064C398.561 32.2482 397.668 30.8749 397.007 29.2865C396.379 27.6981 396.064 25.9607 396.064 24.0745C396.064 22.1882 396.379 20.4509 397.007 18.8625C397.668 17.2741 398.561 15.9173 399.685 14.7922C400.843 13.6339 402.198 12.7404 403.752 12.1117C405.34 11.4499 407.076 11.1189 408.96 11.1189ZM408.96 31.0238C409.787 31.0238 410.581 30.8749 411.341 30.5771C412.135 30.2461 412.829 29.7829 413.424 29.1872C414.02 28.5915 414.483 27.8635 414.813 27.0031C415.177 26.1427 415.359 25.1665 415.359 24.0745C415.359 22.9824 415.177 22.0062 414.813 21.1458C414.483 20.2854 414.02 19.5574 413.424 18.9618C412.829 18.3661 412.135 17.9194 411.341 17.6215C410.581 17.2906 409.787 17.1251 408.96 17.1251C408.101 17.1251 407.291 17.2906 406.53 17.6215C405.77 17.9194 405.092 18.3661 404.496 18.9618C403.901 19.5574 403.422 20.2854 403.058 21.1458C402.727 22.0062 402.562 22.9824 402.562 24.0745C402.562 25.1665 402.727 26.1427 403.058 27.0031C403.422 27.8635 403.901 28.5915 404.496 29.1872C405.092 29.7829 405.77 30.2461 406.53 30.5771C407.291 30.8749 408.101 31.0238 408.96 31.0238ZM411.986 7.04861C411.292 7.04861 410.647 6.94933 410.052 6.75078C409.456 6.51914 408.911 6.2544 408.415 5.95657C407.919 5.69184 407.472 5.46019 407.076 5.26164C406.679 5.02999 406.332 4.91417 406.034 4.91417C405.207 4.91417 404.777 5.39401 404.744 6.35368H400.181C400.181 5.26164 400.33 4.31851 400.628 3.5243C400.958 2.73009 401.388 2.0848 401.917 1.58842C402.479 1.05895 403.091 0.66184 403.752 0.397103C404.447 0.132367 405.174 0 405.935 0C406.629 0 407.274 0.115822 407.869 0.347465C408.497 0.546019 409.06 0.777663 409.556 1.0424C410.052 1.34023 410.498 1.60496 410.895 1.83661C411.292 2.03516 411.622 2.13444 411.887 2.13444C412.68 2.13444 413.127 1.6546 413.226 0.694933H417.789C417.789 1.78697 417.624 2.73009 417.293 3.5243C416.962 4.31851 416.533 4.98035 416.004 5.50983C415.475 6.00621 414.846 6.38677 414.119 6.6515C413.424 6.91624 412.713 7.04861 411.986 7.04861Z" fill="#474747"/>
<path d="M382.472 48C381.281 48 380.256 47.6856 379.397 47.0569C378.537 46.4281 377.925 45.6505 377.561 44.7239L380.736 43.3837C380.868 43.7808 381.083 44.1117 381.381 44.3764C381.678 44.6412 382.042 44.7735 382.472 44.7735C383.001 44.7735 383.398 44.6081 383.662 44.2771C383.96 43.9793 384.109 43.6153 384.109 43.1851C384.109 42.7549 383.96 42.3578 383.662 41.9938C383.398 41.6629 383.001 41.4974 382.472 41.4974C382.174 41.4974 381.91 41.5636 381.678 41.696C381.48 41.8614 381.298 42.0269 381.133 42.1924L378.107 40.8025L379.645 36.7818C378.091 36.5171 376.685 36.0207 375.429 35.2927C374.172 34.5646 373.081 33.6546 372.155 32.5626C371.229 31.4374 370.518 30.1634 370.022 28.7404C369.526 27.2844 369.278 25.729 369.278 24.0744C369.278 22.1882 369.592 20.4509 370.221 18.8624C370.882 17.274 371.775 15.9172 372.899 14.7921C374.056 13.6339 375.412 12.7404 376.966 12.1117C378.553 11.4498 380.289 11.1189 382.174 11.1189C384.985 11.1189 387.349 11.7642 389.267 13.0548C391.185 14.3454 392.59 16.0165 393.483 18.0682L387.531 20.5501C386.969 19.425 386.241 18.5812 385.349 18.0186C384.489 17.4229 383.398 17.1251 382.075 17.1251C381.215 17.1251 380.405 17.2906 379.645 17.6215C378.884 17.9524 378.206 18.4157 377.611 19.0114C377.049 19.607 376.603 20.335 376.272 21.1954C375.941 22.0558 375.776 23.0155 375.776 24.0744C375.776 25.1334 375.941 26.0931 376.272 26.9535C376.603 27.8138 377.049 28.5419 377.611 29.1375C378.206 29.7332 378.884 30.1965 379.645 30.5274C380.405 30.8583 381.215 31.0238 382.075 31.0238C383.431 31.0238 384.572 30.7259 385.497 30.1303C386.456 29.5015 387.217 28.6081 387.779 27.4498L393.731 30.031C392.739 32.0165 391.35 33.6381 389.565 34.8956C387.779 36.153 385.564 36.8645 382.918 37.03L382.224 38.5688C382.389 38.5357 382.538 38.5191 382.67 38.5191C382.803 38.5191 382.951 38.5191 383.117 38.5191C384.406 38.5191 385.497 38.9328 386.39 39.7601C387.316 40.5874 387.779 41.7456 387.779 43.2347C387.779 44.6246 387.283 45.7663 386.291 46.6598C385.332 47.5533 384.059 48 382.472 48Z" fill="#474747"/>
<path d="M359.344 33.6546H358.948C358.187 34.5812 357.261 35.3754 356.17 36.0372C355.112 36.6991 353.74 37.03 352.053 37.03C350.797 37.03 349.606 36.8149 348.482 36.3847C347.391 35.9876 346.432 35.425 345.605 34.697C344.779 33.969 344.134 33.092 343.671 32.0662C343.208 31.0403 342.977 29.9152 342.977 28.6908C342.977 27.4333 343.225 26.3082 343.721 25.3154C344.217 24.2895 344.911 23.4126 345.804 22.6846C346.697 21.9565 347.738 21.4105 348.929 21.0465C350.152 20.6494 351.475 20.4509 352.897 20.4509C354.484 20.4509 355.79 20.5832 356.815 20.848C357.84 21.0796 358.683 21.3278 359.344 21.5925V20.848C359.344 19.5574 358.832 18.4984 357.807 17.6711C356.782 16.8107 355.509 16.3805 353.988 16.3805C351.739 16.3805 349.838 17.3237 348.284 19.2099L343.572 15.9834C346.151 12.7404 349.673 11.1189 354.137 11.1189C357.906 11.1189 360.783 12.0124 362.767 13.7994C364.751 15.5532 365.743 18.1675 365.743 21.6422V36.2358H359.344V33.6546ZM359.344 26.3578C358.584 25.9938 357.79 25.7125 356.964 25.5139C356.17 25.2823 355.294 25.1665 354.335 25.1665C352.781 25.1665 351.574 25.514 350.714 26.2089C349.887 26.8707 349.474 27.698 349.474 28.6908C349.474 29.6835 349.871 30.4778 350.665 31.0734C351.491 31.6691 352.434 31.9669 353.492 31.9669C354.351 31.9669 355.145 31.818 355.873 31.5202C356.6 31.1892 357.212 30.7756 357.708 30.2792C358.237 29.7497 358.634 29.1541 358.898 28.4922C359.196 27.7973 359.344 27.0858 359.344 26.3578Z" fill="#474747"/>
<path d="M300.966 11.9131H307.067V15.0899H307.463C308.224 13.8986 309.249 12.939 310.539 12.2109C311.861 11.4829 313.316 11.1189 314.903 11.1189C316.755 11.1189 318.309 11.5491 319.566 12.4095C320.822 13.2699 321.715 14.3288 322.244 15.5863C323.005 14.3619 324.079 13.3195 325.468 12.4591C326.857 11.5656 328.543 11.1189 330.527 11.1189C332.015 11.1189 333.305 11.3671 334.396 11.8635C335.487 12.3268 336.38 12.9886 337.075 13.849C337.802 14.7094 338.348 15.7518 338.711 16.9762C339.075 18.1675 339.257 19.4746 339.257 20.8976V36.2358H332.759V22.0889C332.759 18.7797 331.404 17.1251 328.692 17.1251C327.832 17.1251 327.072 17.3237 326.411 17.7208C325.749 18.0848 325.187 18.5977 324.724 19.2595C324.294 19.8883 323.947 20.6494 323.683 21.5429C323.451 22.4364 323.335 23.3961 323.335 24.4219V36.2358H316.838V22.0889C316.838 18.7797 315.416 17.1251 312.572 17.1251C311.746 17.1251 311.018 17.3237 310.39 17.7208C309.762 18.0848 309.232 18.5977 308.803 19.2595C308.373 19.8883 308.042 20.6494 307.811 21.5429C307.579 22.4364 307.463 23.3961 307.463 24.4219V36.2358H300.966V11.9131Z" fill="#474747"/>
<path d="M280.768 11.9132H286.868V15.2886H287.265C287.563 14.6929 287.96 14.1469 288.456 13.6505C288.952 13.1541 289.497 12.724 290.092 12.3599C290.721 11.9959 291.382 11.7146 292.076 11.5161C292.804 11.3175 293.515 11.2183 294.209 11.2183C295.069 11.2183 295.796 11.301 296.392 11.4665C297.02 11.6319 297.549 11.847 297.979 12.1117L296.243 18.0187C295.846 17.8201 295.4 17.6712 294.904 17.5719C294.441 17.4396 293.862 17.3734 293.168 17.3734C292.275 17.3734 291.465 17.5554 290.737 17.9194C290.01 18.2503 289.381 18.7302 288.852 19.3589C288.356 19.9877 287.96 20.7322 287.662 21.5926C287.397 22.4199 287.265 23.33 287.265 24.3227V36.2359H280.768V11.9132Z" fill="#474747"/>
<path d="M264.18 11.1189C266.065 11.1189 267.784 11.4498 269.339 12.1117C270.926 12.7404 272.281 13.6339 273.406 14.7921C274.563 15.9172 275.456 17.274 276.084 18.8624C276.745 20.4509 277.076 22.1882 277.076 24.0744C277.076 25.9607 276.745 27.698 276.084 29.2864C275.456 30.8749 274.563 32.2482 273.406 33.4064C272.281 34.5315 270.926 35.425 269.339 36.0869C267.784 36.7156 266.065 37.03 264.18 37.03C262.295 37.03 260.559 36.7156 258.972 36.0869C257.418 35.425 256.062 34.5315 254.905 33.4064C253.781 32.2482 252.888 30.8749 252.227 29.2864C251.598 27.698 251.284 25.9607 251.284 24.0744C251.284 22.1882 251.598 20.4509 252.227 18.8624C252.888 17.274 253.781 15.9172 254.905 14.7921C256.062 13.6339 257.418 12.7404 258.972 12.1117C260.559 11.4498 262.295 11.1189 264.18 11.1189ZM264.18 31.0238C265.007 31.0238 265.8 30.8749 266.561 30.577C267.355 30.2461 268.049 29.7828 268.644 29.1872C269.239 28.5915 269.702 27.8635 270.033 27.0031C270.397 26.1427 270.579 25.1665 270.579 24.0744C270.579 22.9824 270.397 22.0062 270.033 21.1458C269.702 20.2854 269.239 19.5574 268.644 18.9617C268.049 18.3661 267.355 17.9193 266.561 17.6215C265.8 17.2906 265.007 17.1251 264.18 17.1251C263.32 17.1251 262.51 17.2906 261.75 17.6215C260.989 17.9193 260.311 18.3661 259.716 18.9617C259.121 19.5574 258.642 20.2854 258.278 21.1458C257.947 22.0062 257.782 22.9824 257.782 24.0744C257.782 25.1665 257.947 26.1427 258.278 27.0031C258.642 27.8635 259.121 28.5915 259.716 29.1872C260.311 29.7828 260.989 30.2461 261.75 30.577C262.51 30.8749 263.32 31.0238 264.18 31.0238Z" fill="#474747"/>
<path d="M246.464 0.297852C247.39 0.297852 248.25 0.380582 249.044 0.546042C249.837 0.711502 250.548 0.926601 251.176 1.19134L249.341 6.99899C249.01 6.83353 248.647 6.70117 248.25 6.60189C247.886 6.50261 247.423 6.45298 246.861 6.45298C245.902 6.45298 245.142 6.76735 244.58 7.3961C244.017 7.99176 243.736 8.8356 243.736 9.92764V11.9132H249.788V17.4726H243.736V36.2358H237.239V17.4726H232.874V11.9132H237.239V9.53054C237.239 8.0414 237.454 6.73426 237.884 5.60913C238.347 4.45091 238.991 3.49124 239.818 2.73012C240.645 1.93591 241.62 1.34025 242.744 0.943147C243.869 0.51295 245.109 0.297852 246.464 0.297852Z" fill="#474747"/>
<path d="M212.566 15.0899H212.962C213.723 13.8655 214.748 12.9059 216.038 12.2109C217.327 11.4829 218.799 11.1189 220.452 11.1189C221.973 11.1189 223.312 11.3671 224.47 11.8635C225.627 12.3599 226.569 13.0713 227.297 13.9979C228.057 14.8914 228.619 15.9834 228.983 17.274C229.38 18.5315 229.578 19.9379 229.578 21.4933V36.2358H223.081V22.2875C223.081 20.5336 222.684 19.243 221.89 18.4157C221.13 17.5553 220.006 17.1251 218.518 17.1251C217.625 17.1251 216.831 17.3237 216.137 17.7208C215.475 18.0848 214.897 18.5977 214.401 19.2595C213.938 19.8883 213.574 20.6494 213.31 21.5429C213.078 22.4033 212.962 23.3299 212.962 24.3226V36.2358H206.465V11.9131H212.566V15.0899Z" fill="#474747"/>
<path d="M197.25 8.389C196.688 8.389 196.143 8.28973 195.614 8.09118C195.118 7.85953 194.671 7.56171 194.274 7.19769C193.911 6.80059 193.613 6.35384 193.382 5.85746C193.183 5.36108 193.084 4.81506 193.084 4.21941C193.084 3.62375 193.183 3.07773 193.382 2.58135C193.613 2.08497 193.911 1.65477 194.274 1.29076C194.671 0.893653 195.118 0.595824 195.614 0.39727C196.143 0.165626 196.688 0.0498047 197.25 0.0498047C198.408 0.0498047 199.4 0.463455 200.226 1.29076C201.053 2.08497 201.466 3.06118 201.466 4.21941C201.466 5.37763 201.053 6.37039 200.226 7.19769C199.4 7.9919 198.408 8.389 197.25 8.389ZM194.026 36.236V11.9133H200.524V36.236H194.026Z" fill="#474747"/>
<path d="M167.05 37.03C163.479 37.03 160.536 35.8056 158.221 33.3568C155.906 30.908 154.749 27.8138 154.749 24.0744C154.749 20.3681 155.873 17.2906 158.122 14.8418C160.37 12.3599 163.247 11.1189 166.752 11.1189C170.356 11.1189 173.217 12.2937 175.333 14.6432C177.482 16.9596 178.557 20.2192 178.557 24.4219L178.507 24.9183H159.411C159.478 27.3009 160.271 29.2203 161.792 30.6763C163.313 32.1324 165.132 32.8604 167.248 32.8604C170.158 32.8604 172.44 31.4043 174.093 28.4922L178.16 30.4778C177.069 32.5295 175.548 34.1344 173.597 35.2927C171.679 36.4509 169.497 37.03 167.05 37.03ZM159.759 21.1458H173.696C173.564 19.4581 172.869 18.0682 171.613 16.9762C170.389 15.8511 168.736 15.2885 166.653 15.2885C164.934 15.2885 163.446 15.818 162.189 16.8769C160.966 17.9359 160.155 19.3588 159.759 21.1458Z" fill="#474747"/>
<path d="M138.714 32.8603C140.962 32.8603 142.798 32.0496 144.219 30.428C145.707 28.8065 146.451 26.6886 146.451 24.0744C146.451 21.5263 145.707 19.4249 144.219 17.7703C142.764 16.1157 140.929 15.2884 138.714 15.2884C136.531 15.2884 134.696 16.1157 133.208 17.7703C131.72 19.4249 130.976 21.5263 130.976 24.0744C130.976 26.6556 131.72 28.7569 133.208 30.3784C134.696 32.033 136.531 32.8603 138.714 32.8603ZM137.97 37.0299C134.795 37.0299 132.067 35.7724 129.786 33.2574C127.537 30.7093 126.413 27.6483 126.413 24.0744C126.413 20.5004 127.537 17.4394 129.786 14.8913C132.067 12.3763 134.795 11.1188 137.97 11.1188C139.755 11.1188 141.376 11.4994 142.831 12.2605C144.319 13.0216 145.459 14.0309 146.253 15.2884H146.451L146.253 11.913V0.694824H150.816V36.2357H146.451V32.8603H146.253C145.459 34.1178 144.319 35.1271 142.831 35.8882C141.376 36.6494 139.755 37.0299 137.97 37.0299Z" fill="#474747"/>
<path d="M79.2292 36.2358H74.666V11.9131H79.0308V15.2885H79.2292C79.9236 14.0972 80.9817 13.1044 82.4036 12.3102C83.8585 11.516 85.2969 11.1189 86.7188 11.1189C88.5044 11.1189 90.075 11.5325 91.4308 12.3599C92.7865 13.1872 93.7785 14.3288 94.4067 15.7849C96.4238 12.6742 99.2179 11.1189 102.789 11.1189C105.6 11.1189 107.766 11.9793 109.287 13.7001C110.808 15.4209 111.568 17.8697 111.568 21.0465V36.2358H107.005V21.7415C107.005 19.4581 106.592 17.82 105.765 16.8273C104.938 15.8014 103.55 15.2885 101.599 15.2885C99.8462 15.2885 98.3747 16.0331 97.1843 17.5222C95.9939 19.0114 95.3987 20.7652 95.3987 22.7838V36.2358H90.8356V21.7415C90.8356 19.4581 90.4222 17.82 89.5956 16.8273C88.7689 15.8014 87.3801 15.2885 85.4292 15.2885C83.6766 15.2885 82.2052 16.0331 81.0148 17.5222C79.8244 19.0114 79.2292 20.7652 79.2292 22.7838V36.2358Z" fill="#474747"/>
<path d="M58.9873 37.0299C55.4161 37.0299 52.4732 35.8055 50.1585 33.3567C47.8439 30.9079 46.6865 27.8138 46.6865 24.0744C46.6865 20.3681 47.8108 17.2905 50.0593 14.8417C52.3078 12.3598 55.1846 11.1188 58.6897 11.1188C62.2939 11.1188 65.1542 12.2936 67.2704 14.6431C69.4198 16.9596 70.4944 20.2191 70.4944 24.4218L70.4448 24.9182H51.3489C51.415 27.3008 52.2086 29.2202 53.7297 30.6762C55.2508 32.1323 57.0694 32.8603 59.1857 32.8603C62.0955 32.8603 64.3771 31.4043 66.0305 28.4922L70.0976 30.4777C69.0064 32.5294 67.4854 34.1344 65.5345 35.2926C63.6166 36.4508 61.4342 37.0299 58.9873 37.0299ZM51.6961 21.1457H65.6337C65.5014 19.458 64.807 18.0682 63.5505 16.9761C62.327 15.851 60.6737 15.2884 58.5905 15.2884C56.871 15.2884 55.383 15.8179 54.1265 16.8768C52.903 17.9358 52.0929 19.3587 51.6961 21.1457ZM63.7489 0.694824L60.1777 7.0485H56.2097L58.7889 0.694824H63.7489Z" fill="#474747"/>
<path d="M42.7565 0.694824V36.2357H38.1934V0.694824H42.7565Z" fill="#474747"/>
<path d="M18.7518 6.30393L12.9486 22.337H24.7534L18.9502 6.30393H18.7518ZM7.93906 36.2357H2.87988L16.2718 0.694824H21.4302L34.8222 36.2357H29.763L26.3406 26.6059H11.4111L7.93906 36.2357Z" fill="#474747"/>
<path d="M426.625 129.451C430.765 125.712 438.13 118.073 438.13 111.062C438.13 107.184 436.629 103.464 433.956 100.721C431.284 97.9783 427.659 96.4375 423.88 96.4375C420.101 96.4375 416.476 97.9783 413.804 100.721C411.131 103.464 409.63 107.184 409.63 111.062C409.63 118.073 416.992 125.712 421.134 129.451C421.89 130.143 422.867 130.526 423.88 130.526C424.893 130.526 425.87 130.143 426.625 129.451ZM419.13 111.062C419.13 109.77 419.63 108.53 420.521 107.615C421.412 106.701 422.62 106.188 423.88 106.188C425.14 106.188 426.348 106.701 427.239 107.615C428.129 108.53 428.63 109.77 428.63 111.062C428.63 112.355 428.129 113.595 427.239 114.51C426.348 115.424 425.14 115.938 423.88 115.938C422.62 115.938 421.412 115.424 420.521 114.51C419.63 113.595 419.13 112.355 419.13 111.062Z" fill="#2F5830"/>
<rect x="2.87988" y="76" width="340" height="75" rx="37.5" stroke="#DFDEDB" stroke-width="4"/>
<rect x="2.87988" y="181" width="340" height="75" rx="37.5" stroke="#DFDEDB" stroke-width="4"/>
<rect x="376.88" y="76" width="340" height="75" rx="37.5" stroke="#DFDEDB" stroke-width="4"/>
<rect x="376.88" y="181" width="340" height="75" rx="37.5" stroke="#DFDEDB" stroke-width="4"/>
<path d="M58.1299 226C57.1674 226 56.3799 225.212 56.3799 224.25H42.3799C42.3799 225.212 41.5924 226 40.6299 226C39.6674 226 38.8799 225.212 38.8799 224.25H31.8799V229.5C31.8799 231.425 33.4549 233 35.3799 233H63.3799C65.3049 233 66.8799 231.425 66.8799 229.5V224.25H59.8799C59.8799 225.212 59.0924 226 58.1299 226ZM63.3799 212H58.1299V208.5C58.1299 206.575 56.5549 205 54.6299 205H44.1299C42.2049 205 40.6299 206.575 40.6299 208.5V212H35.3799C33.4549 212 31.8799 213.575 31.8799 215.5V222.5H38.8799V220.75C38.8799 219.788 39.6674 219 40.6299 219C41.5924 219 42.3799 219.788 42.3799 220.75V222.5H56.3799V220.75C56.3799 219.788 57.1674 219 58.1299 219C59.0924 219 59.8799 219.788 59.8799 220.75V222.5H66.8799V215.5C66.8799 213.575 65.3049 212 63.3799 212ZM54.6299 212H44.1299V208.5H54.6299V212Z" fill="#315C32"/>
<path d="M425.493 217.167C421.925 216.183 420.778 215.167 420.778 213.583C420.778 211.767 422.365 210.5 425.021 210.5C427.819 210.5 428.856 211.917 428.951 214H432.424C432.314 211.133 430.664 208.5 427.379 207.65V204H422.664V207.6C419.615 208.3 417.163 210.4 417.163 213.617C417.163 217.467 420.165 219.383 424.55 220.5C428.479 221.5 429.265 222.967 429.265 224.517C429.265 225.667 428.495 227.5 425.021 227.5C421.784 227.5 420.511 225.967 420.338 224H416.88C417.068 227.65 419.646 229.7 422.664 230.383V234H427.379V230.417C430.444 229.8 432.88 227.917 432.88 224.5C432.88 219.767 429.061 218.15 425.493 217.167Z" fill="#315C32"/>
<defs>
<clipPath id="clip0_558_17">
<rect width="35" height="37" fill="white" transform="translate(70.5195 99.5869) rotate(100.255)"/>
</clipPath>
</defs>
</svg>
