<svg width="824" height="65" viewBox="0 0 824 65" fill="none" xmlns="http://www.w3.org/2000/svg">
<rect x="0.879883" width="823" height="65" rx="32.5" fill="#E3E0D9" fill-opacity="0.64"/>
<g clip-path="url(#clip0_558_15)">
<path fill-rule="evenodd" clip-rule="evenodd" d="M37.3174 18.75C35.4537 18.7502 33.6171 19.196 31.9607 20.0503C30.3044 20.9047 28.8764 22.1427 27.7958 23.6612C26.7153 25.1796 26.0135 26.9345 25.7491 28.7793C25.4847 30.6241 25.6653 32.5055 26.2758 34.2663C26.8864 36.0271 27.9091 37.6164 29.2588 38.9016C30.6085 40.1868 32.246 41.1306 34.0346 41.6542C35.8232 42.1778 37.7111 42.2661 39.5408 41.9118C41.3704 41.5574 43.0889 40.7706 44.5526 39.617L49.5741 44.6385C49.8334 44.889 50.1808 45.0276 50.5413 45.0244C50.9018 45.0213 51.2467 44.8767 51.5016 44.6217C51.7565 44.3668 51.9012 44.0219 51.9043 43.6614C51.9074 43.3009 51.7688 42.9536 51.5184 42.6943L46.4969 37.6728C47.8554 35.9494 48.7012 33.8783 48.9376 31.6966C49.174 29.5149 48.7915 27.3108 47.8337 25.3364C46.8759 23.362 45.3816 21.6971 43.5218 20.5323C41.662 19.3675 39.5118 18.7499 37.3174 18.75ZM28.3799 30.4375C28.3799 28.0671 29.3215 25.7938 30.9976 24.1177C32.6737 22.4416 34.947 21.5 37.3174 21.5C39.6877 21.5 41.961 22.4416 43.6371 24.1177C45.3132 25.7938 46.2549 28.0671 46.2549 30.4375C46.2549 32.8079 45.3132 35.0812 43.6371 36.7573C41.961 38.4334 39.6877 39.375 37.3174 39.375C34.947 39.375 32.6737 38.4334 30.9976 36.7573C29.3215 35.0812 28.3799 32.8079 28.3799 30.4375Z" fill="#474747" fill-opacity="0.62"/>
</g>
<path d="M74.7125 38.288C73.7525 38.288 72.8585 38.114 72.0305 37.766C71.2145 37.418 70.5065 36.944 69.9065 36.344C69.3065 35.732 68.8325 35.018 68.4845 34.202C68.1485 33.374 67.9805 32.492 67.9805 31.556C67.9805 30.62 68.1485 29.744 68.4845 28.928C68.8325 28.1 69.3065 27.386 69.9065 26.786C70.5065 26.174 71.2145 25.694 72.0305 25.346C72.8585 24.998 73.7525 24.824 74.7125 24.824C75.6725 24.824 76.5605 24.998 77.3765 25.346C78.2045 25.694 78.9185 26.174 79.5185 26.786C80.1185 27.386 80.5865 28.1 80.9225 28.928C81.2705 29.744 81.4445 30.62 81.4445 31.556C81.4445 32.492 81.2705 33.374 80.9225 34.202C80.5865 35.018 80.1185 35.732 79.5185 36.344C78.9185 36.944 78.2045 37.418 77.3765 37.766C76.5605 38.114 75.6725 38.288 74.7125 38.288ZM74.7125 35.984C75.3125 35.984 75.8705 35.876 76.3865 35.66C76.9145 35.444 77.3705 35.144 77.7545 34.76C78.1505 34.376 78.4565 33.914 78.6725 33.374C78.9005 32.822 79.0145 32.216 79.0145 31.556C79.0145 30.896 78.9005 30.296 78.6725 29.756C78.4565 29.204 78.1505 28.736 77.7545 28.352C77.3705 27.968 76.9145 27.668 76.3865 27.452C75.8705 27.236 75.3125 27.128 74.7125 27.128C74.1125 27.128 73.5485 27.236 73.0205 27.452C72.5045 27.668 72.0485 27.968 71.6525 28.352C71.2685 28.736 70.9625 29.204 70.7345 29.756C70.5185 30.296 70.4105 30.896 70.4105 31.556C70.4105 32.216 70.5185 32.822 70.7345 33.374C70.9625 33.914 71.2685 34.376 71.6525 34.76C72.0485 35.144 72.5045 35.444 73.0205 35.66C73.5485 35.876 74.1125 35.984 74.7125 35.984ZM86.4892 38H84.1312V31.196H82.5472V29.18H84.1312V28.316C84.1312 27.776 84.2092 27.302 84.3652 26.894C84.5332 26.474 84.7672 26.126 85.0672 25.85C85.3672 25.562 85.7212 25.346 86.1292 25.202C86.5372 25.046 86.9872 24.968 87.4792 24.968C87.7192 24.968 87.9112 24.98 88.0552 25.004C88.1992 25.028 88.3372 25.064 88.4692 25.112L88.3252 27.326C88.2412 27.29 88.1452 27.26 88.0372 27.236C87.9292 27.212 87.7912 27.2 87.6232 27.2C87.2752 27.2 86.9992 27.314 86.7952 27.542C86.5912 27.758 86.4892 28.064 86.4892 28.46V29.18H92.1772V38H89.8192V31.196H86.4892V38ZM90.9892 27.902C90.7852 27.902 90.5872 27.866 90.3952 27.794C90.2152 27.71 90.0532 27.602 89.9092 27.47C89.7772 27.326 89.6692 27.164 89.5852 26.984C89.5132 26.804 89.4772 26.606 89.4772 26.39C89.4772 26.174 89.5132 25.976 89.5852 25.796C89.6692 25.616 89.7772 25.46 89.9092 25.328C90.0532 25.184 90.2152 25.076 90.3952 25.004C90.5872 24.92 90.7852 24.878 90.9892 24.878C91.4092 24.878 91.7692 25.028 92.0692 25.328C92.3692 25.616 92.5192 25.97 92.5192 26.39C92.5192 26.81 92.3692 27.17 92.0692 27.47C91.7692 27.758 91.4092 27.902 90.9892 27.902ZM102.62 35.75C102.236 36.494 101.696 37.106 101 37.586C100.316 38.054 99.4582 38.288 98.4262 38.288C97.7422 38.288 97.1122 38.174 96.5362 37.946C95.9722 37.706 95.4802 37.376 95.0602 36.956C94.6522 36.536 94.3282 36.044 94.0882 35.48C93.8602 34.904 93.7462 34.274 93.7462 33.59C93.7462 32.906 93.8602 32.276 94.0882 31.7C94.3282 31.124 94.6522 30.632 95.0602 30.224C95.4802 29.804 95.9722 29.48 96.5362 29.252C97.1122 29.012 97.7422 28.892 98.4262 28.892C99.4462 28.892 100.304 29.126 101 29.594C101.696 30.062 102.206 30.668 102.53 31.412L100.37 32.312C100.166 31.904 99.9022 31.598 99.5782 31.394C99.2662 31.178 98.8702 31.07 98.3902 31.07C98.0782 31.07 97.7842 31.13 97.5082 31.25C97.2322 31.37 96.9862 31.538 96.7702 31.754C96.5662 31.97 96.4042 32.234 96.2842 32.546C96.1642 32.858 96.1042 33.206 96.1042 33.59C96.1042 33.974 96.1642 34.322 96.2842 34.634C96.4042 34.946 96.5662 35.21 96.7702 35.426C96.9862 35.642 97.2322 35.81 97.5082 35.93C97.7842 36.05 98.0782 36.11 98.3902 36.11C98.8822 36.11 99.2962 36.002 99.6322 35.786C99.9802 35.558 100.256 35.234 100.46 34.814L102.62 35.75ZM105.373 27.902C105.169 27.902 104.971 27.866 104.779 27.794C104.599 27.71 104.437 27.602 104.293 27.47C104.161 27.326 104.053 27.164 103.969 26.984C103.897 26.804 103.861 26.606 103.861 26.39C103.861 26.174 103.897 25.976 103.969 25.796C104.053 25.616 104.161 25.46 104.293 25.328C104.437 25.184 104.599 25.076 104.779 25.004C104.971 24.92 105.169 24.878 105.373 24.878C105.793 24.878 106.153 25.028 106.453 25.328C106.753 25.616 106.903 25.97 106.903 26.39C106.903 26.81 106.753 27.17 106.453 27.47C106.153 27.758 105.793 27.902 105.373 27.902ZM104.203 38V29.18H106.561V38H104.203ZM110.931 30.332H111.075C111.351 29.888 111.723 29.54 112.191 29.288C112.659 29.024 113.193 28.892 113.793 28.892C114.345 28.892 114.831 28.982 115.251 29.162C115.671 29.342 116.013 29.6 116.277 29.936C116.553 30.26 116.757 30.656 116.889 31.124C117.033 31.58 117.105 32.09 117.105 32.654V38H114.747V32.942C114.747 32.306 114.603 31.838 114.315 31.538C114.039 31.226 113.631 31.07 113.091 31.07C112.767 31.07 112.479 31.142 112.227 31.286C111.987 31.418 111.777 31.604 111.597 31.844C111.429 32.072 111.297 32.348 111.201 32.672C111.117 32.984 111.075 33.32 111.075 33.68V38H108.717V29.18H110.931V30.332ZM124.401 37.064H124.257C123.981 37.4 123.645 37.688 123.249 37.928C122.865 38.168 122.367 38.288 121.755 38.288C121.299 38.288 120.867 38.21 120.459 38.054C120.063 37.91 119.715 37.706 119.415 37.442C119.115 37.178 118.881 36.86 118.713 36.488C118.545 36.116 118.461 35.708 118.461 35.264C118.461 34.808 118.551 34.4 118.731 34.04C118.911 33.668 119.163 33.35 119.487 33.086C119.811 32.822 120.189 32.624 120.621 32.492C121.065 32.348 121.545 32.276 122.061 32.276C122.637 32.276 123.111 32.324 123.483 32.42C123.855 32.504 124.161 32.594 124.401 32.69V32.42C124.401 31.952 124.215 31.568 123.843 31.268C123.471 30.956 123.009 30.8 122.457 30.8C121.641 30.8 120.951 31.142 120.387 31.826L118.677 30.656C119.613 29.48 120.891 28.892 122.511 28.892C123.879 28.892 124.923 29.216 125.643 29.864C126.363 30.5 126.723 31.448 126.723 32.708V38H124.401V37.064ZM124.401 34.418C124.125 34.286 123.837 34.184 123.537 34.112C123.249 34.028 122.931 33.986 122.583 33.986C122.019 33.986 121.581 34.112 121.269 34.364C120.969 34.604 120.819 34.904 120.819 35.264C120.819 35.624 120.963 35.912 121.251 36.128C121.551 36.344 121.893 36.452 122.277 36.452C122.589 36.452 122.877 36.398 123.141 36.29C123.405 36.17 123.627 36.02 123.807 35.84C123.999 35.648 124.143 35.432 124.239 35.192C124.347 34.94 124.401 34.682 124.401 34.418ZM132.553 29.18H134.767V30.332H134.911C135.187 29.9 135.559 29.552 136.027 29.288C136.507 29.024 137.035 28.892 137.611 28.892C138.283 28.892 138.847 29.048 139.303 29.36C139.759 29.672 140.083 30.056 140.275 30.512C140.551 30.068 140.941 29.69 141.445 29.378C141.949 29.054 142.561 28.892 143.281 28.892C143.821 28.892 144.289 28.982 144.685 29.162C145.081 29.33 145.405 29.57 145.657 29.882C145.921 30.194 146.119 30.572 146.251 31.016C146.383 31.448 146.449 31.922 146.449 32.438V38H144.091V32.87C144.091 31.67 143.599 31.07 142.615 31.07C142.303 31.07 142.027 31.142 141.787 31.286C141.547 31.418 141.343 31.604 141.175 31.844C141.019 32.072 140.893 32.348 140.797 32.672C140.713 32.996 140.671 33.344 140.671 33.716V38H138.313V32.87C138.313 31.67 137.797 31.07 136.765 31.07C136.465 31.07 136.201 31.142 135.973 31.286C135.745 31.418 135.553 31.604 135.397 31.844C135.241 32.072 135.121 32.348 135.037 32.672C134.953 32.996 134.911 33.344 134.911 33.716V38H132.553V29.18ZM156.743 35.876C156.335 36.596 155.783 37.178 155.087 37.622C154.403 38.066 153.563 38.288 152.567 38.288C151.895 38.288 151.271 38.174 150.695 37.946C150.131 37.706 149.639 37.376 149.219 36.956C148.799 36.536 148.469 36.044 148.229 35.48C148.001 34.904 147.887 34.274 147.887 33.59C147.887 32.954 148.001 32.354 148.229 31.79C148.457 31.214 148.775 30.716 149.183 30.296C149.591 29.864 150.071 29.522 150.623 29.27C151.187 29.018 151.805 28.892 152.477 28.892C153.185 28.892 153.815 29.012 154.367 29.252C154.919 29.48 155.381 29.804 155.753 30.224C156.125 30.632 156.407 31.118 156.599 31.682C156.791 32.246 156.887 32.858 156.887 33.518C156.887 33.602 156.887 33.674 156.887 33.734C156.875 33.806 156.869 33.872 156.869 33.932C156.857 33.992 156.851 34.058 156.851 34.13H150.209C150.257 34.49 150.353 34.802 150.497 35.066C150.653 35.318 150.839 35.534 151.055 35.714C151.283 35.882 151.529 36.008 151.793 36.092C152.057 36.164 152.327 36.2 152.603 36.2C153.143 36.2 153.587 36.08 153.935 35.84C154.295 35.588 154.577 35.276 154.781 34.904L156.743 35.876ZM154.601 32.456C154.589 32.3 154.535 32.126 154.439 31.934C154.355 31.742 154.223 31.562 154.043 31.394C153.875 31.226 153.659 31.088 153.395 30.98C153.143 30.872 152.837 30.818 152.477 30.818C151.973 30.818 151.529 30.962 151.145 31.25C150.761 31.538 150.491 31.94 150.335 32.456H154.601ZM166.851 35.75C166.467 36.494 165.927 37.106 165.231 37.586C164.547 38.054 163.689 38.288 162.657 38.288C161.973 38.288 161.343 38.174 160.767 37.946C160.203 37.706 159.711 37.376 159.291 36.956C158.883 36.536 158.559 36.044 158.319 35.48C158.091 34.904 157.977 34.274 157.977 33.59C157.977 32.906 158.091 32.276 158.319 31.7C158.559 31.124 158.883 30.632 159.291 30.224C159.711 29.804 160.203 29.48 160.767 29.252C161.343 29.012 161.973 28.892 162.657 28.892C163.677 28.892 164.535 29.126 165.231 29.594C165.927 30.062 166.437 30.668 166.761 31.412L164.601 32.312C164.397 31.904 164.133 31.598 163.809 31.394C163.497 31.178 163.101 31.07 162.621 31.07C162.309 31.07 162.015 31.13 161.739 31.25C161.463 31.37 161.217 31.538 161.001 31.754C160.797 31.97 160.635 32.234 160.515 32.546C160.395 32.858 160.335 33.206 160.335 33.59C160.335 33.974 160.395 34.322 160.515 34.634C160.635 34.946 160.797 35.21 161.001 35.426C161.217 35.642 161.463 35.81 161.739 35.93C162.015 36.05 162.309 36.11 162.621 36.11C163.113 36.11 163.527 36.002 163.863 35.786C164.211 35.558 164.487 35.234 164.691 34.814L166.851 35.75ZM173.637 37.064H173.493C173.217 37.4 172.881 37.688 172.485 37.928C172.101 38.168 171.603 38.288 170.991 38.288C170.535 38.288 170.103 38.21 169.695 38.054C169.299 37.91 168.951 37.706 168.651 37.442C168.351 37.178 168.117 36.86 167.949 36.488C167.781 36.116 167.697 35.708 167.697 35.264C167.697 34.808 167.787 34.4 167.967 34.04C168.147 33.668 168.399 33.35 168.723 33.086C169.047 32.822 169.425 32.624 169.857 32.492C170.301 32.348 170.781 32.276 171.297 32.276C171.873 32.276 172.347 32.324 172.719 32.42C173.091 32.504 173.397 32.594 173.637 32.69V32.42C173.637 31.952 173.451 31.568 173.079 31.268C172.707 30.956 172.245 30.8 171.693 30.8C170.877 30.8 170.187 31.142 169.623 31.826L167.913 30.656C168.849 29.48 170.127 28.892 171.747 28.892C173.115 28.892 174.159 29.216 174.879 29.864C175.599 30.5 175.959 31.448 175.959 32.708V38H173.637V37.064ZM173.637 34.418C173.361 34.286 173.073 34.184 172.773 34.112C172.485 34.028 172.167 33.986 171.819 33.986C171.255 33.986 170.817 34.112 170.505 34.364C170.205 34.604 170.055 34.904 170.055 35.264C170.055 35.624 170.199 35.912 170.487 36.128C170.787 36.344 171.129 36.452 171.513 36.452C171.825 36.452 172.113 36.398 172.377 36.29C172.641 36.17 172.863 36.02 173.043 35.84C173.235 35.648 173.379 35.432 173.475 35.192C173.583 34.94 173.637 34.682 173.637 34.418ZM168.813 27.38L170.865 25.112H172.917L174.969 27.38V27.524H172.719L171.999 26.462H171.783L171.063 27.524H168.813V27.38ZM180.048 30.332H180.192C180.468 29.888 180.84 29.54 181.308 29.288C181.776 29.024 182.31 28.892 182.91 28.892C183.462 28.892 183.948 28.982 184.368 29.162C184.788 29.342 185.13 29.6 185.394 29.936C185.67 30.26 185.874 30.656 186.006 31.124C186.15 31.58 186.222 32.09 186.222 32.654V38H183.864V32.942C183.864 32.306 183.72 31.838 183.432 31.538C183.156 31.226 182.748 31.07 182.208 31.07C181.884 31.07 181.596 31.142 181.344 31.286C181.104 31.418 180.894 31.604 180.714 31.844C180.546 32.072 180.414 32.348 180.318 32.672C180.234 32.984 180.192 33.32 180.192 33.68V38H177.834V29.18H180.048V30.332ZM189.484 27.902C189.28 27.902 189.082 27.866 188.89 27.794C188.71 27.71 188.548 27.602 188.404 27.47C188.272 27.326 188.164 27.164 188.08 26.984C188.008 26.804 187.972 26.606 187.972 26.39C187.972 26.174 188.008 25.976 188.08 25.796C188.164 25.616 188.272 25.46 188.404 25.328C188.548 25.184 188.71 25.076 188.89 25.004C189.082 24.92 189.28 24.878 189.484 24.878C189.904 24.878 190.264 25.028 190.564 25.328C190.864 25.616 191.014 25.97 191.014 26.39C191.014 26.81 190.864 27.17 190.564 27.47C190.264 27.758 189.904 27.902 189.484 27.902ZM188.314 38V29.18H190.672V38H188.314ZM201.11 35.75C200.726 36.494 200.186 37.106 199.49 37.586C198.806 38.054 197.948 38.288 196.916 38.288C196.232 38.288 195.602 38.174 195.026 37.946C194.462 37.706 193.97 37.376 193.55 36.956C193.142 36.536 192.818 36.044 192.578 35.48C192.35 34.904 192.236 34.274 192.236 33.59C192.236 32.906 192.35 32.276 192.578 31.7C192.818 31.124 193.142 30.632 193.55 30.224C193.97 29.804 194.462 29.48 195.026 29.252C195.602 29.012 196.232 28.892 196.916 28.892C197.936 28.892 198.794 29.126 199.49 29.594C200.186 30.062 200.696 30.668 201.02 31.412L198.86 32.312C198.656 31.904 198.392 31.598 198.068 31.394C197.756 31.178 197.36 31.07 196.88 31.07C196.568 31.07 196.274 31.13 195.998 31.25C195.722 31.37 195.476 31.538 195.26 31.754C195.056 31.97 194.894 32.234 194.774 32.546C194.654 32.858 194.594 33.206 194.594 33.59C194.594 33.974 194.654 34.322 194.774 34.634C194.894 34.946 195.056 35.21 195.26 35.426C195.476 35.642 195.722 35.81 195.998 35.93C196.274 36.05 196.568 36.11 196.88 36.11C197.372 36.11 197.786 36.002 198.122 35.786C198.47 35.558 198.746 35.234 198.95 34.814L201.11 35.75ZM207.897 37.064H207.753C207.477 37.4 207.141 37.688 206.745 37.928C206.361 38.168 205.863 38.288 205.251 38.288C204.795 38.288 204.363 38.21 203.955 38.054C203.559 37.91 203.211 37.706 202.911 37.442C202.611 37.178 202.377 36.86 202.209 36.488C202.041 36.116 201.957 35.708 201.957 35.264C201.957 34.808 202.047 34.4 202.227 34.04C202.407 33.668 202.659 33.35 202.983 33.086C203.307 32.822 203.685 32.624 204.117 32.492C204.561 32.348 205.041 32.276 205.557 32.276C206.133 32.276 206.607 32.324 206.979 32.42C207.351 32.504 207.657 32.594 207.897 32.69V32.42C207.897 31.952 207.711 31.568 207.339 31.268C206.967 30.956 206.505 30.8 205.953 30.8C205.137 30.8 204.447 31.142 203.883 31.826L202.173 30.656C203.109 29.48 204.387 28.892 206.007 28.892C207.375 28.892 208.419 29.216 209.139 29.864C209.859 30.5 210.219 31.448 210.219 32.708V38H207.897V37.064ZM207.897 34.418C207.621 34.286 207.333 34.184 207.033 34.112C206.745 34.028 206.427 33.986 206.079 33.986C205.515 33.986 205.077 34.112 204.765 34.364C204.465 34.604 204.315 34.904 204.315 35.264C204.315 35.624 204.459 35.912 204.747 36.128C205.047 36.344 205.389 36.452 205.773 36.452C206.085 36.452 206.373 36.398 206.637 36.29C206.901 36.17 207.123 36.02 207.303 35.84C207.495 35.648 207.639 35.432 207.735 35.192C207.843 34.94 207.897 34.682 207.897 34.418ZM224.401 35.876C223.993 36.596 223.441 37.178 222.745 37.622C222.061 38.066 221.221 38.288 220.225 38.288C219.553 38.288 218.929 38.174 218.353 37.946C217.789 37.706 217.297 37.376 216.877 36.956C216.457 36.536 216.127 36.044 215.887 35.48C215.659 34.904 215.545 34.274 215.545 33.59C215.545 32.954 215.659 32.354 215.887 31.79C216.115 31.214 216.433 30.716 216.841 30.296C217.249 29.864 217.729 29.522 218.281 29.27C218.845 29.018 219.463 28.892 220.135 28.892C220.843 28.892 221.473 29.012 222.025 29.252C222.577 29.48 223.039 29.804 223.411 30.224C223.783 30.632 224.065 31.118 224.257 31.682C224.449 32.246 224.545 32.858 224.545 33.518C224.545 33.602 224.545 33.674 224.545 33.734C224.533 33.806 224.527 33.872 224.527 33.932C224.515 33.992 224.509 34.058 224.509 34.13H217.867C217.915 34.49 218.011 34.802 218.155 35.066C218.311 35.318 218.497 35.534 218.713 35.714C218.941 35.882 219.187 36.008 219.451 36.092C219.715 36.164 219.985 36.2 220.261 36.2C220.801 36.2 221.245 36.08 221.593 35.84C221.953 35.588 222.235 35.276 222.439 34.904L224.401 35.876ZM222.259 32.456C222.247 32.3 222.193 32.126 222.097 31.934C222.013 31.742 221.881 31.562 221.701 31.394C221.533 31.226 221.317 31.088 221.053 30.98C220.801 30.872 220.495 30.818 220.135 30.818C219.631 30.818 219.187 30.962 218.803 31.25C218.419 31.538 218.149 31.94 217.993 32.456H222.259ZM226.051 29.18H228.265V30.332H228.409C228.685 29.9 229.057 29.552 229.525 29.288C230.005 29.024 230.533 28.892 231.109 28.892C231.781 28.892 232.345 29.048 232.801 29.36C233.257 29.672 233.581 30.056 233.773 30.512C234.049 30.068 234.439 29.69 234.943 29.378C235.447 29.054 236.059 28.892 236.779 28.892C237.319 28.892 237.787 28.982 238.183 29.162C238.579 29.33 238.903 29.57 239.155 29.882C239.419 30.194 239.617 30.572 239.749 31.016C239.881 31.448 239.947 31.922 239.947 32.438V38H237.589V32.87C237.589 31.67 237.097 31.07 236.113 31.07C235.801 31.07 235.525 31.142 235.285 31.286C235.045 31.418 234.841 31.604 234.673 31.844C234.517 32.072 234.391 32.348 234.295 32.672C234.211 32.996 234.169 33.344 234.169 33.716V38H231.811V32.87C231.811 31.67 231.295 31.07 230.263 31.07C229.963 31.07 229.699 31.142 229.471 31.286C229.243 31.418 229.051 31.604 228.895 31.844C228.739 32.072 228.619 32.348 228.535 32.672C228.451 32.996 228.409 33.344 228.409 33.716V38H226.051V29.18ZM249.529 38.288C248.977 38.288 248.449 38.21 247.945 38.054C247.441 37.898 246.979 37.664 246.559 37.352C246.139 37.04 245.773 36.662 245.461 36.218C245.149 35.762 244.903 35.234 244.723 34.634L247.009 33.734C247.177 34.382 247.471 34.922 247.891 35.354C248.311 35.774 248.863 35.984 249.547 35.984C249.799 35.984 250.039 35.954 250.267 35.894C250.507 35.822 250.717 35.726 250.897 35.606C251.089 35.474 251.239 35.312 251.347 35.12C251.455 34.928 251.509 34.706 251.509 34.454C251.509 34.214 251.467 33.998 251.383 33.806C251.299 33.614 251.155 33.434 250.951 33.266C250.759 33.098 250.501 32.936 250.177 32.78C249.865 32.624 249.475 32.462 249.007 32.294L248.215 32.006C247.867 31.886 247.513 31.724 247.153 31.52C246.805 31.316 246.487 31.07 246.199 30.782C245.911 30.494 245.671 30.158 245.479 29.774C245.299 29.378 245.209 28.934 245.209 28.442C245.209 27.938 245.305 27.47 245.497 27.038C245.701 26.594 245.983 26.21 246.343 25.886C246.715 25.55 247.153 25.292 247.657 25.112C248.173 24.92 248.743 24.824 249.367 24.824C250.015 24.824 250.573 24.914 251.041 25.094C251.521 25.262 251.923 25.484 252.247 25.76C252.583 26.024 252.853 26.318 253.057 26.642C253.261 26.966 253.411 27.272 253.507 27.56L251.365 28.46C251.245 28.1 251.023 27.776 250.699 27.488C250.387 27.2 249.955 27.056 249.403 27.056C248.875 27.056 248.437 27.182 248.089 27.434C247.741 27.674 247.567 27.992 247.567 28.388C247.567 28.772 247.735 29.102 248.071 29.378C248.407 29.642 248.941 29.9 249.673 30.152L250.483 30.422C250.999 30.602 251.467 30.812 251.887 31.052C252.319 31.28 252.685 31.556 252.985 31.88C253.297 32.204 253.531 32.576 253.687 32.996C253.855 33.404 253.939 33.878 253.939 34.418C253.939 35.09 253.801 35.672 253.525 36.164C253.261 36.644 252.919 37.04 252.499 37.352C252.079 37.664 251.605 37.898 251.077 38.054C250.549 38.21 250.033 38.288 249.529 38.288ZM261.089 37.064H260.945C260.669 37.4 260.333 37.688 259.937 37.928C259.553 38.168 259.055 38.288 258.443 38.288C257.987 38.288 257.555 38.21 257.147 38.054C256.751 37.91 256.403 37.706 256.103 37.442C255.803 37.178 255.569 36.86 255.401 36.488C255.233 36.116 255.149 35.708 255.149 35.264C255.149 34.808 255.239 34.4 255.419 34.04C255.599 33.668 255.851 33.35 256.175 33.086C256.499 32.822 256.877 32.624 257.309 32.492C257.753 32.348 258.233 32.276 258.749 32.276C259.325 32.276 259.799 32.324 260.171 32.42C260.543 32.504 260.849 32.594 261.089 32.69V32.42C261.089 31.952 260.903 31.568 260.531 31.268C260.159 30.956 259.697 30.8 259.145 30.8C258.329 30.8 257.639 31.142 257.075 31.826L255.365 30.656C256.301 29.48 257.579 28.892 259.199 28.892C260.567 28.892 261.611 29.216 262.331 29.864C263.051 30.5 263.411 31.448 263.411 32.708V38H261.089V37.064ZM261.089 34.418C260.813 34.286 260.525 34.184 260.225 34.112C259.937 34.028 259.619 33.986 259.271 33.986C258.707 33.986 258.269 34.112 257.957 34.364C257.657 34.604 257.507 34.904 257.507 35.264C257.507 35.624 257.651 35.912 257.939 36.128C258.239 36.344 258.581 36.452 258.965 36.452C259.277 36.452 259.565 36.398 259.829 36.29C260.093 36.17 260.315 36.02 260.495 35.84C260.687 35.648 260.831 35.432 260.927 35.192C261.035 34.94 261.089 34.682 261.089 34.418ZM260.621 27.416C260.369 27.416 260.135 27.38 259.919 27.308C259.703 27.224 259.505 27.128 259.325 27.02C259.145 26.924 258.983 26.84 258.839 26.768C258.695 26.684 258.569 26.642 258.461 26.642C258.161 26.642 258.005 26.816 257.993 27.164H256.337C256.337 26.768 256.391 26.426 256.499 26.138C256.619 25.85 256.775 25.616 256.967 25.436C257.171 25.244 257.393 25.1 257.633 25.004C257.885 24.908 258.149 24.86 258.425 24.86C258.677 24.86 258.911 24.902 259.127 24.986C259.355 25.058 259.559 25.142 259.739 25.238C259.919 25.346 260.081 25.442 260.225 25.526C260.369 25.598 260.489 25.634 260.585 25.634C260.873 25.634 261.035 25.46 261.071 25.112H262.727C262.727 25.508 262.667 25.85 262.547 26.138C262.427 26.426 262.271 26.666 262.079 26.858C261.887 27.038 261.659 27.176 261.395 27.272C261.143 27.368 260.885 27.416 260.621 27.416ZM269.373 28.892C270.057 28.892 270.681 29.012 271.245 29.252C271.821 29.48 272.313 29.804 272.721 30.224C273.141 30.632 273.465 31.124 273.693 31.7C273.933 32.276 274.053 32.906 274.053 33.59C274.053 34.274 273.933 34.904 273.693 35.48C273.465 36.056 273.141 36.554 272.721 36.974C272.313 37.382 271.821 37.706 271.245 37.946C270.681 38.174 270.057 38.288 269.373 38.288C268.689 38.288 268.059 38.174 267.483 37.946C266.919 37.706 266.427 37.382 266.007 36.974C265.599 36.554 265.275 36.056 265.035 35.48C264.807 34.904 264.693 34.274 264.693 33.59C264.693 32.906 264.807 32.276 265.035 31.7C265.275 31.124 265.599 30.632 266.007 30.224C266.427 29.804 266.919 29.48 267.483 29.252C268.059 29.012 268.689 28.892 269.373 28.892ZM269.373 36.11C269.673 36.11 269.961 36.056 270.237 35.948C270.525 35.828 270.777 35.66 270.993 35.444C271.209 35.228 271.377 34.964 271.497 34.652C271.629 34.34 271.695 33.986 271.695 33.59C271.695 33.194 271.629 32.84 271.497 32.528C271.377 32.216 271.209 31.952 270.993 31.736C270.777 31.52 270.525 31.358 270.237 31.25C269.961 31.13 269.673 31.07 269.373 31.07C269.061 31.07 268.767 31.13 268.491 31.25C268.215 31.358 267.969 31.52 267.753 31.736C267.537 31.952 267.363 32.216 267.231 32.528C267.111 32.84 267.051 33.194 267.051 33.59C267.051 33.986 267.111 34.34 267.231 34.652C267.363 34.964 267.537 35.228 267.753 35.444C267.969 35.66 268.215 35.828 268.491 35.948C268.767 36.056 269.061 36.11 269.373 36.11ZM279.812 38V25.112H284.348C284.96 25.112 285.53 25.214 286.058 25.418C286.598 25.61 287.066 25.886 287.462 26.246C287.858 26.606 288.17 27.038 288.398 27.542C288.626 28.034 288.74 28.58 288.74 29.18C288.74 29.792 288.626 30.35 288.398 30.854C288.17 31.346 287.858 31.772 287.462 32.132C287.066 32.492 286.598 32.774 286.058 32.978C285.53 33.17 284.96 33.266 284.348 33.266H282.242V38H279.812ZM284.384 30.962C285.02 30.962 285.5 30.782 285.824 30.422C286.148 30.062 286.31 29.648 286.31 29.18C286.31 28.952 286.268 28.73 286.184 28.514C286.112 28.298 285.992 28.112 285.824 27.956C285.668 27.788 285.47 27.656 285.23 27.56C284.99 27.464 284.708 27.416 284.384 27.416H282.242V30.962H284.384ZM295.26 37.064H295.116C294.84 37.4 294.504 37.688 294.108 37.928C293.724 38.168 293.226 38.288 292.614 38.288C292.158 38.288 291.726 38.21 291.318 38.054C290.922 37.91 290.574 37.706 290.274 37.442C289.974 37.178 289.74 36.86 289.572 36.488C289.404 36.116 289.32 35.708 289.32 35.264C289.32 34.808 289.41 34.4 289.59 34.04C289.77 33.668 290.022 33.35 290.346 33.086C290.67 32.822 291.048 32.624 291.48 32.492C291.924 32.348 292.404 32.276 292.92 32.276C293.496 32.276 293.97 32.324 294.342 32.42C294.714 32.504 295.02 32.594 295.26 32.69V32.42C295.26 31.952 295.074 31.568 294.702 31.268C294.33 30.956 293.868 30.8 293.316 30.8C292.5 30.8 291.81 31.142 291.246 31.826L289.536 30.656C290.472 29.48 291.75 28.892 293.37 28.892C294.738 28.892 295.782 29.216 296.502 29.864C297.222 30.5 297.582 31.448 297.582 32.708V38H295.26V37.064ZM295.26 34.418C294.984 34.286 294.696 34.184 294.396 34.112C294.108 34.028 293.79 33.986 293.442 33.986C292.878 33.986 292.44 34.112 292.128 34.364C291.828 34.604 291.678 34.904 291.678 35.264C291.678 35.624 291.822 35.912 292.11 36.128C292.41 36.344 292.752 36.452 293.136 36.452C293.448 36.452 293.736 36.398 294 36.29C294.264 36.17 294.486 36.02 294.666 35.84C294.858 35.648 295.002 35.432 295.098 35.192C295.206 34.94 295.26 34.682 295.26 34.418ZM305.559 36.848H305.415C305.139 37.292 304.767 37.646 304.299 37.91C303.831 38.162 303.297 38.288 302.697 38.288C301.581 38.288 300.747 37.946 300.195 37.262C299.655 36.578 299.385 35.666 299.385 34.526V29.18H301.743V34.238C301.743 34.874 301.881 35.348 302.157 35.66C302.445 35.96 302.859 36.11 303.399 36.11C303.723 36.11 304.005 36.044 304.245 35.912C304.497 35.768 304.707 35.582 304.875 35.354C305.055 35.114 305.187 34.838 305.271 34.526C305.367 34.202 305.415 33.86 305.415 33.5V29.18H307.773V38H305.559V36.848ZM309.793 38V25.112H312.151V38H309.793ZM318.258 28.892C318.942 28.892 319.566 29.012 320.13 29.252C320.706 29.48 321.198 29.804 321.606 30.224C322.026 30.632 322.35 31.124 322.578 31.7C322.818 32.276 322.938 32.906 322.938 33.59C322.938 34.274 322.818 34.904 322.578 35.48C322.35 36.056 322.026 36.554 321.606 36.974C321.198 37.382 320.706 37.706 320.13 37.946C319.566 38.174 318.942 38.288 318.258 38.288C317.574 38.288 316.944 38.174 316.368 37.946C315.804 37.706 315.312 37.382 314.892 36.974C314.484 36.554 314.16 36.056 313.92 35.48C313.692 34.904 313.578 34.274 313.578 33.59C313.578 32.906 313.692 32.276 313.92 31.7C314.16 31.124 314.484 30.632 314.892 30.224C315.312 29.804 315.804 29.48 316.368 29.252C316.944 29.012 317.574 28.892 318.258 28.892ZM318.258 36.11C318.558 36.11 318.846 36.056 319.122 35.948C319.41 35.828 319.662 35.66 319.878 35.444C320.094 35.228 320.262 34.964 320.382 34.652C320.514 34.34 320.58 33.986 320.58 33.59C320.58 33.194 320.514 32.84 320.382 32.528C320.262 32.216 320.094 31.952 319.878 31.736C319.662 31.52 319.41 31.358 319.122 31.25C318.846 31.13 318.558 31.07 318.258 31.07C317.946 31.07 317.652 31.13 317.376 31.25C317.1 31.358 316.854 31.52 316.638 31.736C316.422 31.952 316.248 32.216 316.116 32.528C315.996 32.84 315.936 33.194 315.936 33.59C315.936 33.986 315.996 34.34 316.116 34.652C316.248 34.964 316.422 35.228 316.638 35.444C316.854 35.66 317.1 35.828 317.376 35.948C317.652 36.056 317.946 36.11 318.258 36.11Z" fill="#474747" fill-opacity="0.72"/>
<defs>
<clipPath id="clip0_558_15">
<rect width="33" height="33" fill="white" transform="translate(22.8799 16)"/>
</clipPath>
</defs>
</svg>
