<svg width="823" height="65" viewBox="0 0 823 65" fill="none" xmlns="http://www.w3.org/2000/svg">
<rect width="823" height="65" rx="32.5" fill="#D9D9D9" fill-opacity="0.53"/>
<g clip-path="url(#clip0_113_2899)">
<path fill-rule="evenodd" clip-rule="evenodd" d="M36.4375 18.75C34.5738 18.7502 32.7372 19.196 31.0808 20.0503C29.4245 20.9047 27.9965 22.1427 26.9159 23.6612C25.8354 25.1796 25.1336 26.9345 24.8692 28.7793C24.6048 30.6241 24.7854 32.5055 25.3959 34.2663C26.0065 36.0271 27.0292 37.6164 28.3789 38.9016C29.7286 40.1868 31.3661 41.1306 33.1547 41.6542C34.9433 42.1778 36.8312 42.2661 38.6609 41.9118C40.4906 41.5574 42.209 40.7706 43.6727 39.617L48.6942 44.6385C48.9536 44.889 49.3009 45.0276 49.6614 45.0244C50.0219 45.0213 50.3668 44.8767 50.6217 44.6218C50.8767 44.3668 51.0213 44.0219 51.0244 43.6614C51.0275 43.3009 50.8889 42.9536 50.6385 42.6942L45.617 37.6728C46.9755 35.9494 47.8213 33.8783 48.0577 31.6966C48.2942 29.5149 47.9116 27.3108 46.9538 25.3364C45.996 23.362 44.5017 21.6971 42.6419 20.5323C40.7821 19.3675 38.6319 18.7499 36.4375 18.75ZM27.5 30.4375C27.5 28.0671 28.4416 25.7938 30.1177 24.1177C31.7938 22.4416 34.0671 21.5 36.4375 21.5C38.8079 21.5 41.0811 22.4416 42.7572 24.1177C44.4334 25.7938 45.375 28.0671 45.375 30.4375C45.375 32.8079 44.4334 35.0812 42.7572 36.7573C41.0811 38.4334 38.8079 39.375 36.4375 39.375C34.0671 39.375 31.7938 38.4334 30.1177 36.7573C28.4416 35.0812 27.5 32.8079 27.5 30.4375Z" fill="#474747" fill-opacity="0.62"/>
</g>
<path d="M73.8326 38.288C72.8726 38.288 71.9786 38.114 71.1506 37.766C70.3346 37.418 69.6266 36.944 69.0266 36.344C68.4266 35.732 67.9526 35.018 67.6046 34.202C67.2686 33.374 67.1006 32.492 67.1006 31.556C67.1006 30.62 67.2686 29.744 67.6046 28.928C67.9526 28.1 68.4266 27.386 69.0266 26.786C69.6266 26.174 70.3346 25.694 71.1506 25.346C71.9786 24.998 72.8726 24.824 73.8326 24.824C74.7926 24.824 75.6806 24.998 76.4966 25.346C77.3246 25.694 78.0386 26.174 78.6386 26.786C79.2386 27.386 79.7066 28.1 80.0426 28.928C80.3906 29.744 80.5646 30.62 80.5646 31.556C80.5646 32.492 80.3906 33.374 80.0426 34.202C79.7066 35.018 79.2386 35.732 78.6386 36.344C78.0386 36.944 77.3246 37.418 76.4966 37.766C75.6806 38.114 74.7926 38.288 73.8326 38.288ZM73.8326 35.984C74.4326 35.984 74.9906 35.876 75.5066 35.66C76.0346 35.444 76.4906 35.144 76.8746 34.76C77.2706 34.376 77.5766 33.914 77.7926 33.374C78.0206 32.822 78.1346 32.216 78.1346 31.556C78.1346 30.896 78.0206 30.296 77.7926 29.756C77.5766 29.204 77.2706 28.736 76.8746 28.352C76.4906 27.968 76.0346 27.668 75.5066 27.452C74.9906 27.236 74.4326 27.128 73.8326 27.128C73.2326 27.128 72.6686 27.236 72.1406 27.452C71.6246 27.668 71.1686 27.968 70.7726 28.352C70.3886 28.736 70.0826 29.204 69.8546 29.756C69.6386 30.296 69.5306 30.896 69.5306 31.556C69.5306 32.216 69.6386 32.822 69.8546 33.374C70.0826 33.914 70.3886 34.376 70.7726 34.76C71.1686 35.144 71.6246 35.444 72.1406 35.66C72.6686 35.876 73.2326 35.984 73.8326 35.984ZM85.6094 38H83.2514V31.196H81.6674V29.18H83.2514V28.316C83.2514 27.776 83.3294 27.302 83.4854 26.894C83.6534 26.474 83.8874 26.126 84.1874 25.85C84.4874 25.562 84.8414 25.346 85.2494 25.202C85.6574 25.046 86.1074 24.968 86.5994 24.968C86.8394 24.968 87.0314 24.98 87.1754 25.004C87.3194 25.028 87.4574 25.064 87.5894 25.112L87.4454 27.326C87.3614 27.29 87.2654 27.26 87.1574 27.236C87.0494 27.212 86.9114 27.2 86.7434 27.2C86.3954 27.2 86.1194 27.314 85.9154 27.542C85.7114 27.758 85.6094 28.064 85.6094 28.46V29.18H91.2974V38H88.9394V31.196H85.6094V38ZM90.1094 27.902C89.9054 27.902 89.7074 27.866 89.5154 27.794C89.3354 27.71 89.1734 27.602 89.0294 27.47C88.8974 27.326 88.7894 27.164 88.7054 26.984C88.6334 26.804 88.5974 26.606 88.5974 26.39C88.5974 26.174 88.6334 25.976 88.7054 25.796C88.7894 25.616 88.8974 25.46 89.0294 25.328C89.1734 25.184 89.3354 25.076 89.5154 25.004C89.7074 24.92 89.9054 24.878 90.1094 24.878C90.5294 24.878 90.8894 25.028 91.1894 25.328C91.4894 25.616 91.6394 25.97 91.6394 26.39C91.6394 26.81 91.4894 27.17 91.1894 27.47C90.8894 27.758 90.5294 27.902 90.1094 27.902ZM101.74 35.75C101.356 36.494 100.816 37.106 100.12 37.586C99.4363 38.054 98.5783 38.288 97.5463 38.288C96.8623 38.288 96.2323 38.174 95.6563 37.946C95.0923 37.706 94.6003 37.376 94.1803 36.956C93.7723 36.536 93.4483 36.044 93.2083 35.48C92.9803 34.904 92.8663 34.274 92.8663 33.59C92.8663 32.906 92.9803 32.276 93.2083 31.7C93.4483 31.124 93.7723 30.632 94.1803 30.224C94.6003 29.804 95.0923 29.48 95.6563 29.252C96.2323 29.012 96.8623 28.892 97.5463 28.892C98.5663 28.892 99.4243 29.126 100.12 29.594C100.816 30.062 101.326 30.668 101.65 31.412L99.4903 32.312C99.2863 31.904 99.0223 31.598 98.6983 31.394C98.3863 31.178 97.9903 31.07 97.5103 31.07C97.1983 31.07 96.9043 31.13 96.6283 31.25C96.3523 31.37 96.1063 31.538 95.8903 31.754C95.6863 31.97 95.5243 32.234 95.4043 32.546C95.2843 32.858 95.2243 33.206 95.2243 33.59C95.2243 33.974 95.2843 34.322 95.4043 34.634C95.5243 34.946 95.6863 35.21 95.8903 35.426C96.1063 35.642 96.3523 35.81 96.6283 35.93C96.9043 36.05 97.1983 36.11 97.5103 36.11C98.0023 36.11 98.4163 36.002 98.7523 35.786C99.1003 35.558 99.3763 35.234 99.5803 34.814L101.74 35.75ZM104.493 27.902C104.289 27.902 104.091 27.866 103.899 27.794C103.719 27.71 103.557 27.602 103.413 27.47C103.281 27.326 103.173 27.164 103.089 26.984C103.017 26.804 102.981 26.606 102.981 26.39C102.981 26.174 103.017 25.976 103.089 25.796C103.173 25.616 103.281 25.46 103.413 25.328C103.557 25.184 103.719 25.076 103.899 25.004C104.091 24.92 104.289 24.878 104.493 24.878C104.913 24.878 105.273 25.028 105.573 25.328C105.873 25.616 106.023 25.97 106.023 26.39C106.023 26.81 105.873 27.17 105.573 27.47C105.273 27.758 104.913 27.902 104.493 27.902ZM103.323 38V29.18H105.681V38H103.323ZM110.051 30.332H110.195C110.471 29.888 110.843 29.54 111.311 29.288C111.779 29.024 112.313 28.892 112.913 28.892C113.465 28.892 113.951 28.982 114.371 29.162C114.791 29.342 115.133 29.6 115.397 29.936C115.673 30.26 115.877 30.656 116.009 31.124C116.153 31.58 116.225 32.09 116.225 32.654V38H113.867V32.942C113.867 32.306 113.723 31.838 113.435 31.538C113.159 31.226 112.751 31.07 112.211 31.07C111.887 31.07 111.599 31.142 111.347 31.286C111.107 31.418 110.897 31.604 110.717 31.844C110.549 32.072 110.417 32.348 110.321 32.672C110.237 32.984 110.195 33.32 110.195 33.68V38H107.837V29.18H110.051V30.332ZM123.521 37.064H123.377C123.101 37.4 122.765 37.688 122.369 37.928C121.985 38.168 121.487 38.288 120.875 38.288C120.419 38.288 119.987 38.21 119.579 38.054C119.183 37.91 118.835 37.706 118.535 37.442C118.235 37.178 118.001 36.86 117.833 36.488C117.665 36.116 117.581 35.708 117.581 35.264C117.581 34.808 117.671 34.4 117.851 34.04C118.031 33.668 118.283 33.35 118.607 33.086C118.931 32.822 119.309 32.624 119.741 32.492C120.185 32.348 120.665 32.276 121.181 32.276C121.757 32.276 122.231 32.324 122.603 32.42C122.975 32.504 123.281 32.594 123.521 32.69V32.42C123.521 31.952 123.335 31.568 122.963 31.268C122.591 30.956 122.129 30.8 121.577 30.8C120.761 30.8 120.071 31.142 119.507 31.826L117.797 30.656C118.733 29.48 120.011 28.892 121.631 28.892C122.999 28.892 124.043 29.216 124.763 29.864C125.483 30.5 125.843 31.448 125.843 32.708V38H123.521V37.064ZM123.521 34.418C123.245 34.286 122.957 34.184 122.657 34.112C122.369 34.028 122.051 33.986 121.703 33.986C121.139 33.986 120.701 34.112 120.389 34.364C120.089 34.604 119.939 34.904 119.939 35.264C119.939 35.624 120.083 35.912 120.371 36.128C120.671 36.344 121.013 36.452 121.397 36.452C121.709 36.452 121.997 36.398 122.261 36.29C122.525 36.17 122.747 36.02 122.927 35.84C123.119 35.648 123.263 35.432 123.359 35.192C123.467 34.94 123.521 34.682 123.521 34.418ZM131.673 29.18H133.887V30.332H134.031C134.307 29.9 134.679 29.552 135.147 29.288C135.627 29.024 136.155 28.892 136.731 28.892C137.403 28.892 137.967 29.048 138.423 29.36C138.879 29.672 139.203 30.056 139.395 30.512C139.671 30.068 140.061 29.69 140.565 29.378C141.069 29.054 141.681 28.892 142.401 28.892C142.941 28.892 143.409 28.982 143.805 29.162C144.201 29.33 144.525 29.57 144.777 29.882C145.041 30.194 145.239 30.572 145.371 31.016C145.503 31.448 145.569 31.922 145.569 32.438V38H143.211V32.87C143.211 31.67 142.719 31.07 141.735 31.07C141.423 31.07 141.147 31.142 140.907 31.286C140.667 31.418 140.463 31.604 140.295 31.844C140.139 32.072 140.013 32.348 139.917 32.672C139.833 32.996 139.791 33.344 139.791 33.716V38H137.433V32.87C137.433 31.67 136.917 31.07 135.885 31.07C135.585 31.07 135.321 31.142 135.093 31.286C134.865 31.418 134.673 31.604 134.517 31.844C134.361 32.072 134.241 32.348 134.157 32.672C134.073 32.996 134.031 33.344 134.031 33.716V38H131.673V29.18ZM155.863 35.876C155.455 36.596 154.903 37.178 154.207 37.622C153.523 38.066 152.683 38.288 151.687 38.288C151.015 38.288 150.391 38.174 149.815 37.946C149.251 37.706 148.759 37.376 148.339 36.956C147.919 36.536 147.589 36.044 147.349 35.48C147.121 34.904 147.007 34.274 147.007 33.59C147.007 32.954 147.121 32.354 147.349 31.79C147.577 31.214 147.895 30.716 148.303 30.296C148.711 29.864 149.191 29.522 149.743 29.27C150.307 29.018 150.925 28.892 151.597 28.892C152.305 28.892 152.935 29.012 153.487 29.252C154.039 29.48 154.501 29.804 154.873 30.224C155.245 30.632 155.527 31.118 155.719 31.682C155.911 32.246 156.007 32.858 156.007 33.518C156.007 33.602 156.007 33.674 156.007 33.734C155.995 33.806 155.989 33.872 155.989 33.932C155.977 33.992 155.971 34.058 155.971 34.13H149.329C149.377 34.49 149.473 34.802 149.617 35.066C149.773 35.318 149.959 35.534 150.175 35.714C150.403 35.882 150.649 36.008 150.913 36.092C151.177 36.164 151.447 36.2 151.723 36.2C152.263 36.2 152.707 36.08 153.055 35.84C153.415 35.588 153.697 35.276 153.901 34.904L155.863 35.876ZM153.721 32.456C153.709 32.3 153.655 32.126 153.559 31.934C153.475 31.742 153.343 31.562 153.163 31.394C152.995 31.226 152.779 31.088 152.515 30.98C152.263 30.872 151.957 30.818 151.597 30.818C151.093 30.818 150.649 30.962 150.265 31.25C149.881 31.538 149.611 31.94 149.455 32.456H153.721ZM165.971 35.75C165.587 36.494 165.047 37.106 164.351 37.586C163.667 38.054 162.809 38.288 161.777 38.288C161.093 38.288 160.463 38.174 159.887 37.946C159.323 37.706 158.831 37.376 158.411 36.956C158.003 36.536 157.679 36.044 157.439 35.48C157.211 34.904 157.097 34.274 157.097 33.59C157.097 32.906 157.211 32.276 157.439 31.7C157.679 31.124 158.003 30.632 158.411 30.224C158.831 29.804 159.323 29.48 159.887 29.252C160.463 29.012 161.093 28.892 161.777 28.892C162.797 28.892 163.655 29.126 164.351 29.594C165.047 30.062 165.557 30.668 165.881 31.412L163.721 32.312C163.517 31.904 163.253 31.598 162.929 31.394C162.617 31.178 162.221 31.07 161.741 31.07C161.429 31.07 161.135 31.13 160.859 31.25C160.583 31.37 160.337 31.538 160.121 31.754C159.917 31.97 159.755 32.234 159.635 32.546C159.515 32.858 159.455 33.206 159.455 33.59C159.455 33.974 159.515 34.322 159.635 34.634C159.755 34.946 159.917 35.21 160.121 35.426C160.337 35.642 160.583 35.81 160.859 35.93C161.135 36.05 161.429 36.11 161.741 36.11C162.233 36.11 162.647 36.002 162.983 35.786C163.331 35.558 163.607 35.234 163.811 34.814L165.971 35.75ZM172.757 37.064H172.613C172.337 37.4 172.001 37.688 171.605 37.928C171.221 38.168 170.723 38.288 170.111 38.288C169.655 38.288 169.223 38.21 168.815 38.054C168.419 37.91 168.071 37.706 167.771 37.442C167.471 37.178 167.237 36.86 167.069 36.488C166.901 36.116 166.817 35.708 166.817 35.264C166.817 34.808 166.907 34.4 167.087 34.04C167.267 33.668 167.519 33.35 167.843 33.086C168.167 32.822 168.545 32.624 168.977 32.492C169.421 32.348 169.901 32.276 170.417 32.276C170.993 32.276 171.467 32.324 171.839 32.42C172.211 32.504 172.517 32.594 172.757 32.69V32.42C172.757 31.952 172.571 31.568 172.199 31.268C171.827 30.956 171.365 30.8 170.813 30.8C169.997 30.8 169.307 31.142 168.743 31.826L167.033 30.656C167.969 29.48 169.247 28.892 170.867 28.892C172.235 28.892 173.279 29.216 173.999 29.864C174.719 30.5 175.079 31.448 175.079 32.708V38H172.757V37.064ZM172.757 34.418C172.481 34.286 172.193 34.184 171.893 34.112C171.605 34.028 171.287 33.986 170.939 33.986C170.375 33.986 169.937 34.112 169.625 34.364C169.325 34.604 169.175 34.904 169.175 35.264C169.175 35.624 169.319 35.912 169.607 36.128C169.907 36.344 170.249 36.452 170.633 36.452C170.945 36.452 171.233 36.398 171.497 36.29C171.761 36.17 171.983 36.02 172.163 35.84C172.355 35.648 172.499 35.432 172.595 35.192C172.703 34.94 172.757 34.682 172.757 34.418ZM167.933 27.38L169.985 25.112H172.037L174.089 27.38V27.524H171.839L171.119 26.462H170.903L170.183 27.524H167.933V27.38ZM179.168 30.332H179.312C179.588 29.888 179.96 29.54 180.428 29.288C180.896 29.024 181.43 28.892 182.03 28.892C182.582 28.892 183.068 28.982 183.488 29.162C183.908 29.342 184.25 29.6 184.514 29.936C184.79 30.26 184.994 30.656 185.126 31.124C185.27 31.58 185.342 32.09 185.342 32.654V38H182.984V32.942C182.984 32.306 182.84 31.838 182.552 31.538C182.276 31.226 181.868 31.07 181.328 31.07C181.004 31.07 180.716 31.142 180.464 31.286C180.224 31.418 180.014 31.604 179.834 31.844C179.666 32.072 179.534 32.348 179.438 32.672C179.354 32.984 179.312 33.32 179.312 33.68V38H176.954V29.18H179.168V30.332ZM188.604 27.902C188.4 27.902 188.202 27.866 188.01 27.794C187.83 27.71 187.668 27.602 187.524 27.47C187.392 27.326 187.284 27.164 187.2 26.984C187.128 26.804 187.092 26.606 187.092 26.39C187.092 26.174 187.128 25.976 187.2 25.796C187.284 25.616 187.392 25.46 187.524 25.328C187.668 25.184 187.83 25.076 188.01 25.004C188.202 24.92 188.4 24.878 188.604 24.878C189.024 24.878 189.384 25.028 189.684 25.328C189.984 25.616 190.134 25.97 190.134 26.39C190.134 26.81 189.984 27.17 189.684 27.47C189.384 27.758 189.024 27.902 188.604 27.902ZM187.434 38V29.18H189.792V38H187.434ZM200.231 35.75C199.847 36.494 199.307 37.106 198.611 37.586C197.927 38.054 197.069 38.288 196.037 38.288C195.353 38.288 194.723 38.174 194.147 37.946C193.583 37.706 193.091 37.376 192.671 36.956C192.263 36.536 191.939 36.044 191.699 35.48C191.471 34.904 191.357 34.274 191.357 33.59C191.357 32.906 191.471 32.276 191.699 31.7C191.939 31.124 192.263 30.632 192.671 30.224C193.091 29.804 193.583 29.48 194.147 29.252C194.723 29.012 195.353 28.892 196.037 28.892C197.057 28.892 197.915 29.126 198.611 29.594C199.307 30.062 199.817 30.668 200.141 31.412L197.981 32.312C197.777 31.904 197.513 31.598 197.189 31.394C196.877 31.178 196.481 31.07 196.001 31.07C195.689 31.07 195.395 31.13 195.119 31.25C194.843 31.37 194.597 31.538 194.381 31.754C194.177 31.97 194.015 32.234 193.895 32.546C193.775 32.858 193.715 33.206 193.715 33.59C193.715 33.974 193.775 34.322 193.895 34.634C194.015 34.946 194.177 35.21 194.381 35.426C194.597 35.642 194.843 35.81 195.119 35.93C195.395 36.05 195.689 36.11 196.001 36.11C196.493 36.11 196.907 36.002 197.243 35.786C197.591 35.558 197.867 35.234 198.071 34.814L200.231 35.75ZM207.017 37.064H206.873C206.597 37.4 206.261 37.688 205.865 37.928C205.481 38.168 204.983 38.288 204.371 38.288C203.915 38.288 203.483 38.21 203.075 38.054C202.679 37.91 202.331 37.706 202.031 37.442C201.731 37.178 201.497 36.86 201.329 36.488C201.161 36.116 201.077 35.708 201.077 35.264C201.077 34.808 201.167 34.4 201.347 34.04C201.527 33.668 201.779 33.35 202.103 33.086C202.427 32.822 202.805 32.624 203.237 32.492C203.681 32.348 204.161 32.276 204.677 32.276C205.253 32.276 205.727 32.324 206.099 32.42C206.471 32.504 206.777 32.594 207.017 32.69V32.42C207.017 31.952 206.831 31.568 206.459 31.268C206.087 30.956 205.625 30.8 205.073 30.8C204.257 30.8 203.567 31.142 203.003 31.826L201.293 30.656C202.229 29.48 203.507 28.892 205.127 28.892C206.495 28.892 207.539 29.216 208.259 29.864C208.979 30.5 209.339 31.448 209.339 32.708V38H207.017V37.064ZM207.017 34.418C206.741 34.286 206.453 34.184 206.153 34.112C205.865 34.028 205.547 33.986 205.199 33.986C204.635 33.986 204.197 34.112 203.885 34.364C203.585 34.604 203.435 34.904 203.435 35.264C203.435 35.624 203.579 35.912 203.867 36.128C204.167 36.344 204.509 36.452 204.893 36.452C205.205 36.452 205.493 36.398 205.757 36.29C206.021 36.17 206.243 36.02 206.423 35.84C206.615 35.648 206.759 35.432 206.855 35.192C206.963 34.94 207.017 34.682 207.017 34.418ZM223.521 35.876C223.113 36.596 222.561 37.178 221.865 37.622C221.181 38.066 220.341 38.288 219.345 38.288C218.673 38.288 218.049 38.174 217.473 37.946C216.909 37.706 216.417 37.376 215.997 36.956C215.577 36.536 215.247 36.044 215.007 35.48C214.779 34.904 214.665 34.274 214.665 33.59C214.665 32.954 214.779 32.354 215.007 31.79C215.235 31.214 215.553 30.716 215.961 30.296C216.369 29.864 216.849 29.522 217.401 29.27C217.965 29.018 218.583 28.892 219.255 28.892C219.963 28.892 220.593 29.012 221.145 29.252C221.697 29.48 222.159 29.804 222.531 30.224C222.903 30.632 223.185 31.118 223.377 31.682C223.569 32.246 223.665 32.858 223.665 33.518C223.665 33.602 223.665 33.674 223.665 33.734C223.653 33.806 223.647 33.872 223.647 33.932C223.635 33.992 223.629 34.058 223.629 34.13H216.987C217.035 34.49 217.131 34.802 217.275 35.066C217.431 35.318 217.617 35.534 217.833 35.714C218.061 35.882 218.307 36.008 218.571 36.092C218.835 36.164 219.105 36.2 219.381 36.2C219.921 36.2 220.365 36.08 220.713 35.84C221.073 35.588 221.355 35.276 221.559 34.904L223.521 35.876ZM221.379 32.456C221.367 32.3 221.313 32.126 221.217 31.934C221.133 31.742 221.001 31.562 220.821 31.394C220.653 31.226 220.437 31.088 220.173 30.98C219.921 30.872 219.615 30.818 219.255 30.818C218.751 30.818 218.307 30.962 217.923 31.25C217.539 31.538 217.269 31.94 217.113 32.456H221.379ZM225.171 29.18H227.385V30.332H227.529C227.805 29.9 228.177 29.552 228.645 29.288C229.125 29.024 229.653 28.892 230.229 28.892C230.901 28.892 231.465 29.048 231.921 29.36C232.377 29.672 232.701 30.056 232.893 30.512C233.169 30.068 233.559 29.69 234.063 29.378C234.567 29.054 235.179 28.892 235.899 28.892C236.439 28.892 236.907 28.982 237.303 29.162C237.699 29.33 238.023 29.57 238.275 29.882C238.539 30.194 238.737 30.572 238.869 31.016C239.001 31.448 239.067 31.922 239.067 32.438V38H236.709V32.87C236.709 31.67 236.217 31.07 235.233 31.07C234.921 31.07 234.645 31.142 234.405 31.286C234.165 31.418 233.961 31.604 233.793 31.844C233.637 32.072 233.511 32.348 233.415 32.672C233.331 32.996 233.289 33.344 233.289 33.716V38H230.931V32.87C230.931 31.67 230.415 31.07 229.383 31.07C229.083 31.07 228.819 31.142 228.591 31.286C228.363 31.418 228.171 31.604 228.015 31.844C227.859 32.072 227.739 32.348 227.655 32.672C227.571 32.996 227.529 33.344 227.529 33.716V38H225.171V29.18ZM248.649 38.288C248.097 38.288 247.569 38.21 247.065 38.054C246.561 37.898 246.099 37.664 245.679 37.352C245.259 37.04 244.893 36.662 244.581 36.218C244.269 35.762 244.023 35.234 243.843 34.634L246.129 33.734C246.297 34.382 246.591 34.922 247.011 35.354C247.431 35.774 247.983 35.984 248.667 35.984C248.919 35.984 249.159 35.954 249.387 35.894C249.627 35.822 249.837 35.726 250.017 35.606C250.209 35.474 250.359 35.312 250.467 35.12C250.575 34.928 250.629 34.706 250.629 34.454C250.629 34.214 250.587 33.998 250.503 33.806C250.419 33.614 250.275 33.434 250.071 33.266C249.879 33.098 249.621 32.936 249.297 32.78C248.985 32.624 248.595 32.462 248.127 32.294L247.335 32.006C246.987 31.886 246.633 31.724 246.273 31.52C245.925 31.316 245.607 31.07 245.319 30.782C245.031 30.494 244.791 30.158 244.599 29.774C244.419 29.378 244.329 28.934 244.329 28.442C244.329 27.938 244.425 27.47 244.617 27.038C244.821 26.594 245.103 26.21 245.463 25.886C245.835 25.55 246.273 25.292 246.777 25.112C247.293 24.92 247.863 24.824 248.487 24.824C249.135 24.824 249.693 24.914 250.161 25.094C250.641 25.262 251.043 25.484 251.367 25.76C251.703 26.024 251.973 26.318 252.177 26.642C252.381 26.966 252.531 27.272 252.627 27.56L250.485 28.46C250.365 28.1 250.143 27.776 249.819 27.488C249.507 27.2 249.075 27.056 248.523 27.056C247.995 27.056 247.557 27.182 247.209 27.434C246.861 27.674 246.687 27.992 246.687 28.388C246.687 28.772 246.855 29.102 247.191 29.378C247.527 29.642 248.061 29.9 248.793 30.152L249.603 30.422C250.119 30.602 250.587 30.812 251.007 31.052C251.439 31.28 251.805 31.556 252.105 31.88C252.417 32.204 252.651 32.576 252.807 32.996C252.975 33.404 253.059 33.878 253.059 34.418C253.059 35.09 252.921 35.672 252.645 36.164C252.381 36.644 252.039 37.04 251.619 37.352C251.199 37.664 250.725 37.898 250.197 38.054C249.669 38.21 249.153 38.288 248.649 38.288ZM260.209 37.064H260.065C259.789 37.4 259.453 37.688 259.057 37.928C258.673 38.168 258.175 38.288 257.563 38.288C257.107 38.288 256.675 38.21 256.267 38.054C255.871 37.91 255.523 37.706 255.223 37.442C254.923 37.178 254.689 36.86 254.521 36.488C254.353 36.116 254.269 35.708 254.269 35.264C254.269 34.808 254.359 34.4 254.539 34.04C254.719 33.668 254.971 33.35 255.295 33.086C255.619 32.822 255.997 32.624 256.429 32.492C256.873 32.348 257.353 32.276 257.869 32.276C258.445 32.276 258.919 32.324 259.291 32.42C259.663 32.504 259.969 32.594 260.209 32.69V32.42C260.209 31.952 260.023 31.568 259.651 31.268C259.279 30.956 258.817 30.8 258.265 30.8C257.449 30.8 256.759 31.142 256.195 31.826L254.485 30.656C255.421 29.48 256.699 28.892 258.319 28.892C259.687 28.892 260.731 29.216 261.451 29.864C262.171 30.5 262.531 31.448 262.531 32.708V38H260.209V37.064ZM260.209 34.418C259.933 34.286 259.645 34.184 259.345 34.112C259.057 34.028 258.739 33.986 258.391 33.986C257.827 33.986 257.389 34.112 257.077 34.364C256.777 34.604 256.627 34.904 256.627 35.264C256.627 35.624 256.771 35.912 257.059 36.128C257.359 36.344 257.701 36.452 258.085 36.452C258.397 36.452 258.685 36.398 258.949 36.29C259.213 36.17 259.435 36.02 259.615 35.84C259.807 35.648 259.951 35.432 260.047 35.192C260.155 34.94 260.209 34.682 260.209 34.418ZM259.741 27.416C259.489 27.416 259.255 27.38 259.039 27.308C258.823 27.224 258.625 27.128 258.445 27.02C258.265 26.924 258.103 26.84 257.959 26.768C257.815 26.684 257.689 26.642 257.581 26.642C257.281 26.642 257.125 26.816 257.113 27.164H255.457C255.457 26.768 255.511 26.426 255.619 26.138C255.739 25.85 255.895 25.616 256.087 25.436C256.291 25.244 256.513 25.1 256.753 25.004C257.005 24.908 257.269 24.86 257.545 24.86C257.797 24.86 258.031 24.902 258.247 24.986C258.475 25.058 258.679 25.142 258.859 25.238C259.039 25.346 259.201 25.442 259.345 25.526C259.489 25.598 259.609 25.634 259.705 25.634C259.993 25.634 260.155 25.46 260.191 25.112H261.847C261.847 25.508 261.787 25.85 261.667 26.138C261.547 26.426 261.391 26.666 261.199 26.858C261.007 27.038 260.779 27.176 260.515 27.272C260.263 27.368 260.005 27.416 259.741 27.416ZM268.494 28.892C269.178 28.892 269.802 29.012 270.366 29.252C270.942 29.48 271.434 29.804 271.842 30.224C272.262 30.632 272.586 31.124 272.814 31.7C273.054 32.276 273.174 32.906 273.174 33.59C273.174 34.274 273.054 34.904 272.814 35.48C272.586 36.056 272.262 36.554 271.842 36.974C271.434 37.382 270.942 37.706 270.366 37.946C269.802 38.174 269.178 38.288 268.494 38.288C267.81 38.288 267.18 38.174 266.604 37.946C266.04 37.706 265.548 37.382 265.128 36.974C264.72 36.554 264.396 36.056 264.156 35.48C263.928 34.904 263.814 34.274 263.814 33.59C263.814 32.906 263.928 32.276 264.156 31.7C264.396 31.124 264.72 30.632 265.128 30.224C265.548 29.804 266.04 29.48 266.604 29.252C267.18 29.012 267.81 28.892 268.494 28.892ZM268.494 36.11C268.794 36.11 269.082 36.056 269.358 35.948C269.646 35.828 269.898 35.66 270.114 35.444C270.33 35.228 270.498 34.964 270.618 34.652C270.75 34.34 270.816 33.986 270.816 33.59C270.816 33.194 270.75 32.84 270.618 32.528C270.498 32.216 270.33 31.952 270.114 31.736C269.898 31.52 269.646 31.358 269.358 31.25C269.082 31.13 268.794 31.07 268.494 31.07C268.182 31.07 267.888 31.13 267.612 31.25C267.336 31.358 267.09 31.52 266.874 31.736C266.658 31.952 266.484 32.216 266.352 32.528C266.232 32.84 266.172 33.194 266.172 33.59C266.172 33.986 266.232 34.34 266.352 34.652C266.484 34.964 266.658 35.228 266.874 35.444C267.09 35.66 267.336 35.828 267.612 35.948C267.888 36.056 268.182 36.11 268.494 36.11ZM278.932 38V25.112H283.468C284.08 25.112 284.65 25.214 285.178 25.418C285.718 25.61 286.186 25.886 286.582 26.246C286.978 26.606 287.29 27.038 287.518 27.542C287.746 28.034 287.86 28.58 287.86 29.18C287.86 29.792 287.746 30.35 287.518 30.854C287.29 31.346 286.978 31.772 286.582 32.132C286.186 32.492 285.718 32.774 285.178 32.978C284.65 33.17 284.08 33.266 283.468 33.266H281.362V38H278.932ZM283.504 30.962C284.14 30.962 284.62 30.782 284.944 30.422C285.268 30.062 285.43 29.648 285.43 29.18C285.43 28.952 285.388 28.73 285.304 28.514C285.232 28.298 285.112 28.112 284.944 27.956C284.788 27.788 284.59 27.656 284.35 27.56C284.11 27.464 283.828 27.416 283.504 27.416H281.362V30.962H283.504ZM294.381 37.064H294.237C293.961 37.4 293.625 37.688 293.229 37.928C292.845 38.168 292.347 38.288 291.735 38.288C291.279 38.288 290.847 38.21 290.439 38.054C290.043 37.91 289.695 37.706 289.395 37.442C289.095 37.178 288.861 36.86 288.693 36.488C288.525 36.116 288.441 35.708 288.441 35.264C288.441 34.808 288.531 34.4 288.711 34.04C288.891 33.668 289.143 33.35 289.467 33.086C289.791 32.822 290.169 32.624 290.601 32.492C291.045 32.348 291.525 32.276 292.041 32.276C292.617 32.276 293.091 32.324 293.463 32.42C293.835 32.504 294.141 32.594 294.381 32.69V32.42C294.381 31.952 294.195 31.568 293.823 31.268C293.451 30.956 292.989 30.8 292.437 30.8C291.621 30.8 290.931 31.142 290.367 31.826L288.657 30.656C289.593 29.48 290.871 28.892 292.491 28.892C293.859 28.892 294.903 29.216 295.623 29.864C296.343 30.5 296.703 31.448 296.703 32.708V38H294.381V37.064ZM294.381 34.418C294.105 34.286 293.817 34.184 293.517 34.112C293.229 34.028 292.911 33.986 292.563 33.986C291.999 33.986 291.561 34.112 291.249 34.364C290.949 34.604 290.799 34.904 290.799 35.264C290.799 35.624 290.943 35.912 291.231 36.128C291.531 36.344 291.873 36.452 292.257 36.452C292.569 36.452 292.857 36.398 293.121 36.29C293.385 36.17 293.607 36.02 293.787 35.84C293.979 35.648 294.123 35.432 294.219 35.192C294.327 34.94 294.381 34.682 294.381 34.418ZM304.679 36.848H304.535C304.259 37.292 303.887 37.646 303.419 37.91C302.951 38.162 302.417 38.288 301.817 38.288C300.701 38.288 299.867 37.946 299.315 37.262C298.775 36.578 298.505 35.666 298.505 34.526V29.18H300.863V34.238C300.863 34.874 301.001 35.348 301.277 35.66C301.565 35.96 301.979 36.11 302.519 36.11C302.843 36.11 303.125 36.044 303.365 35.912C303.617 35.768 303.827 35.582 303.995 35.354C304.175 35.114 304.307 34.838 304.391 34.526C304.487 34.202 304.535 33.86 304.535 33.5V29.18H306.893V38H304.679V36.848ZM308.913 38V25.112H311.271V38H308.913ZM317.378 28.892C318.062 28.892 318.686 29.012 319.25 29.252C319.826 29.48 320.318 29.804 320.726 30.224C321.146 30.632 321.47 31.124 321.698 31.7C321.938 32.276 322.058 32.906 322.058 33.59C322.058 34.274 321.938 34.904 321.698 35.48C321.47 36.056 321.146 36.554 320.726 36.974C320.318 37.382 319.826 37.706 319.25 37.946C318.686 38.174 318.062 38.288 317.378 38.288C316.694 38.288 316.064 38.174 315.488 37.946C314.924 37.706 314.432 37.382 314.012 36.974C313.604 36.554 313.28 36.056 313.04 35.48C312.812 34.904 312.698 34.274 312.698 33.59C312.698 32.906 312.812 32.276 313.04 31.7C313.28 31.124 313.604 30.632 314.012 30.224C314.432 29.804 314.924 29.48 315.488 29.252C316.064 29.012 316.694 28.892 317.378 28.892ZM317.378 36.11C317.678 36.11 317.966 36.056 318.242 35.948C318.53 35.828 318.782 35.66 318.998 35.444C319.214 35.228 319.382 34.964 319.502 34.652C319.634 34.34 319.7 33.986 319.7 33.59C319.7 33.194 319.634 32.84 319.502 32.528C319.382 32.216 319.214 31.952 318.998 31.736C318.782 31.52 318.53 31.358 318.242 31.25C317.966 31.13 317.678 31.07 317.378 31.07C317.066 31.07 316.772 31.13 316.496 31.25C316.22 31.358 315.974 31.52 315.758 31.736C315.542 31.952 315.368 32.216 315.236 32.528C315.116 32.84 315.056 33.194 315.056 33.59C315.056 33.986 315.116 34.34 315.236 34.652C315.368 34.964 315.542 35.228 315.758 35.444C315.974 35.66 316.22 35.828 316.496 35.948C316.772 36.056 317.066 36.11 317.378 36.11Z" fill="#474747" fill-opacity="0.72"/>
<defs>
<clipPath id="clip0_113_2899">
<rect width="33" height="33" fill="white" transform="translate(22 16)"/>
</clipPath>
</defs>
</svg>
