<svg width="173" height="47" viewBox="0 0 173 47" fill="none" xmlns="http://www.w3.org/2000/svg">
<path d="M0 23.5C0 10.5213 10.5446 0 23.552 0H149.448C162.455 0 173 10.5213 173 23.5V23.5C173 36.4787 162.455 47 149.448 47H23.552C10.5446 47 0 36.4787 0 23.5V23.5Z" fill="#3B546C"/>
<path d="M87.5948 27.2184H87.5076C87.3406 27.4329 87.1373 27.6169 86.8976 27.7701C86.6652 27.9234 86.3638 28 85.9935 28C85.7175 28 85.4561 27.9502 85.2092 27.8506C84.9695 27.7586 84.7589 27.6284 84.5773 27.4598C84.3958 27.2912 84.2542 27.0881 84.1525 26.8506C84.0508 26.613 84 26.3525 84 26.069C84 25.7778 84.0545 25.5172 84.1634 25.2874C84.2723 25.0498 84.4248 24.8467 84.6209 24.6782C84.817 24.5096 85.0458 24.3831 85.3072 24.2989C85.5759 24.2069 85.8664 24.1609 86.1787 24.1609C86.5272 24.1609 86.8141 24.1916 87.0392 24.2529C87.2643 24.3065 87.4495 24.364 87.5948 24.4253V24.2529C87.5948 23.954 87.4822 23.7088 87.2571 23.5172C87.032 23.318 86.7524 23.2184 86.4183 23.2184C85.9245 23.2184 85.5069 23.4368 85.1656 23.8736L84.1307 23.1264C84.6972 22.3755 85.4706 22 86.451 22C87.2789 22 87.9107 22.2069 88.3464 22.6207C88.7821 23.0268 89 23.6322 89 24.4368V27.8161H87.5948V27.2184ZM87.5948 25.5287C87.4277 25.4444 87.2535 25.3793 87.0719 25.3333C86.8976 25.2797 86.7052 25.2529 86.4946 25.2529C86.1532 25.2529 85.8882 25.3333 85.6993 25.4943C85.5178 25.6475 85.427 25.8391 85.427 26.069C85.427 26.2989 85.5142 26.4828 85.6885 26.6207C85.87 26.7586 86.077 26.8276 86.3094 26.8276C86.4982 26.8276 86.6725 26.7931 86.8322 26.7241C86.992 26.6475 87.1264 26.5517 87.2353 26.4368C87.3515 26.3142 87.4386 26.1762 87.4967 26.023C87.5621 25.8621 87.5948 25.6973 87.5948 25.5287Z" fill="#F1EFE9"/>
<path d="M79 22.1667H80.7723V22.9762H80.8876C80.9741 22.8333 81.0893 22.7024 81.2334 22.5833C81.3775 22.4643 81.536 22.3611 81.7089 22.2738C81.8914 22.1865 82.0836 22.119 82.2853 22.0714C82.4966 22.0238 82.7032 22 82.9049 22C83.1547 22 83.366 22.0198 83.5389 22.0595C83.7214 22.0992 83.8751 22.1508 84 22.2143L83.4957 23.631C83.3804 23.5833 83.2507 23.5476 83.1066 23.5238C82.9721 23.4921 82.804 23.4762 82.6023 23.4762C82.3429 23.4762 82.1076 23.5198 81.8963 23.6071C81.6849 23.6865 81.5024 23.8016 81.3487 23.9524C81.2046 24.1032 81.0893 24.2817 81.0029 24.4881C80.926 24.6865 80.8876 24.9048 80.8876 25.1429V28H79V22.1667Z" fill="#F1EFE9"/>
<path d="M76.3137 27.2184H76.2092C76.0087 27.4329 75.7647 27.6169 75.4771 27.7701C75.1983 27.9234 74.8366 28 74.3922 28C74.061 28 73.7473 27.9502 73.451 27.8506C73.1634 27.7586 72.9107 27.6284 72.6928 27.4598C72.4749 27.2912 72.305 27.0881 72.183 26.8506C72.061 26.613 72 26.3525 72 26.069C72 25.7778 72.0654 25.5172 72.1961 25.2874C72.3268 25.0498 72.5098 24.8467 72.7451 24.6782C72.9804 24.5096 73.2549 24.3831 73.5686 24.2989C73.8911 24.2069 74.2397 24.1609 74.6144 24.1609C75.0327 24.1609 75.3769 24.1916 75.6471 24.2529C75.9172 24.3065 76.1394 24.364 76.3137 24.4253V24.2529C76.3137 23.954 76.1787 23.7088 75.9085 23.5172C75.6383 23.318 75.3028 23.2184 74.902 23.2184C74.3094 23.2184 73.8083 23.4368 73.3987 23.8736L72.1569 23.1264C72.8366 22.3755 73.7647 22 74.9412 22C75.9346 22 76.6928 22.2069 77.2157 22.6207C77.7386 23.0268 78 23.6322 78 24.4368V27.8161H76.3137V27.2184ZM76.3137 25.5287C76.1133 25.4444 75.9041 25.3793 75.6863 25.3333C75.4771 25.2797 75.2462 25.2529 74.9935 25.2529C74.5839 25.2529 74.2658 25.3333 74.0392 25.4943C73.8213 25.6475 73.7124 25.8391 73.7124 26.069C73.7124 26.2989 73.817 26.4828 74.0261 26.6207C74.244 26.7586 74.4924 26.8276 74.7712 26.8276C74.9978 26.8276 75.207 26.7931 75.3987 26.7241C75.5904 26.6475 75.7516 26.5517 75.8824 26.4368C76.0218 26.3142 76.1264 26.1762 76.1961 26.023C76.2745 25.8621 76.3137 25.6973 76.3137 25.5287Z" fill="#F1EFE9"/>
<path d="M65 22.1994H66.6686V22.9349H66.7771C66.9399 22.6773 67.1932 22.4571 67.5368 22.2742C67.8805 22.0914 68.3056 22 68.812 22C69.2371 22 69.6395 22.0831 70.0194 22.2493C70.4083 22.4072 70.7474 22.6316 71.0368 22.9224C71.3353 23.205 71.5704 23.5457 71.7423 23.9446C71.9141 24.3435 72 24.7798 72 25.2535C72 25.7271 71.9141 26.1634 71.7423 26.5623C71.5704 26.9612 71.3353 27.3061 71.0368 27.597C70.7474 27.8795 70.4083 28.1039 70.0194 28.2701C69.6395 28.428 69.2371 28.5069 68.812 28.5069C68.3056 28.5069 67.8805 28.4155 67.5368 28.2327C67.1932 28.0499 66.9399 27.8296 66.7771 27.572H66.6686L66.7771 28.4446V31H65V22.1994ZM68.4457 26.9986C68.6809 26.9986 68.9025 26.9571 69.1105 26.874C69.3275 26.7909 69.5174 26.6745 69.6802 26.5249C69.843 26.3753 69.9742 26.1925 70.0736 25.9765C70.1731 25.7604 70.2229 25.5194 70.2229 25.2535C70.2229 24.9875 70.1731 24.7465 70.0736 24.5305C69.9742 24.3144 69.843 24.1316 69.6802 23.982C69.5174 23.8324 69.3275 23.7161 69.1105 23.633C68.9025 23.5499 68.6809 23.5083 68.4457 23.5083C68.2106 23.5083 67.9845 23.5499 67.7674 23.633C67.5594 23.7078 67.374 23.8199 67.2112 23.9695C67.0484 24.1191 66.9173 24.3019 66.8178 24.518C66.7183 24.7341 66.6686 24.9792 66.6686 25.2535C66.6686 25.5277 66.7183 25.7729 66.8178 25.9889C66.9173 26.205 67.0484 26.3878 67.2112 26.5374C67.374 26.687 67.5594 26.8033 67.7674 26.8864C67.9845 26.9612 68.2106 26.9986 68.4457 26.9986Z" fill="#F1EFE9"/>
<path d="M58 22.1667H59.4179V22.9762H59.5101C59.5793 22.8333 59.6715 22.7024 59.7867 22.5833C59.902 22.4643 60.0288 22.3611 60.1671 22.2738C60.3132 22.1865 60.4669 22.119 60.6282 22.0714C60.7973 22.0238 60.9625 22 61.1239 22C61.3237 22 61.4928 22.0198 61.6311 22.0595C61.7771 22.0992 61.9001 22.1508 62 22.2143L61.5965 23.631C61.5043 23.5833 61.4006 23.5476 61.2853 23.5238C61.1777 23.4921 61.0432 23.4762 60.8818 23.4762C60.6744 23.4762 60.4861 23.5198 60.317 23.6071C60.1479 23.6865 60.0019 23.8016 59.879 23.9524C59.7637 24.1032 59.6715 24.2817 59.6023 24.4881C59.5408 24.6865 59.5101 24.9048 59.5101 25.1429V28H58V22.1667Z" fill="#F1EFE9"/>
<path d="M55.3137 27.2184H55.2092C55.0087 27.4329 54.7647 27.6169 54.4771 27.7701C54.1983 27.9234 53.8366 28 53.3922 28C53.061 28 52.7473 27.9502 52.451 27.8506C52.1634 27.7586 51.9107 27.6284 51.6928 27.4598C51.4749 27.2912 51.305 27.0881 51.183 26.8506C51.061 26.613 51 26.3525 51 26.069C51 25.7778 51.0654 25.5172 51.1961 25.2874C51.3268 25.0498 51.5098 24.8467 51.7451 24.6782C51.9804 24.5096 52.2549 24.3831 52.5686 24.2989C52.8911 24.2069 53.2397 24.1609 53.6144 24.1609C54.0327 24.1609 54.3769 24.1916 54.6471 24.2529C54.9172 24.3065 55.1394 24.364 55.3137 24.4253V24.2529C55.3137 23.954 55.1787 23.7088 54.9085 23.5172C54.6383 23.318 54.3028 23.2184 53.902 23.2184C53.3094 23.2184 52.8083 23.4368 52.3987 23.8736L51.1569 23.1264C51.8366 22.3755 52.7647 22 53.9412 22C54.9346 22 55.6928 22.2069 56.2157 22.6207C56.7386 23.0268 57 23.6322 57 24.4368V27.8161H55.3137V27.2184ZM55.3137 25.5287C55.1133 25.4444 54.9041 25.3793 54.6863 25.3333C54.4771 25.2797 54.2462 25.2529 53.9935 25.2529C53.5839 25.2529 53.2658 25.3333 53.0392 25.4943C52.8214 25.6475 52.7124 25.8391 52.7124 26.069C52.7124 26.2989 52.817 26.4828 53.0261 26.6207C53.244 26.7586 53.4924 26.8276 53.7712 26.8276C53.9978 26.8276 54.207 26.7931 54.3987 26.7241C54.5904 26.6475 54.7516 26.5517 54.8824 26.4368C55.0218 26.3142 55.1264 26.1762 55.1961 26.023C55.2745 25.8621 55.3137 25.6973 55.3137 25.5287Z" fill="#F1EFE9"/>
<path d="M46.9636 23.2346H46V21.8519H46.9636V20H48.4314V21.8519H49.7759V23.2346H48.4314V25.5802C48.4314 25.7202 48.4426 25.8519 48.465 25.9753C48.4949 26.0905 48.5472 26.1893 48.6218 26.2716C48.7264 26.4033 48.8758 26.4691 49.07 26.4691C49.197 26.4691 49.2979 26.4568 49.3725 26.4321C49.4472 26.3992 49.5182 26.358 49.5854 26.3086L50 27.7284C49.8282 27.8189 49.6415 27.8848 49.4398 27.9259C49.2456 27.9753 49.0289 28 48.7899 28C48.5135 28 48.2633 27.9547 48.0392 27.8642C47.8226 27.7654 47.6396 27.6337 47.4902 27.4691C47.1391 27.0988 46.9636 26.572 46.9636 25.8889V23.2346Z" fill="#F1EFE9"/>
<path d="M43 28V19H45V28H43Z" fill="#F1EFE9"/>
<path d="M39 22C39.4385 22 39.8385 22.0766 40.2 22.2299C40.5692 22.3755 40.8846 22.5824 41.1462 22.8506C41.4154 23.1111 41.6231 23.4253 41.7692 23.7931C41.9231 24.1609 42 24.5632 42 25C42 25.4368 41.9231 25.8391 41.7692 26.2069C41.6231 26.5747 41.4154 26.8927 41.1462 27.1609C40.8846 27.4215 40.5692 27.6284 40.2 27.7816C39.8385 27.9272 39.4385 28 39 28C38.5615 28 38.1577 27.9272 37.7885 27.7816C37.4269 27.6284 37.1115 27.4215 36.8423 27.1609C36.5808 26.8927 36.3731 26.5747 36.2192 26.2069C36.0731 25.8391 36 25.4368 36 25C36 24.5632 36.0731 24.1609 36.2192 23.7931C36.3731 23.4253 36.5808 23.1111 36.8423 22.8506C37.1115 22.5824 37.4269 22.3755 37.7885 22.2299C38.1577 22.0766 38.5615 22 39 22ZM39 26.6092C39.1923 26.6092 39.3769 26.5747 39.5538 26.5057C39.7385 26.4291 39.9 26.3218 40.0385 26.1839C40.1769 26.046 40.2846 25.8774 40.3615 25.6782C40.4462 25.4789 40.4885 25.2529 40.4885 25C40.4885 24.7471 40.4462 24.5211 40.3615 24.3218C40.2846 24.1226 40.1769 23.954 40.0385 23.8161C39.9 23.6782 39.7385 23.5747 39.5538 23.5057C39.3769 23.4291 39.1923 23.3908 39 23.3908C38.8 23.3908 38.6115 23.4291 38.4346 23.5057C38.2577 23.5747 38.1 23.6782 37.9615 23.8161C37.8231 23.954 37.7115 24.1226 37.6269 24.3218C37.55 24.5211 37.5115 24.7471 37.5115 25C37.5115 25.2529 37.55 25.4789 37.6269 25.6782C37.7115 25.8774 37.8231 26.046 37.9615 26.1839C38.1 26.3218 38.2577 26.4291 38.4346 26.5057C38.6115 26.5747 38.8 26.6092 39 26.6092Z" fill="#F1EFE9"/>
<path d="M28 19H29.7805L31.5854 24.4176L31.9024 25.574H32L32.3415 24.4176L34.2195 19H36L32.8171 28H31.0854L28 19Z" fill="#F1EFE9"/>
<path fill-rule="evenodd" clip-rule="evenodd" d="M123.729 19.0681C123.729 18.9195 123.757 18.7812 123.814 18.6531C123.87 18.5199 123.947 18.4072 124.045 18.315C124.142 18.2177 124.256 18.1409 124.384 18.0845C124.513 18.0282 124.651 18 124.8 18C124.944 18 125.081 18.0282 125.209 18.0845C125.343 18.1409 125.458 18.2177 125.556 18.315C125.659 18.4072 125.738 18.5199 125.795 18.6531C125.852 18.7812 125.88 18.9195 125.88 19.0681C125.88 19.2166 125.852 19.3549 125.795 19.483C125.738 19.6111 125.659 19.7238 125.556 19.8211C125.458 19.9184 125.343 19.9953 125.209 20.0516C125.081 20.108 124.944 20.1361 124.8 20.1361C124.651 20.1361 124.513 20.108 124.384 20.0516C124.256 19.9953 124.142 19.9184 124.045 19.8211C123.947 19.7238 123.87 19.6111 123.814 19.483C123.757 19.3549 123.729 19.2166 123.729 19.0681ZM125.81 26.9825C125.81 27.1208 125.785 27.2514 125.733 27.3744C125.682 27.4922 125.61 27.5972 125.517 27.6894C125.43 27.7765 125.325 27.8457 125.201 27.8969C125.083 27.9481 124.955 27.9737 124.816 27.9737C124.677 27.9737 124.546 27.9481 124.423 27.8969C124.304 27.8457 124.199 27.7765 124.107 27.6894C124.014 27.5972 123.939 27.4922 123.883 27.3744C123.832 27.2514 123.806 27.1208 123.806 26.9825V21.8189C123.806 21.6806 123.832 21.5525 123.883 21.4347C123.939 21.3118 124.014 21.2068 124.107 21.1197C124.199 21.0275 124.307 20.9557 124.43 20.9045C124.559 20.8533 124.692 20.8277 124.831 20.8277C124.97 20.8277 125.099 20.8533 125.217 20.9045C125.335 20.9557 125.438 21.0275 125.525 21.1197C125.618 21.2068 125.687 21.3118 125.733 21.4347C125.785 21.5525 125.81 21.6806 125.81 21.8189V26.9825ZM129.274 20.9316C129.314 20.8715 129.42 20.7862 129.51 20.7421C129.749 20.6253 133.512 20.6194 133.738 20.7355C133.836 20.7858 133.984 20.9788 134.176 21.3069C134.336 21.5795 134.738 22.2482 135.068 22.7929C135.399 23.3377 135.709 23.8614 135.758 23.9569C135.936 24.3051 135.873 24.4696 134.993 25.9674C133.916 27.8011 133.902 27.8224 133.705 27.9041C133.573 27.9589 133.124 27.9737 131.588 27.9737C129.889 27.9737 129.621 27.9633 129.499 27.8921C129.409 27.8388 129.117 27.4092 128.662 26.6603C128.279 26.0278 127.845 25.316 127.699 25.0786C127.376 24.5538 127.329 24.2953 127.498 23.9663C127.609 23.7512 129.137 21.1394 129.274 20.9316ZM130.037 24.3167C130.041 23.7256 130.366 23.2315 130.939 22.9471C131.204 22.8158 131.307 22.793 131.638 22.7934C132.29 22.7942 132.784 23.0949 133.072 23.6677C133.205 23.9321 133.228 24.0343 133.228 24.3675C133.228 24.7006 133.205 24.8028 133.072 25.0673C132.786 25.6356 132.256 25.959 131.612 25.959C131.143 25.959 130.774 25.7918 130.447 25.4301C130.166 25.1198 130.034 24.7612 130.037 24.3167ZM101.924 27.3563C101.973 27.2454 101.997 27.1249 101.997 26.9947V23.885V23.8488C102.002 23.7283 102.031 23.615 102.084 23.5089C102.137 23.4029 102.205 23.3113 102.287 23.2341C102.374 23.157 102.474 23.0967 102.585 23.0533C102.696 23.0051 102.815 22.981 102.94 22.981C103.071 22.981 103.192 23.0027 103.303 23.0461C103.419 23.0895 103.519 23.1522 103.601 23.2341C103.688 23.3113 103.756 23.4053 103.804 23.5162C103.852 23.6271 103.879 23.75 103.884 23.885V26.9947C103.884 27.1249 103.91 27.2454 103.964 27.3563C104.017 27.4672 104.087 27.5636 104.174 27.6456C104.261 27.7276 104.363 27.7926 104.479 27.8409C104.595 27.8891 104.718 27.9132 104.849 27.9132C104.975 27.9132 105.093 27.8891 105.204 27.8409C105.316 27.7926 105.412 27.7276 105.495 27.6456C105.582 27.5636 105.65 27.4672 105.698 27.3563C105.746 27.2454 105.77 27.1249 105.77 26.9947V23.885C105.77 23.8464 105.768 23.8175 105.763 23.7982C105.749 23.427 105.664 23.0774 105.509 22.7496C105.359 22.4217 105.158 22.1373 104.907 21.8962C104.66 21.6503 104.368 21.4575 104.029 21.3177C103.695 21.173 103.337 21.1007 102.955 21.1007C102.592 21.1007 102.249 21.1658 101.924 21.296C101.6 21.4261 101.308 21.6045 101.046 21.8311C100.795 21.6045 100.505 21.4261 100.176 21.296C99.8515 21.1658 99.5056 21.1007 99.1379 21.1007C98.7558 21.1007 98.3953 21.173 98.0567 21.3177C97.7181 21.4623 97.4205 21.66 97.1641 21.9107C96.9126 22.1614 96.7118 22.4555 96.5619 22.793C96.4167 23.1256 96.3442 23.4824 96.3442 23.8633V26.9947C96.3442 27.1249 96.3708 27.2454 96.424 27.3563C96.4772 27.4672 96.5473 27.5636 96.6344 27.6456C96.7215 27.7276 96.8231 27.7926 96.9392 27.8409C97.0553 27.8891 97.1787 27.9132 97.3093 27.9132C97.4351 27.9132 97.5536 27.8891 97.6649 27.8409C97.7761 27.7926 97.8729 27.7276 97.9551 27.6456C98.0422 27.5636 98.1099 27.4672 98.1583 27.3563C98.2067 27.2454 98.2309 27.1249 98.2309 26.9947V23.885V23.8488C98.2309 23.7235 98.2551 23.6078 98.3034 23.5017C98.3566 23.3956 98.4268 23.304 98.5139 23.2269C98.601 23.1498 98.7001 23.0895 98.8114 23.0461C98.9275 23.0027 99.0484 22.981 99.1742 22.981C99.4403 22.981 99.6604 23.0654 99.8346 23.2341C100.009 23.398 100.101 23.615 100.11 23.885V26.9947C100.11 27.1249 100.137 27.2454 100.19 27.3563C100.243 27.4672 100.314 27.5636 100.401 27.6456C100.488 27.7276 100.589 27.7926 100.705 27.8409C100.821 27.8891 100.945 27.9132 101.075 27.9132C101.201 27.9132 101.32 27.8891 101.431 27.8409C101.542 27.7926 101.639 27.7276 101.721 27.6456C101.808 27.5636 101.876 27.4672 101.924 27.3563ZM108.644 25.165C108.562 24.9722 108.521 24.7673 108.521 24.5503C108.521 24.3334 108.562 24.1309 108.644 23.9429C108.731 23.75 108.845 23.5837 108.985 23.4439C109.13 23.2992 109.297 23.1859 109.486 23.104C109.679 23.022 109.882 22.981 110.095 22.981C110.313 22.981 110.516 23.022 110.705 23.104C110.898 23.1859 111.065 23.2992 111.206 23.4439C111.346 23.5837 111.457 23.75 111.539 23.9429C111.622 24.1309 111.663 24.3334 111.663 24.5503C111.663 24.7673 111.622 24.9722 111.539 25.165C111.457 25.3531 111.346 25.5194 111.206 25.6641C111.065 25.8039 110.898 25.9148 110.705 25.9967C110.516 26.0787 110.313 26.1197 110.095 26.1197C109.882 26.1197 109.679 26.0787 109.486 25.9967C109.297 25.9148 109.13 25.8039 108.985 25.6641C108.845 25.5194 108.731 25.3531 108.644 25.165ZM106.91 23.2124C106.726 23.6271 106.634 24.073 106.634 24.5503C106.634 25.0228 106.726 25.4688 106.91 25.8882C107.093 26.3077 107.343 26.6741 107.657 26.9875C107.972 27.3009 108.337 27.5492 108.753 27.7324C109.174 27.9108 109.621 28 110.095 28C110.574 28 111.022 27.9108 111.438 27.7324C111.859 27.5492 112.224 27.3009 112.533 26.9875C112.848 26.6741 113.095 26.3077 113.274 25.8882C113.458 25.4688 113.549 25.0228 113.549 24.5503C113.549 24.073 113.458 23.6271 113.274 23.2124C113.095 22.793 112.848 22.4266 112.533 22.1132C112.224 21.7998 111.859 21.5539 111.438 21.3755C111.022 21.1923 110.574 21.1007 110.095 21.1007C109.621 21.1007 109.174 21.1923 108.753 21.3755C108.337 21.5539 107.972 21.7998 107.657 22.1132C107.343 22.4266 107.093 22.793 106.91 23.2124ZM143.923 27.2166C143.974 27.0988 144 26.9707 144 26.8324V24.1431V24.1354V24.097C144 23.6052 143.91 23.1442 143.73 22.7139C143.55 22.2836 143.301 21.9096 142.982 21.592C142.669 21.2693 142.299 21.0157 141.872 20.8313C141.445 20.6469 140.985 20.5547 140.492 20.5547C139.998 20.5547 139.538 20.6469 139.112 20.8313C138.69 21.0157 138.323 21.2693 138.009 21.592C137.696 21.9096 137.449 22.2836 137.269 22.7139C137.089 23.1442 136.999 23.6052 136.999 24.097V24.1046V24.1431V26.8324C136.999 26.9707 137.027 27.0988 137.084 27.2166C137.141 27.3345 137.215 27.4395 137.308 27.5317C137.4 27.6188 137.508 27.6879 137.631 27.7391C137.755 27.7852 137.886 27.8083 138.025 27.8083C138.163 27.8083 138.292 27.7852 138.41 27.7391C138.528 27.6879 138.631 27.6188 138.719 27.5317C138.806 27.4395 138.875 27.3345 138.927 27.2166C138.978 27.0988 139.004 26.9707 139.004 26.8324V24.097C139.004 23.8767 139.04 23.6743 139.112 23.4899C139.184 23.3004 139.284 23.1365 139.412 22.9982C139.546 22.8599 139.703 22.7523 139.883 22.6754C140.068 22.5935 140.271 22.5525 140.492 22.5525C140.703 22.5525 140.898 22.5909 141.078 22.6678C141.258 22.7446 141.415 22.8522 141.548 22.9905C141.682 23.1237 141.787 23.2825 141.864 23.4669C141.947 23.6462 141.993 23.8383 142.003 24.0432C141.998 24.0585 141.995 24.0765 141.995 24.097V24.1431V26.8324C141.995 26.9707 142.021 27.0988 142.072 27.2166C142.129 27.3345 142.204 27.4395 142.296 27.5317C142.394 27.6188 142.504 27.6879 142.628 27.7391C142.751 27.7852 142.882 27.8083 143.021 27.8083C143.16 27.8083 143.288 27.7852 143.406 27.7391C143.525 27.6879 143.627 27.6188 143.715 27.5317C143.802 27.4395 143.872 27.3345 143.923 27.2166ZM120.162 20.2593C120 20.3303 118.211 21.4597 118.036 21.6018L117.925 21.6914L118.124 22.0044C118.233 22.1766 118.311 22.3359 118.297 22.3585C118.272 22.399 117.555 22.8733 117.363 22.9762C117.274 23.0236 117.245 22.9965 117.076 22.7126C116.973 22.5385 116.864 22.3957 116.836 22.3952C116.807 22.3947 116.367 22.6614 115.858 22.9877C115.349 23.3141 114.851 23.6334 114.751 23.6974C114.499 23.8583 114.402 24.0206 114.439 24.2178C114.475 24.4118 115.495 25.9878 115.614 26.0334C115.806 26.1073 115.955 26.0405 116.808 25.4967C117.299 25.1835 117.718 24.9467 117.739 24.9704C117.76 24.9941 118.124 25.5642 118.548 26.2374C118.971 26.9105 119.376 27.5246 119.447 27.6021C119.651 27.8251 120.017 27.9744 120.358 27.9737C121.231 27.972 121.853 27.1345 121.583 26.3223C121.539 26.1867 121.138 25.507 120.693 24.812L119.884 23.5483L119.994 23.4596C120.054 23.4108 120.41 23.179 120.786 22.9444C121.565 22.4573 121.725 22.3033 121.681 22.0824C121.642 21.8847 120.748 20.4647 120.567 20.3123C120.404 20.175 120.367 20.17 120.162 20.2593ZM93.9754 28C94.5141 28 94.9508 27.5647 94.9508 27.0278C94.9508 26.4908 94.5141 26.0556 93.9754 26.0556C93.4367 26.0556 93 26.4908 93 27.0278C93 27.5647 93.4367 28 93.9754 28Z" fill="#F1EFE9"/>
</svg>
