<svg width="236" height="68" viewBox="0 0 236 68" fill="none" xmlns="http://www.w3.org/2000/svg">
<path d="M0 34C0 15.2223 15.2223 0 34 0H202C220.778 0 236 15.2223 236 34C236 52.7777 220.778 68 202 68H34C15.2223 68 0 52.7777 0 34Z" fill="#2F5830"/>
<path d="M114.523 30.6162C115.177 30.6162 115.774 30.731 116.314 30.9606C116.865 31.1787 117.336 31.4887 117.726 31.8905C118.128 32.2808 118.438 32.7515 118.656 33.3025C118.885 33.8536 119 34.4563 119 35.1106C119 35.765 118.885 36.3677 118.656 36.9187C118.438 37.4698 118.128 37.9462 117.726 38.348C117.336 38.7383 116.865 39.0483 116.314 39.2779C115.774 39.496 115.177 39.605 114.523 39.605C113.869 39.605 113.266 39.496 112.715 39.2779C112.175 39.0483 111.705 38.7383 111.303 38.348C110.913 37.9462 110.603 37.4698 110.373 36.9187C110.155 36.3677 110.046 35.765 110.046 35.1106C110.046 34.4563 110.155 33.8536 110.373 33.3025C110.603 32.7515 110.913 32.2808 111.303 31.8905C111.705 31.4887 112.175 31.1787 112.715 30.9606C113.266 30.731 113.869 30.6162 114.523 30.6162ZM114.523 37.5214C114.81 37.5214 115.086 37.4698 115.35 37.3664C115.625 37.2516 115.866 37.0909 116.073 36.8843C116.28 36.6776 116.44 36.4251 116.555 36.1266C116.681 35.8281 116.744 35.4895 116.744 35.1106C116.744 34.7318 116.681 34.3931 116.555 34.0946C116.44 33.7962 116.28 33.5436 116.073 33.337C115.866 33.1303 115.625 32.9753 115.35 32.872C115.086 32.7572 114.81 32.6998 114.523 32.6998C114.225 32.6998 113.943 32.7572 113.679 32.872C113.415 32.9753 113.18 33.1303 112.973 33.337C112.767 33.5436 112.6 33.7962 112.474 34.0946C112.359 34.3931 112.302 34.7318 112.302 35.1106C112.302 35.4895 112.359 35.8281 112.474 36.1266C112.6 36.4251 112.767 36.6776 112.973 36.8843C113.18 37.0909 113.415 37.2516 113.679 37.3664C113.943 37.4698 114.225 37.5214 114.523 37.5214Z" fill="#F1EFE9"/>
<path d="M99.7314 30.8917H101.85V32.0627H101.987C102.091 31.856 102.228 31.6666 102.401 31.4944C102.573 31.3222 102.762 31.173 102.969 31.0467C103.187 30.9204 103.417 30.8228 103.658 30.754C103.91 30.6851 104.157 30.6506 104.398 30.6506C104.697 30.6506 104.949 30.6793 105.156 30.7367C105.374 30.7941 105.558 30.8688 105.707 30.9606L105.104 33.0098C104.966 32.9409 104.811 32.8892 104.639 32.8548C104.478 32.8089 104.278 32.7859 104.036 32.7859C103.726 32.7859 103.445 32.8491 103.193 32.9753C102.94 33.0901 102.722 33.2566 102.538 33.4747C102.366 33.6928 102.228 33.9511 102.125 34.2496C102.033 34.5366 101.987 34.8523 101.987 35.1967V39.3295H99.7314V30.8917Z" fill="#F1EFE9"/>
<path d="M95.717 38.4341H95.5793C95.3152 38.7555 94.9938 39.031 94.6149 39.2606C94.2476 39.4902 93.7712 39.605 93.1857 39.605C92.7494 39.605 92.3362 39.5304 91.9458 39.3812C91.567 39.2434 91.2341 39.0483 90.9471 38.7957C90.6601 38.5431 90.4362 38.2389 90.2755 37.883C90.1148 37.5272 90.0344 37.1368 90.0344 36.7121C90.0344 36.2758 90.1205 35.8855 90.2927 35.5411C90.4649 35.1852 90.706 34.881 91.016 34.6285C91.3259 34.3759 91.6875 34.1865 92.1008 34.0602C92.5256 33.9224 92.9848 33.8536 93.4784 33.8536C94.0295 33.8536 94.4829 33.8995 94.8388 33.9913C95.1947 34.0717 95.4874 34.1578 95.717 34.2496V33.9913C95.717 33.5436 95.5391 33.1762 95.1832 32.8893C94.8273 32.5908 94.3853 32.4415 93.8573 32.4415C93.0766 32.4415 92.4165 32.7687 91.877 33.4231L90.2411 32.3038C91.1365 31.1787 92.3591 30.6162 93.9089 30.6162C95.2176 30.6162 96.2164 30.9262 96.9052 31.5461C97.594 32.1545 97.9384 33.0615 97.9384 34.2668V39.3295H95.717V38.4341ZM95.717 35.9027C95.453 35.7765 95.1775 35.6789 94.8905 35.61C94.6149 35.5296 94.3107 35.4895 93.9778 35.4895C93.4382 35.4895 93.0192 35.61 92.7207 35.8511C92.4337 36.0807 92.2902 36.3677 92.2902 36.7121C92.2902 37.0565 92.428 37.332 92.7035 37.5386C92.9905 37.7453 93.3177 37.8486 93.6851 37.8486C93.9835 37.8486 94.2591 37.7969 94.5116 37.6936C94.7642 37.5788 94.9766 37.4353 95.1488 37.2631C95.3324 37.0794 95.4702 36.8728 95.562 36.6432C95.6654 36.4021 95.717 36.1553 95.717 35.9027Z" fill="#F1EFE9"/>
<path d="M85.4488 39.605C84.8978 39.605 84.4042 39.5362 83.9679 39.3984C83.5432 39.2606 83.1701 39.0827 82.8486 38.8646C82.5387 38.635 82.2746 38.3767 82.0565 38.0897C81.8384 37.7912 81.6719 37.4927 81.5571 37.1942L83.5719 36.3332C83.767 36.7695 84.0253 37.0967 84.3468 37.3148C84.6797 37.5214 85.047 37.6247 85.4488 37.6247C85.8621 37.6247 86.1893 37.5501 86.4304 37.4009C86.6715 37.2516 86.792 37.0737 86.792 36.8671C86.792 36.6375 86.6887 36.4538 86.482 36.316C86.2869 36.1668 85.9425 36.0348 85.4488 35.92L84.2607 35.6617C83.9966 35.6043 83.7211 35.5124 83.4341 35.3861C83.1586 35.2599 82.906 35.0991 82.6764 34.904C82.4468 34.7088 82.2574 34.4735 82.1082 34.198C81.9589 33.9224 81.8843 33.601 81.8843 33.2337C81.8843 32.8204 81.9704 32.453 82.1426 32.1316C82.3263 31.8101 82.5731 31.5404 82.8831 31.3222C83.193 31.0926 83.5546 30.9204 83.9679 30.8056C84.3927 30.6794 84.8461 30.6162 85.3283 30.6162C86.1319 30.6162 86.8494 30.7769 87.4808 31.0984C88.1122 31.4083 88.5771 31.9077 88.8756 32.5965L86.9298 33.3886C86.769 33.0557 86.5337 32.8146 86.2237 32.6654C85.9138 32.5162 85.6038 32.4415 85.2939 32.4415C84.9724 32.4415 84.6912 32.5104 84.4501 32.6482C84.209 32.7745 84.0885 32.9409 84.0885 33.1476C84.0885 33.3427 84.186 33.4977 84.3812 33.6125C84.5878 33.7273 84.8634 33.8306 85.2078 33.9224L86.4993 34.2324C87.3603 34.439 87.9974 34.772 88.4107 35.2312C88.8354 35.6789 89.0478 36.2127 89.0478 36.8326C89.0478 37.2 88.9617 37.5501 88.7895 37.883C88.6173 38.216 88.3705 38.5144 88.0491 38.7785C87.7391 39.031 87.3603 39.2319 86.9125 39.3812C86.4763 39.5304 85.9884 39.605 85.4488 39.605Z" fill="#F1EFE9"/>
<path d="M77.1249 39.605C76.5738 39.605 76.0802 39.5362 75.644 39.3984C75.2192 39.2606 74.8461 39.0827 74.5247 38.8646C74.2147 38.635 73.9507 38.3767 73.7325 38.0897C73.5144 37.7912 73.348 37.4927 73.2332 37.1942L75.2479 36.3332C75.4431 36.7695 75.7014 37.0967 76.0228 37.3148C76.3557 37.5214 76.7231 37.6247 77.1249 37.6247C77.5382 37.6247 77.8653 37.5501 78.1064 37.4009C78.3475 37.2516 78.468 37.0737 78.468 36.8671C78.468 36.6375 78.3647 36.4538 78.1581 36.316C77.9629 36.1668 77.6185 36.0348 77.1249 35.92L75.9367 35.6617C75.6727 35.6043 75.3971 35.5124 75.1101 35.3861C74.8346 35.2599 74.5821 35.0991 74.3525 34.904C74.1229 34.7088 73.9334 34.4735 73.7842 34.198C73.635 33.9224 73.5603 33.601 73.5603 33.2337C73.5603 32.8204 73.6464 32.453 73.8186 32.1316C74.0023 31.8101 74.2491 31.5404 74.5591 31.3222C74.8691 31.0926 75.2307 30.9204 75.644 30.8056C76.0687 30.6794 76.5222 30.6162 77.0043 30.6162C77.8079 30.6162 78.5254 30.7769 79.1568 31.0984C79.7882 31.4083 80.2532 31.9077 80.5517 32.5965L78.6058 33.3886C78.4451 33.0557 78.2097 32.8146 77.8998 32.6654C77.5898 32.5162 77.2799 32.4415 76.9699 32.4415C76.6485 32.4415 76.3672 32.5104 76.1261 32.6482C75.885 32.7745 75.7645 32.9409 75.7645 33.1476C75.7645 33.3427 75.8621 33.4977 76.0572 33.6125C76.2639 33.7273 76.5394 33.8306 76.8838 33.9224L78.1753 34.2324C79.0363 34.439 79.6734 34.772 80.0867 35.2312C80.5115 35.6789 80.7239 36.2127 80.7239 36.8326C80.7239 37.2 80.6378 37.5501 80.4656 37.883C80.2934 38.216 80.0465 38.5144 79.7251 38.7785C79.4151 39.031 79.0363 39.2319 78.5886 39.3812C78.1523 39.5304 77.6644 39.605 77.1249 39.605Z" fill="#F1EFE9"/>
<path d="M72.1217 37.2976C71.7313 37.9864 71.2033 38.5431 70.5374 38.9679C69.8831 39.3927 69.0795 39.605 68.1266 39.605C67.4837 39.605 66.8868 39.496 66.3357 39.2779C65.7962 39.0483 65.3255 38.7326 64.9237 38.3308C64.5219 37.929 64.2062 37.4583 63.9766 36.9187C63.7585 36.3677 63.6494 35.765 63.6494 35.1106C63.6494 34.5022 63.7585 33.9282 63.9766 33.3886C64.1947 32.8376 64.4989 32.3612 64.8893 31.9594C65.2796 31.5461 65.7388 31.2189 66.2669 30.9778C66.8064 30.7368 67.3976 30.6162 68.0405 30.6162C68.7178 30.6162 69.3205 30.731 69.8486 30.9606C70.3767 31.1787 70.8187 31.4887 71.1745 31.8905C71.5304 32.2808 71.8002 32.7457 71.9839 33.2853C72.1676 33.8249 72.2594 34.4103 72.2594 35.0417C72.2594 35.1221 72.2594 35.191 72.2594 35.2484C72.2479 35.3173 72.2422 35.3804 72.2422 35.4378C72.2307 35.4952 72.225 35.5583 72.225 35.6272H65.8708C65.9167 35.9716 66.0086 36.2701 66.1463 36.5227C66.2956 36.7637 66.4735 36.9704 66.6801 37.1426C66.8983 37.3033 67.1336 37.4238 67.3862 37.5042C67.6387 37.5731 67.897 37.6075 68.1611 37.6075C68.6777 37.6075 69.1024 37.4927 69.4353 37.2631C69.7797 37.022 70.0495 36.7236 70.2447 36.3677L72.1217 37.2976ZM70.0725 34.0258C70.061 33.8765 70.0093 33.7101 69.9175 33.5264C69.8371 33.3427 69.7109 33.1705 69.5387 33.0098C69.3779 32.8491 69.1713 32.7171 68.9187 32.6137C68.6777 32.5104 68.3849 32.4588 68.0405 32.4588C67.5584 32.4588 67.1336 32.5965 66.7662 32.872C66.3989 33.1475 66.1406 33.5321 65.9913 34.0258H70.0725Z" fill="#F1EFE9"/>
<path d="M62.8393 37.177C62.4719 37.8888 61.9553 38.4743 61.2895 38.9335C60.6352 39.3812 59.8143 39.605 58.8271 39.605C58.1727 39.605 57.57 39.496 57.019 39.2779C56.4794 39.0483 56.0087 38.7326 55.6069 38.3308C55.2166 37.929 54.9066 37.4583 54.677 36.9187C54.4589 36.3677 54.3499 35.765 54.3499 35.1106C54.3499 34.4563 54.4589 33.8536 54.677 33.3025C54.9066 32.7515 55.2166 32.2808 55.6069 31.8905C56.0087 31.4887 56.4794 31.1787 57.019 30.9606C57.57 30.731 58.1727 30.6162 58.8271 30.6162C59.8029 30.6162 60.6237 30.8401 61.2895 31.2878C61.9553 31.7355 62.4432 32.3153 62.7532 33.027L60.6868 33.888C60.4916 33.4977 60.2391 33.205 59.9291 33.0098C59.6307 32.8032 59.2518 32.6998 58.7926 32.6998C58.4941 32.6998 58.2129 32.7572 57.9488 32.872C57.6848 32.9868 57.4495 33.1475 57.2428 33.3542C57.0477 33.5608 56.8927 33.8134 56.7779 34.1119C56.6631 34.4103 56.6057 34.7433 56.6057 35.1106C56.6057 35.478 56.6631 35.8109 56.7779 36.1094C56.8927 36.4079 57.0477 36.6604 57.2428 36.8671C57.4495 37.0737 57.6848 37.2344 57.9488 37.3492C58.2129 37.464 58.4941 37.5214 58.7926 37.5214C59.2633 37.5214 59.6594 37.4181 59.9808 37.2115C60.3137 36.9933 60.5777 36.6834 60.7729 36.2816L62.8393 37.177Z" fill="#F1EFE9"/>
<path d="M46.6322 27H49.2841L53.9162 39.3295H51.3505L50.3345 36.3849H45.5818L44.5658 39.3295H42L46.6322 27ZM49.5768 34.2496L48.4747 31.1672L48.027 29.6691H47.8892L47.4415 31.1672L46.3394 34.2496H49.5768Z" fill="#F1EFE9"/>
<path fill-rule="evenodd" clip-rule="evenodd" d="M163.817 24.8583C164.129 24.1379 164.178 24.0667 164.394 24.0124C164.549 23.9736 164.909 24.0234 165.727 24.1968C166.017 24.2584 166.401 24.3291 166.58 24.3539C167.558 24.4899 167.833 24.5573 168.082 24.7228C168.282 24.8551 168.394 25.0398 168.427 25.293C168.437 25.375 168.45 25.6593 168.455 25.9248C168.459 26.1902 168.472 26.441 168.482 26.4822C168.521 26.635 168.583 26.6831 169.525 27.2976C170.024 27.6228 170.125 27.6694 170.325 27.6685C170.481 27.6678 170.538 27.6498 171.043 27.4398C171.589 27.2133 171.782 27.1922 172.061 27.3293C172.284 27.4389 172.449 27.6327 172.752 28.1448C172.902 28.3969 173.07 28.649 173.369 29.0678C173.959 29.895 174.109 30.1401 174.167 30.3736C174.22 30.5868 174.179 30.7652 174.028 30.9752C173.992 31.0255 173.839 31.1785 173.689 31.315C173.398 31.5806 173.295 31.6974 173.215 31.8543C173.169 31.946 173.165 31.9703 173.159 32.1926C173.147 32.6733 173.319 33.458 173.527 33.8732C173.586 33.9903 173.615 34.0265 173.707 34.0957C173.848 34.2024 174.067 34.3052 174.396 34.4193C174.822 34.5667 174.969 34.6616 175.065 34.8514C175.116 34.9515 175.117 34.9605 175.116 35.2085C175.115 35.452 175.109 35.4934 174.979 36.165L174.746 37.3671C174.519 38.5423 174.412 38.8316 174.168 38.9411C174.105 38.969 174.035 38.973 173.561 38.9756C173.266 38.9772 172.975 38.9868 172.914 38.9969C172.592 39.05 172.315 39.2919 171.948 39.8416C171.684 40.238 171.476 40.6265 171.458 40.7572C171.415 41.0662 171.734 41.6999 172.453 42.7371C172.62 42.9779 173.384 43.9947 173.64 44.3168C173.69 44.3795 173.893 44.6441 174.09 44.9047C174.288 45.1653 174.628 45.6115 174.846 45.8963C176.112 47.5489 176.14 47.5879 176.249 47.8618C176.327 48.0566 176.388 48.2797 176.411 48.4531C176.437 48.6499 176.422 49.1259 176.384 49.2965C176.243 49.9279 175.895 50.4402 175.372 50.7882C174.47 51.3882 173.28 51.29 172.486 50.55C172.354 50.4269 171.97 49.936 170.71 48.283C169.25 46.3672 168.938 45.9579 168.647 45.5804C168.473 45.3536 168.181 44.9705 167.999 44.7292C167.56 44.1468 167.153 43.7316 166.956 43.6668C166.907 43.6505 166.848 43.6505 166.697 43.6669C166.009 43.7407 165.33 43.9629 165.075 44.1971C164.985 44.28 164.844 44.5562 164.724 44.8872C164.522 45.4418 164.396 45.5863 164.071 45.6323C163.903 45.6561 163.758 45.6373 162.985 45.4912C162.627 45.4234 162.143 45.3324 161.911 45.2889C160.851 45.0902 160.397 44.9585 160.248 44.8071C160.143 44.6995 160.139 44.6742 160.152 44.1771C160.165 43.6773 160.141 43.3771 160.076 43.2514C159.986 43.0749 159.793 42.8721 159.511 42.6561C159.269 42.4709 158.885 42.2267 158.614 42.0856C158.484 42.0179 158.456 42.0102 158.317 42.0036C158.123 41.9943 157.972 42.0335 157.676 42.1695C157.151 42.4106 157.015 42.4565 156.823 42.4565C156.65 42.4565 156.562 42.4194 156.44 42.2948C156.307 42.1578 156.116 41.9169 155.852 41.5525C155.24 40.7067 154.844 40.0917 154.587 39.5872C154.397 39.2132 154.371 39.0772 154.452 38.884C154.516 38.7339 154.637 38.5819 154.838 38.3992C155.242 38.0335 155.36 37.8844 155.417 37.6669C155.461 37.4988 155.457 37.423 155.378 36.9372C155.24 36.0875 155.181 35.9168 154.942 35.6826C154.791 35.5343 154.681 35.4711 154.274 35.2973C153.679 35.0437 153.551 34.9483 153.489 34.7091C153.427 34.4693 153.447 34.3239 153.76 32.766C154.03 31.427 154.041 31.374 154.106 31.1666C154.186 30.9145 154.26 30.8051 154.393 30.7442C154.467 30.7102 154.517 30.7068 155.089 30.6959C155.904 30.6803 156.079 30.6496 156.19 30.502C156.215 30.47 156.292 30.3451 156.363 30.2244C156.434 30.1038 156.557 29.9103 156.636 29.7945C156.896 29.4151 156.991 29.2697 157.051 29.1539C157.108 29.0444 157.111 29.032 157.111 28.8468C157.111 28.619 157.09 28.5487 156.909 28.1448C156.7 27.683 156.647 27.4808 156.68 27.2786C156.7 27.159 156.78 26.9897 156.862 26.8968C156.958 26.787 157.466 26.4326 158.438 25.7972C158.55 25.7246 158.783 25.5605 158.957 25.4327C159.52 25.0196 159.846 24.9075 160.182 25.0118C160.361 25.0674 160.499 25.1733 160.865 25.5348C161.239 25.9044 161.301 25.9477 161.498 25.9751C161.634 25.994 161.868 25.9752 162.098 25.9267C162.576 25.8263 162.863 25.7673 163.044 25.7332C163.154 25.7123 163.283 25.6787 163.33 25.6586C163.486 25.5916 163.532 25.5159 163.817 24.8583ZM194.802 28.2697C194.935 27.7527 195.375 27.3739 195.893 27.3309C196.282 27.2987 196.608 27.409 196.893 27.6696C197.032 27.7967 197.182 28.0504 197.242 28.2604C197.272 28.3675 197.274 28.5421 197.274 31.8917C197.274 35.2085 197.272 35.4169 197.242 35.5244C197.086 36.0932 196.592 36.4724 196.007 36.4717C195.513 36.4711 195.12 36.2257 194.898 35.7789C194.88 35.7416 194.864 35.7144 194.85 35.6861C194.761 35.5012 194.768 35.2699 194.768 31.8901C194.768 28.479 194.768 28.402 194.802 28.2697ZM161.278 28.9917C162.023 28.6195 162.939 28.3707 163.802 28.306C163.991 28.2919 164.589 28.2955 164.797 28.312C165.629 28.3783 166.438 28.5984 167.142 28.9502C168.176 29.4664 169.009 30.2046 169.669 31.1897C170.228 32.0231 170.61 33.0455 170.739 34.0503C170.778 34.351 170.792 34.9658 170.767 35.2787C170.649 36.7643 170.114 38.043 169.152 39.1397C168.121 40.3144 166.609 41.1258 165.078 41.3264C164.787 41.3645 164.078 41.3782 163.735 41.3523C162.566 41.2644 161.494 40.8987 160.537 40.2613C159.778 39.7561 159.089 39.0244 158.608 38.2138C158.13 37.4074 157.836 36.5604 157.706 35.621C157.666 35.3321 157.66 34.3063 157.696 34.0152C157.796 33.2111 157.989 32.5569 158.324 31.8896C158.633 31.273 158.96 30.8134 159.44 30.3233C159.984 29.7667 160.554 29.3535 161.278 28.9917ZM161.331 31.2929C162.037 30.7569 162.9 30.4184 163.784 30.331C164.05 30.3047 164.704 30.3221 164.971 30.3627C165.986 30.5171 166.776 30.8935 167.407 31.5227C167.741 31.8555 167.883 32.1714 167.886 32.5849C167.89 33.0064 167.701 33.3358 167.301 33.606C167.009 33.8033 166.677 33.868 166.366 33.7884C166.122 33.7262 165.942 33.6272 165.554 33.3425C165.088 33.0005 164.8 32.8802 164.344 32.8369C163.969 32.8014 163.644 32.8574 163.318 33.0133C162.852 33.2362 162.469 33.6294 162.238 34.1223C161.941 34.7548 162.004 35.3966 162.425 36.0219C162.749 36.502 163.235 36.8552 163.709 36.9536C164.001 37.0141 164.381 37.0033 164.677 36.9262C164.965 36.8507 165.16 36.746 165.574 36.443C166.038 36.1041 166.236 36.0159 166.562 36.0029C166.882 35.9901 167.112 36.0633 167.373 36.2605C167.731 36.531 167.889 36.8282 167.888 37.2267C167.886 37.6439 167.739 37.9564 167.38 38.3071C167.063 38.6171 166.741 38.851 166.39 39.0251C165.764 39.3368 165.126 39.496 164.408 39.52C163.665 39.5448 163.021 39.4241 162.316 39.1278C160.854 38.5135 159.819 37.1882 159.579 35.621C159.533 35.3261 159.524 34.6797 159.561 34.3925C159.667 33.5687 159.974 32.816 160.474 32.1553C160.66 31.9089 161.092 31.4742 161.331 31.2929ZM178.223 31.6311C178.943 31.0286 179.839 30.6677 180.801 30.5929C181.016 30.5762 181.423 30.5856 181.659 30.6126C183.214 30.7913 184.59 31.776 185.273 33.1983C185.488 33.6454 185.605 34.0293 185.689 34.5592C185.718 34.7451 185.721 34.9139 185.721 36.7003V38.6395L185.665 38.7932C185.54 39.144 185.311 39.3995 184.985 39.553C184.793 39.6437 184.659 39.6731 184.437 39.6731C184.209 39.6731 184.073 39.6424 183.883 39.5476C183.735 39.4735 183.544 39.3054 183.458 39.1723C183.427 39.1254 183.395 39.087 183.387 39.087C183.379 39.087 183.299 39.1312 183.21 39.1852C182.857 39.3988 182.39 39.5969 182.035 39.6834C181.664 39.7739 181.463 39.7937 181.017 39.7839C180.578 39.7742 180.381 39.7491 180.021 39.657C179.145 39.4331 178.339 38.941 177.708 38.2446C177.144 37.6224 176.721 36.7608 176.587 35.9632C176.428 35.0091 176.556 34.0841 176.961 33.2518C177.289 32.5788 177.66 32.1027 178.223 31.6311ZM188.796 32.1105C189.601 31.311 190.623 30.825 191.726 30.7173C191.818 30.7083 192.027 30.7034 192.192 30.7064C192.432 30.7109 192.518 30.7194 192.631 30.7504C192.966 30.8419 193.226 31.0534 193.371 31.3524C193.479 31.575 193.507 31.7222 193.496 31.997C193.49 32.1581 193.478 32.2466 193.449 32.3304C193.319 32.716 193.017 33.0122 192.616 33.1464C192.503 33.1839 192.423 33.1961 192.194 33.2097C191.728 33.2373 191.509 33.2908 191.161 33.4615C190.916 33.5817 190.716 33.7282 190.52 33.9299C190.189 34.2726 190.001 34.6416 189.893 35.1647C189.881 35.2195 189.87 35.9004 189.864 36.9811L189.853 38.7097L189.803 38.8413C189.71 39.0837 189.611 39.2299 189.442 39.3734C188.994 39.7544 188.378 39.7784 187.879 39.4341C187.655 39.2794 187.494 39.0642 187.404 38.7978L187.356 38.657V36.8845C187.356 35.268 187.359 35.0935 187.388 34.9014C187.555 33.7894 188.005 32.8967 188.796 32.1105ZM179.553 33.8341C179.857 33.4738 180.31 33.2132 180.778 33.1282C180.95 33.0971 181.316 33.0972 181.496 33.1286C181.882 33.1958 182.265 33.3894 182.549 33.6603C183.207 34.2871 183.396 35.2483 183.019 36.0508C182.689 36.7557 182.081 37.1895 181.323 37.2612C180.26 37.3617 179.291 36.6268 179.081 35.5595C179.046 35.3856 179.051 34.9497 179.089 34.7698C179.159 34.4407 179.327 34.1029 179.553 33.8341ZM195.017 37.589C195.2 37.3514 195.469 37.1733 195.749 37.1047C195.915 37.0639 196.156 37.06 196.323 37.0953C196.794 37.1948 197.213 37.6101 197.326 38.0896C197.364 38.2491 197.36 38.5253 197.319 38.6873C197.157 39.3165 196.524 39.755 195.902 39.6682C195.391 39.5969 194.983 39.2595 194.826 38.7803C194.76 38.5762 194.749 38.2737 194.801 38.0678C194.844 37.8983 194.936 37.6947 195.017 37.589ZM125.142 27.9031C125.302 27.5778 125.591 27.3485 125.967 27.2492C126.118 27.2093 126.361 27.2057 126.53 27.2408C126.598 27.2549 126.728 27.3034 126.82 27.3495C127.051 27.4645 127.255 27.665 127.361 27.8816C127.392 27.9436 127.415 27.9878 127.434 28.0341C127.501 28.205 127.497 28.4044 127.502 29.6365C127.504 30.4039 127.51 31.0418 127.515 31.0541C127.521 31.0704 127.553 31.0615 127.632 31.0214C127.902 30.8853 128.385 30.7262 128.737 30.657C130.777 30.2559 132.815 31.2735 133.741 33.1552C133.988 33.6582 134.129 34.1349 134.189 34.6733C134.216 34.9227 134.212 35.4755 134.18 35.7353C133.99 37.2706 133.022 38.6271 131.63 39.3074C131.164 39.5349 130.778 39.6556 130.289 39.7269C128.832 39.9394 127.398 39.4636 126.353 38.4212C125.735 37.8045 125.279 36.9815 125.099 36.1562C125.083 36.0843 125.07 36.0291 125.059 35.9734C124.996 35.6607 125 35.3346 125 31.9443C125 28.4407 124.99 28.2022 125.083 28.0145C125.099 27.9816 125.119 27.9502 125.142 27.9031ZM146.506 31.187C147.012 30.8455 147.634 30.6374 148.301 30.5863C149.009 30.5322 149.786 30.6197 150.4 30.8227C150.855 30.9734 151.164 31.1508 151.392 31.3926C151.801 31.8258 151.867 32.478 151.551 32.9405C151.44 33.1026 151.319 33.2044 151.131 33.2951C150.934 33.3899 150.82 33.4174 150.63 33.4169C150.453 33.4163 150.367 33.3924 149.886 33.2098C149.361 33.0102 149.182 32.9769 148.73 32.9951C148.295 33.0126 148.108 33.0637 147.985 33.1991C147.885 33.3102 147.878 33.4668 147.97 33.5549C148.049 33.6298 148.301 33.7365 148.582 33.8136C149.356 34.026 149.766 34.1632 150.19 34.351C150.904 34.6676 151.373 35.0392 151.71 35.5553C151.995 35.9932 152.102 36.4097 152.084 37.0162C152.076 37.2687 152.065 37.37 152.03 37.5209C151.805 38.4734 151.038 39.2565 150.007 39.5858C149.575 39.7238 149.265 39.7693 148.757 39.7695C148.123 39.7697 147.547 39.6765 146.984 39.4822C146.031 39.1538 145.352 38.543 145.097 37.7841C145.036 37.6029 145.02 37.2701 145.063 37.0884C145.131 36.7988 145.334 36.544 145.602 36.4131C145.806 36.3131 145.94 36.2824 146.163 36.284C146.569 36.287 146.936 36.4402 147.289 36.7529C147.753 37.1652 148.296 37.378 148.818 37.3527C149.297 37.3294 149.611 37.1455 149.567 36.9136C149.533 36.7296 149.171 36.5346 148.327 36.2446C147.973 36.1231 147.839 36.0659 147.289 35.8007C146.474 35.4087 146.049 35.0738 145.716 34.5634C145.514 34.2546 145.421 33.9774 145.39 33.5936C145.34 32.9793 145.497 32.3667 145.832 31.8625C145.972 31.653 146.293 31.3308 146.506 31.187ZM135.718 31.0569C135.914 30.8593 136.069 30.7777 136.395 30.6998C136.414 30.6951 136.525 30.6938 136.641 30.6968C136.814 30.7013 136.878 30.7108 136.993 30.7495C137.418 30.8926 137.728 31.2218 137.837 31.6453C137.86 31.7355 137.863 31.9961 137.863 33.5432C137.863 34.6528 137.87 35.4039 137.881 35.5134C137.951 36.1941 138.309 36.7258 138.901 37.0309C139.269 37.2205 139.626 37.2908 140.029 37.2528C140.788 37.1814 141.339 36.6907 141.54 35.9054C141.605 35.6518 141.609 35.523 141.609 33.6734C141.61 31.7483 141.612 31.7091 141.693 31.5054C141.888 31.0175 142.371 30.6893 142.892 30.6899C143.101 30.6902 143.261 30.728 143.455 30.8232C143.764 30.9742 144.001 31.2701 144.089 31.613C144.122 31.7434 144.123 31.8153 144.123 33.6714C144.123 34.8138 144.116 35.6623 144.105 35.7614C144.022 36.5609 143.765 37.2758 143.323 37.9375C143.002 38.4182 142.644 38.7749 142.156 39.098C141.432 39.5779 140.587 39.8094 139.692 39.7736C138.545 39.7277 137.528 39.2909 136.705 38.4911C135.98 37.7859 135.546 36.9322 135.388 35.8974C135.361 35.7194 135.358 35.504 135.358 33.7081V31.7162L135.399 31.5846C135.468 31.3619 135.553 31.2227 135.718 31.0569ZM127.54 34.8312C127.688 33.9867 128.341 33.3111 129.185 33.1284C129.319 33.0996 129.394 33.0953 129.66 33.1012C129.994 33.1085 130.106 33.1279 130.355 33.2217C131.653 33.7098 132.107 35.3269 131.262 36.4475C130.625 37.2921 129.412 37.5142 128.514 36.9509C128.015 36.6379 127.658 36.1223 127.548 35.5563C127.511 35.3682 127.507 35.0153 127.54 34.8312Z" fill="#F1EFE9"/>
</svg>
