<svg width="611" height="263" viewBox="0 0 611 263" fill="none" xmlns="http://www.w3.org/2000/svg">
<path d="M66.6596 48V12.2H79.6096C82.4429 12.2 84.8762 13.1333 86.9096 15C88.9429 16.8333 89.9596 19.15 89.9596 21.95C89.9596 25.4833 88.3429 27.9667 85.1096 29.4V29.6C86.9429 30.2 88.4096 31.25 89.5096 32.75C90.6096 34.2167 91.1596 35.9 91.1596 37.8C91.1596 40.7333 90.0929 43.1667 87.9596 45.1C85.8929 47.0333 83.3429 48 80.3096 48H66.6596ZM71.2596 16.6V27.55H79.6096C81.2429 27.55 82.6096 27 83.7096 25.9C84.8096 24.7667 85.3596 23.4833 85.3596 22.05C85.3596 20.65 84.8262 19.3833 83.7596 18.25C82.6929 17.15 81.3762 16.6 79.8096 16.6H71.2596ZM71.2596 31.85V43.6H80.5096C82.1762 43.6 83.5929 43.0167 84.7596 41.85C85.8929 40.6833 86.4596 39.3 86.4596 37.7C86.4596 36.1333 85.8762 34.7667 84.7096 33.6C83.5429 32.4333 82.0762 31.85 80.3096 31.85H71.2596ZM117.047 48H112.647V44.6H112.447C111.747 45.8 110.664 46.8 109.197 47.6C107.764 48.4 106.264 48.8 104.697 48.8C101.697 48.8 99.3804 47.95 97.7471 46.25C96.1471 44.5167 95.3471 42.0667 95.3471 38.9V23.5H99.9471V38.6C100.047 42.6 102.064 44.6 105.997 44.6C107.83 44.6 109.364 43.8667 110.597 42.4C111.83 40.9 112.447 39.1167 112.447 37.05V23.5H117.047V48ZM141.153 41.2C141.153 43.3333 140.219 45.1333 138.353 46.6C136.486 48.0667 134.136 48.8 131.303 48.8C128.836 48.8 126.669 48.1667 124.803 46.9C122.936 45.6 121.603 43.9 120.803 41.8L124.903 40.05C125.503 41.5167 126.369 42.6667 127.503 43.5C128.669 44.3 129.936 44.7 131.303 44.7C132.769 44.7 133.986 44.3833 134.953 43.75C135.953 43.1167 136.453 42.3667 136.453 41.5C136.453 39.9333 135.253 38.7833 132.853 38.05L128.653 37C123.886 35.8 121.503 33.5 121.503 30.1C121.503 27.8667 122.403 26.0833 124.203 24.75C126.036 23.3833 128.369 22.7 131.203 22.7C133.369 22.7 135.319 23.2167 137.053 24.25C138.819 25.2833 140.053 26.6667 140.753 28.4L136.653 30.1C136.186 29.0667 135.419 28.2667 134.353 27.7C133.319 27.1 132.153 26.8 130.853 26.8C129.653 26.8 128.569 27.1 127.603 27.7C126.669 28.3 126.203 29.0333 126.203 29.9C126.203 31.3 127.519 32.3 130.153 32.9L133.853 33.85C138.719 35.05 141.153 37.5 141.153 41.2ZM168.601 58.8H164.001V48L164.201 44.6H164.001C163.201 45.8667 162.051 46.8833 160.551 47.65C159.084 48.4167 157.451 48.8 155.651 48.8C152.451 48.8 149.701 47.5333 147.401 45C145.134 42.4333 144.001 39.35 144.001 35.75C144.001 32.15 145.134 29.0667 147.401 26.5C149.701 23.9667 152.451 22.7 155.651 22.7C157.451 22.7 159.084 23.0833 160.551 23.85C162.051 24.6167 163.201 25.6333 164.001 26.9H164.201V23.5H168.601V58.8ZM156.401 44.6C158.667 44.6 160.517 43.7833 161.951 42.15C163.451 40.5167 164.201 38.3833 164.201 35.75C164.201 33.1833 163.451 31.0667 161.951 29.4C160.484 27.7333 158.634 26.9 156.401 26.9C154.201 26.9 152.351 27.7333 150.851 29.4C149.351 31.0667 148.601 33.1833 148.601 35.75C148.601 38.35 149.351 40.4667 150.851 42.1C152.351 43.7667 154.201 44.6 156.401 44.6ZM195.514 48H191.114V44.6H190.914C190.214 45.8 189.131 46.8 187.664 47.6C186.231 48.4 184.731 48.8 183.164 48.8C180.164 48.8 177.847 47.95 176.214 46.25C174.614 44.5167 173.814 42.0667 173.814 38.9V23.5H178.414V38.6C178.514 42.6 180.531 44.6 184.464 44.6C186.297 44.6 187.831 43.8667 189.064 42.4C190.297 40.9 190.914 39.1167 190.914 37.05V23.5H195.514V48ZM211.869 48.8C208.269 48.8 205.303 47.5667 202.969 45.1C200.636 42.6333 199.469 39.5167 199.469 35.75C199.469 32.0167 200.603 28.9167 202.869 26.45C205.136 23.95 208.036 22.7 211.569 22.7C215.203 22.7 218.086 23.8833 220.219 26.25C222.386 28.5833 223.469 31.8667 223.469 36.1L223.419 36.6H204.169C204.236 39 205.036 40.9333 206.569 42.4C208.103 43.8667 209.936 44.6 212.069 44.6C215.003 44.6 217.303 43.1333 218.969 40.2L223.069 42.2C221.969 44.2667 220.436 45.8833 218.469 47.05C216.536 48.2167 214.336 48.8 211.869 48.8ZM204.519 32.8H218.569C218.436 31.1 217.736 29.7 216.469 28.6C215.236 27.4667 213.569 26.9 211.469 26.9C209.736 26.9 208.236 27.4333 206.969 28.5C205.736 29.5667 204.919 31 204.519 32.8ZM261.862 42.1C260.729 44.1 259.196 45.7167 257.262 46.95C255.362 48.1833 253.029 48.8 250.262 48.8C248.396 48.8 246.662 48.4833 245.062 47.85C243.496 47.1833 242.129 46.2667 240.962 45.1C239.796 43.9333 238.879 42.5667 238.212 41C237.579 39.4 237.262 37.65 237.262 35.75C237.262 33.9833 237.579 32.3167 238.212 30.75C238.846 29.15 239.729 27.7667 240.862 26.6C241.996 25.4 243.329 24.45 244.862 23.75C246.429 23.05 248.146 22.7 250.012 22.7C251.979 22.7 253.729 23.0333 255.262 23.7C256.796 24.3333 258.079 25.2333 259.112 26.4C260.146 27.5333 260.929 28.8833 261.462 30.45C261.996 32.0167 262.262 33.7167 262.262 35.55C262.262 35.7833 262.262 35.9833 262.262 36.15C262.229 36.35 262.212 36.5333 262.212 36.7C262.179 36.8667 262.162 37.05 262.162 37.25H243.712C243.846 38.25 244.112 39.1167 244.512 39.85C244.946 40.55 245.462 41.15 246.062 41.65C246.696 42.1167 247.379 42.4667 248.112 42.7C248.846 42.9 249.596 43 250.362 43C251.862 43 253.096 42.6667 254.062 42C255.062 41.3 255.846 40.4333 256.412 39.4L261.862 42.1ZM255.912 32.6C255.879 32.1667 255.729 31.6833 255.462 31.15C255.229 30.6167 254.862 30.1167 254.362 29.65C253.896 29.1833 253.296 28.8 252.562 28.5C251.862 28.2 251.012 28.05 250.012 28.05C248.612 28.05 247.379 28.45 246.312 29.25C245.246 30.05 244.496 31.1667 244.062 32.6H255.912ZM272.596 26.7H272.996C273.762 25.4667 274.796 24.5 276.096 23.8C277.396 23.0667 278.879 22.7 280.546 22.7C282.079 22.7 283.429 22.95 284.596 23.45C285.762 23.95 286.712 24.6667 287.446 25.6C288.212 26.5 288.779 27.6 289.146 28.9C289.546 30.1667 289.746 31.5833 289.746 33.15V48H283.196V33.95C283.196 32.1833 282.796 30.8833 281.996 30.05C281.229 29.1833 280.096 28.75 278.596 28.75C277.696 28.75 276.896 28.95 276.196 29.35C275.529 29.7167 274.946 30.2333 274.446 30.9C273.979 31.5333 273.612 32.3 273.346 33.2C273.112 34.0667 272.996 35 272.996 36V48H266.446V23.5H272.596V26.7ZM318.406 41.75C317.34 43.8167 315.84 45.5167 313.906 46.85C312.006 48.15 309.623 48.8 306.756 48.8C304.856 48.8 303.106 48.4833 301.506 47.85C299.94 47.1833 298.573 46.2667 297.406 45.1C296.273 43.9333 295.373 42.5667 294.706 41C294.073 39.4 293.756 37.65 293.756 35.75C293.756 33.85 294.073 32.1 294.706 30.5C295.373 28.9 296.273 27.5333 297.406 26.4C298.573 25.2333 299.94 24.3333 301.506 23.7C303.106 23.0333 304.856 22.7 306.756 22.7C309.59 22.7 311.973 23.35 313.906 24.65C315.84 25.95 317.256 27.6333 318.156 29.7L312.156 32.2C311.59 31.0667 310.856 30.2167 309.956 29.65C309.09 29.05 307.99 28.75 306.656 28.75C305.79 28.75 304.973 28.9167 304.206 29.25C303.44 29.5833 302.756 30.05 302.156 30.65C301.59 31.25 301.14 31.9833 300.806 32.85C300.473 33.7167 300.306 34.6833 300.306 35.75C300.306 36.8167 300.473 37.7833 300.806 38.65C301.14 39.5167 301.59 40.25 302.156 40.85C302.756 41.45 303.44 41.9167 304.206 42.25C304.973 42.5833 305.79 42.75 306.656 42.75C308.023 42.75 309.173 42.45 310.106 41.85C311.073 41.2167 311.84 40.3167 312.406 39.15L318.406 41.75ZM333.758 22.7C335.658 22.7 337.392 23.0333 338.958 23.7C340.558 24.3333 341.925 25.2333 343.058 26.4C344.225 27.5333 345.125 28.9 345.758 30.5C346.425 32.1 346.758 33.85 346.758 35.75C346.758 37.65 346.425 39.4 345.758 41C345.125 42.6 344.225 43.9833 343.058 45.15C341.925 46.2833 340.558 47.1833 338.958 47.85C337.392 48.4833 335.658 48.8 333.758 48.8C331.858 48.8 330.108 48.4833 328.508 47.85C326.942 47.1833 325.575 46.2833 324.408 45.15C323.275 43.9833 322.375 42.6 321.708 41C321.075 39.4 320.758 37.65 320.758 35.75C320.758 33.85 321.075 32.1 321.708 30.5C322.375 28.9 323.275 27.5333 324.408 26.4C325.575 25.2333 326.942 24.3333 328.508 23.7C330.108 23.0333 331.858 22.7 333.758 22.7ZM333.758 42.75C334.592 42.75 335.392 42.6 336.158 42.3C336.958 41.9667 337.658 41.5 338.258 40.9C338.858 40.3 339.325 39.5667 339.658 38.7C340.025 37.8333 340.208 36.85 340.208 35.75C340.208 34.65 340.025 33.6667 339.658 32.8C339.325 31.9333 338.858 31.2 338.258 30.6C337.658 30 336.958 29.55 336.158 29.25C335.392 28.9167 334.592 28.75 333.758 28.75C332.892 28.75 332.075 28.9167 331.308 29.25C330.542 29.55 329.858 30 329.258 30.6C328.658 31.2 328.175 31.9333 327.808 32.8C327.475 33.6667 327.308 34.65 327.308 35.75C327.308 36.85 327.475 37.8333 327.808 38.7C328.175 39.5667 328.658 40.3 329.258 40.9C329.858 41.5 330.542 41.9667 331.308 42.3C332.075 42.6 332.892 42.75 333.758 42.75ZM356.629 26.7H357.029C357.795 25.4667 358.829 24.5 360.129 23.8C361.429 23.0667 362.912 22.7 364.579 22.7C366.112 22.7 367.462 22.95 368.629 23.45C369.795 23.95 370.745 24.6667 371.479 25.6C372.245 26.5 372.812 27.6 373.179 28.9C373.579 30.1667 373.779 31.5833 373.779 33.15V48H367.229V33.95C367.229 32.1833 366.829 30.8833 366.029 30.05C365.262 29.1833 364.129 28.75 362.629 28.75C361.729 28.75 360.929 28.95 360.229 29.35C359.562 29.7167 358.979 30.2333 358.479 30.9C358.012 31.5333 357.645 32.3 357.379 33.2C357.145 34.0667 357.029 35 357.029 36V48H350.479V23.5H356.629V26.7ZM380.62 29.1H376.32V23.5H380.62V16H387.17V23.5H393.17V29.1H387.17V38.6C387.17 39.1667 387.22 39.7 387.32 40.2C387.453 40.6667 387.687 41.0667 388.02 41.4C388.487 41.9333 389.153 42.2 390.02 42.2C390.587 42.2 391.037 42.15 391.37 42.05C391.703 41.9167 392.02 41.75 392.32 41.55L394.17 47.3C393.403 47.6667 392.57 47.9333 391.67 48.1C390.803 48.3 389.837 48.4 388.77 48.4C387.537 48.4 386.42 48.2167 385.42 47.85C384.453 47.45 383.637 46.9167 382.97 46.25C381.403 44.75 380.62 42.6167 380.62 39.85V29.1ZM397.988 23.5H404.138V26.9H404.538C404.838 26.3 405.238 25.75 405.738 25.25C406.238 24.75 406.788 24.3167 407.388 23.95C408.022 23.5833 408.688 23.3 409.388 23.1C410.122 22.9 410.838 22.8 411.538 22.8C412.405 22.8 413.138 22.8833 413.738 23.05C414.372 23.2167 414.905 23.4333 415.338 23.7L413.588 29.65C413.188 29.45 412.738 29.3 412.238 29.2C411.772 29.0667 411.188 29 410.488 29C409.588 29 408.772 29.1833 408.038 29.55C407.305 29.8833 406.672 30.3667 406.138 31C405.638 31.6333 405.238 32.3833 404.938 33.25C404.672 34.0833 404.538 35 404.538 36V48H397.988V23.5ZM440.036 42.1C438.903 44.1 437.369 45.7167 435.436 46.95C433.536 48.1833 431.203 48.8 428.436 48.8C426.569 48.8 424.836 48.4833 423.236 47.85C421.669 47.1833 420.303 46.2667 419.136 45.1C417.969 43.9333 417.053 42.5667 416.386 41C415.753 39.4 415.436 37.65 415.436 35.75C415.436 33.9833 415.753 32.3167 416.386 30.75C417.019 29.15 417.903 27.7667 419.036 26.6C420.169 25.4 421.503 24.45 423.036 23.75C424.603 23.05 426.319 22.7 428.186 22.7C430.153 22.7 431.903 23.0333 433.436 23.7C434.969 24.3333 436.253 25.2333 437.286 26.4C438.319 27.5333 439.103 28.8833 439.636 30.45C440.169 32.0167 440.436 33.7167 440.436 35.55C440.436 35.7833 440.436 35.9833 440.436 36.15C440.403 36.35 440.386 36.5333 440.386 36.7C440.353 36.8667 440.336 37.05 440.336 37.25H421.886C422.019 38.25 422.286 39.1167 422.686 39.85C423.119 40.55 423.636 41.15 424.236 41.65C424.869 42.1167 425.553 42.4667 426.286 42.7C427.019 42.9 427.769 43 428.536 43C430.036 43 431.269 42.6667 432.236 42C433.236 41.3 434.019 40.4333 434.586 39.4L440.036 42.1ZM434.086 32.6C434.053 32.1667 433.903 31.6833 433.636 31.15C433.403 30.6167 433.036 30.1167 432.536 29.65C432.069 29.1833 431.469 28.8 430.736 28.5C430.036 28.2 429.186 28.05 428.186 28.05C426.786 28.05 425.553 28.45 424.486 29.25C423.419 30.05 422.669 31.1667 422.236 32.6H434.086ZM455.406 23.5H461.556V26.45H461.956C462.556 25.4167 463.489 24.5333 464.756 23.8C466.022 23.0667 467.589 22.7 469.456 22.7C471.022 22.7 472.506 23.0333 473.906 23.7C475.339 24.3333 476.589 25.2333 477.656 26.4C478.756 27.5333 479.622 28.9 480.256 30.5C480.889 32.1 481.206 33.85 481.206 35.75C481.206 37.65 480.889 39.4 480.256 41C479.622 42.6 478.756 43.9833 477.656 45.15C476.589 46.2833 475.339 47.1833 473.906 47.85C472.506 48.4833 471.022 48.8 469.456 48.8C467.589 48.8 466.022 48.4333 464.756 47.7C463.489 46.9667 462.556 46.0833 461.956 45.05H461.556L461.956 48.55V58.8H455.406V23.5ZM468.106 42.75C468.972 42.75 469.789 42.5833 470.556 42.25C471.356 41.9167 472.056 41.45 472.656 40.85C473.256 40.25 473.739 39.5167 474.106 38.65C474.472 37.7833 474.656 36.8167 474.656 35.75C474.656 34.6833 474.472 33.7167 474.106 32.85C473.739 31.9833 473.256 31.25 472.656 30.65C472.056 30.05 471.356 29.5833 470.556 29.25C469.789 28.9167 468.972 28.75 468.106 28.75C467.239 28.75 466.406 28.9167 465.606 29.25C464.839 29.55 464.156 30 463.556 30.6C462.956 31.2 462.472 31.9333 462.106 32.8C461.739 33.6667 461.556 34.65 461.556 35.75C461.556 36.85 461.739 37.8333 462.106 38.7C462.472 39.5667 462.956 40.3 463.556 40.9C464.156 41.5 464.839 41.9667 465.606 42.3C466.406 42.6 467.239 42.75 468.106 42.75ZM496.991 22.7C498.891 22.7 500.624 23.0333 502.191 23.7C503.791 24.3333 505.157 25.2333 506.291 26.4C507.457 27.5333 508.357 28.9 508.991 30.5C509.657 32.1 509.991 33.85 509.991 35.75C509.991 37.65 509.657 39.4 508.991 41C508.357 42.6 507.457 43.9833 506.291 45.15C505.157 46.2833 503.791 47.1833 502.191 47.85C500.624 48.4833 498.891 48.8 496.991 48.8C495.091 48.8 493.341 48.4833 491.741 47.85C490.174 47.1833 488.807 46.2833 487.641 45.15C486.507 43.9833 485.607 42.6 484.941 41C484.307 39.4 483.991 37.65 483.991 35.75C483.991 33.85 484.307 32.1 484.941 30.5C485.607 28.9 486.507 27.5333 487.641 26.4C488.807 25.2333 490.174 24.3333 491.741 23.7C493.341 23.0333 495.091 22.7 496.991 22.7ZM496.991 42.75C497.824 42.75 498.624 42.6 499.391 42.3C500.191 41.9667 500.891 41.5 501.491 40.9C502.091 40.3 502.557 39.5667 502.891 38.7C503.257 37.8333 503.441 36.85 503.441 35.75C503.441 34.65 503.257 33.6667 502.891 32.8C502.557 31.9333 502.091 31.2 501.491 30.6C500.891 30 500.191 29.55 499.391 29.25C498.624 28.9167 497.824 28.75 496.991 28.75C496.124 28.75 495.307 28.9167 494.541 29.25C493.774 29.55 493.091 30 492.491 30.6C491.891 31.2 491.407 31.9333 491.041 32.8C490.707 33.6667 490.541 34.65 490.541 35.75C490.541 36.85 490.707 37.8333 491.041 38.7C491.407 39.5667 491.891 40.3 492.491 40.9C493.091 41.5 493.774 41.9667 494.541 42.3C495.307 42.6 496.124 42.75 496.991 42.75ZM513.711 23.5H519.861V26.9H520.261C520.561 26.3 520.961 25.75 521.461 25.25C521.961 24.75 522.511 24.3167 523.111 23.95C523.744 23.5833 524.411 23.3 525.111 23.1C525.844 22.9 526.561 22.8 527.261 22.8C528.128 22.8 528.861 22.8833 529.461 23.05C530.094 23.2167 530.628 23.4333 531.061 23.7L529.311 29.65C528.911 29.45 528.461 29.3 527.961 29.2C527.494 29.0667 526.911 29 526.211 29C525.311 29 524.494 29.1833 523.761 29.55C523.028 29.8833 522.394 30.3667 521.861 31C521.361 31.6333 520.961 32.3833 520.661 33.25C520.394 34.0833 520.261 35 520.261 36V48H513.711V23.5ZM538.022 48.3C536.822 48.3 535.789 47.8833 534.922 47.05C534.089 46.1833 533.672 45.15 533.672 43.95C533.672 42.75 534.089 41.7333 534.922 40.9C535.789 40.0667 536.822 39.65 538.022 39.65C539.222 39.65 540.239 40.0667 541.072 40.9C541.906 41.7333 542.322 42.75 542.322 43.95C542.322 45.15 541.906 46.1833 541.072 47.05C540.239 47.8833 539.222 48.3 538.022 48.3ZM538.022 31.55C536.822 31.55 535.789 31.1333 534.922 30.3C534.089 29.4333 533.672 28.4 533.672 27.2C533.672 26 534.089 24.9833 534.922 24.15C535.789 23.2833 536.822 22.85 538.022 22.85C539.222 22.85 540.239 23.2833 541.072 24.15C541.906 24.9833 542.322 26 542.322 27.2C542.322 28.4 541.906 29.4333 541.072 30.3C540.239 31.1333 539.222 31.55 538.022 31.55Z" fill="#474747"/>
<path d="M5.38053 246.26H7.69053L11.7255 257H9.49053L8.60553 254.435H4.46553L3.58053 257H1.34553L5.38053 246.26ZM7.94553 252.575L6.98553 249.89L6.59553 248.585H6.47553L6.08553 249.89L5.12553 252.575H7.94553ZM11.2158 249.65H13.4508L15.2808 254.33H15.3858L17.2308 249.65H19.4508L16.2858 257H14.3508L11.2158 249.65ZM24.7289 256.22H24.6089C24.3789 256.5 24.0989 256.74 23.7689 256.94C23.4489 257.14 23.0339 257.24 22.5239 257.24C22.1439 257.24 21.7839 257.175 21.4439 257.045C21.1139 256.925 20.8239 256.755 20.5739 256.535C20.3239 256.315 20.1289 256.05 19.9889 255.74C19.8489 255.43 19.7789 255.09 19.7789 254.72C19.7789 254.34 19.8539 254 20.0039 253.7C20.1539 253.39 20.3639 253.125 20.6339 252.905C20.9039 252.685 21.2189 252.52 21.5789 252.41C21.9489 252.29 22.3489 252.23 22.7789 252.23C23.2589 252.23 23.6539 252.27 23.9639 252.35C24.2739 252.42 24.5289 252.495 24.7289 252.575V252.35C24.7289 251.96 24.5739 251.64 24.2639 251.39C23.9539 251.13 23.5689 251 23.1089 251C22.4289 251 21.8539 251.285 21.3839 251.855L19.9589 250.88C20.7389 249.9 21.8039 249.41 23.1539 249.41C24.2939 249.41 25.1639 249.68 25.7639 250.22C26.3639 250.75 26.6639 251.54 26.6639 252.59V257H24.7289V256.22ZM24.7289 254.015C24.4989 253.905 24.2589 253.82 24.0089 253.76C23.7689 253.69 23.5039 253.655 23.2139 253.655C22.7439 253.655 22.3789 253.76 22.1189 253.97C21.8689 254.17 21.7439 254.42 21.7439 254.72C21.7439 255.02 21.8639 255.26 22.1039 255.44C22.3539 255.62 22.6389 255.71 22.9589 255.71C23.2189 255.71 23.4589 255.665 23.6789 255.575C23.8989 255.475 24.0839 255.35 24.2339 255.2C24.3939 255.04 24.5139 254.86 24.5939 254.66C24.6839 254.45 24.7289 254.235 24.7289 254.015ZM28.2262 257V246.26H30.1912V257H28.2262ZM32.9687 248.585C32.7987 248.585 32.6337 248.555 32.4737 248.495C32.3237 248.425 32.1887 248.335 32.0687 248.225C31.9587 248.105 31.8687 247.97 31.7987 247.82C31.7387 247.67 31.7087 247.505 31.7087 247.325C31.7087 247.145 31.7387 246.98 31.7987 246.83C31.8687 246.68 31.9587 246.55 32.0687 246.44C32.1887 246.32 32.3237 246.23 32.4737 246.17C32.6337 246.1 32.7987 246.065 32.9687 246.065C33.3187 246.065 33.6187 246.19 33.8687 246.44C34.1187 246.68 34.2437 246.975 34.2437 247.325C34.2437 247.675 34.1187 247.975 33.8687 248.225C33.6187 248.465 33.3187 248.585 32.9687 248.585ZM31.9937 257V249.65H33.9587V257H31.9937ZM40.2123 256.22H40.0923C39.8623 256.5 39.5823 256.74 39.2523 256.94C38.9323 257.14 38.5173 257.24 38.0073 257.24C37.6273 257.24 37.2673 257.175 36.9273 257.045C36.5973 256.925 36.3073 256.755 36.0573 256.535C35.8073 256.315 35.6123 256.05 35.4723 255.74C35.3323 255.43 35.2623 255.09 35.2623 254.72C35.2623 254.34 35.3373 254 35.4873 253.7C35.6373 253.39 35.8473 253.125 36.1173 252.905C36.3873 252.685 36.7023 252.52 37.0623 252.41C37.4323 252.29 37.8323 252.23 38.2623 252.23C38.7423 252.23 39.1373 252.27 39.4473 252.35C39.7573 252.42 40.0123 252.495 40.2123 252.575V252.35C40.2123 251.96 40.0573 251.64 39.7473 251.39C39.4373 251.13 39.0523 251 38.5923 251C37.9123 251 37.3373 251.285 36.8673 251.855L35.4423 250.88C36.2223 249.9 37.2873 249.41 38.6373 249.41C39.7773 249.41 40.6473 249.68 41.2473 250.22C41.8473 250.75 42.1473 251.54 42.1473 252.59V257H40.2123V256.22ZM40.2123 254.015C39.9823 253.905 39.7423 253.82 39.4923 253.76C39.2523 253.69 38.9873 253.655 38.6973 253.655C38.2273 253.655 37.8623 253.76 37.6023 253.97C37.3523 254.17 37.2273 254.42 37.2273 254.72C37.2273 255.02 37.3473 255.26 37.5873 255.44C37.8373 255.62 38.1223 255.71 38.4423 255.71C38.7023 255.71 38.9423 255.665 39.1623 255.575C39.3823 255.475 39.5673 255.35 39.7173 255.2C39.8773 255.04 39.9973 254.86 40.0773 254.66C40.1673 254.45 40.2123 254.235 40.2123 254.015ZM47.2064 260.555C46.8464 260.555 46.5364 260.46 46.2764 260.27C46.0164 260.08 45.8314 259.845 45.7214 259.565L46.6814 259.16C46.7214 259.28 46.7864 259.38 46.8764 259.46C46.9664 259.54 47.0764 259.58 47.2064 259.58C47.3664 259.58 47.4864 259.53 47.5664 259.43C47.6564 259.34 47.7014 259.23 47.7014 259.1C47.7014 258.97 47.6564 258.85 47.5664 258.74C47.4864 258.64 47.3664 258.59 47.2064 258.59C47.1164 258.59 47.0364 258.61 46.9664 258.65C46.9064 258.7 46.8514 258.75 46.8014 258.8L45.8864 258.38L46.3514 257.165C45.8814 257.085 45.4564 256.935 45.0764 256.715C44.6964 256.495 44.3664 256.22 44.0864 255.89C43.8064 255.55 43.5914 255.165 43.4414 254.735C43.2914 254.295 43.2164 253.825 43.2164 253.325C43.2164 252.755 43.3114 252.23 43.5014 251.75C43.7014 251.27 43.9714 250.86 44.3114 250.52C44.6614 250.17 45.0714 249.9 45.5414 249.71C46.0214 249.51 46.5464 249.41 47.1164 249.41C47.9664 249.41 48.6814 249.605 49.2614 249.995C49.8414 250.385 50.2664 250.89 50.5364 251.51L48.7364 252.26C48.5664 251.92 48.3464 251.665 48.0764 251.495C47.8164 251.315 47.4864 251.225 47.0864 251.225C46.8264 251.225 46.5814 251.275 46.3514 251.375C46.1214 251.475 45.9164 251.615 45.7364 251.795C45.5664 251.975 45.4314 252.195 45.3314 252.455C45.2314 252.715 45.1814 253.005 45.1814 253.325C45.1814 253.645 45.2314 253.935 45.3314 254.195C45.4314 254.455 45.5664 254.675 45.7364 254.855C45.9164 255.035 46.1214 255.175 46.3514 255.275C46.5814 255.375 46.8264 255.425 47.0864 255.425C47.4964 255.425 47.8414 255.335 48.1214 255.155C48.4114 254.965 48.6414 254.695 48.8114 254.345L50.6114 255.125C50.3114 255.725 49.8914 256.215 49.3514 256.595C48.8114 256.975 48.1414 257.19 47.3414 257.24L47.1314 257.705C47.1814 257.695 47.2264 257.69 47.2664 257.69C47.3064 257.69 47.3514 257.69 47.4014 257.69C47.7914 257.69 48.1214 257.815 48.3914 258.065C48.6714 258.315 48.8114 258.665 48.8114 259.115C48.8114 259.535 48.6614 259.88 48.3614 260.15C48.0714 260.42 47.6864 260.555 47.2064 260.555ZM55.217 249.41C55.787 249.41 56.307 249.51 56.777 249.71C57.257 249.9 57.667 250.17 58.007 250.52C58.357 250.86 58.627 251.27 58.817 251.75C59.017 252.23 59.117 252.755 59.117 253.325C59.117 253.895 59.017 254.42 58.817 254.9C58.627 255.38 58.357 255.795 58.007 256.145C57.667 256.485 57.257 256.755 56.777 256.955C56.307 257.145 55.787 257.24 55.217 257.24C54.647 257.24 54.122 257.145 53.642 256.955C53.172 256.755 52.762 256.485 52.412 256.145C52.072 255.795 51.802 255.38 51.602 254.9C51.412 254.42 51.317 253.895 51.317 253.325C51.317 252.755 51.412 252.23 51.602 251.75C51.802 251.27 52.072 250.86 52.412 250.52C52.762 250.17 53.172 249.9 53.642 249.71C54.122 249.51 54.647 249.41 55.217 249.41ZM55.217 255.425C55.467 255.425 55.707 255.38 55.937 255.29C56.177 255.19 56.387 255.05 56.567 254.87C56.747 254.69 56.887 254.47 56.987 254.21C57.097 253.95 57.152 253.655 57.152 253.325C57.152 252.995 57.097 252.7 56.987 252.44C56.887 252.18 56.747 251.96 56.567 251.78C56.387 251.6 56.177 251.465 55.937 251.375C55.707 251.275 55.467 251.225 55.217 251.225C54.957 251.225 54.712 251.275 54.482 251.375C54.252 251.465 54.047 251.6 53.867 251.78C53.687 251.96 53.542 252.18 53.432 252.44C53.332 252.7 53.282 252.995 53.282 253.325C53.282 253.655 53.332 253.95 53.432 254.21C53.542 254.47 53.687 254.69 53.867 254.87C54.047 255.05 54.252 255.19 54.482 255.29C54.712 255.38 54.957 255.425 55.217 255.425ZM56.132 248.18C55.922 248.18 55.727 248.15 55.547 248.09C55.367 248.02 55.202 247.94 55.052 247.85C54.902 247.77 54.767 247.7 54.647 247.64C54.527 247.57 54.422 247.535 54.332 247.535C54.082 247.535 53.952 247.68 53.942 247.97H52.562C52.562 247.64 52.607 247.355 52.697 247.115C52.797 246.875 52.927 246.68 53.087 246.53C53.257 246.37 53.442 246.25 53.642 246.17C53.852 246.09 54.072 246.05 54.302 246.05C54.512 246.05 54.707 246.085 54.887 246.155C55.077 246.215 55.247 246.285 55.397 246.365C55.547 246.455 55.682 246.535 55.802 246.605C55.922 246.665 56.022 246.695 56.102 246.695C56.342 246.695 56.477 246.55 56.507 246.26H57.887C57.887 246.59 57.837 246.875 57.737 247.115C57.637 247.355 57.507 247.555 57.347 247.715C57.187 247.865 56.997 247.98 56.777 248.06C56.567 248.14 56.352 248.18 56.132 248.18ZM67.3396 255.23C66.9996 255.83 66.5396 256.315 65.9596 256.685C65.3896 257.055 64.6896 257.24 63.8596 257.24C63.2996 257.24 62.7796 257.145 62.2996 256.955C61.8296 256.755 61.4196 256.48 61.0696 256.13C60.7196 255.78 60.4446 255.37 60.2446 254.9C60.0546 254.42 59.9596 253.895 59.9596 253.325C59.9596 252.795 60.0546 252.295 60.2446 251.825C60.4346 251.345 60.6996 250.93 61.0396 250.58C61.3796 250.22 61.7796 249.935 62.2396 249.725C62.7096 249.515 63.2246 249.41 63.7846 249.41C64.3746 249.41 64.8996 249.51 65.3596 249.71C65.8196 249.9 66.2046 250.17 66.5146 250.52C66.8246 250.86 67.0596 251.265 67.2196 251.735C67.3796 252.205 67.4596 252.715 67.4596 253.265C67.4596 253.335 67.4596 253.395 67.4596 253.445C67.4496 253.505 67.4446 253.56 67.4446 253.61C67.4346 253.66 67.4296 253.715 67.4296 253.775H61.8946C61.9346 254.075 62.0146 254.335 62.1346 254.555C62.2646 254.765 62.4196 254.945 62.5996 255.095C62.7896 255.235 62.9946 255.34 63.2146 255.41C63.4346 255.47 63.6596 255.5 63.8896 255.5C64.3396 255.5 64.7096 255.4 64.9996 255.2C65.2996 254.99 65.5346 254.73 65.7046 254.42L67.3396 255.23ZM65.5546 252.38C65.5446 252.25 65.4996 252.105 65.4196 251.945C65.3496 251.785 65.2396 251.635 65.0896 251.495C64.9496 251.355 64.7696 251.24 64.5496 251.15C64.3396 251.06 64.0846 251.015 63.7846 251.015C63.3646 251.015 62.9946 251.135 62.6746 251.375C62.3546 251.615 62.1296 251.95 61.9996 252.38H65.5546ZM71.6978 257.24C71.2178 257.24 70.7878 257.18 70.4078 257.06C70.0378 256.94 69.7128 256.785 69.4328 256.595C69.1628 256.395 68.9328 256.17 68.7428 255.92C68.5528 255.66 68.4078 255.4 68.3078 255.14L70.0628 254.39C70.2328 254.77 70.4578 255.055 70.7378 255.245C71.0278 255.425 71.3478 255.515 71.6978 255.515C72.0578 255.515 72.3428 255.45 72.5528 255.32C72.7628 255.19 72.8678 255.035 72.8678 254.855C72.8678 254.655 72.7778 254.495 72.5978 254.375C72.4278 254.245 72.1278 254.13 71.6978 254.03L70.6628 253.805C70.4328 253.755 70.1928 253.675 69.9428 253.565C69.7028 253.455 69.4828 253.315 69.2828 253.145C69.0828 252.975 68.9178 252.77 68.7878 252.53C68.6578 252.29 68.5928 252.01 68.5928 251.69C68.5928 251.33 68.6678 251.01 68.8178 250.73C68.9778 250.45 69.1928 250.215 69.4628 250.025C69.7328 249.825 70.0478 249.675 70.4078 249.575C70.7778 249.465 71.1728 249.41 71.5928 249.41C72.2928 249.41 72.9178 249.55 73.4678 249.83C74.0178 250.1 74.4228 250.535 74.6828 251.135L72.9878 251.825C72.8478 251.535 72.6428 251.325 72.3728 251.195C72.1028 251.065 71.8328 251 71.5628 251C71.2828 251 71.0378 251.06 70.8278 251.18C70.6178 251.29 70.5128 251.435 70.5128 251.615C70.5128 251.785 70.5978 251.92 70.7678 252.02C70.9478 252.12 71.1878 252.21 71.4878 252.29L72.6128 252.56C73.3628 252.74 73.9178 253.03 74.2778 253.43C74.6478 253.82 74.8328 254.285 74.8328 254.825C74.8328 255.145 74.7578 255.45 74.6078 255.74C74.4578 256.03 74.2428 256.29 73.9628 256.52C73.6928 256.74 73.3628 256.915 72.9728 257.045C72.5928 257.175 72.1678 257.24 71.6978 257.24ZM86.3096 255.125C85.9896 255.745 85.5396 256.255 84.9596 256.655C84.3896 257.045 83.6746 257.24 82.8146 257.24C82.2446 257.24 81.7196 257.145 81.2396 256.955C80.7696 256.755 80.3596 256.48 80.0096 256.13C79.6696 255.78 79.3996 255.37 79.1996 254.9C79.0096 254.42 78.9146 253.895 78.9146 253.325C78.9146 252.755 79.0096 252.23 79.1996 251.75C79.3996 251.27 79.6696 250.86 80.0096 250.52C80.3596 250.17 80.7696 249.9 81.2396 249.71C81.7196 249.51 82.2446 249.41 82.8146 249.41C83.6646 249.41 84.3796 249.605 84.9596 249.995C85.5396 250.385 85.9646 250.89 86.2346 251.51L84.4346 252.26C84.2646 251.92 84.0446 251.665 83.7746 251.495C83.5146 251.315 83.1846 251.225 82.7846 251.225C82.5246 251.225 82.2796 251.275 82.0496 251.375C81.8196 251.475 81.6146 251.615 81.4346 251.795C81.2646 251.975 81.1296 252.195 81.0296 252.455C80.9296 252.715 80.8796 253.005 80.8796 253.325C80.8796 253.645 80.9296 253.935 81.0296 254.195C81.1296 254.455 81.2646 254.675 81.4346 254.855C81.6146 255.035 81.8196 255.175 82.0496 255.275C82.2796 255.375 82.5246 255.425 82.7846 255.425C83.1946 255.425 83.5396 255.335 83.8196 255.155C84.1096 254.965 84.3396 254.695 84.5096 254.345L86.3096 255.125ZM90.9152 249.41C91.4852 249.41 92.0052 249.51 92.4752 249.71C92.9552 249.9 93.3652 250.17 93.7052 250.52C94.0552 250.86 94.3252 251.27 94.5152 251.75C94.7152 252.23 94.8152 252.755 94.8152 253.325C94.8152 253.895 94.7152 254.42 94.5152 254.9C94.3252 255.38 94.0552 255.795 93.7052 256.145C93.3652 256.485 92.9552 256.755 92.4752 256.955C92.0052 257.145 91.4852 257.24 90.9152 257.24C90.3452 257.24 89.8202 257.145 89.3402 256.955C88.8702 256.755 88.4602 256.485 88.1102 256.145C87.7702 255.795 87.5002 255.38 87.3002 254.9C87.1102 254.42 87.0152 253.895 87.0152 253.325C87.0152 252.755 87.1102 252.23 87.3002 251.75C87.5002 251.27 87.7702 250.86 88.1102 250.52C88.4602 250.17 88.8702 249.9 89.3402 249.71C89.8202 249.51 90.3452 249.41 90.9152 249.41ZM90.9152 255.425C91.1652 255.425 91.4052 255.38 91.6352 255.29C91.8752 255.19 92.0852 255.05 92.2652 254.87C92.4452 254.69 92.5852 254.47 92.6852 254.21C92.7952 253.95 92.8502 253.655 92.8502 253.325C92.8502 252.995 92.7952 252.7 92.6852 252.44C92.5852 252.18 92.4452 251.96 92.2652 251.78C92.0852 251.6 91.8752 251.465 91.6352 251.375C91.4052 251.275 91.1652 251.225 90.9152 251.225C90.6552 251.225 90.4102 251.275 90.1802 251.375C89.9502 251.465 89.7452 251.6 89.5652 251.78C89.3852 251.96 89.2402 252.18 89.1302 252.44C89.0302 252.7 88.9802 252.995 88.9802 253.325C88.9802 253.655 89.0302 253.95 89.1302 254.21C89.2402 254.47 89.3852 254.69 89.5652 254.87C89.7452 255.05 89.9502 255.19 90.1802 255.29C90.4102 255.38 90.6552 255.425 90.9152 255.425ZM95.9313 249.65H97.7763V250.61H97.8963C98.1263 250.25 98.4363 249.96 98.8263 249.74C99.2263 249.52 99.6663 249.41 100.146 249.41C100.706 249.41 101.176 249.54 101.556 249.8C101.936 250.06 102.206 250.38 102.366 250.76C102.596 250.39 102.921 250.075 103.341 249.815C103.761 249.545 104.271 249.41 104.871 249.41C105.321 249.41 105.711 249.485 106.041 249.635C106.371 249.775 106.641 249.975 106.851 250.235C107.071 250.495 107.236 250.81 107.346 251.18C107.456 251.54 107.511 251.935 107.511 252.365V257H105.546V252.725C105.546 251.725 105.136 251.225 104.316 251.225C104.056 251.225 103.826 251.285 103.626 251.405C103.426 251.515 103.256 251.67 103.116 251.87C102.986 252.06 102.881 252.29 102.801 252.56C102.731 252.83 102.696 253.12 102.696 253.43V257H100.731V252.725C100.731 251.725 100.301 251.225 99.4413 251.225C99.1913 251.225 98.9713 251.285 98.7813 251.405C98.5913 251.515 98.4313 251.67 98.3013 251.87C98.1713 252.06 98.0713 252.29 98.0013 252.56C97.9313 252.83 97.8963 253.12 97.8963 253.43V257H95.9313V249.65ZM112.665 246.26H116.295C117.145 246.26 117.91 246.39 118.59 246.65C119.27 246.91 119.85 247.28 120.33 247.76C120.81 248.23 121.175 248.795 121.425 249.455C121.685 250.115 121.815 250.84 121.815 251.63C121.815 252.43 121.685 253.16 121.425 253.82C121.175 254.48 120.81 255.045 120.33 255.515C119.85 255.985 119.27 256.35 118.59 256.61C117.91 256.87 117.145 257 116.295 257H112.665V246.26ZM116.205 255.08C116.795 255.08 117.315 255 117.765 254.84C118.215 254.67 118.59 254.435 118.89 254.135C119.19 253.835 119.415 253.475 119.565 253.055C119.715 252.625 119.79 252.15 119.79 251.63C119.79 251.11 119.715 250.64 119.565 250.22C119.415 249.79 119.19 249.425 118.89 249.125C118.59 248.825 118.215 248.595 117.765 248.435C117.315 248.265 116.795 248.18 116.205 248.18H114.69V255.08H116.205ZM129.947 255.23C129.607 255.83 129.147 256.315 128.567 256.685C127.997 257.055 127.297 257.24 126.467 257.24C125.907 257.24 125.387 257.145 124.907 256.955C124.437 256.755 124.027 256.48 123.677 256.13C123.327 255.78 123.052 255.37 122.852 254.9C122.662 254.42 122.567 253.895 122.567 253.325C122.567 252.795 122.662 252.295 122.852 251.825C123.042 251.345 123.307 250.93 123.647 250.58C123.987 250.22 124.387 249.935 124.847 249.725C125.317 249.515 125.832 249.41 126.392 249.41C126.982 249.41 127.507 249.51 127.967 249.71C128.427 249.9 128.812 250.17 129.122 250.52C129.432 250.86 129.667 251.265 129.827 251.735C129.987 252.205 130.067 252.715 130.067 253.265C130.067 253.335 130.067 253.395 130.067 253.445C130.057 253.505 130.052 253.56 130.052 253.61C130.042 253.66 130.037 253.715 130.037 253.775H124.502C124.542 254.075 124.622 254.335 124.742 254.555C124.872 254.765 125.027 254.945 125.207 255.095C125.397 255.235 125.602 255.34 125.822 255.41C126.042 255.47 126.267 255.5 126.497 255.5C126.947 255.5 127.317 255.4 127.607 255.2C127.907 254.99 128.142 254.73 128.312 254.42L129.947 255.23ZM128.162 252.38C128.152 252.25 128.107 252.105 128.027 251.945C127.957 251.785 127.847 251.635 127.697 251.495C127.557 251.355 127.377 251.24 127.157 251.15C126.947 251.06 126.692 251.015 126.392 251.015C125.972 251.015 125.602 251.135 125.282 251.375C124.962 251.615 124.737 251.95 124.607 252.38H128.162ZM134.305 257.24C133.825 257.24 133.395 257.18 133.015 257.06C132.645 256.94 132.32 256.785 132.04 256.595C131.77 256.395 131.54 256.17 131.35 255.92C131.16 255.66 131.015 255.4 130.915 255.14L132.67 254.39C132.84 254.77 133.065 255.055 133.345 255.245C133.635 255.425 133.955 255.515 134.305 255.515C134.665 255.515 134.95 255.45 135.16 255.32C135.37 255.19 135.475 255.035 135.475 254.855C135.475 254.655 135.385 254.495 135.205 254.375C135.035 254.245 134.735 254.13 134.305 254.03L133.27 253.805C133.04 253.755 132.8 253.675 132.55 253.565C132.31 253.455 132.09 253.315 131.89 253.145C131.69 252.975 131.525 252.77 131.395 252.53C131.265 252.29 131.2 252.01 131.2 251.69C131.2 251.33 131.275 251.01 131.425 250.73C131.585 250.45 131.8 250.215 132.07 250.025C132.34 249.825 132.655 249.675 133.015 249.575C133.385 249.465 133.78 249.41 134.2 249.41C134.9 249.41 135.525 249.55 136.075 249.83C136.625 250.1 137.03 250.535 137.29 251.135L135.595 251.825C135.455 251.535 135.25 251.325 134.98 251.195C134.71 251.065 134.44 251 134.17 251C133.89 251 133.645 251.06 133.435 251.18C133.225 251.29 133.12 251.435 133.12 251.615C133.12 251.785 133.205 251.92 133.375 252.02C133.555 252.12 133.795 252.21 134.095 252.29L135.22 252.56C135.97 252.74 136.525 253.03 136.885 253.43C137.255 253.82 137.44 254.285 137.44 254.825C137.44 255.145 137.365 255.45 137.215 255.74C137.065 256.03 136.85 256.29 136.57 256.52C136.3 256.74 135.97 256.915 135.58 257.045C135.2 257.175 134.775 257.24 134.305 257.24ZM145.694 255.125C145.374 255.745 144.924 256.255 144.344 256.655C143.774 257.045 143.059 257.24 142.199 257.24C141.629 257.24 141.104 257.145 140.624 256.955C140.154 256.755 139.744 256.48 139.394 256.13C139.054 255.78 138.784 255.37 138.584 254.9C138.394 254.42 138.299 253.895 138.299 253.325C138.299 252.755 138.394 252.23 138.584 251.75C138.784 251.27 139.054 250.86 139.394 250.52C139.744 250.17 140.154 249.9 140.624 249.71C141.104 249.51 141.629 249.41 142.199 249.41C143.049 249.41 143.764 249.605 144.344 249.995C144.924 250.385 145.349 250.89 145.619 251.51L143.819 252.26C143.649 251.92 143.429 251.665 143.159 251.495C142.899 251.315 142.569 251.225 142.169 251.225C141.909 251.225 141.664 251.275 141.434 251.375C141.204 251.475 140.999 251.615 140.819 251.795C140.649 251.975 140.514 252.195 140.414 252.455C140.314 252.715 140.264 253.005 140.264 253.325C140.264 253.645 140.314 253.935 140.414 254.195C140.514 254.455 140.649 254.675 140.819 254.855C140.999 255.035 141.204 255.175 141.434 255.275C141.664 255.375 141.909 255.425 142.169 255.425C142.579 255.425 142.924 255.335 143.204 255.155C143.494 254.965 143.724 254.695 143.894 254.345L145.694 255.125ZM146.82 249.65H148.665V250.67H148.785C148.875 250.49 148.995 250.325 149.145 250.175C149.295 250.025 149.46 249.895 149.64 249.785C149.83 249.675 150.03 249.59 150.24 249.53C150.46 249.47 150.675 249.44 150.885 249.44C151.145 249.44 151.365 249.465 151.545 249.515C151.735 249.565 151.895 249.63 152.025 249.71L151.5 251.495C151.38 251.435 151.245 251.39 151.095 251.36C150.955 251.32 150.78 251.3 150.57 251.3C150.3 251.3 150.055 251.355 149.835 251.465C149.615 251.565 149.425 251.71 149.265 251.9C149.115 252.09 148.995 252.315 148.905 252.575C148.825 252.825 148.785 253.1 148.785 253.4V257H146.82V249.65ZM154.023 248.585C153.853 248.585 153.688 248.555 153.528 248.495C153.378 248.425 153.243 248.335 153.123 248.225C153.013 248.105 152.923 247.97 152.853 247.82C152.793 247.67 152.763 247.505 152.763 247.325C152.763 247.145 152.793 246.98 152.853 246.83C152.923 246.68 153.013 246.55 153.123 246.44C153.243 246.32 153.378 246.23 153.528 246.17C153.688 246.1 153.853 246.065 154.023 246.065C154.373 246.065 154.673 246.19 154.923 246.44C155.173 246.68 155.298 246.975 155.298 247.325C155.298 247.675 155.173 247.975 154.923 248.225C154.673 248.465 154.373 248.585 154.023 248.585ZM153.048 257V249.65H155.013V257H153.048ZM160.307 260.555C159.947 260.555 159.637 260.46 159.377 260.27C159.117 260.08 158.932 259.845 158.822 259.565L159.782 259.16C159.822 259.28 159.887 259.38 159.977 259.46C160.067 259.54 160.177 259.58 160.307 259.58C160.467 259.58 160.587 259.53 160.667 259.43C160.757 259.34 160.802 259.23 160.802 259.1C160.802 258.97 160.757 258.85 160.667 258.74C160.587 258.64 160.467 258.59 160.307 258.59C160.217 258.59 160.137 258.61 160.067 258.65C160.007 258.7 159.952 258.75 159.902 258.8L158.987 258.38L159.452 257.165C158.982 257.085 158.557 256.935 158.177 256.715C157.797 256.495 157.467 256.22 157.187 255.89C156.907 255.55 156.692 255.165 156.542 254.735C156.392 254.295 156.317 253.825 156.317 253.325C156.317 252.755 156.412 252.23 156.602 251.75C156.802 251.27 157.072 250.86 157.412 250.52C157.762 250.17 158.172 249.9 158.642 249.71C159.122 249.51 159.647 249.41 160.217 249.41C161.067 249.41 161.782 249.605 162.362 249.995C162.942 250.385 163.367 250.89 163.637 251.51L161.837 252.26C161.667 251.92 161.447 251.665 161.177 251.495C160.917 251.315 160.587 251.225 160.187 251.225C159.927 251.225 159.682 251.275 159.452 251.375C159.222 251.475 159.017 251.615 158.837 251.795C158.667 251.975 158.532 252.195 158.432 252.455C158.332 252.715 158.282 253.005 158.282 253.325C158.282 253.645 158.332 253.935 158.432 254.195C158.532 254.455 158.667 254.675 158.837 254.855C159.017 255.035 159.222 255.175 159.452 255.275C159.682 255.375 159.927 255.425 160.187 255.425C160.597 255.425 160.942 255.335 161.222 255.155C161.512 254.965 161.742 254.695 161.912 254.345L163.712 255.125C163.412 255.725 162.992 256.215 162.452 256.595C161.912 256.975 161.242 257.19 160.442 257.24L160.232 257.705C160.282 257.695 160.327 257.69 160.367 257.69C160.407 257.69 160.452 257.69 160.502 257.69C160.892 257.69 161.222 257.815 161.492 258.065C161.772 258.315 161.912 258.665 161.912 259.115C161.912 259.535 161.762 259.88 161.462 260.15C161.172 260.42 160.787 260.555 160.307 260.555ZM169.368 256.22H169.248C169.018 256.5 168.738 256.74 168.408 256.94C168.088 257.14 167.673 257.24 167.163 257.24C166.783 257.24 166.423 257.175 166.083 257.045C165.753 256.925 165.463 256.755 165.213 256.535C164.963 256.315 164.768 256.05 164.628 255.74C164.488 255.43 164.418 255.09 164.418 254.72C164.418 254.34 164.493 254 164.643 253.7C164.793 253.39 165.003 253.125 165.273 252.905C165.543 252.685 165.858 252.52 166.218 252.41C166.588 252.29 166.988 252.23 167.418 252.23C167.898 252.23 168.293 252.27 168.603 252.35C168.913 252.42 169.168 252.495 169.368 252.575V252.35C169.368 251.96 169.213 251.64 168.903 251.39C168.593 251.13 168.208 251 167.748 251C167.068 251 166.493 251.285 166.023 251.855L164.598 250.88C165.378 249.9 166.443 249.41 167.793 249.41C168.933 249.41 169.803 249.68 170.403 250.22C171.003 250.75 171.303 251.54 171.303 252.59V257H169.368V256.22ZM169.368 254.015C169.138 253.905 168.898 253.82 168.648 253.76C168.408 253.69 168.143 253.655 167.853 253.655C167.383 253.655 167.018 253.76 166.758 253.97C166.508 254.17 166.383 254.42 166.383 254.72C166.383 255.02 166.503 255.26 166.743 255.44C166.993 255.62 167.278 255.71 167.598 255.71C167.858 255.71 168.098 255.665 168.318 255.575C168.538 255.475 168.723 255.35 168.873 255.2C169.033 255.04 169.153 254.86 169.233 254.66C169.323 254.45 169.368 254.235 169.368 254.015ZM168.978 248.18C168.768 248.18 168.573 248.15 168.393 248.09C168.213 248.02 168.048 247.94 167.898 247.85C167.748 247.77 167.613 247.7 167.493 247.64C167.373 247.57 167.268 247.535 167.178 247.535C166.928 247.535 166.798 247.68 166.788 247.97H165.408C165.408 247.64 165.453 247.355 165.543 247.115C165.643 246.875 165.773 246.68 165.933 246.53C166.103 246.37 166.288 246.25 166.488 246.17C166.698 246.09 166.918 246.05 167.148 246.05C167.358 246.05 167.553 246.085 167.733 246.155C167.923 246.215 168.093 246.285 168.243 246.365C168.393 246.455 168.528 246.535 168.648 246.605C168.768 246.665 168.868 246.695 168.948 246.695C169.188 246.695 169.323 246.55 169.353 246.26H170.733C170.733 246.59 170.683 246.875 170.583 247.115C170.483 247.355 170.353 247.555 170.193 247.715C170.033 247.865 169.843 247.98 169.623 248.06C169.413 248.14 169.198 248.18 168.978 248.18ZM176.272 249.41C176.842 249.41 177.362 249.51 177.832 249.71C178.312 249.9 178.722 250.17 179.062 250.52C179.412 250.86 179.682 251.27 179.872 251.75C180.072 252.23 180.172 252.755 180.172 253.325C180.172 253.895 180.072 254.42 179.872 254.9C179.682 255.38 179.412 255.795 179.062 256.145C178.722 256.485 178.312 256.755 177.832 256.955C177.362 257.145 176.842 257.24 176.272 257.24C175.702 257.24 175.177 257.145 174.697 256.955C174.227 256.755 173.817 256.485 173.467 256.145C173.127 255.795 172.857 255.38 172.657 254.9C172.467 254.42 172.372 253.895 172.372 253.325C172.372 252.755 172.467 252.23 172.657 251.75C172.857 251.27 173.127 250.86 173.467 250.52C173.817 250.17 174.227 249.9 174.697 249.71C175.177 249.51 175.702 249.41 176.272 249.41ZM176.272 255.425C176.522 255.425 176.762 255.38 176.992 255.29C177.232 255.19 177.442 255.05 177.622 254.87C177.802 254.69 177.942 254.47 178.042 254.21C178.152 253.95 178.207 253.655 178.207 253.325C178.207 252.995 178.152 252.7 178.042 252.44C177.942 252.18 177.802 251.96 177.622 251.78C177.442 251.6 177.232 251.465 176.992 251.375C176.762 251.275 176.522 251.225 176.272 251.225C176.012 251.225 175.767 251.275 175.537 251.375C175.307 251.465 175.102 251.6 174.922 251.78C174.742 251.96 174.597 252.18 174.487 252.44C174.387 252.7 174.337 252.995 174.337 253.325C174.337 253.655 174.387 253.95 174.487 254.21C174.597 254.47 174.742 254.69 174.922 254.87C175.102 255.05 175.307 255.19 175.537 255.29C175.767 255.38 176.012 255.425 176.272 255.425Z" fill="#474747"/>
<path d="M210.982 248.26H213.007V259H210.982V248.26ZM216.776 252.61H216.896C217.126 252.24 217.436 251.95 217.826 251.74C218.216 251.52 218.661 251.41 219.161 251.41C219.621 251.41 220.026 251.485 220.376 251.635C220.726 251.785 221.011 252 221.231 252.28C221.461 252.55 221.631 252.88 221.741 253.27C221.861 253.65 221.921 254.075 221.921 254.545V259H219.956V254.785C219.956 254.255 219.836 253.865 219.596 253.615C219.366 253.355 219.026 253.225 218.576 253.225C218.306 253.225 218.066 253.285 217.856 253.405C217.656 253.515 217.481 253.67 217.331 253.87C217.191 254.06 217.081 254.29 217.001 254.56C216.931 254.82 216.896 255.1 216.896 255.4V259H214.931V251.65H216.776V252.61ZM223.974 253.33H222.684V251.65H223.974V249.4H225.939V251.65H227.739V253.33H225.939V256.18C225.939 256.35 225.954 256.51 225.984 256.66C226.024 256.8 226.094 256.92 226.194 257.02C226.334 257.18 226.534 257.26 226.794 257.26C226.964 257.26 227.099 257.245 227.199 257.215C227.299 257.175 227.394 257.125 227.484 257.065L228.039 258.79C227.809 258.9 227.559 258.98 227.289 259.03C227.029 259.09 226.739 259.12 226.419 259.12C226.049 259.12 225.714 259.065 225.414 258.955C225.124 258.835 224.879 258.675 224.679 258.475C224.209 258.025 223.974 257.385 223.974 256.555V253.33ZM236.071 257.23C235.731 257.83 235.271 258.315 234.691 258.685C234.121 259.055 233.421 259.24 232.591 259.24C232.031 259.24 231.511 259.145 231.031 258.955C230.561 258.755 230.151 258.48 229.801 258.13C229.451 257.78 229.176 257.37 228.976 256.9C228.786 256.42 228.691 255.895 228.691 255.325C228.691 254.795 228.786 254.295 228.976 253.825C229.166 253.345 229.431 252.93 229.771 252.58C230.111 252.22 230.511 251.935 230.971 251.725C231.441 251.515 231.956 251.41 232.516 251.41C233.106 251.41 233.631 251.51 234.091 251.71C234.551 251.9 234.936 252.17 235.246 252.52C235.556 252.86 235.791 253.265 235.951 253.735C236.111 254.205 236.191 254.715 236.191 255.265C236.191 255.335 236.191 255.395 236.191 255.445C236.181 255.505 236.176 255.56 236.176 255.61C236.166 255.66 236.161 255.715 236.161 255.775H230.626C230.666 256.075 230.746 256.335 230.866 256.555C230.996 256.765 231.151 256.945 231.331 257.095C231.521 257.235 231.726 257.34 231.946 257.41C232.166 257.47 232.391 257.5 232.621 257.5C233.071 257.5 233.441 257.4 233.731 257.2C234.031 256.99 234.266 256.73 234.436 256.42L236.071 257.23ZM234.286 254.38C234.276 254.25 234.231 254.105 234.151 253.945C234.081 253.785 233.971 253.635 233.821 253.495C233.681 253.355 233.501 253.24 233.281 253.15C233.071 253.06 232.816 253.015 232.516 253.015C232.096 253.015 231.726 253.135 231.406 253.375C231.086 253.615 230.861 253.95 230.731 254.38H234.286ZM240.909 262.48C240.389 262.48 239.924 262.41 239.514 262.27C239.114 262.14 238.764 261.965 238.464 261.745C238.164 261.535 237.914 261.3 237.714 261.04C237.514 260.78 237.369 260.52 237.279 260.26L239.154 259.51C239.294 259.9 239.524 260.2 239.844 260.41C240.164 260.63 240.519 260.74 240.909 260.74C241.529 260.74 242.019 260.545 242.379 260.155C242.739 259.775 242.919 259.24 242.919 258.55V258.04H242.799C242.569 258.36 242.264 258.615 241.884 258.805C241.514 258.985 241.074 259.075 240.564 259.075C240.124 259.075 239.694 258.985 239.274 258.805C238.864 258.625 238.499 258.37 238.179 258.04C237.859 257.7 237.599 257.295 237.399 256.825C237.199 256.355 237.099 255.83 237.099 255.25C237.099 254.67 237.199 254.145 237.399 253.675C237.599 253.195 237.859 252.79 238.179 252.46C238.499 252.12 238.864 251.86 239.274 251.68C239.694 251.5 240.124 251.41 240.564 251.41C241.074 251.41 241.514 251.505 241.884 251.695C242.264 251.875 242.569 252.125 242.799 252.445H242.919V251.65H244.794V258.475C244.794 259.095 244.699 259.65 244.509 260.14C244.319 260.64 244.054 261.06 243.714 261.4C243.374 261.75 242.964 262.015 242.484 262.195C242.014 262.385 241.489 262.48 240.909 262.48ZM240.984 257.305C241.224 257.305 241.459 257.26 241.689 257.17C241.929 257.08 242.139 256.95 242.319 256.78C242.499 256.6 242.644 256.385 242.754 256.135C242.864 255.875 242.919 255.58 242.919 255.25C242.919 254.92 242.864 254.625 242.754 254.365C242.644 254.105 242.499 253.89 242.319 253.72C242.139 253.54 241.929 253.405 241.689 253.315C241.459 253.225 241.224 253.18 240.984 253.18C240.744 253.18 240.509 253.225 240.279 253.315C240.049 253.405 239.844 253.54 239.664 253.72C239.484 253.9 239.339 254.12 239.229 254.38C239.119 254.63 239.064 254.92 239.064 255.25C239.064 255.58 239.119 255.875 239.229 256.135C239.339 256.385 239.484 256.6 239.664 256.78C239.844 256.95 240.049 257.08 240.279 257.17C240.509 257.26 240.744 257.305 240.984 257.305ZM246.469 251.65H248.314V252.67H248.434C248.524 252.49 248.644 252.325 248.794 252.175C248.944 252.025 249.109 251.895 249.289 251.785C249.479 251.675 249.679 251.59 249.889 251.53C250.109 251.47 250.324 251.44 250.534 251.44C250.794 251.44 251.014 251.465 251.194 251.515C251.384 251.565 251.544 251.63 251.674 251.71L251.149 253.495C251.029 253.435 250.894 253.39 250.744 253.36C250.604 253.32 250.429 253.3 250.219 253.3C249.949 253.3 249.704 253.355 249.484 253.465C249.264 253.565 249.074 253.71 248.914 253.9C248.764 254.09 248.644 254.315 248.554 254.575C248.474 254.825 248.434 255.1 248.434 255.4V259H246.469V251.65ZM256.815 258.22H256.695C256.465 258.5 256.185 258.74 255.855 258.94C255.535 259.14 255.12 259.24 254.61 259.24C254.23 259.24 253.87 259.175 253.53 259.045C253.2 258.925 252.91 258.755 252.66 258.535C252.41 258.315 252.215 258.05 252.075 257.74C251.935 257.43 251.865 257.09 251.865 256.72C251.865 256.34 251.94 256 252.09 255.7C252.24 255.39 252.45 255.125 252.72 254.905C252.99 254.685 253.305 254.52 253.665 254.41C254.035 254.29 254.435 254.23 254.865 254.23C255.345 254.23 255.74 254.27 256.05 254.35C256.36 254.42 256.615 254.495 256.815 254.575V254.35C256.815 253.96 256.66 253.64 256.35 253.39C256.04 253.13 255.655 253 255.195 253C254.515 253 253.94 253.285 253.47 253.855L252.045 252.88C252.825 251.9 253.89 251.41 255.24 251.41C256.38 251.41 257.25 251.68 257.85 252.22C258.45 252.75 258.75 253.54 258.75 254.59V259H256.815V258.22ZM256.815 256.015C256.585 255.905 256.345 255.82 256.095 255.76C255.855 255.69 255.59 255.655 255.3 255.655C254.83 255.655 254.465 255.76 254.205 255.97C253.955 256.17 253.83 256.42 253.83 256.72C253.83 257.02 253.95 257.26 254.19 257.44C254.44 257.62 254.725 257.71 255.045 257.71C255.305 257.71 255.545 257.665 255.765 257.575C255.985 257.475 256.17 257.35 256.32 257.2C256.48 257.04 256.6 256.86 256.68 256.66C256.77 256.45 256.815 256.235 256.815 256.015ZM263.809 262.555C263.449 262.555 263.139 262.46 262.879 262.27C262.619 262.08 262.434 261.845 262.324 261.565L263.284 261.16C263.324 261.28 263.389 261.38 263.479 261.46C263.569 261.54 263.679 261.58 263.809 261.58C263.969 261.58 264.089 261.53 264.169 261.43C264.259 261.34 264.304 261.23 264.304 261.1C264.304 260.97 264.259 260.85 264.169 260.74C264.089 260.64 263.969 260.59 263.809 260.59C263.719 260.59 263.639 260.61 263.569 260.65C263.509 260.7 263.454 260.75 263.404 260.8L262.489 260.38L262.954 259.165C262.484 259.085 262.059 258.935 261.679 258.715C261.299 258.495 260.969 258.22 260.689 257.89C260.409 257.55 260.194 257.165 260.044 256.735C259.894 256.295 259.819 255.825 259.819 255.325C259.819 254.755 259.914 254.23 260.104 253.75C260.304 253.27 260.574 252.86 260.914 252.52C261.264 252.17 261.674 251.9 262.144 251.71C262.624 251.51 263.149 251.41 263.719 251.41C264.569 251.41 265.284 251.605 265.864 251.995C266.444 252.385 266.869 252.89 267.139 253.51L265.339 254.26C265.169 253.92 264.949 253.665 264.679 253.495C264.419 253.315 264.089 253.225 263.689 253.225C263.429 253.225 263.184 253.275 262.954 253.375C262.724 253.475 262.519 253.615 262.339 253.795C262.169 253.975 262.034 254.195 261.934 254.455C261.834 254.715 261.784 255.005 261.784 255.325C261.784 255.645 261.834 255.935 261.934 256.195C262.034 256.455 262.169 256.675 262.339 256.855C262.519 257.035 262.724 257.175 262.954 257.275C263.184 257.375 263.429 257.425 263.689 257.425C264.099 257.425 264.444 257.335 264.724 257.155C265.014 256.965 265.244 256.695 265.414 256.345L267.214 257.125C266.914 257.725 266.494 258.215 265.954 258.595C265.414 258.975 264.744 259.19 263.944 259.24L263.734 259.705C263.784 259.695 263.829 259.69 263.869 259.69C263.909 259.69 263.954 259.69 264.004 259.69C264.394 259.69 264.724 259.815 264.994 260.065C265.274 260.315 265.414 260.665 265.414 261.115C265.414 261.535 265.264 261.88 264.964 262.15C264.674 262.42 264.289 262.555 263.809 262.555ZM272.87 258.22H272.75C272.52 258.5 272.24 258.74 271.91 258.94C271.59 259.14 271.175 259.24 270.665 259.24C270.285 259.24 269.925 259.175 269.585 259.045C269.255 258.925 268.965 258.755 268.715 258.535C268.465 258.315 268.27 258.05 268.13 257.74C267.99 257.43 267.92 257.09 267.92 256.72C267.92 256.34 267.995 256 268.145 255.7C268.295 255.39 268.505 255.125 268.775 254.905C269.045 254.685 269.36 254.52 269.72 254.41C270.09 254.29 270.49 254.23 270.92 254.23C271.4 254.23 271.795 254.27 272.105 254.35C272.415 254.42 272.67 254.495 272.87 254.575V254.35C272.87 253.96 272.715 253.64 272.405 253.39C272.095 253.13 271.71 253 271.25 253C270.57 253 269.995 253.285 269.525 253.855L268.1 252.88C268.88 251.9 269.945 251.41 271.295 251.41C272.435 251.41 273.305 251.68 273.905 252.22C274.505 252.75 274.805 253.54 274.805 254.59V259H272.87V258.22ZM272.87 256.015C272.64 255.905 272.4 255.82 272.15 255.76C271.91 255.69 271.645 255.655 271.355 255.655C270.885 255.655 270.52 255.76 270.26 255.97C270.01 256.17 269.885 256.42 269.885 256.72C269.885 257.02 270.005 257.26 270.245 257.44C270.495 257.62 270.78 257.71 271.1 257.71C271.36 257.71 271.6 257.665 271.82 257.575C272.04 257.475 272.225 257.35 272.375 257.2C272.535 257.04 272.655 256.86 272.735 256.66C272.825 256.45 272.87 256.235 272.87 256.015ZM272.48 250.18C272.27 250.18 272.075 250.15 271.895 250.09C271.715 250.02 271.55 249.94 271.4 249.85C271.25 249.77 271.115 249.7 270.995 249.64C270.875 249.57 270.77 249.535 270.68 249.535C270.43 249.535 270.3 249.68 270.29 249.97H268.91C268.91 249.64 268.955 249.355 269.045 249.115C269.145 248.875 269.275 248.68 269.435 248.53C269.605 248.37 269.79 248.25 269.99 248.17C270.2 248.09 270.42 248.05 270.65 248.05C270.86 248.05 271.055 248.085 271.235 248.155C271.425 248.215 271.595 248.285 271.745 248.365C271.895 248.455 272.03 248.535 272.15 248.605C272.27 248.665 272.37 248.695 272.45 248.695C272.69 248.695 272.825 248.55 272.855 248.26H274.235C274.235 248.59 274.185 248.875 274.085 249.115C273.985 249.355 273.855 249.555 273.695 249.715C273.535 249.865 273.345 249.98 273.125 250.06C272.915 250.14 272.7 250.18 272.48 250.18ZM279.774 251.41C280.344 251.41 280.864 251.51 281.334 251.71C281.814 251.9 282.224 252.17 282.564 252.52C282.914 252.86 283.184 253.27 283.374 253.75C283.574 254.23 283.674 254.755 283.674 255.325C283.674 255.895 283.574 256.42 283.374 256.9C283.184 257.38 282.914 257.795 282.564 258.145C282.224 258.485 281.814 258.755 281.334 258.955C280.864 259.145 280.344 259.24 279.774 259.24C279.204 259.24 278.679 259.145 278.199 258.955C277.729 258.755 277.319 258.485 276.969 258.145C276.629 257.795 276.359 257.38 276.159 256.9C275.969 256.42 275.874 255.895 275.874 255.325C275.874 254.755 275.969 254.23 276.159 253.75C276.359 253.27 276.629 252.86 276.969 252.52C277.319 252.17 277.729 251.9 278.199 251.71C278.679 251.51 279.204 251.41 279.774 251.41ZM279.774 257.425C280.024 257.425 280.264 257.38 280.494 257.29C280.734 257.19 280.944 257.05 281.124 256.87C281.304 256.69 281.444 256.47 281.544 256.21C281.654 255.95 281.709 255.655 281.709 255.325C281.709 254.995 281.654 254.7 281.544 254.44C281.444 254.18 281.304 253.96 281.124 253.78C280.944 253.6 280.734 253.465 280.494 253.375C280.264 253.275 280.024 253.225 279.774 253.225C279.514 253.225 279.269 253.275 279.039 253.375C278.809 253.465 278.604 253.6 278.424 253.78C278.244 253.96 278.099 254.18 277.989 254.44C277.889 254.7 277.839 254.995 277.839 255.325C277.839 255.655 277.889 255.95 277.989 256.21C278.099 256.47 278.244 256.69 278.424 256.87C278.604 257.05 278.809 257.19 279.039 257.29C279.269 257.38 279.514 257.425 279.774 257.425ZM295.207 257.125C294.887 257.745 294.437 258.255 293.857 258.655C293.287 259.045 292.572 259.24 291.712 259.24C291.142 259.24 290.617 259.145 290.137 258.955C289.667 258.755 289.257 258.48 288.907 258.13C288.567 257.78 288.297 257.37 288.097 256.9C287.907 256.42 287.812 255.895 287.812 255.325C287.812 254.755 287.907 254.23 288.097 253.75C288.297 253.27 288.567 252.86 288.907 252.52C289.257 252.17 289.667 251.9 290.137 251.71C290.617 251.51 291.142 251.41 291.712 251.41C292.562 251.41 293.277 251.605 293.857 251.995C294.437 252.385 294.862 252.89 295.132 253.51L293.332 254.26C293.162 253.92 292.942 253.665 292.672 253.495C292.412 253.315 292.082 253.225 291.682 253.225C291.422 253.225 291.177 253.275 290.947 253.375C290.717 253.475 290.512 253.615 290.332 253.795C290.162 253.975 290.027 254.195 289.927 254.455C289.827 254.715 289.777 255.005 289.777 255.325C289.777 255.645 289.827 255.935 289.927 256.195C290.027 256.455 290.162 256.675 290.332 256.855C290.512 257.035 290.717 257.175 290.947 257.275C291.177 257.375 291.422 257.425 291.682 257.425C292.092 257.425 292.437 257.335 292.717 257.155C293.007 256.965 293.237 256.695 293.407 256.345L295.207 257.125ZM299.813 251.41C300.383 251.41 300.903 251.51 301.373 251.71C301.853 251.9 302.263 252.17 302.603 252.52C302.953 252.86 303.223 253.27 303.413 253.75C303.613 254.23 303.713 254.755 303.713 255.325C303.713 255.895 303.613 256.42 303.413 256.9C303.223 257.38 302.953 257.795 302.603 258.145C302.263 258.485 301.853 258.755 301.373 258.955C300.903 259.145 300.383 259.24 299.813 259.24C299.243 259.24 298.718 259.145 298.238 258.955C297.768 258.755 297.358 258.485 297.008 258.145C296.668 257.795 296.398 257.38 296.198 256.9C296.008 256.42 295.913 255.895 295.913 255.325C295.913 254.755 296.008 254.23 296.198 253.75C296.398 253.27 296.668 252.86 297.008 252.52C297.358 252.17 297.768 251.9 298.238 251.71C298.718 251.51 299.243 251.41 299.813 251.41ZM299.813 257.425C300.063 257.425 300.303 257.38 300.533 257.29C300.773 257.19 300.983 257.05 301.163 256.87C301.343 256.69 301.483 256.47 301.583 256.21C301.693 255.95 301.748 255.655 301.748 255.325C301.748 254.995 301.693 254.7 301.583 254.44C301.483 254.18 301.343 253.96 301.163 253.78C300.983 253.6 300.773 253.465 300.533 253.375C300.303 253.275 300.063 253.225 299.813 253.225C299.553 253.225 299.308 253.275 299.078 253.375C298.848 253.465 298.643 253.6 298.463 253.78C298.283 253.96 298.138 254.18 298.028 254.44C297.928 254.7 297.878 254.995 297.878 255.325C297.878 255.655 297.928 255.95 298.028 256.21C298.138 256.47 298.283 256.69 298.463 256.87C298.643 257.05 298.848 257.19 299.078 257.29C299.308 257.38 299.553 257.425 299.813 257.425ZM304.829 251.65H306.674V252.61H306.794C307.024 252.25 307.334 251.96 307.724 251.74C308.124 251.52 308.564 251.41 309.044 251.41C309.604 251.41 310.074 251.54 310.454 251.8C310.834 252.06 311.104 252.38 311.264 252.76C311.494 252.39 311.819 252.075 312.239 251.815C312.659 251.545 313.169 251.41 313.769 251.41C314.219 251.41 314.609 251.485 314.939 251.635C315.269 251.775 315.539 251.975 315.749 252.235C315.969 252.495 316.134 252.81 316.244 253.18C316.354 253.54 316.409 253.935 316.409 254.365V259H314.444V254.725C314.444 253.725 314.034 253.225 313.214 253.225C312.954 253.225 312.724 253.285 312.524 253.405C312.324 253.515 312.154 253.67 312.014 253.87C311.884 254.06 311.779 254.29 311.699 254.56C311.629 254.83 311.594 255.12 311.594 255.43V259H309.629V254.725C309.629 253.725 309.199 253.225 308.339 253.225C308.089 253.225 307.869 253.285 307.679 253.405C307.489 253.515 307.329 253.67 307.199 253.87C307.069 254.06 306.969 254.29 306.899 254.56C306.829 254.83 306.794 255.12 306.794 255.43V259H304.829V251.65ZM320.122 248.26H322.267L323.932 254.53L324.172 255.685H324.292L324.607 254.53L326.152 249.7H328.042L329.602 254.53L329.902 255.67H330.022L330.247 254.53L331.807 248.26H333.952L331.102 259H329.152L327.472 253.825L327.157 252.64H327.037L326.722 253.825L325.042 259H323.092L320.122 248.26ZM335.034 248.26H336.999V251.275L336.879 252.61H336.999C337.209 252.26 337.509 251.975 337.899 251.755C338.299 251.525 338.744 251.41 339.234 251.41C340.184 251.41 340.884 251.69 341.334 252.25C341.794 252.81 342.024 253.575 342.024 254.545V259H340.059V254.785C340.059 254.275 339.939 253.89 339.699 253.63C339.459 253.36 339.124 253.225 338.694 253.225C338.424 253.225 338.184 253.285 337.974 253.405C337.764 253.515 337.584 253.67 337.434 253.87C337.294 254.07 337.184 254.305 337.104 254.575C337.034 254.835 336.999 255.115 336.999 255.415V259H335.034V248.26ZM348.104 258.22H347.984C347.754 258.5 347.474 258.74 347.144 258.94C346.824 259.14 346.409 259.24 345.899 259.24C345.519 259.24 345.159 259.175 344.819 259.045C344.489 258.925 344.199 258.755 343.949 258.535C343.699 258.315 343.504 258.05 343.364 257.74C343.224 257.43 343.154 257.09 343.154 256.72C343.154 256.34 343.229 256 343.379 255.7C343.529 255.39 343.739 255.125 344.009 254.905C344.279 254.685 344.594 254.52 344.954 254.41C345.324 254.29 345.724 254.23 346.154 254.23C346.634 254.23 347.029 254.27 347.339 254.35C347.649 254.42 347.904 254.495 348.104 254.575V254.35C348.104 253.96 347.949 253.64 347.639 253.39C347.329 253.13 346.944 253 346.484 253C345.804 253 345.229 253.285 344.759 253.855L343.334 252.88C344.114 251.9 345.179 251.41 346.529 251.41C347.669 251.41 348.539 251.68 349.139 252.22C349.739 252.75 350.039 253.54 350.039 254.59V259H348.104V258.22ZM348.104 256.015C347.874 255.905 347.634 255.82 347.384 255.76C347.144 255.69 346.879 255.655 346.589 255.655C346.119 255.655 345.754 255.76 345.494 255.97C345.244 256.17 345.119 256.42 345.119 256.72C345.119 257.02 345.239 257.26 345.479 257.44C345.729 257.62 346.014 257.71 346.334 257.71C346.594 257.71 346.834 257.665 347.054 257.575C347.274 257.475 347.459 257.35 347.609 257.2C347.769 257.04 347.889 256.86 347.969 256.66C348.059 256.45 348.104 256.235 348.104 256.015ZM352.265 253.33H350.975V251.65H352.265V249.4H354.23V251.65H356.03V253.33H354.23V256.18C354.23 256.35 354.245 256.51 354.275 256.66C354.315 256.8 354.385 256.92 354.485 257.02C354.625 257.18 354.825 257.26 355.085 257.26C355.255 257.26 355.39 257.245 355.49 257.215C355.59 257.175 355.685 257.125 355.775 257.065L356.33 258.79C356.1 258.9 355.85 258.98 355.58 259.03C355.32 259.09 355.03 259.12 354.71 259.12C354.34 259.12 354.005 259.065 353.705 258.955C353.415 258.835 353.17 258.675 352.97 258.475C352.5 258.025 352.265 257.385 352.265 256.555V253.33ZM360.532 259.24C360.052 259.24 359.622 259.18 359.242 259.06C358.872 258.94 358.547 258.785 358.267 258.595C357.997 258.395 357.767 258.17 357.577 257.92C357.387 257.66 357.242 257.4 357.142 257.14L358.897 256.39C359.067 256.77 359.292 257.055 359.572 257.245C359.862 257.425 360.182 257.515 360.532 257.515C360.892 257.515 361.177 257.45 361.387 257.32C361.597 257.19 361.702 257.035 361.702 256.855C361.702 256.655 361.612 256.495 361.432 256.375C361.262 256.245 360.962 256.13 360.532 256.03L359.497 255.805C359.267 255.755 359.027 255.675 358.777 255.565C358.537 255.455 358.317 255.315 358.117 255.145C357.917 254.975 357.752 254.77 357.622 254.53C357.492 254.29 357.427 254.01 357.427 253.69C357.427 253.33 357.502 253.01 357.652 252.73C357.812 252.45 358.027 252.215 358.297 252.025C358.567 251.825 358.882 251.675 359.242 251.575C359.612 251.465 360.007 251.41 360.427 251.41C361.127 251.41 361.752 251.55 362.302 251.83C362.852 252.1 363.257 252.535 363.517 253.135L361.822 253.825C361.682 253.535 361.477 253.325 361.207 253.195C360.937 253.065 360.667 253 360.397 253C360.117 253 359.872 253.06 359.662 253.18C359.452 253.29 359.347 253.435 359.347 253.615C359.347 253.785 359.432 253.92 359.602 254.02C359.782 254.12 360.022 254.21 360.322 254.29L361.447 254.56C362.197 254.74 362.752 255.03 363.112 255.43C363.482 255.82 363.667 256.285 363.667 256.825C363.667 257.145 363.592 257.45 363.442 257.74C363.292 258.03 363.077 258.29 362.797 258.52C362.527 258.74 362.197 258.915 361.807 259.045C361.427 259.175 361.002 259.24 360.532 259.24ZM369.476 258.22H369.356C369.126 258.5 368.846 258.74 368.516 258.94C368.196 259.14 367.781 259.24 367.271 259.24C366.891 259.24 366.531 259.175 366.191 259.045C365.861 258.925 365.571 258.755 365.321 258.535C365.071 258.315 364.876 258.05 364.736 257.74C364.596 257.43 364.526 257.09 364.526 256.72C364.526 256.34 364.601 256 364.751 255.7C364.901 255.39 365.111 255.125 365.381 254.905C365.651 254.685 365.966 254.52 366.326 254.41C366.696 254.29 367.096 254.23 367.526 254.23C368.006 254.23 368.401 254.27 368.711 254.35C369.021 254.42 369.276 254.495 369.476 254.575V254.35C369.476 253.96 369.321 253.64 369.011 253.39C368.701 253.13 368.316 253 367.856 253C367.176 253 366.601 253.285 366.131 253.855L364.706 252.88C365.486 251.9 366.551 251.41 367.901 251.41C369.041 251.41 369.911 251.68 370.511 252.22C371.111 252.75 371.411 253.54 371.411 254.59V259H369.476V258.22ZM369.476 256.015C369.246 255.905 369.006 255.82 368.756 255.76C368.516 255.69 368.251 255.655 367.961 255.655C367.491 255.655 367.126 255.76 366.866 255.97C366.616 256.17 366.491 256.42 366.491 256.72C366.491 257.02 366.611 257.26 366.851 257.44C367.101 257.62 367.386 257.71 367.706 257.71C367.966 257.71 368.206 257.665 368.426 257.575C368.646 257.475 368.831 257.35 368.981 257.2C369.141 257.04 369.261 256.86 369.341 256.66C369.431 256.45 369.476 256.235 369.476 256.015ZM372.913 251.65H374.758V252.535H374.878C375.058 252.225 375.338 251.96 375.718 251.74C376.098 251.52 376.568 251.41 377.128 251.41C377.598 251.41 378.043 251.51 378.463 251.71C378.893 251.9 379.268 252.17 379.588 252.52C379.918 252.86 380.178 253.27 380.368 253.75C380.558 254.23 380.653 254.755 380.653 255.325C380.653 255.895 380.558 256.42 380.368 256.9C380.178 257.38 379.918 257.795 379.588 258.145C379.268 258.485 378.893 258.755 378.463 258.955C378.043 259.145 377.598 259.24 377.128 259.24C376.568 259.24 376.098 259.13 375.718 258.91C375.338 258.69 375.058 258.425 374.878 258.115H374.758L374.878 259.165V262.24H372.913V251.65ZM376.723 257.425C376.983 257.425 377.228 257.375 377.458 257.275C377.698 257.175 377.908 257.035 378.088 256.855C378.268 256.675 378.413 256.455 378.523 256.195C378.633 255.935 378.688 255.645 378.688 255.325C378.688 255.005 378.633 254.715 378.523 254.455C378.413 254.195 378.268 253.975 378.088 253.795C377.908 253.615 377.698 253.475 377.458 253.375C377.228 253.275 376.983 253.225 376.723 253.225C376.463 253.225 376.213 253.275 375.973 253.375C375.743 253.465 375.538 253.6 375.358 253.78C375.178 253.96 375.033 254.18 374.923 254.44C374.813 254.7 374.758 254.995 374.758 255.325C374.758 255.655 374.813 255.95 374.923 256.21C375.033 256.47 375.178 256.69 375.358 256.87C375.538 257.05 375.743 257.19 375.973 257.29C376.213 257.38 376.463 257.425 376.723 257.425ZM381.702 251.65H383.547V252.535H383.667C383.847 252.225 384.127 251.96 384.507 251.74C384.887 251.52 385.357 251.41 385.917 251.41C386.387 251.41 386.832 251.51 387.252 251.71C387.682 251.9 388.057 252.17 388.377 252.52C388.707 252.86 388.967 253.27 389.157 253.75C389.347 254.23 389.442 254.755 389.442 255.325C389.442 255.895 389.347 256.42 389.157 256.9C388.967 257.38 388.707 257.795 388.377 258.145C388.057 258.485 387.682 258.755 387.252 258.955C386.832 259.145 386.387 259.24 385.917 259.24C385.357 259.24 384.887 259.13 384.507 258.91C384.127 258.69 383.847 258.425 383.667 258.115H383.547L383.667 259.165V262.24H381.702V251.65ZM385.512 257.425C385.772 257.425 386.017 257.375 386.247 257.275C386.487 257.175 386.697 257.035 386.877 256.855C387.057 256.675 387.202 256.455 387.312 256.195C387.422 255.935 387.477 255.645 387.477 255.325C387.477 255.005 387.422 254.715 387.312 254.455C387.202 254.195 387.057 253.975 386.877 253.795C386.697 253.615 386.487 253.475 386.247 253.375C386.017 253.275 385.772 253.225 385.512 253.225C385.252 253.225 385.002 253.275 384.762 253.375C384.532 253.465 384.327 253.6 384.147 253.78C383.967 253.96 383.822 254.18 383.712 254.44C383.602 254.7 383.547 254.995 383.547 255.325C383.547 255.655 383.602 255.95 383.712 256.21C383.822 256.47 383.967 256.69 384.147 256.87C384.327 257.05 384.532 257.19 384.762 257.29C385.002 257.38 385.252 257.425 385.512 257.425Z" fill="#474747"/>
<path d="M424.843 259.24C424.043 259.24 423.298 259.095 422.608 258.805C421.928 258.515 421.338 258.12 420.838 257.62C420.338 257.11 419.943 256.515 419.653 255.835C419.373 255.145 419.233 254.41 419.233 253.63C419.233 252.85 419.373 252.12 419.653 251.44C419.943 250.75 420.338 250.155 420.838 249.655C421.338 249.145 421.928 248.745 422.608 248.455C423.298 248.165 424.043 248.02 424.843 248.02C425.643 248.02 426.383 248.165 427.063 248.455C427.753 248.745 428.348 249.145 428.848 249.655C429.348 250.155 429.738 250.75 430.018 251.44C430.308 252.12 430.453 252.85 430.453 253.63C430.453 254.41 430.308 255.145 430.018 255.835C429.738 256.515 429.348 257.11 428.848 257.62C428.348 258.12 427.753 258.515 427.063 258.805C426.383 259.095 425.643 259.24 424.843 259.24ZM424.843 257.32C425.343 257.32 425.808 257.23 426.238 257.05C426.678 256.87 427.058 256.62 427.378 256.3C427.708 255.98 427.963 255.595 428.143 255.145C428.333 254.685 428.428 254.18 428.428 253.63C428.428 253.08 428.333 252.58 428.143 252.13C427.963 251.67 427.708 251.28 427.378 250.96C427.058 250.64 426.678 250.39 426.238 250.21C425.808 250.03 425.343 249.94 424.843 249.94C424.343 249.94 423.873 250.03 423.433 250.21C423.003 250.39 422.623 250.64 422.293 250.96C421.973 251.28 421.718 251.67 421.528 252.13C421.348 252.58 421.258 253.08 421.258 253.63C421.258 254.18 421.348 254.685 421.528 255.145C421.718 255.595 421.973 255.98 422.293 256.3C422.623 256.62 423.003 256.87 423.433 257.05C423.873 257.23 424.343 257.32 424.843 257.32ZM431.852 251.65H433.697V252.67H433.817C433.907 252.49 434.027 252.325 434.177 252.175C434.327 252.025 434.492 251.895 434.672 251.785C434.862 251.675 435.062 251.59 435.272 251.53C435.492 251.47 435.707 251.44 435.917 251.44C436.177 251.44 436.397 251.465 436.577 251.515C436.767 251.565 436.927 251.63 437.057 251.71L436.532 253.495C436.412 253.435 436.277 253.39 436.127 253.36C435.987 253.32 435.812 253.3 435.602 253.3C435.332 253.3 435.087 253.355 434.867 253.465C434.647 253.565 434.457 253.71 434.297 253.9C434.147 254.09 434.027 254.315 433.937 254.575C433.857 254.825 433.817 255.1 433.817 255.4V259H431.852V251.65ZM442.981 258.115H442.861C442.681 258.425 442.401 258.69 442.021 258.91C441.641 259.13 441.171 259.24 440.611 259.24C440.141 259.24 439.691 259.145 439.261 258.955C438.841 258.755 438.466 258.485 438.136 258.145C437.816 257.795 437.561 257.38 437.371 256.9C437.181 256.42 437.086 255.895 437.086 255.325C437.086 254.755 437.181 254.23 437.371 253.75C437.561 253.27 437.816 252.86 438.136 252.52C438.466 252.17 438.841 251.9 439.261 251.71C439.691 251.51 440.141 251.41 440.611 251.41C441.171 251.41 441.641 251.52 442.021 251.74C442.401 251.96 442.681 252.225 442.861 252.535H442.981L442.861 251.485V248.26H444.826V259H442.981V258.115ZM441.016 257.425C441.276 257.425 441.521 257.38 441.751 257.29C441.991 257.19 442.201 257.05 442.381 256.87C442.561 256.69 442.706 256.47 442.816 256.21C442.926 255.95 442.981 255.655 442.981 255.325C442.981 254.995 442.926 254.7 442.816 254.44C442.706 254.18 442.561 253.96 442.381 253.78C442.201 253.6 441.991 253.465 441.751 253.375C441.521 253.275 441.276 253.225 441.016 253.225C440.756 253.225 440.506 253.275 440.266 253.375C440.036 253.475 439.831 253.615 439.651 253.795C439.471 253.975 439.326 254.195 439.216 254.455C439.106 254.715 439.051 255.005 439.051 255.325C439.051 255.645 439.106 255.935 439.216 256.195C439.326 256.455 439.471 256.675 439.651 256.855C439.831 257.035 440.036 257.175 440.266 257.275C440.506 257.375 440.756 257.425 441.016 257.425ZM453.387 257.23C453.047 257.83 452.587 258.315 452.007 258.685C451.437 259.055 450.737 259.24 449.907 259.24C449.347 259.24 448.827 259.145 448.347 258.955C447.877 258.755 447.467 258.48 447.117 258.13C446.767 257.78 446.492 257.37 446.292 256.9C446.102 256.42 446.007 255.895 446.007 255.325C446.007 254.795 446.102 254.295 446.292 253.825C446.482 253.345 446.747 252.93 447.087 252.58C447.427 252.22 447.827 251.935 448.287 251.725C448.757 251.515 449.272 251.41 449.832 251.41C450.422 251.41 450.947 251.51 451.407 251.71C451.867 251.9 452.252 252.17 452.562 252.52C452.872 252.86 453.107 253.265 453.267 253.735C453.427 254.205 453.507 254.715 453.507 255.265C453.507 255.335 453.507 255.395 453.507 255.445C453.497 255.505 453.492 255.56 453.492 255.61C453.482 255.66 453.477 255.715 453.477 255.775H447.942C447.982 256.075 448.062 256.335 448.182 256.555C448.312 256.765 448.467 256.945 448.647 257.095C448.837 257.235 449.042 257.34 449.262 257.41C449.482 257.47 449.707 257.5 449.937 257.5C450.387 257.5 450.757 257.4 451.047 257.2C451.347 256.99 451.582 256.73 451.752 256.42L453.387 257.23ZM451.602 254.38C451.592 254.25 451.547 254.105 451.467 253.945C451.397 253.785 451.287 253.635 451.137 253.495C450.997 253.355 450.817 253.24 450.597 253.15C450.387 253.06 450.132 253.015 449.832 253.015C449.412 253.015 449.042 253.135 448.722 253.375C448.402 253.615 448.177 253.95 448.047 254.38H451.602ZM456.607 252.61H456.727C456.957 252.24 457.267 251.95 457.657 251.74C458.047 251.52 458.492 251.41 458.992 251.41C459.452 251.41 459.857 251.485 460.207 251.635C460.557 251.785 460.842 252 461.062 252.28C461.292 252.55 461.462 252.88 461.572 253.27C461.692 253.65 461.752 254.075 461.752 254.545V259H459.787V254.785C459.787 254.255 459.667 253.865 459.427 253.615C459.197 253.355 458.857 253.225 458.407 253.225C458.137 253.225 457.897 253.285 457.687 253.405C457.487 253.515 457.312 253.67 457.162 253.87C457.022 254.06 456.912 254.29 456.832 254.56C456.762 254.82 456.727 255.1 456.727 255.4V259H454.762V251.65H456.607V252.61ZM466.212 259.24C465.732 259.24 465.302 259.18 464.922 259.06C464.552 258.94 464.227 258.785 463.947 258.595C463.677 258.395 463.447 258.17 463.257 257.92C463.067 257.66 462.922 257.4 462.822 257.14L464.577 256.39C464.747 256.77 464.972 257.055 465.252 257.245C465.542 257.425 465.862 257.515 466.212 257.515C466.572 257.515 466.857 257.45 467.067 257.32C467.277 257.19 467.382 257.035 467.382 256.855C467.382 256.655 467.292 256.495 467.112 256.375C466.942 256.245 466.642 256.13 466.212 256.03L465.177 255.805C464.947 255.755 464.707 255.675 464.457 255.565C464.217 255.455 463.997 255.315 463.797 255.145C463.597 254.975 463.432 254.77 463.302 254.53C463.172 254.29 463.107 254.01 463.107 253.69C463.107 253.33 463.182 253.01 463.332 252.73C463.492 252.45 463.707 252.215 463.977 252.025C464.247 251.825 464.562 251.675 464.922 251.575C465.292 251.465 465.687 251.41 466.107 251.41C466.807 251.41 467.432 251.55 467.982 251.83C468.532 252.1 468.937 252.535 469.197 253.135L467.502 253.825C467.362 253.535 467.157 253.325 466.887 253.195C466.617 253.065 466.347 253 466.077 253C465.797 253 465.552 253.06 465.342 253.18C465.132 253.29 465.027 253.435 465.027 253.615C465.027 253.785 465.112 253.92 465.282 254.02C465.462 254.12 465.702 254.21 466.002 254.29L467.127 254.56C467.877 254.74 468.432 255.03 468.792 255.43C469.162 255.82 469.347 256.285 469.347 256.825C469.347 257.145 469.272 257.45 469.122 257.74C468.972 258.03 468.757 258.29 468.477 258.52C468.207 258.74 467.877 258.915 467.487 259.045C467.107 259.175 466.682 259.24 466.212 259.24ZM479.324 258.115H479.204C479.024 258.425 478.744 258.69 478.364 258.91C477.984 259.13 477.514 259.24 476.954 259.24C476.484 259.24 476.034 259.145 475.604 258.955C475.184 258.755 474.809 258.485 474.479 258.145C474.159 257.795 473.904 257.38 473.714 256.9C473.524 256.42 473.429 255.895 473.429 255.325C473.429 254.755 473.524 254.23 473.714 253.75C473.904 253.27 474.159 252.86 474.479 252.52C474.809 252.17 475.184 251.9 475.604 251.71C476.034 251.51 476.484 251.41 476.954 251.41C477.514 251.41 477.984 251.52 478.364 251.74C478.744 251.96 479.024 252.225 479.204 252.535H479.324L479.204 251.485V248.26H481.169V259H479.324V258.115ZM477.359 257.425C477.619 257.425 477.864 257.38 478.094 257.29C478.334 257.19 478.544 257.05 478.724 256.87C478.904 256.69 479.049 256.47 479.159 256.21C479.269 255.95 479.324 255.655 479.324 255.325C479.324 254.995 479.269 254.7 479.159 254.44C479.049 254.18 478.904 253.96 478.724 253.78C478.544 253.6 478.334 253.465 478.094 253.375C477.864 253.275 477.619 253.225 477.359 253.225C477.099 253.225 476.849 253.275 476.609 253.375C476.379 253.475 476.174 253.615 475.994 253.795C475.814 253.975 475.669 254.195 475.559 254.455C475.449 254.715 475.394 255.005 475.394 255.325C475.394 255.645 475.449 255.935 475.559 256.195C475.669 256.455 475.814 256.675 475.994 256.855C476.174 257.035 476.379 257.175 476.609 257.275C476.849 257.375 477.099 257.425 477.359 257.425ZM489.73 257.23C489.39 257.83 488.93 258.315 488.35 258.685C487.78 259.055 487.08 259.24 486.25 259.24C485.69 259.24 485.17 259.145 484.69 258.955C484.22 258.755 483.81 258.48 483.46 258.13C483.11 257.78 482.835 257.37 482.635 256.9C482.445 256.42 482.35 255.895 482.35 255.325C482.35 254.795 482.445 254.295 482.635 253.825C482.825 253.345 483.09 252.93 483.43 252.58C483.77 252.22 484.17 251.935 484.63 251.725C485.1 251.515 485.615 251.41 486.175 251.41C486.765 251.41 487.29 251.51 487.75 251.71C488.21 251.9 488.595 252.17 488.905 252.52C489.215 252.86 489.45 253.265 489.61 253.735C489.77 254.205 489.85 254.715 489.85 255.265C489.85 255.335 489.85 255.395 489.85 255.445C489.84 255.505 489.835 255.56 489.835 255.61C489.825 255.66 489.82 255.715 489.82 255.775H484.285C484.325 256.075 484.405 256.335 484.525 256.555C484.655 256.765 484.81 256.945 484.99 257.095C485.18 257.235 485.385 257.34 485.605 257.41C485.825 257.47 486.05 257.5 486.28 257.5C486.73 257.5 487.1 257.4 487.39 257.2C487.69 256.99 487.925 256.73 488.095 256.42L489.73 257.23ZM487.945 254.38C487.935 254.25 487.89 254.105 487.81 253.945C487.74 253.785 487.63 253.635 487.48 253.495C487.34 253.355 487.16 253.24 486.94 253.15C486.73 253.06 486.475 253.015 486.175 253.015C485.755 253.015 485.385 253.135 485.065 253.375C484.745 253.615 484.52 253.95 484.39 254.38H487.945ZM497.471 259.24C497.011 259.24 496.571 259.175 496.151 259.045C495.731 258.915 495.346 258.72 494.996 258.46C494.646 258.2 494.341 257.885 494.081 257.515C493.821 257.135 493.616 256.695 493.466 256.195L495.371 255.445C495.511 255.985 495.756 256.435 496.106 256.795C496.456 257.145 496.916 257.32 497.486 257.32C497.696 257.32 497.896 257.295 498.086 257.245C498.286 257.185 498.461 257.105 498.611 257.005C498.771 256.895 498.896 256.76 498.986 256.6C499.076 256.44 499.121 256.255 499.121 256.045C499.121 255.845 499.086 255.665 499.016 255.505C498.946 255.345 498.826 255.195 498.656 255.055C498.496 254.915 498.281 254.78 498.011 254.65C497.751 254.52 497.426 254.385 497.036 254.245L496.376 254.005C496.086 253.905 495.791 253.77 495.491 253.6C495.201 253.43 494.936 253.225 494.696 252.985C494.456 252.745 494.256 252.465 494.096 252.145C493.946 251.815 493.871 251.445 493.871 251.035C493.871 250.615 493.951 250.225 494.111 249.865C494.281 249.495 494.516 249.175 494.816 248.905C495.126 248.625 495.491 248.41 495.911 248.26C496.341 248.1 496.816 248.02 497.336 248.02C497.876 248.02 498.341 248.095 498.731 248.245C499.131 248.385 499.466 248.57 499.736 248.8C500.016 249.02 500.241 249.265 500.411 249.535C500.581 249.805 500.706 250.06 500.786 250.3L499.001 251.05C498.901 250.75 498.716 250.48 498.446 250.24C498.186 250 497.826 249.88 497.366 249.88C496.926 249.88 496.561 249.985 496.271 250.195C495.981 250.395 495.836 250.66 495.836 250.99C495.836 251.31 495.976 251.585 496.256 251.815C496.536 252.035 496.981 252.25 497.591 252.46L498.266 252.685C498.696 252.835 499.086 253.01 499.436 253.21C499.796 253.4 500.101 253.63 500.351 253.9C500.611 254.17 500.806 254.48 500.936 254.83C501.076 255.17 501.146 255.565 501.146 256.015C501.146 256.575 501.031 257.06 500.801 257.47C500.581 257.87 500.296 258.2 499.946 258.46C499.596 258.72 499.201 258.915 498.761 259.045C498.321 259.175 497.891 259.24 497.471 259.24ZM509.534 257.23C509.194 257.83 508.734 258.315 508.154 258.685C507.584 259.055 506.884 259.24 506.054 259.24C505.494 259.24 504.974 259.145 504.494 258.955C504.024 258.755 503.614 258.48 503.264 258.13C502.914 257.78 502.639 257.37 502.439 256.9C502.249 256.42 502.154 255.895 502.154 255.325C502.154 254.795 502.249 254.295 502.439 253.825C502.629 253.345 502.894 252.93 503.234 252.58C503.574 252.22 503.974 251.935 504.434 251.725C504.904 251.515 505.419 251.41 505.979 251.41C506.569 251.41 507.094 251.51 507.554 251.71C508.014 251.9 508.399 252.17 508.709 252.52C509.019 252.86 509.254 253.265 509.414 253.735C509.574 254.205 509.654 254.715 509.654 255.265C509.654 255.335 509.654 255.395 509.654 255.445C509.644 255.505 509.639 255.56 509.639 255.61C509.629 255.66 509.624 255.715 509.624 255.775H504.089C504.129 256.075 504.209 256.335 504.329 256.555C504.459 256.765 504.614 256.945 504.794 257.095C504.984 257.235 505.189 257.34 505.409 257.41C505.629 257.47 505.854 257.5 506.084 257.5C506.534 257.5 506.904 257.4 507.194 257.2C507.494 256.99 507.729 256.73 507.899 256.42L509.534 257.23ZM507.749 254.38C507.739 254.25 507.694 254.105 507.614 253.945C507.544 253.785 507.434 253.635 507.284 253.495C507.144 253.355 506.964 253.24 506.744 253.15C506.534 253.06 506.279 253.015 505.979 253.015C505.559 253.015 505.189 253.135 504.869 253.375C504.549 253.615 504.324 253.95 504.194 254.38H507.749ZM510.909 251.65H512.754V252.67H512.874C512.964 252.49 513.084 252.325 513.234 252.175C513.384 252.025 513.549 251.895 513.729 251.785C513.919 251.675 514.119 251.59 514.329 251.53C514.549 251.47 514.764 251.44 514.974 251.44C515.234 251.44 515.454 251.465 515.634 251.515C515.824 251.565 515.984 251.63 516.114 251.71L515.589 253.495C515.469 253.435 515.334 253.39 515.184 253.36C515.044 253.32 514.869 253.3 514.659 253.3C514.389 253.3 514.144 253.355 513.924 253.465C513.704 253.565 513.514 253.71 513.354 253.9C513.204 254.09 513.084 254.315 512.994 254.575C512.914 254.825 512.874 255.1 512.874 255.4V259H510.909V251.65ZM516.384 251.65H518.619L520.449 256.33H520.554L522.399 251.65H524.619L521.454 259H519.519L516.384 251.65ZM526.609 250.585C526.439 250.585 526.274 250.555 526.114 250.495C525.964 250.425 525.829 250.335 525.709 250.225C525.599 250.105 525.509 249.97 525.439 249.82C525.379 249.67 525.349 249.505 525.349 249.325C525.349 249.145 525.379 248.98 525.439 248.83C525.509 248.68 525.599 248.55 525.709 248.44C525.829 248.32 525.964 248.23 526.114 248.17C526.274 248.1 526.439 248.065 526.609 248.065C526.959 248.065 527.259 248.19 527.509 248.44C527.759 248.68 527.884 248.975 527.884 249.325C527.884 249.675 527.759 249.975 527.509 250.225C527.259 250.465 526.959 250.585 526.609 250.585ZM525.634 259V251.65H527.599V259H525.634ZM532.892 262.555C532.532 262.555 532.222 262.46 531.962 262.27C531.702 262.08 531.517 261.845 531.407 261.565L532.367 261.16C532.407 261.28 532.472 261.38 532.562 261.46C532.652 261.54 532.762 261.58 532.892 261.58C533.052 261.58 533.172 261.53 533.252 261.43C533.342 261.34 533.387 261.23 533.387 261.1C533.387 260.97 533.342 260.85 533.252 260.74C533.172 260.64 533.052 260.59 532.892 260.59C532.802 260.59 532.722 260.61 532.652 260.65C532.592 260.7 532.537 260.75 532.487 260.8L531.572 260.38L532.037 259.165C531.567 259.085 531.142 258.935 530.762 258.715C530.382 258.495 530.052 258.22 529.772 257.89C529.492 257.55 529.277 257.165 529.127 256.735C528.977 256.295 528.902 255.825 528.902 255.325C528.902 254.755 528.997 254.23 529.187 253.75C529.387 253.27 529.657 252.86 529.997 252.52C530.347 252.17 530.757 251.9 531.227 251.71C531.707 251.51 532.232 251.41 532.802 251.41C533.652 251.41 534.367 251.605 534.947 251.995C535.527 252.385 535.952 252.89 536.222 253.51L534.422 254.26C534.252 253.92 534.032 253.665 533.762 253.495C533.502 253.315 533.172 253.225 532.772 253.225C532.512 253.225 532.267 253.275 532.037 253.375C531.807 253.475 531.602 253.615 531.422 253.795C531.252 253.975 531.117 254.195 531.017 254.455C530.917 254.715 530.867 255.005 530.867 255.325C530.867 255.645 530.917 255.935 531.017 256.195C531.117 256.455 531.252 256.675 531.422 256.855C531.602 257.035 531.807 257.175 532.037 257.275C532.267 257.375 532.512 257.425 532.772 257.425C533.182 257.425 533.527 257.335 533.807 257.155C534.097 256.965 534.327 256.695 534.497 256.345L536.297 257.125C535.997 257.725 535.577 258.215 535.037 258.595C534.497 258.975 533.827 259.19 533.027 259.24L532.817 259.705C532.867 259.695 532.912 259.69 532.952 259.69C532.992 259.69 533.037 259.69 533.087 259.69C533.477 259.69 533.807 259.815 534.077 260.065C534.357 260.315 534.497 260.665 534.497 261.115C534.497 261.535 534.347 261.88 534.047 262.15C533.757 262.42 533.372 262.555 532.892 262.555ZM540.903 251.41C541.473 251.41 541.993 251.51 542.463 251.71C542.943 251.9 543.353 252.17 543.693 252.52C544.043 252.86 544.313 253.27 544.503 253.75C544.703 254.23 544.803 254.755 544.803 255.325C544.803 255.895 544.703 256.42 544.503 256.9C544.313 257.38 544.043 257.795 543.693 258.145C543.353 258.485 542.943 258.755 542.463 258.955C541.993 259.145 541.473 259.24 540.903 259.24C540.333 259.24 539.808 259.145 539.328 258.955C538.858 258.755 538.448 258.485 538.098 258.145C537.758 257.795 537.488 257.38 537.288 256.9C537.098 256.42 537.003 255.895 537.003 255.325C537.003 254.755 537.098 254.23 537.288 253.75C537.488 253.27 537.758 252.86 538.098 252.52C538.448 252.17 538.858 251.9 539.328 251.71C539.808 251.51 540.333 251.41 540.903 251.41ZM540.903 257.425C541.153 257.425 541.393 257.38 541.623 257.29C541.863 257.19 542.073 257.05 542.253 256.87C542.433 256.69 542.573 256.47 542.673 256.21C542.783 255.95 542.838 255.655 542.838 255.325C542.838 254.995 542.783 254.7 542.673 254.44C542.573 254.18 542.433 253.96 542.253 253.78C542.073 253.6 541.863 253.465 541.623 253.375C541.393 253.275 541.153 253.225 540.903 253.225C540.643 253.225 540.398 253.275 540.168 253.375C539.938 253.465 539.733 253.6 539.553 253.78C539.373 253.96 539.228 254.18 539.118 254.44C539.018 254.7 538.968 254.995 538.968 255.325C538.968 255.655 539.018 255.95 539.118 256.21C539.228 256.47 539.373 256.69 539.553 256.87C539.733 257.05 539.938 257.19 540.168 257.29C540.398 257.38 540.643 257.425 540.903 257.425ZM551.626 250.18V252.67H555.931V254.59H551.626V257.08H556.411V259H549.601V248.26H556.411V250.18H551.626ZM557.887 251.65H559.732V252.61H559.852C560.082 252.25 560.392 251.96 560.782 251.74C561.182 251.52 561.622 251.41 562.102 251.41C562.662 251.41 563.132 251.54 563.512 251.8C563.892 252.06 564.162 252.38 564.322 252.76C564.552 252.39 564.877 252.075 565.297 251.815C565.717 251.545 566.227 251.41 566.827 251.41C567.277 251.41 567.667 251.485 567.997 251.635C568.327 251.775 568.597 251.975 568.807 252.235C569.027 252.495 569.192 252.81 569.302 253.18C569.412 253.54 569.467 253.935 569.467 254.365V259H567.502V254.725C567.502 253.725 567.092 253.225 566.272 253.225C566.012 253.225 565.782 253.285 565.582 253.405C565.382 253.515 565.212 253.67 565.072 253.87C564.942 254.06 564.837 254.29 564.757 254.56C564.687 254.83 564.652 255.12 564.652 255.43V259H562.687V254.725C562.687 253.725 562.257 253.225 561.397 253.225C561.147 253.225 560.927 253.285 560.737 253.405C560.547 253.515 560.387 253.67 560.257 253.87C560.127 254.06 560.027 254.29 559.957 254.56C559.887 254.83 559.852 255.12 559.852 255.43V259H557.887V251.65ZM572.18 250.585C572.01 250.585 571.845 250.555 571.685 250.495C571.535 250.425 571.4 250.335 571.28 250.225C571.17 250.105 571.08 249.97 571.01 249.82C570.95 249.67 570.92 249.505 570.92 249.325C570.92 249.145 570.95 248.98 571.01 248.83C571.08 248.68 571.17 248.55 571.28 248.44C571.4 248.32 571.535 248.23 571.685 248.17C571.845 248.1 572.01 248.065 572.18 248.065C572.53 248.065 572.83 248.19 573.08 248.44C573.33 248.68 573.455 248.975 573.455 249.325C573.455 249.675 573.33 249.975 573.08 250.225C572.83 250.465 572.53 250.585 572.18 250.585ZM571.205 259V251.65H573.17V259H571.205ZM575.704 253.33H574.414V251.65H575.704V249.4H577.669V251.65H579.469V253.33H577.669V256.18C577.669 256.35 577.684 256.51 577.714 256.66C577.754 256.8 577.824 256.92 577.924 257.02C578.064 257.18 578.264 257.26 578.524 257.26C578.694 257.26 578.829 257.245 578.929 257.215C579.029 257.175 579.124 257.125 579.214 257.065L579.769 258.79C579.539 258.9 579.289 258.98 579.019 259.03C578.759 259.09 578.469 259.12 578.149 259.12C577.779 259.12 577.444 259.065 577.144 258.955C576.854 258.835 576.609 258.675 576.409 258.475C575.939 258.025 575.704 257.385 575.704 256.555V253.33ZM582.082 250.585C581.912 250.585 581.747 250.555 581.587 250.495C581.437 250.425 581.302 250.335 581.182 250.225C581.072 250.105 580.982 249.97 580.912 249.82C580.852 249.67 580.822 249.505 580.822 249.325C580.822 249.145 580.852 248.98 580.912 248.83C580.982 248.68 581.072 248.55 581.182 248.44C581.302 248.32 581.437 248.23 581.587 248.17C581.747 248.1 581.912 248.065 582.082 248.065C582.432 248.065 582.732 248.19 582.982 248.44C583.232 248.68 583.357 248.975 583.357 249.325C583.357 249.675 583.232 249.975 582.982 250.225C582.732 250.465 582.432 250.585 582.082 250.585ZM581.107 259V251.65H583.072V259H581.107ZM590.271 258.115H590.151C589.971 258.425 589.691 258.69 589.311 258.91C588.931 259.13 588.461 259.24 587.901 259.24C587.431 259.24 586.981 259.145 586.551 258.955C586.131 258.755 585.756 258.485 585.426 258.145C585.106 257.795 584.851 257.38 584.661 256.9C584.471 256.42 584.376 255.895 584.376 255.325C584.376 254.755 584.471 254.23 584.661 253.75C584.851 253.27 585.106 252.86 585.426 252.52C585.756 252.17 586.131 251.9 586.551 251.71C586.981 251.51 587.431 251.41 587.901 251.41C588.461 251.41 588.931 251.52 589.311 251.74C589.691 251.96 589.971 252.225 590.151 252.535H590.271L590.151 251.485V248.26H592.116V259H590.271V258.115ZM588.306 257.425C588.566 257.425 588.811 257.38 589.041 257.29C589.281 257.19 589.491 257.05 589.671 256.87C589.851 256.69 589.996 256.47 590.106 256.21C590.216 255.95 590.271 255.655 590.271 255.325C590.271 254.995 590.216 254.7 590.106 254.44C589.996 254.18 589.851 253.96 589.671 253.78C589.491 253.6 589.281 253.465 589.041 253.375C588.811 253.275 588.566 253.225 588.306 253.225C588.046 253.225 587.796 253.275 587.556 253.375C587.326 253.475 587.121 253.615 586.941 253.795C586.761 253.975 586.616 254.195 586.506 254.455C586.396 254.715 586.341 255.005 586.341 255.325C586.341 255.645 586.396 255.935 586.506 256.195C586.616 256.455 586.761 256.675 586.941 256.855C587.121 257.035 587.326 257.175 587.556 257.275C587.796 257.375 588.046 257.425 588.306 257.425ZM598.247 258.22H598.127C597.897 258.5 597.617 258.74 597.287 258.94C596.967 259.14 596.552 259.24 596.042 259.24C595.662 259.24 595.302 259.175 594.962 259.045C594.632 258.925 594.342 258.755 594.092 258.535C593.842 258.315 593.647 258.05 593.507 257.74C593.367 257.43 593.297 257.09 593.297 256.72C593.297 256.34 593.372 256 593.522 255.7C593.672 255.39 593.882 255.125 594.152 254.905C594.422 254.685 594.737 254.52 595.097 254.41C595.467 254.29 595.867 254.23 596.297 254.23C596.777 254.23 597.172 254.27 597.482 254.35C597.792 254.42 598.047 254.495 598.247 254.575V254.35C598.247 253.96 598.092 253.64 597.782 253.39C597.472 253.13 597.087 253 596.627 253C595.947 253 595.372 253.285 594.902 253.855L593.477 252.88C594.257 251.9 595.322 251.41 596.672 251.41C597.812 251.41 598.682 251.68 599.282 252.22C599.882 252.75 600.182 253.54 600.182 254.59V259H598.247V258.22ZM598.247 256.015C598.017 255.905 597.777 255.82 597.527 255.76C597.287 255.69 597.022 255.655 596.732 255.655C596.262 255.655 595.897 255.76 595.637 255.97C595.387 256.17 595.262 256.42 595.262 256.72C595.262 257.02 595.382 257.26 595.622 257.44C595.872 257.62 596.157 257.71 596.477 257.71C596.737 257.71 596.977 257.665 597.197 257.575C597.417 257.475 597.602 257.35 597.752 257.2C597.912 257.04 598.032 256.86 598.112 256.66C598.202 256.45 598.247 256.235 598.247 256.015ZM604.581 259.24C604.101 259.24 603.671 259.18 603.291 259.06C602.921 258.94 602.596 258.785 602.316 258.595C602.046 258.395 601.816 258.17 601.626 257.92C601.436 257.66 601.291 257.4 601.191 257.14L602.946 256.39C603.116 256.77 603.341 257.055 603.621 257.245C603.911 257.425 604.231 257.515 604.581 257.515C604.941 257.515 605.226 257.45 605.436 257.32C605.646 257.19 605.751 257.035 605.751 256.855C605.751 256.655 605.661 256.495 605.481 256.375C605.311 256.245 605.011 256.13 604.581 256.03L603.546 255.805C603.316 255.755 603.076 255.675 602.826 255.565C602.586 255.455 602.366 255.315 602.166 255.145C601.966 254.975 601.801 254.77 601.671 254.53C601.541 254.29 601.476 254.01 601.476 253.69C601.476 253.33 601.551 253.01 601.701 252.73C601.861 252.45 602.076 252.215 602.346 252.025C602.616 251.825 602.931 251.675 603.291 251.575C603.661 251.465 604.056 251.41 604.476 251.41C605.176 251.41 605.801 251.55 606.351 251.83C606.901 252.1 607.306 252.535 607.566 253.135L605.871 253.825C605.731 253.535 605.526 253.325 605.256 253.195C604.986 253.065 604.716 253 604.446 253C604.166 253 603.921 253.06 603.711 253.18C603.501 253.29 603.396 253.435 603.396 253.615C603.396 253.785 603.481 253.92 603.651 254.02C603.831 254.12 604.071 254.21 604.371 254.29L605.496 254.56C606.246 254.74 606.801 255.03 607.161 255.43C607.531 255.82 607.716 256.285 607.716 256.825C607.716 257.145 607.641 257.45 607.491 257.74C607.341 258.03 607.126 258.29 606.846 258.52C606.576 258.74 606.246 258.915 605.856 259.045C605.476 259.175 605.051 259.24 604.581 259.24Z" fill="#474747"/>
<path fill-rule="evenodd" clip-rule="evenodd" d="M143.446 89.9452H46.3138C32.2254 89.9452 20.8044 101.426 20.8044 115.589V200.411C20.8044 214.574 32.2254 226.055 46.3138 226.055H143.446C157.534 226.055 168.955 214.574 168.955 200.411V115.589C168.955 101.426 157.534 89.9452 143.446 89.9452ZM46.3138 86C30.0579 86 16.8799 99.2475 16.8799 115.589V200.411C16.8799 216.753 30.0579 230 46.3138 230H143.446C159.702 230 172.88 216.753 172.88 200.411V115.589C172.88 99.2475 159.702 86 143.446 86H46.3138Z" fill="#DFDEDB"/>
<path d="M94.38 178.043L109.77 187.351C112.588 189.057 116.037 186.535 115.295 183.346L111.216 165.842L124.825 154.05C127.31 151.899 125.975 147.82 122.712 147.56L104.8 146.04L97.7917 129.501C96.5308 126.497 92.2292 126.497 90.9683 129.501L83.9596 146.003L66.0483 147.523C62.785 147.783 61.45 151.862 63.9346 154.013L77.5442 165.805L73.465 183.309C72.7233 186.498 76.1721 189.02 78.9904 187.314L94.38 178.043Z" fill="#2F5830"/>
<path fill-rule="evenodd" clip-rule="evenodd" d="M349.446 91.9452H252.314C238.225 91.9452 226.804 103.426 226.804 117.589V202.411C226.804 216.574 238.225 228.055 252.314 228.055H349.446C363.534 228.055 374.955 216.574 374.955 202.411V117.589C374.955 103.426 363.534 91.9452 349.446 91.9452ZM252.314 88C236.058 88 222.88 101.247 222.88 117.589V202.411C222.88 218.753 236.058 232 252.314 232H349.446C365.702 232 378.88 218.753 378.88 202.411V117.589C378.88 101.247 365.702 88 349.446 88H252.314Z" fill="#DFDEDB"/>
<path d="M321.617 138.139C318.791 135.284 315.423 133.02 311.713 131.479C308.002 129.939 304.021 129.153 300.003 129.167C283.168 129.167 269.447 142.887 269.447 159.722C269.447 165.118 270.866 170.36 273.517 174.985L269.201 190.833L285.388 186.578C289.859 189.014 294.885 190.309 300.003 190.309C316.838 190.309 330.559 176.588 330.559 159.753C330.559 151.582 327.383 143.905 321.617 138.139ZM300.003 185.129C295.44 185.129 290.969 183.896 287.053 181.583L286.128 181.028L276.508 183.557L279.067 174.183L278.451 173.227C275.915 169.179 274.569 164.499 274.566 159.722C274.566 145.724 285.974 134.316 299.972 134.316C306.756 134.316 313.138 136.968 317.917 141.778C320.284 144.133 322.159 146.935 323.435 150.021C324.71 153.106 325.361 156.414 325.348 159.753C325.41 173.752 314.002 185.129 300.003 185.129ZM313.94 166.136C313.169 165.766 309.407 163.916 308.729 163.638C308.02 163.392 307.527 163.268 307.002 164.008C306.478 164.779 305.029 166.506 304.597 166.999C304.166 167.523 303.703 167.585 302.932 167.184C302.162 166.814 299.695 165.982 296.797 163.392C294.515 161.357 293.004 158.859 292.542 158.088C292.11 157.317 292.48 156.917 292.881 156.516C293.22 156.177 293.652 155.622 294.022 155.19C294.392 154.758 294.546 154.419 294.792 153.926C295.039 153.402 294.916 152.97 294.731 152.6C294.546 152.23 293.004 148.468 292.387 146.927C291.771 145.447 291.123 145.632 290.661 145.601H289.181C288.657 145.601 287.855 145.786 287.146 146.557C286.467 147.327 284.494 149.177 284.494 152.939C284.494 156.701 287.238 160.339 287.608 160.832C287.978 161.357 293.004 169.065 300.651 172.364C302.47 173.166 303.888 173.628 304.998 173.968C306.817 174.553 308.482 174.461 309.808 174.276C311.288 174.06 314.341 172.426 314.957 170.637C315.605 168.849 315.605 167.338 315.389 166.999C315.173 166.66 314.711 166.506 313.94 166.136Z" fill="#315C32"/>
<path fill-rule="evenodd" clip-rule="evenodd" d="M559.446 89.9452H462.314C448.225 89.9452 436.804 101.426 436.804 115.589V200.411C436.804 214.574 448.225 226.055 462.314 226.055H559.446C573.534 226.055 584.955 214.574 584.955 200.411V115.589C584.955 101.426 573.534 89.9452 559.446 89.9452ZM462.314 86C446.058 86 432.88 99.2475 432.88 115.589V200.411C432.88 216.753 446.058 230 462.314 230H559.446C575.702 230 588.88 216.753 588.88 200.411V115.589C588.88 99.2475 575.702 86 559.446 86H462.314Z" fill="#DFDEDB"/>
<path fill-rule="evenodd" clip-rule="evenodd" d="M516.977 136.667C516.977 136.49 516.905 136.32 516.778 136.195C516.651 136.07 516.479 136 516.299 136H497.331C495.355 136 493.46 136.773 492.062 138.148C490.665 139.523 489.88 141.388 489.88 143.333V180.667C489.88 182.612 490.665 184.477 492.062 185.852C493.46 187.227 495.355 188 497.331 188H524.428C526.405 188 528.3 187.227 529.697 185.852C531.095 184.477 531.88 182.612 531.88 180.667V154.392C531.88 154.215 531.809 154.046 531.681 153.921C531.554 153.796 531.382 153.725 531.202 153.725H519.009C518.47 153.725 517.953 153.515 517.572 153.14C517.191 152.764 516.977 152.256 516.977 151.725V136.667ZM519.009 162.667C519.548 162.667 520.065 162.877 520.446 163.252C520.827 163.628 521.041 164.136 521.041 164.667C521.041 165.197 520.827 165.706 520.446 166.081C520.065 166.456 519.548 166.667 519.009 166.667H502.751C502.212 166.667 501.695 166.456 501.314 166.081C500.933 165.706 500.719 165.197 500.719 164.667C500.719 164.136 500.933 163.628 501.314 163.252C501.695 162.877 502.212 162.667 502.751 162.667H519.009ZM519.009 173.333C519.548 173.333 520.065 173.544 520.446 173.919C520.827 174.294 521.041 174.803 521.041 175.333C521.041 175.864 520.827 176.372 520.446 176.748C520.065 177.123 519.548 177.333 519.009 177.333H502.751C502.212 177.333 501.695 177.123 501.314 176.748C500.933 176.372 500.719 175.864 500.719 175.333C500.719 174.803 500.933 174.294 501.314 173.919C501.695 173.544 502.212 173.333 502.751 173.333H519.009Z" fill="#315C32"/>
</svg>
