<svg width="280" height="661" viewBox="0 0 280 661" fill="none" xmlns="http://www.w3.org/2000/svg">
<path fill-rule="evenodd" clip-rule="evenodd" d="M94.683 11.1672C79.4046 19.0193 75.3597 22.2033 61.8639 37.0135C48.7264 51.4348 42.0749 64.2019 37.6201 83.5588C33.7843 100.216 36.2048 119.334 46.8029 156.113C56.8744 191.068 63.9499 178.708 -76.3327 371.255C-213.495 559.52 -220.496 569.645 -222.679 582.984C-225.604 600.837 -218.984 623.969 -206.882 638.188C-186.263 662.418 -152.223 667.691 -128.416 650.347C-121.744 645.486 -112.478 634.897 -106.676 625.502C-92.4162 602.411 38.8081 400.595 87.0721 327.525C109.258 293.94 131.057 262.765 135.512 258.246C142.24 251.429 146.111 249.704 158.297 248.093C166.374 247.025 178.824 246.522 185.968 246.974C234.908 250.077 276.293 204.715 279.448 144.512C280.379 126.755 276.817 103.531 272.894 101.764C271.509 101.141 260.818 109.696 249.134 120.777C208.924 158.911 200.845 162.801 180.08 154.016C160.71 145.818 137.408 117.89 133.623 98.336C129.647 77.7932 134.922 67.847 164.576 39.9715C192.592 13.6396 194.906 9.06872 182.33 4.93087C158.086 -3.04834 116.601 -0.0966201 94.683 11.1672ZM-178.196 567.681C-192.206 574.354 -198.999 593.65 -192.952 609.595C-188.946 620.153 -173.138 631.551 -162.096 631.847C-150.812 632.15 -136.312 621.457 -133.253 610.578C-130.395 600.411 -133.08 586.335 -139.564 577.513C-147.618 566.553 -166.003 561.873 -178.196 567.681Z" fill="#315C32"/>
</svg>
