<svg width="336" height="623" viewBox="0 0 336 623" fill="none" xmlns="http://www.w3.org/2000/svg">
<path fill-rule="evenodd" clip-rule="evenodd" d="M2.78184 166.557C6.69443 184.006 8.75211 188.867 19.4892 206.003C29.9451 222.685 40.2928 232.326 57.2151 241.148C71.7767 248.741 89.9844 250.432 126.315 247.566C160.843 244.843 150.965 234.854 298.265 421.418C442.288 603.832 450.117 613.256 461.973 618.421C477.839 625.339 500.679 623.583 516.479 614.234C543.401 598.304 555.735 564.409 544.916 536.102C541.883 528.169 534.122 516.312 526.706 508.282C508.479 488.548 350.625 309.283 293.636 243.603C267.443 213.412 243.393 184.147 240.192 178.571C235.362 170.152 234.615 165.789 235.796 152.889C236.578 144.339 238.841 131.41 240.825 124.154C254.418 74.4418 221.543 21.9062 166.567 5.48685C150.352 0.644114 128.098 -0.769743 125.603 2.88302C124.724 4.17285 130.292 17.0522 137.977 31.5068C164.427 81.2513 166.254 90.4205 153.58 109.88C141.756 128.03 110.826 145.913 91.9158 145.532C72.0495 145.132 64.0085 137.525 44.7314 100.893C26.5225 66.2863 22.8029 62.9043 16.2212 74.9473C3.53075 98.164 -2.83049 141.525 2.78184 166.557ZM457.57 569.273C460.67 585.158 477.024 596.374 493.092 593.636C503.733 591.821 517.736 578.038 520.429 566.733C523.182 555.181 516.472 537.912 507.083 532.382C498.308 527.215 484.704 526.901 475.126 531.646C463.227 537.541 454.871 555.448 457.57 569.273Z" fill="#C66D2C"/>
</svg>
