<svg width="43" height="52" viewBox="0 0 43 52" fill="none" xmlns="http://www.w3.org/2000/svg">
<path fill-rule="evenodd" clip-rule="evenodd" d="M27.9767 0.666667C27.9767 0.489856 27.9053 0.320287 27.7782 0.195262C27.6512 0.070238 27.4789 0 27.2992 0H8.3315C6.35521 0 4.45986 0.772617 3.06241 2.14788C1.66496 3.52315 0.879883 5.38841 0.879883 7.33333V44.6667C0.879883 46.6116 1.66496 48.4769 3.06241 49.8521C4.45986 51.2274 6.35521 52 8.3315 52H35.4283C37.4046 52 39.2999 51.2274 40.6974 49.8521C42.0948 48.4769 42.8799 46.6116 42.8799 44.6667V18.392C42.8799 18.2152 42.8085 18.0456 42.6815 17.9206C42.5544 17.7956 42.3821 17.7253 42.2025 17.7253H30.0089C29.4699 17.7253 28.953 17.5146 28.5719 17.1395C28.1908 16.7645 27.9767 16.2558 27.9767 15.7253V0.666667ZM30.0089 26.6667C30.5479 26.6667 31.0648 26.8774 31.4459 27.2525C31.8271 27.6275 32.0412 28.1362 32.0412 28.6667C32.0412 29.1971 31.8271 29.7058 31.4459 30.0809C31.0648 30.456 30.5479 30.6667 30.0089 30.6667H13.7508C13.2119 30.6667 12.695 30.456 12.3138 30.0809C11.9327 29.7058 11.7186 29.1971 11.7186 28.6667C11.7186 28.1362 11.9327 27.6275 12.3138 27.2525C12.695 26.8774 13.2119 26.6667 13.7508 26.6667H30.0089ZM30.0089 37.3333C30.5479 37.3333 31.0648 37.544 31.4459 37.9191C31.8271 38.2942 32.0412 38.8029 32.0412 39.3333C32.0412 39.8638 31.8271 40.3725 31.4459 40.7476C31.0648 41.1226 30.5479 41.3333 30.0089 41.3333H13.7508C13.2119 41.3333 12.695 41.1226 12.3138 40.7476C11.9327 40.3725 11.7186 39.8638 11.7186 39.3333C11.7186 38.8029 11.9327 38.2942 12.3138 37.9191C12.695 37.544 13.2119 37.3333 13.7508 37.3333H30.0089Z" fill="#315C32"/>
</svg>
