<svg width="432" height="67" viewBox="0 0 432 67" fill="none" xmlns="http://www.w3.org/2000/svg">
<path d="M427.444 65.6401C426.195 65.6401 425.12 65.2015 424.219 64.3243C423.351 63.4121 422.918 62.3243 422.918 61.0612C422.918 59.798 423.351 58.7279 424.219 57.8507C425.12 56.9735 426.195 56.5349 427.444 56.5349C428.693 56.5349 429.75 56.9735 430.617 57.8507C431.484 58.7279 431.918 59.798 431.918 61.0612C431.918 62.3243 431.484 63.4121 430.617 64.3243C429.75 65.2015 428.693 65.6401 427.444 65.6401ZM423.906 38.4822V27.6401H430.93V38.4822L430.201 52.377H424.635L423.906 38.4822Z" fill="#474747"/>
<path d="M399.517 42.9089H399.946C400.768 41.5927 401.877 40.5611 403.272 39.8141C404.667 39.0314 406.258 38.6401 408.047 38.6401C409.692 38.6401 411.14 38.9069 412.392 39.4405C413.644 39.9741 414.663 40.739 415.45 41.735C416.273 42.6955 416.881 43.8694 417.274 45.2567C417.703 46.6085 417.918 48.1204 417.918 49.7923V65.6401H410.89V50.6461C410.89 48.7607 410.461 47.3733 409.603 46.484C408.78 45.5591 407.564 45.0967 405.954 45.0967C404.989 45.0967 404.13 45.3101 403.379 45.737C402.664 46.1283 402.038 46.6797 401.502 47.3911C401.001 48.067 400.608 48.8852 400.321 49.8457C400.071 50.7706 399.946 51.7666 399.946 52.8338V65.6401H392.918V39.4939H399.517V42.9089Z" fill="#474747"/>
<path d="M374.918 38.6401C376.964 38.6401 378.831 38.9977 380.518 39.7129C382.241 40.3924 383.713 41.3579 384.933 42.6095C386.19 43.8253 387.159 45.2915 387.841 47.008C388.559 48.7244 388.918 50.6018 388.918 52.6401C388.918 54.6785 388.559 56.5558 387.841 58.2723C387.159 59.9888 386.19 61.4728 384.933 62.7244C383.713 63.9403 382.241 64.9058 380.518 65.621C378.831 66.3004 376.964 66.6401 374.918 66.6401C372.872 66.6401 370.987 66.3004 369.264 65.621C367.577 64.9058 366.105 63.9403 364.849 62.7244C363.628 61.4728 362.659 59.9888 361.941 58.2723C361.259 56.5558 360.918 54.6785 360.918 52.6401C360.918 50.6018 361.259 48.7244 361.941 47.008C362.659 45.2915 363.628 43.8253 364.849 42.6095C366.105 41.3579 367.577 40.3924 369.264 39.7129C370.987 38.9977 372.872 38.6401 374.918 38.6401ZM374.918 60.1497C375.815 60.1497 376.677 59.9888 377.503 59.667C378.364 59.3094 379.118 58.8087 379.764 58.165C380.41 57.5214 380.913 56.7346 381.272 55.8049C381.667 54.8751 381.864 53.8202 381.864 52.6401C381.864 51.4601 381.667 50.4051 381.272 49.4754C380.913 48.5456 380.41 47.7589 379.764 47.1152C379.118 46.4716 378.364 45.9888 377.503 45.667C376.677 45.3094 375.815 45.1306 374.918 45.1306C373.985 45.1306 373.105 45.3094 372.28 45.667C371.454 45.9888 370.718 46.4716 370.072 47.1152C369.426 47.7589 368.905 48.5456 368.51 49.4754C368.151 50.4051 367.972 51.4601 367.972 52.6401C367.972 53.8202 368.151 54.8751 368.51 55.8049C368.905 56.7346 369.426 57.5214 370.072 58.165C370.718 58.8087 371.454 59.3094 372.28 59.667C373.105 59.9888 373.985 60.1497 374.918 60.1497Z" fill="#474747"/>
<path d="M344.495 45.3871H339.918V39.5105H344.495V31.6401H351.467V39.5105H357.854V45.3871H351.467V55.3562C351.467 55.9508 351.52 56.5105 351.627 57.0352C351.769 57.5249 352.017 57.9447 352.372 58.2945C352.869 58.8541 353.578 59.134 354.501 59.134C355.104 59.134 355.583 59.0815 355.938 58.9766C356.292 58.8366 356.629 58.6617 356.949 58.4519L358.918 64.4858C358.102 64.8706 357.215 65.1504 356.257 65.3253C355.334 65.5352 354.305 65.6401 353.17 65.6401C351.857 65.6401 350.669 65.4478 349.604 65.063C348.575 64.6432 347.706 64.0836 346.996 63.384C345.329 61.8099 344.495 59.5712 344.495 56.6679V45.3871Z" fill="#474747"/>
<path d="M328.918 65.6401V27.6401H335.918V65.6401H328.918Z" fill="#474747"/>
<path d="M319.391 35.6278C318.788 35.6278 318.202 35.5208 317.634 35.3068C317.101 35.0571 316.622 34.7362 316.196 34.3438C315.806 33.9159 315.486 33.4344 315.237 32.8994C315.024 32.3644 314.918 31.7759 314.918 31.134C314.918 30.492 315.024 29.9035 315.237 29.3685C315.486 28.8336 315.806 28.3699 316.196 27.9776C316.622 27.5496 317.101 27.2286 317.634 27.0146C318.202 26.765 318.788 26.6401 319.391 26.6401C320.634 26.6401 321.699 27.086 322.587 27.9776C323.474 28.8336 323.918 29.8857 323.918 31.134C323.918 32.3823 323.474 33.4522 322.587 34.3438C321.699 35.1998 320.634 35.6278 319.391 35.6278ZM315.93 65.6401V39.4261H322.906V65.6401H315.93Z" fill="#474747"/>
<path d="M270.918 27.6401H277.82L289.184 47.7547H289.6L300.964 27.6401H307.918V65.6401H300.964V46.9055L301.379 40.5368H300.964L291.52 57.5731H287.316L277.82 40.5368H277.405L277.82 46.9055V65.6401H270.918V27.6401Z" fill="#474747"/>
<path d="M239.918 38.6401C241.964 38.6401 243.831 38.9977 245.518 39.7129C247.241 40.3924 248.713 41.3579 249.933 42.6095C251.19 43.8253 252.159 45.2915 252.841 47.008C253.559 48.7244 253.918 50.6018 253.918 52.6401C253.918 54.6785 253.559 56.5558 252.841 58.2723C252.159 59.9888 251.19 61.4728 249.933 62.7244C248.713 63.9403 247.241 64.9058 245.518 65.621C243.831 66.3004 241.964 66.6401 239.918 66.6401C237.872 66.6401 235.987 66.3004 234.264 65.621C232.577 64.9058 231.105 63.9403 229.849 62.7244C228.628 61.4728 227.659 59.9888 226.941 58.2723C226.259 56.5558 225.918 54.6785 225.918 52.6401C225.918 50.6018 226.259 48.7244 226.941 47.008C227.659 45.2915 228.628 43.8253 229.849 42.6095C231.105 41.3579 232.577 40.3924 234.264 39.7129C235.987 38.9977 237.872 38.6401 239.918 38.6401ZM239.918 60.1497C240.815 60.1497 241.677 59.9888 242.503 59.667C243.364 59.3094 244.118 58.8087 244.764 58.165C245.41 57.5214 245.913 56.7346 246.272 55.8049C246.667 54.8751 246.864 53.8202 246.864 52.6401C246.864 51.4601 246.667 50.4051 246.272 49.4754C245.913 48.5456 245.41 47.7589 244.764 47.1152C244.118 46.4716 243.364 45.9888 242.503 45.667C241.677 45.3094 240.815 45.1306 239.918 45.1306C238.985 45.1306 238.105 45.3094 237.28 45.667C236.454 45.9888 235.718 46.4716 235.072 47.1152C234.426 47.7589 233.905 48.5456 233.51 49.4754C233.151 50.4051 232.972 51.4601 232.972 52.6401C232.972 53.8202 233.151 54.8751 233.51 55.8049C233.905 56.7346 234.426 57.5214 235.072 58.165C235.718 58.8087 236.454 59.3094 237.28 59.667C238.105 59.9888 238.985 60.1497 239.918 60.1497Z" fill="#474747"/>
<path d="M169.918 39.4939H176.291V42.9089H176.706C177.5 41.6283 178.571 40.5967 179.918 39.8141C181.3 39.0314 182.82 38.6401 184.478 38.6401C186.412 38.6401 188.035 39.1026 189.348 40.0275C190.661 40.9524 191.593 42.0907 192.146 43.4425C192.94 42.1263 194.063 41.0057 195.514 40.0808C196.965 39.1204 198.726 38.6401 200.799 38.6401C202.353 38.6401 203.7 38.9069 204.84 39.4405C205.98 39.9386 206.913 40.65 207.638 41.5749C208.398 42.4998 208.968 43.6204 209.348 44.9366C209.728 46.2172 209.918 47.6224 209.918 49.152V65.6401H203.13V50.4326C203.13 46.8753 201.714 45.0967 198.882 45.0967C197.984 45.0967 197.189 45.3101 196.498 45.737C195.807 46.1283 195.22 46.6797 194.737 47.3911C194.288 48.067 193.925 48.8852 193.649 49.8457C193.407 50.8061 193.286 51.8378 193.286 52.9405V65.6401H186.498V50.4326C186.498 46.8753 185.013 45.0967 182.042 45.0967C181.179 45.0967 180.419 45.3101 179.763 45.737C179.106 46.1283 178.554 46.6797 178.104 47.3911C177.655 48.067 177.31 48.8852 177.068 49.8457C176.826 50.8061 176.706 51.8378 176.706 52.9405V65.6401H169.918V39.4939Z" fill="#474747"/>
<path d="M151.918 38.6401C153.964 38.6401 155.831 38.9977 157.518 39.7129C159.241 40.3924 160.713 41.3579 161.933 42.6095C163.19 43.8253 164.159 45.2915 164.841 47.008C165.559 48.7244 165.918 50.6018 165.918 52.6401C165.918 54.6785 165.559 56.5558 164.841 58.2723C164.159 59.9888 163.19 61.4728 161.933 62.7244C160.713 63.9403 159.241 64.9058 157.518 65.621C155.831 66.3004 153.964 66.6401 151.918 66.6401C149.872 66.6401 147.987 66.3004 146.264 65.621C144.577 64.9058 143.105 63.9403 141.849 62.7244C140.628 61.4728 139.659 59.9888 138.941 58.2723C138.259 56.5558 137.918 54.6785 137.918 52.6401C137.918 50.6018 138.259 48.7244 138.941 47.008C139.659 45.2915 140.628 43.8253 141.849 42.6095C143.105 41.3579 144.577 40.3924 146.264 39.7129C147.987 38.9977 149.872 38.6401 151.918 38.6401ZM151.918 60.1497C152.815 60.1497 153.677 59.9888 154.503 59.667C155.364 59.3094 156.118 58.8087 156.764 58.165C157.41 57.5214 157.913 56.7346 158.272 55.8049C158.667 54.8751 158.864 53.8202 158.864 52.6401C158.864 51.4601 158.667 50.4051 158.272 49.4754C157.913 48.5456 157.41 47.7589 156.764 47.1152C156.118 46.4716 155.364 45.9888 154.503 45.667C153.677 45.3094 152.815 45.1306 151.918 45.1306C150.985 45.1306 150.105 45.3094 149.28 45.667C148.454 45.9888 147.718 46.4716 147.072 47.1152C146.426 47.7589 145.905 48.5456 145.51 49.4754C145.151 50.4051 144.972 51.4601 144.972 52.6401C144.972 53.8202 145.151 54.8751 145.51 55.8049C145.905 56.7346 146.426 57.5214 147.072 58.165C147.718 58.8087 148.454 59.3094 149.28 59.667C150.105 59.9888 150.985 60.1497 151.918 60.1497Z" fill="#474747"/>
<path d="M135.918 59.0769C134.793 61.294 133.211 63.1178 131.172 64.5482C129.167 65.9428 126.654 66.6401 123.63 66.6401C121.626 66.6401 119.78 66.3004 118.092 65.621C116.44 64.9058 114.998 63.9224 113.768 62.6708C112.572 61.4192 111.623 59.953 110.92 58.2723C110.252 56.5558 109.918 54.6785 109.918 52.6401C109.918 50.6018 110.252 48.7244 110.92 47.008C111.623 45.2915 112.572 43.8253 113.768 42.6095C114.998 41.3579 116.44 40.3924 118.092 39.7129C119.78 38.9977 121.626 38.6401 123.63 38.6401C126.618 38.6401 129.132 39.3375 131.172 40.7321C133.211 42.1267 134.705 43.9326 135.654 46.1497L129.326 48.8317C128.728 47.6159 127.954 46.704 127.005 46.0961C126.091 45.4524 124.931 45.1306 123.524 45.1306C122.61 45.1306 121.749 45.3094 120.94 45.667C120.132 46.0246 119.411 46.5252 118.778 47.1689C118.18 47.8125 117.706 48.5993 117.354 49.529C117.002 50.4588 116.827 51.4958 116.827 52.6401C116.827 53.7845 117.002 54.8215 117.354 55.7512C117.706 56.681 118.18 57.4677 118.778 58.1114C119.411 58.7551 120.132 59.2557 120.94 59.6133C121.749 59.9709 122.61 60.1497 123.524 60.1497C124.966 60.1497 126.179 59.8279 127.163 59.1842C128.183 58.5048 128.992 57.5392 129.589 56.2876L135.918 59.0769Z" fill="#474747"/>
<path d="M94.502 59.4524C93.3233 61.598 91.7286 63.3323 89.718 64.6555C87.742 65.9786 85.3153 66.6401 82.438 66.6401C80.4966 66.6401 78.694 66.3004 77.03 65.621C75.4006 64.9058 73.9793 63.9224 72.766 62.6708C71.5526 61.4192 70.5993 59.953 69.906 58.2723C69.2473 56.5558 68.918 54.6785 68.918 52.6401C68.918 50.7449 69.2473 48.9569 69.906 47.2762C70.5646 45.5597 71.4833 44.0756 72.662 42.824C73.8406 41.5367 75.2273 40.5175 76.822 39.7666C78.4513 39.0156 80.2366 38.6401 82.178 38.6401C84.2233 38.6401 86.0433 38.9977 87.638 39.7129C89.2326 40.3924 90.5673 41.3579 91.642 42.6095C92.7166 43.8253 93.5313 45.2736 94.086 46.9543C94.6406 48.635 94.918 50.4588 94.918 52.4256C94.918 52.6759 94.918 52.8905 94.918 53.0693C94.8833 53.2838 94.866 53.4805 94.866 53.6593C94.8313 53.8381 94.814 54.0348 94.814 54.2493H75.626C75.7646 55.3221 76.042 56.2519 76.458 57.0386C76.9086 57.7896 77.446 58.4332 78.07 58.9696C78.7286 59.4703 79.4393 59.8458 80.202 60.0961C80.9646 60.3106 81.7446 60.4179 82.542 60.4179C84.102 60.4179 85.3846 60.0603 86.39 59.3451C87.43 58.5942 88.2446 57.6644 88.834 56.5558L94.502 59.4524ZM88.314 49.2608C88.2793 48.7959 88.1233 48.2774 87.846 47.7053C87.6033 47.1331 87.222 46.5967 86.702 46.0961C86.2166 45.5954 85.5926 45.1842 84.83 44.8624C84.102 44.5405 83.218 44.3796 82.178 44.3796C80.722 44.3796 79.4393 44.8087 78.33 45.667C77.2206 46.5252 76.4406 47.7232 75.99 49.2608H88.314Z" fill="#474747"/>
<path d="M56.918 65.6401V27.6401H63.918V65.6401H56.918Z" fill="#474747"/>
<path d="M45.1729 62.9926H44.7546C43.9528 63.9939 42.9768 64.8521 41.8265 65.5673C40.711 66.2825 39.2644 66.6401 37.4866 66.6401C36.162 66.6401 34.9071 66.4077 33.7219 65.9428C32.5716 65.5137 31.5607 64.9058 30.6892 64.1191C29.8177 63.3323 29.138 62.3847 28.65 61.2762C28.162 60.1676 27.918 58.9518 27.918 57.6286C27.918 56.2698 28.1794 55.0539 28.7023 53.9811C29.2252 52.8726 29.9572 51.9249 30.8984 51.1382C31.8395 50.3515 32.9376 49.7615 34.1925 49.3681C35.4822 48.939 36.8766 48.7244 38.3755 48.7244C40.0487 48.7244 41.4256 48.8675 42.5062 49.1535C43.5868 49.4039 44.4757 49.6721 45.1729 49.9581V49.1535C45.1729 47.7589 44.6326 46.6146 43.552 45.7206C42.4713 44.7908 41.1293 44.326 39.5258 44.326C37.1554 44.326 35.1511 45.3451 33.5127 47.3834L28.5454 43.8968C31.2644 40.3924 34.9768 38.6401 39.6827 38.6401C43.6565 38.6401 46.6892 39.6057 48.7807 41.5367C50.8722 43.432 51.918 46.257 51.918 50.0118V65.7819H45.1729V62.9926ZM45.1729 55.1076C44.3711 54.7142 43.5345 54.4103 42.6631 54.1957C41.8265 53.9454 40.9027 53.8202 39.8918 53.8202C38.2535 53.8202 36.9812 54.1957 36.0748 54.9467C35.2034 55.6618 34.7676 56.5558 34.7676 57.6286C34.7676 58.7014 35.1859 59.5597 36.0225 60.2034C36.894 60.847 37.8875 61.1689 39.0029 61.1689C39.9093 61.1689 40.7459 61.008 41.5127 60.6861C42.2796 60.3285 42.9245 59.8815 43.4474 59.3451C44.0051 58.773 44.4234 58.1293 44.7023 57.4141C45.016 56.6631 45.1729 55.8943 45.1729 55.1076Z" fill="#474747"/>
<path d="M1.91797 27.6401H25.918V34.4334H9.05453V43.6681H24.2263V50.4614H9.05453V65.6401H1.91797V27.6401Z" fill="#474747"/>
<path d="M67.4178 9.31406H65.7011V8.4557C65.7011 7.95652 65.7985 7.51212 65.9933 7.12251C66.2003 6.73291 66.5838 6.27634 67.1439 5.7528C67.7161 5.22927 68.0996 4.81531 68.2944 4.51093C68.5014 4.20654 68.6049 3.85955 68.6049 3.46994C68.6049 2.89771 68.4223 2.44722 68.057 2.11849C67.6918 1.77758 67.1987 1.60713 66.5777 1.60713C65.5185 1.60713 64.8002 2.19154 64.4227 3.36037L62.8521 2.7029C63.1443 1.89934 63.6191 1.24796 64.2766 0.748778C64.9341 0.249593 65.7011 0 66.5777 0C67.6735 0 68.5684 0.328732 69.2624 0.986195C69.9685 1.63148 70.3216 2.4594 70.3216 3.46994C70.3216 3.9813 70.1938 4.4744 69.9381 4.94923C69.6824 5.41189 69.2015 5.96587 68.4953 6.61116C67.7892 7.25644 67.43 7.89564 67.4178 8.52875V9.31406ZM67.8013 12.2361C67.8013 12.577 67.6796 12.8692 67.4361 13.1127C67.2048 13.3562 66.9126 13.478 66.5595 13.478C66.2186 13.478 65.9264 13.3562 65.6829 13.1127C65.4393 12.8692 65.3176 12.577 65.3176 12.2361C65.3176 11.883 65.4393 11.5908 65.6829 11.3595C65.9264 11.116 66.2186 10.9942 66.5595 10.9942C66.9126 10.9942 67.2048 11.116 67.4361 11.3595C67.6796 11.5908 67.8013 11.883 67.8013 12.2361Z" fill="#474747"/>
<path d="M61.7552 10.8847C61.7552 11.6639 61.4143 12.3214 60.7325 12.8571C60.0507 13.3928 59.1923 13.6607 58.1574 13.6607C57.2564 13.6607 56.465 13.4293 55.7832 12.9667C55.1014 12.4918 54.6144 11.8709 54.3222 11.1039L55.8198 10.4647C56.0389 11.0004 56.3555 11.4204 56.7694 11.7248C57.1956 12.017 57.6582 12.1631 58.1574 12.1631C58.6931 12.1631 59.1375 12.0474 59.4906 11.8161C59.8558 11.5848 60.0385 11.3108 60.0385 10.9943C60.0385 10.422 59.6002 10.002 58.7236 9.73414L57.1895 9.35062C55.4484 8.91231 54.5779 8.07222 54.5779 6.83034C54.5779 6.0146 54.9066 5.36323 55.5641 4.87622C56.2337 4.37703 57.086 4.12744 58.1209 4.12744C58.9123 4.12744 59.6245 4.31616 60.2576 4.69359C60.9029 5.07102 61.3534 5.5763 61.6091 6.20941L60.1115 6.83034C59.9411 6.45291 59.661 6.16071 59.2714 5.95373C58.894 5.73457 58.4679 5.625 57.993 5.625C57.5547 5.625 57.159 5.73457 56.806 5.95373C56.465 6.17288 56.2946 6.44074 56.2946 6.75729C56.2946 7.26865 56.7755 7.63391 57.7374 7.85306L59.0888 8.20006C60.8664 8.63837 61.7552 9.53325 61.7552 10.8847Z" fill="#474747"/>
<path d="M46.9097 10.629C46.9097 11.0673 47.0923 11.4326 47.4575 11.7248C47.835 12.017 48.2733 12.1631 48.7725 12.1631C49.4786 12.1631 50.1057 11.9013 50.6535 11.3778C51.2136 10.8543 51.4936 10.2394 51.4936 9.53325C50.9701 9.11929 50.2396 8.91231 49.3021 8.91231C48.6203 8.91231 48.048 9.07668 47.5854 9.40541C47.1349 9.73414 46.9097 10.142 46.9097 10.629ZM49.0829 4.12744C50.3248 4.12744 51.3049 4.46226 52.0233 5.1319C52.7416 5.78936 53.1008 6.69642 53.1008 7.85306V13.3684H51.4936V12.1266H51.4206C50.7266 13.1493 49.8013 13.6607 48.6446 13.6607C47.6584 13.6607 46.8305 13.3684 46.1609 12.784C45.5034 12.1996 45.1747 11.4691 45.1747 10.5925C45.1747 9.66717 45.5217 8.93057 46.2157 8.38269C46.9218 7.8348 47.8593 7.56086 49.0281 7.56086C50.0265 7.56086 50.8483 7.74349 51.4936 8.10874V7.72522C51.4936 7.14081 51.2623 6.64772 50.7996 6.24593C50.337 5.83197 49.7952 5.625 49.1742 5.625C48.2368 5.625 47.4941 6.02069 46.9462 6.81208L45.4669 5.88068C46.2826 4.71185 47.488 4.12744 49.0829 4.12744Z" fill="#474747"/>
<path d="M39.2705 12.1266C40.0984 12.1266 40.7742 11.8283 41.2977 11.2317C41.8456 10.6351 42.1195 9.85589 42.1195 8.89404C42.1195 7.95655 41.8456 7.18342 41.2977 6.57466C40.762 5.9659 40.0863 5.66152 39.2705 5.66152C38.467 5.66152 37.7912 5.9659 37.2433 6.57466C36.6955 7.18342 36.4215 7.95655 36.4215 8.89404C36.4215 9.84371 36.6955 10.6168 37.2433 11.2134C37.7912 11.8222 38.467 12.1266 39.2705 12.1266ZM38.9966 13.6606C37.8278 13.6606 36.8233 13.198 35.9832 12.2727C35.1553 11.3352 34.7413 10.209 34.7413 8.89404C34.7413 7.57912 35.1553 6.45291 35.9832 5.51541C36.8233 4.59009 37.8278 4.12744 38.9966 4.12744C39.654 4.12744 40.2506 4.26745 40.7863 4.54748C41.3342 4.82751 41.7543 5.19886 42.0465 5.66152H42.1195L42.0465 4.41964V0.292236H43.7267V13.3684H42.1195V12.1266H42.0465C41.7543 12.5892 41.3342 12.9606 40.7863 13.2406C40.2506 13.5206 39.654 13.6606 38.9966 13.6606Z" fill="#474747"/>
<path d="M33.5022 1.3332C33.5022 1.66193 33.3865 1.94197 33.1552 2.17329C32.9238 2.40462 32.6438 2.52029 32.3151 2.52029C31.9863 2.52029 31.7063 2.40462 31.475 2.17329C31.2437 1.94197 31.128 1.66193 31.128 1.3332C31.128 1.00447 31.2437 0.724441 31.475 0.493112C31.7063 0.261783 31.9863 0.146118 32.3151 0.146118C32.6438 0.146118 32.9238 0.261783 33.1552 0.493112C33.3865 0.724441 33.5022 1.00447 33.5022 1.3332ZM33.1552 4.41963V13.3684H31.475V4.41963H33.1552Z" fill="#474747"/>
<path d="M26.5799 13.3684H24.8997L21.2836 4.41956H23.1099L25.7398 11.3594H25.7763L28.4427 4.41956H30.2324L26.5799 13.3684Z" fill="#474747"/>
<path d="M20.188 13.3684H18.5809V12.1266H18.5078C18.2521 12.5649 17.8564 12.9301 17.3207 13.2223C16.7972 13.5145 16.2493 13.6606 15.6771 13.6606C14.5813 13.6606 13.7351 13.3502 13.1385 12.7292C12.5541 12.0961 12.2619 11.2012 12.2619 10.0446V4.41964H13.9421V9.93502C13.9786 11.3961 14.7152 12.1266 16.1519 12.1266C16.8215 12.1266 17.3816 11.8587 17.8321 11.323C18.2826 10.7751 18.5078 10.1237 18.5078 9.36888V4.41964H20.188V13.3684ZM18.1608 0.292236L16.8459 2.62988H15.3849L16.3345 0.292236H18.1608Z" fill="#474747"/>
<path d="M0 13.3684V0.292236H3.99957C5.9963 0.292236 7.59735 0.89491 8.8027 2.10026C10.0202 3.30561 10.629 4.8823 10.629 6.83034C10.629 8.79055 10.0202 10.3733 8.8027 11.5787C7.59735 12.7719 5.9963 13.3684 3.99957 13.3684H0ZM1.68018 1.89937V11.7613H3.99957C5.52147 11.7613 6.72073 11.3291 7.59735 10.4646C8.47396 9.58803 8.91227 8.37659 8.91227 6.83034C8.91227 5.29626 8.47396 4.09091 7.59735 3.21429C6.72073 2.33768 5.52147 1.89937 3.99957 1.89937H1.68018Z" fill="#474747"/>
</svg>
