<svg width="806" height="195" viewBox="0 0 806 195" fill="none" xmlns="http://www.w3.org/2000/svg">
<path d="M8.2 34.65V50H3.6V14.2H24.5V18.6H8.2V30.35H22.9V34.65H8.2ZM34.3848 17.05C34.3848 17.95 34.0681 18.7167 33.4348 19.35C32.8014 19.9833 32.0348 20.3 31.1348 20.3C30.2348 20.3 29.4681 19.9833 28.8348 19.35C28.2014 18.7167 27.8848 17.95 27.8848 17.05C27.8848 16.15 28.2014 15.3833 28.8348 14.75C29.4681 14.1167 30.2348 13.8 31.1348 13.8C32.0348 13.8 32.8014 14.1167 33.4348 14.75C34.0681 15.3833 34.3848 16.15 34.3848 17.05ZM33.4348 25.5V50H28.8348V25.5H33.4348ZM44.0211 14.2V50H39.4211V14.2H44.0211ZM59.5703 50.4C57.5703 50.4 55.9036 49.7833 54.5703 48.55C53.2703 47.3167 52.6036 45.6 52.5703 43.4V29.7H48.2703V25.5H52.5703V18H57.1703V25.5H63.1703V29.7H57.1703V41.9C57.1703 43.5333 57.487 44.65 58.1203 45.25C58.7536 45.8167 59.4703 46.1 60.2703 46.1C60.637 46.1 60.987 46.0667 61.3203 46C61.687 45.9 62.0203 45.7833 62.3203 45.65L63.7703 49.75C62.5703 50.1833 61.1703 50.4 59.5703 50.4ZM72.1461 50H67.5461V25.5H71.9461V29.5H72.1461C72.6128 28.2 73.5628 27.1 74.9961 26.2C76.4628 25.2667 77.8961 24.8 79.2961 24.8C80.6294 24.8 81.7628 25 82.6961 25.4L81.2961 29.85C80.7294 29.6167 79.8294 29.5 78.5961 29.5C76.8628 29.5 75.3461 30.2 74.0461 31.6C72.7794 33 72.1461 34.6333 72.1461 36.5V50ZM95.1965 50.8C91.5965 50.8 88.6298 49.5667 86.2965 47.1C83.9632 44.6333 82.7965 41.5167 82.7965 37.75C82.7965 34.0167 83.9298 30.9167 86.1965 28.45C88.4632 25.95 91.3632 24.7 94.8965 24.7C98.5298 24.7 101.413 25.8833 103.546 28.25C105.713 30.5833 106.796 33.8667 106.796 38.1L106.746 38.6H87.4965C87.5632 41 88.3632 42.9333 89.8965 44.4C91.4298 45.8667 93.2632 46.6 95.3965 46.6C98.3298 46.6 100.63 45.1333 102.296 42.2L106.396 44.2C105.296 46.2667 103.763 47.8833 101.796 49.05C99.8632 50.2167 97.6632 50.8 95.1965 50.8ZM87.8465 34.8H101.896C101.763 33.1 101.063 31.7 99.7965 30.6C98.5632 29.4667 96.8965 28.9 94.7965 28.9C93.0632 28.9 91.5632 29.4333 90.2965 30.5C89.0632 31.5667 88.2465 33 87.8465 34.8ZM132.989 50.8C129.389 50.8 126.423 49.5667 124.089 47.1C121.756 44.6333 120.589 41.5167 120.589 37.75C120.589 34.0167 121.723 30.9167 123.989 28.45C126.256 25.95 129.156 24.7 132.689 24.7C136.323 24.7 139.206 25.8833 141.339 28.25C143.506 30.5833 144.589 33.8667 144.589 38.1L144.539 38.6H125.289C125.356 41 126.156 42.9333 127.689 44.4C129.223 45.8667 131.056 46.6 133.189 46.6C136.123 46.6 138.423 45.1333 140.089 42.2L144.189 44.2C143.089 46.2667 141.556 47.8833 139.589 49.05C137.656 50.2167 135.456 50.8 132.989 50.8ZM125.639 34.8H139.689C139.556 33.1 138.856 31.7 137.589 30.6C136.356 29.4667 134.689 28.9 132.589 28.9C130.856 28.9 129.356 29.4333 128.089 30.5C126.856 31.5667 126.039 33 125.639 34.8ZM171.782 46.6C173.982 46.6 175.832 45.7667 177.332 44.1C178.832 42.4667 179.582 40.35 179.582 37.75C179.582 35.1833 178.832 33.0667 177.332 31.4C175.832 29.7333 173.982 28.9 171.782 28.9C169.549 28.9 167.682 29.7333 166.182 31.4C164.716 33.0667 163.982 35.1833 163.982 37.75C163.982 40.35 164.716 42.4833 166.182 44.15C167.682 45.7833 169.549 46.6 171.782 46.6ZM172.532 50.8C170.732 50.8 169.082 50.4167 167.582 49.65C166.116 48.8833 164.982 47.8667 164.182 46.6H163.982L164.182 50V60.8H159.582V25.5H163.982V28.9H164.182C164.982 27.6333 166.116 26.6167 167.582 25.85C169.082 25.0833 170.732 24.7 172.532 24.7C175.766 24.7 178.499 25.9667 180.732 28.5C183.032 31.0667 184.182 34.15 184.182 37.75C184.182 41.3833 183.032 44.4667 180.732 47C178.499 49.5333 175.766 50.8 172.532 50.8ZM192.752 50H188.152V25.5H192.552V29.5H192.752C193.218 28.2 194.168 27.1 195.602 26.2C197.068 25.2667 198.502 24.8 199.902 24.8C201.235 24.8 202.368 25 203.302 25.4L201.902 29.85C201.335 29.6167 200.435 29.5 199.202 29.5C197.468 29.5 195.952 30.2 194.652 31.6C193.385 33 192.752 34.6333 192.752 36.5V50ZM203.402 37.75C203.402 33.9833 204.585 30.8667 206.952 28.4C209.352 25.9333 212.369 24.7 216.002 24.7C219.635 24.7 222.635 25.9333 225.002 28.4C227.402 30.8667 228.602 33.9833 228.602 37.75C228.602 41.55 227.402 44.6667 225.002 47.1C222.635 49.5667 219.635 50.8 216.002 50.8C212.369 50.8 209.352 49.5667 206.952 47.1C204.585 44.6333 203.402 41.5167 203.402 37.75ZM208.002 37.75C208.002 40.3833 208.769 42.5167 210.302 44.15C211.835 45.7833 213.735 46.6 216.002 46.6C218.269 46.6 220.169 45.7833 221.702 44.15C223.235 42.5167 224.002 40.3833 224.002 37.75C224.002 35.15 223.235 33.0333 221.702 31.4C220.135 29.7333 218.235 28.9 216.002 28.9C213.769 28.9 211.869 29.7333 210.302 31.4C208.769 33.0333 208.002 35.15 208.002 37.75ZM243.98 50.8C240.347 50.8 237.33 49.5667 234.93 47.1C232.564 44.5667 231.38 41.45 231.38 37.75C231.38 33.9833 232.564 30.8667 234.93 28.4C237.33 25.9333 240.347 24.7 243.98 24.7C246.48 24.7 248.664 25.3333 250.53 26.6C252.397 27.8333 253.797 29.55 254.73 31.75L250.53 33.5C249.23 30.4333 246.947 28.9 243.68 28.9C241.58 28.9 239.764 29.75 238.23 31.45C236.73 33.15 235.98 35.25 235.98 37.75C235.98 40.25 236.73 42.35 238.23 44.05C239.764 45.75 241.58 46.6 243.68 46.6C247.047 46.6 249.414 45.0667 250.78 42L254.88 43.75C253.98 45.95 252.564 47.6833 250.63 48.95C248.73 50.1833 246.514 50.8 243.98 50.8ZM280.404 50H276.004V46.6H275.804C275.104 47.8 274.02 48.8 272.554 49.6C271.12 50.4 269.62 50.8 268.054 50.8C265.054 50.8 262.737 49.95 261.104 48.25C259.504 46.5167 258.704 44.0667 258.704 40.9V25.5H263.304V40.6C263.404 44.6 265.42 46.6 269.354 46.6C271.187 46.6 272.72 45.8667 273.954 44.4C275.187 42.9 275.804 41.1167 275.804 39.05V25.5H280.404V50ZM290.603 50H286.003V25.5H290.403V29.5H290.603C291.07 28.2 292.02 27.1 293.453 26.2C294.92 25.2667 296.353 24.8 297.753 24.8C299.086 24.8 300.22 25 301.153 25.4L299.753 29.85C299.186 29.6167 298.286 29.5 297.053 29.5C295.32 29.5 293.803 30.2 292.503 31.6C291.236 33 290.603 34.6333 290.603 36.5V50ZM313.654 50.8C310.054 50.8 307.087 49.5667 304.754 47.1C302.42 44.6333 301.254 41.5167 301.254 37.75C301.254 34.0167 302.387 30.9167 304.654 28.45C306.92 25.95 309.82 24.7 313.354 24.7C316.987 24.7 319.87 25.8833 322.004 28.25C324.17 30.5833 325.254 33.8667 325.254 38.1L325.204 38.6H305.954C306.02 41 306.82 42.9333 308.354 44.4C309.887 45.8667 311.72 46.6 313.854 46.6C316.787 46.6 319.087 45.1333 320.754 42.2L324.854 44.2C323.754 46.2667 322.22 47.8833 320.254 49.05C318.32 50.2167 316.12 50.8 313.654 50.8ZM306.304 34.8H320.354C320.22 33.1 319.52 31.7 318.254 30.6C317.02 29.4667 315.354 28.9 313.254 28.9C311.52 28.9 310.02 29.4333 308.754 30.5C307.52 31.5667 306.704 33 306.304 34.8ZM343.796 42.5C343.796 43.7 344.296 44.7 345.296 45.5C346.33 46.3 347.53 46.7 348.896 46.7C350.83 46.7 352.546 45.9833 354.046 44.55C355.58 43.1167 356.346 41.4333 356.346 39.5C354.913 38.3667 352.913 37.8 350.346 37.8C348.48 37.8 346.913 38.25 345.646 39.15C344.413 40.05 343.796 41.1667 343.796 42.5ZM349.746 24.7C353.146 24.7 355.83 25.6167 357.796 27.45C359.763 29.25 360.746 31.7333 360.746 34.9V50H356.346V46.6H356.146C354.246 49.4 351.713 50.8 348.546 50.8C345.846 50.8 343.58 50 341.746 48.4C339.946 46.8 339.046 44.8 339.046 42.4C339.046 39.8667 339.996 37.85 341.896 36.35C343.83 34.85 346.396 34.1 349.596 34.1C352.33 34.1 354.58 34.6 356.346 35.6V34.55C356.346 32.95 355.713 31.6 354.446 30.5C353.18 29.3667 351.696 28.8 349.996 28.8C347.43 28.8 345.396 29.8833 343.896 32.05L339.846 29.5C342.08 26.3 345.38 24.7 349.746 24.7ZM384.441 43.2C384.441 45.3333 383.507 47.1333 381.641 48.6C379.774 50.0667 377.424 50.8 374.591 50.8C372.124 50.8 369.957 50.1667 368.091 48.9C366.224 47.6 364.891 45.9 364.091 43.8L368.191 42.05C368.791 43.5167 369.657 44.6667 370.791 45.5C371.957 46.3 373.224 46.7 374.591 46.7C376.057 46.7 377.274 46.3833 378.241 45.75C379.241 45.1167 379.741 44.3667 379.741 43.5C379.741 41.9333 378.541 40.7833 376.141 40.05L371.941 39C367.174 37.8 364.791 35.5 364.791 32.1C364.791 29.8667 365.691 28.0833 367.491 26.75C369.324 25.3833 371.657 24.7 374.491 24.7C376.657 24.7 378.607 25.2167 380.341 26.25C382.107 27.2833 383.341 28.6667 384.041 30.4L379.941 32.1C379.474 31.0667 378.707 30.2667 377.641 29.7C376.607 29.1 375.441 28.8 374.141 28.8C372.941 28.8 371.857 29.1 370.891 29.7C369.957 30.3 369.491 31.0333 369.491 31.9C369.491 33.3 370.807 34.3 373.441 34.9L377.141 35.85C382.007 37.05 384.441 39.5 384.441 43.2ZM2.8 86.5H8.95V89.7H9.35C10.1167 88.5 11.15 87.5333 12.45 86.8C13.7833 86.0667 15.25 85.7 16.85 85.7C18.7167 85.7 20.2833 86.1333 21.55 87C22.8167 87.8667 23.7167 88.9333 24.25 90.2C25.0167 88.9667 26.1 87.9167 27.5 87.05C28.9 86.15 30.6 85.7 32.6 85.7C34.1 85.7 35.4 85.95 36.5 86.45C37.6 86.9167 38.5 87.5833 39.2 88.45C39.9333 89.3167 40.4833 90.3667 40.85 91.6C41.2167 92.8 41.4 94.1167 41.4 95.55V111H34.85V96.75C34.85 93.4167 33.4833 91.75 30.75 91.75C29.8833 91.75 29.1167 91.95 28.45 92.35C27.7833 92.7167 27.2167 93.2333 26.75 93.9C26.3167 94.5333 25.9667 95.3 25.7 96.2C25.4667 97.1 25.35 98.0667 25.35 99.1V111H18.8V96.75C18.8 93.4167 17.3667 91.75 14.5 91.75C13.6667 91.75 12.9333 91.95 12.3 92.35C11.6667 92.7167 11.1333 93.2333 10.7 93.9C10.2667 94.5333 9.93333 95.3 9.7 96.2C9.46667 97.1 9.35 98.0667 9.35 99.1V111H2.8V86.5ZM61.65 108.4H61.25C60.4833 109.333 59.55 110.133 58.45 110.8C57.3833 111.467 56 111.8 54.3 111.8C53.0333 111.8 51.8333 111.583 50.7 111.15C49.6 110.75 48.6333 110.183 47.8 109.45C46.9667 108.717 46.3167 107.833 45.85 106.8C45.3833 105.767 45.15 104.633 45.15 103.4C45.15 102.133 45.4 101 45.9 100C46.4 98.9667 47.1 98.0833 48 97.35C48.9 96.6167 49.95 96.0667 51.15 95.7C52.3833 95.3 53.7167 95.1 55.15 95.1C56.75 95.1 58.0667 95.2333 59.1 95.5C60.1333 95.7333 60.9833 95.9833 61.65 96.25V95.5C61.65 94.2 61.1333 93.1333 60.1 92.3C59.0667 91.4333 57.7833 91 56.25 91C53.9833 91 52.0667 91.95 50.5 93.85L45.75 90.6C48.35 87.3333 51.9 85.7 56.4 85.7C60.2 85.7 63.1 86.6 65.1 88.4C67.1 90.1667 68.1 92.8 68.1 96.3V111H61.65V108.4ZM61.65 101.05C60.8833 100.683 60.0833 100.4 59.25 100.2C58.45 99.9667 57.5667 99.85 56.6 99.85C55.0333 99.85 53.8167 100.2 52.95 100.9C52.1167 101.567 51.7 102.4 51.7 103.4C51.7 104.4 52.1 105.2 52.9 105.8C53.7333 106.4 54.6833 106.7 55.75 106.7C56.6167 106.7 57.4167 106.55 58.15 106.25C58.8833 105.917 59.5 105.5 60 105C60.5333 104.467 60.9333 103.867 61.2 103.2C61.5 102.5 61.65 101.783 61.65 101.05ZM73.3078 86.5H79.4578V89.9H79.8578C80.1578 89.3 80.5578 88.75 81.0578 88.25C81.5578 87.75 82.1078 87.3167 82.7078 86.95C83.3411 86.5833 84.0078 86.3 84.7078 86.1C85.4411 85.9 86.1578 85.8 86.8578 85.8C87.7245 85.8 88.4578 85.8833 89.0578 86.05C89.6911 86.2167 90.2245 86.4333 90.6578 86.7L88.9078 92.65C88.5078 92.45 88.0578 92.3 87.5578 92.2C87.0911 92.0667 86.5078 92 85.8078 92C84.9078 92 84.0911 92.1833 83.3578 92.55C82.6245 92.8833 81.9911 93.3667 81.4578 94C80.9578 94.6333 80.5578 95.3833 80.2578 96.25C79.9911 97.0833 79.8578 98 79.8578 99V111H73.3078V86.5ZM115.405 104.75C114.339 106.817 112.839 108.517 110.905 109.85C109.005 111.15 106.622 111.8 103.755 111.8C101.855 111.8 100.105 111.483 98.5055 110.85C96.9388 110.183 95.5721 109.267 94.4055 108.1C93.2721 106.933 92.3721 105.567 91.7055 104C91.0721 102.4 90.7555 100.65 90.7555 98.75C90.7555 96.85 91.0721 95.1 91.7055 93.5C92.3721 91.9 93.2721 90.5333 94.4055 89.4C95.5721 88.2333 96.9388 87.3333 98.5055 86.7C100.105 86.0333 101.855 85.7 103.755 85.7C106.589 85.7 108.972 86.35 110.905 87.65C112.839 88.95 114.255 90.6333 115.155 92.7L109.155 95.2C108.589 94.0667 107.855 93.2167 106.955 92.65C106.089 92.05 104.989 91.75 103.655 91.75C102.789 91.75 101.972 91.9167 101.205 92.25C100.439 92.5833 99.7555 93.05 99.1555 93.65C98.5888 94.25 98.1388 94.9833 97.8055 95.85C97.4721 96.7167 97.3055 97.6833 97.3055 98.75C97.3055 99.8167 97.4721 100.783 97.8055 101.65C98.1388 102.517 98.5888 103.25 99.1555 103.85C99.7555 104.45 100.439 104.917 101.205 105.25C101.972 105.583 102.789 105.75 103.655 105.75C105.022 105.75 106.172 105.45 107.105 104.85C108.072 104.217 108.839 103.317 109.405 102.15L115.405 104.75ZM134.257 108.4H133.857C133.091 109.333 132.157 110.133 131.057 110.8C129.991 111.467 128.607 111.8 126.907 111.8C125.641 111.8 124.441 111.583 123.307 111.15C122.207 110.75 121.241 110.183 120.407 109.45C119.574 108.717 118.924 107.833 118.457 106.8C117.991 105.767 117.757 104.633 117.757 103.4C117.757 102.133 118.007 101 118.507 100C119.007 98.9667 119.707 98.0833 120.607 97.35C121.507 96.6167 122.557 96.0667 123.757 95.7C124.991 95.3 126.324 95.1 127.757 95.1C129.357 95.1 130.674 95.2333 131.707 95.5C132.741 95.7333 133.591 95.9833 134.257 96.25V95.5C134.257 94.2 133.741 93.1333 132.707 92.3C131.674 91.4333 130.391 91 128.857 91C126.591 91 124.674 91.95 123.107 93.85L118.357 90.6C120.957 87.3333 124.507 85.7 129.007 85.7C132.807 85.7 135.707 86.6 137.707 88.4C139.707 90.1667 140.707 92.8 140.707 96.3V111H134.257V108.4ZM134.257 101.05C133.491 100.683 132.691 100.4 131.857 100.2C131.057 99.9667 130.174 99.85 129.207 99.85C127.641 99.85 126.424 100.2 125.557 100.9C124.724 101.567 124.307 102.4 124.307 103.4C124.307 104.4 124.707 105.2 125.507 105.8C126.341 106.4 127.291 106.7 128.357 106.7C129.224 106.7 130.024 106.55 130.757 106.25C131.491 105.917 132.107 105.5 132.607 105C133.141 104.467 133.541 103.867 133.807 103.2C134.107 102.5 134.257 101.783 134.257 101.05ZM155.371 111.8C153.771 111.8 152.338 111.6 151.071 111.2C149.838 110.8 148.754 110.283 147.821 109.65C146.921 108.983 146.154 108.233 145.521 107.4C144.888 106.533 144.404 105.667 144.071 104.8L149.921 102.3C150.488 103.567 151.238 104.517 152.171 105.15C153.138 105.75 154.204 106.05 155.371 106.05C156.571 106.05 157.521 105.833 158.221 105.4C158.921 104.967 159.271 104.45 159.271 103.85C159.271 103.183 158.971 102.65 158.371 102.25C157.804 101.817 156.804 101.433 155.371 101.1L151.921 100.35C151.154 100.183 150.354 99.9167 149.521 99.55C148.721 99.1833 147.988 98.7167 147.321 98.15C146.654 97.5833 146.104 96.9 145.671 96.1C145.238 95.3 145.021 94.3667 145.021 93.3C145.021 92.1 145.271 91.0333 145.771 90.1C146.304 89.1667 147.021 88.3833 147.921 87.75C148.821 87.0833 149.871 86.5833 151.071 86.25C152.304 85.8833 153.621 85.7 155.021 85.7C157.354 85.7 159.438 86.1667 161.271 87.1C163.104 88 164.454 89.45 165.321 91.45L159.671 93.75C159.204 92.7833 158.521 92.0833 157.621 91.65C156.721 91.2167 155.821 91 154.921 91C153.988 91 153.171 91.2 152.471 91.6C151.771 91.9667 151.421 92.45 151.421 93.05C151.421 93.6167 151.704 94.0667 152.271 94.4C152.871 94.7333 153.671 95.0333 154.671 95.3L158.421 96.2C160.921 96.8 162.771 97.7667 163.971 99.1C165.204 100.4 165.821 101.95 165.821 103.75C165.821 104.817 165.571 105.833 165.071 106.8C164.571 107.767 163.854 108.633 162.921 109.4C162.021 110.133 160.921 110.717 159.621 111.15C158.354 111.583 156.938 111.8 155.371 111.8ZM192.827 107.6C195.027 107.6 196.877 106.767 198.377 105.1C199.877 103.467 200.627 101.35 200.627 98.75C200.627 96.1833 199.877 94.0667 198.377 92.4C196.877 90.7333 195.027 89.9 192.827 89.9C190.594 89.9 188.727 90.7333 187.227 92.4C185.761 94.0667 185.027 96.1833 185.027 98.75C185.027 101.35 185.761 103.483 187.227 105.15C188.727 106.783 190.594 107.6 192.827 107.6ZM193.577 111.8C191.777 111.8 190.127 111.417 188.627 110.65C187.161 109.883 186.027 108.867 185.227 107.6H185.027L185.227 111V121.8H180.627V86.5H185.027V89.9H185.227C186.027 88.6333 187.161 87.6167 188.627 86.85C190.127 86.0833 191.777 85.7 193.577 85.7C196.811 85.7 199.544 86.9667 201.777 89.5C204.077 92.0667 205.227 95.15 205.227 98.75C205.227 102.383 204.077 105.467 201.777 108C199.544 110.533 196.811 111.8 193.577 111.8ZM220.441 111.8C216.841 111.8 213.874 110.567 211.541 108.1C209.207 105.633 208.041 102.517 208.041 98.75C208.041 95.0167 209.174 91.9167 211.441 89.45C213.707 86.95 216.607 85.7 220.141 85.7C223.774 85.7 226.657 86.8833 228.791 89.25C230.957 91.5833 232.041 94.8667 232.041 99.1L231.991 99.6H212.741C212.807 102 213.607 103.933 215.141 105.4C216.674 106.867 218.507 107.6 220.641 107.6C223.574 107.6 225.874 106.133 227.541 103.2L231.641 105.2C230.541 107.267 229.007 108.883 227.041 110.05C225.107 111.217 222.907 111.8 220.441 111.8ZM213.091 95.8H227.141C227.007 94.1 226.307 92.7 225.041 91.6C223.807 90.4667 222.141 89.9 220.041 89.9C218.307 89.9 216.807 90.4333 215.541 91.5C214.307 92.5667 213.491 94 213.091 95.8ZM240.847 75.2V111H236.247V75.2H240.847ZM249.558 103.5C249.558 104.7 250.058 105.7 251.058 106.5C252.092 107.3 253.292 107.7 254.658 107.7C256.592 107.7 258.308 106.983 259.808 105.55C261.342 104.117 262.108 102.433 262.108 100.5C260.675 99.3667 258.675 98.8 256.108 98.8C254.242 98.8 252.675 99.25 251.408 100.15C250.175 101.05 249.558 102.167 249.558 103.5ZM255.508 85.7C258.908 85.7 261.592 86.6167 263.558 88.45C265.525 90.25 266.508 92.7333 266.508 95.9V111H262.108V107.6H261.908C260.008 110.4 257.475 111.8 254.308 111.8C251.608 111.8 249.342 111 247.508 109.4C245.708 107.8 244.808 105.8 244.808 103.4C244.808 100.867 245.758 98.85 247.658 97.35C249.592 95.85 252.158 95.1 255.358 95.1C258.092 95.1 260.342 95.6 262.108 96.6V95.55C262.108 93.95 261.475 92.6 260.208 91.5C258.942 90.3667 257.458 89.8 255.758 89.8C253.192 89.8 251.158 90.8833 249.658 93.05L245.608 90.5C247.842 87.3 251.142 85.7 255.508 85.7ZM290.202 104.2C290.202 106.333 289.269 108.133 287.402 109.6C285.536 111.067 283.186 111.8 280.352 111.8C277.886 111.8 275.719 111.167 273.852 109.9C271.986 108.6 270.652 106.9 269.852 104.8L273.952 103.05C274.552 104.517 275.419 105.667 276.552 106.5C277.719 107.3 278.986 107.7 280.352 107.7C281.819 107.7 283.036 107.383 284.002 106.75C285.002 106.117 285.502 105.367 285.502 104.5C285.502 102.933 284.302 101.783 281.902 101.05L277.702 100C272.936 98.8 270.552 96.5 270.552 93.1C270.552 90.8667 271.452 89.0833 273.252 87.75C275.086 86.3833 277.419 85.7 280.252 85.7C282.419 85.7 284.369 86.2167 286.102 87.25C287.869 88.2833 289.102 89.6667 289.802 91.4L285.702 93.1C285.236 92.0667 284.469 91.2667 283.402 90.7C282.369 90.1 281.202 89.8 279.902 89.8C278.702 89.8 277.619 90.1 276.652 90.7C275.719 91.3 275.252 92.0333 275.252 92.9C275.252 94.3 276.569 95.3 279.202 95.9L282.902 96.85C287.769 98.05 290.202 100.5 290.202 104.2ZM328.393 121.8H323.793V111L323.993 107.6H323.793C322.993 108.867 321.843 109.883 320.343 110.65C318.876 111.417 317.243 111.8 315.443 111.8C312.243 111.8 309.493 110.533 307.193 108C304.926 105.433 303.793 102.35 303.793 98.75C303.793 95.15 304.926 92.0667 307.193 89.5C309.493 86.9667 312.243 85.7 315.443 85.7C317.243 85.7 318.876 86.0833 320.343 86.85C321.843 87.6167 322.993 88.6333 323.793 89.9H323.993V86.5H328.393V121.8ZM316.193 107.6C318.459 107.6 320.309 106.783 321.743 105.15C323.243 103.517 323.993 101.383 323.993 98.75C323.993 96.1833 323.243 94.0667 321.743 92.4C320.276 90.7333 318.426 89.9 316.193 89.9C313.993 89.9 312.143 90.7333 310.643 92.4C309.143 94.0667 308.393 96.1833 308.393 98.75C308.393 101.35 309.143 103.467 310.643 105.1C312.143 106.767 313.993 107.6 316.193 107.6ZM355.306 111H350.906V107.6H350.706C350.006 108.8 348.923 109.8 347.456 110.6C346.023 111.4 344.523 111.8 342.956 111.8C339.956 111.8 337.639 110.95 336.006 109.25C334.406 107.517 333.606 105.067 333.606 101.9V86.5H338.206V101.6C338.306 105.6 340.323 107.6 344.256 107.6C346.089 107.6 347.623 106.867 348.856 105.4C350.089 103.9 350.706 102.117 350.706 100.05V86.5H355.306V111ZM364.011 103.5C364.011 104.7 364.511 105.7 365.511 106.5C366.545 107.3 367.745 107.7 369.111 107.7C371.045 107.7 372.761 106.983 374.261 105.55C375.795 104.117 376.561 102.433 376.561 100.5C375.128 99.3667 373.128 98.8 370.561 98.8C368.695 98.8 367.128 99.25 365.861 100.15C364.628 101.05 364.011 102.167 364.011 103.5ZM369.961 85.7C373.361 85.7 376.045 86.6167 378.011 88.45C379.978 90.25 380.961 92.7333 380.961 95.9V111H376.561V107.6H376.361C374.461 110.4 371.928 111.8 368.761 111.8C366.061 111.8 363.795 111 361.961 109.4C360.161 107.8 359.261 105.8 359.261 103.4C359.261 100.867 360.211 98.85 362.111 97.35C364.045 95.85 366.611 95.1 369.811 95.1C372.545 95.1 374.795 95.6 376.561 96.6V95.55C376.561 93.95 375.928 92.6 374.661 91.5C373.395 90.3667 371.911 89.8 370.211 89.8C367.645 89.8 365.611 90.8833 364.111 93.05L360.061 90.5C362.295 87.3 365.595 85.7 369.961 85.7ZM392.1 78.05C392.1 78.95 391.783 79.7167 391.15 80.35C390.516 80.9833 389.75 81.3 388.85 81.3C387.95 81.3 387.183 80.9833 386.55 80.35C385.916 79.7167 385.6 78.95 385.6 78.05C385.6 77.15 385.916 76.3833 386.55 75.75C387.183 75.1167 387.95 74.8 388.85 74.8C389.75 74.8 390.516 75.1167 391.15 75.75C391.783 76.3833 392.1 77.15 392.1 78.05ZM391.15 86.5V111H386.55V86.5H391.15ZM415.886 104.2C415.886 106.333 414.953 108.133 413.086 109.6C411.219 111.067 408.869 111.8 406.036 111.8C403.569 111.8 401.403 111.167 399.536 109.9C397.669 108.6 396.336 106.9 395.536 104.8L399.636 103.05C400.236 104.517 401.103 105.667 402.236 106.5C403.403 107.3 404.669 107.7 406.036 107.7C407.503 107.7 408.719 107.383 409.686 106.75C410.686 106.117 411.186 105.367 411.186 104.5C411.186 102.933 409.986 101.783 407.586 101.05L403.386 100C398.619 98.8 396.236 96.5 396.236 93.1C396.236 90.8667 397.136 89.0833 398.936 87.75C400.769 86.3833 403.103 85.7 405.936 85.7C408.103 85.7 410.053 86.2167 411.786 87.25C413.553 88.2833 414.786 89.6667 415.486 91.4L411.386 93.1C410.919 92.0667 410.153 91.2667 409.086 90.7C408.053 90.1 406.886 89.8 405.586 89.8C404.386 89.8 403.303 90.1 402.336 90.7C401.403 91.3 400.936 92.0333 400.936 92.9C400.936 94.3 402.253 95.3 404.886 95.9L408.586 96.85C413.453 98.05 415.886 100.5 415.886 104.2ZM21.05 169.05H20.65C20.05 170.083 19.1167 170.967 17.85 171.7C16.5833 172.433 15.0167 172.8 13.15 172.8C11.5833 172.8 10.0833 172.483 8.65 171.85C7.25 171.183 6 170.283 4.9 169.15C3.83333 167.983 2.98333 166.6 2.35 165C1.71667 163.4 1.4 161.65 1.4 159.75C1.4 157.85 1.71667 156.1 2.35 154.5C2.98333 152.9 3.83333 151.533 4.9 150.4C6 149.233 7.25 148.333 8.65 147.7C10.0833 147.033 11.5833 146.7 13.15 146.7C15.0167 146.7 16.5833 147.067 17.85 147.8C19.1167 148.533 20.05 149.417 20.65 150.45H21.05L20.65 146.95V136.2H27.2V172H21.05V169.05ZM14.5 166.75C15.3667 166.75 16.1833 166.6 16.95 166.3C17.75 165.967 18.45 165.5 19.05 164.9C19.65 164.3 20.1333 163.567 20.5 162.7C20.8667 161.833 21.05 160.85 21.05 159.75C21.05 158.65 20.8667 157.667 20.5 156.8C20.1333 155.933 19.65 155.2 19.05 154.6C18.45 154 17.75 153.55 16.95 153.25C16.1833 152.917 15.3667 152.75 14.5 152.75C13.6333 152.75 12.8 152.917 12 153.25C11.2333 153.583 10.55 154.05 9.95 154.65C9.35 155.25 8.86667 155.983 8.5 156.85C8.13333 157.717 7.95 158.683 7.95 159.75C7.95 160.817 8.13333 161.783 8.5 162.65C8.86667 163.517 9.35 164.25 9.95 164.85C10.55 165.45 11.2333 165.917 12 166.25C12.8 166.583 13.6333 166.75 14.5 166.75ZM55.7363 166.1C54.603 168.1 53.0697 169.717 51.1363 170.95C49.2363 172.183 46.903 172.8 44.1363 172.8C42.2697 172.8 40.5363 172.483 38.9363 171.85C37.3697 171.183 36.003 170.267 34.8363 169.1C33.6697 167.933 32.753 166.567 32.0863 165C31.453 163.4 31.1363 161.65 31.1363 159.75C31.1363 157.983 31.453 156.317 32.0863 154.75C32.7197 153.15 33.603 151.767 34.7363 150.6C35.8697 149.4 37.203 148.45 38.7363 147.75C40.303 147.05 42.0197 146.7 43.8863 146.7C45.853 146.7 47.603 147.033 49.1363 147.7C50.6697 148.333 51.953 149.233 52.9863 150.4C54.0197 151.533 54.803 152.883 55.3363 154.45C55.8697 156.017 56.1363 157.717 56.1363 159.55C56.1363 159.783 56.1363 159.983 56.1363 160.15C56.103 160.35 56.0863 160.533 56.0863 160.7C56.053 160.867 56.0363 161.05 56.0363 161.25H37.5863C37.7197 162.25 37.9863 163.117 38.3863 163.85C38.8197 164.55 39.3363 165.15 39.9363 165.65C40.5697 166.117 41.253 166.467 41.9863 166.7C42.7197 166.9 43.4697 167 44.2363 167C45.7363 167 46.9697 166.667 47.9363 166C48.9363 165.3 49.7197 164.433 50.2863 163.4L55.7363 166.1ZM49.7863 156.6C49.753 156.167 49.603 155.683 49.3363 155.15C49.103 154.617 48.7363 154.117 48.2363 153.65C47.7697 153.183 47.1697 152.8 46.4363 152.5C45.7363 152.2 44.8863 152.05 43.8863 152.05C42.4863 152.05 41.253 152.45 40.1863 153.25C39.1197 154.05 38.3697 155.167 37.9363 156.6H49.7863ZM70.2637 172.8C68.6637 172.8 67.2303 172.6 65.9637 172.2C64.7303 171.8 63.647 171.283 62.7137 170.65C61.8137 169.983 61.047 169.233 60.4137 168.4C59.7803 167.533 59.297 166.667 58.9637 165.8L64.8137 163.3C65.3803 164.567 66.1303 165.517 67.0637 166.15C68.0303 166.75 69.097 167.05 70.2637 167.05C71.4637 167.05 72.4137 166.833 73.1137 166.4C73.8137 165.967 74.1637 165.45 74.1637 164.85C74.1637 164.183 73.8637 163.65 73.2637 163.25C72.697 162.817 71.697 162.433 70.2637 162.1L66.8137 161.35C66.047 161.183 65.247 160.917 64.4137 160.55C63.6137 160.183 62.8803 159.717 62.2137 159.15C61.547 158.583 60.997 157.9 60.5637 157.1C60.1303 156.3 59.9137 155.367 59.9137 154.3C59.9137 153.1 60.1637 152.033 60.6637 151.1C61.197 150.167 61.9137 149.383 62.8137 148.75C63.7137 148.083 64.7637 147.583 65.9637 147.25C67.197 146.883 68.5137 146.7 69.9137 146.7C72.247 146.7 74.3303 147.167 76.1637 148.1C77.997 149 79.347 150.45 80.2137 152.45L74.5637 154.75C74.097 153.783 73.4137 153.083 72.5137 152.65C71.6137 152.217 70.7137 152 69.8137 152C68.8803 152 68.0637 152.2 67.3637 152.6C66.6637 152.967 66.3137 153.45 66.3137 154.05C66.3137 154.617 66.597 155.067 67.1637 155.4C67.7637 155.733 68.5637 156.033 69.5637 156.3L73.3137 157.2C75.8137 157.8 77.6637 158.767 78.8637 160.1C80.097 161.4 80.7137 162.95 80.7137 164.75C80.7137 165.817 80.4637 166.833 79.9637 167.8C79.4637 168.767 78.747 169.633 77.8137 170.4C76.9137 171.133 75.8137 171.717 74.5137 172.15C73.247 172.583 71.8303 172.8 70.2637 172.8ZM108.178 166.1C107.044 168.1 105.511 169.717 103.578 170.95C101.678 172.183 99.3444 172.8 96.5777 172.8C94.7111 172.8 92.9777 172.483 91.3777 171.85C89.8111 171.183 88.4444 170.267 87.2777 169.1C86.1111 167.933 85.1944 166.567 84.5277 165C83.8944 163.4 83.5777 161.65 83.5777 159.75C83.5777 157.983 83.8944 156.317 84.5277 154.75C85.1611 153.15 86.0444 151.767 87.1777 150.6C88.3111 149.4 89.6444 148.45 91.1777 147.75C92.7444 147.05 94.4611 146.7 96.3277 146.7C98.2944 146.7 100.044 147.033 101.578 147.7C103.111 148.333 104.394 149.233 105.428 150.4C106.461 151.533 107.244 152.883 107.778 154.45C108.311 156.017 108.578 157.717 108.578 159.55C108.578 159.783 108.578 159.983 108.578 160.15C108.544 160.35 108.528 160.533 108.528 160.7C108.494 160.867 108.478 161.05 108.478 161.25H90.0277C90.1611 162.25 90.4277 163.117 90.8277 163.85C91.2611 164.55 91.7777 165.15 92.3777 165.65C93.0111 166.117 93.6944 166.467 94.4277 166.7C95.1611 166.9 95.9111 167 96.6777 167C98.1777 167 99.4111 166.667 100.378 166C101.378 165.3 102.161 164.433 102.728 163.4L108.178 166.1ZM102.228 156.6C102.194 156.167 102.044 155.683 101.778 155.15C101.544 154.617 101.178 154.117 100.678 153.65C100.211 153.183 99.6111 152.8 98.8777 152.5C98.1777 152.2 97.3277 152.05 96.3277 152.05C94.9277 152.05 93.6944 152.45 92.6277 153.25C91.5611 154.05 90.8111 155.167 90.3777 156.6H102.228ZM109.211 176.8C109.478 176.967 109.728 177.083 109.961 177.15C110.228 177.217 110.544 177.25 110.911 177.25C112.411 177.25 113.161 176.267 113.161 174.3V147.5H119.711V174.5C119.711 176.1 119.494 177.45 119.061 178.55C118.628 179.683 118.044 180.6 117.311 181.3C116.578 182 115.728 182.5 114.761 182.8C113.794 183.133 112.761 183.3 111.661 183.3C110.828 183.3 110.078 183.233 109.411 183.1C108.744 183 108.128 182.833 107.561 182.6L109.211 176.8ZM116.411 143.95C115.844 143.95 115.294 143.85 114.761 143.65C114.261 143.417 113.811 143.117 113.411 142.75C113.044 142.35 112.744 141.9 112.511 141.4C112.311 140.9 112.211 140.35 112.211 139.75C112.211 139.15 112.311 138.6 112.511 138.1C112.744 137.6 113.044 137.167 113.411 136.8C113.811 136.4 114.261 136.1 114.761 135.9C115.294 135.667 115.844 135.55 116.411 135.55C117.578 135.55 118.578 135.967 119.411 136.8C120.244 137.6 120.661 138.583 120.661 139.75C120.661 140.917 120.244 141.917 119.411 142.75C118.578 143.55 117.578 143.95 116.411 143.95ZM140.556 169.4H140.156C139.39 170.333 138.456 171.133 137.356 171.8C136.29 172.467 134.906 172.8 133.206 172.8C131.94 172.8 130.74 172.583 129.606 172.15C128.506 171.75 127.54 171.183 126.706 170.45C125.873 169.717 125.223 168.833 124.756 167.8C124.29 166.767 124.056 165.633 124.056 164.4C124.056 163.133 124.306 162 124.806 161C125.306 159.967 126.006 159.083 126.906 158.35C127.806 157.617 128.856 157.067 130.056 156.7C131.29 156.3 132.623 156.1 134.056 156.1C135.656 156.1 136.973 156.233 138.006 156.5C139.04 156.733 139.89 156.983 140.556 157.25V156.5C140.556 155.2 140.04 154.133 139.006 153.3C137.973 152.433 136.69 152 135.156 152C132.89 152 130.973 152.95 129.406 154.85L124.656 151.6C127.256 148.333 130.806 146.7 135.306 146.7C139.106 146.7 142.006 147.6 144.006 149.4C146.006 151.167 147.006 153.8 147.006 157.3V172H140.556V169.4ZM140.556 162.05C139.79 161.683 138.99 161.4 138.156 161.2C137.356 160.967 136.473 160.85 135.506 160.85C133.94 160.85 132.723 161.2 131.856 161.9C131.023 162.567 130.606 163.4 130.606 164.4C130.606 165.4 131.006 166.2 131.806 166.8C132.64 167.4 133.59 167.7 134.656 167.7C135.523 167.7 136.323 167.55 137.056 167.25C137.79 166.917 138.406 166.5 138.906 166C139.44 165.467 139.84 164.867 140.106 164.2C140.406 163.5 140.556 162.783 140.556 162.05ZM178.3 169.4H177.9C177.134 170.333 176.2 171.133 175.1 171.8C174.034 172.467 172.65 172.8 170.95 172.8C169.684 172.8 168.484 172.583 167.35 172.15C166.25 171.75 165.284 171.183 164.45 170.45C163.617 169.717 162.967 168.833 162.5 167.8C162.034 166.767 161.8 165.633 161.8 164.4C161.8 163.133 162.05 162 162.55 161C163.05 159.967 163.75 159.083 164.65 158.35C165.55 157.617 166.6 157.067 167.8 156.7C169.034 156.3 170.367 156.1 171.8 156.1C173.4 156.1 174.717 156.233 175.75 156.5C176.784 156.733 177.634 156.983 178.3 157.25V156.5C178.3 155.2 177.784 154.133 176.75 153.3C175.717 152.433 174.434 152 172.9 152C170.634 152 168.717 152.95 167.15 154.85L162.4 151.6C165 148.333 168.55 146.7 173.05 146.7C176.85 146.7 179.75 147.6 181.75 149.4C183.75 151.167 184.75 153.8 184.75 157.3V172H178.3V169.4ZM178.3 162.05C177.534 161.683 176.734 161.4 175.9 161.2C175.1 160.967 174.217 160.85 173.25 160.85C171.684 160.85 170.467 161.2 169.6 161.9C168.767 162.567 168.35 163.4 168.35 164.4C168.35 165.4 168.75 166.2 169.55 166.8C170.384 167.4 171.334 167.7 172.4 167.7C173.267 167.7 174.067 167.55 174.8 167.25C175.534 166.917 176.15 166.5 176.65 166C177.184 165.467 177.584 164.867 177.85 164.2C178.15 163.5 178.3 162.783 178.3 162.05ZM192.17 153.1H187.87V147.5H192.17V140H198.72V147.5H204.72V153.1H198.72V162.6C198.72 163.167 198.77 163.7 198.87 164.2C199.003 164.667 199.237 165.067 199.57 165.4C200.037 165.933 200.703 166.2 201.57 166.2C202.137 166.2 202.587 166.15 202.92 166.05C203.253 165.917 203.57 165.75 203.87 165.55L205.72 171.3C204.953 171.667 204.12 171.933 203.22 172.1C202.353 172.3 201.387 172.4 200.32 172.4C199.087 172.4 197.97 172.217 196.97 171.85C196.003 171.45 195.187 170.917 194.52 170.25C192.953 168.75 192.17 166.617 192.17 163.85V153.1ZM232.494 166.1C231.361 168.1 229.827 169.717 227.894 170.95C225.994 172.183 223.661 172.8 220.894 172.8C219.027 172.8 217.294 172.483 215.694 171.85C214.127 171.183 212.761 170.267 211.594 169.1C210.427 167.933 209.511 166.567 208.844 165C208.211 163.4 207.894 161.65 207.894 159.75C207.894 157.983 208.211 156.317 208.844 154.75C209.477 153.15 210.361 151.767 211.494 150.6C212.627 149.4 213.961 148.45 215.494 147.75C217.061 147.05 218.777 146.7 220.644 146.7C222.611 146.7 224.361 147.033 225.894 147.7C227.427 148.333 228.711 149.233 229.744 150.4C230.777 151.533 231.561 152.883 232.094 154.45C232.627 156.017 232.894 157.717 232.894 159.55C232.894 159.783 232.894 159.983 232.894 160.15C232.861 160.35 232.844 160.533 232.844 160.7C232.811 160.867 232.794 161.05 232.794 161.25H214.344C214.477 162.25 214.744 163.117 215.144 163.85C215.577 164.55 216.094 165.15 216.694 165.65C217.327 166.117 218.011 166.467 218.744 166.7C219.477 166.9 220.227 167 220.994 167C222.494 167 223.727 166.667 224.694 166C225.694 165.3 226.477 164.433 227.044 163.4L232.494 166.1ZM226.544 156.6C226.511 156.167 226.361 155.683 226.094 155.15C225.861 154.617 225.494 154.117 224.994 153.65C224.527 153.183 223.927 152.8 223.194 152.5C222.494 152.2 221.644 152.05 220.644 152.05C219.244 152.05 218.011 152.45 216.944 153.25C215.877 154.05 215.127 155.167 214.694 156.6H226.544ZM243.227 150.7H243.627C244.394 149.467 245.427 148.5 246.727 147.8C248.027 147.067 249.511 146.7 251.177 146.7C252.711 146.7 254.061 146.95 255.227 147.45C256.394 147.95 257.344 148.667 258.077 149.6C258.844 150.5 259.411 151.6 259.777 152.9C260.177 154.167 260.377 155.583 260.377 157.15V172H253.827V157.95C253.827 156.183 253.427 154.883 252.627 154.05C251.861 153.183 250.727 152.75 249.227 152.75C248.327 152.75 247.527 152.95 246.827 153.35C246.161 153.717 245.577 154.233 245.077 154.9C244.611 155.533 244.244 156.3 243.977 157.2C243.744 158.067 243.627 159 243.627 160V172H237.077V147.5H243.227V150.7ZM284.038 169.05H283.638C283.038 170.083 282.105 170.967 280.838 171.7C279.572 172.433 278.005 172.8 276.138 172.8C274.572 172.8 273.072 172.483 271.638 171.85C270.238 171.183 268.988 170.283 267.888 169.15C266.822 167.983 265.972 166.6 265.338 165C264.705 163.4 264.388 161.65 264.388 159.75C264.388 157.85 264.705 156.1 265.338 154.5C265.972 152.9 266.822 151.533 267.888 150.4C268.988 149.233 270.238 148.333 271.638 147.7C273.072 147.033 274.572 146.7 276.138 146.7C278.005 146.7 279.572 147.067 280.838 147.8C282.105 148.533 283.038 149.417 283.638 150.45H284.038L283.638 146.95V136.2H290.188V172H284.038V169.05ZM277.488 166.75C278.355 166.75 279.172 166.6 279.938 166.3C280.738 165.967 281.438 165.5 282.038 164.9C282.638 164.3 283.122 163.567 283.488 162.7C283.855 161.833 284.038 160.85 284.038 159.75C284.038 158.65 283.855 157.667 283.488 156.8C283.122 155.933 282.638 155.2 282.038 154.6C281.438 154 280.738 153.55 279.938 153.25C279.172 152.917 278.355 152.75 277.488 152.75C276.622 152.75 275.788 152.917 274.988 153.25C274.222 153.583 273.538 154.05 272.938 154.65C272.338 155.25 271.855 155.983 271.488 156.85C271.122 157.717 270.938 158.683 270.938 159.75C270.938 160.817 271.122 161.783 271.488 162.65C271.855 163.517 272.338 164.25 272.938 164.85C273.538 165.45 274.222 165.917 274.988 166.25C275.788 166.583 276.622 166.75 277.488 166.75ZM299.419 143.95C298.852 143.95 298.302 143.85 297.769 143.65C297.269 143.417 296.819 143.117 296.419 142.75C296.052 142.35 295.752 141.9 295.519 141.4C295.319 140.9 295.219 140.35 295.219 139.75C295.219 139.15 295.319 138.6 295.519 138.1C295.752 137.6 296.052 137.167 296.419 136.8C296.819 136.4 297.269 136.1 297.769 135.9C298.302 135.667 298.852 135.55 299.419 135.55C300.585 135.55 301.585 135.967 302.419 136.8C303.252 137.6 303.669 138.583 303.669 139.75C303.669 140.917 303.252 141.917 302.419 142.75C301.585 143.55 300.585 143.95 299.419 143.95ZM296.169 172V147.5H302.719V172H296.169ZM308.708 147.5H314.858V150.7H315.258C316.025 149.5 317.058 148.533 318.358 147.8C319.692 147.067 321.158 146.7 322.758 146.7C324.625 146.7 326.192 147.133 327.458 148C328.725 148.867 329.625 149.933 330.158 151.2C330.925 149.967 332.008 148.917 333.408 148.05C334.808 147.15 336.508 146.7 338.508 146.7C340.008 146.7 341.308 146.95 342.408 147.45C343.508 147.917 344.408 148.583 345.108 149.45C345.842 150.317 346.392 151.367 346.758 152.6C347.125 153.8 347.308 155.117 347.308 156.55V172H340.758V157.75C340.758 154.417 339.392 152.75 336.658 152.75C335.792 152.75 335.025 152.95 334.358 153.35C333.692 153.717 333.125 154.233 332.658 154.9C332.225 155.533 331.875 156.3 331.608 157.2C331.375 158.1 331.258 159.067 331.258 160.1V172H324.708V157.75C324.708 154.417 323.275 152.75 320.408 152.75C319.575 152.75 318.842 152.95 318.208 153.35C317.575 153.717 317.042 154.233 316.608 154.9C316.175 155.533 315.842 156.3 315.608 157.2C315.375 158.1 315.258 159.067 315.258 160.1V172H308.708V147.5ZM375.902 166.1C374.769 168.1 373.236 169.717 371.302 170.95C369.402 172.183 367.069 172.8 364.302 172.8C362.436 172.8 360.702 172.483 359.102 171.85C357.536 171.183 356.169 170.267 355.002 169.1C353.836 167.933 352.919 166.567 352.252 165C351.619 163.4 351.302 161.65 351.302 159.75C351.302 157.983 351.619 156.317 352.252 154.75C352.886 153.15 353.769 151.767 354.902 150.6C356.036 149.4 357.369 148.45 358.902 147.75C360.469 147.05 362.186 146.7 364.052 146.7C366.019 146.7 367.769 147.033 369.302 147.7C370.836 148.333 372.119 149.233 373.152 150.4C374.186 151.533 374.969 152.883 375.502 154.45C376.036 156.017 376.302 157.717 376.302 159.55C376.302 159.783 376.302 159.983 376.302 160.15C376.269 160.35 376.252 160.533 376.252 160.7C376.219 160.867 376.202 161.05 376.202 161.25H357.752C357.886 162.25 358.152 163.117 358.552 163.85C358.986 164.55 359.502 165.15 360.102 165.65C360.736 166.117 361.419 166.467 362.152 166.7C362.886 166.9 363.636 167 364.402 167C365.902 167 367.136 166.667 368.102 166C369.102 165.3 369.886 164.433 370.452 163.4L375.902 166.1ZM369.952 156.6C369.919 156.167 369.769 155.683 369.502 155.15C369.269 154.617 368.902 154.117 368.402 153.65C367.936 153.183 367.336 152.8 366.602 152.5C365.902 152.2 365.052 152.05 364.052 152.05C362.652 152.05 361.419 152.45 360.352 153.25C359.286 154.05 358.536 155.167 358.102 156.6H369.952ZM386.636 150.7H387.036C387.802 149.467 388.836 148.5 390.136 147.8C391.436 147.067 392.919 146.7 394.586 146.7C396.119 146.7 397.469 146.95 398.636 147.45C399.802 147.95 400.752 148.667 401.486 149.6C402.252 150.5 402.819 151.6 403.186 152.9C403.586 154.167 403.786 155.583 403.786 157.15V172H397.236V157.95C397.236 156.183 396.836 154.883 396.036 154.05C395.269 153.183 394.136 152.75 392.636 152.75C391.736 152.75 390.936 152.95 390.236 153.35C389.569 153.717 388.986 154.233 388.486 154.9C388.019 155.533 387.652 156.3 387.386 157.2C387.152 158.067 387.036 159 387.036 160V172H380.486V147.5H386.636V150.7ZM410.627 153.1H406.327V147.5H410.627V140H417.177V147.5H423.177V153.1H417.177V162.6C417.177 163.167 417.227 163.7 417.327 164.2C417.46 164.667 417.694 165.067 418.027 165.4C418.494 165.933 419.16 166.2 420.027 166.2C420.594 166.2 421.044 166.15 421.377 166.05C421.71 165.917 422.027 165.75 422.327 165.55L424.177 171.3C423.41 171.667 422.577 171.933 421.677 172.1C420.81 172.3 419.844 172.4 418.777 172.4C417.544 172.4 416.427 172.217 415.427 171.85C414.46 171.45 413.644 170.917 412.977 170.25C411.41 168.75 410.627 166.617 410.627 163.85V153.1ZM439.351 146.7C441.251 146.7 442.985 147.033 444.551 147.7C446.151 148.333 447.518 149.233 448.651 150.4C449.818 151.533 450.718 152.9 451.351 154.5C452.018 156.1 452.351 157.85 452.351 159.75C452.351 161.65 452.018 163.4 451.351 165C450.718 166.6 449.818 167.983 448.651 169.15C447.518 170.283 446.151 171.183 444.551 171.85C442.985 172.483 441.251 172.8 439.351 172.8C437.451 172.8 435.701 172.483 434.101 171.85C432.535 171.183 431.168 170.283 430.001 169.15C428.868 167.983 427.968 166.6 427.301 165C426.668 163.4 426.351 161.65 426.351 159.75C426.351 157.85 426.668 156.1 427.301 154.5C427.968 152.9 428.868 151.533 430.001 150.4C431.168 149.233 432.535 148.333 434.101 147.7C435.701 147.033 437.451 146.7 439.351 146.7ZM439.351 166.75C440.185 166.75 440.985 166.6 441.751 166.3C442.551 165.967 443.251 165.5 443.851 164.9C444.451 164.3 444.918 163.567 445.251 162.7C445.618 161.833 445.801 160.85 445.801 159.75C445.801 158.65 445.618 157.667 445.251 156.8C444.918 155.933 444.451 155.2 443.851 154.6C443.251 154 442.551 153.55 441.751 153.25C440.985 152.917 440.185 152.75 439.351 152.75C438.485 152.75 437.668 152.917 436.901 153.25C436.135 153.55 435.451 154 434.851 154.6C434.251 155.2 433.768 155.933 433.401 156.8C433.068 157.667 432.901 158.65 432.901 159.75C432.901 160.85 433.068 161.833 433.401 162.7C433.768 163.567 434.251 164.3 434.851 164.9C435.451 165.5 436.135 165.967 436.901 166.3C437.668 166.6 438.485 166.75 439.351 166.75Z" fill="#474747"/>
<path d="M563.518 29.2877H569.773L569.594 71.8596H577.254L578.881 29.2798H585.083L585.036 23.1404H563.518V29.2877ZM535.446 23.1404H526.397L527.367 71.8596H535.288L535.446 23.1404ZM557.375 23.1404H539.654L540.323 71.8556H547.653L547.737 51.7117H556.52C557.191 58.4046 557.491 65.1296 557.419 71.8556H564.544C565.201 46.9854 563.119 32.9294 557.375 23.1404ZM547.404 45.7029L547.491 29.1571H551.913C554.352 34.3609 555.81 39.97 556.215 45.7029H547.404ZM505.917 23.1404L507.492 71.8596H515.163L514.993 51.6563H521.425V45.3586H514.993L515.017 29.5054H523.413L523.369 23.1404H505.917Z" fill="#A6A6A4"/>
<path d="M658.5 19C652.863 19 647.353 20.6715 642.666 23.8031C637.979 26.9347 634.327 31.3858 632.169 36.5935C630.012 41.8012 629.448 47.5316 630.548 53.0601C631.647 58.5885 634.362 63.6667 638.347 67.6525C642.333 71.6383 647.411 74.3527 652.94 75.4524C658.468 76.552 664.199 75.9877 669.406 73.8306C674.614 71.6735 679.065 68.0205 682.197 63.3337C685.329 58.6469 687 53.1368 687 47.5C687 43.7573 686.263 40.0513 684.831 36.5935C683.398 33.1357 681.299 29.9939 678.653 27.3475C676.006 24.701 672.864 22.6017 669.406 21.1694C665.949 19.7372 662.243 19 658.5 19ZM658.5 23.902C660.848 23.8999 663.183 24.2486 665.428 24.9365L658.5 40.4918L651.575 24.9337C653.819 24.2479 656.153 23.9001 658.5 23.902ZM634.902 47.5C634.9 45.06 635.276 42.6343 636.016 40.3094L648.81 69.0175C644.666 67.1509 641.149 64.1274 638.682 60.3103C636.215 56.4932 634.902 52.045 634.902 47.5ZM658.5 71.098C656.153 71.0998 653.819 70.7521 651.575 70.0663L658.5 54.5053L665.428 70.0634C663.183 70.7511 660.848 71.0998 658.5 71.098ZM661.951 48.241H655.052L650.42 58.6463L639.328 33.7373C641.212 31.125 643.607 28.923 646.368 27.265L655.054 46.7704H661.951L670.632 27.265C673.394 28.9245 675.788 31.1298 677.669 33.7459L666.583 58.6492L661.951 48.241ZM668.19 69.0175L680.981 40.3094C682.741 45.8305 682.41 51.8059 680.052 57.0991C677.694 62.3922 673.472 66.634 668.19 69.0175Z" fill="#A6A6A4"/>
<path d="M765.314 64.552C768.608 64.552 771.898 64.4085 775.168 64.202C778.572 64.2334 781.954 63.631 785.148 62.424C786.613 61.7866 787.877 60.7444 788.797 59.414C789.69 57.9583 790.329 56.3548 790.686 54.675C791.509 51.0891 792.011 47.434 792.186 43.755C792.473 40.0408 792.538 36.3122 792.381 32.59C792.507 29.2862 791.448 26.0494 789.405 23.49C787.136 21.5682 784.314 20.4617 781.373 20.34C776.046 19.6633 770.681 19.35 765.314 19.402C759.947 19.35 754.583 19.6633 749.256 20.34C746.314 20.4617 743.492 21.5682 741.223 23.49C739.18 26.0494 738.122 29.2862 738.247 32.59C738.09 36.3122 738.155 40.0408 738.442 43.755C738.618 47.434 739.12 51.0891 739.942 54.675C740.301 56.3499 740.94 57.9486 741.831 59.4C742.752 60.7304 744.015 61.7726 745.48 62.41C748.675 63.617 752.056 64.2194 755.461 64.188C758.73 64.4085 762.021 64.5345 765.314 64.552ZM772.681 61.6925C772.339 61.752 771.232 61.752 769.998 61.78C768.434 61.8185 766.876 61.8255 765.314 61.822C763.753 61.8185 762.195 61.822 760.63 61.78C759.397 61.752 758.279 61.752 757.944 61.6925C757.61 61.633 757.261 61.612 757.37 61.234C757.48 60.856 758.969 55.9 758.969 55.9C759.953 52.6065 760.022 52.4 762.55 51.882C764.374 51.504 766.254 51.504 768.078 51.882C770.607 52.3895 770.675 52.6065 771.659 55.9C771.659 55.9 773.159 60.8525 773.258 61.234C773.357 61.6155 773.015 61.633 772.681 61.6925ZM779.401 59.309C779.979 54.6645 780.426 50.013 780.768 45.351L780.843 44.574C781.591 37.5467 781.953 30.4819 781.926 23.413C781.974 23.3292 782.044 23.2599 782.126 23.212C782.209 23.1641 782.303 23.1393 782.398 23.14C783.006 23.322 783.634 23.49 784.246 23.735L784.512 23.8435H784.536C784.905 23.9955 785.263 24.172 785.609 24.372C785.966 24.5827 786.296 24.8365 786.593 25.128L786.61 25.149C786.731 25.2742 786.845 25.4062 786.952 25.5445L787.078 25.7055C788.716 28.953 789.367 32.6282 788.947 36.258C789.021 40.6244 788.778 44.9905 788.22 49.32L788.076 50.4505V50.503L787.956 51.4235L787.898 51.826L787.833 52.274L787.724 52.932L787.642 53.373L787.567 53.7405C787.495 54.1056 787.408 54.4676 787.307 54.8255C787.27 54.9655 787.229 55.0985 787.184 55.235C787.14 55.3715 787.082 55.557 787.027 55.711C786.972 55.865 786.931 55.9805 786.877 56.11C786.799 56.3117 786.714 56.5102 786.621 56.705C786.324 57.3532 785.935 57.9525 785.466 58.483C784.748 59.274 779.343 62.5045 779.316 60.261C779.323 60.0685 779.35 59.75 779.401 59.309ZM745.183 58.4935C744.714 57.9627 744.325 57.3635 744.028 56.7155C743.876 56.3858 743.738 56.0495 743.615 55.7075C743.561 55.5559 743.511 55.403 743.465 55.249C743.417 55.0915 743.379 54.9725 743.342 54.8325L743.236 54.43C743.181 54.2025 743.126 53.975 743.079 53.73L743.007 53.38L742.921 52.9355L742.815 52.274L742.751 51.8365L742.692 51.413L742.587 50.608L742.556 50.37L742.423 49.32C741.864 44.9905 741.621 40.6244 741.695 36.258C741.276 32.6286 741.926 28.954 743.56 25.7055L743.68 25.555C743.787 25.4167 743.901 25.2847 744.022 25.1595L744.042 25.1385C744.338 24.8534 744.666 24.6054 745.019 24.4C745.369 24.1977 745.73 24.0188 746.102 23.8645L746.379 23.756C746.987 23.525 747.616 23.343 748.224 23.161C748.319 23.1603 748.413 23.1851 748.495 23.233C748.578 23.2809 748.647 23.3502 748.696 23.434C748.669 30.5029 749.03 37.5677 749.779 44.595L749.854 45.372C750.195 50.027 750.636 54.6715 751.22 59.309L751.323 60.2995C751.289 62.5115 745.887 59.2845 745.183 58.4935ZM753.663 22.496C757.529 22.0203 761.422 21.8319 765.314 21.9325C769.206 21.8319 773.1 22.0203 776.965 22.496C777.16 22.5765 777.177 22.7235 777.085 23.07C775.93 27.375 774.597 33.087 773.408 37.42C772.458 40.878 771.358 45.337 767.258 45.778C766.617 45.8504 765.973 45.8936 765.328 45.9075C764.668 45.918 764.012 45.8445 763.397 45.778C759.274 45.337 758.184 40.878 757.247 37.42C756.058 33.094 754.726 27.382 753.571 23.07C753.448 22.7235 753.469 22.5765 753.663 22.496ZM766.841 71.1215L767.921 71.258C768.3 71.307 768.389 71.6325 768.389 72.007V75.9305L764.289 70.404C764.219 70.2961 764.124 70.2077 764.013 70.1466C763.901 70.0855 763.777 70.0537 763.65 70.054H758.184V71.1285L759.209 71.251C759.574 71.307 759.707 71.4995 759.707 72.0175V76.032C759.707 76.508 759.581 76.732 759.192 76.795L758.167 76.9175V77.9675H763.117V76.9175L762.055 76.795C761.91 76.7692 761.781 76.6877 761.693 76.5673C761.606 76.4469 761.566 76.2967 761.583 76.1475V72.1155L765.704 77.6735C765.781 77.7702 765.879 77.8483 765.989 77.9021C766.1 77.9559 766.22 77.9842 766.343 77.985H770.231V71.9755C770.231 71.6955 770.303 71.307 770.702 71.2755L771.782 71.153V70.0785H766.828L766.841 71.1215ZM751.545 69.7495C747.168 69.7495 745.207 71.4995 745.207 73.9845C745.207 76.536 747.168 78.265 751.545 78.265C755.922 78.265 757.852 76.536 757.852 73.9845C757.852 71.4925 755.891 69.7495 751.545 69.7495ZM751.545 76.7495C749.782 76.7495 748.781 76.081 748.781 73.995C748.781 71.909 749.782 71.272 751.545 71.272C753.308 71.272 754.313 71.9405 754.313 73.995C754.313 76.0495 753.291 76.753 751.528 76.753L751.545 76.7495ZM738.692 71.1215L739.771 71.258C740.137 71.307 740.243 71.608 740.243 71.993V73.2215H735.459V71.9755C735.459 71.51 735.64 71.2755 735.962 71.2755L737.007 71.153V70.0785H730.833V71.153L731.858 71.2755C732.268 71.3245 732.374 71.6255 732.36 72.042V76.0565C732.36 76.508 732.237 76.7565 731.845 76.8195L730.82 76.942V77.992H737.031V76.942L735.958 76.802C735.716 76.7705 735.473 76.613 735.473 76.102V74.8H740.256V76.018C740.256 76.368 740.195 76.718 739.785 76.7635L738.692 76.9V77.9885H744.903V76.9L743.81 76.774C743.598 76.7425 743.355 76.571 743.355 76.1195V72C743.355 71.5765 743.506 71.3 743.823 71.265L744.903 71.1425V70.068H738.692V71.1215ZM780.098 70.061H772.435V71.1355L773.395 71.237C773.471 71.2469 773.545 71.2723 773.612 71.3117C773.679 71.3512 773.737 71.4039 773.784 71.4668C773.831 71.5297 773.865 71.6015 773.884 71.678C773.904 71.7545 773.908 71.8342 773.897 71.9125V76.179C773.916 76.321 773.881 76.465 773.799 76.5811C773.716 76.6971 773.594 76.7763 773.456 76.802L772.431 76.9385V77.9885H780.098C783.624 77.9885 785.141 76.2385 785.141 73.911C785.158 71.8215 783.624 70.061 780.098 70.061ZM778.913 76.459H776.938V71.559H778.913C780.799 71.559 781.588 72.014 781.588 74.009C781.588 76.004 780.799 76.459 778.913 76.459ZM798.073 76.7705C797.732 76.725 797.513 76.382 797.236 75.9445L793.758 70.4985C793.689 70.3728 793.59 70.2668 793.471 70.1904C793.351 70.1139 793.215 70.0694 793.075 70.061H787.116V71.1355L788.483 71.3C788.556 71.3074 788.625 71.335 788.684 71.3798C788.743 71.4247 788.788 71.4851 788.816 71.5545C788.844 71.624 788.853 71.6999 788.841 71.774C788.83 71.8482 788.799 71.9178 788.753 71.9755L786.139 76.333C786.089 76.4515 786.011 76.5558 785.913 76.6369C785.815 76.718 785.699 76.7734 785.575 76.7985L784.53 76.921V77.971H789.48V76.9L788.63 76.7915C788.288 76.7425 788.052 76.5255 788.288 76.151L788.653 75.5455H793.41L793.727 76.0425C794.069 76.557 793.727 76.7425 793.317 76.7915L792.466 76.9V77.9745H799.167V76.9L798.073 76.7705ZM789.504 74.156L790.994 71.706L792.511 74.156H789.504Z" fill="#A6A6A4"/>
<path d="M583.117 141.475C583.011 140.05 582.829 139.837 582.04 139.56C580.752 139.151 579.434 138.847 578.101 138.649C576 131.389 571.694 125.04 565.833 120.559C559.972 116.079 552.874 113.71 545.61 113.811C538.385 113.712 531.323 116.056 525.479 120.492C519.635 124.928 515.322 131.218 513.184 138.424C511.974 138.645 510.818 138.891 509.676 139.164C508.535 139.437 508.262 139.916 508.103 140.668C508.072 140.807 508.047 140.947 508.027 141.088C507.559 144.123 507.455 147.208 507.72 150.271C507.784 151.193 507.868 152.119 507.959 153.042C508.076 154.229 507.959 155.753 509.168 155.963C510.48 156.187 511.852 156.393 513.282 156.58H513.195C515.335 163.781 519.647 170.067 525.489 174.5C531.331 178.933 538.389 181.275 545.61 181.178C552.804 181.274 559.837 178.951 565.668 174.551C571.499 170.151 575.819 163.908 577.987 156.747H577.942C579.186 156.604 580.426 156.429 581.661 156.22C582.005 156.188 582.327 156.031 582.571 155.776C582.815 155.522 582.965 155.186 582.996 154.827C583.17 153.03 583.28 151.541 583.345 150.247C583.478 147.321 583.402 144.389 583.117 141.475ZM545.61 122.167C550.517 122.092 555.338 123.51 559.486 126.246C563.635 128.982 566.931 132.919 568.974 137.576L569.077 137.628C561.181 137.033 553.268 136.728 545.352 136.714C535.084 136.714 527.911 136.892 522.379 137.303C524.465 132.73 527.76 128.875 531.877 126.193C535.993 123.511 540.758 122.114 545.61 122.167ZM563.81 152.25H561.732C561.679 152.256 561.625 152.245 561.579 152.217C561.533 152.189 561.496 152.147 561.474 152.096C561.474 152.056 561.217 151.399 560.845 150.512H555.942C555.563 151.439 555.275 152.096 555.275 152.096C555.251 152.145 555.214 152.186 555.168 152.213C555.123 152.241 555.07 152.254 555.017 152.25H553.015C552.716 152.25 552.606 152.25 552.791 151.854C553.792 149.61 556.018 144.385 556.018 144.385C556.462 143.415 556.238 143.494 557.535 143.494C557.805 143.459 558.078 143.446 558.35 143.455C558.622 143.439 558.896 143.452 559.165 143.494C560.538 143.534 560.303 143.379 560.944 144.848C561.277 145.659 563.689 151.078 564.06 152.009C564.174 152.25 564.098 152.222 563.802 152.222L563.81 152.25ZM549.239 149.036C548.533 148.996 546.459 148.802 545.049 148.64C543.233 148.446 542.827 147.635 542.713 146.938C542.681 146.669 542.668 146.398 542.675 146.126C542.67 145.842 542.682 145.558 542.713 145.275C542.975 144.036 543.851 143.455 545.42 143.455H551.464C551.684 143.455 551.76 143.494 551.76 143.688V145.121C551.76 145.311 551.684 145.39 551.464 145.351H545.523C545.265 145.351 545.144 145.469 545.117 145.746V146.095C545.117 146.289 545.189 146.443 545.496 146.491C546.198 146.566 548.386 146.76 549.201 146.839C550.687 146.993 551.76 147.263 552.056 148.735C552.056 148.85 552.094 149.238 552.094 149.665C552.104 149.976 552.08 150.287 552.022 150.591C551.76 151.985 550.759 152.258 549.201 152.258H542.967C542.744 152.258 542.706 152.218 542.706 151.985V150.591C542.706 150.362 542.744 150.322 542.967 150.322H549.269C549.527 150.322 549.603 150.243 549.648 150.049V149.471C549.642 149.355 549.597 149.245 549.52 149.161C549.444 149.076 549.342 149.022 549.231 149.008L549.239 149.036ZM538.523 149.036C537.822 148.996 535.744 148.802 534.353 148.64C532.536 148.446 532.078 147.635 532.017 146.938C531.988 146.669 531.976 146.397 531.983 146.126C531.978 145.842 531.989 145.558 532.017 145.275C532.279 144.036 533.154 143.455 534.724 143.455H540.768C540.992 143.455 541.064 143.494 541.064 143.688V145.121C541.064 145.311 540.992 145.39 540.768 145.351H534.808C534.55 145.351 534.428 145.469 534.402 145.746V146.095C534.402 146.289 534.512 146.443 534.781 146.491C535.486 146.566 537.67 146.76 538.489 146.839C539.972 146.993 541.045 147.263 541.341 148.735C541.341 148.85 541.379 149.238 541.379 149.665C541.389 149.976 541.365 150.287 541.307 150.591C541.045 151.985 540.044 152.258 538.489 152.258H532.252C532.028 152.258 531.99 152.218 531.99 151.985V150.591C531.99 150.362 532.028 150.322 532.252 150.322H538.554C538.815 150.322 538.887 150.243 538.933 150.049V149.471C538.887 149.281 538.85 149.048 538.516 149.008L538.523 149.036ZM530.22 143.617V151.902C530.22 152.096 530.182 152.171 529.962 152.171H528.024C527.801 152.171 527.766 152.131 527.766 151.902V143.589C527.766 143.435 527.801 143.36 527.948 143.36H529.988C530.174 143.36 530.212 143.435 530.212 143.589L530.22 143.617ZM521.723 151.458C520.794 149.95 518.014 145.497 518.014 145.497V151.961C518.014 152.195 517.976 152.234 517.756 152.234H516.084C515.864 152.234 515.827 152.195 515.827 151.961V143.708C515.827 143.514 515.864 143.435 516.084 143.435H518.014C519.459 143.435 519.645 143.395 520.164 144.171C520.574 144.868 523.956 150.287 523.956 150.287V143.708C523.956 143.514 523.994 143.435 524.217 143.435H525.886C526.106 143.435 526.144 143.514 526.144 143.708V151.949C526.144 152.183 526.106 152.222 525.886 152.222H523.611C522.28 152.222 522.166 152.222 521.723 151.458ZM545.61 172.853C540.718 172.908 535.914 171.487 531.776 168.762C527.638 166.037 524.34 162.124 522.28 157.491L522.212 157.435C529.306 157.914 537.314 158.073 545.857 158.093C553.545 158.128 561.232 157.935 568.91 157.515V157.566C566.838 162.176 563.539 166.066 559.408 168.773C555.277 171.479 550.487 172.889 545.61 172.833V172.853ZM575.629 151.961C575.629 152.195 575.591 152.234 575.371 152.234H573.096C571.761 152.234 571.651 152.234 571.2 151.443C570.271 149.934 567.492 145.481 567.492 145.481V151.945C567.492 152.179 567.454 152.218 567.23 152.218H565.596C565.376 152.218 565.338 152.179 565.338 151.945V143.708C565.338 143.514 565.376 143.435 565.596 143.435H567.526C568.971 143.435 569.156 143.395 569.676 144.171C570.119 144.868 573.467 150.287 573.467 150.287V143.708C573.467 143.514 573.505 143.435 573.729 143.435H575.397C575.617 143.435 575.655 143.514 575.655 143.708L575.629 151.961ZM558.65 145.41C558.612 145.37 558.502 145.37 558.426 145.37C558.35 145.37 558.206 145.37 558.168 145.41C558.124 145.404 558.08 145.412 558.04 145.433C558 145.453 557.967 145.485 557.944 145.525C557.944 145.564 557.315 147.073 556.686 148.62H560.06C559.541 147.306 558.983 145.988 558.835 145.564C558.825 145.521 558.802 145.482 558.768 145.454C558.734 145.426 558.693 145.411 558.65 145.41Z" fill="#A6A6A4"/>
<path d="M699.671 135.836H672.057V130.517C672.057 130.446 672.043 130.375 672.016 130.309C671.989 130.242 671.949 130.182 671.899 130.131C671.848 130.08 671.788 130.04 671.722 130.013C671.656 129.985 671.585 129.971 671.514 129.971H645.49C645.418 129.971 645.347 129.985 645.281 130.013C645.215 130.04 645.155 130.08 645.105 130.131C645.054 130.182 645.014 130.242 644.987 130.309C644.96 130.375 644.946 130.446 644.947 130.517V135.836H625.155C624.854 135.836 624.487 136.078 624.335 136.383L617.069 150.617C616.913 150.922 617.031 151.16 617.335 151.16H644.943V156.486C644.943 156.783 645.185 157.029 645.486 157.029H671.51C671.811 157.029 672.053 156.787 672.053 156.486V151.16H691.845C692.146 151.16 692.513 150.918 692.668 150.617L699.931 136.383C700.086 136.082 699.969 135.836 699.668 135.836M691.043 139.281L686.741 147.709H668.647V153.616H648.367V147.709H625.974L630.28 139.281H648.374V133.377H668.654V139.281H691.043Z" fill="#A6A6A4"/>
<g clip-path="url(#clip0_560_18)">
<path d="M765.5 116C759.27 116 753.18 117.818 748 121.224C742.819 124.631 738.782 129.472 736.398 135.137C734.014 140.801 733.39 147.034 734.605 153.048C735.821 159.061 738.821 164.585 743.226 168.92C747.632 173.256 753.244 176.208 759.355 177.404C765.465 178.6 771.799 177.987 777.555 175.64C783.31 173.294 788.23 169.321 791.691 164.223C795.153 159.125 797 153.131 797 147C797 138.778 793.681 130.893 787.774 125.08C781.866 119.266 773.854 116 765.5 116ZM764.419 119.557C768.177 119.408 771.927 120.008 775.445 121.319C778.962 122.631 782.175 124.628 784.89 127.19C787.604 129.752 789.766 132.828 791.244 136.232C792.722 139.636 793.487 143.298 793.493 147C793.499 150.619 792.778 154.204 791.373 157.549C789.969 160.894 787.907 163.933 785.306 166.492C782.706 169.051 779.618 171.08 776.219 172.463C772.82 173.845 769.178 174.554 765.5 174.549C758.192 174.532 751.181 171.699 745.97 166.657C740.759 161.615 737.761 154.764 737.62 147.574C737.478 140.383 740.204 133.424 745.213 128.187C750.223 122.95 757.117 119.852 764.419 119.557ZM765.5 120.908C765.398 120.911 765.3 120.945 765.218 121.005C765.137 121.066 765.078 121.151 765.049 121.247L762.731 127.772C762.72 127.855 762.72 127.94 762.731 128.023C762.73 128.15 762.762 128.276 762.823 128.389C762.884 128.502 762.972 128.598 763.08 128.669C763.385 128.877 763.638 129.152 763.819 129.472C764 129.792 764.104 130.148 764.123 130.514C764.141 130.88 764.075 131.245 763.927 131.581C763.78 131.917 763.557 132.215 763.274 132.453C762.596 133.024 762.052 133.734 761.681 134.532C761.309 135.331 761.118 136.199 761.122 137.077V139.41L749.396 132.786L747.96 135.248L761.051 142.681V144.468L759.47 145.365L746.403 137.925L744.957 140.389L756.58 147L754.528 148.162C753.756 148.605 753.092 149.208 752.581 149.929C752.07 150.65 751.725 151.472 751.569 152.337C751.5 152.698 751.348 153.039 751.124 153.333C750.9 153.626 750.61 153.866 750.278 154.033C749.945 154.199 749.578 154.289 749.205 154.294C748.832 154.299 748.462 154.22 748.125 154.063C748.013 154.004 747.888 153.973 747.762 153.973C747.635 153.973 747.51 154.004 747.398 154.063C747.321 154.106 747.251 154.161 747.191 154.226L742.618 159.488C742.554 159.564 742.515 159.658 742.507 159.756C742.499 159.855 742.521 159.954 742.571 160.039C742.622 160.125 742.697 160.194 742.788 160.236C742.879 160.278 742.981 160.292 743.08 160.276L749.992 159.002C750.074 158.983 750.153 158.952 750.228 158.912C750.34 158.849 750.436 158.761 750.505 158.653C750.575 158.546 750.617 158.424 750.627 158.297C750.663 157.936 750.783 157.587 750.976 157.278C751.17 156.969 751.433 156.707 751.744 156.513C752.056 156.318 752.408 156.196 752.775 156.156C753.142 156.115 753.513 156.158 753.861 156.279C754.7 156.569 755.593 156.677 756.478 156.595C757.364 156.513 758.221 156.243 758.99 155.804L761.038 154.639V167.824H763.92V152.955L765.49 152.066L767.059 152.955V167.824H769.947V154.59L771.994 155.752C772.764 156.192 773.62 156.461 774.506 156.543C775.391 156.626 776.284 156.518 777.124 156.228C777.472 156.105 777.844 156.062 778.211 156.102C778.579 156.142 778.932 156.264 779.245 156.459C779.557 156.654 779.82 156.916 780.014 157.226C780.208 157.536 780.327 157.886 780.363 158.248C780.368 158.375 780.408 158.498 780.476 158.606C780.545 158.714 780.64 158.802 780.754 158.863C780.828 158.903 780.908 158.934 780.99 158.953L787.904 160.224C788.005 160.247 788.111 160.238 788.206 160.197C788.301 160.157 788.38 160.087 788.432 159.999C788.484 159.91 788.506 159.808 788.494 159.707C788.482 159.605 788.437 159.511 788.366 159.436L788.377 159.488L783.799 154.226C783.74 154.163 783.674 154.109 783.602 154.063C783.489 154.004 783.363 153.973 783.235 153.973C783.106 153.973 782.98 154.004 782.867 154.063C782.509 154.228 782.117 154.306 781.722 154.29C781.327 154.274 780.942 154.165 780.599 153.972C780.302 153.795 780.046 153.558 779.85 153.276C779.654 152.994 779.52 152.674 779.46 152.337C779.294 151.473 778.94 150.655 778.424 149.938C777.908 149.22 777.24 148.621 776.467 148.181L774.415 147.018L786.059 140.41L784.618 137.943L771.545 145.365L769.965 144.468V142.681L783.051 135.248L781.615 132.786L769.963 139.41V137.075C769.971 136.2 769.787 135.335 769.423 134.537C769.059 133.739 768.524 133.028 767.855 132.453C767.571 132.216 767.346 131.917 767.199 131.58C767.052 131.243 766.986 130.877 767.006 130.51C767.026 130.144 767.131 129.787 767.315 129.468C767.498 129.148 767.754 128.875 768.062 128.669C768.166 128.595 768.25 128.498 768.309 128.385C768.367 128.273 768.398 128.149 768.398 128.023C768.413 127.94 768.413 127.855 768.398 127.772L765.973 121.244C765.942 121.145 765.879 121.059 765.794 120.998C765.708 120.938 765.605 120.906 765.5 120.908ZM765.555 135.148C765.963 135.16 766.35 135.328 766.635 135.616C766.919 135.905 767.078 136.291 767.078 136.692V141.058L765.511 141.955L763.941 141.056V136.692C763.941 136.486 763.983 136.282 764.065 136.092C764.147 135.902 764.267 135.73 764.417 135.586C764.568 135.442 764.746 135.33 764.941 135.255C765.137 135.18 765.345 135.142 765.555 135.148ZM765.511 145.011L767.314 146.021V148.039L765.511 149.049L763.705 148.041V146.021L765.511 145.011ZM771.545 148.635L775.378 150.823C775.557 150.924 775.715 151.058 775.842 151.219C775.968 151.379 776.061 151.563 776.116 151.759C776.17 151.955 776.185 152.16 776.158 152.361C776.132 152.563 776.066 152.758 775.963 152.934V152.944C775.753 153.299 775.409 153.558 775.006 153.664C774.602 153.77 774.173 153.715 773.811 153.51L769.965 151.33V149.532L771.545 148.635ZM759.481 148.646L761.061 149.542V151.33L757.216 153.51C757.037 153.611 756.84 153.677 756.635 153.704C756.431 153.73 756.223 153.717 756.024 153.664C755.825 153.612 755.638 153.521 755.475 153.398C755.311 153.274 755.174 153.12 755.071 152.944C754.968 152.769 754.901 152.575 754.874 152.373C754.847 152.172 754.861 151.968 754.914 151.772C754.968 151.576 755.06 151.392 755.185 151.231C755.311 151.07 755.467 150.935 755.646 150.834L759.481 148.646Z" fill="#A6A6A4"/>
</g>
<defs>
<clipPath id="clip0_560_18">
<rect width="63" height="62" fill="white" transform="translate(734 116)"/>
</clipPath>
</defs>
</svg>
