<svg width="35" height="28" viewBox="0 0 35 28" fill="none" xmlns="http://www.w3.org/2000/svg">
<path d="M26.25 21C25.2875 21 24.5 20.2125 24.5 19.25H10.5C10.5 20.2125 9.7125 21 8.75 21C7.7875 21 7 20.2125 7 19.25H0V24.5C0 26.425 1.575 28 3.5 28H31.5C33.425 28 35 26.425 35 24.5V19.25H28C28 20.2125 27.2125 21 26.25 21ZM31.5 7H26.25V3.5C26.25 1.575 24.675 0 22.75 0H12.25C10.325 0 8.75 1.575 8.75 3.5V7H3.5C1.575 7 0 8.575 0 10.5V17.5H7V15.75C7 14.7875 7.7875 14 8.75 14C9.7125 14 10.5 14.7875 10.5 15.75V17.5H24.5V15.75C24.5 14.7875 25.2875 14 26.25 14C27.2125 14 28 14.7875 28 15.75V17.5H35V10.5C35 8.575 33.425 7 31.5 7ZM22.75 7H12.25V3.5H22.75V7Z" fill="#315C32"/>
</svg>
