<svg width="43" height="42" viewBox="0 0 43 42" fill="none" xmlns="http://www.w3.org/2000/svg">
<g clip-path="url(#clip0_98_1290)">
<path d="M34.8689 29.7942C34.9379 28.7633 34.2641 27.8115 33.2878 27.4926L26.1665 24.3785C25.1655 23.9365 23.9777 24.267 23.3439 25.172L22.4845 26.4155C20.0503 24.9318 18.6556 22.3794 18.6556 22.3794C18.6556 22.3794 16.7806 20.1432 16.2529 17.3446L17.7076 16.9675C18.2243 16.8307 18.6786 16.5177 18.9932 16.0817C19.3077 15.6458 19.463 15.1138 19.4327 14.5764L19.0388 6.75133C19.0851 5.71637 18.4381 4.7457 17.4577 4.44976C15.6333 3.88258 12.7081 3.42452 10.7785 5.25695C10.7785 5.25695 2.41005 13.5835 11.7853 27.2305C21.1606 40.8775 31.8171 35.8815 31.8171 35.8815C34.1973 34.6759 34.7745 31.7452 34.9061 29.8483L34.8689 29.7942Z" fill="#315C32"/>
</g>
<defs>
<clipPath id="clip0_98_1290">
<rect width="35" height="37" fill="white" transform="translate(42.6396 6.58679) rotate(100.255)"/>
</clipPath>
</defs>
</svg>
