<svg width="156" height="143" viewBox="0 0 156 143" fill="none" xmlns="http://www.w3.org/2000/svg">
<path fill-rule="evenodd" clip-rule="evenodd" d="M126.566 3.91781H29.434C15.3455 3.91781 3.92453 15.3192 3.92453 29.3836V113.616C3.92453 127.681 15.3455 139.082 29.434 139.082H126.566C140.655 139.082 152.075 127.681 152.075 113.616V29.3836C152.075 15.3192 140.655 3.91781 126.566 3.91781ZM29.434 0C13.178 0 0 13.1555 0 29.3836V113.616C0 129.845 13.178 143 29.434 143H126.566C142.822 143 156 129.845 156 113.616V29.3836C156 13.1555 142.822 0 126.566 0H29.434Z" fill="#DFDEDB"/>
<path d="M78.5074 84.55C75.4059 84.55 72.4315 83.3331 70.2384 81.1671C68.0453 79.001 66.8133 76.0633 66.8133 73C66.8133 69.9368 68.0453 66.999 70.2384 64.8329C72.4315 62.6669 75.4059 61.45 78.5074 61.45C81.6089 61.45 84.5833 62.6669 86.7764 64.8329C88.9694 66.999 90.2015 69.9368 90.2015 73C90.2015 76.0633 88.9694 79.001 86.7764 81.1671C84.5833 83.3331 81.6089 84.55 78.5074 84.55ZM103.332 76.201C103.466 75.145 103.566 74.089 103.566 73C103.566 71.911 103.466 70.822 103.332 69.7L110.382 64.321C111.017 63.826 111.184 62.935 110.783 62.209L104.101 50.791C103.7 50.065 102.798 49.768 102.063 50.065L93.7431 53.365C92.0057 52.078 90.2015 50.956 88.0965 50.131L86.8603 41.386C86.7924 40.9973 86.5875 40.6449 86.2817 40.3912C85.9759 40.1375 85.5891 39.9989 85.1897 40H71.825C70.9897 40 70.2881 40.594 70.1544 41.386L68.9182 50.131C66.8133 50.956 65.009 52.078 63.2716 53.365L54.9521 50.065C54.2171 49.768 53.3149 50.065 52.914 50.791L46.2316 62.209C45.7973 62.935 45.9978 63.826 46.6326 64.321L53.6825 69.7C53.5488 70.822 53.4486 71.911 53.4486 73C53.4486 74.089 53.5488 75.145 53.6825 76.201L46.6326 81.679C45.9978 82.174 45.7973 83.065 46.2316 83.791L52.914 95.209C53.3149 95.935 54.2171 96.199 54.9521 95.935L63.2716 92.602C65.009 93.922 66.8133 95.044 68.9182 95.869L70.1544 104.614C70.2881 105.406 70.9897 106 71.825 106H85.1897C86.025 106 86.7267 105.406 86.8603 104.614L88.0965 95.869C90.2015 95.011 92.0057 93.922 93.7431 92.602L102.063 95.935C102.798 96.199 103.7 95.935 104.101 95.209L110.783 83.791C111.184 83.065 111.017 82.174 110.382 81.679L103.332 76.201Z" fill="#D27C2C"/>
</svg>
