<svg width="992" height="68" viewBox="0 0 992 68" fill="none" xmlns="http://www.w3.org/2000/svg">
<path d="M777.564 26.2198C777.564 22.8948 778.609 20.1436 780.698 17.9662C782.816 15.7888 785.479 14.7001 788.686 14.7001C791.894 14.7001 794.542 15.7888 796.631 17.9662C798.75 20.1436 799.809 22.8948 799.809 26.2198C799.809 29.5742 798.75 32.3254 796.631 34.4734C794.542 36.6508 791.894 37.7395 788.686 37.7395C785.479 37.7395 782.816 36.6508 780.698 34.4734C778.609 32.2959 777.564 29.5447 777.564 26.2198ZM781.625 26.2198C781.625 28.5443 782.301 30.4275 783.655 31.8693C785.008 33.3111 786.686 34.032 788.686 34.032C790.687 34.032 792.365 33.3111 793.718 31.8693C795.072 30.4275 795.748 28.5443 795.748 26.2198C795.748 23.9247 795.072 22.0562 793.718 20.6144C792.335 19.1432 790.658 18.4076 788.686 18.4076C786.715 18.4076 785.038 19.1432 783.655 20.6144C782.301 22.0562 781.625 23.9247 781.625 26.2198Z" fill="#474747"/>
<path d="M735.576 37.0333H731.516V15.4063H735.4V18.4076H735.576C736.194 17.3483 737.136 16.4655 738.401 15.7594C739.696 15.0532 740.976 14.7001 742.241 14.7001C743.83 14.7001 745.228 15.0679 746.434 15.8035C747.641 16.5391 748.523 17.5543 749.082 18.8489C750.877 16.083 753.364 14.7001 756.541 14.7001C759.042 14.7001 760.97 15.4651 762.323 16.9952C763.677 18.5253 764.354 20.7027 764.354 23.5274V37.0333H760.293V24.1453C760.293 22.1151 759.925 20.6585 759.19 19.7758C758.454 18.8636 757.218 18.4076 755.482 18.4076C753.923 18.4076 752.613 19.0696 751.554 20.3937C750.495 21.7178 749.965 23.2773 749.965 25.0722V37.0333H745.905V24.1453C745.905 22.1151 745.537 20.6585 744.801 19.7758C744.065 18.8636 742.83 18.4076 741.094 18.4076C739.534 18.4076 738.225 19.0696 737.165 20.3937C736.106 21.7178 735.576 23.2773 735.576 25.0722V37.0333Z" fill="#474747"/>
<path d="M706.014 26.2198C706.014 22.8948 707.058 20.1436 709.147 17.9662C711.266 15.7888 713.929 14.7001 717.136 14.7001C720.343 14.7001 722.992 15.7888 725.081 17.9662C727.199 20.1436 728.259 22.8948 728.259 26.2198C728.259 29.5742 727.199 32.3254 725.081 34.4734C722.992 36.6508 720.343 37.7395 717.136 37.7395C713.929 37.7395 711.266 36.6508 709.147 34.4734C707.058 32.2959 706.014 29.5447 706.014 26.2198ZM710.074 26.2198C710.074 28.5443 710.751 30.4275 712.105 31.8693C713.458 33.3111 715.135 34.032 717.136 34.032C719.137 34.032 720.814 33.3111 722.168 31.8693C723.521 30.4275 724.198 28.5443 724.198 26.2198C724.198 23.9247 723.521 22.0562 722.168 20.6144C720.785 19.1432 719.108 18.4076 717.136 18.4076C715.165 18.4076 713.488 19.1432 712.105 20.6144C710.751 22.0562 710.074 23.9247 710.074 26.2198Z" fill="#474747"/>
<path d="M694.292 37.7395C691.085 37.7395 688.422 36.6508 686.303 34.4734C684.214 32.2371 683.17 29.4859 683.17 26.2198C683.17 22.8948 684.214 20.1436 686.303 17.9662C688.422 15.7888 691.085 14.7001 694.292 14.7001C696.499 14.7001 698.426 15.2591 700.074 16.3773C701.722 17.466 702.958 18.9813 703.782 20.9234L700.074 22.4681C698.927 19.7611 696.911 18.4076 694.027 18.4076C692.174 18.4076 690.57 19.1579 689.216 20.6585C687.892 22.1592 687.23 24.0129 687.23 26.2198C687.23 28.4266 687.892 30.2804 689.216 31.781C690.57 33.2817 692.174 34.032 694.027 34.032C696.999 34.032 699.088 32.6785 700.295 29.9714L703.914 31.5162C703.119 33.4582 701.869 34.9883 700.162 36.1064C698.485 37.1951 696.528 37.7395 694.292 37.7395Z" fill="#474747"/>
<path d="M648.774 26.2198C648.774 22.8948 649.819 20.1436 651.908 17.9662C654.026 15.7888 656.689 14.7001 659.896 14.7001C663.104 14.7001 665.752 15.7888 667.841 17.9662C669.96 20.1436 671.019 22.8948 671.019 26.2198C671.019 29.5742 669.96 32.3254 667.841 34.4734C665.752 36.6508 663.104 37.7395 659.896 37.7395C656.689 37.7395 654.026 36.6508 651.908 34.4734C649.819 32.2959 648.774 29.5447 648.774 26.2198ZM652.835 26.2198C652.835 28.5443 653.511 30.4275 654.865 31.8693C656.218 33.3111 657.896 34.032 659.896 34.032C661.897 34.032 663.574 33.3111 664.928 31.8693C666.282 30.4275 666.958 28.5443 666.958 26.2198C666.958 23.9247 666.282 22.0562 664.928 20.6144C663.545 19.1432 661.868 18.4076 659.896 18.4076C657.925 18.4076 656.248 19.1432 654.865 20.6144C653.511 22.0562 652.835 23.9247 652.835 26.2198Z" fill="#474747"/>
<path d="M645.779 7.9472C645.779 8.74166 645.5 9.41842 644.941 9.97749C644.382 10.5366 643.705 10.8161 642.911 10.8161C642.116 10.8161 641.439 10.5366 640.88 9.97749C640.321 9.41842 640.042 8.74166 640.042 7.9472C640.042 7.15274 640.321 6.47597 640.88 5.91691C641.439 5.35784 642.116 5.07831 642.911 5.07831C643.705 5.07831 644.382 5.35784 644.941 5.91691C645.5 6.47597 645.779 7.15274 645.779 7.9472ZM644.941 15.4063V37.0333H640.88V15.4063H644.941Z" fill="#474747"/>
<path d="M627.354 37.7395C624.147 37.7395 621.484 36.6508 619.365 34.4734C617.276 32.2371 616.232 29.4859 616.232 26.2198C616.232 22.8948 617.276 20.1436 619.365 17.9662C621.484 15.7888 624.147 14.7001 627.354 14.7001C629.561 14.7001 631.488 15.2591 633.136 16.3773C634.784 17.466 636.02 18.9813 636.844 20.9234L633.136 22.4681C631.989 19.7611 629.973 18.4076 627.089 18.4076C625.236 18.4076 623.632 19.1579 622.278 20.6585C620.954 22.1592 620.292 24.0129 620.292 26.2198C620.292 28.4266 620.954 30.2804 622.278 31.781C623.632 33.2817 625.236 34.032 627.089 34.032C630.061 34.032 632.15 32.6785 633.357 29.9714L636.976 31.5162C636.181 33.4582 634.931 34.9883 633.224 36.1064C631.547 37.1951 629.59 37.7395 627.354 37.7395Z" fill="#474747"/>
<path d="M591.534 26.2198C591.534 22.8948 592.579 20.1436 594.668 17.9662C596.786 15.7888 599.449 14.7001 602.657 14.7001C605.864 14.7001 608.512 15.7888 610.601 17.9662C612.72 20.1436 613.779 22.8948 613.779 26.2198C613.779 29.5742 612.72 32.3253 610.601 34.4733C608.512 36.6508 605.864 37.7395 602.657 37.7395C599.449 37.7395 596.786 36.6508 594.668 34.4733C592.579 32.2959 591.534 29.5447 591.534 26.2198ZM595.595 26.2198C595.595 28.5443 596.272 30.4275 597.625 31.8693C598.979 33.3111 600.656 34.032 602.657 34.032C604.658 34.032 606.335 33.3111 607.688 31.8693C609.042 30.4275 609.719 28.5443 609.719 26.2198C609.719 23.9246 609.042 22.0562 607.688 20.6144C606.305 19.1432 604.628 18.4075 602.657 18.4075C600.685 18.4075 599.008 19.1432 597.625 20.6144C596.272 22.0562 595.595 23.9246 595.595 26.2198ZM607.423 5.43134L604.246 11.0808H600.715L603.01 5.43134H607.423Z" fill="#474747"/>
<path d="M577.265 34.032C579.266 34.032 580.899 33.3111 582.164 31.8693C583.488 30.4275 584.15 28.5443 584.15 26.2198C584.15 23.9541 583.488 22.0856 582.164 20.6144C580.869 19.1432 579.236 18.4076 577.265 18.4076C575.323 18.4076 573.69 19.1432 572.366 20.6144C571.042 22.0856 570.38 23.9541 570.38 26.2198C570.38 28.5149 571.042 30.3833 572.366 31.8251C573.69 33.2964 575.323 34.032 577.265 34.032ZM577.132 47.273C575.926 47.273 574.793 47.1112 573.734 46.7875C572.675 46.4933 571.704 46.0666 570.821 45.5075C569.968 44.9485 569.232 44.2864 568.614 43.5214C567.996 42.7564 567.525 41.903 567.202 40.9615L571.042 39.3725C571.483 40.6378 572.248 41.6529 573.337 42.418C574.425 43.183 575.691 43.5655 577.132 43.5655C579.339 43.5655 581.061 42.9035 582.296 41.5794C583.532 40.2553 584.15 38.4309 584.15 36.1064V34.032H583.974C583.209 35.1795 582.164 36.0917 580.84 36.7685C579.545 37.4158 578.133 37.7395 576.603 37.7395C573.778 37.7395 571.351 36.6361 569.32 34.4292C567.319 32.1635 566.319 29.427 566.319 26.2198C566.319 23.0125 567.319 20.2907 569.32 18.0545C571.351 15.8182 573.778 14.7001 576.603 14.7001C578.133 14.7001 579.545 15.0385 580.84 15.7152C582.164 16.3626 583.209 17.26 583.974 18.4076H584.15V15.4063H588.034V36.1064C588.034 39.5785 587.049 42.3003 585.077 44.2717C583.076 46.2726 580.428 47.273 577.132 47.273Z" fill="#474747"/>
<path d="M553.387 37.7395C550.209 37.7395 547.59 36.6508 545.53 34.4734C543.471 32.2959 542.441 29.5447 542.441 26.2198C542.441 22.9242 543.441 20.1877 545.442 18.0103C547.443 15.8035 550.003 14.7001 553.122 14.7001C556.329 14.7001 558.874 15.7446 560.757 17.8338C562.67 19.8935 563.626 22.7918 563.626 26.5287L563.582 26.9701H546.59C546.648 29.0887 547.355 30.7953 548.708 32.09C550.062 33.3846 551.68 34.032 553.563 34.032C556.153 34.032 558.183 32.7373 559.654 30.1479L563.273 31.9134C562.302 33.7377 560.949 35.1648 559.213 36.1947C557.506 37.2245 555.564 37.7395 553.387 37.7395ZM546.898 23.6157H559.301C559.183 22.1151 558.565 20.8792 557.447 19.9082C556.358 18.9078 554.887 18.4076 553.033 18.4076C551.503 18.4076 550.179 18.8784 549.061 19.8199C547.972 20.7615 547.252 22.0268 546.898 23.6157Z" fill="#474747"/>
<path d="M519.754 15.4063H523.638V18.4076H523.815C524.432 17.3483 525.374 16.4655 526.639 15.7594C527.934 15.0532 529.273 14.7001 530.656 14.7001C533.304 14.7001 535.334 15.4651 536.747 16.9952C538.188 18.4958 538.909 20.6438 538.909 23.4392V37.0333H534.849V23.704C534.76 20.173 532.98 18.4076 529.508 18.4076C527.89 18.4076 526.536 19.0696 525.448 20.3937C524.359 21.6884 523.815 23.2479 523.815 25.0722V37.0333H519.754V15.4063Z" fill="#474747"/>
<path d="M505.114 37.0333H501.23V34.032H501.053C500.435 35.0913 499.479 35.9741 498.184 36.6802C496.919 37.3864 495.595 37.7395 494.212 37.7395C491.564 37.7395 489.519 36.9892 488.077 35.4885C486.665 33.9585 485.958 31.7958 485.958 29.0004V15.4063H490.019V28.7356C490.107 32.2666 491.887 34.032 495.359 34.032C496.978 34.032 498.331 33.3847 499.42 32.09C500.509 30.7659 501.053 29.1917 501.053 27.3674V15.4063H505.114V37.0333Z" fill="#474747"/>
<path d="M472.182 37.7395C469.004 37.7395 466.385 36.6508 464.325 34.4734C462.266 32.2959 461.236 29.5447 461.236 26.2198C461.236 22.9242 462.236 20.1877 464.237 18.0103C466.238 15.8035 468.798 14.7001 471.917 14.7001C475.124 14.7001 477.669 15.7446 479.553 17.8338C481.465 19.8935 482.422 22.7918 482.422 26.5287L482.377 26.9701H465.385C465.444 29.0887 466.15 30.7953 467.503 32.09C468.857 33.3846 470.475 34.032 472.358 34.032C474.948 34.032 476.978 32.7373 478.449 30.1479L482.068 31.9134C481.097 33.7377 479.744 35.1648 478.008 36.1947C476.301 37.2245 474.359 37.7395 472.182 37.7395ZM465.694 23.6157H478.096C477.978 22.1151 477.36 20.8792 476.242 19.9082C475.154 18.9078 473.682 18.4076 471.829 18.4076C470.299 18.4076 468.974 18.8784 467.856 19.8199C466.768 20.7615 466.047 22.0268 465.694 23.6157Z" fill="#474747"/>
<path d="M458.722 31.0307C458.722 32.9139 457.898 34.5028 456.25 35.7975C454.602 37.0921 452.528 37.7395 450.027 37.7395C447.849 37.7395 445.937 37.1804 444.289 36.0623C442.641 34.9147 441.464 33.4141 440.758 31.5603L444.377 30.0155C444.907 31.3102 445.672 32.3254 446.672 33.061C447.702 33.7672 448.82 34.1203 450.027 34.1203C451.321 34.1203 452.395 33.8407 453.249 33.2817C454.131 32.7226 454.573 32.0605 454.573 31.2955C454.573 29.9125 453.513 28.8974 451.395 28.2501L447.687 27.3232C443.48 26.2639 441.376 24.2336 441.376 21.2323C441.376 19.2609 442.17 17.6867 443.759 16.5097C445.378 15.3033 447.437 14.7001 449.938 14.7001C451.851 14.7001 453.572 15.1562 455.102 16.0683C456.662 16.9805 457.751 18.2016 458.369 19.7317L454.749 21.2323C454.337 20.3202 453.661 19.614 452.719 19.1138C451.807 18.5841 450.777 18.3193 449.629 18.3193C448.57 18.3193 447.614 18.5841 446.761 19.1138C445.937 19.6434 445.525 20.2907 445.525 21.0558C445.525 22.2916 446.687 23.1743 449.012 23.704L452.278 24.5426C456.574 25.6019 458.722 27.7646 458.722 31.0307Z" fill="#474747"/>
<path d="M428.938 31.0307C428.938 32.9139 428.114 34.5028 426.466 35.7975C424.818 37.0921 422.744 37.7395 420.243 37.7395C418.065 37.7395 416.153 37.1804 414.505 36.0623C412.857 34.9147 411.68 33.4141 410.974 31.5603L414.593 30.0155C415.123 31.3102 415.888 32.3254 416.888 33.061C417.918 33.7672 419.036 34.1203 420.243 34.1203C421.537 34.1203 422.611 33.8407 423.465 33.2817C424.347 32.7226 424.789 32.0605 424.789 31.2955C424.789 29.9125 423.73 28.8974 421.611 28.2501L417.903 27.3232C413.696 26.2639 411.592 24.2336 411.592 21.2323C411.592 19.2609 412.386 17.6867 413.975 16.5097C415.594 15.3033 417.653 14.7001 420.154 14.7001C422.067 14.7001 423.788 15.1562 425.318 16.0683C426.878 16.9805 427.967 18.2016 428.585 19.7317L424.965 21.2323C424.553 20.3202 423.877 19.614 422.935 19.1138C422.023 18.5841 420.993 18.3193 419.845 18.3193C418.786 18.3193 417.83 18.5841 416.977 19.1138C416.153 19.6434 415.741 20.2907 415.741 21.0558C415.741 22.2916 416.903 23.1743 419.228 23.704L422.494 24.5426C426.79 25.6019 428.938 27.7646 428.938 31.0307Z" fill="#474747"/>
<path d="M407.941 7.9472C407.941 8.74166 407.661 9.41842 407.102 9.97749C406.543 10.5366 405.866 10.8161 405.072 10.8161C404.277 10.8161 403.6 10.5366 403.041 9.97749C402.482 9.41842 402.203 8.74166 402.203 7.9472C402.203 7.15274 402.482 6.47597 403.041 5.91691C403.6 5.35784 404.277 5.07831 405.072 5.07831C405.866 5.07831 406.543 5.35784 407.102 5.91691C407.661 6.47597 407.941 7.15274 407.941 7.9472ZM407.102 15.4063V37.0333H403.041V15.4063H407.102Z" fill="#474747"/>
<path d="M383.146 30.4128C383.146 31.472 383.588 32.3548 384.471 33.061C385.383 33.7672 386.442 34.1203 387.648 34.1203C389.355 34.1203 390.87 33.4876 392.194 32.2224C393.548 30.9571 394.225 29.4712 394.225 27.7646C392.959 26.7641 391.194 26.2639 388.928 26.2639C387.281 26.2639 385.898 26.6611 384.779 27.4556C383.691 28.2501 383.146 29.2358 383.146 30.4128ZM388.399 14.7001C391.4 14.7001 393.769 15.5092 395.505 17.1276C397.241 18.7165 398.109 20.9086 398.109 23.704V37.0333H394.225V34.032H394.048C392.371 36.5036 390.135 37.7395 387.339 37.7395C384.956 37.7395 382.955 37.0333 381.337 35.6209C379.748 34.2085 378.953 32.4431 378.953 30.3245C378.953 28.0882 379.792 26.308 381.469 24.9839C383.176 23.6598 385.442 22.9978 388.266 22.9978C390.679 22.9978 392.665 23.4392 394.225 24.3219V23.395C394.225 21.9826 393.666 20.7909 392.548 19.8199C391.429 18.8195 390.12 18.3193 388.619 18.3193C386.354 18.3193 384.559 19.2756 383.235 21.1882L379.66 18.9372C381.631 16.1124 384.544 14.7001 388.399 14.7001Z" fill="#474747"/>
<path d="M346.88 37.0333H342.819V15.4063H346.703V18.4076H346.88C347.498 17.3483 348.439 16.4655 349.704 15.7594C350.999 15.0532 352.279 14.7001 353.544 14.7001C355.133 14.7001 356.531 15.0679 357.737 15.8035C358.944 16.5391 359.826 17.5543 360.386 18.8489C362.18 16.083 364.667 14.7001 367.845 14.7001C370.346 14.7001 372.273 15.4651 373.627 16.9952C374.98 18.5253 375.657 20.7027 375.657 23.5274V37.0333H371.596V24.1453C371.596 22.1151 371.228 20.6585 370.493 19.7758C369.757 18.8636 368.521 18.4076 366.785 18.4076C365.226 18.4076 363.916 19.0696 362.857 20.3937C361.798 21.7178 361.268 23.2773 361.268 25.0722V37.0333H357.208V24.1453C357.208 22.1151 356.84 20.6585 356.104 19.7758C355.369 18.8636 354.133 18.4076 352.397 18.4076C350.837 18.4076 349.528 19.0696 348.469 20.3937C347.409 21.7178 346.88 23.2773 346.88 25.0722V37.0333Z" fill="#474747"/>
<path d="M313.579 30.4128C313.579 31.472 314.021 32.3548 314.903 33.061C315.815 33.7672 316.875 34.1203 318.081 34.1203C319.788 34.1203 321.303 33.4876 322.627 32.2224C323.981 30.9571 324.657 29.4712 324.657 27.7646C323.392 26.7641 321.627 26.2639 319.361 26.2639C317.713 26.2639 316.33 26.6611 315.212 27.4556C314.124 28.2501 313.579 29.2358 313.579 30.4128ZM318.831 14.7001C321.833 14.7001 324.201 15.5092 325.937 17.1276C327.674 18.7165 328.542 20.9086 328.542 23.704V37.0333H324.657V34.032H324.481C322.804 36.5036 320.567 37.7395 317.772 37.7395C315.389 37.7395 313.388 37.0333 311.77 35.6209C310.181 34.2085 309.386 32.4431 309.386 30.3245C309.386 28.0882 310.225 26.308 311.902 24.9839C313.609 23.6598 315.874 22.9978 318.699 22.9978C321.112 22.9978 323.098 23.4392 324.657 24.3219V23.395C324.657 21.9826 324.098 20.7909 322.98 19.8199C321.862 18.8195 320.553 18.3193 319.052 18.3193C316.786 18.3193 314.992 19.2756 313.667 21.1882L310.092 18.9372C312.064 16.1124 314.977 14.7001 318.831 14.7001Z" fill="#474747"/>
<path d="M295.118 34.032C297.118 34.032 298.751 33.3111 300.017 31.8693C301.341 30.4275 302.003 28.5443 302.003 26.2198C302.003 23.9541 301.341 22.0856 300.017 20.6144C298.722 19.1432 297.089 18.4075 295.118 18.4075C293.175 18.4075 291.542 19.1432 290.218 20.6144C288.894 22.0856 288.232 23.9541 288.232 26.2198C288.232 28.5149 288.894 30.3833 290.218 31.8251C291.542 33.2964 293.175 34.032 295.118 34.032ZM294.455 37.7395C291.631 37.7395 289.203 36.6213 287.173 34.3851C285.172 32.1194 284.172 29.3976 284.172 26.2198C284.172 23.0419 285.172 20.3201 287.173 18.0545C289.203 15.8182 291.631 14.7001 294.455 14.7001C296.044 14.7001 297.486 15.0384 298.781 15.7152C300.105 16.392 301.12 17.2894 301.826 18.4075H302.003L301.826 15.4062V5.43134H305.887V37.0333H302.003V34.032H301.826C301.12 35.1501 300.105 36.0475 298.781 36.7243C297.486 37.4011 296.044 37.7395 294.455 37.7395Z" fill="#474747"/>
<path d="M261.485 15.4063H265.369V18.4076H265.545C266.163 17.3483 267.105 16.4655 268.37 15.7594C269.665 15.0532 271.004 14.7001 272.387 14.7001C275.035 14.7001 277.065 15.4651 278.478 16.9952C279.919 18.4958 280.64 20.6438 280.64 23.4392V37.0333H276.58V23.704C276.491 20.173 274.711 18.4076 271.239 18.4076C269.621 18.4076 268.267 19.0696 267.179 20.3937C266.09 21.6884 265.545 23.2479 265.545 25.0722V37.0333H261.485V15.4063Z" fill="#474747"/>
<path d="M257.04 7.9472C257.04 8.74166 256.76 9.41842 256.201 9.97749C255.642 10.5366 254.965 10.8161 254.171 10.8161C253.376 10.8161 252.699 10.5366 252.14 9.97749C251.581 9.41842 251.302 8.74166 251.302 7.9472C251.302 7.15274 251.581 6.47597 252.14 5.91691C252.699 5.35784 253.376 5.07831 254.171 5.07831C254.965 5.07831 255.642 5.35784 256.201 5.91691C256.76 6.47597 257.04 7.15274 257.04 7.9472ZM256.201 15.4063V37.0333H252.14V15.4063H256.201Z" fill="#474747"/>
<path d="M232.245 30.4128C232.245 31.472 232.687 32.3548 233.57 33.061C234.482 33.7672 235.541 34.1203 236.747 34.1203C238.454 34.1203 239.969 33.4876 241.294 32.2224C242.647 30.9571 243.324 29.4712 243.324 27.7646C242.059 26.7641 240.293 26.2639 238.027 26.2639C236.38 26.2639 234.997 26.6611 233.879 27.4556C232.79 28.2501 232.245 29.2358 232.245 30.4128ZM237.498 14.7001C240.499 14.7001 242.868 15.5092 244.604 17.1276C246.34 18.7165 247.208 20.9086 247.208 23.704V37.0333H243.324V34.032H243.147C241.47 36.5036 239.234 37.7395 236.438 37.7395C234.055 37.7395 232.054 37.0333 230.436 35.6209C228.847 34.2085 228.052 32.4431 228.052 30.3245C228.052 28.0882 228.891 26.308 230.568 24.9839C232.275 23.6598 234.541 22.9978 237.365 22.9978C239.778 22.9978 241.764 23.4392 243.324 24.3219V23.395C243.324 21.9826 242.765 20.7909 241.647 19.8199C240.528 18.8195 239.219 18.3193 237.718 18.3193C235.453 18.3193 233.658 19.2756 232.334 21.1882L228.759 18.9372C230.73 16.1124 233.643 14.7001 237.498 14.7001Z" fill="#474747"/>
<path d="M215.544 31.8251C214.544 33.5906 213.19 35.0177 211.484 36.1064C209.807 37.1951 207.747 37.7395 205.305 37.7395C203.657 37.7395 202.127 37.4599 200.714 36.9009C199.331 36.3124 198.125 35.5032 197.095 34.4734C196.065 33.4435 195.256 32.2371 194.668 30.8541C194.109 29.4418 193.829 27.897 193.829 26.2198C193.829 24.6603 194.109 23.189 194.668 21.8061C195.227 20.3937 196.007 19.1726 197.007 18.1427C198.007 17.0835 199.184 16.2449 200.538 15.6269C201.921 15.009 203.436 14.7001 205.084 14.7001C206.82 14.7001 208.365 14.9943 209.718 15.5828C211.072 16.1419 212.205 16.9363 213.117 17.9662C214.029 18.9666 214.721 20.1583 215.191 21.5413C215.662 22.9242 215.897 24.4249 215.897 26.0432C215.897 26.2492 215.897 26.4257 215.897 26.5729C215.868 26.7494 215.853 26.9112 215.853 27.0584C215.824 27.2055 215.809 27.3673 215.809 27.5439H199.523C199.64 28.4266 199.876 29.1916 200.229 29.839C200.611 30.4569 201.068 30.9865 201.597 31.4279C202.156 31.8399 202.759 32.1488 203.407 32.3548C204.054 32.5313 204.716 32.6196 205.393 32.6196C206.717 32.6196 207.806 32.3254 208.659 31.7369C209.542 31.119 210.233 30.3539 210.733 29.4418L215.544 31.8251ZM210.292 23.4392C210.263 23.0566 210.13 22.63 209.895 22.1592C209.689 21.6884 209.365 21.247 208.924 20.8351C208.512 20.4231 207.982 20.0848 207.335 19.8199C206.717 19.5551 205.967 19.4227 205.084 19.4227C203.848 19.4227 202.759 19.7758 201.818 20.482C200.876 21.1882 200.214 22.1739 199.832 23.4392H210.292Z" fill="#474747"/>
<path d="M175.149 18.231H175.502C176.179 17.1423 177.091 16.289 178.239 15.6711C179.386 15.0237 180.696 14.7001 182.167 14.7001C183.521 14.7001 184.712 14.9208 185.742 15.3621C186.772 15.8035 187.611 16.4361 188.258 17.26C188.935 18.0545 189.435 19.0255 189.759 20.173C190.112 21.2912 190.288 22.5417 190.288 23.9247V37.0333H184.506V24.6308C184.506 23.0713 184.153 21.9238 183.447 21.1882C182.77 20.4231 181.77 20.0406 180.446 20.0406C179.651 20.0406 178.945 20.2172 178.327 20.5703C177.739 20.8939 177.224 21.35 176.782 21.9385C176.37 22.4976 176.047 23.1743 175.811 23.9688C175.605 24.7338 175.502 25.5577 175.502 26.4405V37.0333H169.72V15.4063H175.149V18.231Z" fill="#474747"/>
<path d="M154.961 14.7001C156.638 14.7001 158.169 14.9943 159.552 15.5828C160.964 16.1419 162.17 16.9363 163.171 17.9662C164.201 18.9666 164.995 20.173 165.554 21.5854C166.143 22.9978 166.437 24.5426 166.437 26.2198C166.437 27.897 166.143 29.4418 165.554 30.8541C164.995 32.2665 164.201 33.4876 163.171 34.5175C162.17 35.5179 160.964 36.3124 159.552 36.9009C158.169 37.4599 156.638 37.7395 154.961 37.7395C153.284 37.7395 151.739 37.4599 150.327 36.9009C148.944 36.3124 147.738 35.5179 146.708 34.5175C145.707 33.4876 144.913 32.2665 144.324 30.8541C143.765 29.4418 143.486 27.897 143.486 26.2198C143.486 24.5426 143.765 22.9978 144.324 21.5854C144.913 20.173 145.707 18.9666 146.708 17.9662C147.738 16.9363 148.944 16.1419 150.327 15.5828C151.739 14.9943 153.284 14.7001 154.961 14.7001ZM154.961 32.3989C155.697 32.3989 156.403 32.2665 157.08 32.0017C157.786 31.7074 158.404 31.2955 158.934 30.7659C159.463 30.2362 159.875 29.5889 160.169 28.8238C160.493 28.0588 160.655 27.1908 160.655 26.2198C160.655 25.2488 160.493 24.3807 160.169 23.6157C159.875 22.8507 159.463 22.2033 158.934 21.6737C158.404 21.144 157.786 20.7468 157.08 20.482C156.403 20.1877 155.697 20.0406 154.961 20.0406C154.196 20.0406 153.475 20.1877 152.799 20.482C152.122 20.7468 151.519 21.144 150.989 21.6737C150.459 22.2033 150.033 22.8507 149.709 23.6157C149.415 24.3807 149.268 25.2488 149.268 26.2198C149.268 27.1908 149.415 28.0588 149.709 28.8238C150.033 29.5889 150.459 30.2362 150.989 30.7659C151.519 31.2955 152.122 31.7074 152.799 32.0017C153.475 32.2665 154.196 32.3989 154.961 32.3989Z" fill="#474747"/>
<path d="M136.736 12.2725C136.236 12.2725 135.75 12.1842 135.28 12.0077C134.838 11.8017 134.441 11.5369 134.088 11.2132C133.764 10.8601 133.499 10.4629 133.293 10.0215C133.117 9.58018 133.029 9.09468 133.029 8.56503C133.029 8.03539 133.117 7.54989 133.293 7.10852C133.499 6.66715 133.764 6.28463 134.088 5.96096C134.441 5.60787 134.838 5.34305 135.28 5.1665C135.75 4.96053 136.236 4.85754 136.736 4.85754C137.766 4.85754 138.649 5.22535 139.384 5.96096C140.12 6.66715 140.488 7.53518 140.488 8.56503C140.488 9.59489 140.12 10.4776 139.384 11.2132C138.649 11.9194 137.766 12.2725 136.736 12.2725ZM133.867 37.0333V15.4062H139.649V37.0333H133.867Z" fill="#474747"/>
<path d="M120.957 37.7395C119.545 37.7395 118.279 37.5629 117.161 37.2098C116.073 36.8567 115.116 36.4007 114.292 35.8416C113.498 35.2531 112.821 34.591 112.262 33.8554C111.703 33.0904 111.276 32.3254 110.982 31.5603L116.146 29.3535C116.646 30.4716 117.308 31.3102 118.132 31.8693C118.986 32.3989 119.927 32.6637 120.957 32.6637C122.016 32.6637 122.855 32.4725 123.473 32.09C124.091 31.7074 124.4 31.2514 124.4 30.7217C124.4 30.1332 124.135 29.6624 123.605 29.3093C123.105 28.9268 122.222 28.5884 120.957 28.2942L117.912 27.6322C117.235 27.485 116.529 27.2496 115.793 26.926C115.087 26.6023 114.439 26.1903 113.851 25.6901C113.263 25.1899 112.777 24.5867 112.394 23.8805C112.012 23.1743 111.821 22.3504 111.821 21.4089C111.821 20.3496 112.041 19.408 112.483 18.5841C112.954 17.7602 113.586 17.0687 114.381 16.5097C115.175 15.9212 116.102 15.4798 117.161 15.1856C118.25 14.8619 119.412 14.7001 120.648 14.7001C122.708 14.7001 124.547 15.112 126.165 15.9359C127.784 16.7304 128.975 18.0103 129.74 19.7758L124.753 21.8061C124.341 20.9528 123.738 20.3349 122.943 19.9524C122.149 19.5698 121.354 19.3786 120.56 19.3786C119.736 19.3786 119.015 19.5551 118.397 19.9082C117.779 20.2319 117.47 20.6585 117.47 21.1882C117.47 21.6884 117.72 22.0856 118.221 22.3799C118.75 22.6741 119.456 22.9389 120.339 23.1743L123.649 23.9688C125.856 24.4984 127.489 25.3517 128.549 26.5287C129.637 27.6763 130.182 29.0445 130.182 30.6335C130.182 31.575 129.961 32.4725 129.52 33.3258C129.078 34.1791 128.446 34.9441 127.622 35.6209C126.827 36.2682 125.856 36.7832 124.709 37.1657C123.591 37.5482 122.34 37.7395 120.957 37.7395Z" fill="#474747"/>
<path d="M101.877 37.0333V5.43134H107.659V37.0333H101.877Z" fill="#474747"/>
<path d="M91.496 34.2086H91.1429C90.4661 35.2973 89.5539 36.1653 88.4064 36.8126C87.2588 37.4306 85.9494 37.7395 84.4782 37.7395C81.7417 37.7395 79.6967 36.9009 78.3432 35.2237C77.0191 33.5465 76.3571 31.3103 76.3571 28.5149V15.4063H82.139V27.8087C82.139 29.3682 82.4774 30.5305 83.1541 31.2956C83.8603 32.0312 84.8755 32.399 86.1996 32.399C86.994 32.399 87.6855 32.2371 88.274 31.9135C88.8919 31.5604 89.4068 31.1043 89.8188 30.5452C90.2601 29.9567 90.5838 29.28 90.7898 28.5149C91.0252 27.7205 91.1429 26.8819 91.1429 25.9991V15.4063H96.9248V37.0333H91.496V34.2086Z" fill="#474747"/>
<path d="M50.28 15.4063H55.7089V18.0103H56.0619C56.5916 17.0982 57.4155 16.3184 58.5336 15.6711C59.6517 15.0237 61.0347 14.7001 62.6825 14.7001C64.0654 14.7001 65.3748 14.9943 66.6106 15.5828C67.8759 16.1419 68.9793 16.9363 69.9209 17.9662C70.8919 18.9666 71.6569 20.173 72.216 21.5854C72.7751 22.9978 73.0546 24.5426 73.0546 26.2198C73.0546 27.897 72.7751 29.4418 72.216 30.8541C71.6569 32.2665 70.8919 33.4876 69.9209 34.5175C68.9793 35.5179 67.8759 36.3124 66.6106 36.9009C65.3748 37.4599 64.0654 37.7395 62.6825 37.7395C61.0347 37.7395 59.6517 37.4158 58.5336 36.7685C57.4155 36.1211 56.5916 35.3414 56.0619 34.4292H55.7089L56.0619 37.5188V46.5668H50.28V15.4063ZM61.4908 32.3989C62.2558 32.3989 62.9767 32.2518 63.6535 31.9576C64.3597 31.6633 64.9776 31.2514 65.5072 30.7217C66.0369 30.1921 66.4635 29.5447 66.7872 28.7797C67.1108 28.0147 67.2727 27.1614 67.2727 26.2198C67.2727 25.2782 67.1108 24.4249 66.7872 23.6598C66.4635 22.8948 66.0369 22.2475 65.5072 21.7178C64.9776 21.1882 64.3597 20.7762 63.6535 20.482C62.9767 20.1877 62.2558 20.0406 61.4908 20.0406C60.7257 20.0406 59.9901 20.1877 59.2839 20.482C58.6072 20.7468 58.004 21.144 57.4743 21.6737C56.9447 22.2033 56.518 22.8507 56.1944 23.6157C55.8707 24.3807 55.7089 25.2488 55.7089 26.2198C55.7089 27.1908 55.8707 28.0588 56.1944 28.8238C56.518 29.5889 56.9447 30.2362 57.4743 30.7659C58.004 31.2955 58.6072 31.7074 59.2839 32.0017C59.9901 32.2665 60.7257 32.3989 61.4908 32.3989Z" fill="#474747"/>
<path d="M11.6208 15.4063H17.0497V18.231H17.4028C18.0795 17.1717 18.9917 16.3184 20.1392 15.6711C21.3162 15.0237 22.6109 14.7001 24.0233 14.7001C25.6711 14.7001 27.054 15.0826 28.1721 15.8476C29.2903 16.6127 30.0847 17.5543 30.5555 18.6724C31.2323 17.5837 32.1886 16.6568 33.4244 15.8918C34.6602 15.0973 36.1609 14.7001 37.9264 14.7001C39.2505 14.7001 40.398 14.9208 41.369 15.3621C42.34 15.7741 43.1345 16.3626 43.7524 17.1276C44.3998 17.8926 44.8853 18.8195 45.2089 19.9082C45.5326 20.9675 45.6944 22.1298 45.6944 23.395V37.0333H39.9125V24.4543C39.9125 21.5118 38.7061 20.0406 36.2933 20.0406C35.5283 20.0406 34.8515 20.2172 34.263 20.5703C33.6745 20.8939 33.1743 21.35 32.7624 21.9385C32.3798 22.4976 32.0709 23.1743 31.8355 23.9688C31.6295 24.7633 31.5265 25.6166 31.5265 26.5287V37.0333H25.7446V24.4543C25.7446 21.5118 24.4794 20.0406 21.9489 20.0406C21.2132 20.0406 20.5659 20.2172 20.0068 20.5703C19.4478 20.8939 18.977 21.35 18.5945 21.9385C18.2119 22.4976 17.9177 23.1743 17.7117 23.9688C17.5058 24.7633 17.4028 25.6166 17.4028 26.5287V37.0333H11.6208V15.4063Z" fill="#474747"/>
<path d="M0 5.43134H5.95846V37.0333H0V5.43134Z" fill="#474747"/>
<path d="M777.564 26.2198C777.564 22.8948 778.609 20.1436 780.698 17.9662C782.816 15.7888 785.479 14.7001 788.686 14.7001C791.894 14.7001 794.542 15.7888 796.631 17.9662C798.75 20.1436 799.809 22.8948 799.809 26.2198C799.809 29.5742 798.75 32.3254 796.631 34.4734C794.542 36.6508 791.894 37.7395 788.686 37.7395C785.479 37.7395 782.816 36.6508 780.698 34.4734C778.609 32.2959 777.564 29.5447 777.564 26.2198ZM781.625 26.2198C781.625 28.5443 782.301 30.4275 783.655 31.8693C785.008 33.3111 786.686 34.032 788.686 34.032C790.687 34.032 792.365 33.3111 793.718 31.8693C795.072 30.4275 795.748 28.5443 795.748 26.2198C795.748 23.9247 795.072 22.0562 793.718 20.6144C792.335 19.1432 790.658 18.4076 788.686 18.4076C786.715 18.4076 785.038 19.1432 783.655 20.6144C782.301 22.0562 781.625 23.9247 781.625 26.2198Z" fill="#474747"/>
<path d="M735.576 37.0333H731.516V15.4063H735.4V18.4076H735.576C736.194 17.3483 737.136 16.4655 738.401 15.7594C739.696 15.0532 740.976 14.7001 742.241 14.7001C743.83 14.7001 745.228 15.0679 746.434 15.8035C747.641 16.5391 748.523 17.5543 749.082 18.8489C750.877 16.083 753.364 14.7001 756.541 14.7001C759.042 14.7001 760.97 15.4651 762.323 16.9952C763.677 18.5253 764.354 20.7027 764.354 23.5274V37.0333H760.293V24.1453C760.293 22.1151 759.925 20.6585 759.19 19.7758C758.454 18.8636 757.218 18.4076 755.482 18.4076C753.923 18.4076 752.613 19.0696 751.554 20.3937C750.495 21.7178 749.965 23.2773 749.965 25.0722V37.0333H745.905V24.1453C745.905 22.1151 745.537 20.6585 744.801 19.7758C744.065 18.8636 742.83 18.4076 741.094 18.4076C739.534 18.4076 738.225 19.0696 737.165 20.3937C736.106 21.7178 735.576 23.2773 735.576 25.0722V37.0333Z" fill="#474747"/>
<path d="M706.014 26.2198C706.014 22.8948 707.058 20.1436 709.147 17.9662C711.266 15.7888 713.929 14.7001 717.136 14.7001C720.343 14.7001 722.992 15.7888 725.081 17.9662C727.199 20.1436 728.259 22.8948 728.259 26.2198C728.259 29.5742 727.199 32.3254 725.081 34.4734C722.992 36.6508 720.343 37.7395 717.136 37.7395C713.929 37.7395 711.266 36.6508 709.147 34.4734C707.058 32.2959 706.014 29.5447 706.014 26.2198ZM710.074 26.2198C710.074 28.5443 710.751 30.4275 712.105 31.8693C713.458 33.3111 715.135 34.032 717.136 34.032C719.137 34.032 720.814 33.3111 722.168 31.8693C723.521 30.4275 724.198 28.5443 724.198 26.2198C724.198 23.9247 723.521 22.0562 722.168 20.6144C720.785 19.1432 719.108 18.4076 717.136 18.4076C715.165 18.4076 713.488 19.1432 712.105 20.6144C710.751 22.0562 710.074 23.9247 710.074 26.2198Z" fill="#474747"/>
<path d="M694.292 37.7395C691.085 37.7395 688.422 36.6508 686.303 34.4734C684.214 32.2371 683.17 29.4859 683.17 26.2198C683.17 22.8948 684.214 20.1436 686.303 17.9662C688.422 15.7888 691.085 14.7001 694.292 14.7001C696.499 14.7001 698.426 15.2591 700.074 16.3773C701.722 17.466 702.958 18.9813 703.782 20.9234L700.074 22.4681C698.927 19.7611 696.911 18.4076 694.027 18.4076C692.174 18.4076 690.57 19.1579 689.216 20.6585C687.892 22.1592 687.23 24.0129 687.23 26.2198C687.23 28.4266 687.892 30.2804 689.216 31.781C690.57 33.2817 692.174 34.032 694.027 34.032C696.999 34.032 699.088 32.6785 700.295 29.9714L703.914 31.5162C703.119 33.4582 701.869 34.9883 700.162 36.1064C698.485 37.1951 696.528 37.7395 694.292 37.7395Z" fill="#474747"/>
<path d="M648.774 26.2198C648.774 22.8948 649.819 20.1436 651.908 17.9662C654.026 15.7888 656.689 14.7001 659.896 14.7001C663.104 14.7001 665.752 15.7888 667.841 17.9662C669.96 20.1436 671.019 22.8948 671.019 26.2198C671.019 29.5742 669.96 32.3254 667.841 34.4734C665.752 36.6508 663.104 37.7395 659.896 37.7395C656.689 37.7395 654.026 36.6508 651.908 34.4734C649.819 32.2959 648.774 29.5447 648.774 26.2198ZM652.835 26.2198C652.835 28.5443 653.511 30.4275 654.865 31.8693C656.218 33.3111 657.896 34.032 659.896 34.032C661.897 34.032 663.574 33.3111 664.928 31.8693C666.282 30.4275 666.958 28.5443 666.958 26.2198C666.958 23.9247 666.282 22.0562 664.928 20.6144C663.545 19.1432 661.868 18.4076 659.896 18.4076C657.925 18.4076 656.248 19.1432 654.865 20.6144C653.511 22.0562 652.835 23.9247 652.835 26.2198Z" fill="#474747"/>
<path d="M645.779 7.9472C645.779 8.74166 645.5 9.41842 644.941 9.97749C644.382 10.5366 643.705 10.8161 642.911 10.8161C642.116 10.8161 641.439 10.5366 640.88 9.97749C640.321 9.41842 640.042 8.74166 640.042 7.9472C640.042 7.15274 640.321 6.47597 640.88 5.91691C641.439 5.35784 642.116 5.07831 642.911 5.07831C643.705 5.07831 644.382 5.35784 644.941 5.91691C645.5 6.47597 645.779 7.15274 645.779 7.9472ZM644.941 15.4063V37.0333H640.88V15.4063H644.941Z" fill="#474747"/>
<path d="M627.354 37.7395C624.147 37.7395 621.484 36.6508 619.365 34.4734C617.276 32.2371 616.232 29.4859 616.232 26.2198C616.232 22.8948 617.276 20.1436 619.365 17.9662C621.484 15.7888 624.147 14.7001 627.354 14.7001C629.561 14.7001 631.488 15.2591 633.136 16.3773C634.784 17.466 636.02 18.9813 636.844 20.9234L633.136 22.4681C631.989 19.7611 629.973 18.4076 627.089 18.4076C625.236 18.4076 623.632 19.1579 622.278 20.6585C620.954 22.1592 620.292 24.0129 620.292 26.2198C620.292 28.4266 620.954 30.2804 622.278 31.781C623.632 33.2817 625.236 34.032 627.089 34.032C630.061 34.032 632.15 32.6785 633.357 29.9714L636.976 31.5162C636.181 33.4582 634.931 34.9883 633.224 36.1064C631.547 37.1951 629.59 37.7395 627.354 37.7395Z" fill="#474747"/>
<path d="M591.534 26.2198C591.534 22.8948 592.579 20.1436 594.668 17.9662C596.786 15.7888 599.449 14.7001 602.657 14.7001C605.864 14.7001 608.512 15.7888 610.601 17.9662C612.72 20.1436 613.779 22.8948 613.779 26.2198C613.779 29.5742 612.72 32.3253 610.601 34.4733C608.512 36.6508 605.864 37.7395 602.657 37.7395C599.449 37.7395 596.786 36.6508 594.668 34.4733C592.579 32.2959 591.534 29.5447 591.534 26.2198ZM595.595 26.2198C595.595 28.5443 596.272 30.4275 597.625 31.8693C598.979 33.3111 600.656 34.032 602.657 34.032C604.658 34.032 606.335 33.3111 607.688 31.8693C609.042 30.4275 609.719 28.5443 609.719 26.2198C609.719 23.9246 609.042 22.0562 607.688 20.6144C606.305 19.1432 604.628 18.4075 602.657 18.4075C600.685 18.4075 599.008 19.1432 597.625 20.6144C596.272 22.0562 595.595 23.9246 595.595 26.2198ZM607.423 5.43134L604.246 11.0808H600.715L603.01 5.43134H607.423Z" fill="#474747"/>
<path d="M577.265 34.032C579.266 34.032 580.899 33.3111 582.164 31.8693C583.488 30.4275 584.15 28.5443 584.15 26.2198C584.15 23.9541 583.488 22.0856 582.164 20.6144C580.869 19.1432 579.236 18.4076 577.265 18.4076C575.323 18.4076 573.69 19.1432 572.366 20.6144C571.042 22.0856 570.38 23.9541 570.38 26.2198C570.38 28.5149 571.042 30.3833 572.366 31.8251C573.69 33.2964 575.323 34.032 577.265 34.032ZM577.132 47.273C575.926 47.273 574.793 47.1112 573.734 46.7875C572.675 46.4933 571.704 46.0666 570.821 45.5075C569.968 44.9485 569.232 44.2864 568.614 43.5214C567.996 42.7564 567.525 41.903 567.202 40.9615L571.042 39.3725C571.483 40.6378 572.248 41.6529 573.337 42.418C574.425 43.183 575.691 43.5655 577.132 43.5655C579.339 43.5655 581.061 42.9035 582.296 41.5794C583.532 40.2553 584.15 38.4309 584.15 36.1064V34.032H583.974C583.209 35.1795 582.164 36.0917 580.84 36.7685C579.545 37.4158 578.133 37.7395 576.603 37.7395C573.778 37.7395 571.351 36.6361 569.32 34.4292C567.319 32.1635 566.319 29.427 566.319 26.2198C566.319 23.0125 567.319 20.2907 569.32 18.0545C571.351 15.8182 573.778 14.7001 576.603 14.7001C578.133 14.7001 579.545 15.0385 580.84 15.7152C582.164 16.3626 583.209 17.26 583.974 18.4076H584.15V15.4063H588.034V36.1064C588.034 39.5785 587.049 42.3003 585.077 44.2717C583.076 46.2726 580.428 47.273 577.132 47.273Z" fill="#474747"/>
<path d="M553.387 37.7395C550.209 37.7395 547.59 36.6508 545.53 34.4734C543.471 32.2959 542.441 29.5447 542.441 26.2198C542.441 22.9242 543.441 20.1877 545.442 18.0103C547.443 15.8035 550.003 14.7001 553.122 14.7001C556.329 14.7001 558.874 15.7446 560.757 17.8338C562.67 19.8935 563.626 22.7918 563.626 26.5287L563.582 26.9701H546.59C546.648 29.0887 547.355 30.7953 548.708 32.09C550.062 33.3846 551.68 34.032 553.563 34.032C556.153 34.032 558.183 32.7373 559.654 30.1479L563.273 31.9134C562.302 33.7377 560.949 35.1648 559.213 36.1947C557.506 37.2245 555.564 37.7395 553.387 37.7395ZM546.898 23.6157H559.301C559.183 22.1151 558.565 20.8792 557.447 19.9082C556.358 18.9078 554.887 18.4076 553.033 18.4076C551.503 18.4076 550.179 18.8784 549.061 19.8199C547.972 20.7615 547.252 22.0268 546.898 23.6157Z" fill="#474747"/>
<path d="M519.754 15.4063H523.638V18.4076H523.815C524.432 17.3483 525.374 16.4655 526.639 15.7594C527.934 15.0532 529.273 14.7001 530.656 14.7001C533.304 14.7001 535.334 15.4651 536.747 16.9952C538.188 18.4958 538.909 20.6438 538.909 23.4392V37.0333H534.849V23.704C534.76 20.173 532.98 18.4076 529.508 18.4076C527.89 18.4076 526.536 19.0696 525.448 20.3937C524.359 21.6884 523.815 23.2479 523.815 25.0722V37.0333H519.754V15.4063Z" fill="#474747"/>
<path d="M505.114 37.0333H501.23V34.032H501.053C500.435 35.0913 499.479 35.9741 498.184 36.6802C496.919 37.3864 495.595 37.7395 494.212 37.7395C491.564 37.7395 489.519 36.9892 488.077 35.4885C486.665 33.9585 485.958 31.7958 485.958 29.0004V15.4063H490.019V28.7356C490.107 32.2666 491.887 34.032 495.359 34.032C496.978 34.032 498.331 33.3847 499.42 32.09C500.509 30.7659 501.053 29.1917 501.053 27.3674V15.4063H505.114V37.0333Z" fill="#474747"/>
<path d="M472.182 37.7395C469.004 37.7395 466.385 36.6508 464.325 34.4734C462.266 32.2959 461.236 29.5447 461.236 26.2198C461.236 22.9242 462.236 20.1877 464.237 18.0103C466.238 15.8035 468.798 14.7001 471.917 14.7001C475.124 14.7001 477.669 15.7446 479.553 17.8338C481.465 19.8935 482.422 22.7918 482.422 26.5287L482.377 26.9701H465.385C465.444 29.0887 466.15 30.7953 467.503 32.09C468.857 33.3846 470.475 34.032 472.358 34.032C474.948 34.032 476.978 32.7373 478.449 30.1479L482.068 31.9134C481.097 33.7377 479.744 35.1648 478.008 36.1947C476.301 37.2245 474.359 37.7395 472.182 37.7395ZM465.694 23.6157H478.096C477.978 22.1151 477.36 20.8792 476.242 19.9082C475.154 18.9078 473.682 18.4076 471.829 18.4076C470.299 18.4076 468.974 18.8784 467.856 19.8199C466.768 20.7615 466.047 22.0268 465.694 23.6157Z" fill="#474747"/>
<path d="M458.722 31.0307C458.722 32.9139 457.898 34.5028 456.25 35.7975C454.602 37.0921 452.528 37.7395 450.027 37.7395C447.849 37.7395 445.937 37.1804 444.289 36.0623C442.641 34.9147 441.464 33.4141 440.758 31.5603L444.377 30.0155C444.907 31.3102 445.672 32.3254 446.672 33.061C447.702 33.7672 448.82 34.1203 450.027 34.1203C451.321 34.1203 452.395 33.8407 453.249 33.2817C454.131 32.7226 454.573 32.0605 454.573 31.2955C454.573 29.9125 453.513 28.8974 451.395 28.2501L447.687 27.3232C443.48 26.2639 441.376 24.2336 441.376 21.2323C441.376 19.2609 442.17 17.6867 443.759 16.5097C445.378 15.3033 447.437 14.7001 449.938 14.7001C451.851 14.7001 453.572 15.1562 455.102 16.0683C456.662 16.9805 457.751 18.2016 458.369 19.7317L454.749 21.2323C454.337 20.3202 453.661 19.614 452.719 19.1138C451.807 18.5841 450.777 18.3193 449.629 18.3193C448.57 18.3193 447.614 18.5841 446.761 19.1138C445.937 19.6434 445.525 20.2907 445.525 21.0558C445.525 22.2916 446.687 23.1743 449.012 23.704L452.278 24.5426C456.574 25.6019 458.722 27.7646 458.722 31.0307Z" fill="#474747"/>
<path d="M428.938 31.0307C428.938 32.9139 428.114 34.5028 426.466 35.7975C424.818 37.0921 422.744 37.7395 420.243 37.7395C418.065 37.7395 416.153 37.1804 414.505 36.0623C412.857 34.9147 411.68 33.4141 410.974 31.5603L414.593 30.0155C415.123 31.3102 415.888 32.3254 416.888 33.061C417.918 33.7672 419.036 34.1203 420.243 34.1203C421.537 34.1203 422.611 33.8407 423.465 33.2817C424.347 32.7226 424.789 32.0605 424.789 31.2955C424.789 29.9125 423.73 28.8974 421.611 28.2501L417.903 27.3232C413.696 26.2639 411.592 24.2336 411.592 21.2323C411.592 19.2609 412.386 17.6867 413.975 16.5097C415.594 15.3033 417.653 14.7001 420.154 14.7001C422.067 14.7001 423.788 15.1562 425.318 16.0683C426.878 16.9805 427.967 18.2016 428.585 19.7317L424.965 21.2323C424.553 20.3202 423.877 19.614 422.935 19.1138C422.023 18.5841 420.993 18.3193 419.845 18.3193C418.786 18.3193 417.83 18.5841 416.977 19.1138C416.153 19.6434 415.741 20.2907 415.741 21.0558C415.741 22.2916 416.903 23.1743 419.228 23.704L422.494 24.5426C426.79 25.6019 428.938 27.7646 428.938 31.0307Z" fill="#474747"/>
<path d="M407.941 7.9472C407.941 8.74166 407.661 9.41842 407.102 9.97749C406.543 10.5366 405.866 10.8161 405.072 10.8161C404.277 10.8161 403.6 10.5366 403.041 9.97749C402.482 9.41842 402.203 8.74166 402.203 7.9472C402.203 7.15274 402.482 6.47597 403.041 5.91691C403.6 5.35784 404.277 5.07831 405.072 5.07831C405.866 5.07831 406.543 5.35784 407.102 5.91691C407.661 6.47597 407.941 7.15274 407.941 7.9472ZM407.102 15.4063V37.0333H403.041V15.4063H407.102Z" fill="#474747"/>
<path d="M383.146 30.4128C383.146 31.472 383.588 32.3548 384.471 33.061C385.383 33.7672 386.442 34.1203 387.648 34.1203C389.355 34.1203 390.87 33.4876 392.194 32.2224C393.548 30.9571 394.225 29.4712 394.225 27.7646C392.959 26.7641 391.194 26.2639 388.928 26.2639C387.281 26.2639 385.898 26.6611 384.779 27.4556C383.691 28.2501 383.146 29.2358 383.146 30.4128ZM388.399 14.7001C391.4 14.7001 393.769 15.5092 395.505 17.1276C397.241 18.7165 398.109 20.9086 398.109 23.704V37.0333H394.225V34.032H394.048C392.371 36.5036 390.135 37.7395 387.339 37.7395C384.956 37.7395 382.955 37.0333 381.337 35.6209C379.748 34.2085 378.953 32.4431 378.953 30.3245C378.953 28.0882 379.792 26.308 381.469 24.9839C383.176 23.6598 385.442 22.9978 388.266 22.9978C390.679 22.9978 392.665 23.4392 394.225 24.3219V23.395C394.225 21.9826 393.666 20.7909 392.548 19.8199C391.429 18.8195 390.12 18.3193 388.619 18.3193C386.354 18.3193 384.559 19.2756 383.235 21.1882L379.66 18.9372C381.631 16.1124 384.544 14.7001 388.399 14.7001Z" fill="#474747"/>
<path d="M346.88 37.0333H342.819V15.4063H346.703V18.4076H346.88C347.498 17.3483 348.439 16.4655 349.704 15.7594C350.999 15.0532 352.279 14.7001 353.544 14.7001C355.133 14.7001 356.531 15.0679 357.737 15.8035C358.944 16.5391 359.826 17.5543 360.386 18.8489C362.18 16.083 364.667 14.7001 367.845 14.7001C370.346 14.7001 372.273 15.4651 373.627 16.9952C374.98 18.5253 375.657 20.7027 375.657 23.5274V37.0333H371.596V24.1453C371.596 22.1151 371.228 20.6585 370.493 19.7758C369.757 18.8636 368.521 18.4076 366.785 18.4076C365.226 18.4076 363.916 19.0696 362.857 20.3937C361.798 21.7178 361.268 23.2773 361.268 25.0722V37.0333H357.208V24.1453C357.208 22.1151 356.84 20.6585 356.104 19.7758C355.369 18.8636 354.133 18.4076 352.397 18.4076C350.837 18.4076 349.528 19.0696 348.469 20.3937C347.409 21.7178 346.88 23.2773 346.88 25.0722V37.0333Z" fill="#474747"/>
<path d="M313.579 30.4128C313.579 31.472 314.021 32.3548 314.903 33.061C315.815 33.7672 316.875 34.1203 318.081 34.1203C319.788 34.1203 321.303 33.4876 322.627 32.2224C323.981 30.9571 324.657 29.4712 324.657 27.7646C323.392 26.7641 321.627 26.2639 319.361 26.2639C317.713 26.2639 316.33 26.6611 315.212 27.4556C314.124 28.2501 313.579 29.2358 313.579 30.4128ZM318.831 14.7001C321.833 14.7001 324.201 15.5092 325.937 17.1276C327.674 18.7165 328.542 20.9086 328.542 23.704V37.0333H324.657V34.032H324.481C322.804 36.5036 320.567 37.7395 317.772 37.7395C315.389 37.7395 313.388 37.0333 311.77 35.6209C310.181 34.2085 309.386 32.4431 309.386 30.3245C309.386 28.0882 310.225 26.308 311.902 24.9839C313.609 23.6598 315.874 22.9978 318.699 22.9978C321.112 22.9978 323.098 23.4392 324.657 24.3219V23.395C324.657 21.9826 324.098 20.7909 322.98 19.8199C321.862 18.8195 320.553 18.3193 319.052 18.3193C316.786 18.3193 314.992 19.2756 313.667 21.1882L310.092 18.9372C312.064 16.1124 314.977 14.7001 318.831 14.7001Z" fill="#474747"/>
<path d="M295.118 34.032C297.118 34.032 298.751 33.3111 300.017 31.8693C301.341 30.4275 302.003 28.5443 302.003 26.2198C302.003 23.9541 301.341 22.0856 300.017 20.6144C298.722 19.1432 297.089 18.4075 295.118 18.4075C293.175 18.4075 291.542 19.1432 290.218 20.6144C288.894 22.0856 288.232 23.9541 288.232 26.2198C288.232 28.5149 288.894 30.3833 290.218 31.8251C291.542 33.2964 293.175 34.032 295.118 34.032ZM294.455 37.7395C291.631 37.7395 289.203 36.6213 287.173 34.3851C285.172 32.1194 284.172 29.3976 284.172 26.2198C284.172 23.0419 285.172 20.3201 287.173 18.0545C289.203 15.8182 291.631 14.7001 294.455 14.7001C296.044 14.7001 297.486 15.0384 298.781 15.7152C300.105 16.392 301.12 17.2894 301.826 18.4075H302.003L301.826 15.4062V5.43134H305.887V37.0333H302.003V34.032H301.826C301.12 35.1501 300.105 36.0475 298.781 36.7243C297.486 37.4011 296.044 37.7395 294.455 37.7395Z" fill="#474747"/>
<path d="M261.485 15.4063H265.369V18.4076H265.545C266.163 17.3483 267.105 16.4655 268.37 15.7594C269.665 15.0532 271.004 14.7001 272.387 14.7001C275.035 14.7001 277.065 15.4651 278.478 16.9952C279.919 18.4958 280.64 20.6438 280.64 23.4392V37.0333H276.58V23.704C276.491 20.173 274.711 18.4076 271.239 18.4076C269.621 18.4076 268.267 19.0696 267.179 20.3937C266.09 21.6884 265.545 23.2479 265.545 25.0722V37.0333H261.485V15.4063Z" fill="#474747"/>
<path d="M257.04 7.9472C257.04 8.74166 256.76 9.41842 256.201 9.97749C255.642 10.5366 254.965 10.8161 254.171 10.8161C253.376 10.8161 252.699 10.5366 252.14 9.97749C251.581 9.41842 251.302 8.74166 251.302 7.9472C251.302 7.15274 251.581 6.47597 252.14 5.91691C252.699 5.35784 253.376 5.07831 254.171 5.07831C254.965 5.07831 255.642 5.35784 256.201 5.91691C256.76 6.47597 257.04 7.15274 257.04 7.9472ZM256.201 15.4063V37.0333H252.14V15.4063H256.201Z" fill="#474747"/>
<path d="M232.245 30.4128C232.245 31.472 232.687 32.3548 233.57 33.061C234.482 33.7672 235.541 34.1203 236.747 34.1203C238.454 34.1203 239.969 33.4876 241.294 32.2224C242.647 30.9571 243.324 29.4712 243.324 27.7646C242.059 26.7641 240.293 26.2639 238.027 26.2639C236.38 26.2639 234.997 26.6611 233.879 27.4556C232.79 28.2501 232.245 29.2358 232.245 30.4128ZM237.498 14.7001C240.499 14.7001 242.868 15.5092 244.604 17.1276C246.34 18.7165 247.208 20.9086 247.208 23.704V37.0333H243.324V34.032H243.147C241.47 36.5036 239.234 37.7395 236.438 37.7395C234.055 37.7395 232.054 37.0333 230.436 35.6209C228.847 34.2085 228.052 32.4431 228.052 30.3245C228.052 28.0882 228.891 26.308 230.568 24.9839C232.275 23.6598 234.541 22.9978 237.365 22.9978C239.778 22.9978 241.764 23.4392 243.324 24.3219V23.395C243.324 21.9826 242.765 20.7909 241.647 19.8199C240.528 18.8195 239.219 18.3193 237.718 18.3193C235.453 18.3193 233.658 19.2756 232.334 21.1882L228.759 18.9372C230.73 16.1124 233.643 14.7001 237.498 14.7001Z" fill="#474747"/>
<path d="M215.544 31.8251C214.544 33.5906 213.19 35.0177 211.484 36.1064C209.807 37.1951 207.747 37.7395 205.305 37.7395C203.657 37.7395 202.127 37.4599 200.714 36.9009C199.331 36.3124 198.125 35.5032 197.095 34.4734C196.065 33.4435 195.256 32.2371 194.668 30.8541C194.109 29.4418 193.829 27.897 193.829 26.2198C193.829 24.6603 194.109 23.189 194.668 21.8061C195.227 20.3937 196.007 19.1726 197.007 18.1427C198.007 17.0835 199.184 16.2449 200.538 15.6269C201.921 15.009 203.436 14.7001 205.084 14.7001C206.82 14.7001 208.365 14.9943 209.718 15.5828C211.072 16.1419 212.205 16.9363 213.117 17.9662C214.029 18.9666 214.721 20.1583 215.191 21.5413C215.662 22.9242 215.897 24.4249 215.897 26.0432C215.897 26.2492 215.897 26.4257 215.897 26.5729C215.868 26.7494 215.853 26.9112 215.853 27.0584C215.824 27.2055 215.809 27.3673 215.809 27.5439H199.523C199.64 28.4266 199.876 29.1916 200.229 29.839C200.611 30.4569 201.068 30.9865 201.597 31.4279C202.156 31.8399 202.759 32.1488 203.407 32.3548C204.054 32.5313 204.716 32.6196 205.393 32.6196C206.717 32.6196 207.806 32.3254 208.659 31.7369C209.542 31.119 210.233 30.3539 210.733 29.4418L215.544 31.8251ZM210.292 23.4392C210.263 23.0566 210.13 22.63 209.895 22.1592C209.689 21.6884 209.365 21.247 208.924 20.8351C208.512 20.4231 207.982 20.0848 207.335 19.8199C206.717 19.5551 205.967 19.4227 205.084 19.4227C203.848 19.4227 202.759 19.7758 201.818 20.482C200.876 21.1882 200.214 22.1739 199.832 23.4392H210.292Z" fill="#474747"/>
<path d="M175.149 18.231H175.502C176.179 17.1423 177.091 16.289 178.239 15.6711C179.386 15.0237 180.696 14.7001 182.167 14.7001C183.521 14.7001 184.712 14.9208 185.742 15.3621C186.772 15.8035 187.611 16.4361 188.258 17.26C188.935 18.0545 189.435 19.0255 189.759 20.173C190.112 21.2912 190.288 22.5417 190.288 23.9247V37.0333H184.506V24.6308C184.506 23.0713 184.153 21.9238 183.447 21.1882C182.77 20.4231 181.77 20.0406 180.446 20.0406C179.651 20.0406 178.945 20.2172 178.327 20.5703C177.739 20.8939 177.224 21.35 176.782 21.9385C176.37 22.4976 176.047 23.1743 175.811 23.9688C175.605 24.7338 175.502 25.5577 175.502 26.4405V37.0333H169.72V15.4063H175.149V18.231Z" fill="#474747"/>
<path d="M154.961 14.7001C156.638 14.7001 158.169 14.9943 159.552 15.5828C160.964 16.1419 162.17 16.9363 163.171 17.9662C164.201 18.9666 164.995 20.173 165.554 21.5854C166.143 22.9978 166.437 24.5426 166.437 26.2198C166.437 27.897 166.143 29.4418 165.554 30.8541C164.995 32.2665 164.201 33.4876 163.171 34.5175C162.17 35.5179 160.964 36.3124 159.552 36.9009C158.169 37.4599 156.638 37.7395 154.961 37.7395C153.284 37.7395 151.739 37.4599 150.327 36.9009C148.944 36.3124 147.738 35.5179 146.708 34.5175C145.707 33.4876 144.913 32.2665 144.324 30.8541C143.765 29.4418 143.486 27.897 143.486 26.2198C143.486 24.5426 143.765 22.9978 144.324 21.5854C144.913 20.173 145.707 18.9666 146.708 17.9662C147.738 16.9363 148.944 16.1419 150.327 15.5828C151.739 14.9943 153.284 14.7001 154.961 14.7001ZM154.961 32.3989C155.697 32.3989 156.403 32.2665 157.08 32.0017C157.786 31.7074 158.404 31.2955 158.934 30.7659C159.463 30.2362 159.875 29.5889 160.169 28.8238C160.493 28.0588 160.655 27.1908 160.655 26.2198C160.655 25.2488 160.493 24.3807 160.169 23.6157C159.875 22.8507 159.463 22.2033 158.934 21.6737C158.404 21.144 157.786 20.7468 157.08 20.482C156.403 20.1877 155.697 20.0406 154.961 20.0406C154.196 20.0406 153.475 20.1877 152.799 20.482C152.122 20.7468 151.519 21.144 150.989 21.6737C150.459 22.2033 150.033 22.8507 149.709 23.6157C149.415 24.3807 149.268 25.2488 149.268 26.2198C149.268 27.1908 149.415 28.0588 149.709 28.8238C150.033 29.5889 150.459 30.2362 150.989 30.7659C151.519 31.2955 152.122 31.7074 152.799 32.0017C153.475 32.2665 154.196 32.3989 154.961 32.3989Z" fill="#474747"/>
<path d="M136.736 12.2725C136.236 12.2725 135.75 12.1842 135.28 12.0077C134.838 11.8017 134.441 11.5369 134.088 11.2132C133.764 10.8601 133.499 10.4629 133.293 10.0215C133.117 9.58018 133.029 9.09468 133.029 8.56503C133.029 8.03539 133.117 7.54989 133.293 7.10852C133.499 6.66715 133.764 6.28463 134.088 5.96096C134.441 5.60787 134.838 5.34305 135.28 5.1665C135.75 4.96053 136.236 4.85754 136.736 4.85754C137.766 4.85754 138.649 5.22535 139.384 5.96096C140.12 6.66715 140.488 7.53518 140.488 8.56503C140.488 9.59489 140.12 10.4776 139.384 11.2132C138.649 11.9194 137.766 12.2725 136.736 12.2725ZM133.867 37.0333V15.4062H139.649V37.0333H133.867Z" fill="#474747"/>
<path d="M120.957 37.7395C119.545 37.7395 118.279 37.5629 117.161 37.2098C116.073 36.8567 115.116 36.4007 114.292 35.8416C113.498 35.2531 112.821 34.591 112.262 33.8554C111.703 33.0904 111.276 32.3254 110.982 31.5603L116.146 29.3535C116.646 30.4716 117.308 31.3102 118.132 31.8693C118.986 32.3989 119.927 32.6637 120.957 32.6637C122.016 32.6637 122.855 32.4725 123.473 32.09C124.091 31.7074 124.4 31.2514 124.4 30.7217C124.4 30.1332 124.135 29.6624 123.605 29.3093C123.105 28.9268 122.222 28.5884 120.957 28.2942L117.912 27.6322C117.235 27.485 116.529 27.2496 115.793 26.926C115.087 26.6023 114.439 26.1903 113.851 25.6901C113.263 25.1899 112.777 24.5867 112.394 23.8805C112.012 23.1743 111.821 22.3504 111.821 21.4089C111.821 20.3496 112.041 19.408 112.483 18.5841C112.954 17.7602 113.586 17.0687 114.381 16.5097C115.175 15.9212 116.102 15.4798 117.161 15.1856C118.25 14.8619 119.412 14.7001 120.648 14.7001C122.708 14.7001 124.547 15.112 126.165 15.9359C127.784 16.7304 128.975 18.0103 129.74 19.7758L124.753 21.8061C124.341 20.9528 123.738 20.3349 122.943 19.9524C122.149 19.5698 121.354 19.3786 120.56 19.3786C119.736 19.3786 119.015 19.5551 118.397 19.9082C117.779 20.2319 117.47 20.6585 117.47 21.1882C117.47 21.6884 117.72 22.0856 118.221 22.3799C118.75 22.6741 119.456 22.9389 120.339 23.1743L123.649 23.9688C125.856 24.4984 127.489 25.3517 128.549 26.5287C129.637 27.6763 130.182 29.0445 130.182 30.6335C130.182 31.575 129.961 32.4725 129.52 33.3258C129.078 34.1791 128.446 34.9441 127.622 35.6209C126.827 36.2682 125.856 36.7832 124.709 37.1657C123.591 37.5482 122.34 37.7395 120.957 37.7395Z" fill="#474747"/>
<path d="M101.877 37.0333V5.43134H107.659V37.0333H101.877Z" fill="#474747"/>
<path d="M91.496 34.2086H91.1429C90.4661 35.2973 89.5539 36.1653 88.4064 36.8126C87.2588 37.4306 85.9494 37.7395 84.4782 37.7395C81.7417 37.7395 79.6967 36.9009 78.3432 35.2237C77.0191 33.5465 76.3571 31.3103 76.3571 28.5149V15.4063H82.139V27.8087C82.139 29.3682 82.4774 30.5305 83.1541 31.2956C83.8603 32.0312 84.8755 32.399 86.1996 32.399C86.994 32.399 87.6855 32.2371 88.274 31.9135C88.8919 31.5604 89.4068 31.1043 89.8188 30.5452C90.2601 29.9567 90.5838 29.28 90.7898 28.5149C91.0252 27.7205 91.1429 26.8819 91.1429 25.9991V15.4063H96.9248V37.0333H91.496V34.2086Z" fill="#474747"/>
<path d="M50.28 15.4063H55.7089V18.0103H56.0619C56.5916 17.0982 57.4155 16.3184 58.5336 15.6711C59.6517 15.0237 61.0347 14.7001 62.6825 14.7001C64.0654 14.7001 65.3748 14.9943 66.6106 15.5828C67.8759 16.1419 68.9793 16.9363 69.9209 17.9662C70.8919 18.9666 71.6569 20.173 72.216 21.5854C72.7751 22.9978 73.0546 24.5426 73.0546 26.2198C73.0546 27.897 72.7751 29.4418 72.216 30.8541C71.6569 32.2665 70.8919 33.4876 69.9209 34.5175C68.9793 35.5179 67.8759 36.3124 66.6106 36.9009C65.3748 37.4599 64.0654 37.7395 62.6825 37.7395C61.0347 37.7395 59.6517 37.4158 58.5336 36.7685C57.4155 36.1211 56.5916 35.3414 56.0619 34.4292H55.7089L56.0619 37.5188V46.5668H50.28V15.4063ZM61.4908 32.3989C62.2558 32.3989 62.9767 32.2518 63.6535 31.9576C64.3597 31.6633 64.9776 31.2514 65.5072 30.7217C66.0369 30.1921 66.4635 29.5447 66.7872 28.7797C67.1108 28.0147 67.2727 27.1614 67.2727 26.2198C67.2727 25.2782 67.1108 24.4249 66.7872 23.6598C66.4635 22.8948 66.0369 22.2475 65.5072 21.7178C64.9776 21.1882 64.3597 20.7762 63.6535 20.482C62.9767 20.1877 62.2558 20.0406 61.4908 20.0406C60.7257 20.0406 59.9901 20.1877 59.2839 20.482C58.6072 20.7468 58.004 21.144 57.4743 21.6737C56.9447 22.2033 56.518 22.8507 56.1944 23.6157C55.8707 24.3807 55.7089 25.2488 55.7089 26.2198C55.7089 27.1908 55.8707 28.0588 56.1944 28.8238C56.518 29.5889 56.9447 30.2362 57.4743 30.7659C58.004 31.2955 58.6072 31.7074 59.2839 32.0017C59.9901 32.2665 60.7257 32.3989 61.4908 32.3989Z" fill="#474747"/>
<path d="M11.6208 15.4063H17.0497V18.231H17.4028C18.0795 17.1717 18.9917 16.3184 20.1392 15.6711C21.3162 15.0237 22.6109 14.7001 24.0233 14.7001C25.6711 14.7001 27.054 15.0826 28.1721 15.8476C29.2903 16.6127 30.0847 17.5543 30.5555 18.6724C31.2323 17.5837 32.1886 16.6568 33.4244 15.8918C34.6602 15.0973 36.1609 14.7001 37.9264 14.7001C39.2505 14.7001 40.398 14.9208 41.369 15.3621C42.34 15.7741 43.1345 16.3626 43.7524 17.1276C44.3998 17.8926 44.8853 18.8195 45.2089 19.9082C45.5326 20.9675 45.6944 22.1298 45.6944 23.395V37.0333H39.9125V24.4543C39.9125 21.5118 38.7061 20.0406 36.2933 20.0406C35.5283 20.0406 34.8515 20.2172 34.263 20.5703C33.6745 20.8939 33.1743 21.35 32.7624 21.9385C32.3798 22.4976 32.0709 23.1743 31.8355 23.9688C31.6295 24.7633 31.5265 25.6166 31.5265 26.5287V37.0333H25.7446V24.4543C25.7446 21.5118 24.4794 20.0406 21.9489 20.0406C21.2132 20.0406 20.5659 20.2172 20.0068 20.5703C19.4478 20.8939 18.977 21.35 18.5945 21.9385C18.2119 22.4976 17.9177 23.1743 17.7117 23.9688C17.5058 24.7633 17.4028 25.6166 17.4028 26.5287V37.0333H11.6208V15.4063Z" fill="#474747"/>
<path d="M0 5.43134H5.95846V37.0333H0V5.43134Z" fill="#474747"/>
<path fill-rule="evenodd" clip-rule="evenodd" d="M910.006 0.0310853C909.468 0.166803 909.347 0.345066 908.57 2.14737C907.861 3.79249 907.746 3.98195 907.357 4.14963C907.241 4.19999 906.921 4.28398 906.646 4.33623C906.197 4.42163 905.481 4.56907 904.294 4.82044C903.722 4.94163 903.139 4.98887 902.8 4.94149C902.311 4.87295 902.156 4.7645 901.226 3.83977C900.316 2.9355 899.971 2.67044 899.526 2.53138C898.69 2.27044 897.878 2.55092 896.479 3.58437C896.046 3.90423 895.465 4.31463 895.188 4.49645C892.769 6.08602 891.504 6.97286 891.266 7.24737C891.064 7.47999 890.864 7.90343 890.815 8.20257C890.732 8.70847 890.865 9.21437 891.382 10.3698C891.835 11.3804 891.886 11.5563 891.886 12.1261C891.886 12.5896 891.88 12.6206 891.737 12.8945C891.587 13.1841 891.352 13.548 890.705 14.4971C890.507 14.7869 890.201 15.271 890.026 15.5728C889.85 15.8747 889.656 16.1872 889.596 16.2673C889.318 16.6367 888.884 16.7134 886.855 16.7524C885.432 16.7797 885.309 16.7882 885.125 16.8732C884.794 17.0256 884.609 17.2992 884.411 17.93C884.249 18.4489 884.22 18.5815 883.55 21.9316C882.771 25.8291 882.721 26.193 882.876 26.7929C883.03 27.3914 883.347 27.6301 884.827 28.2646C885.842 28.6993 886.115 28.8574 886.491 29.2286C887.084 29.8145 887.232 30.2415 887.575 32.3674C887.771 33.5829 887.781 33.7726 887.671 34.1931C887.53 34.7371 887.237 35.1102 886.232 36.0251C885.731 36.4822 885.43 36.8625 885.272 37.2381C885.069 37.7214 885.134 38.0617 885.608 38.9973C886.247 40.2597 887.232 41.7984 888.754 43.9144C889.41 44.8262 889.885 45.4287 890.218 45.7715C890.52 46.0831 890.739 46.1762 891.169 46.1762C891.647 46.1762 891.987 46.0612 893.291 45.4581C894.028 45.1179 894.404 45.0198 894.887 45.0429C895.232 45.0595 895.301 45.0786 895.625 45.2481C896.299 45.6011 897.254 46.2122 897.857 46.6755C898.56 47.2158 899.039 47.7232 899.263 48.1649C899.423 48.4794 899.485 49.2305 899.452 50.4808C899.42 51.7244 899.429 51.7877 899.692 52.0571C900.061 52.4357 901.192 52.7653 903.829 53.2623C904.406 53.3712 905.608 53.599 906.5 53.7685C908.423 54.1341 908.783 54.181 909.201 54.1215C910.009 54.0065 910.324 53.6449 910.826 52.2573C911.126 51.4294 911.475 50.7384 911.7 50.5309C912.333 49.945 914.023 49.389 915.734 49.2042C916.112 49.1634 916.256 49.1634 916.379 49.2042C916.868 49.3662 917.882 50.4049 918.974 51.8622C919.426 52.4659 920.152 53.4242 920.587 53.9917C921.31 54.9362 922.087 55.9602 925.719 60.7534C928.852 64.8888 929.809 66.117 930.138 66.425C932.112 68.2765 935.073 68.5221 937.317 67.0209C938.619 66.1503 939.483 64.8686 939.834 63.2889C939.929 62.8621 939.967 61.6713 939.902 61.179C939.844 60.7452 939.692 60.1869 939.499 59.6996C939.228 59.0144 939.159 58.9167 936.009 54.782C935.466 54.0696 934.62 52.9533 934.128 52.3012C933.636 51.6492 933.133 50.9873 933.008 50.8303C932.371 50.0244 930.47 47.4804 930.055 46.878C928.266 44.2833 927.473 42.6976 927.578 41.9247C927.623 41.5976 928.141 40.6256 928.8 39.634C929.713 38.2586 930.4 37.6535 931.201 37.5204C931.353 37.4952 932.077 37.4713 932.811 37.4672C933.99 37.4607 934.166 37.4506 934.32 37.381C934.929 37.1071 935.193 36.3832 935.759 33.4431C935.892 32.7548 936.153 31.4014 936.339 30.4354C936.663 28.7552 936.678 28.6516 936.68 28.0425C936.683 27.4219 936.679 27.3994 936.553 27.1489C936.314 26.6741 935.948 26.4367 934.889 26.0679C934.069 25.7824 933.524 25.5253 933.173 25.2584C932.946 25.0851 932.873 24.9945 932.727 24.7016C932.209 23.6629 931.782 21.6995 931.812 20.4969C931.826 19.9407 931.836 19.88 931.951 19.6506C932.15 19.2581 932.405 18.9659 933.131 18.3014C933.504 17.9597 933.883 17.5771 933.973 17.4511C934.349 16.9259 934.452 16.4793 934.32 15.9461C934.175 15.3617 933.802 14.7486 932.334 12.6791C931.591 11.6312 931.172 11.0005 930.8 10.3698C930.044 9.08862 929.635 8.60375 929.08 8.32946C928.386 7.98659 927.904 8.03919 926.548 8.60595C925.29 9.1313 925.149 9.17648 924.762 9.17823C924.262 9.18047 924.012 9.06386 922.771 8.25017C920.426 6.71289 920.273 6.59236 920.176 6.21006C920.15 6.10719 920.119 5.47967 920.107 4.81557C920.096 4.15147 920.064 3.44017 920.038 3.23491C919.956 2.60137 919.678 2.13925 919.182 1.80832C918.56 1.39427 917.877 1.22558 915.443 0.88552C914.998 0.823347 914.044 0.646445 913.322 0.492462C911.287 0.0584834 910.392 -0.0661253 910.006 0.0310853ZM988.37 8.33355C987.081 8.44103 985.986 9.38873 985.657 10.6822C985.572 11.0133 985.57 11.206 985.571 19.7401C985.572 29.4903 985.548 28.7672 985.895 29.4695C986.447 30.5873 987.425 31.2013 988.654 31.2028C990.109 31.2044 991.339 30.2559 991.727 28.8328C991.8 28.5638 991.804 28.0424 991.804 19.744C991.804 11.3638 991.8 10.9271 991.725 10.659C991.576 10.1337 991.204 9.49885 990.858 9.181C990.148 8.52893 989.337 8.25289 988.37 8.33355ZM908.531 10.7732C906.384 10.9349 904.106 11.5576 902.254 12.4886C900.453 13.3939 899.034 14.4276 897.68 15.8202C896.487 17.0463 895.673 18.1963 894.904 19.7389C894.072 21.4083 893.591 23.045 893.342 25.0568C893.252 25.7851 893.268 28.3516 893.367 29.0743C893.689 31.4246 894.422 33.5437 895.611 35.5613C896.807 37.5892 898.522 39.42 900.409 40.684C902.791 42.2786 905.458 43.1936 908.365 43.4136C909.22 43.4782 910.983 43.444 911.706 43.3487C915.516 42.8467 919.277 40.8168 921.842 37.8777C924.236 35.1339 925.567 31.9348 925.86 28.2181C925.921 27.4353 925.887 25.8969 925.791 25.1446C925.471 22.6309 924.519 20.0728 923.129 17.9877C921.486 15.5231 919.414 13.6764 916.842 12.3849C915.09 11.5047 913.078 10.954 911.008 10.7882C910.49 10.7468 909.002 10.7378 908.531 10.7732ZM908.488 15.8394C906.288 16.0581 904.141 16.905 902.385 18.246C901.791 18.6996 900.716 19.7872 900.252 20.4037C899.009 22.0566 898.245 23.9397 897.982 26.0008C897.89 26.7195 897.913 28.3367 898.025 29.0743C898.624 32.9954 901.198 36.3111 904.835 37.8479C906.589 38.5894 908.192 38.8914 910.041 38.8293C911.826 38.7693 913.413 38.3709 914.972 37.5912C915.843 37.1556 916.645 36.5704 917.435 35.7947C918.328 34.9174 918.693 34.1354 918.697 33.0918C918.7 32.0946 918.307 31.3512 917.417 30.6745C916.768 30.1809 916.196 29.998 915.4 30.03C914.587 30.0625 914.095 30.2831 912.942 31.1311C911.911 31.8891 911.427 32.151 910.708 32.3398C909.973 32.5328 909.028 32.5598 908.302 32.4083C907.123 32.1622 905.912 31.2786 905.107 30.0774C904.06 28.5131 903.902 26.9072 904.641 25.3248C905.217 24.0916 906.17 23.1078 907.328 22.5502C908.139 22.1602 908.949 22.0202 909.881 22.109C911.016 22.2172 911.732 22.5181 912.891 23.374C913.855 24.0861 914.304 24.3338 914.91 24.4896C915.686 24.6886 916.511 24.5266 917.237 24.0331C918.232 23.3572 918.702 22.5329 918.694 21.4784C918.686 20.4439 918.331 19.6536 917.501 18.8208C915.931 17.2467 913.965 16.3049 911.441 15.9187C910.778 15.8173 909.149 15.7735 908.488 15.8394ZM950.824 16.4947C948.43 16.6818 946.2 17.5848 944.411 19.092C943.009 20.2721 942.087 21.4633 941.271 23.1468C940.262 25.2292 939.944 27.5434 940.34 29.9305C940.672 31.9261 941.724 34.0816 943.127 35.6384C944.698 37.3808 946.702 38.6118 948.882 39.1721C949.778 39.4024 950.269 39.4654 951.36 39.4895C952.47 39.514 952.97 39.4644 953.893 39.238C954.776 39.0218 955.938 38.5261 956.816 37.9916C957.038 37.8565 957.237 37.746 957.257 37.746C957.278 37.746 957.357 37.8421 957.433 37.9595C957.648 38.2923 958.122 38.7128 958.491 38.8984C958.963 39.1354 959.301 39.2123 959.869 39.2123C960.42 39.2123 960.754 39.1387 961.233 38.9119C962.043 38.5279 962.612 37.8886 962.925 37.011L963.062 36.6264V31.7746C963.062 27.3053 963.056 26.8831 962.983 26.4179C962.775 25.0921 962.483 24.1318 961.949 23.013C960.251 19.4546 956.826 16.9911 952.957 16.544C952.372 16.4764 951.357 16.453 950.824 16.4947ZM978.002 16.8058C975.258 17.0754 972.715 18.2914 970.714 20.2915C968.746 22.2585 967.625 24.4919 967.209 27.2741C967.138 27.7546 967.131 28.1913 967.131 32.2356V36.6703L967.25 37.0224C967.475 37.689 967.875 38.2272 968.433 38.6145C969.675 39.4757 971.206 39.4158 972.322 38.4624C972.742 38.1036 972.988 37.7378 973.218 37.1313L973.342 36.802L973.37 32.4771C973.387 29.7735 973.414 28.07 973.442 27.9327C973.713 26.6241 974.179 25.7009 975.004 24.8434C975.489 24.3388 975.987 23.9724 976.597 23.6716C977.463 23.2444 978.008 23.1107 979.166 23.0416C979.736 23.0075 979.937 22.9772 980.216 22.8833C981.214 22.5474 981.967 21.8066 982.29 20.8417C982.36 20.6321 982.392 20.4105 982.407 20.0075C982.434 19.32 982.363 18.9519 982.095 18.3949C981.735 17.6468 981.089 17.1176 980.255 16.8887C979.973 16.8113 979.76 16.7899 979.161 16.7788C978.752 16.7712 978.231 16.7834 978.002 16.8058ZM950.767 22.8378C949.601 23.0504 948.476 23.7024 947.72 24.6039C947.155 25.2762 946.738 26.1214 946.565 26.9448C946.47 27.3949 946.458 28.4856 946.543 28.9206C947.067 31.5909 949.477 33.4296 952.122 33.178C954.007 32.9987 955.519 31.9132 956.342 30.1498C957.279 28.1421 956.809 25.7373 955.173 24.1689C954.466 23.4912 953.511 23.0067 952.552 22.8387C952.103 22.7603 951.195 22.7598 950.767 22.8378ZM988.011 32.7864C987.314 32.9581 986.645 33.4036 986.191 33.9981C985.989 34.2626 985.76 34.772 985.653 35.196C985.524 35.7113 985.55 36.4679 985.716 36.9785C986.105 38.1776 987.122 39.0216 988.393 39.2C989.94 39.4173 991.516 38.3202 991.917 36.746C992.02 36.3406 992.028 35.6497 991.935 35.2507C991.653 34.051 990.611 33.0118 989.441 32.763C989.025 32.6746 988.424 32.6844 988.011 32.7864Z" fill="#474747"/>
<path fill-rule="evenodd" clip-rule="evenodd" d="M814.407 8.12908C813.471 8.37773 812.751 8.95133 812.353 9.76529C811.967 10.5554 812.001 9.57398 812.001 19.8758C812.001 29.8669 811.986 29.2215 812.245 30.4136C812.695 32.4783 813.829 34.5373 815.367 36.0803C817.965 38.6883 821.533 39.8786 825.158 39.347C826.376 39.1685 827.335 38.8666 828.493 38.2973C831.957 36.5954 834.366 33.2015 834.838 29.3604C834.917 28.7104 834.929 27.3275 834.86 26.7034C834.711 25.3564 834.361 24.1637 833.746 22.9054C831.443 18.1975 826.373 15.6517 821.297 16.655C820.421 16.8282 819.221 17.2264 818.549 17.5667C818.351 17.667 818.271 17.6894 818.256 17.6487C818.245 17.6179 818.23 16.0219 818.224 14.102C818.21 10.1846 818.23 10.4398 817.874 9.71132C817.609 9.16951 817.102 8.66774 816.529 8.38023C816.298 8.26476 815.977 8.14344 815.807 8.10814C815.385 8.02028 814.782 8.02928 814.407 8.12908ZM869.97 16.4782C868.31 16.6061 866.762 17.1267 865.504 17.981C864.974 18.3408 864.174 19.1469 863.827 19.6711C862.992 20.9325 862.603 22.4653 862.727 24.0022C862.805 24.9624 863.037 25.6558 863.538 26.4285C864.366 27.7054 865.425 28.5433 867.45 29.5241C868.82 30.1875 869.153 30.3306 870.034 30.6347C872.134 31.3602 873.034 31.8481 873.12 32.3083C873.228 32.8887 872.448 33.3488 871.256 33.4069C869.957 33.4703 868.606 32.9378 867.45 31.9063C866.574 31.124 865.659 30.7408 864.651 30.7333C864.095 30.7292 863.763 30.806 863.254 31.0562C862.589 31.3837 862.082 32.0212 861.913 32.7456C861.806 33.2004 861.847 34.033 861.999 34.4862C862.633 36.3849 864.321 37.913 866.692 38.7348C868.094 39.2208 869.526 39.4541 871.103 39.4536C872.368 39.4532 873.138 39.3393 874.214 38.9939C876.779 38.1701 878.688 36.2107 879.246 33.8279C879.335 33.4502 879.362 33.1968 879.38 32.565C879.426 31.0477 879.161 30.0057 878.45 28.9102C877.613 27.6188 876.446 26.6891 874.669 25.8971C873.614 25.4272 872.593 25.084 870.668 24.5526C869.968 24.3596 869.341 24.0928 869.146 23.9053C868.917 23.6849 868.933 23.2931 869.184 23.0152C869.489 22.6765 869.953 22.5486 871.038 22.5047C872.161 22.4593 872.607 22.5426 873.914 23.042C875.109 23.4987 875.322 23.5586 875.762 23.56C876.237 23.5614 876.519 23.4924 877.009 23.2553C877.478 23.0283 877.778 22.7737 878.054 22.3683C878.842 21.2111 878.676 19.5794 877.66 18.4955C877.093 17.8906 876.324 17.4468 875.19 17.0697C873.663 16.5619 871.73 16.3428 869.97 16.4782ZM840.349 16.7621C839.539 16.957 839.154 17.1613 838.664 17.6555C838.253 18.0703 838.044 18.4186 837.87 18.9758L837.768 19.3051V24.2885C837.768 28.7817 837.775 29.3206 837.843 29.7659C838.238 32.355 839.317 34.4908 841.121 36.2551C843.167 38.2561 845.698 39.3489 848.552 39.4637C850.779 39.5533 852.88 38.9741 854.681 37.7735C855.894 36.9652 856.787 36.0727 857.585 34.8702C858.684 33.2146 859.323 31.426 859.531 29.4257C859.557 29.1779 859.575 27.0551 859.575 24.1968C859.576 19.553 859.573 19.3732 859.49 19.047C859.271 18.189 858.681 17.4488 857.914 17.071C857.43 16.8327 857.033 16.7382 856.514 16.7375C855.215 16.736 854.014 17.5571 853.529 18.7777C853.327 19.2872 853.323 19.3854 853.322 24.2019C853.32 28.8293 853.31 29.1515 853.148 29.786C852.648 31.7507 851.279 32.9783 849.39 33.1572C848.387 33.2521 847.498 33.0763 846.583 32.602C845.11 31.8385 844.221 30.5084 844.047 28.8052C844.019 28.5313 844.002 26.6523 844.002 23.876C844.002 20.0055 843.993 19.3534 843.935 19.1277C843.666 18.0682 842.895 17.2445 841.836 16.8866C841.55 16.7897 841.392 16.7659 840.961 16.7547C840.673 16.7472 840.397 16.7505 840.349 16.7621ZM822.413 22.8384C820.312 23.2954 818.687 24.9856 818.319 27.0986C818.238 27.559 818.248 28.4419 818.339 28.9125C818.612 30.3286 819.501 31.6186 820.742 32.4018C822.976 33.811 825.993 33.2553 827.578 31.1424C829.681 28.3388 828.55 24.2929 825.323 23.0716C824.703 22.837 824.425 22.7884 823.594 22.7701C822.932 22.7555 822.744 22.7663 822.413 22.8384Z" fill="#474747"/>
</svg>
