<svg width="39" height="39" viewBox="0 0 39 39" fill="none" xmlns="http://www.w3.org/2000/svg">
<path d="M22.6254 35.451C26.765 31.7119 34.1299 24.0728 34.1299 17.0625C34.1299 13.1837 32.6285 9.46378 29.9562 6.72106C27.2838 3.97834 23.6592 2.4375 19.8799 2.4375C16.1005 2.4375 12.476 3.97834 9.80361 6.72106C7.13122 9.46378 5.62988 13.1837 5.62988 17.0625C5.62988 24.0728 12.9924 31.7119 17.1344 35.451C17.8899 36.1431 18.8672 36.5256 19.8799 36.5256C20.8926 36.5256 21.8699 36.1431 22.6254 35.451ZM15.1299 17.0625C15.1299 15.7696 15.6303 14.5296 16.5211 13.6154C17.4119 12.7011 18.6201 12.1875 19.8799 12.1875C21.1397 12.1875 22.3478 12.7011 23.2386 13.6154C24.1294 14.5296 24.6299 15.7696 24.6299 17.0625C24.6299 18.3554 24.1294 19.5954 23.2386 20.5096C22.3478 21.4239 21.1397 21.9375 19.8799 21.9375C18.6201 21.9375 17.4119 21.4239 16.5211 20.5096C15.6303 19.5954 15.1299 18.3554 15.1299 17.0625Z" fill="#2F5830"/>
</svg>
