<svg width="34" height="35" viewBox="0 0 34 35" fill="none" xmlns="http://www.w3.org/2000/svg">
<path d="M26.9167 4.375C27.6681 4.375 28.3888 4.68229 28.9201 5.22927C29.4515 5.77625 29.75 6.51812 29.75 7.29167V27.7083C29.75 28.4819 29.4515 29.2237 28.9201 29.7707C28.3888 30.3177 27.6681 30.625 26.9167 30.625H7.08333C6.33189 30.625 5.61122 30.3177 5.07986 29.7707C4.54851 29.2237 4.25 28.4819 4.25 27.7083V7.29167C4.25 6.51812 4.54851 5.77625 5.07986 5.22927C5.61122 4.68229 6.33189 4.375 7.08333 4.375H26.9167ZM26.2083 26.9792V19.25C26.2083 17.9891 25.7218 16.7799 24.8557 15.8883C23.9895 14.9967 22.8149 14.4958 21.59 14.4958C20.3858 14.4958 18.9833 15.2542 18.3033 16.3917V14.7729H14.3508V26.9792H18.3033V19.7896C18.3033 18.6667 19.1817 17.7479 20.2725 17.7479C20.7985 17.7479 21.303 17.963 21.6749 18.3459C22.0469 18.7288 22.2558 19.2481 22.2558 19.7896V26.9792H26.2083ZM9.74667 12.4833C10.3779 12.4833 10.9832 12.2252 11.4296 11.7657C11.8759 11.3063 12.1267 10.6831 12.1267 10.0333C12.1267 8.67708 11.0642 7.56875 9.74667 7.56875C9.11169 7.56875 8.50273 7.82841 8.05374 8.29061C7.60474 8.75281 7.3525 9.37969 7.3525 10.0333C7.3525 11.3896 8.42917 12.4833 9.74667 12.4833ZM11.7158 26.9792V14.7729H7.79167V26.9792H11.7158Z" fill="#B7B6B3"/>
</svg>
