<svg width="375" height="141" viewBox="0 0 375 141" fill="none" xmlns="http://www.w3.org/2000/svg">
<path fill-rule="evenodd" clip-rule="evenodd" d="M201.188 4.44857C202.807 0.714852 203.059 0.345555 204.18 0.0643975C204.984 -0.136988 206.849 0.121157 211.087 1.0202C212.591 1.3392 214.58 1.70568 215.507 1.83448C220.577 2.53896 222 2.88843 223.295 3.74618C224.33 4.43175 224.908 5.3891 225.079 6.70156C225.134 7.1268 225.199 8.60035 225.224 9.97612C225.249 11.3519 225.313 12.6519 225.367 12.865C225.569 13.657 225.888 13.9067 230.773 17.0914C233.359 18.777 233.88 19.0186 234.92 19.014C235.728 19.0103 236.021 18.9168 238.642 17.8284C241.468 16.6543 242.471 16.5453 243.917 17.2556C245.074 17.8239 245.925 18.8283 247.5 21.4825C248.275 22.7891 249.148 24.0956 250.696 26.2666C253.754 30.5538 254.531 31.824 254.833 33.0345C255.108 34.1393 254.894 35.0643 254.111 36.1524C253.923 36.4133 253.134 37.206 252.356 37.9138C250.844 39.2904 250.312 39.8958 249.899 40.709C249.658 41.1841 249.637 41.3099 249.608 42.4623C249.545 44.9536 250.436 49.021 251.515 51.1728C251.819 51.7796 251.97 51.9673 252.445 52.3262C253.176 52.8792 254.311 53.4118 256.019 54.0033C258.226 54.7673 258.987 55.2591 259.486 56.2427C259.749 56.7616 259.756 56.8082 259.751 58.0939C259.747 59.3557 259.716 59.5705 259.04 63.0512C258.652 65.0523 258.108 67.8562 257.832 69.282C256.653 75.3729 256.102 76.8725 254.834 77.44C254.512 77.5842 254.146 77.605 251.69 77.6185C250.161 77.6269 248.652 77.6766 248.335 77.7288C246.667 78.0045 245.235 79.2579 243.333 82.1073C241.961 84.1616 240.882 86.1752 240.789 86.8528C240.569 88.4541 242.22 91.7389 245.947 97.1143C246.813 98.3623 250.774 103.633 252.101 105.302C252.36 105.627 253.41 106.999 254.434 108.349C255.459 109.7 257.222 112.013 258.353 113.489C264.914 122.054 265.058 122.256 265.624 123.676C266.026 124.686 266.342 125.842 266.462 126.741C266.598 127.761 266.519 130.228 266.321 131.112C265.59 134.384 263.789 137.039 261.077 138.843C256.401 141.953 250.235 141.444 246.12 137.609C245.436 136.971 243.443 134.426 236.915 125.859C229.349 115.929 227.73 113.808 226.223 111.851C225.317 110.676 223.805 108.69 222.863 107.44C220.589 104.421 218.476 102.269 217.457 101.933C217.2 101.849 216.899 101.849 216.112 101.933C212.549 102.316 209.027 103.468 207.708 104.682C207.241 105.112 206.512 106.543 205.888 108.258C204.843 111.133 204.186 111.882 202.502 112.12C201.631 112.244 200.882 112.146 196.875 111.389C195.017 111.038 192.513 110.566 191.31 110.34C185.816 109.311 183.46 108.628 182.692 107.843C182.145 107.285 182.125 107.154 182.192 104.578C182.26 101.988 182.132 100.432 181.799 99.7803C181.331 98.8652 180.333 97.8141 178.869 96.6948C177.614 95.7349 175.622 94.4691 174.218 93.7377C173.544 93.3866 173.401 93.3471 172.681 93.3127C171.676 93.2647 170.891 93.468 169.358 94.1728C166.639 95.4222 165.932 95.6604 164.937 95.6604C164.04 95.6604 163.584 95.4676 162.954 94.822C162.26 94.1119 161.271 92.8636 159.905 90.9748C156.733 86.5911 154.682 83.4035 153.35 80.7884C152.362 78.8501 152.227 78.1451 152.65 77.1439C152.979 76.3658 153.606 75.5779 154.651 74.631C156.744 72.7356 157.354 71.9628 157.649 70.8357C157.877 69.9645 157.856 69.5716 157.447 67.0535C156.733 62.6495 156.426 61.7649 155.189 60.5511C154.406 59.7821 153.837 59.4546 151.724 58.5541C148.64 57.2395 147.98 56.7451 147.658 55.5052C147.335 54.2624 147.44 53.5086 149.063 45.4343C150.459 38.4942 150.518 38.2194 150.857 37.1444C151.27 35.8377 151.655 35.2709 152.344 34.9551C152.728 34.7792 152.983 34.7615 155.947 34.7049C160.176 34.6242 161.08 34.4652 161.659 33.6999C161.784 33.534 162.187 32.8866 162.554 32.2613C162.92 31.6359 163.557 30.6331 163.969 30.0328C165.318 28.0666 165.806 27.3127 166.12 26.7127C166.416 26.1453 166.429 26.0811 166.429 25.1209C166.429 23.9406 166.324 23.5762 165.381 21.4825C164.302 19.0888 164.026 18.0408 164.199 16.9928C164.301 16.3731 164.717 15.4958 165.138 15.0139C165.634 14.4453 168.269 12.608 173.31 9.31502C173.886 8.93836 175.096 8.08815 175.998 7.42551C178.914 5.28459 180.604 4.70354 182.346 5.24411C183.274 5.53218 183.991 6.08131 185.887 7.95462C187.826 9.87033 188.148 10.095 189.168 10.237C189.873 10.3351 191.087 10.2373 192.28 9.98621C194.753 9.46547 196.245 9.16003 197.18 8.98311C197.752 8.87487 198.419 8.70086 198.662 8.59653C199.471 8.24915 199.71 7.85666 201.188 4.44857ZM361.785 22.1296C362.471 19.45 364.752 17.4868 367.438 17.2641C369.453 17.097 371.141 17.6689 372.62 19.0197C373.341 19.6782 374.117 20.9934 374.427 22.0817C374.585 22.637 374.592 23.5416 374.592 40.9025C374.592 58.0937 374.583 59.1739 374.43 59.7312C373.623 62.6793 371.062 64.6443 368.03 64.6408C365.469 64.6378 363.432 63.3658 362.281 61.0501C362.185 60.857 362.103 60.7159 362.032 60.5691C361.571 59.6106 361.608 58.4117 361.607 40.8943C361.605 23.2147 361.609 22.8157 361.785 22.1296ZM188.029 25.8718C191.887 23.9431 196.634 22.6532 201.107 22.3182C202.088 22.2448 205.189 22.2634 206.266 22.3493C210.579 22.6928 214.771 23.8336 218.422 25.657C223.779 28.3325 228.096 32.1582 231.519 37.2641C234.416 41.5837 236.398 46.883 237.065 52.0906C237.265 53.6491 237.336 56.8359 237.208 58.4578C236.598 66.1573 233.825 72.7849 228.837 78.4689C223.493 84.5577 215.658 88.763 207.721 89.8029C206.215 90.0003 202.541 90.0711 200.762 89.9372C194.704 89.4815 189.148 87.586 184.187 84.2825C180.254 81.664 176.681 77.8713 174.191 73.6701C171.713 69.4905 170.185 65.1004 169.515 60.2315C169.309 58.7342 169.276 53.4175 169.464 51.9086C169.982 47.7409 170.983 44.3502 172.717 40.8919C174.319 37.6962 176.016 35.3137 178.499 32.7737C181.32 29.8887 184.277 27.7473 188.029 25.8718ZM188.302 37.7991C191.96 35.0211 196.434 33.2667 201.016 32.8134C202.395 32.6771 205.787 32.7677 207.168 32.9778C212.427 33.778 216.524 35.7289 219.794 38.99C221.524 40.7151 222.263 42.3523 222.279 44.4954C222.296 46.68 221.316 48.3876 219.244 49.7878C217.731 50.8103 216.012 51.1458 214.397 50.7335C213.133 50.4108 212.199 49.8978 210.19 48.4224C207.775 46.6494 206.284 46.026 203.919 45.802C201.977 45.6179 200.289 45.908 198.601 46.7159C196.187 47.8711 194.202 49.9092 193.003 52.4638C191.463 55.742 191.792 59.0688 193.974 62.3095C195.65 64.798 198.173 66.6284 200.629 67.1383C202.141 67.452 204.111 67.3963 205.642 66.9963C207.14 66.6052 208.148 66.0627 210.295 64.4923C212.698 62.7357 213.723 62.2787 215.416 62.2112C217.075 62.145 218.268 62.5239 219.619 63.5464C221.473 64.9484 222.292 66.4885 222.285 68.5543C222.277 70.7162 221.517 72.3362 219.656 74.1536C218.011 75.7606 216.34 76.9729 214.525 77.8753C211.278 79.4906 207.972 80.3161 204.252 80.4403C200.399 80.5689 197.061 79.9432 193.406 78.4073C185.829 75.2234 180.468 68.3546 179.22 60.2315C178.985 58.7033 178.937 55.3531 179.129 53.8643C179.678 49.5944 181.27 45.6933 183.859 42.2692C184.825 40.9919 187.065 38.7388 188.302 37.7991ZM275.856 39.5518C279.584 36.4294 284.229 34.5587 289.216 34.171C290.328 34.0846 292.441 34.1332 293.66 34.2732C301.721 35.1994 308.856 40.303 312.395 47.6746C313.507 49.9924 314.115 51.9819 314.548 54.7284C314.7 55.692 314.713 56.5667 314.713 65.8255V75.8766L314.428 76.6735C313.776 78.4914 312.59 79.8159 310.902 80.6114C309.905 81.0813 309.209 81.2337 308.06 81.2337C306.877 81.2337 306.174 81.0744 305.19 80.5834C304.42 80.199 303.433 79.3279 302.985 78.6383C302.827 78.3951 302.663 78.1961 302.62 78.1961C302.576 78.1961 302.163 78.425 301.701 78.7049C299.871 79.8121 297.45 80.839 295.611 81.287C293.687 81.756 292.646 81.8587 290.333 81.8079C288.061 81.758 287.038 81.6276 285.171 81.1503C280.63 79.9896 276.453 77.4395 273.182 73.83C270.259 70.6047 268.066 66.1393 267.376 62.0052C266.551 57.06 267.212 52.2658 269.315 47.9519C271.015 44.4641 272.937 41.9966 275.856 39.5518ZM330.655 42.0367C334.824 37.8932 340.121 35.3741 345.838 34.8156C346.314 34.7691 347.401 34.7439 348.253 34.7595C349.5 34.7825 349.945 34.8269 350.531 34.9872C352.269 35.4614 353.616 36.5579 354.365 38.1076C354.923 39.2615 355.072 40.0241 355.015 41.4482C354.983 42.2833 354.918 42.7422 354.772 43.1765C354.098 45.1753 352.53 46.7101 350.45 47.4059C349.869 47.6004 349.45 47.6633 348.263 47.7338C345.851 47.8771 344.715 48.1541 342.911 49.039C341.64 49.6622 340.603 50.4212 339.592 51.4666C337.874 53.2429 336.902 55.1555 336.338 57.8665C336.279 58.1508 336.223 61.68 336.187 67.2809L336.13 76.2404L335.87 76.9226C335.392 78.1791 334.88 78.9368 334.004 79.6802C331.679 81.6554 328.489 81.7794 325.903 79.9952C324.74 79.193 323.907 78.0781 323.437 76.6971L323.189 75.9675V66.7806C323.189 58.4022 323.204 57.4976 323.353 56.5021C324.219 50.7383 326.554 46.1117 330.655 42.0367ZM282.749 50.9703C284.325 49.1029 286.669 47.752 289.099 47.3116C289.99 47.1501 291.882 47.1511 292.816 47.3136C294.816 47.6616 296.805 48.6654 298.277 50.0692C301.685 53.3183 302.664 58.3002 300.713 62.4595C298.999 66.1127 295.847 68.3615 291.921 68.7328C286.41 69.254 281.39 65.4449 280.298 59.9131C280.12 59.0119 280.145 56.7523 280.343 55.8199C280.705 54.1141 281.574 52.3632 282.749 50.9703ZM362.898 70.4317C363.845 69.2001 365.239 68.2773 366.689 67.9215C367.55 67.7103 368.802 67.6899 369.668 67.8731C372.106 68.3886 374.277 70.5414 374.864 73.0266C375.059 73.8533 375.042 75.2846 374.827 76.1245C373.991 79.3855 370.709 81.6584 367.485 81.2083C364.838 80.8387 362.719 79.0903 361.909 76.6062C361.563 75.5483 361.508 73.9809 361.778 72.9134C362 72.0351 362.476 70.9797 362.898 70.4317ZM0.735745 20.2303C1.56548 18.544 3.06538 17.3557 5.01432 16.8406C5.79639 16.6339 7.05166 16.6152 7.9308 16.7973C8.28442 16.8704 8.95476 17.1217 9.43461 17.3609C10.6295 17.9565 11.6861 18.996 12.2378 20.1185C12.3959 20.4401 12.5184 20.6692 12.6135 20.9091C12.9647 21.7949 12.9433 22.8285 12.9657 29.2145C12.9796 33.1917 13.0101 36.498 13.0336 36.5617C13.0646 36.6461 13.2311 36.5998 13.6434 36.392C15.0431 35.6869 17.5431 34.8622 19.3689 34.5033C29.9434 32.4248 40.5064 37.6987 45.3033 47.4519C46.5853 50.0586 47.3144 52.5295 47.625 55.32C47.769 56.6128 47.7447 59.4776 47.5784 60.8242C46.5956 68.7816 41.5763 75.8126 34.3614 79.3384C31.9481 80.5177 29.9497 81.1431 27.4128 81.513C19.8602 82.6142 12.4271 80.1483 7.01375 74.7455C3.81072 71.5488 1.4481 67.2835 0.511267 63.0061C0.429572 62.6331 0.360929 62.3469 0.303258 62.0586C-0.0209198 60.4378 0.00161153 58.7476 0.00161153 41.1757C0.00161153 23.0166 -0.049988 21.7805 0.430768 20.8074C0.515027 20.6368 0.615638 20.4743 0.735745 20.2303ZM111.466 37.2503C114.088 35.4804 117.312 34.4019 120.771 34.137C124.436 33.8564 128.465 34.3104 131.646 35.3624C134.009 36.1435 135.61 37.063 136.792 38.3162C138.908 40.5615 139.254 43.9419 137.613 46.3391C137.038 47.179 136.413 47.7065 135.436 48.1767C134.415 48.668 133.827 48.8109 132.838 48.8079C131.922 48.805 131.476 48.681 128.987 47.7347C126.265 46.7002 125.335 46.5276 122.995 46.6217C120.736 46.7126 119.768 46.9776 119.133 47.6792C118.611 48.2551 118.577 49.0667 119.055 49.5234C119.461 49.9117 120.767 50.4643 122.224 50.8643C126.235 51.9651 128.363 52.676 130.56 53.6496C134.262 55.2902 136.693 57.2162 138.438 59.8916C139.918 62.1611 140.47 64.3196 140.376 67.4631C140.336 68.7719 140.28 69.2968 140.096 70.0792C138.932 75.0157 134.956 79.0748 129.612 80.7815C127.372 81.4969 125.767 81.7328 123.132 81.7337C119.845 81.7348 116.862 81.2515 113.941 80.2447C109.002 78.5422 105.486 75.3765 104.164 71.4431C103.848 70.5042 103.763 68.7794 103.985 67.8372C104.338 66.3365 105.393 65.0158 106.78 64.3373C107.839 63.8191 108.532 63.6599 109.689 63.6684C111.79 63.684 113.696 64.4778 115.522 66.0984C117.929 68.2354 120.743 69.3384 123.451 69.2072C125.933 69.0867 127.559 68.1337 127.333 66.9313C127.154 65.9778 125.279 64.9671 120.904 63.4642C119.069 62.8342 118.376 62.5376 115.522 61.1634C111.302 59.1315 109.095 57.3958 107.37 54.7505C106.326 53.1497 105.844 51.7131 105.682 49.724C105.423 46.5401 106.234 43.3646 107.973 40.7515C108.696 39.6656 110.362 37.9956 111.466 37.2503ZM55.5499 36.576C56.5699 35.5522 57.3726 35.129 59.0604 34.7252C59.1606 34.7012 59.7348 34.6943 60.3363 34.7098C61.2328 34.7329 61.5615 34.7822 62.1592 34.9831C64.3637 35.7245 65.9711 37.4309 66.5321 39.6257C66.6515 40.0934 66.6706 41.4442 66.6706 49.4625C66.6706 55.214 66.7065 59.1067 66.7648 59.6741C67.1277 63.2025 68.9784 65.9579 72.0479 67.5396C73.9546 68.5221 75.8061 68.8864 77.8948 68.6898C81.831 68.3193 84.6827 65.7761 85.7257 61.7059C86.0626 60.3915 86.0833 59.7241 86.0866 50.1376C86.09 40.1598 86.0978 39.9563 86.5194 38.9008C87.5296 36.372 90.0319 34.671 92.7367 34.6742C93.8185 34.6756 94.6454 34.8714 95.6531 35.365C97.2515 36.1478 98.4816 37.6812 98.9371 39.4586C99.1102 40.1343 99.1164 40.5069 99.1149 50.1271C99.1139 56.0485 99.0767 60.4462 99.0231 60.9595C98.5905 65.1033 97.2589 68.8087 94.9694 72.2385C93.3065 74.7297 91.4467 76.5787 88.9196 78.2532C85.1662 80.7404 80.7899 81.9403 76.1492 81.7546C70.2036 81.5168 64.9313 79.253 60.6681 75.1076C56.9094 71.4526 54.6621 67.028 53.84 61.6643C53.6985 60.7418 53.6831 59.6254 53.6831 50.3172V39.9932L53.8966 39.311C54.2577 38.1568 54.6939 37.4353 55.5499 36.576ZM13.1636 56.1386C13.9322 51.7613 17.3162 48.2597 21.693 47.313C22.3829 47.1638 22.774 47.1413 24.1537 47.1716C25.885 47.2095 26.4656 47.3101 27.757 47.7961C34.4801 50.3263 36.8344 58.7079 32.4535 64.5159C29.1519 68.893 22.8675 70.0444 18.2132 67.1248C15.6268 65.5025 13.7755 62.83 13.206 59.8963C13.0168 58.9214 12.9961 57.0925 13.1636 56.1386Z" fill="#474747" fill-opacity="0.55"/>
</svg>
