<svg width="34" height="33" viewBox="0 0 34 33" fill="none" xmlns="http://www.w3.org/2000/svg">
<path fill-rule="evenodd" clip-rule="evenodd" d="M15.3174 2.75C13.4537 2.75016 11.6171 3.196 9.96072 4.05033C8.30438 4.90466 6.87637 6.1427 5.79581 7.66116C4.71526 9.17962 4.0135 10.9345 3.74909 12.7793C3.48467 14.6241 3.66527 16.5055 4.27581 18.2663C4.88635 20.0271 5.90913 21.6164 7.25882 22.9016C8.6085 24.1868 10.246 25.1306 12.0346 25.6542C13.8232 26.1778 15.7111 26.2661 17.5408 25.9118C19.3704 25.5574 21.0889 24.7706 22.5526 23.617L27.5741 28.6385C27.8334 28.889 28.1808 29.0276 28.5413 29.0244C28.9018 29.0213 29.2467 28.8767 29.5016 28.6217C29.7565 28.3668 29.9012 28.0219 29.9043 27.6614C29.9074 27.3009 29.7688 26.9536 29.5184 26.6943L24.4969 21.6728C25.8554 19.9494 26.7012 17.8783 26.9376 15.6966C27.174 13.5149 26.7915 11.3108 25.8337 9.33638C24.8759 7.36198 23.3816 5.69711 21.5218 4.53232C19.662 3.36752 17.5118 2.74985 15.3174 2.75ZM6.37987 14.4375C6.37987 12.0671 7.32149 9.79384 8.9976 8.11773C10.6737 6.44163 12.947 5.5 15.3174 5.5C17.6877 5.5 19.961 6.44163 21.6371 8.11773C23.3132 9.79384 24.2549 12.0671 24.2549 14.4375C24.2549 16.8079 23.3132 19.0812 21.6371 20.7573C19.961 22.4334 17.6877 23.375 15.3174 23.375C12.947 23.375 10.6737 22.4334 8.9976 20.7573C7.32149 19.0812 6.37987 16.8079 6.37987 14.4375Z" fill="#474747" fill-opacity="0.62"/>
</svg>
