<svg width="308" height="195" viewBox="0 0 308 195" fill="none" xmlns="http://www.w3.org/2000/svg">
<path d="M65.5184 29.2877H71.7726L71.5945 71.8596H79.2538L80.8807 29.2798H87.0834L87.0359 23.1404H65.5184V29.2877ZM37.4459 23.1404H28.3972L29.367 71.8596H37.2876L37.4459 23.1404ZM59.3751 23.1404H41.6536L42.3226 71.8556H49.6534L49.7365 51.7117H58.5201C59.1912 58.4046 59.4912 65.1296 59.4186 71.8556H66.5436C67.2007 46.9854 65.1186 32.9294 59.3751 23.1404ZM49.404 45.7029L49.4911 29.1571H53.9126C56.3519 34.3609 57.8105 39.97 58.2153 45.7029H49.404ZM7.91675 23.1404L9.49216 71.8596H17.1634L16.9932 51.6563H23.4255V45.3586H16.9932L17.017 29.5054H25.4126L25.369 23.1404H7.91675Z" fill="#A6A6A4"/>
<path d="M160.5 19C154.863 19 149.353 20.6715 144.666 23.8031C139.979 26.9347 136.327 31.3858 134.169 36.5935C132.012 41.8012 131.448 47.5316 132.548 53.0601C133.647 58.5885 136.362 63.6667 140.347 67.6525C144.333 71.6383 149.411 74.3527 154.94 75.4524C160.468 76.552 166.199 75.9877 171.406 73.8306C176.614 71.6735 181.065 68.0205 184.197 63.3337C187.329 58.6469 189 53.1368 189 47.5C189 43.7573 188.263 40.0513 186.831 36.5935C185.398 33.1357 183.299 29.9939 180.653 27.3475C178.006 24.701 174.864 22.6017 171.406 21.1694C167.949 19.7372 164.243 19 160.5 19ZM160.5 23.902C162.848 23.8999 165.183 24.2486 167.428 24.9365L160.5 40.4918L153.575 24.9337C155.819 24.2479 158.153 23.9001 160.5 23.902ZM136.902 47.5C136.9 45.06 137.276 42.6343 138.016 40.3094L150.81 69.0175C146.666 67.1509 143.149 64.1274 140.682 60.3103C138.215 56.4932 136.902 52.045 136.902 47.5ZM160.5 71.098C158.153 71.0998 155.819 70.7521 153.575 70.0663L160.5 54.5053L167.428 70.0634C165.183 70.7511 162.848 71.0998 160.5 71.098ZM163.951 48.241H157.052L152.42 58.6463L141.328 33.7373C143.212 31.125 145.607 28.923 148.368 27.265L157.054 46.7704H163.951L172.632 27.265C175.394 28.9245 177.788 31.1298 179.669 33.7459L168.583 58.6492L163.951 48.241ZM170.19 69.0175L182.981 40.3094C184.741 45.8305 184.41 51.8059 182.052 57.0991C179.694 62.3922 175.472 66.634 170.19 69.0175Z" fill="#A6A6A4"/>
<path d="M267.314 64.552C270.608 64.552 273.898 64.4085 277.168 64.202C280.572 64.2334 283.954 63.631 287.148 62.424C288.613 61.7866 289.877 60.7444 290.797 59.414C291.69 57.9583 292.329 56.3548 292.686 54.675C293.509 51.0891 294.011 47.434 294.186 43.755C294.473 40.0408 294.538 36.3122 294.381 32.59C294.507 29.2862 293.448 26.0494 291.405 23.49C289.136 21.5682 286.314 20.4617 283.373 20.34C278.046 19.6633 272.681 19.35 267.314 19.402C261.947 19.35 256.583 19.6633 251.256 20.34C248.314 20.4617 245.492 21.5682 243.223 23.49C241.18 26.0494 240.122 29.2862 240.247 32.59C240.09 36.3122 240.155 40.0408 240.442 43.755C240.618 47.434 241.12 51.0891 241.942 54.675C242.301 56.3499 242.94 57.9486 243.831 59.4C244.752 60.7304 246.015 61.7726 247.48 62.41C250.675 63.617 254.056 64.2194 257.461 64.188C260.73 64.4085 264.021 64.5345 267.314 64.552ZM274.681 61.6925C274.339 61.752 273.232 61.752 271.998 61.78C270.434 61.8185 268.876 61.8255 267.314 61.822C265.753 61.8185 264.195 61.822 262.63 61.78C261.397 61.752 260.279 61.752 259.944 61.6925C259.61 61.633 259.261 61.612 259.37 61.234C259.48 60.856 260.969 55.9 260.969 55.9C261.953 52.6065 262.022 52.4 264.55 51.882C266.374 51.504 268.254 51.504 270.078 51.882C272.607 52.3895 272.675 52.6065 273.659 55.9C273.659 55.9 275.159 60.8525 275.258 61.234C275.357 61.6155 275.015 61.633 274.681 61.6925ZM281.401 59.309C281.979 54.6645 282.426 50.013 282.768 45.351L282.843 44.574C283.591 37.5467 283.953 30.4819 283.926 23.413C283.974 23.3292 284.044 23.2599 284.126 23.212C284.209 23.1641 284.303 23.1393 284.398 23.14C285.006 23.322 285.634 23.49 286.246 23.735L286.512 23.8435H286.536C286.905 23.9955 287.263 24.172 287.609 24.372C287.966 24.5827 288.296 24.8365 288.593 25.128L288.61 25.149C288.731 25.2742 288.845 25.4062 288.952 25.5445L289.078 25.7055C290.716 28.953 291.367 32.6282 290.947 36.258C291.021 40.6244 290.778 44.9905 290.22 49.32L290.076 50.4505V50.503L289.956 51.4235L289.898 51.826L289.833 52.274L289.724 52.932L289.642 53.373L289.567 53.7405C289.495 54.1056 289.408 54.4676 289.307 54.8255C289.27 54.9655 289.229 55.0985 289.184 55.235C289.14 55.3715 289.082 55.557 289.027 55.711C288.972 55.865 288.931 55.9805 288.877 56.11C288.799 56.3117 288.714 56.5102 288.621 56.705C288.324 57.3532 287.935 57.9525 287.466 58.483C286.748 59.274 281.343 62.5045 281.316 60.261C281.323 60.0685 281.35 59.75 281.401 59.309ZM247.183 58.4935C246.714 57.9627 246.325 57.3635 246.028 56.7155C245.876 56.3858 245.738 56.0495 245.615 55.7075C245.561 55.5559 245.511 55.403 245.465 55.249C245.417 55.0915 245.379 54.9725 245.342 54.8325L245.236 54.43C245.181 54.2025 245.126 53.975 245.079 53.73L245.007 53.38L244.921 52.9355L244.815 52.274L244.751 51.8365L244.692 51.413L244.587 50.608L244.556 50.37L244.423 49.32C243.864 44.9905 243.621 40.6244 243.695 36.258C243.276 32.6286 243.926 28.954 245.56 25.7055L245.68 25.555C245.787 25.4167 245.901 25.2847 246.022 25.1595L246.042 25.1385C246.338 24.8534 246.666 24.6054 247.019 24.4C247.369 24.1977 247.73 24.0188 248.102 23.8645L248.379 23.756C248.987 23.525 249.616 23.343 250.224 23.161C250.319 23.1603 250.413 23.1851 250.495 23.233C250.578 23.2809 250.647 23.3502 250.696 23.434C250.669 30.5029 251.03 37.5677 251.779 44.595L251.854 45.372C252.195 50.027 252.636 54.6715 253.22 59.309L253.323 60.2995C253.289 62.5115 247.887 59.2845 247.183 58.4935ZM255.663 22.496C259.529 22.0203 263.422 21.8319 267.314 21.9325C271.206 21.8319 275.1 22.0203 278.965 22.496C279.16 22.5765 279.177 22.7235 279.085 23.07C277.93 27.375 276.597 33.087 275.408 37.42C274.458 40.878 273.358 45.337 269.258 45.778C268.617 45.8504 267.973 45.8936 267.328 45.9075C266.668 45.918 266.012 45.8445 265.397 45.778C261.274 45.337 260.184 40.878 259.247 37.42C258.058 33.094 256.726 27.382 255.571 23.07C255.448 22.7235 255.469 22.5765 255.663 22.496ZM268.841 71.1215L269.921 71.258C270.3 71.307 270.389 71.6325 270.389 72.007V75.9305L266.289 70.404C266.219 70.2961 266.124 70.2077 266.013 70.1466C265.901 70.0855 265.777 70.0537 265.65 70.054H260.184V71.1285L261.209 71.251C261.574 71.307 261.707 71.4995 261.707 72.0175V76.032C261.707 76.508 261.581 76.732 261.192 76.795L260.167 76.9175V77.9675H265.117V76.9175L264.055 76.795C263.91 76.7692 263.781 76.6877 263.693 76.5673C263.606 76.4469 263.566 76.2967 263.583 76.1475V72.1155L267.704 77.6735C267.781 77.7702 267.879 77.8483 267.989 77.9021C268.1 77.9559 268.22 77.9842 268.343 77.985H272.231V71.9755C272.231 71.6955 272.303 71.307 272.702 71.2755L273.782 71.153V70.0785H268.828L268.841 71.1215ZM253.545 69.7495C249.168 69.7495 247.207 71.4995 247.207 73.9845C247.207 76.536 249.168 78.265 253.545 78.265C257.922 78.265 259.852 76.536 259.852 73.9845C259.852 71.4925 257.891 69.7495 253.545 69.7495ZM253.545 76.7495C251.782 76.7495 250.781 76.081 250.781 73.995C250.781 71.909 251.782 71.272 253.545 71.272C255.308 71.272 256.313 71.9405 256.313 73.995C256.313 76.0495 255.291 76.753 253.528 76.753L253.545 76.7495ZM240.692 71.1215L241.771 71.258C242.137 71.307 242.243 71.608 242.243 71.993V73.2215H237.459V71.9755C237.459 71.51 237.64 71.2755 237.962 71.2755L239.007 71.153V70.0785H232.833V71.153L233.858 71.2755C234.268 71.3245 234.374 71.6255 234.36 72.042V76.0565C234.36 76.508 234.237 76.7565 233.845 76.8195L232.82 76.942V77.992H239.031V76.942L237.958 76.802C237.716 76.7705 237.473 76.613 237.473 76.102V74.8H242.256V76.018C242.256 76.368 242.195 76.718 241.785 76.7635L240.692 76.9V77.9885H246.903V76.9L245.81 76.774C245.598 76.7425 245.355 76.571 245.355 76.1195V72C245.355 71.5765 245.506 71.3 245.823 71.265L246.903 71.1425V70.068H240.692V71.1215ZM282.098 70.061H274.435V71.1355L275.395 71.237C275.471 71.2469 275.545 71.2723 275.612 71.3117C275.679 71.3512 275.737 71.4039 275.784 71.4668C275.831 71.5297 275.865 71.6015 275.884 71.678C275.904 71.7545 275.908 71.8342 275.897 71.9125V76.179C275.916 76.321 275.881 76.465 275.799 76.5811C275.716 76.6971 275.594 76.7763 275.456 76.802L274.431 76.9385V77.9885H282.098C285.624 77.9885 287.141 76.2385 287.141 73.911C287.158 71.8215 285.624 70.061 282.098 70.061ZM280.913 76.459H278.938V71.559H280.913C282.799 71.559 283.588 72.014 283.588 74.009C283.588 76.004 282.799 76.459 280.913 76.459ZM300.073 76.7705C299.732 76.725 299.513 76.382 299.236 75.9445L295.758 70.4985C295.689 70.3728 295.59 70.2668 295.471 70.1904C295.351 70.1139 295.215 70.0694 295.075 70.061H289.116V71.1355L290.483 71.3C290.556 71.3074 290.625 71.335 290.684 71.3798C290.743 71.4247 290.788 71.4851 290.816 71.5545C290.844 71.624 290.853 71.6999 290.841 71.774C290.83 71.8482 290.799 71.9178 290.753 71.9755L288.139 76.333C288.089 76.4515 288.011 76.5558 287.913 76.6369C287.815 76.718 287.699 76.7734 287.575 76.7985L286.53 76.921V77.971H291.48V76.9L290.63 76.7915C290.288 76.7425 290.052 76.5255 290.288 76.151L290.653 75.5455H295.41L295.727 76.0425C296.069 76.557 295.727 76.7425 295.317 76.7915L294.466 76.9V77.9745H301.167V76.9L300.073 76.7705ZM291.504 74.156L292.994 71.706L294.511 74.156H291.504Z" fill="#A6A6A4"/>
<path d="M85.1172 141.475C85.011 140.05 84.829 139.837 84.0404 139.56C82.7515 139.151 81.4344 138.847 80.1008 138.649C78 131.389 73.6942 125.04 67.8331 120.559C61.9721 116.079 54.8739 113.71 47.6101 113.811C40.385 113.712 33.3232 116.056 27.4789 120.492C21.6347 124.928 17.3217 131.218 15.1837 138.424C13.9742 138.645 12.8177 138.891 11.6764 139.164C10.5351 139.437 10.2621 139.916 10.1029 140.668C10.0719 140.807 10.0466 140.947 10.027 141.088C9.55866 144.123 9.45549 147.208 9.71992 150.271C9.78438 151.193 9.8678 152.119 9.9588 153.042C10.0763 154.229 9.9588 155.753 11.1683 155.963C12.4803 156.187 13.8516 156.393 15.2823 156.58H15.1951C17.3347 163.781 21.647 170.067 27.4888 174.5C33.3306 178.933 40.3887 181.275 47.6101 181.178C54.8042 181.274 61.8371 178.951 67.6681 174.551C73.4992 170.151 77.8185 163.908 79.9871 156.747H79.9416C81.1856 156.604 82.4259 156.429 83.6612 156.22C84.0049 156.188 84.3268 156.031 84.5708 155.776C84.8148 155.522 84.9652 155.186 84.9959 154.827C85.1703 153.03 85.2803 151.541 85.3447 150.247C85.4779 147.321 85.4019 144.389 85.1172 141.475ZM47.6101 122.167C52.5166 122.092 57.3378 123.51 61.4863 126.246C65.6348 128.982 68.9314 132.919 70.9743 137.576L71.0767 137.628C63.1812 137.033 55.2682 136.728 47.3522 136.714C37.0844 136.714 29.9105 136.892 24.3785 137.303C26.4648 132.73 29.7604 128.875 33.8767 126.193C37.993 123.511 42.7581 122.114 47.6101 122.167ZM65.8101 152.25H63.7322C63.6791 152.256 63.6254 152.245 63.579 152.217C63.5326 152.189 63.4959 152.147 63.4744 152.096C63.4744 152.056 63.2166 151.399 62.845 150.512H57.9423C57.5632 151.439 57.275 152.096 57.275 152.096C57.2513 152.145 57.2142 152.186 57.1684 152.213C57.1225 152.241 57.0699 152.254 57.0172 152.25H55.0152C54.7156 152.25 54.6057 152.25 54.7915 151.854C55.7925 149.61 58.0182 144.385 58.0182 144.385C58.4618 143.415 58.2381 143.494 59.5348 143.494C59.8052 143.459 60.0777 143.446 60.3501 143.455C60.6224 143.439 60.8955 143.452 61.1653 143.494C62.5378 143.534 62.3028 143.379 62.9436 144.848C63.2772 145.659 65.6887 151.078 66.0603 152.009C66.1741 152.25 66.0982 152.222 65.8025 152.222L65.8101 152.25ZM51.2387 149.036C50.5334 148.996 48.4594 148.802 47.0489 148.64C45.2327 148.446 44.827 147.635 44.7132 146.938C44.6808 146.669 44.6682 146.398 44.6753 146.126C44.6698 145.842 44.6824 145.558 44.7132 145.275C44.9748 144.036 45.8507 143.455 47.4205 143.455H53.4644C53.6843 143.455 53.7601 143.494 53.7601 143.688V145.121C53.7601 145.311 53.6843 145.39 53.4644 145.351H47.5228C47.265 145.351 47.1437 145.469 47.1171 145.746V146.095C47.1171 146.289 47.1892 146.443 47.4963 146.491C48.1978 146.566 50.3856 146.76 51.2008 146.839C52.6871 146.993 53.7601 147.263 54.0559 148.735C54.0559 148.85 54.0938 149.238 54.0938 149.665C54.1042 149.976 54.08 150.287 54.0218 150.591C53.7601 151.985 52.7591 152.258 51.2008 152.258H44.9673C44.7435 152.258 44.7056 152.218 44.7056 151.985V150.591C44.7056 150.362 44.7435 150.322 44.9673 150.322H51.269C51.5268 150.322 51.6027 150.243 51.6482 150.049V149.471C51.6418 149.355 51.5966 149.245 51.5203 149.161C51.444 149.076 51.3416 149.022 51.2311 149.008L51.2387 149.036ZM40.5234 149.036C39.822 148.996 37.7441 148.802 36.3526 148.64C34.5364 148.446 34.0776 147.635 34.0169 146.938C33.9878 146.669 33.9764 146.397 33.9828 146.126C33.9778 145.842 33.9892 145.558 34.0169 145.275C34.2785 144.036 35.1544 143.455 36.7242 143.455H42.7681C42.9918 143.455 43.0638 143.494 43.0638 143.688V145.121C43.0638 145.311 42.9918 145.39 42.7681 145.351H36.8076C36.5498 145.351 36.4284 145.469 36.4019 145.746V146.095C36.4019 146.289 36.5118 146.443 36.781 146.491C37.4863 146.566 39.6703 146.76 40.4893 146.839C41.9718 146.993 43.0449 147.263 43.3406 148.735C43.3406 148.85 43.3786 149.238 43.3786 149.665C43.3889 149.976 43.3648 150.287 43.3065 150.591C43.0449 151.985 42.0439 152.258 40.4893 152.258H34.252C34.0283 152.258 33.9904 152.218 33.9904 151.985V150.591C33.9904 150.362 34.0283 150.322 34.252 150.322H40.5538C40.8154 150.322 40.8874 150.243 40.9329 150.049V149.471C40.8874 149.281 40.8495 149.048 40.5158 149.008L40.5234 149.036ZM32.2197 143.617V151.902C32.2197 152.096 32.1818 152.171 31.9618 152.171H30.0243C29.8006 152.171 29.7665 152.131 29.7665 151.902V143.589C29.7665 143.435 29.8006 143.36 29.9485 143.36H31.9884C32.1742 143.36 32.2121 143.435 32.2121 143.589L32.2197 143.617ZM23.7225 151.458C22.7936 149.95 20.0143 145.497 20.0143 145.497V151.961C20.0143 152.195 19.9764 152.234 19.7565 152.234H18.0843C17.8644 152.234 17.8265 152.195 17.8265 151.961V143.708C17.8265 143.514 17.8644 143.435 18.0843 143.435H20.0143C21.4589 143.435 21.6447 143.395 22.1642 144.171C22.5737 144.868 25.9558 150.287 25.9558 150.287V143.708C25.9558 143.514 25.9938 143.435 26.2175 143.435H27.8858C28.1057 143.435 28.1436 143.514 28.1436 143.708V151.949C28.1436 152.183 28.1057 152.222 27.8858 152.222H25.6108C24.2799 152.222 24.1662 152.222 23.7225 151.458ZM47.6101 172.853C42.7176 172.908 37.9141 171.487 33.7758 168.762C29.6375 166.037 26.3403 162.124 24.2799 157.491L24.2117 157.435C31.3059 157.914 39.3139 158.073 47.8565 158.093C55.5446 158.128 63.2322 157.935 70.9098 157.515V157.566C68.8375 162.176 65.5392 166.066 61.4081 168.773C57.2769 171.479 52.4872 172.889 47.6101 172.833V172.853ZM77.6287 151.961C77.6287 152.195 77.5908 152.234 77.3708 152.234H75.0958C73.7612 152.234 73.6512 152.234 73.2 151.443C72.271 149.934 69.4918 145.481 69.4918 145.481V151.945C69.4918 152.179 69.4538 152.218 69.2301 152.218H67.5959C67.376 152.218 67.3381 152.179 67.3381 151.945V143.708C67.3381 143.514 67.376 143.435 67.5959 143.435H69.5259C70.9705 143.435 71.1563 143.395 71.6758 144.171C72.1194 144.868 75.4674 150.287 75.4674 150.287V143.708C75.4674 143.514 75.5053 143.435 75.729 143.435H77.3974C77.6173 143.435 77.6552 143.514 77.6552 143.708L77.6287 151.961ZM60.6496 145.41C60.6117 145.37 60.5017 145.37 60.4259 145.37C60.3501 145.37 60.206 145.37 60.168 145.41C60.1241 145.404 60.0795 145.412 60.0398 145.433C60.0001 145.453 59.9669 145.485 59.9443 145.525C59.9443 145.564 59.3149 147.073 58.6855 148.62H62.0601C61.5406 147.306 60.9833 145.988 60.8354 145.564C60.8253 145.521 60.8015 145.482 60.7679 145.454C60.7342 145.426 60.6926 145.411 60.6496 145.41Z" fill="#A6A6A4"/>
<path d="M201.671 135.836H174.057V130.517C174.057 130.446 174.043 130.375 174.016 130.309C173.989 130.242 173.949 130.182 173.899 130.131C173.848 130.08 173.788 130.04 173.722 130.013C173.656 129.985 173.585 129.971 173.514 129.971H147.49C147.418 129.971 147.347 129.985 147.281 130.013C147.215 130.04 147.155 130.08 147.105 130.131C147.054 130.182 147.014 130.242 146.987 130.309C146.96 130.375 146.946 130.446 146.947 130.517V135.836H127.155C126.854 135.836 126.487 136.078 126.335 136.383L119.069 150.617C118.913 150.922 119.031 151.16 119.335 151.16H146.943V156.486C146.943 156.783 147.185 157.029 147.486 157.029H173.51C173.811 157.029 174.053 156.787 174.053 156.486V151.16H193.845C194.146 151.16 194.513 150.918 194.668 150.617L201.931 136.383C202.086 136.082 201.969 135.836 201.668 135.836M193.043 139.281L188.741 147.709H170.647V153.616H150.367V147.709H127.974L132.28 139.281H150.374V133.377H170.654V139.281H193.043Z" fill="#A6A6A4"/>
<g clip-path="url(#clip0_98_1357)">
<path d="M267.5 116C261.27 116 255.18 117.818 250 121.224C244.819 124.631 240.782 129.472 238.398 135.137C236.014 140.801 235.39 147.034 236.605 153.048C237.821 159.061 240.821 164.585 245.226 168.92C249.632 173.256 255.244 176.208 261.355 177.404C267.465 178.6 273.799 177.987 279.555 175.64C285.31 173.294 290.23 169.321 293.691 164.223C297.153 159.125 299 153.131 299 147C299 138.778 295.681 130.893 289.774 125.08C283.866 119.266 275.854 116 267.5 116ZM266.419 119.557C270.177 119.408 273.927 120.008 277.445 121.319C280.962 122.631 284.175 124.628 286.89 127.19C289.604 129.752 291.766 132.828 293.244 136.232C294.722 139.636 295.487 143.298 295.493 147C295.499 150.619 294.778 154.204 293.373 157.549C291.969 160.894 289.907 163.933 287.306 166.492C284.706 169.051 281.618 171.08 278.219 172.463C274.82 173.845 271.178 174.554 267.5 174.549C260.192 174.532 253.181 171.699 247.97 166.657C242.759 161.615 239.761 154.764 239.62 147.574C239.478 140.383 242.204 133.424 247.213 128.187C252.223 122.95 259.117 119.852 266.419 119.557ZM267.5 120.908C267.398 120.911 267.3 120.945 267.218 121.005C267.137 121.066 267.078 121.151 267.049 121.247L264.731 127.772C264.72 127.855 264.72 127.94 264.731 128.023C264.73 128.15 264.762 128.276 264.823 128.389C264.884 128.502 264.972 128.598 265.08 128.669C265.385 128.877 265.638 129.152 265.819 129.472C266 129.792 266.104 130.148 266.123 130.514C266.141 130.88 266.075 131.245 265.927 131.581C265.78 131.917 265.557 132.215 265.274 132.453C264.596 133.024 264.052 133.734 263.681 134.532C263.309 135.331 263.118 136.199 263.122 137.077V139.41L251.396 132.786L249.96 135.248L263.051 142.681V144.468L261.47 145.365L248.403 137.925L246.957 140.389L258.58 147L256.528 148.162C255.756 148.605 255.092 149.208 254.581 149.929C254.07 150.65 253.725 151.472 253.569 152.337C253.5 152.698 253.348 153.039 253.124 153.333C252.9 153.626 252.61 153.866 252.278 154.033C251.945 154.199 251.578 154.289 251.205 154.294C250.832 154.299 250.462 154.22 250.125 154.063C250.013 154.004 249.888 153.973 249.762 153.973C249.635 153.973 249.51 154.004 249.398 154.063C249.321 154.106 249.251 154.161 249.191 154.226L244.618 159.488C244.554 159.564 244.515 159.658 244.507 159.756C244.499 159.855 244.521 159.954 244.571 160.039C244.622 160.125 244.697 160.194 244.788 160.236C244.879 160.278 244.981 160.292 245.08 160.276L251.992 159.002C252.074 158.983 252.153 158.952 252.228 158.912C252.34 158.849 252.436 158.761 252.505 158.653C252.575 158.546 252.617 158.424 252.627 158.297C252.663 157.936 252.783 157.587 252.976 157.278C253.17 156.969 253.433 156.707 253.744 156.513C254.056 156.318 254.408 156.196 254.775 156.156C255.142 156.115 255.513 156.158 255.861 156.279C256.7 156.569 257.593 156.677 258.478 156.595C259.364 156.513 260.221 156.243 260.99 155.804L263.038 154.639V167.824H265.92V152.955L267.49 152.066L269.059 152.955V167.824H271.947V154.59L273.994 155.752C274.764 156.192 275.62 156.461 276.506 156.543C277.391 156.626 278.284 156.518 279.124 156.228C279.472 156.105 279.844 156.062 280.211 156.102C280.579 156.142 280.932 156.264 281.245 156.459C281.557 156.654 281.82 156.916 282.014 157.226C282.208 157.536 282.327 157.886 282.363 158.248C282.368 158.375 282.408 158.498 282.476 158.606C282.545 158.714 282.64 158.802 282.754 158.863C282.828 158.903 282.908 158.934 282.99 158.953L289.904 160.224C290.005 160.247 290.111 160.238 290.206 160.197C290.301 160.157 290.38 160.087 290.432 159.999C290.484 159.91 290.506 159.808 290.494 159.707C290.482 159.605 290.437 159.511 290.366 159.436L290.377 159.488L285.799 154.226C285.74 154.163 285.674 154.109 285.602 154.063C285.489 154.004 285.363 153.973 285.235 153.973C285.106 153.973 284.98 154.004 284.867 154.063C284.509 154.228 284.117 154.306 283.722 154.29C283.327 154.274 282.942 154.165 282.599 153.972C282.302 153.795 282.046 153.558 281.85 153.276C281.654 152.994 281.52 152.674 281.46 152.337C281.294 151.473 280.94 150.655 280.424 149.938C279.908 149.22 279.24 148.621 278.467 148.181L276.415 147.018L288.059 140.41L286.618 137.943L273.545 145.365L271.965 144.468V142.681L285.051 135.248L283.615 132.786L271.963 139.41V137.075C271.971 136.2 271.787 135.335 271.423 134.537C271.059 133.739 270.524 133.028 269.855 132.453C269.571 132.216 269.346 131.917 269.199 131.58C269.052 131.243 268.986 130.877 269.006 130.51C269.026 130.144 269.131 129.787 269.315 129.468C269.498 129.148 269.754 128.875 270.062 128.669C270.166 128.595 270.25 128.498 270.309 128.385C270.367 128.273 270.398 128.149 270.398 128.023C270.413 127.94 270.413 127.855 270.398 127.772L267.973 121.244C267.942 121.145 267.879 121.059 267.794 120.998C267.708 120.938 267.605 120.906 267.5 120.908ZM267.555 135.148C267.963 135.16 268.35 135.328 268.635 135.616C268.919 135.905 269.078 136.291 269.078 136.692V141.058L267.511 141.955L265.941 141.056V136.692C265.941 136.486 265.983 136.282 266.065 136.092C266.147 135.902 266.267 135.73 266.417 135.586C266.568 135.442 266.746 135.33 266.941 135.255C267.137 135.18 267.345 135.142 267.555 135.148ZM267.511 145.011L269.314 146.021V148.039L267.511 149.049L265.705 148.041V146.021L267.511 145.011ZM273.545 148.635L277.378 150.823C277.557 150.924 277.715 151.058 277.842 151.219C277.968 151.379 278.061 151.563 278.116 151.759C278.17 151.955 278.185 152.16 278.158 152.361C278.132 152.563 278.066 152.758 277.963 152.934V152.944C277.753 153.299 277.409 153.558 277.006 153.664C276.602 153.77 276.173 153.715 275.811 153.51L271.965 151.33V149.532L273.545 148.635ZM261.481 148.646L263.061 149.542V151.33L259.216 153.51C259.037 153.611 258.84 153.677 258.635 153.704C258.431 153.73 258.223 153.717 258.024 153.664C257.825 153.612 257.638 153.521 257.475 153.398C257.311 153.274 257.174 153.12 257.071 152.944C256.968 152.769 256.901 152.575 256.874 152.373C256.847 152.172 256.861 151.968 256.914 151.772C256.968 151.576 257.06 151.392 257.185 151.231C257.311 151.07 257.467 150.935 257.646 150.834L261.481 148.646Z" fill="#A6A6A4"/>
</g>
<defs>
<clipPath id="clip0_98_1357">
<rect width="63" height="62" fill="white" transform="translate(236 116)"/>
</clipPath>
</defs>
</svg>
