<svg width="143" height="29" viewBox="0 0 143 29" fill="none" xmlns="http://www.w3.org/2000/svg">
<path fill-rule="evenodd" clip-rule="evenodd" d="M86.161 3.0046C86.161 2.58669 86.2403 2.19761 86.3988 1.83735C86.5574 1.46267 86.7735 1.14564 87.0474 0.886249C87.3212 0.61245 87.6383 0.396291 87.9986 0.237775C88.3589 0.0792583 88.748 0 89.166 0C89.5695 0 89.9515 0.0792583 90.3118 0.237775C90.6865 0.396291 91.0108 0.61245 91.2846 0.886249C91.5729 1.14564 91.7963 1.46267 91.9548 1.83735C92.1133 2.19761 92.1926 2.58669 92.1926 3.0046C92.1926 3.42251 92.1133 3.81159 91.9548 4.17186C91.7963 4.53212 91.5729 4.84915 91.2846 5.12295C91.0108 5.39675 90.6865 5.61291 90.3118 5.77143C89.9515 5.92994 89.5695 6.0092 89.166 6.0092C88.748 6.0092 88.3589 5.92994 87.9986 5.77143C87.6383 5.61291 87.3212 5.39675 87.0474 5.12295C86.7735 4.84915 86.5574 4.53212 86.3988 4.17186C86.2403 3.81159 86.161 3.42251 86.161 3.0046ZM91.998 25.2689C91.998 25.658 91.926 26.0255 91.7818 26.3713C91.6377 26.7028 91.436 26.9982 91.1765 27.2576C90.9315 27.5025 90.6361 27.6971 90.2902 27.8412C89.9587 27.9853 89.5984 28.0573 89.2092 28.0573C88.8201 28.0573 88.4526 27.9853 88.1067 27.8412C87.7752 27.6971 87.4798 27.5025 87.2203 27.2576C86.9609 26.9982 86.7519 26.7028 86.5934 26.3713C86.4493 26.0255 86.3772 25.658 86.3772 25.2689V10.7431C86.3772 10.354 86.4493 9.99372 86.5934 9.66228C86.7519 9.31642 86.9609 9.02101 87.2203 8.77603C87.4798 8.51664 87.7824 8.31489 88.1283 8.17078C88.4886 8.02668 88.8633 7.95463 89.2525 7.95463C89.6416 7.95463 90.0019 8.02668 90.3334 8.17078C90.6649 8.31489 90.9531 8.51664 91.1982 8.77603C91.4576 9.02101 91.6521 9.31642 91.7818 9.66228C91.926 9.99372 91.998 10.354 91.998 10.7431V25.2689ZM101.711 8.24708C101.822 8.07791 102.12 7.838 102.372 7.71398C103.041 7.38534 113.593 7.36863 114.227 7.6954C114.501 7.83672 114.916 8.37968 115.456 9.30286C115.904 10.0696 117.029 11.9507 117.956 13.4831C118.883 15.0155 119.753 16.489 119.89 16.7574C120.389 17.7369 120.213 18.1997 117.746 22.4134C114.726 27.5718 114.687 27.6317 114.135 27.8614C113.764 28.0158 112.504 28.0573 108.198 28.0573C103.433 28.0573 102.682 28.0279 102.342 27.8276C102.087 27.6778 101.269 26.4693 99.9948 24.3626C98.9187 22.5833 97.7031 20.5809 97.2932 19.9129C96.3877 18.4368 96.2568 17.7093 96.7305 16.784C97.0403 16.1788 101.327 8.83162 101.711 8.24708ZM103.849 17.7696C103.86 16.1067 104.772 14.7168 106.378 13.9169C107.12 13.5474 107.411 13.4832 108.338 13.4845C110.167 13.4868 111.55 14.3327 112.358 15.9439C112.731 16.6879 112.795 16.9753 112.795 17.9125C112.795 18.8497 112.731 19.1372 112.358 19.8812C111.557 21.4798 110.072 22.3895 108.264 22.3895C106.949 22.3895 105.916 21.9193 104.998 20.9017C104.211 20.0288 103.841 19.02 103.849 17.7696ZM25.0238 26.3205C25.1594 26.0086 25.2273 25.6695 25.2273 25.3033V16.5552V16.4535C25.2408 16.1144 25.3222 15.7957 25.4714 15.4973C25.6206 15.1989 25.8105 14.9413 26.0411 14.7243C26.2853 14.5072 26.5634 14.3377 26.8754 14.2156C27.1873 14.08 27.5197 14.0122 27.8724 14.0122C28.2386 14.0122 28.5777 14.0732 28.8897 14.1953C29.2152 14.3174 29.4933 14.4937 29.7239 14.7243C29.9681 14.9413 30.158 15.2057 30.2936 15.5177C30.4293 15.8296 30.5039 16.1755 30.5174 16.5552V25.3033C30.5174 25.6695 30.5921 26.0086 30.7413 26.3205C30.8905 26.6325 31.0872 26.9037 31.3313 27.1343C31.5755 27.3648 31.8603 27.5479 32.1859 27.6836C32.5114 27.8192 32.8573 27.887 33.2236 27.887C33.5763 27.887 33.9086 27.8192 34.2206 27.6836C34.5326 27.5479 34.8039 27.3648 35.0345 27.1343C35.2786 26.9037 35.4685 26.6325 35.6042 26.3205C35.7398 26.0086 35.8076 25.6695 35.8076 25.3033V16.5552C35.8076 16.4467 35.8008 16.3654 35.7873 16.3111C35.7466 15.2668 35.5092 14.2835 35.0751 13.3612C34.6546 12.4389 34.0917 11.6387 33.3864 10.9606C32.6946 10.2688 31.8739 9.72633 30.9244 9.33301C29.9884 8.92612 28.9846 8.72268 27.913 8.72268C26.8957 8.72268 25.9326 8.90578 25.0238 9.27198C24.115 9.63817 23.2943 10.14 22.5618 10.7775C21.8565 10.14 21.0426 9.63817 20.1202 9.27198C19.2114 8.90578 18.2415 8.72268 17.2106 8.72268C16.139 8.72268 15.1284 8.92612 14.1789 9.33301C13.2294 9.73989 12.3952 10.296 11.6762 11.0012C10.9709 11.7065 10.408 12.5338 9.98746 13.4832C9.58052 14.4191 9.37705 15.4227 9.37705 16.4942V25.3033C9.37705 25.6695 9.45165 26.0086 9.60086 26.3205C9.75008 26.6325 9.94676 26.9037 10.1909 27.1343C10.4351 27.3648 10.7199 27.5479 11.0455 27.6836C11.371 27.8192 11.7169 27.887 12.0832 27.887C12.4359 27.887 12.7682 27.8192 13.0802 27.6836C13.3922 27.5479 13.6635 27.3648 13.8941 27.1343C14.1382 26.9037 14.3281 26.6325 14.4638 26.3205C14.5994 26.0086 14.6672 25.6695 14.6672 25.3033V16.5552V16.4535C14.6672 16.1009 14.7351 15.7754 14.8707 15.477C15.0199 15.1786 15.2166 14.9209 15.4608 14.7039C15.7049 14.4869 15.983 14.3174 16.295 14.1953C16.6205 14.0732 16.9597 14.0122 17.3123 14.0122C18.0584 14.0122 18.6756 14.2495 19.1639 14.7243C19.6522 15.1854 19.9099 15.7957 19.9371 16.5552V25.3033C19.9371 25.6695 20.0117 26.0086 20.1609 26.3205C20.3101 26.6325 20.5068 26.9037 20.7509 27.1343C20.9951 27.3648 21.28 27.5479 21.6055 27.6836C21.9311 27.8192 22.277 27.887 22.6432 27.887C22.9959 27.887 23.3282 27.8192 23.6402 27.6836C23.9522 27.5479 24.2235 27.3648 24.4541 27.1343C24.6982 26.9037 24.8881 26.6325 25.0238 26.3205ZM43.8647 20.1562C43.6341 19.6137 43.5188 19.0372 43.5188 18.4269C43.5188 17.8166 43.6341 17.2469 43.8647 16.718C44.1088 16.1755 44.4276 15.7076 44.821 15.3142C45.2279 14.9073 45.6959 14.5886 46.2249 14.3581C46.7675 14.1275 47.3372 14.0122 47.934 14.0122C48.5445 14.0122 49.1142 14.1275 49.6432 14.3581C50.1858 14.5886 50.6537 14.9073 51.0471 15.3142C51.4405 15.7076 51.7525 16.1755 51.9831 16.718C52.2137 17.2469 52.329 17.8166 52.329 18.4269C52.329 19.0372 52.2137 19.6137 51.9831 20.1562C51.7525 20.6851 51.4405 21.1531 51.0471 21.5599C50.6537 21.9533 50.1858 22.2652 49.6432 22.4958C49.1142 22.7263 48.5445 22.8416 47.934 22.8416C47.3372 22.8416 46.7675 22.7263 46.2249 22.4958C45.6959 22.2652 45.2279 21.9533 44.821 21.5599C44.4276 21.1531 44.1088 20.6851 43.8647 20.1562ZM39.0018 14.6632C38.4863 15.8296 38.2286 17.0842 38.2286 18.4269C38.2286 19.7561 38.4863 21.0106 39.0018 22.1906C39.5172 23.3706 40.2158 24.4014 41.0975 25.2829C41.9792 26.1645 43.0033 26.863 44.1699 27.3784C45.35 27.8802 46.6047 28.1311 47.934 28.1311C49.2769 28.1311 50.5317 27.8802 51.6982 27.3784C52.8783 26.863 53.9025 26.1645 54.7706 25.2829C55.6523 24.4014 56.3441 23.3706 56.846 22.1906C57.3614 21.0106 57.6192 19.7561 57.6192 18.4269C57.6192 17.0842 57.3614 15.8296 56.846 14.6632C56.3441 13.4832 55.6523 12.4525 54.7706 11.5709C53.9025 10.6893 52.8783 9.99759 51.6982 9.49576C50.5317 8.98037 49.2769 8.72268 47.934 8.72268C46.6047 8.72268 45.35 8.98037 44.1699 9.49576C43.0033 9.99759 41.9792 10.6893 41.0975 11.5709C40.2158 12.4525 39.5172 13.4832 39.0018 14.6632ZM142.784 25.9275C142.928 25.5961 143 25.2358 143 24.8468V17.2812V17.2596V17.1515C143 15.7681 142.748 14.4712 142.243 13.2607C141.739 12.0502 141.04 10.9982 140.146 10.1048C139.267 9.1969 138.229 8.48358 137.033 7.9648C135.837 7.44602 134.547 7.18663 133.164 7.18663C131.78 7.18663 130.49 7.44602 129.294 7.9648C128.112 8.48358 127.082 9.1969 126.202 10.1048C125.323 10.9982 124.631 12.0502 124.127 13.2607C123.623 14.4712 123.37 15.7681 123.37 17.1515V17.1731V17.2812V24.8468C123.37 25.2358 123.45 25.5961 123.608 25.9275C123.767 26.259 123.976 26.5544 124.235 26.8138C124.495 27.0588 124.797 27.2533 125.143 27.3974C125.489 27.5271 125.857 27.592 126.246 27.592C126.635 27.592 126.995 27.5271 127.327 27.3974C127.658 27.2533 127.946 27.0588 128.191 26.8138C128.436 26.5544 128.631 26.259 128.775 25.9275C128.919 25.5961 128.991 25.2358 128.991 24.8468V17.1515C128.991 16.5319 129.092 15.9627 129.294 15.4439C129.496 14.9107 129.777 14.4495 130.137 14.0605C130.512 13.6714 130.951 13.3688 131.456 13.1526C131.975 12.922 132.544 12.8067 133.164 12.8067C133.754 12.8067 134.302 12.9148 134.807 13.131C135.311 13.3471 135.751 13.6498 136.125 14.0388C136.5 14.4135 136.795 14.8602 137.012 15.379C137.242 15.8834 137.372 16.4238 137.401 17.0002C137.386 17.0434 137.379 17.0939 137.379 17.1515V17.2812V24.8468C137.379 25.2358 137.451 25.5961 137.595 25.9275C137.754 26.259 137.963 26.5544 138.222 26.8138C138.496 27.0588 138.806 27.2533 139.152 27.3974C139.498 27.5271 139.865 27.592 140.254 27.592C140.644 27.592 141.004 27.5271 141.335 27.3974C141.667 27.2533 141.955 27.0588 142.2 26.8138C142.445 26.5544 142.64 26.259 142.784 25.9275ZM76.1613 6.3557C75.706 6.55539 70.6895 9.73255 70.1985 10.1322L69.8884 10.3845L70.4455 11.2649C70.7518 11.7492 70.9705 12.1974 70.9314 12.2611C70.8612 12.375 68.8493 13.7093 68.3112 13.9986C68.0633 14.1321 67.9805 14.0557 67.5075 13.257C67.2174 12.7673 66.9142 12.3656 66.8339 12.3642C66.7535 12.363 65.5202 13.113 64.0933 14.031C62.6662 14.9492 61.269 15.8475 60.9882 16.0275C60.2823 16.4801 60.0092 16.9367 60.1128 17.4913C60.2148 18.0372 63.0744 22.4707 63.4073 22.599C63.9465 22.807 64.3631 22.619 66.7556 21.0891C68.133 20.2081 69.3081 19.5418 69.3668 19.6086C69.4254 19.6753 70.4454 21.2791 71.6334 23.1727C72.8217 25.0664 73.9564 26.7939 74.1553 27.0118C74.7281 27.6392 75.7542 28.0593 76.7095 28.0573C79.1583 28.0524 80.9011 25.6964 80.146 23.4117C80.0199 23.0302 78.8964 21.1183 77.6493 19.1629L75.3819 15.608L75.6884 15.3586C75.857 15.2213 76.8564 14.5691 77.9092 13.9091C80.095 12.539 80.5434 12.1059 80.4197 11.4842C80.3091 10.9282 77.8033 6.93343 77.2962 6.50471C76.8394 6.11841 76.7337 6.1045 76.1613 6.3557ZM2.73497 28.1311C4.24546 28.1311 5.46995 26.9067 5.46995 25.3962C5.46995 23.8857 4.24546 22.6612 2.73497 22.6612C1.22449 22.6612 0 23.8857 0 25.3962C0 26.9067 1.22449 28.1311 2.73497 28.1311Z" fill="#3B546C"/>
</svg>
