<svg width="1280" height="236" viewBox="0 0 1280 236" fill="none" xmlns="http://www.w3.org/2000/svg">
<path fill-rule="evenodd" clip-rule="evenodd" d="M-6.48524 31.1311C-22.8552 31.8304 -35.2023 32.7395 -51.5559 34.4497C-54.9583 34.8056 -59.0346 35.1514 -60.6143 35.2182C-66.3625 35.4616 -72.9884 36.595 -81.4683 38.7857C-85.2443 39.7612 -86.3543 40.1346 -86.9917 40.6444C-90.0163 43.0638 -105.786 60.1847 -112.395 68.2249C-113.17 69.1666 -114.81 70.8325 -116.041 71.9262C-117.271 73.0201 -119.152 74.8024 -120.22 75.8871C-122.091 77.7867 -122.201 77.9558 -123.223 80.5015C-125.555 86.3044 -125.744 89.6849 -124.112 96.3949L-123.462 99.0646L-125.31 102.64C-130.042 111.802 -131.011 115.151 -131 122.305C-130.994 126.174 -130.704 128.231 -129.96 129.674C-129.704 130.172 -129.583 131.085 -129.542 132.827C-129.455 136.527 -128.642 139.475 -127.009 142.012C-125.921 143.702 -124.741 144.566 -122.606 145.236C-118.715 146.458 -115.854 146.137 -111.953 144.042C-111.648 143.879 -111.57 144.027 -111.444 144.999C-110.002 156.155 -101.226 165.476 -89.5711 168.227C-81.2955 170.181 -72.193 168.376 -65.3423 163.423C-63.1658 161.85 -59.833 158.417 -58.4639 156.339C-57.0464 154.188 -55.5398 150.958 -54.9007 148.7L-54.3669 146.814L-42.7983 146.767C-29.6306 146.713 -16.2598 146.437 3.34636 145.815C10.8195 145.578 21.1095 145.278 26.2131 145.148C38.927 144.824 76.6472 144.55 83.5457 144.731C99.4165 145.149 107.313 144.869 112.85 143.691L114.428 143.356L116.073 144.974C117.96 146.83 119.809 148.021 121.068 148.191C121.83 148.293 122.069 148.482 122.943 149.678C124.268 151.49 127.218 154.298 129.31 155.739C138.189 161.852 149.885 162.694 159.557 157.916C165.779 154.842 170.771 149.54 173.246 143.374L173.935 141.658L175.393 141.297C177.301 140.824 178.925 140.064 179.939 139.17C180.517 138.66 180.757 138.55 180.757 138.793C180.757 139.31 182.055 140.202 183.244 140.502C183.976 140.686 185.757 140.733 189.099 140.654C192.984 140.563 194.515 140.429 197.106 139.955C198.868 139.633 200.658 139.266 201.083 139.142C201.508 139.017 203.298 138.864 205.06 138.801C209.703 138.637 210.497 138.256 210.92 135.991C211.151 134.759 210.887 133.818 210.058 132.911C209.209 131.984 208.927 130.752 209.138 128.891C210.535 116.522 210.635 115.352 210.648 111.319C210.66 107.558 210.597 106.796 210.064 104.25C208.734 97.8999 206.121 93.1319 201.567 88.7458C198.831 86.1096 195.374 83.8898 192.135 82.6882C191.528 82.4628 189.866 81.6121 188.443 80.7977C184.131 78.3303 178.187 76.1009 173.024 75.0152C170.728 74.5322 166.873 74.386 162.309 74.609C160.998 74.6731 159.922 74.4748 155.239 73.3065C137.346 68.8418 127.755 65.1945 112.656 57.1117C92.1487 46.1342 76.43 39.9196 58.7891 35.8147C49.4115 33.6329 40.193 32.298 27.7596 31.3219C23.8608 31.0157 -0.595352 30.8795 -6.48524 31.1311Z" fill="#EAE8E2"/>
<path fill-rule="evenodd" clip-rule="evenodd" d="M380.526 25.1909C363.952 25.599 351.459 26.5034 336.088 28.4078C324.727 29.8153 319.609 30.9794 315.591 33.0697C313.484 34.1659 312.202 35.3526 312.2 36.2091C312.197 36.9966 311.269 38.6957 310.231 39.8144C308.964 41.1785 305.244 45.8226 302.849 49.0306C299.854 53.0421 298.264 55.4254 294.885 60.9679C290.456 68.2323 289.268 69.6067 285.087 72.2994C280.254 75.4121 279.752 76.2157 280.916 78.9783C281.394 80.1128 281.463 80.5419 281.38 81.8204C281.284 83.2868 281.037 83.9425 279.917 85.7063C279.686 86.0692 279.352 87.1333 279.174 88.0711C278.995 89.0087 278.17 92.2913 277.339 95.3655C275.494 102.197 274.779 105.506 274.696 107.612L274.632 109.217L273.35 110.049C271.788 111.062 269.822 113.002 268.738 114.601C265.969 118.684 265.49 121.823 266.458 129.548C266.77 132.031 267.065 134.181 267.116 134.325C267.166 134.469 267.114 134.644 267.001 134.714C266.604 134.959 266.807 136.874 267.413 138.613C268.209 140.899 269.033 142.278 269.91 142.795C270.349 143.054 270.662 143.436 270.736 143.804C270.921 144.729 272.452 146.303 273.727 146.878C274.783 147.355 275.112 147.39 278.308 147.369C282.31 147.343 283.507 147.088 287.622 145.386L290.205 144.319L290.562 146.285C292.143 154.988 297.449 162.959 304.993 167.963C315.262 174.777 328.736 175.593 339.756 170.068C346.195 166.84 351.744 161.355 354.854 155.143C355.331 154.191 355.744 153.386 355.772 153.354C355.8 153.322 356.103 153.443 356.446 153.621C357 153.91 367.161 153.946 446.895 153.948L536.721 153.949L537.625 153.419C538.458 152.932 538.542 152.799 538.685 151.753L538.839 150.617L539.329 151.907C541.872 158.601 547.422 165.309 553.71 169.288C558.222 172.143 563.905 174.143 569.418 174.815C572.468 175.187 578.336 174.975 581.278 174.385C594.132 171.811 604.607 162.96 608.85 151.089L609.535 149.173L609.762 151.42C610.096 154.72 610.931 156.033 613.153 156.755C616.487 157.839 625.399 155.399 626.405 153.128L626.66 152.552H632.065C638.239 152.552 638.342 152.528 639.448 150.878C640.674 149.049 640.613 146.985 639.289 145.479C638.69 144.797 638.678 144.748 639.083 144.643C639.48 144.539 639.512 144.354 639.501 142.199L639.489 139.867L641.105 135.03C642.808 129.935 643.579 126.724 643.64 124.462L643.677 123.099L643.818 124.496C643.951 125.811 643.961 125.762 643.996 123.677C644.017 122.458 643.95 121.512 643.848 121.575C643.746 121.638 643.609 120.894 643.542 119.922C643.384 117.63 642.883 116.041 642.029 115.126C641.652 114.722 640.523 113.835 639.519 113.155C637.368 111.698 636.923 111.028 636.291 108.291C636.049 107.242 635.271 104.58 634.561 102.375C633.107 97.8568 632.338 96.4547 630.11 94.2582C628.057 92.2334 626.077 91.0529 621.131 88.9057C618.637 87.8226 614.851 86.1562 612.718 85.2025C606.199 82.2876 602.35 81.2 592.817 79.5798C583.583 78.0106 578.107 77.3941 569.791 76.9878C567.128 76.8575 562.383 76.5653 559.246 76.3385C556.11 76.1115 551.82 75.8632 549.713 75.7866L545.883 75.6473L544.656 74.822C542.973 73.6899 540.724 71.7144 528.904 60.9847C511.819 45.4761 506.306 40.597 501.682 36.8891C500.38 35.8452 499.246 34.818 499.163 34.606C498.856 33.8224 495.299 31.958 492.032 30.8683C486.952 29.1735 480.018 28.256 466.067 27.4326C462.93 27.2473 456.006 26.8121 450.68 26.4656C437.906 25.634 433.889 25.4231 426.04 25.1727C418.559 24.934 390.503 24.9452 380.526 25.1909ZM266.014 123.851C266.014 125.093 266.05 125.6 266.093 124.98C266.137 124.359 266.137 123.343 266.093 122.722C266.05 122.102 266.014 122.61 266.014 123.851Z" fill="#EAE8E2"/>
<path fill-rule="evenodd" clip-rule="evenodd" d="M879.009 1.13349C878.71 1.75702 878.25 3.06885 877.987 4.04884L877.508 5.83091L876.948 5.2145C876.64 4.87554 875.97 4.32476 875.46 3.99055C874.636 3.45165 874.495 3.41948 874.208 3.70555C873.761 4.15291 873.547 6.60967 873.242 14.8216C872.967 22.2383 873.034 23.6153 873.687 23.9647C874.216 24.2477 876.193 24.2432 876.727 23.9577C877.083 23.7671 877.145 23.807 877.148 24.2276C877.15 24.499 877.242 25.8383 877.352 27.2039C877.463 28.5694 877.663 32.4054 877.797 35.7284C877.931 39.0511 878.116 42.1753 878.209 42.6705C878.368 43.524 878.348 43.5771 877.815 43.6842C876.339 43.9806 874.604 45.856 873.983 47.8265C873.777 48.4775 873.505 49.0108 873.379 49.0118C872.142 49.0205 869.439 49.5032 868.924 49.8072C868.015 50.3435 867.719 51.4272 868.038 53.0497C868.225 53.9981 868.449 54.4494 868.967 54.9203C869.646 55.5362 869.667 55.5401 871.876 55.4419C873.768 55.3579 874.121 55.3944 874.231 55.685C874.512 56.4245 875.765 58.0623 876.208 58.2672C876.607 58.452 876.658 58.6105 876.558 59.3534C876.412 60.4407 876.863 64.1236 877.3 65.4188C878.244 68.2147 879.877 70.1689 881.983 71.0234C882.939 71.4112 883.151 71.5787 882.966 71.8013C882.634 72.2014 882.898 73.7512 883.736 76.3219C885.395 81.4097 888.993 89.7593 890.142 91.1882C890.725 91.9132 890.886 92.3934 891.22 94.3889C891.73 97.4347 892.367 99.9098 894.076 105.483C897.847 117.776 898.655 123.202 898.138 132.735C897.599 142.688 896.264 151.347 894.296 157.659C893.355 160.676 890.882 165.696 889.464 167.466C888.453 168.728 888.284 168.841 886.105 169.692C880.673 171.815 875.214 172.75 864.552 173.386C859.82 173.668 857.958 173.545 852.314 172.583C845.941 171.496 839.983 169.725 835.777 167.666C832.371 165.999 830.001 164.285 827.12 161.405C822.837 157.122 821.099 153.816 820.562 148.931C820.093 144.664 821.263 138.581 823.227 135.069C824.426 132.927 826.815 128.092 827.879 125.656C828.423 124.409 829.58 122.207 830.45 120.761L832.031 118.134L833.148 117.874C834.992 117.444 837.209 116.303 838.502 115.118C840.573 113.22 841.192 111.045 841.014 106.28C840.93 104.03 840.794 103.006 840.453 102.055C839.403 99.1254 838.044 97.0543 835.857 95.0475C832.872 92.3083 829.01 90.7374 824.76 90.5331C822.665 90.4325 821.74 90.5243 816.966 91.3067C801.682 93.8116 794.835 93.8375 788.392 91.4144C786.598 90.74 783.248 89.0533 781.568 87.9792C778.471 85.9992 775.717 85.2763 771.32 85.2895C766.67 85.3035 763.672 86.1991 762.631 87.8862C762.346 88.3469 762.065 88.6973 762.006 88.6649C761.946 88.6323 761.266 88.3063 760.494 87.9401C757.825 86.6745 758.003 86.6853 739.972 86.6853C720.649 86.6853 719.73 86.7568 717.763 88.4106C715.686 90.1579 716.173 93.999 719.038 98.4639L720.149 100.194L719.564 101.86C719.017 103.418 718.639 104.186 716.086 108.92C715.469 110.064 715.146 110.901 715.225 111.151C715.327 111.471 714.928 111.838 713.243 112.974C712.082 113.756 710.561 114.859 709.862 115.425C709.076 116.061 708.682 116.282 708.83 116.004C709.025 115.641 708.989 115.45 708.646 115.014C707.659 113.76 701.304 113.638 697.967 114.809C696.533 115.313 694.895 116.953 694.008 118.774C692.464 121.942 691.127 127.07 691.111 129.884C691.102 131.392 691.462 132.213 692.239 132.459C692.947 132.684 694.748 131.671 696.521 130.053L698.11 128.601L697.513 129.773C697.184 130.418 696.709 131.451 696.456 132.068C696.06 133.034 695.772 133.342 694.386 134.281C693.501 134.881 692.609 135.372 692.404 135.372C691.58 135.372 689.513 136.342 688.655 137.133C687.512 138.186 686.921 139.558 686.719 141.626C686.59 142.944 686.458 143.349 685.995 143.839C685.684 144.169 685.314 144.754 685.174 145.141C684.847 146.043 684.846 148.235 685.173 149.121C685.912 151.124 688.043 153.083 691.292 154.747L693.269 155.759L692.723 157.278C691.91 159.543 690.492 162.49 688.752 165.531C687.158 168.316 683.65 173.67 682.414 175.206C680.422 177.679 679.548 179.704 680.228 180.268C681.593 181.4 689.045 174.834 694.486 167.704C697.562 163.673 698.889 162.341 700.777 161.388C702.027 160.757 702.141 160.74 705.192 160.74C706.998 160.74 708.951 160.867 709.802 161.038L711.279 161.336L710.234 161.916C707.008 163.705 702.236 167.302 700.777 169.043C700.532 169.335 699.885 170.064 699.338 170.663C697.861 172.279 696.136 174.705 694.647 177.26C686.781 190.754 688.058 208.362 697.803 220.755C699.252 222.598 702.936 226.268 704.676 227.603C716.709 236.835 732.141 238.575 745.661 232.225C752.462 229.031 759.125 222.992 762.647 216.83L763.396 215.52L766.859 215.511C769.129 215.506 770.918 215.384 772.051 215.159C773.001 214.969 775.091 214.621 776.695 214.384C781.677 213.649 782.657 213.234 786.46 210.256C788.742 208.468 790.411 207.497 791.925 207.076C792.4 206.944 794.563 206.541 796.732 206.181C802.833 205.167 805.817 204.154 807.064 202.673C807.351 202.332 807.586 201.825 807.586 201.546C807.586 200.671 806.597 199.754 805.183 199.321L803.895 198.925L805.362 198.655C810.873 197.638 821.14 197.946 852.086 200.056C869.076 201.215 877.146 201.455 881.166 200.924C889.399 199.835 898.333 195.954 905.983 190.143C906.934 189.421 907.821 188.728 907.955 188.603C908.089 188.478 908.964 187.697 909.899 186.868C911.77 185.21 914.415 182.36 916.43 179.833L917.732 178.199L918.986 178.287C919.676 178.336 920.834 178.237 921.56 178.068L922.879 177.761L921.957 179.722C917.075 190.098 916.986 202.21 921.714 212.618C923.394 216.317 926.242 220.577 928.903 223.373C929.69 224.201 932.578 226.855 933.427 227.532C937.212 230.551 943.321 233.478 948.539 234.772C952.591 235.778 958.809 236.058 963.093 235.43C976.587 233.449 988.041 224.814 993.573 212.45C998.958 200.417 997.944 186.377 990.902 175.467C988.117 171.153 984.118 166.948 980.235 164.253C979.37 163.653 978.703 163.122 978.751 163.074C978.8 163.025 979.979 163.143 981.372 163.335C984.137 163.718 985.349 163.628 985.919 162.998C986.196 162.692 986.387 162.641 986.68 162.798C987.723 163.357 988.905 162.669 989.169 161.35C989.508 159.657 987.047 156.723 983.093 154.106C980.956 152.691 979.605 151.476 979.12 150.531C978.98 150.259 978.633 148.914 978.348 147.541C977.742 144.619 976.916 142.745 975.675 141.478C973.716 139.477 970.409 137.732 966.901 136.847C965.46 136.483 964.075 136.382 958.584 136.236C952.385 136.072 947.351 135.678 947.351 135.358C947.351 135.279 947.64 134.514 947.994 133.657C950.294 128.082 949.529 122.156 945.41 113.659C944.601 111.988 943.54 109.97 943.052 109.175C942.565 108.379 942.167 107.68 942.167 107.621C942.167 107.562 941.839 107.005 941.438 106.383C941.037 105.762 940.147 104.379 939.46 103.31C934.569 95.6999 929.347 88.6913 925.145 84.0945C920.576 79.0974 918.021 76.4381 912.256 70.6823C908.555 66.9867 905.32 63.8973 905.067 63.8172C904.685 63.6961 904.614 63.5186 904.647 62.7718C904.679 62.0509 904.608 61.8562 904.287 61.7903C903.596 61.6487 901.256 63.451 900.421 64.767C899.422 66.342 899.179 67.1411 899.178 68.8514L899.177 70.2766L898.237 70.2814C897.57 70.2848 897.083 70.4463 896.563 70.8365C895.223 71.8428 895.203 71.7653 896.413 70.2596C898.8 67.2892 899.404 64.935 897.86 64.6262L897.241 64.5025L898.179 63.7872C899.238 62.9786 899.72 62.1096 899.941 60.6091C900.145 59.228 900.733 58.4192 902.532 57.0482C905.538 54.7566 907.19 52.6803 906.853 51.618C906.778 51.3833 906.317 50.822 905.828 50.3705C902.769 47.5463 902.279 46.929 901.458 44.8671C900.419 42.2582 899.835 41.2749 898.734 40.2805C896.661 38.4084 894.984 38.2076 892.104 39.4862C889.759 40.5277 888.671 40.879 888.368 40.6922C887.773 40.3241 887.386 38.3587 886.33 30.3345C885.51 24.1022 885.037 21.0126 884.743 19.9711C884.597 19.4553 884.664 19.1569 885.073 18.5051C885.737 17.4454 885.985 16.0673 885.764 14.6691C885.212 11.1767 880.62 0 879.738 0C879.636 0 879.308 0.509964 879.009 1.13349ZM906.677 17.2747C905.676 18.0623 905.333 19.4244 905.349 22.5619C905.364 25.357 905.623 27.2261 906.831 33.2492C907.284 35.5038 907.298 35.7461 906.98 35.8836C906.788 35.9672 906.129 36.2427 905.516 36.4961C904.236 37.0244 903.808 37.7358 903.864 39.2413C903.953 41.6413 904.985 42.7489 907.133 42.7489C908.399 42.7489 908.466 42.7757 908.609 43.3426C908.692 43.6691 908.763 45.0051 908.768 46.3113C908.776 48.4477 908.716 48.8272 908.17 50.0896C907.837 50.8615 907.518 51.6873 907.462 51.9248C907.323 52.5116 908.124 53.3256 908.854 53.3386C909.312 53.3468 909.627 53.6108 910.304 54.5541C912.171 57.1585 914.233 58.4265 915.647 57.8408C917.013 57.2756 918.141 55.3141 917.912 53.9027L917.794 53.1777L919.017 53.4655C919.69 53.6238 920.661 53.7548 921.175 53.7565C922.996 53.7632 923.774 52.3197 924.867 46.9074C926.344 39.5861 926.608 31.308 925.484 27.5558C925.344 27.0912 924.922 26.3845 924.546 25.9857C923.932 25.3354 923.741 25.2607 922.685 25.2607C921.053 25.2607 918.705 25.919 917.062 26.8375C914.965 28.0096 913.026 30.2606 912.99 31.5651L912.976 32.0617L912.787 31.5917C912.683 31.3332 912.241 29.5844 911.805 27.7054C910.342 21.4027 909.396 18.7191 908.184 17.4342C907.515 16.725 907.393 16.712 906.677 17.2747ZM877.275 19.9711C877.429 21.3971 877.489 21.5496 877.783 21.252C877.904 21.129 877.817 20.5886 877.559 19.8631L877.135 18.6757L877.275 19.9711ZM882.972 21.0597C882.336 21.8309 880.958 22.6699 880.327 22.6699H879.686L879.824 24.0193C879.899 24.7616 880.06 29.1092 880.181 33.681C880.381 41.2123 880.544 43.6279 880.876 43.9597C881.136 44.219 884.493 42.9918 885.052 42.4335C886.016 41.4695 886.006 39.1669 885.006 32.3836C884.577 29.4754 884.016 25.6506 883.759 23.8843C883.337 20.9882 883.259 20.7108 882.972 21.0597ZM894.73 72.3817L894.318 72.8675L894.804 72.4562C895.261 72.0697 895.388 71.8959 895.216 71.8959C895.175 71.8959 894.956 72.1144 894.73 72.3817ZM892.925 75.1459C892.54 75.8687 892.284 76.5199 892.357 76.5927C892.564 76.7995 892.838 76.3988 893.132 75.4583C893.281 74.9833 893.501 74.471 893.621 74.3196C893.741 74.1683 893.792 73.9966 893.733 73.9379C893.674 73.8792 893.311 74.4228 892.925 75.1459ZM903.945 77.1676C903.922 77.4941 906.921 83.404 907.405 83.9865C907.651 84.2834 907.409 83.6931 906.867 82.6749C906.325 81.6567 905.449 79.9564 904.92 78.8966C904.391 77.8367 903.952 77.0588 903.945 77.1676ZM922.294 107.412C922.294 107.531 922.484 107.939 922.716 108.319C923.196 109.107 924.039 111.011 925.563 114.753C926.688 117.513 926.823 116.938 925.742 113.997C924.964 111.883 922.294 106.783 922.294 107.412ZM918.335 149.307C917.828 150.371 917.899 150.552 918.429 149.547C918.67 149.09 918.829 148.679 918.783 148.632C918.736 148.585 918.535 148.889 918.335 149.307ZM917.562 150.969C917.448 151.268 916.909 152.398 916.365 153.481C915.821 154.565 915.425 155.451 915.484 155.451C915.667 155.451 918.006 150.663 917.883 150.54C917.82 150.477 917.675 150.67 917.562 150.969ZM761.706 174.76C761.772 174.931 761.963 175.018 762.13 174.954C762.495 174.814 762.323 174.45 761.892 174.45C761.716 174.45 761.638 174.581 761.706 174.76ZM953.616 176.205C948.822 177.208 943.429 180.525 940.927 184.01L940.228 184.984L940.791 185.125C941.1 185.203 942.338 185.803 943.542 186.459C946.819 188.244 952.633 191.017 954.097 191.492C955.636 191.991 955.551 192.372 956.728 179.74C956.894 177.959 957.098 176.331 957.182 176.123C957.312 175.801 957.211 175.748 956.501 175.761C956.043 175.769 954.744 175.969 953.616 176.205ZM725.152 176.294C722.619 176.85 718.144 178.615 718.462 178.933C718.673 179.144 727.662 181.867 727.761 181.75C727.792 181.713 727.925 180.53 728.057 179.121C728.188 177.712 728.407 176.425 728.543 176.26C728.75 176.012 728.596 175.965 727.631 175.983C726.993 175.995 725.877 176.135 725.152 176.294ZM964.205 176.722C964.534 177.119 964.419 179.512 963.779 185.569C963.238 190.682 963.209 192.551 963.668 192.727C963.85 192.797 967.18 192.453 971.067 191.962C974.954 191.472 978.45 191.072 978.836 191.073C979.222 191.074 979.538 190.965 979.538 190.83C979.538 190.367 977.647 186.595 976.761 185.291C974.16 181.463 970.152 178.445 965.621 176.902C963.852 176.3 963.855 176.301 964.205 176.722ZM735.665 177.184C735.813 177.573 735.811 178.407 735.659 179.766C735.536 180.87 735.435 181.875 735.435 181.998C735.435 182.146 736.93 182.224 739.81 182.228C742.215 182.231 744.573 182.321 745.048 182.429L745.912 182.625L745.048 181.871C743.676 180.673 741.264 178.997 739.972 178.344C738.973 177.838 735.83 176.609 735.536 176.609C735.486 176.609 735.544 176.868 735.665 177.184ZM937.026 191.552C936.329 193.956 936.118 195.469 936.118 198.043C936.118 201.735 936.909 204.985 938.652 208.454C938.95 209.048 939.228 209.572 939.269 209.618C939.311 209.663 939.858 209.21 940.485 208.61C941.113 208.011 942.198 207.05 942.897 206.476C943.596 205.902 944.967 204.752 945.943 203.921C946.919 203.09 948.097 202.102 948.561 201.727C949.92 200.625 950.807 199.683 950.807 199.34C950.807 198.629 949.672 197.82 942.491 193.416C940.352 192.105 938.35 190.795 938.042 190.506L937.482 189.979L937.026 191.552ZM980.311 197.957C980.129 198.25 978.775 198.539 973.088 199.499C967.647 200.417 965.325 200.993 964.75 201.567C964.136 202.181 964.383 203.116 965.96 206.142C970.515 214.884 970.721 215.318 970.639 216.017L970.559 216.704L971.97 215.675C976.728 212.207 980.184 205.844 980.553 199.873C980.673 197.931 980.614 197.466 980.311 197.957ZM954.847 205.594C953.456 206.594 948.224 210.558 946.039 212.268C943.839 213.99 943.359 214.159 942.481 213.521C942.13 213.266 942.426 213.606 943.139 214.277C945.711 216.697 949.265 218.654 952.751 219.568C955.389 220.259 959.596 220.402 962.406 219.895C964.225 219.566 964.453 219.48 964.019 219.286C963.493 219.05 962.774 217.659 959.091 209.764C958.097 207.634 957.137 205.666 956.957 205.392C956.513 204.715 956.002 204.764 954.847 205.594ZM708.872 206.268C708.883 206.653 710.483 209.689 710.672 209.683C710.765 209.679 711.396 209.148 712.074 208.502L713.307 207.327L711.086 206.676C709.685 206.265 708.867 206.114 708.872 206.268ZM719.889 210.452C719.132 211.016 718.116 211.795 717.631 212.182C715.859 213.598 714.84 214.182 714.384 214.044C713.033 213.633 717.776 217.27 719.749 218.157C723.56 219.869 725.48 220.305 729.279 220.319C730.971 220.325 733.042 220.197 733.981 220.029C735.525 219.751 735.624 219.703 735.222 219.422C734.701 219.058 734.45 218.603 732.737 214.932C732.017 213.388 731.332 211.97 731.217 211.78C731.072 211.542 729.581 211.121 726.437 210.43C723.924 209.878 721.731 209.426 721.566 209.426C721.4 209.426 720.645 209.888 719.889 210.452ZM741.387 214.197C741.584 214.578 741.808 215.326 741.885 215.858L742.024 216.826L743.614 215.559L745.205 214.292L743.938 214.044C743.242 213.908 742.302 213.731 741.85 213.65L741.028 213.505L741.387 214.197Z" fill="#EAE8E2"/>
<path fill-rule="evenodd" clip-rule="evenodd" d="M1260.47 43.4799C1259.03 44.6095 1258.46 46.8038 1258.97 49.2506C1259.76 53.0061 1261.56 56.5068 1267.65 66.1666C1271.78 72.7273 1273.67 76.3104 1274.27 78.7637C1274.65 80.2774 1274.65 80.4076 1274.27 80.7899C1273.7 81.3573 1271.42 81.4027 1258.02 81.1133C1250.37 80.9478 1238.8 80.957 1220.99 81.1425C1201.36 81.3467 1189.72 81.3424 1172.85 81.1236C1160.62 80.9652 1150.58 80.8046 1150.54 80.7667C1150.5 80.7291 1150.73 79.9781 1151.06 79.0979C1151.78 77.1045 1152.04 75.2789 1151.69 74.6302C1151.55 74.363 1150.93 73.9106 1150.32 73.6251C1148.38 72.7133 1121.73 66.2659 1091.04 59.2818C1075.59 55.7674 1072.66 55.1611 1069.84 54.9074C1066.01 54.5625 1063.12 55.7616 1061.85 58.2183C1061.32 59.248 1061.28 60.1521 1061.72 61.1821C1062.02 61.886 1062 61.9384 1060.76 63.1113C1059.38 64.4298 1058.81 65.8087 1059.08 67.225C1059.4 68.9203 1060.67 69.8018 1064.78 71.1602C1066.04 71.5789 1067.22 72.0108 1067.39 72.12C1067.62 72.2611 1067.23 72.667 1066.06 73.5173C1061.37 76.9362 1052.74 85.1577 1047.13 91.5679C1038.58 101.325 1028.82 113.903 1022.05 123.883C1016.47 132.101 1014.04 136.867 1012.86 141.91C1012.62 142.938 1012.35 143.779 1012.26 143.779C1011.75 143.779 1011.01 142.488 1010.78 141.165C1010.32 138.574 1009.11 137.796 1006.75 138.578C1004.96 139.169 1003.68 140.406 1002.56 142.61C1001.96 143.805 1001.4 144.597 1001.06 144.728C1000.77 144.844 999.982 145.13 999.317 145.366C996.61 146.323 994.016 149.911 994 152.721C993.99 154.644 994.513 155.159 997.196 155.865C998.575 156.229 999.784 156.751 1000.86 157.448C1003.41 159.1 1005.99 159.76 1007.85 159.23C1008.28 159.106 1008.63 159.079 1008.63 159.169C1008.62 159.259 1008.46 160.039 1008.27 160.901C1007.73 163.37 1007.79 165.327 1008.45 166.073C1009.5 167.265 1012.28 167.324 1019.28 166.303C1033.02 164.299 1042.59 161.407 1048.93 157.342C1054.77 153.596 1058.46 149.023 1064.17 138.459C1065.96 135.156 1067.53 133.221 1070.3 130.924C1078.86 123.828 1088.05 120.758 1099.49 121.177C1105.23 121.388 1109.07 122.602 1113.66 125.664C1116.43 127.506 1117.18 128.242 1114.94 126.921C1113.85 126.274 1111.99 125.345 1110.83 124.857C1090.65 116.423 1067.69 126.627 1061.2 146.914C1060.11 150.321 1059.64 153.513 1059.64 157.404C1059.64 163.059 1060.67 167.464 1063.21 172.636C1068.28 182.977 1078.15 190.299 1089.67 192.265C1093.4 192.902 1098.84 192.902 1102.57 192.265C1107.65 191.397 1112.45 189.481 1116.92 186.532C1119.67 184.717 1124.25 180.325 1126.04 177.782C1132.77 168.227 1134.47 156.418 1130.64 145.713C1130.24 144.588 1129.94 143.634 1129.99 143.591C1130.15 143.425 1131.85 147.808 1132.3 149.583C1132.57 150.62 1133.11 153.184 1133.5 155.28C1134.31 159.572 1134.91 161.599 1135.98 163.603C1138.06 167.512 1140.93 169.085 1146.02 169.096C1147.62 169.099 1148.17 169.202 1148.91 169.631C1150.67 170.669 1155.87 170.694 1246.53 170.085C1288.98 169.801 1296.07 169.64 1299.71 168.88C1303.18 168.157 1305.77 166.798 1308 164.54C1310.99 161.499 1312.32 158.878 1314.52 151.668C1316.4 145.505 1317.57 143.237 1323.6 134.132C1328.11 127.332 1330.56 124.968 1335.62 122.568C1341.63 119.717 1349.66 118.399 1356.4 119.161C1360.18 119.589 1364.46 120.502 1367.29 121.484C1372.38 123.25 1374.44 124.631 1379.84 129.906C1386.39 136.315 1386.93 137.196 1388.84 144.644C1389.5 147.214 1390.33 150.105 1390.68 151.069C1392.03 154.834 1395.97 161.78 1397.57 163.24C1400.31 165.745 1406.4 165.293 1412.85 162.104C1416.46 160.322 1418.59 158.192 1418.59 156.363C1418.59 155.601 1418.94 155.698 1420.86 157.006C1423.38 158.71 1423.98 158.972 1425.42 158.966C1430.69 158.944 1434.1 152.242 1432.01 145.991C1431.05 143.118 1428.41 138.961 1426.57 137.415C1424.56 135.731 1423.1 137.347 1421.99 142.491C1421.7 143.796 1421.33 145.006 1421.16 145.179C1420.99 145.352 1420.23 145.557 1419.48 145.634L1418.11 145.775V144.921C1418.11 143.69 1417.22 138.659 1416.62 136.544C1415.86 133.841 1412.76 126.267 1410.85 122.436C1408.68 118.092 1406.26 114.889 1402.1 110.853C1396.14 105.059 1390.02 100.847 1381.12 96.4058C1372.58 92.1491 1362.78 88.3355 1354.7 86.1243C1342.87 82.886 1323.62 80.5205 1296.98 79.0304C1286.6 78.4494 1285.42 78.1678 1283.21 75.7343C1281.96 74.3529 1280.36 71.6756 1274.47 61.0615C1269.35 51.8493 1265.61 46.0796 1263.43 44.05C1262.14 42.8423 1261.45 42.7104 1260.47 43.4799ZM1348.53 121.983C1332.21 123.725 1319.19 135.331 1316.06 150.948C1315.41 154.185 1315.47 160.946 1316.18 164.202C1319.39 178.991 1330.94 189.836 1346.19 192.376C1349.32 192.897 1356.69 192.765 1359.54 192.136C1374.1 188.927 1384.75 178.486 1387.92 164.329C1388.69 160.886 1388.67 153.896 1387.89 150.3C1386.39 143.41 1383.26 137.714 1378.19 132.677C1372.83 127.35 1366.5 123.985 1359.12 122.551C1356.59 122.058 1350.76 121.745 1348.53 121.983Z" fill="#EAE8E2"/>
</svg>
