<svg width="966" height="1868" viewBox="0 0 966 1868" fill="none" xmlns="http://www.w3.org/2000/svg">
<path fill-rule="evenodd" clip-rule="evenodd" d="M1686.16 1335.95L795.323 285.275C729.073 207.139 611.994 197.528 533.82 263.81C455.645 330.092 445.979 447.166 512.229 525.303L1403.07 1575.98C1469.32 1654.11 1586.39 1663.72 1664.57 1597.44C1742.74 1531.16 1752.41 1414.08 1686.16 1335.95ZM502.823 227.252C404.449 310.661 392.284 457.987 475.653 556.314L1366.49 1606.99C1449.86 1705.31 1597.19 1717.41 1695.57 1634C1793.94 1550.59 1806.1 1403.26 1722.73 1304.94L831.898 254.264C748.529 155.937 601.197 143.843 502.823 227.252Z" fill="#253F54"/>
<path fill-rule="evenodd" clip-rule="evenodd" d="M1641.43 1371.39L753.048 323.603C707.479 269.857 626.954 263.241 573.192 308.825C519.429 354.409 512.787 434.932 558.356 488.677L1446.74 1536.46C1492.31 1590.21 1572.84 1596.82 1626.6 1551.24C1680.36 1505.65 1687 1425.13 1641.43 1371.39ZM542.172 272.241C468.198 334.961 459.059 445.756 521.76 519.706L1410.15 1567.49C1472.85 1641.44 1583.64 1650.54 1657.62 1587.82C1731.59 1525.1 1740.73 1414.31 1678.03 1340.36L789.645 292.574C726.944 218.623 616.147 209.52 542.172 272.241Z" fill="#3B546C"/>
<path fill-rule="evenodd" clip-rule="evenodd" d="M1594.07 1408.89L708.9 364.899C684.593 336.232 641.768 332.596 613.247 356.778C584.726 380.96 581.31 423.803 605.616 452.471L1490.78 1496.46C1515.09 1525.13 1557.92 1528.76 1586.44 1504.58C1614.96 1480.4 1618.37 1437.55 1594.07 1408.89ZM582.254 320.224C533.648 361.436 527.825 434.45 569.248 483.306L1454.42 1527.29C1495.84 1576.15 1568.82 1582.35 1617.43 1541.13C1666.04 1499.92 1671.86 1426.91 1630.44 1378.05L745.267 334.064C703.844 285.209 630.86 279.012 582.254 320.224Z" fill="#C66D2C"/>
</svg>
