<svg width="239" height="65" viewBox="0 0 239 65" fill="none" xmlns="http://www.w3.org/2000/svg">
<path d="M83 35.2103C83 39.3642 81.5615 42.8791 78.6845 45.7549C75.8074 48.585 72.2575 50.0001 68.0348 50.0001C63.7657 50.0001 60.1926 48.585 57.3155 45.7549C54.4385 42.9247 53 39.4099 53 35.2103V11.6562C53 10.2867 53.4176 9.16838 54.2529 8.30108C55.1346 7.43377 56.2715 7.00012 57.6636 7.00012C59.0557 7.00012 60.1926 7.43377 61.0742 8.30108C61.9559 9.16838 62.3968 10.2867 62.3968 11.6562V15.2852H78.3364C79.7285 15.2852 80.8422 15.7188 81.6775 16.5861C82.5592 17.4078 83 18.5033 83 19.8727C83 22.9768 81.4455 24.5288 78.3364 24.5288H62.3968V35.2103C62.3968 36.7623 62.9304 38.0861 63.9977 39.1816C65.1114 40.2315 66.4571 40.7565 68.0348 40.7565C69.6125 40.7565 70.935 40.2315 72.0023 39.1816C73.0696 38.0861 73.6032 36.7623 73.6032 35.2103V34.5941C73.6032 33.2703 74.0441 32.1747 74.9258 31.3074C75.8538 30.4401 76.9907 30.0065 78.3364 30.0065C79.6821 30.0065 80.7958 30.4401 81.6775 31.3074C82.5592 32.1747 83 33.2703 83 34.5941V35.2103Z" fill="#C66D2C"/>
<path d="M48.006 45.3667C48.006 46.7498 47.5863 47.8793 46.747 48.7553C45.9076 49.5852 44.8253 50.0001 43.5 50.0001C42.1747 50.0001 41.0924 49.5852 40.253 48.7553C39.4578 47.8793 39.0602 46.7498 39.0602 45.3667V19.433C39.0602 18.0499 39.4578 16.9434 40.253 16.1135C41.0924 15.2376 42.1747 14.7996 43.5 14.7996C46.504 14.7996 48.006 16.3441 48.006 19.433V45.3667ZM43.5 0.00012207C41.998 0.00012207 40.6948 0.576425 39.5904 1.72903C38.5301 2.83553 38 4.17255 38 5.74009C38 7.30764 38.5301 8.66771 39.5904 9.82032C40.6948 10.9268 41.998 11.4801 43.5 11.4801C45.002 11.4801 46.2831 10.9268 47.3434 9.82032C48.4478 8.66771 49 7.30764 49 5.74009C49 4.17255 48.4478 2.83553 47.3434 1.72903C46.2831 0.576425 45.002 0.00012207 43.5 0.00012207Z" fill="#C66D2C"/>
<path d="M17.9648 41.3307C20.3131 41.3307 22.3092 40.5137 23.953 38.8797C25.6438 37.199 26.4892 35.1915 26.4892 32.8573C26.4892 30.523 25.6438 28.5389 23.953 26.9049C22.3092 25.2709 20.3131 24.4539 17.9648 24.4539C15.6164 24.4539 13.6204 25.2709 11.9765 26.9049C10.3327 28.5389 9.51076 30.523 9.51076 32.8573V60.2382C9.51076 61.6388 9.06458 62.7826 8.17221 63.6696C7.27984 64.5566 6.12916 65.0001 4.72016 65.0001C3.31115 65.0001 2.16047 64.5566 1.2681 63.6696C0.422701 62.7826 0 61.6388 0 60.2382V32.8573C0 27.8152 1.71429 23.5902 5.14286 20.1822C8.6184 16.7275 12.8924 15.0001 17.9648 15.0001C23.0372 15.0001 27.3112 16.7275 30.7867 20.1822C34.2622 23.5902 36 27.8152 36 32.8573C36 37.8993 34.2622 42.1476 30.7867 45.6024C27.3112 49.0571 23.0372 50.7844 17.9648 50.7844C16.5558 50.7844 15.4051 50.3409 14.5127 49.4539C13.6673 48.5669 13.2446 47.4231 13.2446 46.0225C13.2446 44.622 13.6673 43.5015 14.5127 42.6612C15.4051 41.7742 16.5558 41.3307 17.9648 41.3307Z" fill="#C66D2C"/>
<path d="M146 35.5543C146 39.6116 144.609 43.0447 141.828 45.8536C139.047 48.618 135.616 50.0001 131.534 50.0001C127.407 50.0001 123.953 48.618 121.172 45.8536C118.391 43.0893 117 39.6562 117 35.5543V12.5479C117 11.2103 117.404 10.118 118.211 9.27082C119.063 8.42369 120.162 8.00012 121.508 8.00012C122.854 8.00012 123.953 8.42369 124.805 9.27082C125.657 10.118 126.084 11.2103 126.084 12.5479V16.0925H141.492C142.838 16.0925 143.914 16.516 144.722 17.3632C145.574 18.1657 146 19.2358 146 20.5734C146 23.6052 144.497 25.1211 141.492 25.1211H126.084V35.5543C126.084 37.0702 126.599 38.3632 127.631 39.4332C128.708 40.4587 130.009 40.9715 131.534 40.9715C133.059 40.9715 134.337 40.4587 135.369 39.4332C136.401 38.3632 136.916 37.0702 136.916 35.5543V34.9524C136.916 33.6594 137.343 32.5893 138.195 31.7422C139.092 30.895 140.191 30.4715 141.492 30.4715C142.793 30.4715 143.869 30.895 144.722 31.7422C145.574 32.5893 146 33.6594 146 34.9524V35.5543Z" fill="#C66D2C"/>
<path d="M104.305 26.3072C103.527 27.0657 103.137 28.0027 103.137 29.1182L103.069 36.882C103.023 40.5408 101.695 43.6419 99.084 46.1852C96.5191 48.7285 93.3588 50.0001 89.6031 50.0001C88.229 50.0001 87.1069 49.5985 86.2366 48.7954C85.4122 47.9476 85 46.8545 85 45.5159C85 44.1773 85.4122 43.0841 86.2366 42.2363C87.1069 41.3886 88.229 40.9647 89.6031 40.9647C90.7939 40.9647 91.7786 40.5854 92.5573 39.8269C93.3817 39.0237 93.7939 38.0421 93.7939 36.882C93.7939 36.4804 93.7939 36.0342 93.7939 35.5434C93.8397 33.7586 93.8626 32.844 93.8626 32.7993V29.1182C93.8626 25.4148 95.145 22.3138 97.7099 19.8151C100.321 17.2718 103.527 16.0001 107.328 16.0001C108.702 16.0001 109.824 16.424 110.695 17.2718C111.565 18.0749 112 19.1458 112 20.4844C112 21.7783 111.588 22.8269 110.763 23.63C109.939 24.4332 108.84 24.9017 107.466 25.0356C106.137 25.1248 105.084 25.5487 104.305 26.3072Z" fill="#C66D2C"/>
<path d="M220.965 41.804C223.313 41.804 225.309 41.0034 226.953 39.4021C228.644 37.755 229.489 35.7877 229.489 33.5001C229.489 31.2125 228.644 29.2681 226.953 27.6668C225.309 26.0655 223.313 25.2648 220.965 25.2648C218.616 25.2648 216.62 26.0655 214.977 27.6668C213.333 29.2681 212.511 31.2125 212.511 33.5001V60.3335C212.511 61.706 212.065 62.8269 211.172 63.6962C210.28 64.5655 209.129 65.0001 207.72 65.0001C206.311 65.0001 205.16 64.5655 204.268 63.6962C203.423 62.8269 203 61.706 203 60.3335V33.5001C203 28.5589 204.714 24.4184 208.143 21.0786C211.618 17.6929 215.892 16.0001 220.965 16.0001C226.037 16.0001 230.311 17.6929 233.787 21.0786C237.262 24.4184 239 28.5589 239 33.5001C239 38.4413 237.262 42.6047 233.787 45.9903C230.311 49.3759 226.037 51.0687 220.965 51.0687C219.556 51.0687 218.405 50.6341 217.513 49.7648C216.667 48.8955 216.245 47.7746 216.245 46.4021C216.245 45.0295 216.667 43.9315 217.513 43.108C218.405 42.2387 219.556 41.804 220.965 41.804Z" fill="#C66D2C"/>
<path fill-rule="evenodd" clip-rule="evenodd" d="M174.196 12.0058C173.093 12.0424 172.171 12.1589 171.373 12.3625C169.269 12.8992 167.762 14.0943 166.395 16.3084C166.33 16.413 166.264 16.5221 166.247 16.5508L166.217 16.603L166.572 16.4818C166.767 16.4151 167.19 16.2702 167.512 16.1597C168.399 15.8558 168.796 15.7302 169.29 15.5976C170.417 15.2948 171.504 15.147 173.359 15.044C174.102 15.0028 174.368 14.9813 174.754 14.9315C175.826 14.7932 176.548 14.5486 177.163 14.1155C177.455 13.9098 177.745 13.6396 178.195 13.1528C178.546 12.7737 178.757 12.5493 178.937 12.3667C179.017 12.2851 179.079 12.2184 179.074 12.2183C179.07 12.2183 178.888 12.2034 178.671 12.1852C177.725 12.1061 176.828 12.0496 176.004 12.0169C175.604 12.0011 174.536 11.9945 174.196 12.0058ZM167.473 12.3982C166.702 12.4353 165.953 12.5281 165.309 12.6662C164.005 12.9459 163.158 13.4021 162.868 13.9808C162.62 14.4771 162.766 15.0648 163.305 15.7305C163.49 15.9593 163.75 16.2261 164.02 16.4624L164.104 16.5357L164.237 16.405C164.311 16.3331 164.457 16.1995 164.561 16.108C164.757 15.9367 164.848 15.8594 165.694 15.1546C166.519 14.4667 166.848 14.173 167.284 13.7352C167.68 13.3381 167.886 13.0965 168.084 12.7947C168.166 12.6693 168.294 12.4292 168.294 12.3994C168.294 12.3843 167.779 12.3835 167.473 12.3982ZM184.428 12.7678C183.722 12.8102 182.916 13.0487 182.068 13.4662C180.308 14.3337 178.792 15.8832 177.564 18.0709C176.281 20.3551 175.323 23.3282 174.75 26.8048C174.488 28.3893 174.306 30.1389 174.23 31.8012C174.173 33.0329 174.171 34.4156 174.224 35.5164C174.419 39.5533 175.157 43.235 176.392 46.3261C177.182 48.3038 178.163 49.9924 179.274 51.289C180.715 52.9697 182.339 53.9641 183.987 54.1745C184.473 54.2365 185.023 54.2267 185.51 54.1476C186.32 54.0159 187.14 53.6792 187.915 53.1596C189.674 51.9804 191.249 49.8544 192.547 46.9042C192.921 46.0564 193.289 45.0959 193.601 44.1552C194.367 41.845 194.828 38.8467 194.961 35.315C194.974 34.982 195.001 33.756 195 33.5581C194.998 33.0421 194.966 31.8053 194.939 31.2137C194.699 25.9215 193.67 21.2315 192.146 18.4905C191.363 17.0807 190.278 15.7174 189.152 14.7286C187.574 13.342 185.968 12.6755 184.428 12.7678ZM161.184 15.7936C161.044 15.8204 160.894 15.8739 160.737 15.9537C160.402 16.1235 160.102 16.3602 159.702 16.7689C158.994 17.4916 158.207 18.6015 157.384 20.0403C157.301 20.185 157.224 20.3188 157.212 20.3377L157.192 20.3721L157.36 20.5671C157.731 20.9977 158.235 21.5308 159.083 22.39C159.371 22.6825 159.789 23.1078 160.012 23.335C160.234 23.5623 160.418 23.7461 160.42 23.7435C160.441 23.7224 162.177 20.559 162.192 20.5159C162.224 20.4212 162.297 20.1451 162.346 19.9346C162.433 19.5541 162.504 19.1181 162.543 18.7143C162.572 18.4247 162.572 17.7202 162.543 17.4834C162.49 17.0321 162.412 16.7292 162.28 16.4526C162.11 16.0983 161.898 15.8933 161.611 15.8086C161.512 15.7791 161.3 15.7716 161.184 15.7936ZM174.592 16.1468C172.253 16.1885 170.386 16.4227 168.847 16.8676C165.669 17.7859 163.708 19.6796 162.549 22.9498C162.44 23.2571 162.201 24.0201 162.201 24.0608C162.201 24.0795 163.48 23.5878 164.924 23.0138C165.899 22.6262 166.235 22.4959 166.58 22.3714C168.332 21.7393 169.672 21.5352 172.411 21.4831C172.77 21.4762 173.065 21.4689 173.065 21.4689C173.077 21.4492 175.491 16.1546 175.491 16.1465C175.491 16.1337 175.327 16.1337 174.592 16.1468ZM156.636 22.1201C156.19 22.6613 155.806 23.3227 155.451 24.1575C154.74 25.8333 154.255 28.108 154.107 30.464C154.087 30.7828 154.064 31.3656 154.069 31.4278L154.073 31.4741L156.628 33.512C158.033 34.6329 159.186 35.5499 159.189 35.5499C159.193 35.5499 159.2 35.4001 159.204 35.217C159.251 33.1667 159.388 30.4312 159.573 27.8455C159.628 27.089 159.635 26.9378 159.635 26.5642C159.634 26.0397 159.599 25.6238 159.522 25.2326C159.267 23.9361 158.614 23.0713 157.331 22.3288C157.2 22.2535 156.849 22.0671 156.776 22.0346L156.725 22.0123L156.636 22.1201ZM170.308 22.7222C167.505 22.8145 165.338 23.5422 163.771 24.9167C162.843 25.7316 162.111 26.7989 161.605 28.0789C161.063 29.4488 160.772 30.9591 160.672 32.9314C160.643 33.5049 160.649 34.9602 160.682 35.3382L160.689 35.423L161.23 34.9606C161.827 34.4504 162.1 34.1877 162.547 33.6924C162.818 33.3913 163.408 32.7974 163.618 32.6134C164.752 31.6204 165.834 31.0843 167.412 30.7327C168.082 30.5835 168.726 30.4795 170.324 30.2626C171.279 30.133 171.666 30.0788 171.671 30.0738C171.679 30.0659 172.857 22.8119 172.852 22.8063C172.837 22.7919 172.101 22.744 171.619 22.726C171.359 22.7163 170.558 22.714 170.308 22.7222ZM185.198 23.1026C184.7 23.1505 184.281 23.3129 183.841 23.6291C183.582 23.8151 183.227 24.1502 183.001 24.4213C182.307 25.2559 181.757 26.3628 181.377 27.6929C181.007 28.987 180.758 30.4088 180.663 31.7844C180.628 32.2892 180.622 32.4369 180.616 33.0436C180.603 34.2786 180.677 35.3269 180.858 36.4731C181.447 40.1954 183.04 43.1446 184.774 43.7233C185.034 43.8102 185.122 43.8241 185.405 43.8244C185.619 43.8246 185.665 43.8215 185.767 43.7991C186.598 43.6175 187.301 42.9416 187.968 41.6822C188.409 40.8496 188.913 39.3861 189.136 38.2877C189.65 35.7625 189.636 31.6092 189.103 28.574C188.855 27.1625 188.543 26.1594 188.092 25.3166C187.355 23.9414 186.489 23.1989 185.516 23.1069C185.4 23.0959 185.284 23.0943 185.198 23.1026ZM170.218 31.5895C167.57 31.6859 165.528 32.3666 164.092 33.6313C163.933 33.7715 163.644 34.0658 163.501 34.2334C162.612 35.2761 162.082 36.5848 161.911 38.1573C161.867 38.5662 161.861 38.7016 161.861 39.2931C161.861 39.9008 161.868 40.0569 161.917 40.5464C162.085 42.226 162.561 44.0224 163.358 45.9876C163.424 46.1492 163.481 46.2813 163.485 46.2813C163.49 46.2813 163.731 46.0333 164.022 45.7302C166.188 43.4758 167.27 42.4617 168.154 41.859C168.523 41.6077 168.814 41.4468 169.644 41.0363C170.276 40.7233 170.351 40.6906 170.72 40.5632C171.342 40.3491 171.634 40.2173 171.969 40L172.09 39.9213L172.083 39.7471C172.079 39.6512 172.03 37.7802 171.974 35.5891C171.919 33.3981 171.871 31.6036 171.871 31.6036C171.871 31.6036 171.702 31.5963 171.496 31.5896C171.087 31.5762 170.583 31.5762 170.218 31.5895ZM154 33.6551C154 33.9679 154.005 34.3573 154.011 34.5204C154.116 37.2803 154.576 40.237 155.195 42.1382C155.239 42.2721 155.302 42.4521 155.336 42.5382C155.8 43.7183 156.796 44.5733 158.426 45.1889C159.15 45.4625 160.019 45.6951 161.397 45.9846C161.589 46.0251 161.749 46.0555 161.753 46.0523C161.758 46.0466 161.319 44.6279 160.994 43.6013C160.034 40.5685 159.283 38.739 158.389 37.2478C157.849 36.3472 157.309 35.6442 156.645 34.9787C155.901 34.2321 155.163 33.693 154.198 33.1895L154 33.0862L154 33.6551ZM171.369 41.7716C170.315 41.8317 169.392 42.0756 168.533 42.5206C167.61 42.9992 166.838 43.6876 166.28 44.5301C166.108 44.7896 166.033 44.9187 165.906 45.1719C165.591 45.8035 165.401 46.4661 165.329 47.179C165.303 47.44 165.303 47.9715 165.33 48.2228C165.473 49.59 166.059 50.797 167.076 51.8183C167.295 52.038 167.731 52.422 167.787 52.4436C167.802 52.4492 167.892 52.3953 168.086 52.2653C168.468 52.0096 168.709 51.7944 169.15 51.3179C169.614 50.8161 169.867 50.5733 170.224 50.2878C170.653 49.9447 171.028 49.7003 171.452 49.4882C171.832 49.2979 172.122 49.1904 172.779 48.9954C173.458 48.7939 173.774 48.6784 174.166 48.4879C174.358 48.3949 174.387 48.3775 174.383 48.3577C174.381 48.3451 173.93 46.8612 173.381 45.0602L172.383 41.7857L172.305 41.7787C172.169 41.7665 171.542 41.7618 171.369 41.7716ZM157.102 45.7625C157.102 45.774 157.124 45.869 157.151 45.9736C157.294 46.5242 157.476 47 157.777 47.6074C158.298 48.66 159.015 49.6948 159.929 50.7127C160.119 50.9237 160.789 51.5959 160.996 51.7829C161.716 52.4321 162.413 52.9553 163.144 53.3953C164.452 54.1823 165.708 54.6149 166.955 54.7075C167.111 54.7191 167.658 54.7232 167.658 54.7128C167.658 54.6981 167.325 54.1729 167.158 53.9242C166.749 53.3149 166.362 52.8295 165.711 52.1114C165.251 51.6036 165.066 51.3851 164.349 50.5056C163.383 49.3205 163.103 49.0041 162.491 48.4034C161.446 47.3771 160.26 46.6486 158.882 46.1857C158.411 46.0276 157.94 45.903 157.431 45.8017C157.113 45.7383 157.102 45.737 157.102 45.7625ZM174.202 49.9742C173.46 50.0375 172.761 50.1902 172.123 50.4288C171.041 50.8332 170.268 51.4246 169.961 52.0835C169.861 52.2977 169.811 52.5028 169.803 52.7343C169.791 53.0584 169.857 53.3446 170.023 53.6801C170.142 53.9218 170.249 54.0602 170.414 54.1875C171.279 54.8552 173.47 55.1071 177.125 54.9591C177.766 54.9332 179.359 54.8496 179.366 54.8415C179.375 54.8324 175.178 49.9914 175.152 49.9809C175.12 49.9676 174.343 49.9621 174.202 49.9742Z" fill="#C66D2C"/>
</svg>
