<svg width="469" height="299" viewBox="0 0 469 299" fill="none" xmlns="http://www.w3.org/2000/svg">
<path d="M2.5 60C2.5 28.2436 28.2436 2.5 60 2.5H409C440.756 2.5 466.5 28.2436 466.5 60V239C466.5 270.756 440.756 296.5 409 296.5H60C28.2436 296.5 2.5 270.756 2.5 239V60Z" stroke="#DFDEDB" stroke-width="5"/>
<path d="M199.576 137.294C199.576 140.799 198.382 143.765 195.994 146.192C193.606 148.58 190.659 149.774 187.154 149.774C183.61 149.774 180.644 148.58 178.256 146.192C175.868 143.804 174.673 140.838 174.673 137.294V117.418C174.673 116.262 175.02 115.319 175.713 114.587C176.445 113.855 177.389 113.489 178.545 113.489C179.7 113.489 180.644 113.855 181.376 114.587C182.108 115.319 182.474 116.262 182.474 117.418V120.48H195.705C196.861 120.48 197.785 120.846 198.478 121.578C199.21 122.271 199.576 123.196 199.576 124.351C199.576 126.971 198.286 128.28 195.705 128.28H182.474V137.294C182.474 138.604 182.917 139.721 183.803 140.645C184.727 141.531 185.844 141.974 187.154 141.974C188.463 141.974 189.561 141.531 190.447 140.645C191.333 139.721 191.776 138.604 191.776 137.294V136.774C191.776 135.657 192.142 134.732 192.874 134.001C193.644 133.269 194.588 132.903 195.705 132.903C196.822 132.903 197.747 133.269 198.478 134.001C199.21 134.732 199.576 135.657 199.576 136.774V137.294Z" fill="#474747"/>
<path d="M171.47 145.903C171.47 147.059 171.105 148.002 170.373 148.734C169.641 149.428 168.697 149.774 167.542 149.774C166.386 149.774 165.442 149.428 164.71 148.734C164.017 148.002 163.67 147.059 163.67 145.903V124.236C163.67 123.08 164.017 122.156 164.71 121.462C165.442 120.731 166.386 120.365 167.542 120.365C170.161 120.365 171.47 121.655 171.47 124.236V145.903ZM167.542 108C166.232 108 165.096 108.481 164.133 109.444C163.208 110.369 162.746 111.486 162.746 112.796C162.746 114.105 163.208 115.242 164.133 116.205C165.096 117.129 166.232 117.591 167.542 117.591C168.851 117.591 169.968 117.129 170.893 116.205C171.856 115.242 172.337 114.105 172.337 112.796C172.337 111.486 171.856 110.369 170.893 109.444C169.968 108.481 168.851 108 167.542 108Z" fill="#474747"/>
<path d="M145.734 142.09C147.66 142.09 149.297 141.416 150.646 140.067C152.032 138.681 152.726 137.024 152.726 135.098C152.726 133.172 152.032 131.535 150.646 130.187C149.297 128.839 147.66 128.165 145.734 128.165C143.808 128.165 142.171 128.839 140.823 130.187C139.475 131.535 138.801 133.172 138.801 135.098V157.69C138.801 158.846 138.435 159.789 137.703 160.521C136.971 161.253 136.028 161.619 134.872 161.619C133.716 161.619 132.773 161.253 132.041 160.521C131.347 159.789 131.001 158.846 131.001 157.69V135.098C131.001 130.938 132.407 127.452 135.219 124.64C138.069 121.79 141.574 120.365 145.734 120.365C149.894 120.365 153.4 121.79 156.25 124.64C159.101 127.452 160.526 130.938 160.526 135.098C160.526 139.258 159.101 142.764 156.25 145.614C153.4 148.465 149.894 149.89 145.734 149.89C144.579 149.89 143.635 149.524 142.903 148.792C142.21 148.06 141.863 147.116 141.863 145.961C141.863 144.805 142.21 143.881 142.903 143.187C143.635 142.456 144.579 142.09 145.734 142.09Z" fill="#474747"/>
<rect width="12.9984" height="11.4981" transform="matrix(0.999996 0.00277286 -0.00313425 0.999995 209.513 167.835)" fill="#474747"/>
<rect width="12.9984" height="11.4981" transform="matrix(-0.999996 -0.00277286 0.00313425 -0.999995 209.446 190.83)" fill="#474747"/>
<rect width="12.9984" height="11.4981" transform="matrix(0.999996 0.00277286 -0.00313425 0.999995 183.354 167.762)" fill="#474747"/>
<rect width="12.9984" height="11.4981" transform="matrix(-0.999996 -0.00277286 0.00313425 -0.999995 183.286 190.758)" fill="#474747"/>
<rect width="12.9984" height="11.4981" transform="matrix(0.999996 0.00277286 -0.00313425 0.999995 157.194 167.69)" fill="#474747"/>
<rect width="12.9984" height="11.4981" transform="matrix(-0.999996 -0.00277286 0.00313425 -0.999995 157.126 190.685)" fill="#474747"/>
<rect width="12.9984" height="11.4981" transform="matrix(0.999996 0.00285768 -0.00303983 0.999995 131.035 167.617)" fill="#474747"/>
<rect width="12.9984" height="11.4981" transform="matrix(-0.999996 -0.00277286 0.00313425 -0.999995 235.674 190.649)" fill="#474747"/>
<rect width="12.9984" height="11.4981" transform="matrix(0.999996 0.00277286 -0.00313425 0.999995 235.742 167.654)" fill="#474747"/>
<rect width="12.9984" height="11.4981" transform="matrix(-0.999996 -0.00277286 0.00313425 -0.999995 261.834 190.722)" fill="#474747"/>
<rect width="12.9984" height="11.4981" transform="matrix(0.999996 0.00277286 -0.00313425 0.999995 261.902 167.726)" fill="#474747"/>
<rect width="12.9984" height="11.4981" transform="matrix(-0.999996 -0.00277286 0.00313425 -0.999995 287.994 190.794)" fill="#474747"/>
<rect width="12.9984" height="11.4981" transform="matrix(0.999996 0.00277286 -0.00313425 0.999995 288.061 167.799)" fill="#474747"/>
<rect width="12.9984" height="11.4981" transform="matrix(0.999996 0.00277286 -0.00313425 0.999995 314.224 167.617)" fill="#474747"/>
<rect width="12.9984" height="11.4981" transform="matrix(-0.999996 -0.00285768 0.00303983 -0.999995 314.153 190.867)" fill="#474747"/>
<path d="M252.021 137.851C252.021 141.343 250.842 144.299 248.483 146.716C246.124 149.096 243.213 150.286 239.75 150.286C236.25 150.286 233.32 149.096 230.961 146.716C228.602 144.337 227.422 141.382 227.422 137.851V118.047C227.422 116.896 227.765 115.956 228.45 115.226C229.173 114.497 230.105 114.133 231.246 114.133C232.388 114.133 233.32 114.497 234.043 115.226C234.766 115.956 235.127 116.896 235.127 118.047V121.098H248.197C249.339 121.098 250.252 121.463 250.937 122.192C251.66 122.883 252.021 123.804 252.021 124.956C252.021 127.565 250.747 128.87 248.197 128.87H235.127V137.851C235.127 139.156 235.565 140.269 236.44 141.19C237.353 142.073 238.457 142.514 239.75 142.514C241.044 142.514 242.129 142.073 243.004 141.19C243.879 140.269 244.316 139.156 244.316 137.851V137.333C244.316 136.22 244.678 135.299 245.401 134.569C246.162 133.84 247.094 133.476 248.197 133.476C249.301 133.476 250.214 133.84 250.937 134.569C251.66 135.299 252.021 136.22 252.021 137.333V137.851Z" fill="#474747"/>
<path d="M217.962 129.768C217.306 130.424 216.978 131.236 216.978 132.202L216.92 138.925C216.882 142.094 215.763 144.779 213.565 146.982C211.405 149.185 208.744 150.286 205.582 150.286C204.425 150.286 203.48 149.938 202.747 149.242C202.053 148.508 201.706 147.562 201.706 146.402C201.706 145.243 202.053 144.296 202.747 143.562C203.48 142.828 204.425 142.461 205.582 142.461C206.584 142.461 207.414 142.133 208.069 141.476C208.763 140.78 209.11 139.93 209.11 138.925C209.11 138.578 209.11 138.191 209.11 137.766C209.149 136.221 209.168 135.428 209.168 135.39V132.202C209.168 128.995 210.248 126.309 212.408 124.145C214.606 121.943 217.306 120.842 220.507 120.842C221.664 120.842 222.609 121.209 223.342 121.943C224.075 122.638 224.441 123.566 224.441 124.725C224.441 125.845 224.094 126.754 223.4 127.449C222.705 128.145 221.78 128.55 220.623 128.666C219.504 128.744 218.617 129.111 217.962 129.768Z" fill="#474747"/>
<path d="M314.128 142.496C316.064 142.496 317.711 141.825 319.066 140.483C320.461 139.102 321.158 137.454 321.158 135.536C321.158 133.619 320.461 131.99 319.066 130.648C317.711 129.306 316.064 128.635 314.128 128.635C312.191 128.635 310.545 129.306 309.189 130.648C307.834 131.99 307.156 133.619 307.156 135.536V158.024C307.156 159.174 306.788 160.114 306.052 160.842C305.316 161.571 304.367 161.935 303.205 161.935C302.043 161.935 301.094 161.571 300.358 160.842C299.661 160.114 299.312 159.174 299.312 158.024V135.536C299.312 131.395 300.726 127.925 303.554 125.127C306.42 122.289 309.945 120.871 314.128 120.871C318.311 120.871 321.836 122.289 324.702 125.127C327.568 127.925 329.001 131.395 329.001 135.536C329.001 139.677 327.568 143.167 324.702 146.004C321.836 148.841 318.311 150.26 314.128 150.26C312.966 150.26 312.017 149.896 311.281 149.167C310.584 148.439 310.235 147.499 310.235 146.349C310.235 145.199 310.584 144.278 311.281 143.588C312.017 142.86 312.966 142.496 314.128 142.496Z" fill="#474747"/>
<path fill-rule="evenodd" clip-rule="evenodd" d="M275.495 117.886C274.579 117.917 273.814 118.013 273.151 118.181C271.405 118.624 270.154 119.61 269.019 121.437C268.966 121.524 268.91 121.614 268.897 121.637L268.872 121.681L269.166 121.581C269.328 121.526 269.679 121.406 269.947 121.315C270.682 121.064 271.012 120.96 271.422 120.851C272.358 120.601 273.26 120.479 274.8 120.394C275.416 120.36 275.637 120.342 275.958 120.301C276.847 120.187 277.447 119.985 277.957 119.628C278.2 119.458 278.44 119.235 278.814 118.833C279.105 118.52 279.281 118.335 279.429 118.184C279.496 118.117 279.547 118.062 279.544 118.062C279.54 118.062 279.389 118.05 279.209 118.034C278.423 117.969 277.679 117.923 276.995 117.896C276.664 117.883 275.777 117.877 275.495 117.886ZM269.914 118.21C269.274 118.241 268.652 118.318 268.118 118.431C267.035 118.662 266.332 119.039 266.092 119.516C265.885 119.926 266.007 120.411 266.454 120.96C266.608 121.149 266.824 121.37 267.048 121.565L267.117 121.625L267.228 121.517C267.29 121.458 267.411 121.348 267.497 121.272C267.659 121.131 267.736 121.067 268.437 120.485C269.122 119.917 269.395 119.675 269.757 119.314C270.086 118.986 270.257 118.787 270.421 118.538C270.489 118.434 270.595 118.236 270.595 118.211C270.595 118.199 270.168 118.198 269.914 118.21ZM283.988 118.515C283.401 118.55 282.732 118.747 282.029 119.092C280.567 119.808 279.309 121.086 278.29 122.892C277.225 124.777 276.43 127.231 275.954 130.1C275.737 131.408 275.586 132.852 275.523 134.224C275.476 135.24 275.474 136.381 275.518 137.29C275.68 140.622 276.293 143.66 277.317 146.211C277.973 147.844 278.787 149.237 279.709 150.307C280.905 151.694 282.254 152.515 283.622 152.689C284.024 152.74 284.481 152.732 284.886 152.666C285.558 152.558 286.238 152.28 286.882 151.851C288.342 150.878 289.649 149.123 290.727 146.688C291.037 145.989 291.342 145.196 291.601 144.42C292.237 142.513 292.62 140.038 292.73 137.124C292.741 136.849 292.763 135.837 292.763 135.674C292.761 135.248 292.734 134.227 292.712 133.739C292.513 129.371 291.658 125.501 290.394 123.238C289.744 122.075 288.843 120.95 287.909 120.134C286.599 118.989 285.266 118.439 283.988 118.515ZM264.694 121.013C264.577 121.035 264.453 121.079 264.323 121.145C264.045 121.285 263.796 121.48 263.464 121.817C262.876 122.414 262.223 123.33 261.539 124.517C261.471 124.637 261.407 124.747 261.397 124.763L261.38 124.791L261.52 124.952C261.828 125.308 262.246 125.748 262.95 126.457C263.189 126.698 263.536 127.049 263.721 127.237C263.905 127.424 264.058 127.576 264.06 127.574C264.077 127.556 265.518 124.945 265.53 124.91C265.557 124.832 265.618 124.604 265.658 124.43C265.731 124.116 265.79 123.756 265.822 123.423C265.846 123.184 265.846 122.603 265.822 122.407C265.778 122.035 265.714 121.785 265.604 121.556C265.463 121.264 265.286 121.095 265.049 121.025C264.966 121.001 264.79 120.994 264.694 121.013ZM275.823 121.304C273.882 121.339 272.332 121.532 271.054 121.899C268.417 122.657 266.789 124.22 265.827 126.919C265.737 127.172 265.538 127.802 265.538 127.836C265.538 127.851 266.6 127.445 267.798 126.971C268.607 126.652 268.886 126.544 269.173 126.441C270.627 125.92 271.739 125.751 274.013 125.708C274.311 125.702 274.555 125.697 274.555 125.696C274.566 125.68 276.569 121.31 276.569 121.304C276.569 121.293 276.433 121.293 275.823 121.304ZM260.919 126.234C260.549 126.681 260.23 127.226 259.935 127.915C259.345 129.298 258.942 131.176 258.819 133.12C258.803 133.383 258.784 133.864 258.788 133.916L258.791 133.954L260.912 135.636C262.078 136.561 263.035 137.318 263.038 137.318C263.041 137.318 263.047 137.194 263.05 137.043C263.089 135.351 263.203 133.093 263.357 130.959C263.402 130.335 263.408 130.21 263.408 129.902C263.408 129.469 263.379 129.126 263.315 128.803C263.103 127.733 262.561 127.019 261.496 126.406C261.387 126.344 261.096 126.19 261.035 126.163L260.993 126.145L260.919 126.234ZM272.267 126.731C269.941 126.807 268.142 127.408 266.841 128.542C266.071 129.214 265.464 130.095 265.043 131.152C264.593 132.282 264.352 133.529 264.269 135.157C264.245 135.63 264.25 136.831 264.277 137.143L264.283 137.213L264.732 136.831C265.228 136.41 265.454 136.193 265.825 135.785C266.051 135.536 266.54 135.046 266.715 134.894C267.656 134.075 268.553 133.632 269.863 133.342C270.419 133.219 270.954 133.133 272.281 132.954C273.074 132.847 273.395 132.802 273.399 132.798C273.405 132.792 274.383 126.805 274.379 126.8C274.367 126.788 273.756 126.749 273.355 126.734C273.14 126.726 272.475 126.724 272.267 126.731ZM284.627 127.045C284.213 127.084 283.866 127.218 283.5 127.479C283.285 127.633 282.99 127.909 282.803 128.133C282.227 128.822 281.771 129.735 281.455 130.833C281.148 131.901 280.942 133.075 280.862 134.21C280.833 134.627 280.828 134.748 280.823 135.249C280.812 136.268 280.874 137.134 281.024 138.08C281.513 141.152 282.835 143.586 284.275 144.063C284.491 144.135 284.563 144.146 284.798 144.147C284.976 144.147 285.014 144.144 285.099 144.126C285.789 143.976 286.372 143.418 286.926 142.379C287.292 141.692 287.71 140.484 287.896 139.577C288.322 137.493 288.31 134.065 287.868 131.56C287.662 130.395 287.403 129.568 287.028 128.872C286.417 127.737 285.698 127.124 284.891 127.048C284.794 127.039 284.698 127.038 284.627 127.045ZM272.193 134.049C269.995 134.129 268.3 134.69 267.108 135.734C266.976 135.85 266.736 136.093 266.617 136.231C265.879 137.092 265.439 138.172 265.298 139.47C265.261 139.807 265.256 139.919 265.256 140.407C265.256 140.908 265.262 141.037 265.302 141.441C265.442 142.828 265.837 144.31 266.499 145.932C266.553 146.065 266.601 146.174 266.604 146.174C266.608 146.174 266.808 145.97 267.05 145.72C268.847 143.859 269.745 143.022 270.479 142.525C270.785 142.317 271.027 142.184 271.716 141.846C272.241 141.587 272.303 141.56 272.61 141.455C273.125 141.278 273.368 141.17 273.646 140.99L273.746 140.925L273.74 140.782C273.737 140.703 273.697 139.158 273.65 137.35C273.604 135.542 273.566 134.062 273.565 134.061C273.564 134.06 273.424 134.055 273.253 134.049C272.914 134.038 272.496 134.038 272.193 134.049ZM258.731 135.754C258.731 136.012 258.735 136.333 258.74 136.468C258.827 138.746 259.209 141.186 259.723 142.755C259.759 142.865 259.812 143.014 259.84 143.085C260.225 144.059 261.052 144.765 262.405 145.273C263.006 145.499 263.727 145.691 264.87 145.929C265.03 145.963 265.163 145.988 265.166 145.985C265.171 145.981 264.806 144.81 264.536 143.963C263.739 141.46 263.116 139.95 262.374 138.719C261.926 137.976 261.477 137.395 260.926 136.846C260.308 136.23 259.696 135.785 258.895 135.37L258.731 135.284L258.731 135.754ZM273.148 142.452C272.273 142.502 271.507 142.703 270.794 143.071C270.028 143.466 269.387 144.034 268.924 144.729C268.781 144.943 268.719 145.05 268.614 145.259C268.352 145.78 268.194 146.327 268.135 146.915C268.113 147.131 268.113 147.569 268.135 147.777C268.254 148.905 268.741 149.901 269.584 150.744C269.766 150.925 270.129 151.242 270.175 151.26C270.187 151.265 270.262 151.22 270.423 151.113C270.74 150.902 270.94 150.724 271.306 150.331C271.691 149.917 271.901 149.717 272.197 149.481C272.553 149.198 272.865 148.996 273.217 148.821C273.532 148.664 273.773 148.575 274.318 148.414C274.882 148.248 275.144 148.153 275.47 147.996C275.629 147.919 275.653 147.904 275.65 147.888C275.648 147.878 275.273 146.653 274.818 145.167L273.99 142.464L273.925 142.458C273.812 142.448 273.291 142.444 273.148 142.452ZM261.306 145.746C261.306 145.756 261.324 145.834 261.347 145.92C261.465 146.375 261.616 146.768 261.866 147.269C262.298 148.138 262.894 148.992 263.652 149.832C263.81 150.006 264.366 150.561 264.538 150.715C265.136 151.251 265.714 151.682 266.321 152.046C267.406 152.695 268.449 153.052 269.484 153.129C269.614 153.138 270.067 153.142 270.067 153.133C270.067 153.121 269.791 152.687 269.653 152.482C269.313 151.979 268.992 151.579 268.452 150.986C268.07 150.567 267.916 150.387 267.321 149.661C266.519 148.683 266.287 148.422 265.779 147.926C264.911 147.079 263.927 146.477 262.783 146.095C262.392 145.965 262.001 145.862 261.579 145.779C261.315 145.726 261.306 145.725 261.306 145.746ZM275.499 149.222C274.883 149.274 274.304 149.4 273.774 149.597C272.875 149.931 272.234 150.419 271.979 150.963C271.896 151.14 271.855 151.309 271.848 151.5C271.838 151.768 271.893 152.004 272.031 152.281C272.13 152.48 272.218 152.594 272.355 152.699C273.073 153.25 274.892 153.458 277.926 153.336C278.457 153.315 279.78 153.246 279.786 153.239C279.793 153.232 276.309 149.236 276.288 149.228C276.261 149.217 275.617 149.212 275.499 149.222Z" fill="#C66D2C"/>
</svg>
