<svg width="469" height="299" viewBox="0 0 469 299" fill="none" xmlns="http://www.w3.org/2000/svg">
<path fill-rule="evenodd" clip-rule="evenodd" d="M244.142 116.039C243.46 116.21 243.307 116.435 242.322 118.705C241.424 120.777 241.278 121.015 240.786 121.227C240.639 121.29 240.233 121.396 239.886 121.462C239.317 121.569 238.41 121.755 236.906 122.072C236.181 122.224 235.443 122.284 235.014 122.224C234.394 122.138 234.198 122.001 233.019 120.836C231.867 119.697 231.431 119.364 230.866 119.188C229.808 118.86 228.78 119.213 227.007 120.515C226.459 120.918 225.723 121.435 225.372 121.664C222.308 123.666 220.706 124.783 220.404 125.128C220.148 125.421 219.895 125.955 219.833 126.332C219.728 126.969 219.896 127.606 220.552 129.061C221.125 130.334 221.189 130.556 221.189 131.274C221.189 131.857 221.181 131.896 221.001 132.241C220.81 132.606 220.514 133.064 219.693 134.26C219.443 134.625 219.056 135.235 218.833 135.615C218.61 135.995 218.365 136.389 218.289 136.49C217.937 136.955 217.387 137.051 214.816 137.101C213.014 137.135 212.859 137.146 212.626 137.253C212.206 137.445 211.972 137.789 211.721 138.584C211.515 139.237 211.479 139.404 210.631 143.624C209.644 148.533 209.58 148.992 209.776 149.747C209.972 150.501 210.373 150.802 212.248 151.601C213.533 152.148 213.879 152.347 214.355 152.815C215.107 153.553 215.294 154.091 215.728 156.768C215.976 158.299 215.989 158.538 215.851 159.068C215.671 159.753 215.3 160.223 214.028 161.376C213.393 161.951 213.011 162.43 212.811 162.903C212.554 163.512 212.636 163.941 213.237 165.119C214.047 166.709 215.294 168.647 217.222 171.313C218.053 172.461 218.654 173.22 219.076 173.652C219.46 174.044 219.737 174.161 220.282 174.161C220.887 174.161 221.317 174.017 222.97 173.257C223.902 172.828 224.379 172.705 224.99 172.734C225.428 172.755 225.515 172.779 225.925 172.992C226.779 173.437 227.989 174.207 228.753 174.79C229.643 175.471 230.25 176.11 230.534 176.666C230.737 177.062 230.814 178.008 230.773 179.583C230.732 181.15 230.744 181.229 231.077 181.569C231.544 182.046 232.977 182.461 236.316 183.087C237.048 183.224 238.571 183.511 239.7 183.724C242.137 184.185 242.592 184.244 243.122 184.169C244.145 184.024 244.544 183.569 245.18 181.821C245.56 180.778 246.002 179.908 246.286 179.647C247.089 178.908 249.23 178.208 251.396 177.975C251.875 177.924 252.058 177.924 252.214 177.975C252.833 178.179 254.118 179.488 255.501 181.323C256.074 182.084 256.993 183.291 257.544 184.005C258.46 185.195 259.444 186.485 264.044 192.522C268.013 197.731 269.225 199.278 269.641 199.666C272.143 201.998 275.892 202.307 278.735 200.417C280.384 199.32 281.479 197.706 281.923 195.716C282.043 195.178 282.092 193.678 282.009 193.058C281.936 192.512 281.744 191.809 281.499 191.195C281.156 190.332 281.068 190.209 277.078 185.001C276.391 184.104 275.319 182.698 274.696 181.876C274.073 181.055 273.435 180.221 273.278 180.024C272.471 179.009 270.062 175.804 269.536 175.045C267.27 171.777 266.266 169.78 266.4 168.806C266.456 168.394 267.113 167.17 267.946 165.921C269.103 164.189 269.974 163.427 270.988 163.259C271.18 163.227 272.098 163.197 273.028 163.192C274.521 163.184 274.744 163.171 274.939 163.083C275.71 162.738 276.045 161.827 276.762 158.123C276.93 157.257 277.26 155.552 277.497 154.335C277.907 152.219 277.926 152.088 277.929 151.321C277.932 150.539 277.928 150.511 277.768 150.196C277.464 149.598 277.001 149.299 275.66 148.834C274.621 148.474 273.931 148.151 273.487 147.814C273.198 147.596 273.106 147.482 272.921 147.113C272.265 145.805 271.724 143.332 271.762 141.817C271.779 141.116 271.792 141.04 271.939 140.751C272.19 140.257 272.513 139.889 273.433 139.052C273.905 138.621 274.385 138.139 274.5 137.981C274.976 137.319 275.106 136.757 274.938 136.085C274.755 135.349 274.283 134.577 272.424 131.97C271.482 130.65 270.951 129.856 270.48 129.061C269.522 127.448 269.005 126.837 268.302 126.491C267.423 126.06 266.813 126.126 265.094 126.84C263.501 127.501 263.323 127.558 262.832 127.56C262.199 127.563 261.883 127.416 260.31 126.392C257.34 124.455 257.146 124.303 257.023 123.822C256.991 123.692 256.951 122.902 256.936 122.065C256.921 121.229 256.882 120.333 256.848 120.075C256.744 119.277 256.393 118.694 255.764 118.278C254.976 117.756 254.111 117.544 251.029 117.115C250.465 117.037 249.255 116.814 248.341 116.62C245.764 116.074 244.63 115.917 244.142 116.039ZM343.402 126.497C341.77 126.632 340.383 127.826 339.965 129.455C339.858 129.872 339.856 130.115 339.857 140.864C339.858 153.145 339.827 152.234 340.267 153.118C340.967 154.526 342.205 155.3 343.763 155.302C345.605 155.304 347.163 154.109 347.654 152.317C347.747 151.978 347.752 151.321 347.752 140.869C347.752 130.313 347.747 129.763 347.651 129.426C347.463 128.764 346.992 127.964 346.553 127.564C345.654 126.743 344.628 126.395 343.402 126.497ZM242.273 129.569C239.554 129.773 236.667 130.557 234.322 131.73C232.041 132.87 230.243 134.172 228.528 135.926C227.018 137.471 225.986 138.919 225.012 140.862C223.958 142.965 223.349 145.026 223.034 147.56C222.92 148.478 222.94 151.71 223.065 152.621C223.473 155.581 224.402 158.25 225.908 160.791C227.422 163.346 229.594 165.652 231.986 167.244C235.002 169.252 238.38 170.405 242.063 170.682C243.145 170.763 245.379 170.72 246.294 170.6C251.12 169.968 255.884 167.411 259.133 163.709C262.166 160.253 263.851 156.224 264.222 151.542C264.301 150.556 264.257 148.619 264.136 147.671C263.73 144.505 262.525 141.283 260.764 138.657C258.682 135.552 256.057 133.226 252.801 131.599C250.581 130.491 248.032 129.797 245.41 129.588C244.755 129.536 242.869 129.525 242.273 129.569ZM242.218 135.951C239.432 136.226 236.712 137.293 234.488 138.982C233.735 139.553 232.374 140.923 231.787 141.7C230.212 143.781 229.244 146.153 228.91 148.749C228.794 149.655 228.823 151.692 228.966 152.621C229.724 157.56 232.984 161.736 237.591 163.672C239.813 164.605 241.843 164.986 244.185 164.908C246.447 164.832 248.457 164.33 250.432 163.348C251.535 162.799 252.551 162.062 253.551 161.085C254.682 159.98 255.145 158.995 255.149 157.681C255.154 156.425 254.656 155.489 253.529 154.636C252.707 154.015 251.982 153.784 250.973 153.824C249.944 153.865 249.32 154.143 247.86 155.211C246.554 156.166 245.941 156.496 245.031 156.734C244.099 156.977 242.902 157.011 241.983 156.82C240.489 156.51 238.955 155.397 237.936 153.884C236.609 151.914 236.41 149.891 237.346 147.898C238.075 146.345 239.282 145.106 240.75 144.403C241.776 143.912 242.802 143.736 243.983 143.848C245.421 143.984 246.328 144.363 247.796 145.441C249.017 146.338 249.585 146.65 250.354 146.846C251.335 147.097 252.381 146.893 253.301 146.271C254.56 145.42 255.156 144.381 255.146 143.053C255.136 141.75 254.687 140.755 253.635 139.706C251.647 137.723 249.156 136.537 245.958 136.05C245.119 135.923 243.056 135.868 242.218 135.951ZM295.844 136.776C292.811 137.012 289.987 138.149 287.72 140.047C285.946 141.534 284.777 143.034 283.744 145.155C282.465 147.778 282.063 150.692 282.565 153.699C282.984 156.213 284.317 158.928 286.095 160.889C288.084 163.083 290.623 164.634 293.384 165.339C294.519 165.63 295.141 165.709 296.523 165.739C297.929 165.77 298.562 165.708 299.732 165.422C300.85 165.15 302.322 164.526 303.434 163.853C303.715 163.682 303.967 163.543 303.993 163.543C304.019 163.543 304.119 163.664 304.215 163.812C304.487 164.231 305.088 164.761 305.556 164.995C306.154 165.293 306.581 165.39 307.301 165.39C307.999 165.39 308.423 165.297 309.029 165.012C310.055 164.528 310.776 163.723 311.172 162.617L311.346 162.133V156.022C311.346 150.393 311.338 149.861 311.245 149.275C310.982 147.605 310.612 146.395 309.936 144.986C307.784 140.504 303.447 137.401 298.545 136.838C297.804 136.753 296.52 136.723 295.844 136.776ZM330.269 137.168C326.793 137.507 323.573 139.039 321.038 141.558C318.545 144.036 317.125 146.849 316.599 150.353C316.508 150.958 316.499 151.508 316.499 156.603V162.188L316.65 162.632C316.935 163.471 317.442 164.149 318.149 164.637C319.721 165.722 321.661 165.646 323.075 164.446C323.607 163.994 323.919 163.533 324.209 162.769L324.367 162.354L324.402 156.907C324.423 153.501 324.458 151.356 324.494 151.183C324.836 149.535 325.427 148.372 326.472 147.292C327.086 146.656 327.717 146.195 328.49 145.816C329.587 145.278 330.277 145.109 331.744 145.022C332.466 144.979 332.72 144.941 333.074 144.823C334.338 144.4 335.292 143.467 335.701 142.251C335.79 141.987 335.829 141.708 335.849 141.201C335.884 140.335 335.793 139.871 335.454 139.169C334.998 138.227 334.179 137.561 333.123 137.272C332.766 137.175 332.496 137.148 331.738 137.134C331.22 137.124 330.559 137.14 330.269 137.168ZM295.772 144.765C294.295 145.033 292.87 145.855 291.912 146.99C291.197 147.837 290.669 148.901 290.449 149.938C290.328 150.505 290.313 151.879 290.421 152.427C291.085 155.79 294.137 158.106 297.488 157.789C299.875 157.564 301.791 156.196 302.834 153.975C304.02 151.446 303.425 148.418 301.353 146.442C300.458 145.589 299.248 144.978 298.032 144.767C297.465 144.668 296.314 144.667 295.772 144.765ZM342.947 157.296C342.065 157.513 341.218 158.074 340.642 158.822C340.386 159.156 340.096 159.797 339.961 160.331C339.797 160.98 339.831 161.933 340.04 162.577C340.533 164.087 341.821 165.15 343.431 165.375C345.391 165.648 347.387 164.266 347.895 162.284C348.026 161.773 348.036 160.903 347.917 160.4C347.56 158.889 346.241 157.58 344.758 157.267C344.232 157.155 343.47 157.168 342.947 157.296Z" fill="#315C32"/>
<path fill-rule="evenodd" clip-rule="evenodd" d="M123.049 126.239C121.864 126.552 120.952 127.275 120.447 128.3C119.958 129.295 120.001 128.059 120.001 141.035C120.001 153.619 119.982 152.806 120.311 154.308C120.88 156.908 122.317 159.502 124.264 161.445C127.556 164.73 132.075 166.229 136.667 165.56C138.209 165.335 139.424 164.955 140.892 164.238C145.278 162.094 148.33 157.819 148.928 152.981C149.029 152.162 149.044 150.42 148.956 149.634C148.767 147.938 148.324 146.435 147.544 144.851C144.628 138.921 138.206 135.714 131.776 136.978C130.666 137.196 129.146 137.698 128.295 138.126C128.045 138.253 127.943 138.281 127.924 138.229C127.91 138.191 127.892 136.18 127.883 133.762C127.866 128.828 127.892 129.15 127.441 128.232C127.105 127.549 126.463 126.917 125.736 126.555C125.444 126.41 125.037 126.257 124.822 126.213C124.287 126.102 123.524 126.113 123.049 126.239ZM193.429 136.755C191.325 136.916 189.366 137.572 187.771 138.648C187.1 139.101 186.087 140.117 185.647 140.777C184.59 142.366 184.097 144.296 184.255 146.232C184.353 147.441 184.646 148.315 185.281 149.288C186.33 150.897 187.671 151.952 190.237 153.187C191.972 154.023 192.394 154.203 193.509 154.586C196.17 155.5 197.309 156.114 197.418 156.694C197.556 157.425 196.567 158.005 195.058 158.078C193.412 158.158 191.701 157.487 190.237 156.188C189.127 155.202 187.969 154.72 186.691 154.71C185.987 154.705 185.566 154.802 184.922 155.117C184.079 155.53 183.438 156.332 183.223 157.245C183.088 157.818 183.14 158.866 183.332 159.437C184.135 161.829 186.273 163.754 189.276 164.789C191.052 165.401 192.866 165.695 194.864 165.694C196.466 165.693 197.442 165.55 198.804 165.115C202.053 164.077 204.471 161.609 205.178 158.608C205.29 158.132 205.324 157.813 205.348 157.017C205.406 155.106 205.07 153.794 204.17 152.414C203.109 150.787 201.631 149.616 199.38 148.619C198.044 148.027 196.751 147.595 194.312 146.925C193.426 146.682 192.632 146.346 192.385 146.11C192.095 145.832 192.116 145.339 192.433 144.989C192.819 144.562 193.407 144.401 194.781 144.346C196.204 144.289 196.769 144.394 198.424 145.023C199.937 145.598 200.208 145.673 200.766 145.675C201.367 145.677 201.724 145.59 202.345 145.291C202.939 145.005 203.319 144.685 203.669 144.174C204.666 142.717 204.456 140.661 203.169 139.296C202.451 138.534 201.477 137.975 200.041 137.5C198.107 136.861 195.657 136.585 193.429 136.755ZM155.909 137.113C154.882 137.358 154.394 137.616 153.774 138.238C153.254 138.761 152.989 139.199 152.769 139.901L152.639 140.316V146.593C152.639 152.252 152.649 152.931 152.735 153.492C153.235 156.753 154.601 159.443 156.886 161.665C159.478 164.186 162.684 165.562 166.299 165.707C169.12 165.82 171.781 165.09 174.063 163.578C175.6 162.56 176.73 161.436 177.741 159.921C179.133 157.836 179.943 155.583 180.206 153.063C180.239 152.751 180.261 150.077 180.262 146.477C180.263 140.628 180.259 140.402 180.154 139.991C179.877 138.91 179.129 137.978 178.157 137.502C177.544 137.202 177.042 137.083 176.384 137.082C174.739 137.08 173.218 138.114 172.604 139.652C172.347 140.293 172.343 140.417 172.341 146.484C172.339 152.312 172.326 152.718 172.121 153.517C171.487 155.992 169.753 157.538 167.36 157.763C166.09 157.883 164.964 157.661 163.805 157.064C161.939 156.102 160.814 154.427 160.593 152.282C160.558 151.937 160.536 149.57 160.536 146.073C160.536 141.198 160.524 140.377 160.451 140.092C160.11 138.758 159.133 137.72 157.793 137.27C157.429 137.147 157.23 137.118 156.684 137.103C156.319 137.094 155.97 137.098 155.909 137.113ZM133.189 144.766C130.528 145.342 128.471 147.471 128.003 150.132C127.902 150.712 127.914 151.824 128.029 152.417C128.376 154.201 129.501 155.825 131.074 156.812C133.903 158.587 137.724 157.887 139.732 155.226C142.395 151.694 140.964 146.598 136.876 145.06C136.091 144.764 135.738 144.703 134.685 144.68C133.847 144.662 133.609 144.675 133.189 144.766Z" fill="#474747"/>
<path d="M2.5 60C2.5 28.2436 28.2436 2.5 60 2.5H409C440.756 2.5 466.5 28.2436 466.5 60V239C466.5 270.756 440.756 296.5 409 296.5H60C28.2436 296.5 2.5 270.756 2.5 239V60Z" stroke="#DFDEDB" stroke-width="5"/>
</svg>
