<svg width="68" height="54" viewBox="0 0 68 54" fill="none" xmlns="http://www.w3.org/2000/svg">
<path d="M51 40.5C49.13 40.5 47.6 38.9813 47.6 37.125H20.4C20.4 38.9813 18.87 40.5 17 40.5C15.13 40.5 13.6 38.9813 13.6 37.125H0V47.25C0 50.9625 3.06 54 6.8 54H61.2C64.94 54 68 50.9625 68 47.25V37.125H54.4C54.4 38.9813 52.87 40.5 51 40.5ZM61.2 13.5H51V6.75C51 3.0375 47.94 0 44.2 0H23.8C20.06 0 17 3.0375 17 6.75V13.5H6.8C3.06 13.5 0 16.5375 0 20.25V33.75H13.6V30.375C13.6 28.5187 15.13 27 17 27C18.87 27 20.4 28.5187 20.4 30.375V33.75H47.6V30.375C47.6 28.5187 49.13 27 51 27C52.87 27 54.4 28.5187 54.4 30.375V33.75H68V20.25C68 16.5375 64.94 13.5 61.2 13.5ZM44.2 13.5H23.8V6.75H44.2V13.5Z" fill="#D27C2C"/>
</svg>
