<svg width="571" height="360" viewBox="0 0 571 360" fill="none" xmlns="http://www.w3.org/2000/svg">
<path d="M16.86 15.0401H26.1L42.24 58.0001H33.3L29.76 47.7401H13.2L9.66 58.0001H0.72L16.86 15.0401ZM27.12 40.3001L23.28 29.5601L21.72 24.3401H21.24L19.68 29.5601L15.84 40.3001H27.12ZM71.1328 58.9601C69.2128 58.9601 67.4928 58.7201 65.9728 58.2401C64.4928 57.7601 63.1928 57.1401 62.0728 56.3801C60.9928 55.5801 60.0728 54.6801 59.3128 53.6801C58.5528 52.6401 57.9728 51.6001 57.5728 50.5601L64.5928 47.5601C65.2728 49.0801 66.1728 50.2201 67.2928 50.9801C68.4528 51.7001 69.7328 52.0601 71.1328 52.0601C72.5728 52.0601 73.7128 51.8001 74.5528 51.2801C75.3928 50.7601 75.8128 50.1401 75.8128 49.4201C75.8128 48.6201 75.4528 47.9801 74.7328 47.5001C74.0528 46.9801 72.8528 46.5201 71.1328 46.1201L66.9928 45.2201C66.0728 45.0201 65.1128 44.7001 64.1128 44.2601C63.1528 43.8201 62.2728 43.2601 61.4728 42.5801C60.6728 41.9001 60.0128 41.0801 59.4928 40.1201C58.9728 39.1601 58.7128 38.0401 58.7128 36.7601C58.7128 35.3201 59.0128 34.0401 59.6128 32.9201C60.2528 31.8001 61.1128 30.8601 62.1928 30.1001C63.2728 29.3001 64.5328 28.7001 65.9728 28.3001C67.4528 27.8601 69.0328 27.6401 70.7128 27.6401C73.5128 27.6401 76.0128 28.2001 78.2128 29.3201C80.4128 30.4001 82.0328 32.1401 83.0728 34.5401L76.2928 37.3001C75.7328 36.1401 74.9128 35.3001 73.8328 34.7801C72.7528 34.2601 71.6728 34.0001 70.5928 34.0001C69.4728 34.0001 68.4928 34.2401 67.6528 34.7201C66.8128 35.1601 66.3928 35.7401 66.3928 36.4601C66.3928 37.1401 66.7328 37.6801 67.4128 38.0801C68.1328 38.4801 69.0928 38.8401 70.2928 39.1601L74.7928 40.2401C77.7928 40.9601 80.0128 42.1201 81.4528 43.7201C82.9328 45.2801 83.6728 47.1401 83.6728 49.3001C83.6728 50.5801 83.3728 51.8001 82.7728 52.9601C82.1728 54.1201 81.3128 55.1601 80.1928 56.0801C79.1128 56.9601 77.7928 57.6601 76.2328 58.1801C74.7128 58.7001 73.0128 58.9601 71.1328 58.9601ZM102.71 27.6401C104.99 27.6401 107.07 28.0401 108.95 28.8401C110.87 29.6001 112.51 30.6801 113.87 32.0801C115.27 33.4401 116.35 35.0801 117.11 37.0001C117.91 38.9201 118.31 41.0201 118.31 43.3001C118.31 45.5801 117.91 47.6801 117.11 49.6001C116.35 51.5201 115.27 53.1801 113.87 54.5801C112.51 55.9401 110.87 57.0201 108.95 57.8201C107.07 58.5801 104.99 58.9601 102.71 58.9601C100.43 58.9601 98.3297 58.5801 96.4097 57.8201C94.5297 57.0201 92.8897 55.9401 91.4897 54.5801C90.1297 53.1801 89.0497 51.5201 88.2497 49.6001C87.4897 47.6801 87.1097 45.5801 87.1097 43.3001C87.1097 41.0201 87.4897 38.9201 88.2497 37.0001C89.0497 35.0801 90.1297 33.4401 91.4897 32.0801C92.8897 30.6801 94.5297 29.6001 96.4097 28.8401C98.3297 28.0401 100.43 27.6401 102.71 27.6401ZM102.71 51.7001C103.71 51.7001 104.67 51.5201 105.59 51.1601C106.55 50.7601 107.39 50.2001 108.11 49.4801C108.83 48.7601 109.39 47.8801 109.79 46.8401C110.23 45.8001 110.45 44.6201 110.45 43.3001C110.45 41.9801 110.23 40.8001 109.79 39.7601C109.39 38.7201 108.83 37.8401 108.11 37.1201C107.39 36.4001 106.55 35.8601 105.59 35.5001C104.67 35.1001 103.71 34.9001 102.71 34.9001C101.67 34.9001 100.69 35.1001 99.7697 35.5001C98.8497 35.8601 98.0297 36.4001 97.3097 37.1201C96.5897 37.8401 96.0097 38.7201 95.5697 39.7601C95.1697 40.8001 94.9697 41.9801 94.9697 43.3001C94.9697 44.6201 95.1697 45.8001 95.5697 46.8401C96.0097 47.8801 96.5897 48.7601 97.3097 49.4801C98.0297 50.2001 98.8497 50.7601 99.7697 51.1601C100.69 51.5201 101.67 51.7001 102.71 51.7001ZM123.067 58.0001V15.0401H130.927V58.0001H123.067ZM157.997 54.1601H157.517C156.597 55.6401 155.357 56.8201 153.797 57.7001C152.237 58.5401 150.457 58.9601 148.457 58.9601C144.737 58.9601 141.957 57.8201 140.117 55.5401C138.317 53.2601 137.417 50.2201 137.417 46.4201V28.6001H145.277V45.4601C145.277 47.5801 145.737 49.1601 146.657 50.2001C147.617 51.2001 148.997 51.7001 150.797 51.7001C151.877 51.7001 152.817 51.4801 153.617 51.0401C154.457 50.5601 155.157 49.9401 155.717 49.1801C156.317 48.3801 156.757 47.4601 157.037 46.4201C157.357 45.3401 157.517 44.2001 157.517 43.0001V28.6001H165.377V58.0001H157.997V54.1601ZM186.097 72.2201C184.657 72.2201 183.417 71.8401 182.377 71.0801C181.337 70.3201 180.597 69.3801 180.157 68.2601L183.997 66.6401C184.157 67.1201 184.417 67.5201 184.777 67.8401C185.137 68.1601 185.577 68.3201 186.097 68.3201C186.737 68.3201 187.217 68.1201 187.537 67.7201C187.897 67.3601 188.077 66.9201 188.077 66.4001C188.077 65.8801 187.897 65.4001 187.537 64.9601C187.217 64.5601 186.737 64.3601 186.097 64.3601C185.737 64.3601 185.417 64.4401 185.137 64.6001C184.897 64.8001 184.677 65.0001 184.477 65.2001L180.817 63.5201L182.677 58.6601C180.797 58.3401 179.097 57.7401 177.577 56.8601C176.057 55.9801 174.737 54.8801 173.617 53.5601C172.497 52.2001 171.637 50.6601 171.037 48.9401C170.437 47.1801 170.137 45.3001 170.137 43.3001C170.137 41.0201 170.517 38.9201 171.277 37.0001C172.077 35.0801 173.157 33.4401 174.517 32.0801C175.917 30.6801 177.557 29.6001 179.437 28.8401C181.357 28.0401 183.457 27.6401 185.737 27.6401C189.137 27.6401 191.997 28.4201 194.317 29.9801C196.637 31.5401 198.337 33.5601 199.417 36.0401L192.217 39.0401C191.537 37.6801 190.657 36.6601 189.577 35.9801C188.537 35.2601 187.217 34.9001 185.617 34.9001C184.577 34.9001 183.597 35.1001 182.677 35.5001C181.757 35.9001 180.937 36.4601 180.217 37.1801C179.537 37.9001 178.997 38.7801 178.597 39.8201C178.197 40.8601 177.997 42.0201 177.997 43.3001C177.997 44.5801 178.197 45.7401 178.597 46.7801C178.997 47.8201 179.537 48.7001 180.217 49.4201C180.937 50.1401 181.757 50.7001 182.677 51.1001C183.597 51.5001 184.577 51.7001 185.617 51.7001C187.257 51.7001 188.637 51.3401 189.757 50.6201C190.917 49.8601 191.837 48.7801 192.517 47.3801L199.717 50.5001C198.517 52.9001 196.837 54.8601 194.677 56.3801C192.517 57.9001 189.837 58.7601 186.637 58.9601L185.797 60.8201C185.997 60.7801 186.177 60.7601 186.337 60.7601C186.497 60.7601 186.677 60.7601 186.877 60.7601C188.437 60.7601 189.757 61.2601 190.837 62.2601C191.957 63.2601 192.517 64.6601 192.517 66.4601C192.517 68.1401 191.917 69.5201 190.717 70.6001C189.557 71.6801 188.017 72.2201 186.097 72.2201ZM222.339 54.8801H221.859C220.939 56.0001 219.819 56.9601 218.499 57.7601C217.219 58.5601 215.559 58.9601 213.519 58.9601C211.999 58.9601 210.559 58.7001 209.199 58.1801C207.879 57.7001 206.719 57.0201 205.719 56.1401C204.719 55.2601 203.939 54.2001 203.379 52.9601C202.819 51.7201 202.539 50.3601 202.539 48.8801C202.539 47.3601 202.839 46.0001 203.439 44.8001C204.039 43.5601 204.879 42.5001 205.959 41.6201C207.039 40.7401 208.299 40.0801 209.739 39.6401C211.219 39.1601 212.819 38.9201 214.539 38.9201C216.459 38.9201 218.039 39.0801 219.279 39.4001C220.519 39.6801 221.539 39.9801 222.339 40.3001V39.4001C222.339 37.8401 221.719 36.5601 220.479 35.5601C219.239 34.5201 217.699 34.0001 215.859 34.0001C213.139 34.0001 210.839 35.1401 208.959 37.4201L203.259 33.5201C206.379 29.6001 210.639 27.6401 216.039 27.6401C220.599 27.6401 224.079 28.7201 226.479 30.8801C228.879 33.0001 230.079 36.1601 230.079 40.3601V58.0001H222.339V54.8801ZM222.339 46.0601C221.419 45.6201 220.459 45.2801 219.459 45.0401C218.499 44.7601 217.439 44.6201 216.279 44.6201C214.399 44.6201 212.939 45.0401 211.899 45.8801C210.899 46.6801 210.399 47.6801 210.399 48.8801C210.399 50.0801 210.879 51.0401 211.839 51.7601C212.839 52.4801 213.979 52.8401 215.259 52.8401C216.299 52.8401 217.259 52.6601 218.139 52.3001C219.019 51.9001 219.759 51.4001 220.359 50.8001C220.999 50.1601 221.479 49.4401 221.799 48.6401C222.159 47.8001 222.339 46.9401 222.339 46.0601ZM220.779 22.7201C219.939 22.7201 219.159 22.6001 218.439 22.3601C217.719 22.0801 217.059 21.7601 216.459 21.4001C215.859 21.0801 215.319 20.8001 214.839 20.5601C214.359 20.2801 213.939 20.1401 213.579 20.1401C212.579 20.1401 212.059 20.7201 212.019 21.8801H206.499C206.499 20.5601 206.679 19.4201 207.039 18.4601C207.439 17.5001 207.959 16.7201 208.599 16.1201C209.279 15.4801 210.019 15.0001 210.819 14.6801C211.659 14.3601 212.539 14.2001 213.459 14.2001C214.299 14.2001 215.079 14.3401 215.799 14.6201C216.559 14.8601 217.239 15.1401 217.839 15.4601C218.439 15.8201 218.979 16.1401 219.459 16.4201C219.939 16.6601 220.339 16.7801 220.659 16.7801C221.619 16.7801 222.159 16.2001 222.279 15.0401H227.799C227.799 16.3601 227.599 17.5001 227.199 18.4601C226.799 19.4201 226.279 20.2201 225.639 20.8601C224.999 21.4601 224.239 21.9201 223.359 22.2401C222.519 22.5601 221.659 22.7201 220.779 22.7201ZM249.956 27.6401C252.236 27.6401 254.316 28.0401 256.196 28.8401C258.116 29.6001 259.756 30.6801 261.116 32.0801C262.516 33.4401 263.596 35.0801 264.356 37.0001C265.156 38.9201 265.556 41.0201 265.556 43.3001C265.556 45.5801 265.156 47.6801 264.356 49.6001C263.596 51.5201 262.516 53.1801 261.116 54.5801C259.756 55.9401 258.116 57.0201 256.196 57.8201C254.316 58.5801 252.236 58.9601 249.956 58.9601C247.676 58.9601 245.576 58.5801 243.656 57.8201C241.776 57.0201 240.136 55.9401 238.736 54.5801C237.376 53.1801 236.296 51.5201 235.496 49.6001C234.736 47.6801 234.356 45.5801 234.356 43.3001C234.356 41.0201 234.736 38.9201 235.496 37.0001C236.296 35.0801 237.376 33.4401 238.736 32.0801C240.136 30.6801 241.776 29.6001 243.656 28.8401C245.576 28.0401 247.676 27.6401 249.956 27.6401ZM249.956 51.7001C250.956 51.7001 251.916 51.5201 252.836 51.1601C253.796 50.7601 254.636 50.2001 255.356 49.4801C256.076 48.7601 256.636 47.8801 257.036 46.8401C257.476 45.8001 257.696 44.6201 257.696 43.3001C257.696 41.9801 257.476 40.8001 257.036 39.7601C256.636 38.7201 256.076 37.8401 255.356 37.1201C254.636 36.4001 253.796 35.8601 252.836 35.5001C251.916 35.1001 250.956 34.9001 249.956 34.9001C248.916 34.9001 247.936 35.1001 247.016 35.5001C246.096 35.8601 245.276 36.4001 244.556 37.1201C243.836 37.8401 243.256 38.7201 242.816 39.7601C242.416 40.8001 242.216 41.9801 242.216 43.3001C242.216 44.6201 242.416 45.8001 242.816 46.8401C243.256 47.8801 243.836 48.7601 244.556 49.4801C245.276 50.2001 246.096 50.7601 247.016 51.1601C247.936 51.5201 248.916 51.7001 249.956 51.7001ZM297.23 58.9601C292.87 58.9601 289.25 57.4801 286.37 54.5201C283.53 51.4801 282.11 47.7401 282.11 43.3001C282.11 38.7801 283.53 35.0401 286.37 32.0801C289.25 29.1201 292.87 27.6401 297.23 27.6401C300.23 27.6401 302.85 28.4001 305.09 29.9201C307.33 31.4001 309.01 33.4601 310.13 36.1001L305.09 38.2001C303.53 34.5201 300.79 32.6801 296.87 32.6801C294.35 32.6801 292.17 33.7001 290.33 35.7401C288.53 37.7801 287.63 40.3001 287.63 43.3001C287.63 46.3001 288.53 48.8201 290.33 50.8601C292.17 52.9001 294.35 53.9201 296.87 53.9201C300.91 53.9201 303.75 52.0801 305.39 48.4001L310.31 50.5001C309.23 53.1401 307.53 55.2201 305.21 56.7401C302.93 58.2201 300.27 58.9601 297.23 58.9601ZM313.164 43.3001C313.164 38.7801 314.584 35.0401 317.424 32.0801C320.304 29.1201 323.924 27.6401 328.284 27.6401C332.644 27.6401 336.244 29.1201 339.084 32.0801C341.964 35.0401 343.404 38.7801 343.404 43.3001C343.404 47.8601 341.964 51.6001 339.084 54.5201C336.244 57.4801 332.644 58.9601 328.284 58.9601C323.924 58.9601 320.304 57.4801 317.424 54.5201C314.584 51.5601 313.164 47.8201 313.164 43.3001ZM318.684 43.3001C318.684 46.4601 319.604 49.0201 321.444 50.9801C323.284 52.9401 325.564 53.9201 328.284 53.9201C331.004 53.9201 333.284 52.9401 335.124 50.9801C336.964 49.0201 337.884 46.4601 337.884 43.3001C337.884 40.1801 336.964 37.6401 335.124 35.6801C333.244 33.6801 330.964 32.6801 328.284 32.6801C325.604 32.6801 323.324 33.6801 321.444 35.6801C319.604 37.6401 318.684 40.1801 318.684 43.3001ZM353.353 58.0001H347.833V28.6001H353.113V32.6801H353.353C354.193 31.2401 355.473 30.0401 357.193 29.0801C358.953 28.1201 360.693 27.6401 362.413 27.6401C364.573 27.6401 366.473 28.1401 368.113 29.1401C369.753 30.1401 370.953 31.5201 371.713 33.2801C374.153 29.5201 377.533 27.6401 381.853 27.6401C385.253 27.6401 387.873 28.6801 389.713 30.7601C391.553 32.8401 392.473 35.8001 392.473 39.6401V58.0001H386.953V40.4801C386.953 37.7201 386.453 35.7401 385.453 34.5401C384.453 33.3001 382.773 32.6801 380.413 32.6801C378.293 32.6801 376.513 33.5801 375.073 35.3801C373.633 37.1801 372.913 39.3001 372.913 41.7401V58.0001H367.393V40.4801C367.393 37.7201 366.893 35.7401 365.893 34.5401C364.893 33.3001 363.213 32.6801 360.853 32.6801C358.733 32.6801 356.953 33.5801 355.513 35.3801C354.073 37.1801 353.353 39.3001 353.353 41.7401V58.0001ZM413.326 53.9201C415.966 53.9201 418.186 52.9201 419.986 50.9201C421.786 48.9601 422.686 46.4201 422.686 43.3001C422.686 40.2201 421.786 37.6801 419.986 35.6801C418.186 33.6801 415.966 32.6801 413.326 32.6801C410.646 32.6801 408.406 33.6801 406.606 35.6801C404.846 37.6801 403.966 40.2201 403.966 43.3001C403.966 46.4201 404.846 48.9801 406.606 50.9801C408.406 52.9401 410.646 53.9201 413.326 53.9201ZM414.226 58.9601C412.066 58.9601 410.086 58.5001 408.286 57.5801C406.526 56.6601 405.166 55.4401 404.206 53.9201H403.966L404.206 58.0001V70.9601H398.686V28.6001H403.966V32.6801H404.206C405.166 31.1601 406.526 29.9401 408.286 29.0201C410.086 28.1001 412.066 27.6401 414.226 27.6401C418.106 27.6401 421.386 29.1601 424.066 32.2001C426.826 35.2801 428.206 38.9801 428.206 43.3001C428.206 47.6601 426.826 51.3601 424.066 54.4001C421.386 57.4401 418.106 58.9601 414.226 58.9601ZM438.196 15.0401V58.0001H432.676V15.0401H438.196ZM457.83 58.9601C453.51 58.9601 449.95 57.4801 447.15 54.5201C444.35 51.5601 442.95 47.8201 442.95 43.3001C442.95 38.8201 444.31 35.1001 447.03 32.1401C449.75 29.1401 453.23 27.6401 457.47 27.6401C461.83 27.6401 465.29 29.0601 467.85 31.9001C470.45 34.7001 471.75 38.6401 471.75 43.7201L471.69 44.3201H448.59C448.67 47.2001 449.63 49.5201 451.47 51.2801C453.31 53.0401 455.51 53.9201 458.07 53.9201C461.59 53.9201 464.35 52.1601 466.35 48.6401L471.27 51.0401C469.95 53.5201 468.11 55.4601 465.75 56.8601C463.43 58.2601 460.79 58.9601 457.83 58.9601ZM449.01 39.7601H465.87C465.71 37.7201 464.87 36.0401 463.35 34.7201C461.87 33.3601 459.87 32.6801 457.35 32.6801C455.27 32.6801 453.47 33.3201 451.95 34.6001C450.47 35.8801 449.49 37.6001 449.01 39.7601ZM487.559 58.4801C485.159 58.4801 483.159 57.7401 481.559 56.2601C479.999 54.7801 479.199 52.7201 479.159 50.0801V33.6401H473.999V28.6001H479.159V19.6001H484.679V28.6001H491.879V33.6401H484.679V48.2801C484.679 50.2401 485.059 51.5801 485.819 52.3001C486.579 52.9801 487.439 53.3201 488.399 53.3201C488.839 53.3201 489.259 53.2801 489.659 53.2001C490.099 53.0801 490.499 52.9401 490.859 52.7801L492.599 57.7001C491.159 58.2201 489.479 58.4801 487.559 58.4801ZM500.564 49.0001C500.564 50.4401 501.164 51.6401 502.364 52.6001C503.604 53.5601 505.044 54.0401 506.684 54.0401C509.004 54.0401 511.064 53.1801 512.864 51.4601C514.704 49.7401 515.624 47.7201 515.624 45.4001C513.904 44.0401 511.504 43.3601 508.424 43.3601C506.184 43.3601 504.304 43.9001 502.784 44.9801C501.304 46.0601 500.564 47.4001 500.564 49.0001ZM507.704 27.6401C511.784 27.6401 515.004 28.7401 517.364 30.9401C519.724 33.1001 520.904 36.0801 520.904 39.8801V58.0001H515.624V53.9201H515.384C513.104 57.2801 510.064 58.9601 506.264 58.9601C503.024 58.9601 500.304 58.0001 498.104 56.0801C495.944 54.1601 494.864 51.7601 494.864 48.8801C494.864 45.8401 496.004 43.4201 498.284 41.6201C500.604 39.8201 503.684 38.9201 507.524 38.9201C510.804 38.9201 513.504 39.5201 515.624 40.7201V39.4601C515.624 37.5401 514.864 35.9201 513.344 34.6001C511.824 33.2401 510.044 32.5601 508.004 32.5601C504.924 32.5601 502.484 33.8601 500.684 36.4601L495.824 33.4001C498.504 29.5601 502.464 27.6401 507.704 27.6401ZM17.76 126.92C20.4 126.92 22.62 125.92 24.42 123.92C26.22 121.96 27.12 119.42 27.12 116.3C27.12 113.22 26.22 110.68 24.42 108.68C22.62 106.68 20.4 105.68 17.76 105.68C15.08 105.68 12.84 106.68 11.04 108.68C9.28 110.68 8.4 113.22 8.4 116.3C8.4 119.42 9.28 121.98 11.04 123.98C12.84 125.94 15.08 126.92 17.76 126.92ZM18.66 131.96C16.5 131.96 14.52 131.5 12.72 130.58C10.96 129.66 9.6 128.44 8.64 126.92H8.4L8.64 131V143.96H3.12V101.6H8.4V105.68H8.64C9.6 104.16 10.96 102.94 12.72 102.02C14.52 101.1 16.5 100.64 18.66 100.64C22.54 100.64 25.82 102.16 28.5 105.2C31.26 108.28 32.64 111.98 32.64 116.3C32.64 120.66 31.26 124.36 28.5 127.4C25.82 130.44 22.54 131.96 18.66 131.96ZM41.7159 122C41.7159 123.44 42.3159 124.64 43.5159 125.6C44.7559 126.56 46.1959 127.04 47.8359 127.04C50.1559 127.04 52.2159 126.18 54.0159 124.46C55.8559 122.74 56.7759 120.72 56.7759 118.4C55.0559 117.04 52.6559 116.36 49.5759 116.36C47.3359 116.36 45.4559 116.9 43.9359 117.98C42.4559 119.06 41.7159 120.4 41.7159 122ZM48.8559 100.64C52.9359 100.64 56.1559 101.74 58.5159 103.94C60.8759 106.1 62.0559 109.08 62.0559 112.88V131H56.7759V126.92H56.5359C54.2559 130.28 51.2159 131.96 47.4159 131.96C44.1759 131.96 41.4559 131 39.2559 129.08C37.0959 127.16 36.0159 124.76 36.0159 121.88C36.0159 118.84 37.1559 116.42 39.4359 114.62C41.7559 112.82 44.8359 111.92 48.6759 111.92C51.9559 111.92 54.6559 112.52 56.7759 113.72V112.46C56.7759 110.54 56.0159 108.92 54.4959 107.6C52.9759 106.24 51.1959 105.56 49.1559 105.56C46.0759 105.56 43.6359 106.86 41.8359 109.46L36.9759 106.4C39.6559 102.56 43.6159 100.64 48.8559 100.64ZM73.8019 131H68.2819V101.6H73.5619V106.4H73.8019C74.3619 104.84 75.5019 103.52 77.2219 102.44C78.9819 101.32 80.7019 100.76 82.3819 100.76C83.9819 100.76 85.3419 101 86.4619 101.48L84.7819 106.82C84.1019 106.54 83.0219 106.4 81.5419 106.4C79.4619 106.4 77.6419 107.24 76.0819 108.92C74.5619 110.6 73.8019 112.56 73.8019 114.8V131ZM92.9269 122C92.9269 123.44 93.5269 124.64 94.7269 125.6C95.9669 126.56 97.4069 127.04 99.0469 127.04C101.367 127.04 103.427 126.18 105.227 124.46C107.067 122.74 107.987 120.72 107.987 118.4C106.267 117.04 103.867 116.36 100.787 116.36C98.5469 116.36 96.6669 116.9 95.1469 117.98C93.6669 119.06 92.9269 120.4 92.9269 122ZM100.067 100.64C104.147 100.64 107.367 101.74 109.727 103.94C112.087 106.1 113.267 109.08 113.267 112.88V131H107.987V126.92H107.747C105.467 130.28 102.427 131.96 98.6269 131.96C95.3869 131.96 92.6669 131 90.4669 129.08C88.3069 127.16 87.2269 124.76 87.2269 121.88C87.2269 118.84 88.3669 116.42 90.6469 114.62C92.9669 112.82 96.0469 111.92 99.8869 111.92C103.167 111.92 105.867 112.52 107.987 113.72V112.46C107.987 110.54 107.227 108.92 105.707 107.6C104.187 106.24 102.407 105.56 100.367 105.56C97.2869 105.56 94.8469 106.86 93.0469 109.46L88.1869 106.4C90.8669 102.56 94.8269 100.64 100.067 100.64ZM146.596 100.64C148.876 100.64 150.956 101.04 152.836 101.84C154.756 102.6 156.396 103.68 157.756 105.08C159.156 106.44 160.236 108.08 160.996 110C161.796 111.92 162.196 114.02 162.196 116.3C162.196 118.58 161.796 120.68 160.996 122.6C160.236 124.52 159.156 126.18 157.756 127.58C156.396 128.94 154.756 130.02 152.836 130.82C150.956 131.58 148.876 131.96 146.596 131.96C144.316 131.96 142.216 131.58 140.296 130.82C138.416 130.02 136.776 128.94 135.376 127.58C134.016 126.18 132.936 124.52 132.136 122.6C131.376 120.68 130.996 118.58 130.996 116.3C130.996 114.02 131.376 111.92 132.136 110C132.936 108.08 134.016 106.44 135.376 105.08C136.776 103.68 138.416 102.6 140.296 101.84C142.216 101.04 144.316 100.64 146.596 100.64ZM146.596 124.7C147.596 124.7 148.556 124.52 149.476 124.16C150.436 123.76 151.276 123.2 151.996 122.48C152.716 121.76 153.276 120.88 153.676 119.84C154.116 118.8 154.336 117.62 154.336 116.3C154.336 114.98 154.116 113.8 153.676 112.76C153.276 111.72 152.716 110.84 151.996 110.12C151.276 109.4 150.436 108.86 149.476 108.5C148.556 108.1 147.596 107.9 146.596 107.9C145.556 107.9 144.576 108.1 143.656 108.5C142.736 108.86 141.916 109.4 141.196 110.12C140.476 110.84 139.896 111.72 139.456 112.76C139.056 113.8 138.856 114.98 138.856 116.3C138.856 117.62 139.056 118.8 139.456 119.84C139.896 120.88 140.476 121.76 141.196 122.48C141.916 123.2 142.736 123.76 143.656 124.16C144.576 124.52 145.556 124.7 146.596 124.7ZM169.608 108.32H164.448V101.6H169.608V92.6001H177.468V101.6H184.668V108.32H177.468V119.72C177.468 120.4 177.528 121.04 177.648 121.64C177.808 122.2 178.088 122.68 178.488 123.08C179.048 123.72 179.848 124.04 180.888 124.04C181.568 124.04 182.108 123.98 182.508 123.86C182.908 123.7 183.288 123.5 183.648 123.26L185.868 130.16C184.948 130.6 183.948 130.92 182.868 131.12C181.828 131.36 180.668 131.48 179.388 131.48C177.908 131.48 176.568 131.26 175.368 130.82C174.208 130.34 173.228 129.7 172.428 128.9C170.548 127.1 169.608 124.54 169.608 121.22V108.32ZM195.123 97.3401C194.443 97.3401 193.783 97.2201 193.143 96.9801C192.543 96.7001 192.003 96.3401 191.523 95.9001C191.083 95.4201 190.723 94.8801 190.443 94.2801C190.203 93.6801 190.083 93.0201 190.083 92.3001C190.083 91.5801 190.203 90.9201 190.443 90.3201C190.723 89.7201 191.083 89.2001 191.523 88.7601C192.003 88.2801 192.543 87.9201 193.143 87.6801C193.783 87.4001 194.443 87.2601 195.123 87.2601C196.523 87.2601 197.723 87.7601 198.723 88.7601C199.723 89.7201 200.223 90.9001 200.223 92.3001C200.223 93.7001 199.723 94.9001 198.723 95.9001C197.723 96.8601 196.523 97.3401 195.123 97.3401ZM191.223 131V101.6H199.083V131H191.223ZM206.27 101.6H213.65V105.44H214.13C215.05 104 216.29 102.84 217.85 101.96C219.45 101.08 221.21 100.64 223.13 100.64C225.37 100.64 227.25 101.16 228.77 102.2C230.29 103.24 231.37 104.52 232.01 106.04C232.93 104.56 234.23 103.3 235.91 102.26C237.59 101.18 239.63 100.64 242.03 100.64C243.83 100.64 245.39 100.94 246.71 101.54C248.03 102.1 249.11 102.9 249.95 103.94C250.83 104.98 251.49 106.24 251.93 107.72C252.37 109.16 252.59 110.74 252.59 112.46V131H244.73V113.9C244.73 109.9 243.09 107.9 239.81 107.9C238.77 107.9 237.85 108.14 237.05 108.62C236.25 109.06 235.57 109.68 235.01 110.48C234.49 111.24 234.07 112.16 233.75 113.24C233.47 114.32 233.33 115.48 233.33 116.72V131H225.47V113.9C225.47 109.9 223.75 107.9 220.31 107.9C219.31 107.9 218.43 108.14 217.67 108.62C216.91 109.06 216.27 109.68 215.75 110.48C215.23 111.24 214.83 112.16 214.55 113.24C214.27 114.32 214.13 115.48 214.13 116.72V131H206.27V101.6ZM263.443 97.3401C262.763 97.3401 262.103 97.2201 261.463 96.9801C260.863 96.7001 260.323 96.3401 259.843 95.9001C259.403 95.4201 259.043 94.8801 258.763 94.2801C258.523 93.6801 258.403 93.0201 258.403 92.3001C258.403 91.5801 258.523 90.9201 258.763 90.3201C259.043 89.7201 259.403 89.2001 259.843 88.7601C260.323 88.2801 260.863 87.9201 261.463 87.6801C262.103 87.4001 262.763 87.2601 263.443 87.2601C264.843 87.2601 266.043 87.7601 267.043 88.7601C268.043 89.7201 268.543 90.9001 268.543 92.3001C268.543 93.7001 268.043 94.9001 267.043 95.9001C266.043 96.8601 264.843 97.3401 263.443 97.3401ZM259.543 131V101.6H267.403V131H259.543ZM273.15 124.52L288.15 108.32H273.63V101.6H297.81V108.08L282.81 124.28H298.05V131H273.15V124.52ZM320.835 127.88H320.355C319.435 129 318.315 129.96 316.995 130.76C315.715 131.56 314.055 131.96 312.015 131.96C310.495 131.96 309.055 131.7 307.695 131.18C306.375 130.7 305.215 130.02 304.215 129.14C303.215 128.26 302.435 127.2 301.875 125.96C301.315 124.72 301.035 123.36 301.035 121.88C301.035 120.36 301.335 119 301.935 117.8C302.535 116.56 303.375 115.5 304.455 114.62C305.535 113.74 306.795 113.08 308.235 112.64C309.715 112.16 311.315 111.92 313.035 111.92C314.955 111.92 316.535 112.08 317.775 112.4C319.015 112.68 320.035 112.98 320.835 113.3V112.4C320.835 110.84 320.215 109.56 318.975 108.56C317.735 107.52 316.195 107 314.355 107C311.635 107 309.335 108.14 307.455 110.42L301.755 106.52C304.875 102.6 309.135 100.64 314.535 100.64C319.095 100.64 322.575 101.72 324.975 103.88C327.375 106 328.575 109.16 328.575 113.36V131H320.835V127.88ZM320.835 119.06C319.915 118.62 318.955 118.28 317.955 118.04C316.995 117.76 315.935 117.62 314.775 117.62C312.895 117.62 311.435 118.04 310.395 118.88C309.395 119.68 308.895 120.68 308.895 121.88C308.895 123.08 309.375 124.04 310.335 124.76C311.335 125.48 312.475 125.84 313.755 125.84C314.795 125.84 315.755 125.66 316.635 125.3C317.515 124.9 318.255 124.4 318.855 123.8C319.495 123.16 319.975 122.44 320.295 121.64C320.655 120.8 320.835 119.94 320.835 119.06ZM334.825 101.6H342.205V105.68H342.685C343.045 104.96 343.525 104.3 344.125 103.7C344.725 103.1 345.385 102.58 346.105 102.14C346.865 101.7 347.665 101.36 348.505 101.12C349.385 100.88 350.245 100.76 351.085 100.76C352.125 100.76 353.005 100.86 353.725 101.06C354.485 101.26 355.125 101.52 355.645 101.84L353.545 108.98C353.065 108.74 352.525 108.56 351.925 108.44C351.365 108.28 350.665 108.2 349.825 108.2C348.745 108.2 347.765 108.42 346.885 108.86C346.005 109.26 345.245 109.84 344.605 110.6C344.005 111.36 343.525 112.26 343.165 113.3C342.845 114.3 342.685 115.4 342.685 116.6V131H334.825V101.6ZM384.082 131.96C382.162 131.96 380.442 131.72 378.922 131.24C377.442 130.76 376.142 130.14 375.022 129.38C373.942 128.58 373.022 127.68 372.262 126.68C371.502 125.64 370.922 124.6 370.522 123.56L377.542 120.56C378.222 122.08 379.122 123.22 380.242 123.98C381.402 124.7 382.682 125.06 384.082 125.06C385.522 125.06 386.662 124.8 387.502 124.28C388.342 123.76 388.762 123.14 388.762 122.42C388.762 121.62 388.402 120.98 387.682 120.5C387.002 119.98 385.802 119.52 384.082 119.12L379.942 118.22C379.022 118.02 378.062 117.7 377.062 117.26C376.102 116.82 375.222 116.26 374.422 115.58C373.622 114.9 372.962 114.08 372.442 113.12C371.922 112.16 371.662 111.04 371.662 109.76C371.662 108.32 371.962 107.04 372.562 105.92C373.202 104.8 374.062 103.86 375.142 103.1C376.222 102.3 377.482 101.7 378.922 101.3C380.402 100.86 381.982 100.64 383.662 100.64C386.462 100.64 388.962 101.2 391.162 102.32C393.362 103.4 394.982 105.14 396.022 107.54L389.242 110.3C388.682 109.14 387.862 108.3 386.782 107.78C385.702 107.26 384.622 107 383.542 107C382.422 107 381.442 107.24 380.602 107.72C379.762 108.16 379.342 108.74 379.342 109.46C379.342 110.14 379.682 110.68 380.362 111.08C381.082 111.48 382.042 111.84 383.242 112.16L387.742 113.24C390.742 113.96 392.962 115.12 394.402 116.72C395.882 118.28 396.622 120.14 396.622 122.3C396.622 123.58 396.322 124.8 395.722 125.96C395.122 127.12 394.262 128.16 393.142 129.08C392.062 129.96 390.742 130.66 389.182 131.18C387.662 131.7 385.962 131.96 384.082 131.96ZM421.786 127.16H421.306C420.386 128.64 419.146 129.82 417.586 130.7C416.026 131.54 414.246 131.96 412.246 131.96C408.526 131.96 405.746 130.82 403.906 128.54C402.106 126.26 401.206 123.22 401.206 119.42V101.6H409.066V118.46C409.066 120.58 409.526 122.16 410.446 123.2C411.406 124.2 412.786 124.7 414.586 124.7C415.666 124.7 416.606 124.48 417.406 124.04C418.246 123.56 418.946 122.94 419.506 122.18C420.106 121.38 420.546 120.46 420.826 119.42C421.146 118.34 421.306 117.2 421.306 116V101.6H429.166V131H421.786V127.16ZM453.726 127.88H453.246C452.326 129 451.206 129.96 449.886 130.76C448.606 131.56 446.946 131.96 444.906 131.96C443.386 131.96 441.946 131.7 440.586 131.18C439.266 130.7 438.106 130.02 437.106 129.14C436.106 128.26 435.326 127.2 434.766 125.96C434.206 124.72 433.926 123.36 433.926 121.88C433.926 120.36 434.226 119 434.826 117.8C435.426 116.56 436.266 115.5 437.346 114.62C438.426 113.74 439.686 113.08 441.126 112.64C442.606 112.16 444.206 111.92 445.926 111.92C447.846 111.92 449.426 112.08 450.666 112.4C451.906 112.68 452.926 112.98 453.726 113.3V112.4C453.726 110.84 453.106 109.56 451.866 108.56C450.626 107.52 449.086 107 447.246 107C444.526 107 442.226 108.14 440.346 110.42L434.646 106.52C437.766 102.6 442.026 100.64 447.426 100.64C451.986 100.64 455.466 101.72 457.866 103.88C460.266 106 461.466 109.16 461.466 113.36V131H453.726V127.88ZM453.726 119.06C452.806 118.62 451.846 118.28 450.846 118.04C449.886 117.76 448.826 117.62 447.666 117.62C445.786 117.62 444.326 118.04 443.286 118.88C442.286 119.68 441.786 120.68 441.786 121.88C441.786 123.08 442.266 124.04 443.226 124.76C444.226 125.48 445.366 125.84 446.646 125.84C447.686 125.84 448.646 125.66 449.526 125.3C450.406 124.9 451.146 124.4 451.746 123.8C452.386 123.16 452.866 122.44 453.186 121.64C453.546 120.8 453.726 119.94 453.726 119.06ZM17.28 173.64C19.56 173.64 21.64 174.04 23.52 174.84C25.44 175.6 27.08 176.68 28.44 178.08C29.84 179.44 30.92 181.08 31.68 183C32.48 184.92 32.88 187.02 32.88 189.3C32.88 191.58 32.48 193.68 31.68 195.6C30.92 197.52 29.84 199.18 28.44 200.58C27.08 201.94 25.44 203.02 23.52 203.82C21.64 204.58 19.56 204.96 17.28 204.96C15 204.96 12.9 204.58 10.98 203.82C9.1 203.02 7.46 201.94 6.06 200.58C4.7 199.18 3.62 197.52 2.82 195.6C2.06 193.68 1.68 191.58 1.68 189.3C1.68 187.02 2.06 184.92 2.82 183C3.62 181.08 4.7 179.44 6.06 178.08C7.46 176.68 9.1 175.6 10.98 174.84C12.9 174.04 15 173.64 17.28 173.64ZM17.28 197.7C18.28 197.7 19.24 197.52 20.16 197.16C21.12 196.76 21.96 196.2 22.68 195.48C23.4 194.76 23.96 193.88 24.36 192.84C24.8 191.8 25.02 190.62 25.02 189.3C25.02 187.98 24.8 186.8 24.36 185.76C23.96 184.72 23.4 183.84 22.68 183.12C21.96 182.4 21.12 181.86 20.16 181.5C19.24 181.1 18.28 180.9 17.28 180.9C16.24 180.9 15.26 181.1 14.34 181.5C13.42 181.86 12.6 182.4 11.88 183.12C11.16 183.84 10.58 184.72 10.14 185.76C9.74 186.8 9.54 187.98 9.54 189.3C9.54 190.62 9.74 191.8 10.14 192.84C10.58 193.88 11.16 194.76 11.88 195.48C12.6 196.2 13.42 196.76 14.34 197.16C15.26 197.52 16.24 197.7 17.28 197.7ZM48.2714 204H40.4114V181.32H35.1314V174.6H40.4114V171.72C40.4114 169.92 40.6714 168.34 41.1914 166.98C41.7514 165.58 42.5314 164.42 43.5314 163.5C44.5314 162.54 45.7114 161.82 47.0714 161.34C48.4314 160.82 49.9314 160.56 51.5714 160.56C52.3714 160.56 53.0114 160.6 53.4914 160.68C53.9714 160.76 54.4314 160.88 54.8714 161.04L54.3914 168.42C54.1114 168.3 53.7914 168.2 53.4314 168.12C53.0714 168.04 52.6114 168 52.0514 168C50.8914 168 49.9714 168.38 49.2914 169.14C48.6114 169.86 48.2714 170.88 48.2714 172.2V174.6H67.2314V204H59.3714V181.32H48.2714V204ZM63.2714 170.34C62.5914 170.34 61.9314 170.22 61.2914 169.98C60.6914 169.7 60.1514 169.34 59.6714 168.9C59.2314 168.42 58.8714 167.88 58.5914 167.28C58.3514 166.68 58.2314 166.02 58.2314 165.3C58.2314 164.58 58.3514 163.92 58.5914 163.32C58.8714 162.72 59.2314 162.2 59.6714 161.76C60.1514 161.28 60.6914 160.92 61.2914 160.68C61.9314 160.4 62.5914 160.26 63.2714 160.26C64.6714 160.26 65.8714 160.76 66.8714 161.76C67.8714 162.72 68.3714 163.9 68.3714 165.3C68.3714 166.7 67.8714 167.9 66.8714 168.9C65.8714 169.86 64.6714 170.34 63.2714 170.34ZM102.041 196.5C100.761 198.98 98.9613 201.02 96.6413 202.62C94.3613 204.18 91.5013 204.96 88.0613 204.96C85.7813 204.96 83.6813 204.58 81.7613 203.82C79.8813 203.02 78.2413 201.92 76.8413 200.52C75.4813 199.12 74.4013 197.48 73.6013 195.6C72.8413 193.68 72.4613 191.58 72.4613 189.3C72.4613 187.02 72.8413 184.92 73.6013 183C74.4013 181.08 75.4813 179.44 76.8413 178.08C78.2413 176.68 79.8813 175.6 81.7613 174.84C83.6813 174.04 85.7813 173.64 88.0613 173.64C91.4613 173.64 94.3213 174.42 96.6413 175.98C98.9613 177.54 100.661 179.56 101.741 182.04L94.5413 185.04C93.8613 183.68 92.9813 182.66 91.9013 181.98C90.8613 181.26 89.5413 180.9 87.9413 180.9C86.9013 180.9 85.9213 181.1 85.0013 181.5C84.0813 181.9 83.2613 182.46 82.5413 183.18C81.8613 183.9 81.3213 184.78 80.9213 185.82C80.5213 186.86 80.3213 188.02 80.3213 189.3C80.3213 190.58 80.5213 191.74 80.9213 192.78C81.3213 193.82 81.8613 194.7 82.5413 195.42C83.2613 196.14 84.0813 196.7 85.0013 197.1C85.9213 197.5 86.9013 197.7 87.9413 197.7C89.5813 197.7 90.9613 197.34 92.0813 196.62C93.2413 195.86 94.1613 194.78 94.8413 193.38L102.041 196.5ZM111.217 170.34C110.537 170.34 109.877 170.22 109.237 169.98C108.637 169.7 108.097 169.34 107.617 168.9C107.177 168.42 106.817 167.88 106.537 167.28C106.297 166.68 106.177 166.02 106.177 165.3C106.177 164.58 106.297 163.92 106.537 163.32C106.817 162.72 107.177 162.2 107.617 161.76C108.097 161.28 108.637 160.92 109.237 160.68C109.877 160.4 110.537 160.26 111.217 160.26C112.617 160.26 113.817 160.76 114.817 161.76C115.817 162.72 116.317 163.9 116.317 165.3C116.317 166.7 115.817 167.9 114.817 168.9C113.817 169.86 112.617 170.34 111.217 170.34ZM107.317 204V174.6H115.177V204H107.317ZM129.744 178.44H130.224C131.144 176.96 132.384 175.8 133.944 174.96C135.504 174.08 137.284 173.64 139.284 173.64C141.124 173.64 142.744 173.94 144.144 174.54C145.544 175.14 146.684 176 147.564 177.12C148.484 178.2 149.164 179.52 149.604 181.08C150.084 182.6 150.324 184.3 150.324 186.18V204H142.464V187.14C142.464 185.02 141.984 183.46 141.024 182.46C140.104 181.42 138.744 180.9 136.944 180.9C135.864 180.9 134.904 181.14 134.064 181.62C133.264 182.06 132.564 182.68 131.964 183.48C131.404 184.24 130.964 185.16 130.644 186.24C130.364 187.28 130.224 188.4 130.224 189.6V204H122.364V174.6H129.744V178.44ZM174.644 200.88H174.164C173.244 202 172.124 202.96 170.804 203.76C169.524 204.56 167.864 204.96 165.824 204.96C164.304 204.96 162.864 204.7 161.504 204.18C160.184 203.7 159.024 203.02 158.024 202.14C157.024 201.26 156.244 200.2 155.684 198.96C155.124 197.72 154.844 196.36 154.844 194.88C154.844 193.36 155.144 192 155.744 190.8C156.344 189.56 157.184 188.5 158.264 187.62C159.344 186.74 160.604 186.08 162.044 185.64C163.524 185.16 165.124 184.92 166.844 184.92C168.764 184.92 170.344 185.08 171.584 185.4C172.824 185.68 173.844 185.98 174.644 186.3V185.4C174.644 183.84 174.024 182.56 172.784 181.56C171.544 180.52 170.004 180 168.164 180C165.444 180 163.144 181.14 161.264 183.42L155.564 179.52C158.684 175.6 162.944 173.64 168.344 173.64C172.904 173.64 176.384 174.72 178.784 176.88C181.184 179 182.384 182.16 182.384 186.36V204H174.644V200.88ZM174.644 192.06C173.724 191.62 172.764 191.28 171.764 191.04C170.804 190.76 169.744 190.62 168.584 190.62C166.704 190.62 165.244 191.04 164.204 191.88C163.204 192.68 162.704 193.68 162.704 194.88C162.704 196.08 163.184 197.04 164.144 197.76C165.144 198.48 166.284 198.84 167.564 198.84C168.604 198.84 169.564 198.66 170.444 198.3C171.324 197.9 172.064 197.4 172.664 196.8C173.304 196.16 173.784 195.44 174.104 194.64C174.464 193.8 174.644 192.94 174.644 192.06ZM215.257 204.96C210.897 204.96 207.277 203.48 204.397 200.52C201.557 197.48 200.137 193.74 200.137 189.3C200.137 184.78 201.557 181.04 204.397 178.08C207.277 175.12 210.897 173.64 215.257 173.64C218.257 173.64 220.877 174.4 223.117 175.92C225.357 177.4 227.037 179.46 228.157 182.1L223.117 184.2C221.557 180.52 218.817 178.68 214.897 178.68C212.377 178.68 210.197 179.7 208.357 181.74C206.557 183.78 205.657 186.3 205.657 189.3C205.657 192.3 206.557 194.82 208.357 196.86C210.197 198.9 212.377 199.92 214.897 199.92C218.937 199.92 221.777 198.08 223.417 194.4L228.337 196.5C227.257 199.14 225.557 201.22 223.237 202.74C220.957 204.22 218.297 204.96 215.257 204.96ZM231.192 189.3C231.192 184.78 232.612 181.04 235.452 178.08C238.332 175.12 241.952 173.64 246.312 173.64C250.672 173.64 254.272 175.12 257.112 178.08C259.992 181.04 261.432 184.78 261.432 189.3C261.432 193.86 259.992 197.6 257.112 200.52C254.272 203.48 250.672 204.96 246.312 204.96C241.952 204.96 238.332 203.48 235.452 200.52C232.612 197.56 231.192 193.82 231.192 189.3ZM236.712 189.3C236.712 192.46 237.632 195.02 239.472 196.98C241.312 198.94 243.592 199.92 246.312 199.92C249.032 199.92 251.312 198.94 253.152 196.98C254.992 195.02 255.912 192.46 255.912 189.3C255.912 186.18 254.992 183.64 253.152 181.68C251.272 179.68 248.992 178.68 246.312 178.68C243.632 178.68 241.352 179.68 239.472 181.68C237.632 183.64 236.712 186.18 236.712 189.3ZM271.38 204H265.86V174.6H271.14V178.68H271.38C272.22 177.24 273.5 176.04 275.22 175.08C276.98 174.12 278.72 173.64 280.44 173.64C282.6 173.64 284.5 174.14 286.14 175.14C287.78 176.14 288.98 177.52 289.74 179.28C292.18 175.52 295.56 173.64 299.88 173.64C303.28 173.64 305.9 174.68 307.74 176.76C309.58 178.84 310.5 181.8 310.5 185.64V204H304.98V186.48C304.98 183.72 304.48 181.74 303.48 180.54C302.48 179.3 300.8 178.68 298.44 178.68C296.32 178.68 294.54 179.58 293.1 181.38C291.66 183.18 290.94 185.3 290.94 187.74V204H285.42V186.48C285.42 183.72 284.92 181.74 283.92 180.54C282.92 179.3 281.24 178.68 278.88 178.68C276.76 178.68 274.98 179.58 273.54 181.38C272.1 183.18 271.38 185.3 271.38 187.74V204ZM330.154 204.96C325.834 204.96 322.274 203.48 319.474 200.52C316.674 197.56 315.274 193.82 315.274 189.3C315.274 184.82 316.634 181.1 319.354 178.14C322.074 175.14 325.554 173.64 329.794 173.64C334.154 173.64 337.614 175.06 340.174 177.9C342.774 180.7 344.074 184.64 344.074 189.72L344.014 190.32H320.914C320.994 193.2 321.954 195.52 323.794 197.28C325.634 199.04 327.834 199.92 330.394 199.92C333.914 199.92 336.674 198.16 338.674 194.64L343.594 197.04C342.274 199.52 340.434 201.46 338.074 202.86C335.754 204.26 333.114 204.96 330.154 204.96ZM321.334 185.76H338.194C338.034 183.72 337.194 182.04 335.674 180.72C334.194 179.36 332.194 178.68 329.674 178.68C327.594 178.68 325.794 179.32 324.274 180.6C322.794 181.88 321.814 183.6 321.334 185.76ZM369.095 212.46C369.095 214.06 368.515 215.42 367.355 216.54C366.195 217.66 364.755 218.22 363.035 218.22C361.795 218.22 360.655 217.84 359.615 217.08C358.575 216.36 357.835 215.4 357.395 214.2L360.515 212.82C360.915 214.18 361.755 214.86 363.035 214.86C363.755 214.86 364.335 214.62 364.775 214.14C365.255 213.7 365.495 213.14 365.495 212.46C365.495 211.74 365.255 211.14 364.775 210.66C364.335 210.18 363.755 209.94 363.035 209.94C362.235 209.94 361.575 210.26 361.055 210.9L358.235 209.58L360.035 204.72C356.355 204.04 353.375 202.3 351.095 199.5C348.855 196.66 347.735 193.26 347.735 189.3C347.735 184.78 349.155 181.04 351.995 178.08C354.875 175.12 358.495 173.64 362.855 173.64C365.855 173.64 368.475 174.4 370.715 175.92C372.955 177.4 374.635 179.46 375.755 182.1L370.715 184.2C369.155 180.52 366.415 178.68 362.495 178.68C359.975 178.68 357.795 179.7 355.955 181.74C354.155 183.78 353.255 186.3 353.255 189.3C353.255 192.3 354.155 194.82 355.955 196.86C357.795 198.9 359.975 199.92 362.495 199.92C366.535 199.92 369.375 198.08 371.015 194.4L375.935 196.5C374.895 199.06 373.275 201.1 371.075 202.62C368.875 204.1 366.275 204.88 363.275 204.96L362.435 206.88L363.635 206.76C365.155 206.76 366.435 207.3 367.475 208.38C368.555 209.46 369.095 210.82 369.095 212.46ZM384.489 195C384.489 196.44 385.089 197.64 386.289 198.6C387.529 199.56 388.969 200.04 390.609 200.04C392.929 200.04 394.989 199.18 396.789 197.46C398.629 195.74 399.549 193.72 399.549 191.4C397.829 190.04 395.429 189.36 392.349 189.36C390.109 189.36 388.229 189.9 386.709 190.98C385.229 192.06 384.489 193.4 384.489 195ZM391.629 173.64C395.709 173.64 398.929 174.74 401.289 176.94C403.649 179.1 404.829 182.08 404.829 185.88V204H399.549V199.92H399.309C397.029 203.28 393.989 204.96 390.189 204.96C386.949 204.96 384.229 204 382.029 202.08C379.869 200.16 378.789 197.76 378.789 194.88C378.789 191.84 379.929 189.42 382.209 187.62C384.529 185.82 387.609 184.92 391.449 184.92C394.729 184.92 397.429 185.52 399.549 186.72V185.46C399.549 183.54 398.789 181.92 397.269 180.6C395.749 179.24 393.969 178.56 391.929 178.56C388.849 178.56 386.409 179.86 384.609 182.46L379.749 179.4C382.429 175.56 386.389 173.64 391.629 173.64ZM437.679 204.96C433.319 204.96 429.699 203.48 426.819 200.52C423.979 197.48 422.559 193.74 422.559 189.3C422.559 184.78 423.979 181.04 426.819 178.08C429.699 175.12 433.319 173.64 437.679 173.64C440.679 173.64 443.299 174.4 445.539 175.92C447.779 177.4 449.459 179.46 450.579 182.1L445.539 184.2C443.979 180.52 441.239 178.68 437.319 178.68C434.799 178.68 432.619 179.7 430.779 181.74C428.979 183.78 428.079 186.3 428.079 189.3C428.079 192.3 428.979 194.82 430.779 196.86C432.619 198.9 434.799 199.92 437.319 199.92C441.359 199.92 444.199 198.08 445.839 194.4L450.759 196.5C449.679 199.14 447.979 201.22 445.659 202.74C443.379 204.22 440.719 204.96 437.679 204.96ZM453.614 189.3C453.614 184.78 455.034 181.04 457.874 178.08C460.754 175.12 464.374 173.64 468.734 173.64C473.094 173.64 476.694 175.12 479.534 178.08C482.414 181.04 483.854 184.78 483.854 189.3C483.854 193.86 482.414 197.6 479.534 200.52C476.694 203.48 473.094 204.96 468.734 204.96C464.374 204.96 460.754 203.48 457.874 200.52C455.034 197.56 453.614 193.82 453.614 189.3ZM459.134 189.3C459.134 192.46 460.054 195.02 461.894 196.98C463.734 198.94 466.014 199.92 468.734 199.92C471.454 199.92 473.734 198.94 475.574 196.98C477.414 195.02 478.334 192.46 478.334 189.3C478.334 186.18 477.414 183.64 475.574 181.68C473.694 179.68 471.414 178.68 468.734 178.68C466.054 178.68 463.774 179.68 461.894 181.68C460.054 183.64 459.134 186.18 459.134 189.3ZM493.802 204H488.282V174.6H493.562V178.68H493.802C494.642 177.24 495.922 176.04 497.642 175.08C499.402 174.12 501.142 173.64 502.862 173.64C505.022 173.64 506.922 174.14 508.562 175.14C510.202 176.14 511.402 177.52 512.162 179.28C514.602 175.52 517.982 173.64 522.302 173.64C525.702 173.64 528.322 174.68 530.162 176.76C532.002 178.84 532.922 181.8 532.922 185.64V204H527.402V186.48C527.402 183.72 526.902 181.74 525.902 180.54C524.902 179.3 523.222 178.68 520.862 178.68C518.742 178.68 516.962 179.58 515.522 181.38C514.082 183.18 513.362 185.3 513.362 187.74V204H507.842V186.48C507.842 183.72 507.342 181.74 506.342 180.54C505.342 179.3 503.662 178.68 501.302 178.68C499.182 178.68 497.402 179.58 495.962 181.38C494.522 183.18 493.802 185.3 493.802 187.74V204ZM29.16 277H23.88V272.92H23.64C22.8 274.36 21.5 275.56 19.74 276.52C18.02 277.48 16.22 277.96 14.34 277.96C10.74 277.96 7.96 276.94 6 274.9C4.08 272.82 3.12 269.88 3.12 266.08V247.6H8.64V265.72C8.76 270.52 11.18 272.92 15.9 272.92C18.1 272.92 19.94 272.04 21.42 270.28C22.9 268.48 23.64 266.34 23.64 263.86V247.6H29.16V277ZM41.3995 277H35.8795V247.6H41.1595V251.68H41.3995C42.2395 250.24 43.5195 249.04 45.2395 248.08C46.9995 247.12 48.7395 246.64 50.4595 246.64C52.6195 246.64 54.5195 247.14 56.1595 248.14C57.7995 249.14 58.9995 250.52 59.7595 252.28C62.1995 248.52 65.5795 246.64 69.8995 246.64C73.2995 246.64 75.9195 247.68 77.7595 249.76C79.5995 251.84 80.5195 254.8 80.5195 258.64V277H74.9995V259.48C74.9995 256.72 74.4995 254.74 73.4995 253.54C72.4995 252.3 70.8195 251.68 68.4595 251.68C66.3395 251.68 64.5595 252.58 63.1195 254.38C61.6795 256.18 60.9595 258.3 60.9595 260.74V277H55.4395V259.48C55.4395 256.72 54.9395 254.74 53.9395 253.54C52.9395 252.3 51.2595 251.68 48.8995 251.68C46.7795 251.68 44.9995 252.58 43.5595 254.38C42.1195 256.18 41.3995 258.3 41.3995 260.74V277Z" fill="#474747"/>
<path d="M185 258.21C185 262.364 183.561 265.879 180.684 268.755C177.807 271.585 174.258 273 170.035 273C165.766 273 162.193 271.585 159.316 268.755C156.439 265.925 155 262.41 155 258.21V234.656C155 233.287 155.418 232.168 156.253 231.301C157.135 230.434 158.271 230 159.664 230C161.056 230 162.193 230.434 163.074 231.301C163.956 232.168 164.397 233.287 164.397 234.656V238.285H180.336C181.729 238.285 182.842 238.719 183.677 239.586C184.559 240.408 185 241.503 185 242.873C185 245.977 183.445 247.529 180.336 247.529H164.397V258.21C164.397 259.762 164.93 261.086 165.998 262.182C167.111 263.232 168.457 263.756 170.035 263.756C171.613 263.756 172.935 263.232 174.002 262.182C175.07 261.086 175.603 259.762 175.603 258.21V257.594C175.603 256.27 176.044 255.175 176.926 254.307C177.854 253.44 178.991 253.006 180.336 253.006C181.682 253.006 182.796 253.44 183.677 254.307C184.559 255.175 185 256.27 185 257.594V258.21Z" fill="#C66D2C"/>
<path d="M150.006 268.367C150.006 269.75 149.586 270.879 148.747 271.755C147.908 272.585 146.825 273 145.5 273C144.175 273 143.092 272.585 142.253 271.755C141.458 270.879 141.06 269.75 141.06 268.367V242.433C141.06 241.05 141.458 239.943 142.253 239.114C143.092 238.238 144.175 237.8 145.5 237.8C148.504 237.8 150.006 239.344 150.006 242.433V268.367ZM145.5 223C143.998 223 142.695 223.576 141.59 224.729C140.53 225.836 140 227.173 140 228.74C140 230.308 140.53 231.668 141.59 232.82C142.695 233.927 143.998 234.48 145.5 234.48C147.002 234.48 148.283 233.927 149.343 232.82C150.448 231.668 151 230.308 151 228.74C151 227.173 150.448 225.836 149.343 224.729C148.283 223.576 147.002 223 145.5 223Z" fill="#C66D2C"/>
<path d="M119.965 264.331C122.313 264.331 124.309 263.514 125.953 261.88C127.644 260.199 128.489 258.192 128.489 255.857C128.489 253.523 127.644 251.539 125.953 249.905C124.309 248.271 122.313 247.454 119.965 247.454C117.616 247.454 115.62 248.271 113.977 249.905C112.333 251.539 111.511 253.523 111.511 255.857V283.238C111.511 284.639 111.065 285.783 110.172 286.67C109.28 287.557 108.129 288 106.72 288C105.311 288 104.16 287.557 103.268 286.67C102.423 285.783 102 284.639 102 283.238V255.857C102 250.815 103.714 246.59 107.143 243.182C110.618 239.727 114.892 238 119.965 238C125.037 238 129.311 239.727 132.787 243.182C136.262 246.59 138 250.815 138 255.857C138 260.899 136.262 265.148 132.787 268.602C129.311 272.057 125.037 273.784 119.965 273.784C118.556 273.784 117.405 273.341 116.513 272.454C115.667 271.567 115.245 270.423 115.245 269.023C115.245 267.622 115.667 266.502 116.513 265.661C117.405 264.774 118.556 264.331 119.965 264.331Z" fill="#C66D2C"/>
<path d="M248 258.554C248 262.612 246.609 266.045 243.828 268.854C241.047 271.618 237.616 273 233.534 273C229.407 273 225.953 271.618 223.172 268.854C220.391 266.089 219 262.656 219 258.554V235.548C219 234.21 219.404 233.118 220.211 232.271C221.063 231.424 222.162 231 223.508 231C224.854 231 225.953 231.424 226.805 232.271C227.657 233.118 228.084 234.21 228.084 235.548V239.092H243.492C244.838 239.092 245.914 239.516 246.722 240.363C247.574 241.166 248 242.236 248 243.573C248 246.605 246.497 248.121 243.492 248.121H228.084V258.554C228.084 260.07 228.599 261.363 229.631 262.433C230.708 263.459 232.009 263.971 233.534 263.971C235.059 263.971 236.337 263.459 237.369 262.433C238.401 261.363 238.916 260.07 238.916 258.554V257.952C238.916 256.659 239.343 255.589 240.195 254.742C241.092 253.895 242.191 253.471 243.492 253.471C244.793 253.471 245.869 253.895 246.722 254.742C247.574 255.589 248 256.659 248 257.952V258.554Z" fill="#C66D2C"/>
<path d="M206.305 249.307C205.527 250.066 205.137 251.003 205.137 252.118L205.069 259.882C205.023 263.541 203.695 266.642 201.084 269.185C198.519 271.728 195.359 273 191.603 273C190.229 273 189.107 272.599 188.237 271.795C187.412 270.948 187 269.854 187 268.516C187 267.177 187.412 266.084 188.237 265.236C189.107 264.389 190.229 263.965 191.603 263.965C192.794 263.965 193.779 263.585 194.557 262.827C195.382 262.024 195.794 261.042 195.794 259.882C195.794 259.48 195.794 259.034 195.794 258.543C195.84 256.759 195.863 255.844 195.863 255.799V252.118C195.863 248.415 197.145 245.314 199.71 242.815C202.321 240.272 205.527 239 209.328 239C210.702 239 211.824 239.424 212.695 240.272C213.565 241.075 214 242.146 214 243.484C214 244.778 213.588 245.827 212.763 246.63C211.939 247.433 210.84 247.902 209.466 248.036C208.137 248.125 207.084 248.549 206.305 249.307Z" fill="#C66D2C"/>
<path d="M322.965 264.804C325.313 264.804 327.309 264.003 328.953 262.402C330.644 260.755 331.489 258.788 331.489 256.5C331.489 254.213 330.644 252.268 328.953 250.667C327.309 249.065 325.313 248.265 322.965 248.265C320.616 248.265 318.62 249.065 316.977 250.667C315.333 252.268 314.511 254.213 314.511 256.5V283.333C314.511 284.706 314.065 285.827 313.172 286.696C312.28 287.565 311.129 288 309.72 288C308.311 288 307.16 287.565 306.268 286.696C305.423 285.827 305 284.706 305 283.333V256.5C305 251.559 306.714 247.418 310.143 244.079C313.618 240.693 317.892 239 322.965 239C328.037 239 332.311 240.693 335.787 244.079C339.262 247.418 341 251.559 341 256.5C341 261.441 339.262 265.605 335.787 268.99C332.311 272.376 328.037 274.069 322.965 274.069C321.556 274.069 320.405 273.634 319.513 272.765C318.667 271.896 318.245 270.775 318.245 269.402C318.245 268.03 318.667 266.931 319.513 266.108C320.405 265.239 321.556 264.804 322.965 264.804Z" fill="#C66D2C"/>
<path fill-rule="evenodd" clip-rule="evenodd" d="M276.196 235.006C275.093 235.042 274.171 235.159 273.373 235.363C271.269 235.899 269.762 237.094 268.395 239.308C268.33 239.413 268.264 239.522 268.247 239.551L268.217 239.603L268.572 239.482C268.767 239.415 269.19 239.27 269.512 239.16C270.399 238.856 270.796 238.73 271.29 238.598C272.417 238.295 273.504 238.147 275.359 238.044C276.102 238.003 276.368 237.981 276.754 237.932C277.826 237.793 278.548 237.549 279.163 237.116C279.455 236.91 279.745 236.64 280.195 236.153C280.546 235.774 280.757 235.549 280.937 235.367C281.017 235.285 281.079 235.218 281.074 235.218C281.07 235.218 280.888 235.203 280.671 235.185C279.725 235.106 278.828 235.05 278.004 235.017C277.604 235.001 276.536 234.994 276.196 235.006ZM269.473 235.398C268.702 235.435 267.953 235.528 267.309 235.666C266.005 235.946 265.158 236.402 264.868 236.981C264.62 237.477 264.766 238.065 265.305 238.731C265.49 238.959 265.75 239.226 266.02 239.462L266.104 239.536L266.237 239.405C266.311 239.333 266.457 239.2 266.561 239.108C266.757 238.937 266.848 238.859 267.694 238.155C268.519 237.467 268.848 237.173 269.284 236.735C269.68 236.338 269.886 236.097 270.084 235.795C270.166 235.669 270.294 235.429 270.294 235.399C270.294 235.384 269.779 235.383 269.473 235.398ZM286.428 235.768C285.722 235.81 284.916 236.049 284.068 236.466C282.308 237.334 280.792 238.883 279.564 241.071C278.281 243.355 277.323 246.328 276.75 249.805C276.488 251.389 276.306 253.139 276.23 254.801C276.173 256.033 276.171 257.416 276.224 258.516C276.419 262.553 277.157 266.235 278.392 269.326C279.182 271.304 280.163 272.992 281.274 274.289C282.715 275.97 284.339 276.964 285.987 277.175C286.473 277.236 287.023 277.227 287.51 277.148C288.32 277.016 289.14 276.679 289.915 276.16C291.674 274.98 293.249 272.854 294.547 269.904C294.921 269.056 295.289 268.096 295.601 267.155C296.367 264.845 296.828 261.847 296.961 258.315C296.974 257.982 297.001 256.756 297 256.558C296.998 256.042 296.966 254.805 296.939 254.214C296.699 248.922 295.67 244.232 294.146 241.49C293.363 240.081 292.278 238.717 291.152 237.729C289.574 236.342 287.968 235.676 286.428 235.768ZM263.184 238.794C263.044 238.82 262.894 238.874 262.737 238.954C262.402 239.123 262.102 239.36 261.702 239.769C260.994 240.492 260.207 241.601 259.384 243.04C259.301 243.185 259.224 243.319 259.212 243.338L259.192 243.372L259.36 243.567C259.731 243.998 260.235 244.531 261.083 245.39C261.371 245.682 261.789 246.108 262.012 246.335C262.234 246.562 262.418 246.746 262.42 246.743C262.441 246.722 264.177 243.559 264.192 243.516C264.224 243.421 264.297 243.145 264.346 242.935C264.433 242.554 264.504 242.118 264.543 241.714C264.572 241.425 264.572 240.72 264.543 240.483C264.49 240.032 264.412 239.729 264.28 239.453C264.11 239.098 263.898 238.893 263.611 238.809C263.512 238.779 263.3 238.772 263.184 238.794ZM276.592 239.147C274.253 239.189 272.386 239.423 270.847 239.868C267.669 240.786 265.708 242.68 264.549 245.95C264.44 246.257 264.201 247.02 264.201 247.061C264.201 247.079 265.48 246.588 266.924 246.014C267.899 245.626 268.235 245.496 268.58 245.371C270.332 244.739 271.672 244.535 274.411 244.483C274.77 244.476 275.065 244.469 275.065 244.469C275.077 244.449 277.491 239.155 277.491 239.147C277.491 239.134 277.327 239.134 276.592 239.147ZM258.636 245.12C258.19 245.661 257.806 246.323 257.451 247.157C256.74 248.833 256.255 251.108 256.107 253.464C256.087 253.783 256.064 254.366 256.069 254.428L256.073 254.474L258.628 256.512C260.033 257.633 261.186 258.55 261.189 258.55C261.193 258.55 261.2 258.4 261.204 258.217C261.251 256.167 261.388 253.431 261.573 250.845C261.628 250.089 261.635 249.938 261.635 249.564C261.634 249.04 261.599 248.624 261.522 248.233C261.267 246.936 260.614 246.071 259.331 245.329C259.2 245.253 258.849 245.067 258.776 245.035L258.725 245.012L258.636 245.12ZM272.308 245.722C269.505 245.814 267.338 246.542 265.771 247.917C264.843 248.732 264.111 249.799 263.605 251.079C263.063 252.449 262.772 253.959 262.672 255.931C262.643 256.505 262.649 257.96 262.682 258.338L262.689 258.423L263.23 257.961C263.827 257.45 264.1 257.188 264.547 256.692C264.818 256.391 265.408 255.797 265.618 255.613C266.752 254.62 267.834 254.084 269.412 253.733C270.082 253.584 270.726 253.48 272.324 253.263C273.279 253.133 273.666 253.079 273.671 253.074C273.679 253.066 274.857 245.812 274.852 245.806C274.837 245.792 274.101 245.744 273.619 245.726C273.359 245.716 272.558 245.714 272.308 245.722ZM287.198 246.103C286.7 246.15 286.281 246.313 285.841 246.629C285.582 246.815 285.227 247.15 285.001 247.421C284.307 248.256 283.757 249.363 283.377 250.693C283.007 251.987 282.758 253.409 282.663 254.784C282.628 255.289 282.622 255.437 282.616 256.044C282.603 257.279 282.677 258.327 282.858 259.473C283.447 263.195 285.04 266.145 286.774 266.723C287.034 266.81 287.122 266.824 287.405 266.824C287.619 266.825 287.665 266.821 287.767 266.799C288.598 266.617 289.301 265.942 289.968 264.682C290.409 263.85 290.913 262.386 291.136 261.288C291.65 258.762 291.636 254.609 291.103 251.574C290.855 250.163 290.543 249.159 290.092 248.317C289.355 246.941 288.489 246.199 287.516 246.107C287.4 246.096 287.284 246.094 287.198 246.103ZM272.218 254.589C269.57 254.686 267.528 255.367 266.092 256.631C265.933 256.772 265.644 257.066 265.501 257.233C264.612 258.276 264.082 259.585 263.911 261.157C263.867 261.566 263.861 261.702 263.861 262.293C263.861 262.901 263.868 263.057 263.917 263.546C264.085 265.226 264.561 267.022 265.358 268.988C265.424 269.149 265.481 269.281 265.485 269.281C265.49 269.281 265.731 269.033 266.022 268.73C268.188 266.476 269.27 265.462 270.154 264.859C270.523 264.608 270.814 264.447 271.644 264.036C272.276 263.723 272.351 263.691 272.72 263.563C273.342 263.349 273.634 263.217 273.969 263L274.09 262.921L274.083 262.747C274.079 262.651 274.03 260.78 273.974 258.589C273.919 256.398 273.871 254.604 273.871 254.604C273.871 254.604 273.702 254.596 273.496 254.59C273.087 254.576 272.583 254.576 272.218 254.589ZM256 256.655C256 256.968 256.005 257.357 256.011 257.52C256.116 260.28 256.576 263.237 257.195 265.138C257.239 265.272 257.302 265.452 257.336 265.538C257.8 266.718 258.796 267.573 260.426 268.189C261.15 268.463 262.019 268.695 263.397 268.985C263.589 269.025 263.749 269.056 263.753 269.052C263.758 269.047 263.319 267.628 262.994 266.601C262.034 263.569 261.283 261.739 260.389 260.248C259.849 259.347 259.309 258.644 258.645 257.979C257.901 257.232 257.163 256.693 256.198 256.19L256 256.086L256 256.655ZM273.369 264.772C272.315 264.832 271.392 265.076 270.533 265.521C269.61 265.999 268.838 266.688 268.28 267.53C268.108 267.79 268.033 267.919 267.906 268.172C267.591 268.804 267.401 269.466 267.329 270.179C267.303 270.44 267.303 270.972 267.33 271.223C267.473 272.59 268.059 273.797 269.076 274.818C269.295 275.038 269.731 275.422 269.787 275.444C269.802 275.449 269.892 275.395 270.086 275.265C270.468 275.01 270.709 274.794 271.15 274.318C271.614 273.816 271.867 273.573 272.224 273.288C272.653 272.945 273.028 272.7 273.452 272.488C273.832 272.298 274.122 272.19 274.779 271.995C275.458 271.794 275.774 271.678 276.166 271.488C276.358 271.395 276.387 271.378 276.383 271.358C276.381 271.345 275.93 269.861 275.381 268.06L274.383 264.786L274.305 264.779C274.169 264.766 273.542 264.762 273.369 264.772ZM259.102 268.763C259.102 268.774 259.124 268.869 259.151 268.974C259.294 269.524 259.476 270 259.777 270.607C260.298 271.66 261.015 272.695 261.929 273.713C262.119 273.924 262.789 274.596 262.996 274.783C263.716 275.432 264.413 275.955 265.144 276.395C266.452 277.182 267.708 277.615 268.955 277.708C269.111 277.719 269.658 277.723 269.658 277.713C269.658 277.698 269.325 277.173 269.158 276.924C268.749 276.315 268.362 275.83 267.711 275.111C267.251 274.604 267.066 274.385 266.349 273.506C265.383 272.32 265.103 272.004 264.491 271.403C263.446 270.377 262.26 269.649 260.882 269.186C260.411 269.028 259.94 268.903 259.431 268.802C259.113 268.738 259.102 268.737 259.102 268.763ZM276.202 272.974C275.46 273.038 274.761 273.19 274.123 273.429C273.041 273.833 272.268 274.425 271.961 275.083C271.861 275.298 271.811 275.503 271.803 275.734C271.791 276.058 271.857 276.345 272.023 276.68C272.142 276.922 272.249 277.06 272.414 277.187C273.279 277.855 275.47 278.107 279.125 277.959C279.766 277.933 281.359 277.85 281.366 277.841C281.375 277.832 277.178 272.991 277.152 272.981C277.12 272.968 276.343 272.962 276.202 272.974Z" fill="#C66D2C"/>
</svg>
