<svg width="62" height="62" viewBox="0 0 62 62" fill="none" xmlns="http://www.w3.org/2000/svg">
<path d="M52.6173 9.13917C49.7906 6.28377 46.4235 4.01981 42.7126 2.47932C39.0016 0.938839 35.0211 0.152669 31.0032 0.166667C14.1682 0.166667 0.447351 13.8875 0.447351 30.7225C0.447351 36.1183 1.86568 41.36 4.51735 45.985L0.200684 61.8333L16.3882 57.5783C20.859 60.0142 25.8848 61.3092 31.0032 61.3092C47.8382 61.3092 61.559 47.5883 61.559 30.7533C61.559 22.5825 58.3832 14.905 52.6173 9.13917ZM31.0032 56.1292C26.4398 56.1292 21.969 54.8958 18.0532 52.5833L17.1282 52.0283L7.50818 54.5567L10.0674 45.1833L9.45068 44.2275C6.9154 40.179 5.5692 35.4993 5.56568 30.7225C5.56568 16.7242 16.974 5.31583 30.9723 5.31583C37.7557 5.31583 44.1382 7.9675 48.9174 12.7775C51.2838 15.1331 53.1591 17.9349 54.4346 21.0206C55.7102 24.1062 56.3606 27.4144 56.3482 30.7533C56.4099 44.7517 45.0015 56.1292 31.0032 56.1292ZM44.9398 37.1358C44.169 36.7658 40.4073 34.9158 39.729 34.6383C39.0198 34.3917 38.5265 34.2683 38.0023 35.0083C37.4782 35.7792 36.029 37.5058 35.5973 37.9992C35.1657 38.5233 34.7032 38.585 33.9323 38.1842C33.1615 37.8142 30.6948 36.9817 27.7965 34.3917C25.5148 32.3567 24.004 29.8592 23.5415 29.0883C23.1098 28.3175 23.4798 27.9167 23.8807 27.5158C24.2198 27.1767 24.6515 26.6217 25.0215 26.19C25.3915 25.7583 25.5457 25.4192 25.7924 24.9258C26.039 24.4017 25.9157 23.97 25.7307 23.6C25.5457 23.23 24.004 19.4683 23.3873 17.9267C22.7707 16.4467 22.1232 16.6317 21.6607 16.6008H20.1807C19.6565 16.6008 18.8548 16.7858 18.1457 17.5567C17.4673 18.3275 15.494 20.1775 15.494 23.9392C15.494 27.7008 18.2382 31.3392 18.6082 31.8325C18.9782 32.3567 24.004 40.065 31.6507 43.3642C33.4698 44.1658 34.8882 44.6283 35.9982 44.9675C37.8173 45.5533 39.4823 45.4608 40.8082 45.2758C42.2882 45.06 45.3407 43.4258 45.9573 41.6375C46.6048 39.8492 46.6049 38.3383 46.389 37.9992C46.1732 37.66 45.7107 37.5058 44.9398 37.1358Z" fill="#315C32"/>
</svg>
