<svg width="236" height="68" viewBox="0 0 236 68" fill="none" xmlns="http://www.w3.org/2000/svg">
<path d="M0 34C0 15.2223 15.2223 0 34 0H202C220.778 0 236 15.2223 236 34C236 52.7777 220.778 68 202 68H34C15.2223 68 0 52.7777 0 34Z" fill="#C66D2C"/>
<path d="M115.523 29.6162C116.177 29.6162 116.774 29.731 117.314 29.9606C117.865 30.1787 118.336 30.4887 118.726 30.8905C119.128 31.2808 119.438 31.7515 119.656 32.3025C119.885 32.8536 120 33.4563 120 34.1106C120 34.765 119.885 35.3677 119.656 35.9187C119.438 36.4698 119.128 36.9462 118.726 37.348C118.336 37.7383 117.865 38.0483 117.314 38.2779C116.774 38.496 116.177 38.605 115.523 38.605C114.869 38.605 114.266 38.496 113.715 38.2779C113.175 38.0483 112.705 37.7383 112.303 37.348C111.913 36.9462 111.603 36.4698 111.373 35.9187C111.155 35.3677 111.046 34.765 111.046 34.1106C111.046 33.4563 111.155 32.8536 111.373 32.3025C111.603 31.7515 111.913 31.2808 112.303 30.8905C112.705 30.4887 113.175 30.1787 113.715 29.9606C114.266 29.731 114.869 29.6162 115.523 29.6162ZM115.523 36.5214C115.81 36.5214 116.086 36.4698 116.35 36.3664C116.625 36.2516 116.866 36.0909 117.073 35.8843C117.28 35.6776 117.44 35.4251 117.555 35.1266C117.681 34.8281 117.744 34.4895 117.744 34.1106C117.744 33.7318 117.681 33.3931 117.555 33.0946C117.44 32.7962 117.28 32.5436 117.073 32.337C116.866 32.1303 116.625 31.9753 116.35 31.872C116.086 31.7572 115.81 31.6998 115.523 31.6998C115.225 31.6998 114.943 31.7572 114.679 31.872C114.415 31.9753 114.18 32.1303 113.973 32.337C113.767 32.5436 113.6 32.7962 113.474 33.0946C113.359 33.3931 113.302 33.7318 113.302 34.1106C113.302 34.4895 113.359 34.8281 113.474 35.1266C113.6 35.4251 113.767 35.6776 113.973 35.8843C114.18 36.0909 114.415 36.2516 114.679 36.3664C114.943 36.4698 115.225 36.5214 115.523 36.5214Z" fill="#F1EFE9"/>
<path d="M100.731 29.8917H102.85V31.0627H102.987C103.091 30.856 103.228 30.6666 103.401 30.4944C103.573 30.3222 103.762 30.173 103.969 30.0467C104.187 29.9204 104.417 29.8228 104.658 29.754C104.91 29.6851 105.157 29.6506 105.398 29.6506C105.697 29.6506 105.949 29.6793 106.156 29.7367C106.374 29.7941 106.558 29.8688 106.707 29.9606L106.104 32.0098C105.966 31.9409 105.811 31.8892 105.639 31.8548C105.478 31.8089 105.278 31.7859 105.036 31.7859C104.726 31.7859 104.445 31.8491 104.193 31.9753C103.94 32.0901 103.722 32.2566 103.538 32.4747C103.366 32.6928 103.228 32.9511 103.125 33.2496C103.033 33.5366 102.987 33.8523 102.987 34.1967V38.3295H100.731V29.8917Z" fill="#F1EFE9"/>
<path d="M96.7168 37.4341H96.579C96.315 37.7555 95.9935 38.031 95.6147 38.2606C95.2473 38.4902 94.7709 38.605 94.1854 38.605C93.7492 38.605 93.3359 38.5304 92.9456 38.3812C92.5668 38.2434 92.2338 38.0483 91.9468 37.7957C91.6598 37.5431 91.436 37.2389 91.2753 36.883C91.1145 36.5272 91.0342 36.1368 91.0342 35.7121C91.0342 35.2758 91.1203 34.8855 91.2925 34.5411C91.4647 34.1852 91.7058 33.881 92.0157 33.6285C92.3257 33.3759 92.6873 33.1865 93.1006 33.0602C93.5253 32.9224 93.9845 32.8536 94.4782 32.8536C95.0292 32.8536 95.4827 32.8995 95.8386 32.9913C96.1944 33.0717 96.4872 33.1578 96.7168 33.2496V32.9913C96.7168 32.5436 96.5388 32.1762 96.183 31.8893C95.8271 31.5908 95.3851 31.4415 94.857 31.4415C94.0764 31.4415 93.4163 31.7687 92.8767 32.4231L91.2408 31.3038C92.1363 30.1787 93.3589 29.6162 94.9087 29.6162C96.2174 29.6162 97.2162 29.9262 97.905 30.5461C98.5938 31.1545 98.9382 32.0615 98.9382 33.2668V38.3295H96.7168V37.4341ZM96.7168 34.9027C96.4527 34.7765 96.1772 34.6789 95.8902 34.61C95.6147 34.5296 95.3105 34.4895 94.9776 34.4895C94.438 34.4895 94.019 34.61 93.7205 34.8511C93.4335 35.0807 93.29 35.3677 93.29 35.7121C93.29 36.0565 93.4278 36.332 93.7033 36.5386C93.9903 36.7453 94.3175 36.8486 94.6848 36.8486C94.9833 36.8486 95.2588 36.7969 95.5114 36.6936C95.7639 36.5788 95.9763 36.4353 96.1485 36.2631C96.3322 36.0794 96.47 35.8728 96.5618 35.6432C96.6651 35.4021 96.7168 35.1553 96.7168 34.9027Z" fill="#F1EFE9"/>
<path d="M86.4488 38.605C85.8978 38.605 85.4042 38.5362 84.9679 38.3984C84.5432 38.2606 84.1701 38.0827 83.8486 37.8646C83.5387 37.635 83.2746 37.3767 83.0565 37.0897C82.8384 36.7912 82.6719 36.4927 82.5571 36.1942L84.5719 35.3332C84.767 35.7695 85.0253 36.0967 85.3468 36.3148C85.6797 36.5214 86.047 36.6247 86.4488 36.6247C86.8621 36.6247 87.1893 36.5501 87.4304 36.4009C87.6715 36.2516 87.792 36.0737 87.792 35.8671C87.792 35.6375 87.6887 35.4538 87.482 35.316C87.2869 35.1668 86.9425 35.0348 86.4488 34.92L85.2607 34.6617C84.9966 34.6043 84.7211 34.5124 84.4341 34.3861C84.1586 34.2599 83.906 34.0991 83.6764 33.904C83.4468 33.7088 83.2574 33.4735 83.1082 33.198C82.9589 32.9224 82.8843 32.601 82.8843 32.2337C82.8843 31.8204 82.9704 31.453 83.1426 31.1316C83.3263 30.8101 83.5731 30.5404 83.8831 30.3222C84.193 30.0926 84.5546 29.9204 84.9679 29.8056C85.3927 29.6794 85.8461 29.6162 86.3283 29.6162C87.1319 29.6162 87.8494 29.7769 88.4808 30.0984C89.1122 30.4083 89.5771 30.9077 89.8756 31.5965L87.9298 32.3886C87.769 32.0557 87.5337 31.8146 87.2237 31.6654C86.9138 31.5162 86.6038 31.4415 86.2939 31.4415C85.9724 31.4415 85.6912 31.5104 85.4501 31.6482C85.209 31.7745 85.0885 31.9409 85.0885 32.1476C85.0885 32.3427 85.186 32.4977 85.3812 32.6125C85.5878 32.7273 85.8634 32.8306 86.2078 32.9224L87.4993 33.2324C88.3603 33.439 88.9974 33.772 89.4107 34.2312C89.8354 34.6789 90.0478 35.2127 90.0478 35.8326C90.0478 36.2 89.9617 36.5501 89.7895 36.883C89.6173 37.216 89.3705 37.5144 89.0491 37.7785C88.7391 38.031 88.3603 38.2319 87.9125 38.3812C87.4763 38.5304 86.9884 38.605 86.4488 38.605Z" fill="#F1EFE9"/>
<path d="M78.1246 38.605C77.5736 38.605 77.0799 38.5362 76.6437 38.3984C76.2189 38.2606 75.8458 38.0827 75.5244 37.8646C75.2144 37.635 74.9504 37.3767 74.7323 37.0897C74.5142 36.7912 74.3477 36.4927 74.2329 36.1942L76.2476 35.3332C76.4428 35.7695 76.7011 36.0967 77.0226 36.3148C77.3555 36.5214 77.7228 36.6247 78.1246 36.6247C78.5379 36.6247 78.8651 36.5501 79.1062 36.4009C79.3472 36.2516 79.4678 36.0737 79.4678 35.8671C79.4678 35.6375 79.3645 35.4538 79.1578 35.316C78.9627 35.1668 78.6183 35.0348 78.1246 34.92L76.9364 34.6617C76.6724 34.6043 76.3969 34.5124 76.1099 34.3861C75.8344 34.2599 75.5818 34.0991 75.3522 33.904C75.1226 33.7088 74.9332 33.4735 74.7839 33.198C74.6347 32.9224 74.5601 32.601 74.5601 32.2337C74.5601 31.8204 74.6462 31.453 74.8184 31.1316C75.0021 30.8101 75.2489 30.5404 75.5589 30.3222C75.8688 30.0926 76.2304 29.9204 76.6437 29.8056C77.0685 29.6794 77.5219 29.6162 78.0041 29.6162C78.8077 29.6162 79.5252 29.7769 80.1566 30.0984C80.788 30.4083 81.2529 30.9077 81.5514 31.5965L79.6055 32.3886C79.4448 32.0557 79.2095 31.8146 78.8995 31.6654C78.5896 31.5162 78.2796 31.4415 77.9696 31.4415C77.6482 31.4415 77.3669 31.5104 77.1259 31.6482C76.8848 31.7745 76.7642 31.9409 76.7642 32.1476C76.7642 32.3427 76.8618 32.4977 77.057 32.6125C77.2636 32.7273 77.5391 32.8306 77.8835 32.9224L79.175 33.2324C80.036 33.439 80.6732 33.772 81.0865 34.2312C81.5112 34.6789 81.7236 35.2127 81.7236 35.8326C81.7236 36.2 81.6375 36.5501 81.4653 36.883C81.2931 37.216 81.0463 37.5144 80.7248 37.7785C80.4149 38.031 80.036 38.2319 79.5883 38.3812C79.1521 38.5304 78.6642 38.605 78.1246 38.605Z" fill="#F1EFE9"/>
<path d="M73.1217 36.2976C72.7313 36.9864 72.2033 37.5431 71.5374 37.9679C70.8831 38.3927 70.0795 38.605 69.1266 38.605C68.4837 38.605 67.8868 38.496 67.3357 38.2779C66.7962 38.0483 66.3255 37.7326 65.9237 37.3308C65.5219 36.929 65.2062 36.4583 64.9766 35.9187C64.7585 35.3677 64.6494 34.765 64.6494 34.1106C64.6494 33.5022 64.7585 32.9282 64.9766 32.3886C65.1947 31.8376 65.4989 31.3612 65.8893 30.9594C66.2796 30.5461 66.7388 30.2189 67.2669 29.9778C67.8064 29.7368 68.3976 29.6162 69.0405 29.6162C69.7178 29.6162 70.3205 29.731 70.8486 29.9606C71.3767 30.1787 71.8187 30.4887 72.1745 30.8905C72.5304 31.2808 72.8002 31.7457 72.9839 32.2853C73.1676 32.8249 73.2594 33.4103 73.2594 34.0417C73.2594 34.1221 73.2594 34.191 73.2594 34.2484C73.2479 34.3173 73.2422 34.3804 73.2422 34.4378C73.2307 34.4952 73.225 34.5583 73.225 34.6272H66.8708C66.9167 34.9716 67.0086 35.2701 67.1463 35.5227C67.2956 35.7637 67.4735 35.9704 67.6801 36.1426C67.8983 36.3033 68.1336 36.4238 68.3862 36.5042C68.6387 36.5731 68.897 36.6075 69.1611 36.6075C69.6777 36.6075 70.1024 36.4927 70.4353 36.2631C70.7797 36.022 71.0495 35.7236 71.2447 35.3677L73.1217 36.2976ZM71.0725 33.0258C71.061 32.8765 71.0093 32.7101 70.9175 32.5264C70.8371 32.3427 70.7109 32.1705 70.5387 32.0098C70.3779 31.8491 70.1713 31.7171 69.9187 31.6137C69.6777 31.5104 69.3849 31.4588 69.0405 31.4588C68.5584 31.4588 68.1336 31.5965 67.7662 31.872C67.3989 32.1475 67.1406 32.5321 66.9913 33.0258H71.0725Z" fill="#F1EFE9"/>
<path d="M63.8396 36.177C63.4722 36.8888 62.9556 37.4743 62.2898 37.9335C61.6354 38.3812 60.8146 38.605 59.8273 38.605C59.1729 38.605 58.5702 38.496 58.0192 38.2779C57.4796 38.0483 57.009 37.7326 56.6072 37.3308C56.2168 36.929 55.9069 36.4583 55.6773 35.9187C55.4592 35.3677 55.3501 34.765 55.3501 34.1106C55.3501 33.4563 55.4592 32.8536 55.6773 32.3025C55.9069 31.7515 56.2168 31.2808 56.6072 30.8905C57.009 30.4887 57.4796 30.1787 58.0192 29.9606C58.5702 29.731 59.1729 29.6162 59.8273 29.6162C60.8031 29.6162 61.6239 29.8401 62.2898 30.2878C62.9556 30.7355 63.4435 31.3153 63.7535 32.027L61.6871 32.888C61.4919 32.4977 61.2393 32.205 60.9294 32.0098C60.6309 31.8032 60.2521 31.6998 59.7929 31.6998C59.4944 31.6998 59.2131 31.7572 58.9491 31.872C58.685 31.9868 58.4497 32.1475 58.2431 32.3542C58.0479 32.5608 57.8929 32.8134 57.7781 33.1119C57.6633 33.4103 57.6059 33.7433 57.6059 34.1106C57.6059 34.478 57.6633 34.8109 57.7781 35.1094C57.8929 35.4079 58.0479 35.6604 58.2431 35.8671C58.4497 36.0737 58.685 36.2344 58.9491 36.3492C59.2131 36.464 59.4944 36.5214 59.7929 36.5214C60.2635 36.5214 60.6596 36.4181 60.981 36.2115C61.314 35.9933 61.578 35.6834 61.7732 35.2816L63.8396 36.177Z" fill="#F1EFE9"/>
<path d="M47.6322 26H50.2841L54.9162 38.3295H52.3505L51.3345 35.3849H46.5818L45.5658 38.3295H43L47.6322 26ZM50.5768 33.2496L49.4747 30.1672L49.027 28.6691H48.8892L48.4415 30.1672L47.3394 33.2496H50.5768Z" fill="#F1EFE9"/>
<path fill-rule="evenodd" clip-rule="evenodd" d="M139.937 34.3151C140.14 34.1118 140.242 33.8497 140.242 33.5287V27.51C140.242 26.7931 139.878 26.4347 139.15 26.4347C138.829 26.4347 138.567 26.5363 138.364 26.7396C138.171 26.9322 138.075 27.189 138.075 27.51V33.5287C138.075 33.8497 138.171 34.1118 138.364 34.3151C138.567 34.5077 138.829 34.604 139.15 34.604C139.471 34.604 139.734 34.5077 139.937 34.3151ZM138.203 23.4012C138.471 23.1337 138.787 23 139.15 23C139.514 23 139.824 23.1337 140.081 23.4012C140.349 23.658 140.483 23.9683 140.483 24.3321C140.483 24.6959 140.349 25.0116 140.081 25.2791C139.824 25.5359 139.514 25.6643 139.15 25.6643C138.787 25.6643 138.471 25.5359 138.203 25.2791C137.947 25.0116 137.818 24.6959 137.818 24.3321C137.818 23.9683 137.947 23.658 138.203 23.4012ZM147.054 33.6089C147.717 32.9349 148.049 32.111 148.049 31.1373V30.9928C148.049 30.6825 147.947 30.4257 147.744 30.2224C147.541 30.0191 147.284 29.9175 146.974 29.9175C146.663 29.9175 146.401 30.0191 146.187 30.2224C145.984 30.4257 145.882 30.6825 145.882 30.9928V31.1373C145.882 31.5011 145.759 31.8114 145.513 32.0682C145.267 32.3143 144.962 32.4373 144.598 32.4373C144.234 32.4373 143.924 32.3143 143.667 32.0682C143.421 31.8114 143.298 31.5011 143.298 31.1373V28.6335H146.974C147.691 28.6335 148.049 28.2697 148.049 27.5421C148.049 27.2211 147.947 26.9643 147.744 26.7717C147.551 26.5684 147.295 26.4668 146.974 26.4668H143.298V25.6161C143.298 25.2951 143.197 25.033 142.993 24.8297C142.79 24.6264 142.528 24.5248 142.207 24.5248C141.886 24.5248 141.624 24.6264 141.42 24.8297C141.228 25.033 141.132 25.2951 141.132 25.6161V31.1373C141.132 32.1217 141.463 32.9456 142.127 33.6089C142.79 34.2723 143.614 34.604 144.598 34.604C145.572 34.604 146.39 34.2723 147.054 33.6089ZM133.093 32.4694C133.628 32.4694 134.083 32.2822 134.457 31.9077C134.842 31.5225 135.035 31.0624 135.035 30.5274C135.035 29.9924 134.842 29.5376 134.457 29.1631C134.083 28.7886 133.628 28.6014 133.093 28.6014C132.558 28.6014 132.103 28.7886 131.729 29.1631C131.354 29.5376 131.167 29.9924 131.167 30.5274V36.8028C131.167 37.1238 131.065 37.386 130.862 37.5893C130.659 37.7926 130.396 37.8942 130.075 37.8942C129.754 37.8942 129.492 37.7926 129.289 37.5893C129.096 37.386 129 37.1238 129 36.8028V30.5274C129 29.3718 129.391 28.4034 130.172 27.6224C130.964 26.8306 131.937 26.4347 133.093 26.4347C134.248 26.4347 135.222 26.8306 136.014 27.6224C136.806 28.4034 137.202 29.3718 137.202 30.5274C137.202 31.683 136.806 32.6566 136.014 33.4484C135.222 34.2402 134.248 34.6361 133.093 34.6361C132.772 34.6361 132.51 34.5345 132.306 34.3312C132.114 34.1279 132.017 33.8657 132.017 33.5447C132.017 33.2237 132.114 32.9669 132.306 32.7743C132.51 32.571 132.772 32.4694 133.093 32.4694ZM154.42 39.6305L150.81 39.6205L150.8 42.8143L147.19 42.8042L147.18 45.9982L150.79 46.0082L150.8 42.8145L154.41 42.8245L154.42 39.6305ZM147.153 39.6106L143.543 39.6006L143.533 42.7942L139.923 42.7842L139.913 45.9781L143.524 45.9881L143.534 42.7945L147.143 42.8045L147.153 39.6106ZM139.887 39.5903L136.276 39.5803L136.266 42.774L132.657 42.764L132.647 45.9579L136.257 45.9679L136.267 42.7742L139.877 42.7842L139.887 39.5903ZM132.62 39.5705L129.01 39.5602L129 42.7542L132.611 42.7645L132.62 39.5705ZM158.076 45.9581L154.466 45.9481L154.476 42.7542L158.085 42.7642L158.095 39.5705L161.706 39.5805L161.696 42.7744L158.086 42.7644L158.076 45.9581ZM165.343 45.9781L161.732 45.9681L161.742 42.7741L165.351 42.7841L165.361 39.5905L168.972 39.6005L168.962 42.7945L165.353 42.7845L165.343 45.9781ZM172.609 45.9984L168.999 45.9883L169.009 42.7944L172.618 42.8044L172.628 39.6107L176.239 39.6207L176.229 42.8146L172.619 42.8046L172.609 45.9984ZM179.895 39.5602L183.506 39.5702L183.496 42.7642L179.885 42.7542L179.895 39.5602ZM176.265 46.0081L179.876 46.0184L179.886 42.8245L176.275 42.8142L176.265 46.0081ZM162.617 31.292C162.617 32.2622 162.29 33.0831 161.634 33.7547C160.979 34.4157 160.17 34.7462 159.209 34.7462C158.236 34.7462 157.422 34.4157 156.767 33.7547C156.112 33.0937 155.784 32.2728 155.784 31.292V25.791C155.784 25.4712 155.879 25.21 156.07 25.0074C156.27 24.8049 156.529 24.7036 156.846 24.7036C157.164 24.7036 157.422 24.8049 157.623 25.0074C157.824 25.21 157.925 25.4712 157.925 25.791V26.6385H161.555C161.872 26.6385 162.126 26.7398 162.316 26.9424C162.517 27.1343 162.617 27.3901 162.617 27.71C162.617 28.4349 162.263 28.7974 161.555 28.7974H157.925V31.292C157.925 31.6545 158.046 31.9637 158.289 32.2195C158.543 32.4647 158.849 32.5873 159.209 32.5873C159.568 32.5873 159.869 32.4647 160.112 32.2195C160.355 31.9637 160.477 31.6545 160.477 31.292V31.1481C160.477 30.8389 160.577 30.5831 160.778 30.3805C160.99 30.178 161.249 30.0767 161.555 30.0767C161.862 30.0767 162.115 30.178 162.316 30.3805C162.517 30.5831 162.617 30.8389 162.617 31.1481V31.292ZM152.883 29.7228C152.883 29.4545 152.974 29.2291 153.156 29.0466C153.338 28.8641 153.585 28.7622 153.896 28.7407C154.217 28.7085 154.474 28.5958 154.667 28.4026C154.86 28.2094 154.956 27.9571 154.956 27.6459C154.956 27.3239 154.854 27.0662 154.651 26.873C154.447 26.6691 154.185 26.5671 153.863 26.5671C152.974 26.5671 152.224 26.873 151.614 27.4849C151.014 28.0859 150.714 28.8319 150.714 29.7228V30.6083C150.714 30.6191 150.708 30.8391 150.698 31.2685V31.5905C150.698 31.8695 150.601 32.1057 150.408 32.2989C150.226 32.4814 149.996 32.5726 149.717 32.5726C149.396 32.5726 149.134 32.6746 148.93 32.8785C148.737 33.0824 148.641 33.3454 148.641 33.6674C148.641 33.9894 148.737 34.2524 148.93 34.4563C149.134 34.6495 149.396 34.7461 149.717 34.7461C150.596 34.7461 151.335 34.4402 151.935 33.8284C152.546 33.2166 152.856 32.4706 152.867 31.5905L152.883 29.7228ZM179.869 32.5822C180.407 32.5822 180.864 32.3958 181.24 32.023C181.628 31.6396 181.821 31.1816 181.821 30.6491C181.821 30.1165 181.628 29.6639 181.24 29.2911C180.864 28.9183 180.407 28.7319 179.869 28.7319C179.331 28.7319 178.873 28.9183 178.497 29.2911C178.12 29.6639 177.932 30.1165 177.932 30.6491V36.8957C177.932 37.2152 177.83 37.4762 177.625 37.6785C177.421 37.8809 177.157 37.9821 176.834 37.9821C176.512 37.9821 176.248 37.8809 176.044 37.6785C175.85 37.4762 175.753 37.2152 175.753 36.8957V30.6491C175.753 29.4988 176.146 28.5349 176.931 27.7574C177.727 26.9692 178.707 26.5752 179.869 26.5752C181.031 26.5752 182.01 26.9692 182.806 27.7574C183.602 28.5349 184 29.4988 184 30.6491C184 31.7993 183.602 32.7685 182.806 33.5567C182.01 34.3448 181.031 34.7389 179.869 34.7389C179.546 34.7389 179.282 34.6377 179.078 34.4354C178.884 34.233 178.787 33.9721 178.787 33.6526C178.787 33.333 178.884 33.0774 179.078 32.8857C179.282 32.6833 179.546 32.5822 179.869 32.5822ZM168.486 25.8279C168.671 25.7812 168.883 25.7545 169.137 25.7461C169.216 25.7436 169.462 25.7451 169.554 25.7487C169.744 25.7562 169.951 25.7692 170.169 25.7873L170.262 25.7949C170.263 25.7949 170.249 25.8102 170.23 25.8289C170.189 25.8707 170.14 25.9222 170.059 26.0091C169.956 26.1207 169.889 26.1826 169.821 26.2298C169.68 26.3291 169.513 26.3852 169.266 26.4169C169.177 26.4283 169.116 26.4332 168.944 26.4427C168.517 26.4663 168.266 26.5002 168.006 26.5696C167.892 26.6 167.801 26.6288 167.596 26.6984L167.379 26.7723L167.298 26.8001L167.305 26.7881C167.308 26.7815 167.324 26.7565 167.339 26.7325C167.654 26.225 168.001 25.951 168.486 25.8279ZM167.088 25.8975C167.237 25.8659 167.409 25.8446 167.587 25.8361C167.658 25.8327 167.776 25.8329 167.776 25.8364C167.776 25.8432 167.747 25.8983 167.728 25.927C167.682 25.9962 167.635 26.0516 167.544 26.1426C167.443 26.243 167.367 26.3103 167.177 26.468C166.982 26.6296 166.961 26.6473 166.916 26.6866C166.892 26.7076 166.858 26.7382 166.841 26.7547L166.81 26.7846L166.791 26.7678C166.729 26.7137 166.669 26.6525 166.626 26.6001C166.502 26.4474 166.468 26.3127 166.525 26.1989C166.592 26.0663 166.788 25.9617 167.088 25.8975ZM170.952 26.081C171.148 25.9852 171.334 25.9306 171.497 25.9208C171.852 25.8997 172.222 26.0525 172.586 26.3704C172.845 26.597 173.096 26.9096 173.276 27.2328C173.627 27.8612 173.865 28.9364 173.92 30.1496C173.926 30.2853 173.934 30.5688 173.934 30.6871C173.934 30.7325 173.928 31.0135 173.925 31.0899C173.894 31.8995 173.788 32.5869 173.611 33.1165C173.54 33.3322 173.455 33.5524 173.369 33.7467C173.069 34.4231 172.706 34.9105 172.301 35.1808C172.122 35.2999 171.933 35.3771 171.746 35.4073C171.634 35.4255 171.507 35.4277 171.395 35.4135C171.015 35.3653 170.64 35.1373 170.308 34.752C170.052 34.4547 169.826 34.0676 169.644 33.6142C169.359 32.9056 169.189 32.0615 169.144 31.136C169.132 30.8837 169.132 30.5667 169.145 30.2843C169.163 29.9032 169.205 29.5021 169.265 29.1389C169.397 28.3419 169.618 27.6603 169.914 27.1366C170.197 26.6351 170.547 26.2798 170.952 26.081ZM166.034 26.6512C166.07 26.6329 166.105 26.6207 166.137 26.6145C166.164 26.6095 166.213 26.6112 166.236 26.618C166.302 26.6374 166.351 26.6844 166.39 26.7656C166.42 26.829 166.438 26.8984 166.451 27.0019C166.457 27.0562 166.457 27.2177 166.451 27.2841C166.442 27.3767 166.425 27.4766 166.405 27.5638C166.394 27.6121 166.377 27.6754 166.369 27.6971C166.366 27.707 165.966 28.4322 165.961 28.4371C165.961 28.4377 165.918 28.3955 165.867 28.3434C165.816 28.2913 165.719 28.1938 165.653 28.1268C165.457 27.9298 165.341 27.8076 165.255 27.7089L165.217 27.6642L165.221 27.6563L165.261 27.5881C165.451 27.2582 165.632 27.0038 165.795 26.8381C165.888 26.7444 165.957 26.6901 166.034 26.6512ZM167.904 26.8607C168.259 26.7588 168.689 26.7051 169.229 26.6955C169.398 26.6925 169.436 26.6925 169.436 26.6954C169.436 26.6973 168.879 27.9111 168.877 27.9156C168.876 27.9158 168.809 27.9173 168.726 27.9188C168.094 27.9308 167.785 27.9776 167.381 28.1225C167.302 28.151 167.224 28.1809 166.999 28.2698C166.667 28.4014 166.372 28.5141 166.372 28.5098C166.372 28.5005 166.427 28.3256 166.452 28.2551C166.719 27.5054 167.171 27.0713 167.904 26.8607ZM164.815 28.532C164.897 28.3406 164.986 28.189 165.089 28.0649L165.109 28.0402L165.121 28.0453C165.138 28.0527 165.219 28.0955 165.249 28.1127C165.545 28.283 165.695 28.4812 165.754 28.7784C165.772 28.8681 165.78 28.9635 165.78 29.0837C165.78 29.1694 165.778 29.204 165.766 29.3775C165.723 29.9702 165.691 30.5974 165.681 31.0674C165.68 31.1094 165.678 31.1437 165.677 31.1437C165.676 31.1437 165.411 30.9335 165.087 30.6765L164.497 30.2093L164.497 30.1987C164.495 30.1845 164.501 30.0508 164.505 29.9778C164.539 29.4376 164.651 28.9162 164.815 28.532ZM166.734 28.706C167.095 28.3909 167.595 28.2241 168.241 28.2029C168.299 28.201 168.483 28.2016 168.543 28.2038C168.654 28.2079 168.824 28.2189 168.827 28.2222C168.829 28.2235 168.557 29.8865 168.555 29.8883C168.554 29.8894 168.465 29.9019 168.245 29.9316C167.876 29.9813 167.728 30.0052 167.573 30.0394C167.209 30.12 166.96 30.2429 166.698 30.4705C166.65 30.5127 166.514 30.6489 166.451 30.7179C166.348 30.8314 166.286 30.8917 166.148 31.0086L166.023 31.1146L166.021 31.0952C166.014 31.0085 166.012 30.6749 166.019 30.5434C166.042 30.0913 166.109 29.745 166.234 29.431C166.351 29.1375 166.52 28.8928 166.734 28.706ZM171.361 28.4108C171.463 28.3384 171.559 28.3011 171.674 28.2901C171.694 28.2882 171.721 28.2886 171.747 28.2911C171.972 28.3122 172.171 28.4824 172.341 28.7977C172.445 28.9909 172.517 29.2209 172.574 29.5445C172.697 30.2403 172.701 31.1925 172.582 31.7714C172.531 32.0232 172.414 32.3587 172.313 32.5496C172.159 32.8383 171.997 32.9933 171.805 33.0349C171.782 33.04 171.771 33.0407 171.722 33.0407C171.656 33.0406 171.636 33.0374 171.576 33.0175C171.176 32.8848 170.809 32.2087 170.673 31.3554C170.632 31.0926 170.615 30.8523 170.618 30.5692C170.619 30.4301 170.62 30.3962 170.628 30.2805C170.65 29.9651 170.708 29.6391 170.793 29.3425C170.881 29.0375 171.007 28.7838 171.168 28.5925C171.22 28.5303 171.301 28.4535 171.361 28.4108ZM166.808 30.7039C167.139 30.4139 167.61 30.2579 168.22 30.2358C168.304 30.2327 168.42 30.2327 168.515 30.2358C168.562 30.2374 168.601 30.2388 168.601 30.239C168.602 30.2393 168.612 30.6504 168.625 31.1527C168.638 31.655 168.649 32.084 168.65 32.1059L168.652 32.1459L168.624 32.1639C168.547 32.2137 168.479 32.244 168.336 32.293C168.251 32.3223 168.234 32.3297 168.088 32.4015C167.896 32.4956 167.829 32.5325 167.744 32.5901C167.54 32.7283 167.291 32.9608 166.792 33.4776C166.725 33.5471 166.669 33.604 166.668 33.604C166.667 33.604 166.654 33.5737 166.639 33.5366C166.455 33.0861 166.345 32.6743 166.306 32.2892C166.295 32.177 166.293 32.1412 166.293 32.0019C166.293 31.8663 166.295 31.8352 166.305 31.7415C166.344 31.381 166.466 31.081 166.671 30.8419C166.704 30.8035 166.771 30.736 166.808 30.7039ZM164.483 30.9077C164.482 30.8703 164.481 30.7811 164.481 30.7093L164.481 30.5789L164.526 30.6026C164.749 30.718 164.919 30.8416 165.091 31.0128C165.244 31.1654 165.368 31.3265 165.493 31.533C165.699 31.8748 165.872 32.2943 166.093 32.9895C166.168 33.2249 166.27 33.5501 166.268 33.5515C166.268 33.5522 166.231 33.5452 166.186 33.5359C165.868 33.4696 165.668 33.4162 165.501 33.3535C165.126 33.2124 164.896 33.0164 164.789 32.7458C164.781 32.7261 164.766 32.6848 164.756 32.6541C164.614 32.2183 164.508 31.5404 164.483 30.9077ZM167.832 32.7418C168.03 32.6398 168.243 32.5839 168.486 32.5701C168.525 32.5678 168.67 32.5689 168.701 32.5717L168.719 32.5733L168.949 33.324C169.076 33.7369 169.18 34.0771 169.181 34.08C169.181 34.0845 169.175 34.0885 169.131 34.1098C169.04 34.1535 168.967 34.18 168.811 34.2262C168.659 34.2709 168.592 34.2955 168.505 34.3391C168.407 34.3878 168.32 34.4438 168.222 34.5225C168.139 34.5879 168.081 34.6436 167.974 34.7586C167.872 34.8678 167.817 34.9172 167.729 34.9758C167.684 35.0056 167.663 35.018 167.66 35.0167C167.647 35.0117 167.546 34.9237 167.496 34.8733C167.261 34.6392 167.126 34.3625 167.093 34.0491C167.087 33.9914 167.087 33.8696 167.093 33.8097C167.109 33.6463 167.153 33.4944 167.226 33.3496C167.255 33.2916 167.272 33.262 167.312 33.2025C167.441 33.0093 167.619 32.8515 167.832 32.7418ZM165.207 33.5334C165.201 33.5094 165.196 33.4876 165.196 33.485C165.196 33.4792 165.198 33.4795 165.272 33.494C165.389 33.5172 165.498 33.5458 165.606 33.582C165.924 33.6881 166.198 33.8552 166.439 34.0904C166.58 34.2282 166.644 34.3007 166.867 34.5724C167.032 34.774 167.075 34.8241 167.181 34.9405C167.331 35.1051 167.42 35.2164 167.515 35.3561C167.553 35.4131 167.63 35.5335 167.63 35.5369C167.63 35.5393 167.504 35.5384 167.468 35.5357C167.18 35.5144 166.891 35.4153 166.589 35.2349C166.421 35.134 166.26 35.014 166.094 34.8652C166.046 34.8223 165.892 34.6682 165.848 34.6199C165.637 34.3865 165.472 34.1493 165.352 33.908C165.282 33.7687 165.24 33.6596 165.207 33.5334ZM168.659 34.5548C168.807 34.5001 168.968 34.4651 169.139 34.4506C169.171 34.4478 169.35 34.449 169.358 34.4521C169.364 34.4545 170.331 35.5643 170.329 35.5664C170.328 35.5683 169.96 35.5874 169.813 35.5934C168.97 35.6273 168.465 35.5695 168.265 35.4165C168.227 35.3873 168.203 35.3556 168.175 35.3001C168.137 35.2232 168.122 35.1576 168.124 35.0833C168.126 35.0302 168.138 34.9832 168.161 34.9341C168.232 34.7831 168.41 34.6475 168.659 34.5548Z" fill="#F1EFE9"/>
</svg>
