<svg width="180" height="68" viewBox="0 0 180 68" fill="none" xmlns="http://www.w3.org/2000/svg">
<path fill-rule="evenodd" clip-rule="evenodd" d="M98.0064 0.0310853C97.468 0.166803 97.347 0.345066 96.5699 2.14737C95.8606 3.79249 95.7458 3.98195 95.3574 4.14963C95.2408 4.19999 94.9207 4.28398 94.6462 4.33623C94.1974 4.42163 93.4812 4.56907 92.294 4.82044C91.7217 4.94163 91.1387 4.98887 90.8004 4.94149C90.3111 4.87295 90.1561 4.7645 89.2256 3.83977C88.3156 2.9355 87.9712 2.67044 87.5258 2.53138C86.6899 2.27044 85.8784 2.55092 84.479 3.58437C84.0459 3.90423 83.4651 4.31463 83.1884 4.49645C80.7689 6.08602 79.5043 6.97286 79.266 7.24737C79.0639 7.47999 78.8641 7.90343 78.8152 8.20257C78.7325 8.70847 78.8649 9.21437 79.3825 10.3698C79.8351 11.3804 79.8855 11.5563 79.8855 12.1261C79.8855 12.5896 79.8795 12.6206 79.7373 12.8945C79.5869 13.1841 79.3524 13.548 78.7049 14.4971C78.5071 14.7869 78.2014 15.271 78.0255 15.5728C77.8496 15.8747 77.6563 16.1872 77.5961 16.2673C77.3181 16.6367 76.8845 16.7134 74.8546 16.7524C73.4315 16.7797 73.3094 16.7882 73.1251 16.8732C72.7941 17.0256 72.6094 17.2992 72.4114 17.93C72.2485 18.4489 72.22 18.5815 71.5503 21.9316C70.771 25.8291 70.7205 26.193 70.8756 26.7929C71.0303 27.3914 71.3468 27.6301 72.8274 28.2646C73.8417 28.6993 74.1145 28.8574 74.4906 29.2286C75.0844 29.8145 75.2319 30.2415 75.5746 32.3674C75.7705 33.5829 75.7806 33.7726 75.6712 34.1931C75.5297 34.7371 75.2367 35.1102 74.2325 36.0251C73.7308 36.4822 73.4296 36.8625 73.2718 37.2381C73.0687 37.7214 73.1337 38.0617 73.6077 38.9973C74.2472 40.2597 75.2318 41.7984 76.754 43.9144C77.4099 44.8262 77.8848 45.4287 78.2176 45.7715C78.5203 46.0831 78.7392 46.1762 79.1695 46.1762C79.647 46.1762 79.9867 46.0612 81.2915 45.4581C82.0275 45.1179 82.4043 45.0198 82.8865 45.0429C83.2324 45.0595 83.301 45.0786 83.6245 45.2481C84.2986 45.6011 85.2543 46.2122 85.857 46.6755C86.5599 47.2158 87.0389 47.7232 87.2635 48.1649C87.4233 48.4794 87.4845 49.2305 87.4521 50.4808C87.4198 51.7244 87.4295 51.7877 87.6918 52.0571C88.0605 52.4357 89.1917 52.7653 91.8285 53.2623C92.406 53.3712 93.6081 53.599 94.4999 53.7685C96.4234 54.1341 96.7826 54.181 97.2009 54.1215C98.009 54.0065 98.3242 53.6449 98.8263 52.2573C99.1257 51.4294 99.4753 50.7384 99.6995 50.5309C100.333 49.945 102.023 49.389 103.734 49.2042C104.112 49.1634 104.256 49.1634 104.379 49.2042C104.868 49.3662 105.882 50.4049 106.974 51.8622C107.426 52.4659 108.152 53.4242 108.587 53.9917C109.31 54.9362 110.087 55.9602 113.719 60.7534C116.852 64.8888 117.809 66.117 118.138 66.425C120.112 68.2765 123.073 68.5221 125.317 67.0209C126.619 66.1503 127.483 64.8686 127.834 63.2889C127.929 62.8621 127.967 61.6713 127.902 61.179C127.844 60.7452 127.692 60.1869 127.499 59.6996C127.228 59.0144 127.159 58.9167 124.009 54.782C123.466 54.0696 122.62 52.9533 122.128 52.3012C121.636 51.6492 121.133 50.9873 121.008 50.8303C120.371 50.0244 118.47 47.4804 118.055 46.878C116.266 44.2833 115.473 42.6976 115.578 41.9247C115.623 41.5976 116.141 40.6256 116.8 39.634C117.713 38.2586 118.4 37.6535 119.201 37.5204C119.353 37.4952 120.077 37.4713 120.811 37.4672C121.99 37.4607 122.166 37.4506 122.32 37.381C122.929 37.1071 123.193 36.3832 123.759 33.4431C123.892 32.7548 124.153 31.4014 124.339 30.4354C124.663 28.7552 124.678 28.6516 124.68 28.0425C124.683 27.4219 124.679 27.3994 124.553 27.1489C124.314 26.6741 123.948 26.4367 122.889 26.0679C122.069 25.7824 121.524 25.5253 121.173 25.2584C120.946 25.0851 120.873 24.9945 120.727 24.7016C120.209 23.6629 119.782 21.6995 119.812 20.4969C119.826 19.9407 119.836 19.88 119.951 19.6506C120.15 19.2581 120.405 18.9659 121.131 18.3014C121.504 17.9597 121.883 17.5771 121.973 17.4511C122.349 16.9259 122.452 16.4793 122.32 15.9461C122.175 15.3617 121.802 14.7486 120.334 12.6791C119.591 11.6312 119.172 11.0005 118.8 10.3698C118.044 9.08862 117.635 8.60375 117.08 8.32946C116.386 7.98659 115.904 8.03919 114.548 8.60595C113.29 9.1313 113.149 9.17648 112.762 9.17823C112.262 9.18047 112.012 9.06386 110.771 8.25017C108.426 6.71289 108.273 6.59236 108.176 6.21006C108.15 6.10719 108.119 5.47967 108.107 4.81557C108.096 4.15147 108.064 3.44017 108.038 3.23491C107.956 2.60137 107.678 2.13925 107.182 1.80832C106.56 1.39427 105.877 1.22558 103.443 0.88552C102.998 0.823347 102.044 0.646445 101.322 0.492462C99.2873 0.0584834 98.392 -0.0661253 98.0064 0.0310853ZM176.37 8.33355C175.081 8.44103 173.986 9.38873 173.657 10.6822C173.572 11.0133 173.57 11.206 173.571 19.7401C173.572 29.4903 173.548 28.7672 173.895 29.4695C174.447 30.5873 175.425 31.2013 176.654 31.2028C178.109 31.2044 179.339 30.2559 179.727 28.8328C179.8 28.5638 179.804 28.0424 179.804 19.744C179.804 11.3638 179.8 10.9271 179.725 10.659C179.576 10.1337 179.204 9.49885 178.858 9.181C178.148 8.52893 177.337 8.25289 176.37 8.33355ZM96.5313 10.7732C94.3842 10.9349 92.1056 11.5576 90.2536 12.4886C88.4528 13.3939 87.0336 14.4276 85.6796 15.8202C84.4874 17.0463 83.6728 18.1963 82.9039 19.7389C82.0717 21.4083 81.5911 23.045 81.3424 25.0568C81.2524 25.7851 81.2681 28.3516 81.3671 29.0743C81.6888 31.4246 82.4219 33.5437 83.6113 35.5613C84.8069 37.5892 86.5216 39.42 88.4094 40.684C90.7908 42.2786 93.4578 43.1936 96.3654 43.4136C97.2198 43.4782 98.9828 43.444 99.7057 43.3487C103.516 42.8467 107.277 40.8168 109.842 37.8777C112.236 35.1339 113.567 31.9348 113.86 28.2181C113.921 27.4353 113.887 25.8969 113.791 25.1446C113.471 22.6309 112.519 20.0728 111.129 17.9877C109.486 15.5231 107.414 13.6764 104.842 12.3849C103.09 11.5047 101.078 10.954 99.0077 10.7882C98.4904 10.7468 97.0019 10.7378 96.5313 10.7732ZM96.4876 15.8394C94.2882 16.0581 92.1407 16.905 90.3849 18.246C89.7909 18.6996 88.716 19.7872 88.2523 20.4037C87.0092 22.0566 86.2452 23.9397 85.9815 26.0008C85.8896 26.7195 85.9126 28.3367 86.0253 29.0743C86.6243 32.9954 89.1976 36.3111 92.8347 37.8479C94.5893 38.5894 96.1915 38.8914 98.0406 38.8293C99.8263 38.7693 101.413 38.3709 102.972 37.5912C103.843 37.1556 104.645 36.5704 105.435 35.7947C106.328 34.9174 106.693 34.1354 106.697 33.0918C106.7 32.0946 106.307 31.3512 105.417 30.6745C104.768 30.1809 104.196 29.998 103.4 30.03C102.587 30.0625 102.095 30.2831 100.942 31.1311C99.9108 31.8891 99.4269 32.151 98.708 32.3398C97.973 32.5328 97.0275 32.5598 96.302 32.4083C95.1227 32.1622 93.9118 31.2786 93.1074 30.0774C92.0598 28.5131 91.9022 26.9072 92.641 25.3248C93.2168 24.0916 94.1696 23.1078 95.3283 22.5502C96.1386 22.1602 96.9488 22.0202 97.881 22.109C99.0159 22.2172 99.732 22.5181 100.891 23.374C101.855 24.0861 102.304 24.3338 102.91 24.4896C103.686 24.6886 104.511 24.5266 105.237 24.0331C106.232 23.3572 106.702 22.5329 106.694 21.4784C106.686 20.4439 106.331 19.6536 105.501 18.8208C103.931 17.2467 101.965 16.3049 99.4405 15.9187C98.7776 15.8173 97.1495 15.7735 96.4876 15.8394ZM138.824 16.4947C136.43 16.6818 134.2 17.5848 132.411 19.092C131.009 20.2721 130.087 21.4633 129.271 23.1468C128.262 25.2292 127.944 27.5434 128.34 29.9305C128.672 31.9261 129.724 34.0816 131.127 35.6384C132.698 37.3808 134.702 38.6118 136.882 39.1721C137.778 39.4024 138.269 39.4654 139.36 39.4895C140.47 39.514 140.97 39.4644 141.893 39.238C142.776 39.0218 143.938 38.5261 144.816 37.9916C145.038 37.8565 145.237 37.746 145.257 37.746C145.278 37.746 145.357 37.8421 145.433 37.9595C145.648 38.2923 146.122 38.7128 146.491 38.8984C146.963 39.1354 147.301 39.2123 147.869 39.2123C148.42 39.2123 148.754 39.1387 149.233 38.9119C150.043 38.5279 150.612 37.8886 150.925 37.011L151.062 36.6264V31.7746C151.062 27.3053 151.056 26.8831 150.983 26.4179C150.775 25.0921 150.483 24.1318 149.949 23.013C148.251 19.4546 144.826 16.9911 140.957 16.544C140.372 16.4764 139.357 16.453 138.824 16.4947ZM166.002 16.8058C163.258 17.0754 160.715 18.2914 158.714 20.2915C156.746 22.2585 155.625 24.4919 155.209 27.2741C155.138 27.7546 155.131 28.1913 155.131 32.2356V36.6703L155.25 37.0224C155.475 37.689 155.875 38.2272 156.433 38.6145C157.675 39.4757 159.206 39.4158 160.322 38.4624C160.742 38.1036 160.988 37.7378 161.218 37.1313L161.342 36.802L161.37 32.4771C161.387 29.7735 161.414 28.07 161.442 27.9327C161.713 26.6241 162.179 25.7009 163.004 24.8434C163.489 24.3388 163.987 23.9724 164.597 23.6716C165.463 23.2444 166.008 23.1107 167.166 23.0416C167.736 23.0075 167.937 22.9772 168.216 22.8833C169.214 22.5474 169.967 21.8066 170.29 20.8417C170.36 20.6321 170.392 20.4105 170.407 20.0075C170.434 19.32 170.363 18.9519 170.095 18.3949C169.735 17.6468 169.089 17.1176 168.255 16.8887C167.973 16.8113 167.76 16.7899 167.161 16.7788C166.752 16.7712 166.231 16.7834 166.002 16.8058ZM138.767 22.8378C137.601 23.0504 136.476 23.7024 135.72 24.6039C135.155 25.2762 134.738 26.1214 134.565 26.9448C134.47 27.3949 134.458 28.4856 134.543 28.9206C135.067 31.5909 137.477 33.4296 140.122 33.178C142.007 32.9987 143.519 31.9132 144.342 30.1498C145.279 28.1421 144.809 25.7373 143.173 24.1689C142.466 23.4912 141.511 23.0067 140.552 22.8387C140.103 22.7603 139.195 22.7598 138.767 22.8378ZM176.011 32.7864C175.314 32.9581 174.645 33.4036 174.191 33.9981C173.989 34.2626 173.76 34.772 173.653 35.196C173.524 35.7113 173.55 36.4679 173.716 36.9785C174.105 38.1776 175.122 39.0216 176.393 39.2C177.94 39.4173 179.516 38.3202 179.917 36.746C180.02 36.3406 180.028 35.6497 179.935 35.2507C179.653 34.051 178.611 33.0118 177.441 32.763C177.025 32.6746 176.424 32.6844 176.011 32.7864Z" fill="#474747"/>
<path fill-rule="evenodd" clip-rule="evenodd" d="M2.40687 8.12908C1.47138 8.37773 0.751433 8.95133 0.353158 9.76529C-0.0334368 10.5554 0.000773535 9.57398 0.000773535 19.8758C0.000773535 29.8669 -0.0142318 29.2215 0.245408 30.4136C0.695087 32.4783 1.82915 34.5373 3.3666 36.0803C5.96502 38.6883 9.53291 39.8786 13.1582 39.347C14.3759 39.1685 15.3351 38.8666 16.4935 38.2973C19.9566 36.5954 22.3659 33.2015 22.8376 29.3604C22.9175 28.7104 22.9291 27.3275 22.86 26.7034C22.711 25.3564 22.361 24.1637 21.7456 22.9054C19.4431 18.1975 14.3729 15.6517 9.29707 16.655C8.42068 16.8282 7.2207 17.2264 6.54882 17.5667C6.35096 17.667 6.27103 17.6894 6.25615 17.6487C6.24487 17.6179 6.23021 16.0219 6.22352 14.102C6.20987 10.1846 6.23021 10.4398 5.87415 9.71132C5.60935 9.16951 5.10214 8.66774 4.52862 8.38023C4.29829 8.26476 3.97653 8.14344 3.80679 8.10814C3.3848 8.02028 2.78227 8.02928 2.40687 8.12908ZM57.97 16.4782C56.3097 16.6061 54.7624 17.1267 53.5037 17.981C52.9737 18.3408 52.1739 19.1469 51.827 19.6711C50.9922 20.9325 50.603 22.4653 50.7274 24.0022C50.8051 24.9624 51.0367 25.6558 51.5378 26.4285C52.3659 27.7054 53.4249 28.5433 55.4505 29.5241C56.8204 30.1875 57.1533 30.3306 58.0338 30.6347C60.1342 31.3602 61.0338 31.8481 61.1199 32.3083C61.2284 32.8887 60.448 33.3488 59.2565 33.4069C57.9566 33.4703 56.6061 32.9378 55.4505 31.9063C54.5741 31.124 53.6594 30.7408 52.6506 30.7333C52.0953 30.7292 51.7629 30.806 51.2545 31.0562C50.5887 31.3837 50.0825 32.0212 49.9127 32.7456C49.8061 33.2004 49.8473 34.033 49.9988 34.4862C50.6333 36.3849 52.3212 37.913 54.6918 38.7348C56.0936 39.2208 57.5256 39.4541 59.1034 39.4536C60.3681 39.4532 61.1384 39.3393 62.2139 38.9939C64.779 38.1701 66.6877 36.2107 67.2461 33.8279C67.3346 33.4502 67.3615 33.1968 67.3804 32.565C67.4258 31.0477 67.1606 30.0057 66.4501 28.9102C65.6126 27.6188 64.4459 26.6891 62.6688 25.8971C61.6142 25.4272 60.593 25.084 58.6678 24.5526C57.9682 24.3596 57.3412 24.0928 57.1462 23.9053C56.917 23.6849 56.9335 23.2931 57.1837 23.0152C57.4886 22.6765 57.9531 22.5486 59.0377 22.5047C60.1611 22.4593 60.6072 22.5426 61.9136 23.042C63.1086 23.4987 63.3224 23.5586 63.7624 23.56C64.237 23.5614 64.5191 23.4924 65.0092 23.2553C65.4783 23.0283 65.7783 22.7737 66.0543 22.3683C66.8421 21.2111 66.676 19.5794 65.6601 18.4955C65.0931 17.8906 64.3243 17.4468 63.1903 17.0697C61.6634 16.5619 59.7295 16.3428 57.97 16.4782ZM28.349 16.7621C27.5389 16.957 27.1536 17.1613 26.664 17.6555C26.2531 18.0703 26.0437 18.4186 25.8704 18.9758L25.7679 19.3051V24.2885C25.7679 28.7817 25.7753 29.3206 25.8432 29.7659C26.2378 32.355 27.3165 34.4908 29.1207 36.2551C31.167 38.2561 33.6978 39.3489 36.5516 39.4637C38.7792 39.5533 40.8798 38.9741 42.6815 37.7735C43.8944 36.9652 44.7872 36.0727 45.5854 34.8702C46.6843 33.2146 47.3235 31.426 47.5312 29.4257C47.5569 29.1779 47.5747 27.0551 47.5752 24.1968C47.5759 19.553 47.5729 19.3732 47.4899 19.047C47.2712 18.189 46.6807 17.4488 45.9136 17.071C45.4298 16.8327 45.0329 16.7382 44.5136 16.7375C43.2154 16.736 42.0143 17.5571 41.5294 18.7777C41.327 19.2872 41.3232 19.3854 41.3216 24.2019C41.32 28.8293 41.3101 29.1515 41.1484 29.786C40.6477 31.7507 39.2789 32.9783 37.3895 33.1572C36.387 33.2521 35.4982 33.0763 34.583 32.602C33.1097 31.8385 32.2213 30.5084 32.0471 28.8052C32.0191 28.5313 32.0019 26.6523 32.0019 23.876C32.0019 20.0055 31.9928 19.3534 31.9354 19.1277C31.6662 18.0682 30.8946 17.2445 29.8364 16.8866C29.5496 16.7897 29.3918 16.7659 28.9615 16.7547C28.6727 16.7472 28.3971 16.7505 28.349 16.7621ZM10.4126 22.8384C8.3118 23.2954 6.68746 24.9856 6.31854 27.0986C6.23813 27.559 6.24806 28.4419 6.33888 28.9125C6.61226 30.3286 7.50085 31.6186 8.74236 32.4018C10.9764 33.811 13.9929 33.2553 15.5777 31.1424C17.6805 28.3388 16.5505 24.2929 13.3234 23.0716C12.7035 22.837 12.4248 22.7884 11.5938 22.7701C10.9315 22.7555 10.7438 22.7663 10.4126 22.8384Z" fill="#474747"/>
</svg>
