<svg width="302" height="661" viewBox="0 0 302 661" fill="none" xmlns="http://www.w3.org/2000/svg">
<path fill-rule="evenodd" clip-rule="evenodd" d="M116.735 11.5013C101.456 19.3534 97.4115 22.5373 83.9156 37.3475C70.7781 51.7688 64.1266 64.536 59.6719 83.8929C55.8361 100.55 58.2565 119.668 68.8547 156.447C78.9262 191.402 86.0017 179.042 -54.2809 371.589C-191.443 559.854 -198.444 569.979 -200.627 583.318C-203.552 601.171 -196.932 624.303 -184.83 638.522C-164.211 662.752 -130.171 668.025 -106.364 650.681C-99.6924 645.82 -90.4265 635.231 -84.624 625.836C-70.3644 602.745 60.8598 400.929 109.124 327.859C131.31 294.274 153.109 263.099 157.564 258.58C164.292 251.763 168.163 250.038 180.349 248.427C188.426 247.359 200.876 246.856 208.019 247.309C256.96 250.411 298.345 205.049 301.5 144.846C302.43 127.089 298.869 103.866 294.946 102.098C293.561 101.475 282.87 110.03 271.186 121.111C230.976 159.245 222.897 163.135 202.132 154.35C182.762 146.152 159.46 118.224 155.675 98.6701C151.699 78.1272 156.973 68.1811 186.628 40.3056C214.644 13.9736 216.957 9.40277 204.382 5.26491C180.138 -2.71429 138.653 0.237425 116.735 11.5013ZM-156.144 568.015C-170.155 574.688 -176.948 593.984 -170.901 609.929C-166.894 620.487 -151.087 631.885 -140.044 632.181C-128.761 632.484 -114.26 621.791 -111.201 610.912C-108.343 600.745 -111.029 586.669 -117.512 577.847C-125.566 566.887 -143.952 562.207 -156.144 568.015Z" fill="#315C32"/>
</svg>
