<svg width="39" height="73" viewBox="0 0 39 73" fill="none" xmlns="http://www.w3.org/2000/svg">
<path d="M20.9941 32.0389C12.2976 29.6461 9.50098 27.1722 9.50098 23.3194C9.50098 18.8989 13.3703 15.8167 19.8448 15.8167C26.664 15.8167 29.1925 19.2639 29.4224 24.3333H37.889C37.6208 17.3578 33.5982 10.95 25.5914 8.88167V0H14.0982V8.76C6.66601 10.4633 0.689587 15.5733 0.689587 23.4006C0.689587 32.7689 8.00687 37.4328 18.6955 40.15C28.2731 42.5833 30.1886 46.1522 30.1886 49.9239C30.1886 52.7222 28.3114 57.1833 19.8448 57.1833C11.9528 57.1833 8.84971 53.4522 8.42829 48.6667H0C0.459725 57.5483 6.74263 62.5367 14.0982 64.1994V73H25.5914V64.2806C33.0619 62.78 39 58.1972 39 49.8833C39 38.3656 29.6906 34.4317 20.9941 32.0389Z" fill="#D27C2C"/>
</svg>
