<svg width="1280" height="348" viewBox="0 0 1280 348" fill="none" xmlns="http://www.w3.org/2000/svg">
<path d="M-40 174C-40 151.909 -22.0914 134 -3.8147e-06 134H1263C1285.09 134 1303 151.909 1303 174V463C1303 485.091 1285.09 503 1263 503H2.28882e-05C-22.0914 503 -40 485.091 -40 463V174Z" fill="#EAE8E2"/>
<path d="M-40 174C-40 151.909 -22.0914 134 -3.8147e-06 134H1263C1285.09 134 1303 151.909 1303 174V463C1303 485.091 1285.09 503 1263 503H2.28882e-05C-22.0914 503 -40 485.091 -40 463V174Z" stroke="#EAE8E2"/>
<path fill-rule="evenodd" clip-rule="evenodd" d="M-25.4852 31.1311C-41.8552 31.8304 -54.2023 32.7395 -70.5559 34.4497C-73.9583 34.8056 -78.0346 35.1514 -79.6143 35.2182C-85.3625 35.4616 -91.9884 36.595 -100.468 38.7857C-104.244 39.7612 -105.354 40.1346 -105.992 40.6444C-109.016 43.0638 -124.786 60.1847 -131.395 68.2249C-132.17 69.1666 -133.81 70.8325 -135.041 71.9262C-136.271 73.0201 -138.152 74.8024 -139.22 75.8871C-141.091 77.7867 -141.201 77.9558 -142.223 80.5015C-144.555 86.3044 -144.744 89.6849 -143.112 96.3949L-142.462 99.0646L-144.31 102.64C-149.042 111.802 -150.011 115.151 -150 122.305C-149.994 126.174 -149.704 128.231 -148.96 129.674C-148.704 130.172 -148.583 131.085 -148.542 132.827C-148.455 136.527 -147.642 139.475 -146.009 142.012C-144.921 143.702 -143.741 144.566 -141.606 145.236C-137.715 146.458 -134.854 146.137 -130.953 144.042C-130.648 143.879 -130.57 144.027 -130.444 144.999C-129.002 156.155 -120.226 165.476 -108.571 168.227C-100.296 170.181 -91.193 168.376 -84.3423 163.423C-82.1658 161.85 -78.833 158.417 -77.4639 156.339C-76.0464 154.188 -74.5398 150.958 -73.9007 148.7L-73.3669 146.814L-61.7983 146.767C-48.6306 146.713 -35.2598 146.437 -15.6536 145.815C-8.18053 145.578 2.10951 145.278 7.2131 145.148C19.927 144.824 57.6472 144.55 64.5457 144.731C80.4165 145.149 88.3134 144.869 93.8505 143.691L95.4282 143.356L97.0728 144.974C98.9596 146.83 100.809 148.021 102.068 148.191C102.83 148.293 103.069 148.482 103.943 149.678C105.268 151.49 108.218 154.298 110.31 155.739C119.189 161.852 130.885 162.694 140.557 157.916C146.779 154.842 151.771 149.54 154.246 143.374L154.935 141.658L156.393 141.297C158.301 140.824 159.925 140.064 160.939 139.17C161.517 138.66 161.757 138.55 161.757 138.793C161.757 139.31 163.055 140.202 164.244 140.502C164.976 140.686 166.757 140.733 170.099 140.654C173.984 140.563 175.515 140.429 178.106 139.955C179.868 139.633 181.658 139.266 182.083 139.142C182.508 139.017 184.298 138.864 186.06 138.801C190.703 138.637 191.497 138.256 191.92 135.991C192.151 134.759 191.887 133.818 191.058 132.911C190.209 131.984 189.927 130.752 190.138 128.891C191.535 116.522 191.635 115.352 191.648 111.319C191.66 107.558 191.597 106.796 191.064 104.25C189.734 97.8999 187.121 93.1319 182.567 88.7458C179.831 86.1096 176.374 83.8898 173.135 82.6882C172.528 82.4628 170.866 81.6121 169.443 80.7977C165.131 78.3303 159.187 76.1009 154.024 75.0152C151.728 74.5322 147.873 74.386 143.309 74.609C141.998 74.6731 140.922 74.4748 136.239 73.3065C118.346 68.8418 108.755 65.1945 93.6558 57.1117C73.1487 46.1342 57.43 39.9196 39.7891 35.8147C30.4115 33.6329 21.193 32.298 8.75964 31.3219C4.86081 31.0157 -19.5954 30.8795 -25.4852 31.1311Z" fill="#EAE8E2"/>
<path fill-rule="evenodd" clip-rule="evenodd" d="M361.526 25.1909C344.952 25.599 332.459 26.5034 317.088 28.4078C305.727 29.8153 300.609 30.9794 296.591 33.0697C294.484 34.1659 293.202 35.3526 293.2 36.2091C293.197 36.9966 292.269 38.6957 291.231 39.8144C289.964 41.1785 286.244 45.8226 283.849 49.0306C280.854 53.0421 279.264 55.4254 275.885 60.9679C271.456 68.2323 270.268 69.6067 266.087 72.2994C261.254 75.4121 260.752 76.2157 261.916 78.9783C262.394 80.1128 262.463 80.5419 262.38 81.8204C262.284 83.2868 262.037 83.9425 260.917 85.7063C260.686 86.0692 260.352 87.1333 260.174 88.0711C259.995 89.0087 259.17 92.2913 258.339 95.3655C256.494 102.197 255.779 105.506 255.696 107.612L255.632 109.217L254.35 110.049C252.788 111.062 250.822 113.002 249.738 114.601C246.969 118.684 246.49 121.823 247.458 129.548C247.77 132.031 248.065 134.181 248.116 134.325C248.166 134.469 248.114 134.644 248.001 134.714C247.604 134.959 247.807 136.874 248.413 138.613C249.209 140.899 250.033 142.278 250.91 142.795C251.349 143.054 251.662 143.436 251.736 143.804C251.921 144.729 253.452 146.303 254.727 146.878C255.783 147.355 256.112 147.39 259.308 147.369C263.31 147.343 264.507 147.088 268.622 145.386L271.205 144.319L271.562 146.285C273.143 154.988 278.449 162.959 285.993 167.963C296.262 174.777 309.736 175.593 320.756 170.068C327.195 166.84 332.744 161.355 335.854 155.143C336.331 154.191 336.744 153.386 336.772 153.354C336.8 153.322 337.103 153.443 337.446 153.621C338 153.91 348.161 153.946 427.895 153.948L517.721 153.949L518.625 153.419C519.458 152.932 519.542 152.799 519.685 151.753L519.839 150.617L520.329 151.907C522.872 158.601 528.422 165.309 534.71 169.288C539.222 172.143 544.905 174.143 550.418 174.815C553.468 175.187 559.336 174.975 562.278 174.385C575.132 171.811 585.607 162.96 589.85 151.089L590.535 149.173L590.762 151.42C591.096 154.72 591.931 156.033 594.153 156.755C597.487 157.839 606.399 155.399 607.405 153.128L607.66 152.552H613.065C619.239 152.552 619.342 152.528 620.448 150.878C621.674 149.049 621.613 146.985 620.289 145.479C619.69 144.797 619.678 144.748 620.083 144.643C620.48 144.539 620.512 144.354 620.501 142.199L620.489 139.867L622.105 135.03C623.808 129.935 624.579 126.724 624.64 124.462L624.677 123.099L624.818 124.496C624.951 125.811 624.961 125.762 624.996 123.677C625.017 122.458 624.95 121.512 624.848 121.575C624.746 121.638 624.609 120.894 624.542 119.922C624.384 117.63 623.883 116.041 623.029 115.126C622.652 114.722 621.523 113.835 620.519 113.155C618.368 111.698 617.923 111.028 617.291 108.291C617.049 107.242 616.271 104.58 615.561 102.375C614.107 97.8568 613.338 96.4547 611.11 94.2582C609.057 92.2334 607.077 91.0529 602.131 88.9057C599.637 87.8226 595.851 86.1562 593.718 85.2025C587.199 82.2876 583.35 81.2 573.817 79.5798C564.583 78.0106 559.107 77.3941 550.791 76.9878C548.128 76.8575 543.383 76.5653 540.246 76.3385C537.11 76.1115 532.82 75.8632 530.713 75.7866L526.883 75.6473L525.656 74.822C523.973 73.6899 521.724 71.7144 509.904 60.9847C492.819 45.4761 487.306 40.597 482.682 36.8891C481.38 35.8452 480.246 34.818 480.163 34.606C479.856 33.8224 476.299 31.958 473.032 30.8683C467.952 29.1735 461.018 28.256 447.067 27.4326C443.93 27.2473 437.006 26.8121 431.68 26.4656C418.906 25.634 414.889 25.4231 407.04 25.1727C399.559 24.934 371.503 24.9452 361.526 25.1909ZM247.014 123.851C247.014 125.093 247.05 125.6 247.093 124.98C247.137 124.359 247.137 123.343 247.093 122.722C247.05 122.102 247.014 122.61 247.014 123.851Z" fill="#EAE8E2"/>
<path fill-rule="evenodd" clip-rule="evenodd" d="M860.009 1.13349C859.71 1.75702 859.25 3.06885 858.987 4.04884L858.508 5.83091L857.948 5.2145C857.64 4.87554 856.97 4.32476 856.46 3.99055C855.636 3.45165 855.495 3.41948 855.208 3.70555C854.761 4.15291 854.547 6.60967 854.242 14.8216C853.967 22.2383 854.034 23.6153 854.687 23.9647C855.216 24.2477 857.193 24.2432 857.727 23.9577C858.083 23.7671 858.145 23.807 858.148 24.2276C858.15 24.499 858.242 25.8383 858.352 27.2039C858.463 28.5694 858.663 32.4054 858.797 35.7284C858.931 39.0511 859.116 42.1753 859.209 42.6705C859.368 43.524 859.348 43.5771 858.815 43.6842C857.339 43.9806 855.604 45.856 854.983 47.8265C854.777 48.4775 854.505 49.0108 854.379 49.0118C853.142 49.0205 850.439 49.5032 849.924 49.8072C849.015 50.3435 848.719 51.4272 849.038 53.0497C849.225 53.9981 849.449 54.4494 849.967 54.9203C850.646 55.5362 850.667 55.5401 852.876 55.4419C854.768 55.3579 855.121 55.3944 855.231 55.685C855.512 56.4245 856.765 58.0623 857.208 58.2672C857.607 58.452 857.658 58.6105 857.558 59.3534C857.412 60.4407 857.863 64.1236 858.3 65.4188C859.244 68.2147 860.877 70.1689 862.983 71.0234C863.939 71.4112 864.151 71.5787 863.966 71.8013C863.634 72.2014 863.898 73.7512 864.736 76.3219C866.395 81.4097 869.993 89.7593 871.142 91.1882C871.725 91.9132 871.886 92.3934 872.22 94.3889C872.73 97.4347 873.367 99.9098 875.076 105.483C878.847 117.776 879.655 123.202 879.138 132.735C878.599 142.688 877.264 151.347 875.296 157.659C874.355 160.676 871.882 165.696 870.464 167.466C869.453 168.728 869.284 168.841 867.105 169.692C861.673 171.815 856.214 172.75 845.552 173.386C840.82 173.668 838.958 173.545 833.314 172.583C826.941 171.496 820.983 169.725 816.777 167.666C813.371 165.999 811.001 164.285 808.12 161.405C803.837 157.122 802.099 153.816 801.562 148.931C801.093 144.664 802.263 138.581 804.227 135.069C805.426 132.927 807.815 128.092 808.879 125.656C809.423 124.409 810.58 122.207 811.45 120.761L813.031 118.134L814.148 117.874C815.992 117.444 818.209 116.303 819.502 115.118C821.573 113.22 822.192 111.045 822.014 106.28C821.93 104.03 821.794 103.006 821.453 102.055C820.403 99.1254 819.044 97.0543 816.857 95.0475C813.872 92.3083 810.01 90.7374 805.76 90.5331C803.665 90.4325 802.74 90.5243 797.966 91.3067C782.682 93.8116 775.835 93.8375 769.392 91.4144C767.598 90.74 764.248 89.0533 762.568 87.9792C759.471 85.9992 756.717 85.2763 752.32 85.2895C747.67 85.3035 744.672 86.1991 743.631 87.8862C743.346 88.3469 743.065 88.6973 743.006 88.6649C742.946 88.6323 742.266 88.3063 741.494 87.9401C738.825 86.6745 739.003 86.6853 720.972 86.6853C701.649 86.6853 700.73 86.7568 698.763 88.4106C696.686 90.1579 697.173 93.999 700.038 98.4639L701.149 100.194L700.564 101.86C700.017 103.418 699.639 104.186 697.086 108.92C696.469 110.064 696.146 110.901 696.225 111.151C696.327 111.471 695.928 111.838 694.243 112.974C693.082 113.756 691.561 114.859 690.862 115.425C690.076 116.061 689.682 116.282 689.83 116.004C690.025 115.641 689.989 115.45 689.646 115.014C688.659 113.76 682.304 113.638 678.967 114.809C677.533 115.313 675.895 116.953 675.008 118.774C673.464 121.942 672.127 127.07 672.111 129.884C672.102 131.392 672.462 132.213 673.239 132.459C673.947 132.684 675.748 131.671 677.521 130.053L679.11 128.601L678.513 129.773C678.184 130.418 677.709 131.451 677.456 132.068C677.06 133.034 676.772 133.342 675.386 134.281C674.501 134.881 673.609 135.372 673.404 135.372C672.58 135.372 670.513 136.342 669.655 137.133C668.512 138.186 667.921 139.558 667.719 141.626C667.59 142.944 667.458 143.349 666.995 143.839C666.684 144.169 666.314 144.754 666.174 145.141C665.847 146.043 665.846 148.235 666.173 149.121C666.912 151.124 669.043 153.083 672.292 154.747L674.269 155.759L673.723 157.278C672.91 159.543 671.492 162.49 669.752 165.531C668.158 168.316 664.65 173.67 663.414 175.206C661.422 177.679 660.548 179.704 661.228 180.268C662.593 181.4 670.045 174.834 675.486 167.704C678.562 163.673 679.889 162.341 681.777 161.388C683.027 160.757 683.141 160.74 686.192 160.74C687.998 160.74 689.951 160.867 690.802 161.038L692.279 161.336L691.234 161.916C688.008 163.705 683.236 167.302 681.777 169.043C681.532 169.335 680.885 170.064 680.338 170.663C678.861 172.279 677.136 174.705 675.647 177.26C667.781 190.754 669.058 208.362 678.803 220.755C680.252 222.598 683.936 226.268 685.676 227.603C697.709 236.835 713.141 238.575 726.661 232.225C733.462 229.031 740.125 222.992 743.647 216.83L744.396 215.52L747.859 215.511C750.129 215.506 751.918 215.384 753.051 215.159C754.001 214.969 756.091 214.621 757.695 214.384C762.677 213.649 763.657 213.234 767.46 210.256C769.742 208.468 771.411 207.497 772.925 207.076C773.4 206.944 775.563 206.541 777.732 206.181C783.833 205.167 786.817 204.154 788.064 202.673C788.351 202.332 788.586 201.825 788.586 201.546C788.586 200.671 787.597 199.754 786.183 199.321L784.895 198.925L786.362 198.655C791.873 197.638 802.14 197.946 833.086 200.056C850.076 201.215 858.146 201.455 862.166 200.924C870.399 199.835 879.333 195.954 886.983 190.143C887.934 189.421 888.821 188.728 888.955 188.603C889.089 188.478 889.964 187.697 890.899 186.868C892.77 185.21 895.415 182.36 897.43 179.833L898.732 178.199L899.986 178.287C900.676 178.336 901.834 178.237 902.56 178.068L903.879 177.761L902.957 179.722C898.075 190.098 897.986 202.21 902.714 212.618C904.394 216.317 907.242 220.577 909.903 223.373C910.69 224.201 913.578 226.855 914.427 227.532C918.212 230.551 924.321 233.478 929.539 234.772C933.591 235.778 939.809 236.058 944.093 235.43C957.587 233.449 969.041 224.814 974.573 212.45C979.958 200.417 978.944 186.377 971.902 175.467C969.117 171.153 965.118 166.948 961.235 164.253C960.37 163.653 959.703 163.122 959.751 163.074C959.8 163.025 960.979 163.143 962.372 163.335C965.137 163.718 966.349 163.628 966.919 162.998C967.196 162.692 967.387 162.641 967.68 162.798C968.723 163.357 969.905 162.669 970.169 161.35C970.508 159.657 968.047 156.723 964.093 154.106C961.956 152.691 960.605 151.476 960.12 150.531C959.98 150.259 959.633 148.914 959.348 147.541C958.742 144.619 957.916 142.745 956.675 141.478C954.716 139.477 951.409 137.732 947.901 136.847C946.46 136.483 945.075 136.382 939.584 136.236C933.385 136.072 928.351 135.678 928.351 135.358C928.351 135.279 928.64 134.514 928.994 133.657C931.294 128.082 930.529 122.156 926.41 113.659C925.601 111.988 924.54 109.97 924.052 109.175C923.565 108.379 923.167 107.68 923.167 107.621C923.167 107.562 922.839 107.005 922.438 106.383C922.037 105.762 921.147 104.379 920.46 103.31C915.569 95.6999 910.347 88.6913 906.145 84.0945C901.576 79.0974 899.021 76.4381 893.256 70.6823C889.555 66.9867 886.32 63.8973 886.067 63.8172C885.685 63.6961 885.614 63.5186 885.647 62.7718C885.679 62.0509 885.608 61.8562 885.287 61.7903C884.596 61.6487 882.256 63.451 881.421 64.767C880.422 66.342 880.179 67.1411 880.178 68.8514L880.177 70.2766L879.237 70.2814C878.57 70.2848 878.083 70.4463 877.563 70.8365C876.223 71.8428 876.203 71.7653 877.413 70.2596C879.8 67.2892 880.404 64.935 878.86 64.6262L878.241 64.5025L879.179 63.7872C880.238 62.9786 880.72 62.1096 880.941 60.6091C881.145 59.228 881.733 58.4192 883.532 57.0482C886.538 54.7566 888.19 52.6803 887.853 51.618C887.778 51.3833 887.317 50.822 886.828 50.3705C883.769 47.5463 883.279 46.929 882.458 44.8671C881.419 42.2582 880.835 41.2749 879.734 40.2805C877.661 38.4084 875.984 38.2076 873.104 39.4862C870.759 40.5277 869.671 40.879 869.368 40.6922C868.773 40.3241 868.386 38.3587 867.33 30.3345C866.51 24.1022 866.037 21.0126 865.743 19.9711C865.597 19.4553 865.664 19.1569 866.073 18.5051C866.737 17.4454 866.985 16.0673 866.764 14.6691C866.212 11.1767 861.62 0 860.738 0C860.636 0 860.308 0.509964 860.009 1.13349ZM887.677 17.2747C886.676 18.0623 886.333 19.4244 886.349 22.5619C886.364 25.357 886.623 27.2261 887.831 33.2492C888.284 35.5038 888.298 35.7461 887.98 35.8836C887.788 35.9672 887.129 36.2427 886.516 36.4961C885.236 37.0244 884.808 37.7358 884.864 39.2413C884.953 41.6413 885.985 42.7489 888.133 42.7489C889.399 42.7489 889.466 42.7757 889.609 43.3426C889.692 43.6691 889.763 45.0051 889.768 46.3113C889.776 48.4477 889.716 48.8272 889.17 50.0896C888.837 50.8615 888.518 51.6873 888.462 51.9248C888.323 52.5116 889.124 53.3256 889.854 53.3386C890.312 53.3468 890.627 53.6108 891.304 54.5541C893.171 57.1585 895.233 58.4265 896.647 57.8408C898.013 57.2756 899.141 55.3141 898.912 53.9027L898.794 53.1777L900.017 53.4655C900.69 53.6238 901.661 53.7548 902.175 53.7565C903.996 53.7632 904.774 52.3197 905.867 46.9074C907.344 39.5861 907.608 31.308 906.484 27.5558C906.344 27.0912 905.922 26.3845 905.546 25.9857C904.932 25.3354 904.741 25.2607 903.685 25.2607C902.053 25.2607 899.705 25.919 898.062 26.8375C895.965 28.0096 894.026 30.2606 893.99 31.5651L893.976 32.0617L893.787 31.5917C893.683 31.3332 893.241 29.5844 892.805 27.7054C891.342 21.4027 890.396 18.7191 889.184 17.4342C888.515 16.725 888.393 16.712 887.677 17.2747ZM858.275 19.9711C858.429 21.3971 858.489 21.5496 858.783 21.252C858.904 21.129 858.817 20.5886 858.559 19.8631L858.135 18.6757L858.275 19.9711ZM863.972 21.0597C863.336 21.8309 861.958 22.6699 861.327 22.6699H860.686L860.824 24.0193C860.899 24.7616 861.06 29.1092 861.181 33.681C861.381 41.2123 861.544 43.6279 861.876 43.9597C862.136 44.219 865.493 42.9918 866.052 42.4335C867.016 41.4695 867.006 39.1669 866.006 32.3836C865.577 29.4754 865.016 25.6506 864.759 23.8843C864.337 20.9882 864.259 20.7108 863.972 21.0597ZM875.73 72.3817L875.318 72.8675L875.804 72.4562C876.261 72.0697 876.388 71.8959 876.216 71.8959C876.175 71.8959 875.956 72.1144 875.73 72.3817ZM873.925 75.1459C873.54 75.8687 873.284 76.5199 873.357 76.5927C873.564 76.7995 873.838 76.3988 874.132 75.4583C874.281 74.9833 874.501 74.471 874.621 74.3196C874.741 74.1683 874.792 73.9966 874.733 73.9379C874.674 73.8792 874.311 74.4228 873.925 75.1459ZM884.945 77.1676C884.922 77.4941 887.921 83.404 888.405 83.9865C888.651 84.2834 888.409 83.6931 887.867 82.6749C887.325 81.6567 886.449 79.9564 885.92 78.8966C885.391 77.8367 884.952 77.0588 884.945 77.1676ZM903.294 107.412C903.294 107.531 903.484 107.939 903.716 108.319C904.196 109.107 905.039 111.011 906.563 114.753C907.688 117.513 907.823 116.938 906.742 113.997C905.964 111.883 903.294 106.783 903.294 107.412ZM899.335 149.307C898.828 150.371 898.899 150.552 899.429 149.547C899.67 149.09 899.829 148.679 899.783 148.632C899.736 148.585 899.535 148.889 899.335 149.307ZM898.562 150.969C898.448 151.268 897.909 152.398 897.365 153.481C896.821 154.565 896.425 155.451 896.484 155.451C896.667 155.451 899.006 150.663 898.883 150.54C898.82 150.477 898.675 150.67 898.562 150.969ZM742.706 174.76C742.772 174.931 742.963 175.018 743.13 174.954C743.495 174.814 743.323 174.45 742.892 174.45C742.716 174.45 742.638 174.581 742.706 174.76ZM934.616 176.205C929.822 177.208 924.429 180.525 921.927 184.01L921.228 184.984L921.791 185.125C922.1 185.203 923.338 185.803 924.542 186.459C927.819 188.244 933.633 191.017 935.097 191.492C936.636 191.991 936.551 192.372 937.728 179.74C937.894 177.959 938.098 176.331 938.182 176.123C938.312 175.801 938.211 175.748 937.501 175.761C937.043 175.769 935.744 175.969 934.616 176.205ZM706.152 176.294C703.619 176.85 699.144 178.615 699.462 178.933C699.673 179.144 708.662 181.867 708.761 181.75C708.792 181.713 708.925 180.53 709.057 179.121C709.188 177.712 709.407 176.425 709.543 176.26C709.75 176.012 709.596 175.965 708.631 175.983C707.993 175.995 706.877 176.135 706.152 176.294ZM945.205 176.722C945.534 177.119 945.419 179.512 944.779 185.569C944.238 190.682 944.209 192.551 944.668 192.727C944.85 192.797 948.18 192.453 952.067 191.962C955.954 191.472 959.45 191.072 959.836 191.073C960.222 191.074 960.538 190.965 960.538 190.83C960.538 190.367 958.647 186.595 957.761 185.291C955.16 181.463 951.152 178.445 946.621 176.902C944.852 176.3 944.855 176.301 945.205 176.722ZM716.665 177.184C716.813 177.573 716.811 178.407 716.659 179.766C716.536 180.87 716.435 181.875 716.435 181.998C716.435 182.146 717.93 182.224 720.81 182.228C723.215 182.231 725.573 182.321 726.048 182.429L726.912 182.625L726.048 181.871C724.676 180.673 722.264 178.997 720.972 178.344C719.973 177.838 716.83 176.609 716.536 176.609C716.486 176.609 716.544 176.868 716.665 177.184ZM918.026 191.552C917.329 193.956 917.118 195.469 917.118 198.043C917.118 201.735 917.909 204.985 919.652 208.454C919.95 209.048 920.228 209.572 920.269 209.618C920.311 209.663 920.858 209.21 921.485 208.61C922.113 208.011 923.198 207.05 923.897 206.476C924.596 205.902 925.967 204.752 926.943 203.921C927.919 203.09 929.097 202.102 929.561 201.727C930.92 200.625 931.807 199.683 931.807 199.34C931.807 198.629 930.672 197.82 923.491 193.416C921.352 192.105 919.35 190.795 919.042 190.506L918.482 189.979L918.026 191.552ZM961.311 197.957C961.129 198.25 959.775 198.539 954.088 199.499C948.647 200.417 946.325 200.993 945.75 201.567C945.136 202.181 945.383 203.116 946.96 206.142C951.515 214.884 951.721 215.318 951.639 216.017L951.559 216.704L952.97 215.675C957.728 212.207 961.184 205.844 961.553 199.873C961.673 197.931 961.614 197.466 961.311 197.957ZM935.847 205.594C934.456 206.594 929.224 210.558 927.039 212.268C924.839 213.99 924.359 214.159 923.481 213.521C923.13 213.266 923.426 213.606 924.139 214.277C926.711 216.697 930.265 218.654 933.751 219.568C936.389 220.259 940.596 220.402 943.406 219.895C945.225 219.566 945.453 219.48 945.019 219.286C944.493 219.05 943.774 217.659 940.091 209.764C939.097 207.634 938.137 205.666 937.957 205.392C937.513 204.715 937.002 204.764 935.847 205.594ZM689.872 206.268C689.883 206.653 691.483 209.689 691.672 209.683C691.765 209.679 692.396 209.148 693.074 208.502L694.307 207.327L692.086 206.676C690.685 206.265 689.867 206.114 689.872 206.268ZM700.889 210.452C700.132 211.016 699.116 211.795 698.631 212.182C696.859 213.598 695.84 214.182 695.384 214.044C694.033 213.633 698.776 217.27 700.749 218.157C704.56 219.869 706.48 220.305 710.279 220.319C711.971 220.325 714.042 220.197 714.981 220.029C716.525 219.751 716.624 219.703 716.222 219.422C715.701 219.058 715.45 218.603 713.737 214.932C713.017 213.388 712.332 211.97 712.217 211.78C712.072 211.542 710.581 211.121 707.437 210.43C704.924 209.878 702.731 209.426 702.566 209.426C702.4 209.426 701.645 209.888 700.889 210.452ZM722.387 214.197C722.584 214.578 722.808 215.326 722.885 215.858L723.024 216.826L724.614 215.559L726.205 214.292L724.938 214.044C724.242 213.908 723.302 213.731 722.85 213.65L722.028 213.505L722.387 214.197Z" fill="#EAE8E2"/>
<path fill-rule="evenodd" clip-rule="evenodd" d="M1241.47 43.4799C1240.03 44.6095 1239.46 46.8038 1239.97 49.2506C1240.76 53.0061 1242.56 56.5068 1248.65 66.1666C1252.78 72.7273 1254.67 76.3104 1255.27 78.7637C1255.65 80.2774 1255.65 80.4076 1255.27 80.7899C1254.7 81.3573 1252.42 81.4027 1239.02 81.1133C1231.37 80.9478 1219.8 80.957 1201.99 81.1425C1182.36 81.3467 1170.72 81.3424 1153.85 81.1236C1141.62 80.9652 1131.58 80.8046 1131.54 80.7667C1131.5 80.7291 1131.73 79.9781 1132.06 79.0979C1132.78 77.1045 1133.04 75.2789 1132.69 74.6302C1132.55 74.363 1131.93 73.9106 1131.32 73.6251C1129.38 72.7133 1102.73 66.2659 1072.04 59.2818C1056.59 55.7674 1053.66 55.1611 1050.84 54.9074C1047.01 54.5625 1044.12 55.7616 1042.85 58.2183C1042.32 59.248 1042.28 60.1521 1042.72 61.1821C1043.02 61.886 1043 61.9384 1041.76 63.1113C1040.38 64.4298 1039.81 65.8087 1040.08 67.225C1040.4 68.9203 1041.67 69.8018 1045.78 71.1602C1047.04 71.5789 1048.22 72.0108 1048.39 72.12C1048.62 72.2611 1048.23 72.667 1047.06 73.5173C1042.37 76.9362 1033.74 85.1577 1028.13 91.5679C1019.58 101.325 1009.82 113.903 1003.05 123.883C997.471 132.101 995.041 136.867 993.856 141.91C993.615 142.938 993.347 143.779 993.262 143.779C992.746 143.779 992.015 142.488 991.781 141.165C991.323 138.574 990.109 137.796 987.746 138.578C985.96 139.169 984.677 140.406 983.565 142.61C982.962 143.805 982.401 144.597 982.064 144.728C981.769 144.844 980.982 145.13 980.317 145.366C977.61 146.323 975.016 149.911 975 152.721C974.99 154.644 975.513 155.159 978.196 155.865C979.575 156.229 980.784 156.751 981.859 157.448C984.406 159.1 986.993 159.76 988.849 159.23C989.28 159.106 989.63 159.079 989.625 159.169C989.621 159.259 989.461 160.039 989.271 160.901C988.726 163.37 988.794 165.327 989.452 166.073C990.504 167.265 993.278 167.324 1000.28 166.303C1014.02 164.299 1023.59 161.407 1029.93 157.342C1035.77 153.596 1039.46 149.023 1045.17 138.459C1046.96 135.156 1048.53 133.221 1051.3 130.924C1059.86 123.828 1069.05 120.758 1080.49 121.177C1086.23 121.388 1090.07 122.602 1094.66 125.664C1097.43 127.506 1098.18 128.242 1095.94 126.921C1094.85 126.274 1092.99 125.345 1091.83 124.857C1071.65 116.423 1048.69 126.627 1042.2 146.914C1041.11 150.321 1040.64 153.513 1040.64 157.404C1040.64 163.059 1041.67 167.464 1044.21 172.636C1049.28 182.977 1059.15 190.299 1070.67 192.265C1074.4 192.902 1079.84 192.902 1083.57 192.265C1088.65 191.397 1093.45 189.481 1097.92 186.532C1100.67 184.717 1105.25 180.325 1107.04 177.782C1113.77 168.227 1115.47 156.418 1111.64 145.713C1111.24 144.588 1110.94 143.634 1110.99 143.591C1111.15 143.425 1112.85 147.808 1113.3 149.583C1113.57 150.62 1114.11 153.184 1114.5 155.28C1115.31 159.572 1115.91 161.599 1116.98 163.603C1119.06 167.512 1121.93 169.085 1127.02 169.096C1128.62 169.099 1129.17 169.202 1129.91 169.631C1131.67 170.669 1136.87 170.694 1227.53 170.085C1269.98 169.801 1277.07 169.64 1280.71 168.88C1284.18 168.157 1286.77 166.798 1289 164.54C1291.99 161.499 1293.32 158.878 1295.52 151.668C1297.4 145.505 1298.57 143.237 1304.6 134.132C1309.11 127.332 1311.56 124.968 1316.62 122.568C1322.63 119.717 1330.66 118.399 1337.4 119.161C1341.18 119.589 1345.46 120.502 1348.29 121.484C1353.38 123.25 1355.44 124.631 1360.84 129.906C1367.39 136.315 1367.93 137.196 1369.84 144.644C1370.5 147.214 1371.33 150.105 1371.68 151.069C1373.03 154.834 1376.97 161.78 1378.57 163.24C1381.31 165.745 1387.4 165.293 1393.85 162.104C1397.46 160.322 1399.59 158.192 1399.59 156.363C1399.59 155.601 1399.94 155.698 1401.86 157.006C1404.38 158.71 1404.98 158.972 1406.42 158.966C1411.69 158.944 1415.1 152.242 1413.01 145.991C1412.05 143.118 1409.41 138.961 1407.57 137.415C1405.56 135.731 1404.1 137.347 1402.99 142.491C1402.7 143.796 1402.33 145.006 1402.16 145.179C1401.99 145.352 1401.23 145.557 1400.48 145.634L1399.11 145.775V144.921C1399.11 143.69 1398.22 138.659 1397.62 136.544C1396.86 133.841 1393.76 126.267 1391.85 122.436C1389.68 118.092 1387.26 114.889 1383.1 110.853C1377.14 105.059 1371.02 100.847 1362.12 96.4058C1353.58 92.1491 1343.78 88.3355 1335.7 86.1243C1323.87 82.886 1304.62 80.5205 1277.98 79.0304C1267.6 78.4494 1266.42 78.1678 1264.21 75.7343C1262.96 74.3529 1261.36 71.6756 1255.47 61.0615C1250.35 51.8493 1246.61 46.0796 1244.43 44.05C1243.14 42.8423 1242.45 42.7104 1241.47 43.4799ZM1329.53 121.983C1313.21 123.725 1300.19 135.331 1297.06 150.948C1296.41 154.185 1296.47 160.946 1297.18 164.202C1300.39 178.991 1311.94 189.836 1327.19 192.376C1330.32 192.897 1337.69 192.765 1340.54 192.136C1355.1 188.927 1365.75 178.486 1368.92 164.329C1369.69 160.886 1369.67 153.896 1368.89 150.3C1367.39 143.41 1364.26 137.714 1359.19 132.677C1353.83 127.35 1347.5 123.985 1340.12 122.551C1337.59 122.058 1331.76 121.745 1329.53 121.983Z" fill="#EAE8E2"/>
</svg>
