<svg width="1280" height="486" viewBox="0 0 1280 486" fill="none" xmlns="http://www.w3.org/2000/svg">
<path d="M-43 174C-43 151.909 -25.0914 134 -3 134H1260C1282.09 134 1300 151.909 1300 174V463C1300 485.091 1282.09 503 1260 503H-2.99998C-25.0914 503 -43 485.091 -43 463V174Z" fill="#DFDEDB"/>
<path d="M-43 174C-43 151.909 -25.0914 134 -3 134H1260C1282.09 134 1300 151.909 1300 174V463C1300 485.091 1282.09 503 1260 503H-2.99998C-25.0914 503 -43 485.091 -43 463V174Z" stroke="#DFDEDB"/>
<path fill-rule="evenodd" clip-rule="evenodd" d="M-28.4852 31.1311C-44.8552 31.8304 -57.2023 32.7395 -73.5559 34.4497C-76.9583 34.8056 -81.0346 35.1514 -82.6143 35.2182C-88.3625 35.4616 -94.9884 36.595 -103.468 38.7857C-107.244 39.7612 -108.354 40.1346 -108.992 40.6444C-112.016 43.0638 -127.786 60.1847 -134.395 68.2249C-135.17 69.1666 -136.81 70.8325 -138.041 71.9262C-139.271 73.0201 -141.152 74.8024 -142.22 75.8871C-144.091 77.7867 -144.201 77.9558 -145.223 80.5015C-147.555 86.3044 -147.744 89.6849 -146.112 96.3949L-145.462 99.0646L-147.31 102.64C-152.042 111.802 -153.011 115.151 -153 122.305C-152.994 126.174 -152.704 128.231 -151.96 129.674C-151.704 130.172 -151.583 131.085 -151.542 132.827C-151.455 136.527 -150.642 139.475 -149.009 142.012C-147.921 143.702 -146.741 144.566 -144.606 145.236C-140.715 146.458 -137.854 146.137 -133.953 144.042C-133.648 143.879 -133.57 144.027 -133.444 144.999C-132.002 156.155 -123.226 165.476 -111.571 168.227C-103.296 170.181 -94.193 168.376 -87.3423 163.423C-85.1658 161.85 -81.833 158.417 -80.4639 156.339C-79.0464 154.188 -77.5398 150.958 -76.9007 148.7L-76.3669 146.814L-64.7983 146.767C-51.6306 146.713 -38.2598 146.437 -18.6536 145.815C-11.1805 145.578 -0.890489 145.278 4.2131 145.148C16.927 144.824 54.6472 144.55 61.5457 144.731C77.4165 145.149 85.3134 144.869 90.8505 143.691L92.4282 143.356L94.0728 144.974C95.9596 146.83 97.8088 148.021 99.0684 148.191C99.8302 148.293 100.069 148.482 100.943 149.678C102.268 151.49 105.218 154.298 107.31 155.739C116.189 161.852 127.885 162.694 137.557 157.916C143.779 154.842 148.771 149.54 151.246 143.374L151.935 141.658L153.393 141.297C155.301 140.824 156.925 140.064 157.939 139.17C158.517 138.66 158.757 138.55 158.757 138.793C158.757 139.31 160.055 140.202 161.244 140.502C161.976 140.686 163.757 140.733 167.099 140.654C170.984 140.563 172.515 140.429 175.106 139.955C176.868 139.633 178.658 139.266 179.083 139.142C179.508 139.017 181.298 138.864 183.06 138.801C187.703 138.637 188.497 138.256 188.92 135.991C189.151 134.759 188.887 133.818 188.058 132.911C187.209 131.984 186.927 130.752 187.138 128.891C188.535 116.522 188.635 115.352 188.648 111.319C188.66 107.558 188.597 106.796 188.064 104.25C186.734 97.8999 184.121 93.1319 179.567 88.7458C176.831 86.1096 173.374 83.8898 170.135 82.6882C169.528 82.4628 167.866 81.6121 166.443 80.7977C162.131 78.3303 156.187 76.1009 151.024 75.0152C148.728 74.5322 144.873 74.386 140.309 74.609C138.998 74.6731 137.922 74.4748 133.239 73.3065C115.346 68.8418 105.755 65.1944 90.6558 57.1117C70.1487 46.1342 54.43 39.9196 36.7891 35.8147C27.4115 33.6329 18.193 32.298 5.75965 31.3219C1.86081 31.0157 -22.5953 30.8795 -28.4852 31.1311Z" fill="#DFDEDB"/>
<path fill-rule="evenodd" clip-rule="evenodd" d="M358.526 25.1909C341.952 25.599 329.459 26.5034 314.088 28.4078C302.727 29.8153 297.609 30.9794 293.591 33.0697C291.484 34.1659 290.202 35.3526 290.2 36.2091C290.197 36.9966 289.269 38.6957 288.231 39.8144C286.964 41.1785 283.244 45.8226 280.849 49.0306C277.854 53.0421 276.264 55.4254 272.885 60.9679C268.456 68.2323 267.268 69.6067 263.087 72.2994C258.254 75.4121 257.752 76.2157 258.916 78.9783C259.394 80.1128 259.463 80.5419 259.38 81.8204C259.284 83.2868 259.037 83.9425 257.917 85.7063C257.686 86.0692 257.352 87.1333 257.174 88.0711C256.995 89.0086 256.17 92.2913 255.339 95.3655C253.494 102.197 252.779 105.506 252.696 107.612L252.632 109.217L251.35 110.049C249.788 111.062 247.822 113.002 246.738 114.601C243.969 118.684 243.49 121.823 244.458 129.548C244.77 132.031 245.065 134.181 245.116 134.325C245.166 134.469 245.114 134.644 245.001 134.714C244.604 134.959 244.807 136.874 245.413 138.613C246.209 140.899 247.033 142.278 247.91 142.795C248.349 143.054 248.662 143.436 248.736 143.804C248.921 144.729 250.452 146.303 251.727 146.878C252.783 147.355 253.112 147.39 256.308 147.369C260.31 147.343 261.507 147.088 265.622 145.386L268.205 144.319L268.562 146.285C270.143 154.988 275.449 162.959 282.993 167.963C293.262 174.777 306.736 175.593 317.756 170.068C324.195 166.84 329.744 161.355 332.854 155.143C333.331 154.191 333.744 153.386 333.772 153.354C333.8 153.322 334.103 153.443 334.446 153.621C335 153.91 345.161 153.946 424.895 153.948L514.721 153.949L515.625 153.419C516.458 152.932 516.542 152.799 516.685 151.753L516.839 150.617L517.329 151.907C519.872 158.601 525.422 165.309 531.71 169.288C536.222 172.143 541.905 174.143 547.418 174.815C550.468 175.187 556.336 174.975 559.278 174.385C572.132 171.811 582.607 162.96 586.85 151.089L587.535 149.173L587.762 151.42C588.096 154.72 588.931 156.033 591.153 156.755C594.487 157.839 603.399 155.399 604.405 153.128L604.66 152.552H610.065C616.239 152.552 616.342 152.528 617.448 150.878C618.674 149.049 618.613 146.985 617.289 145.479C616.69 144.797 616.678 144.748 617.083 144.643C617.48 144.539 617.512 144.354 617.501 142.199L617.489 139.867L619.105 135.03C620.808 129.935 621.579 126.724 621.64 124.462L621.677 123.099L621.818 124.496C621.951 125.811 621.961 125.762 621.996 123.677C622.017 122.458 621.95 121.512 621.848 121.575C621.746 121.638 621.609 120.894 621.542 119.922C621.385 117.63 620.883 116.041 620.029 115.126C619.652 114.722 618.523 113.835 617.519 113.155C615.368 111.698 614.923 111.028 614.291 108.291C614.049 107.242 613.271 104.58 612.561 102.375C611.107 97.8568 610.338 96.4547 608.11 94.2582C606.057 92.2334 604.077 91.0529 599.131 88.9057C596.637 87.8226 592.851 86.1562 590.718 85.2025C584.199 82.2876 580.35 81.2 570.817 79.5798C561.583 78.0106 556.107 77.3941 547.791 76.9877C545.128 76.8575 540.383 76.5653 537.246 76.3385C534.11 76.1115 529.82 75.8632 527.713 75.7866L523.883 75.6473L522.656 74.822C520.973 73.6899 518.724 71.7144 506.904 60.9847C489.819 45.4761 484.306 40.597 479.682 36.8891C478.38 35.8452 477.246 34.818 477.163 34.606C476.856 33.8224 473.299 31.958 470.032 30.8683C464.952 29.1735 458.018 28.256 444.067 27.4326C440.93 27.2473 434.006 26.8121 428.68 26.4656C415.906 25.634 411.889 25.4231 404.04 25.1727C396.559 24.934 368.503 24.9452 358.526 25.1909ZM244.014 123.851C244.014 125.093 244.05 125.6 244.093 124.98C244.137 124.359 244.137 123.343 244.093 122.722C244.05 122.102 244.014 122.61 244.014 123.851Z" fill="#DFDEDB"/>
<path fill-rule="evenodd" clip-rule="evenodd" d="M857.009 1.13349C856.71 1.75702 856.25 3.06885 855.987 4.04884L855.508 5.83091L854.948 5.2145C854.64 4.87554 853.97 4.32476 853.46 3.99055C852.636 3.45165 852.495 3.41948 852.208 3.70555C851.761 4.15291 851.547 6.60967 851.242 14.8216C850.967 22.2383 851.034 23.6153 851.687 23.9647C852.216 24.2477 854.193 24.2432 854.727 23.9577C855.083 23.7671 855.145 23.807 855.148 24.2276C855.15 24.499 855.242 25.8383 855.352 27.2039C855.463 28.5694 855.663 32.4054 855.797 35.7284C855.931 39.0511 856.116 42.1753 856.209 42.6705C856.368 43.524 856.348 43.5771 855.815 43.6842C854.339 43.9806 852.604 45.856 851.983 47.8265C851.777 48.4775 851.505 49.0108 851.379 49.0118C850.142 49.0205 847.439 49.5032 846.924 49.8072C846.015 50.3435 845.719 51.4272 846.038 53.0497C846.225 53.9981 846.449 54.4494 846.967 54.9203C847.646 55.5362 847.667 55.5401 849.876 55.4419C851.768 55.3579 852.121 55.3944 852.231 55.685C852.512 56.4245 853.765 58.0623 854.208 58.2672C854.607 58.452 854.658 58.6105 854.558 59.3534C854.412 60.4407 854.863 64.1236 855.3 65.4188C856.244 68.2147 857.877 70.1689 859.983 71.0234C860.939 71.4112 861.151 71.5787 860.966 71.8013C860.634 72.2014 860.898 73.7512 861.736 76.3219C863.395 81.4097 866.993 89.7593 868.142 91.1882C868.725 91.9132 868.886 92.3934 869.22 94.3889C869.73 97.4347 870.367 99.9098 872.076 105.483C875.847 117.776 876.655 123.202 876.138 132.735C875.599 142.688 874.264 151.347 872.296 157.659C871.355 160.676 868.882 165.696 867.464 167.466C866.453 168.728 866.284 168.841 864.105 169.692C858.673 171.815 853.214 172.75 842.552 173.386C837.82 173.668 835.958 173.545 830.314 172.583C823.941 171.496 817.983 169.725 813.777 167.666C810.371 165.999 808.001 164.285 805.12 161.405C800.837 157.122 799.099 153.816 798.562 148.931C798.093 144.664 799.263 138.581 801.227 135.069C802.426 132.927 804.815 128.092 805.879 125.656C806.423 124.409 807.58 122.207 808.45 120.761L810.031 118.134L811.148 117.874C812.992 117.444 815.209 116.303 816.502 115.118C818.573 113.22 819.192 111.045 819.014 106.28C818.93 104.03 818.794 103.006 818.453 102.055C817.403 99.1254 816.044 97.0543 813.857 95.0475C810.872 92.3083 807.01 90.7374 802.76 90.5331C800.665 90.4325 799.74 90.5243 794.966 91.3067C779.682 93.8116 772.835 93.8375 766.392 91.4144C764.598 90.74 761.248 89.0533 759.568 87.9792C756.471 85.9992 753.717 85.2763 749.32 85.2895C744.67 85.3035 741.672 86.1991 740.631 87.8862C740.346 88.3469 740.065 88.6973 740.006 88.6649C739.946 88.6323 739.266 88.3063 738.494 87.9401C735.825 86.6745 736.003 86.6853 717.972 86.6853C698.649 86.6853 697.73 86.7568 695.763 88.4106C693.686 90.1579 694.173 93.999 697.038 98.4639L698.149 100.194L697.564 101.86C697.017 103.418 696.639 104.186 694.086 108.92C693.469 110.064 693.146 110.901 693.225 111.151C693.327 111.471 692.928 111.838 691.243 112.974C690.082 113.756 688.561 114.859 687.862 115.425C687.076 116.061 686.682 116.282 686.83 116.004C687.025 115.641 686.989 115.45 686.646 115.014C685.659 113.76 679.304 113.638 675.967 114.809C674.533 115.313 672.895 116.953 672.008 118.774C670.464 121.942 669.127 127.07 669.111 129.884C669.102 131.392 669.462 132.213 670.239 132.459C670.947 132.684 672.748 131.671 674.521 130.053L676.11 128.601L675.513 129.773C675.184 130.418 674.709 131.451 674.456 132.068C674.06 133.034 673.772 133.342 672.386 134.281C671.501 134.881 670.609 135.372 670.404 135.372C669.58 135.372 667.513 136.342 666.655 137.133C665.512 138.186 664.921 139.558 664.719 141.626C664.59 142.944 664.458 143.349 663.995 143.839C663.684 144.169 663.315 144.754 663.174 145.141C662.847 146.043 662.846 148.235 663.173 149.121C663.912 151.124 666.043 153.083 669.292 154.747L671.269 155.759L670.723 157.278C669.91 159.543 668.492 162.49 666.752 165.531C665.158 168.316 661.65 173.67 660.414 175.206C658.422 177.679 657.548 179.704 658.228 180.268C659.593 181.4 667.045 174.834 672.486 167.704C675.562 163.673 676.889 162.341 678.777 161.388C680.027 160.757 680.141 160.74 683.192 160.74C684.998 160.74 686.951 160.867 687.802 161.038L689.279 161.336L688.234 161.916C685.008 163.705 680.236 167.302 678.777 169.043C678.532 169.335 677.885 170.064 677.338 170.663C675.861 172.279 674.136 174.705 672.647 177.26C664.781 190.754 666.058 208.362 675.803 220.755C677.252 222.598 680.936 226.268 682.676 227.603C694.709 236.835 710.141 238.575 723.661 232.225C730.462 229.031 737.125 222.992 740.647 216.83L741.396 215.52L744.859 215.511C747.129 215.506 748.918 215.384 750.051 215.159C751.001 214.969 753.091 214.621 754.695 214.384C759.677 213.649 760.657 213.234 764.46 210.256C766.742 208.468 768.411 207.497 769.925 207.076C770.4 206.944 772.563 206.541 774.732 206.181C780.833 205.167 783.817 204.154 785.064 202.673C785.351 202.332 785.586 201.825 785.586 201.546C785.586 200.671 784.597 199.754 783.183 199.321L781.895 198.925L783.362 198.655C788.873 197.638 799.14 197.946 830.086 200.056C847.076 201.215 855.146 201.455 859.166 200.924C867.399 199.835 876.333 195.954 883.983 190.143C884.934 189.421 885.821 188.728 885.955 188.603C886.089 188.478 886.964 187.697 887.899 186.868C889.77 185.21 892.415 182.36 894.43 179.833L895.732 178.199L896.986 178.287C897.676 178.336 898.834 178.237 899.56 178.068L900.879 177.761L899.957 179.722C895.075 190.098 894.986 202.21 899.714 212.618C901.394 216.317 904.242 220.577 906.903 223.373C907.69 224.201 910.578 226.855 911.427 227.532C915.212 230.551 921.321 233.478 926.539 234.772C930.591 235.778 936.809 236.058 941.093 235.43C954.587 233.449 966.041 224.814 971.573 212.45C976.958 200.417 975.944 186.377 968.902 175.467C966.117 171.153 962.118 166.948 958.235 164.253C957.37 163.653 956.703 163.122 956.751 163.073C956.8 163.025 957.979 163.143 959.372 163.335C962.137 163.718 963.349 163.628 963.919 162.998C964.196 162.692 964.387 162.641 964.68 162.798C965.723 163.357 966.905 162.669 967.169 161.35C967.508 159.657 965.047 156.723 961.093 154.106C958.956 152.691 957.605 151.476 957.12 150.531C956.98 150.259 956.633 148.914 956.348 147.541C955.742 144.619 954.916 142.745 953.675 141.478C951.716 139.477 948.409 137.732 944.901 136.847C943.46 136.483 942.075 136.382 936.584 136.236C930.385 136.072 925.351 135.678 925.351 135.358C925.351 135.279 925.64 134.514 925.994 133.657C928.294 128.082 927.529 122.156 923.41 113.659C922.601 111.988 921.54 109.97 921.052 109.175C920.565 108.379 920.167 107.68 920.167 107.621C920.167 107.562 919.839 107.005 919.438 106.383C919.037 105.762 918.147 104.379 917.46 103.31C912.569 95.6999 907.347 88.6913 903.145 84.0945C898.576 79.0974 896.021 76.4381 890.256 70.6823C886.555 66.9867 883.32 63.8973 883.067 63.8172C882.685 63.6961 882.614 63.5186 882.647 62.7718C882.679 62.0509 882.608 61.8562 882.287 61.7903C881.596 61.6487 879.256 63.451 878.421 64.767C877.422 66.342 877.179 67.141 877.178 68.8514L877.177 70.2766L876.237 70.2814C875.57 70.2848 875.083 70.4463 874.563 70.8365C873.223 71.8428 873.203 71.7653 874.413 70.2596C876.8 67.2892 877.404 64.935 875.86 64.6262L875.241 64.5025L876.179 63.7872C877.238 62.9786 877.72 62.1096 877.941 60.6091C878.145 59.228 878.733 58.4192 880.532 57.0482C883.538 54.7566 885.19 52.6803 884.853 51.618C884.778 51.3833 884.317 50.822 883.828 50.3705C880.769 47.5463 880.279 46.929 879.458 44.8671C878.419 42.2582 877.835 41.2749 876.734 40.2805C874.661 38.4084 872.984 38.2076 870.104 39.4862C867.759 40.5277 866.671 40.879 866.368 40.6922C865.773 40.3241 865.386 38.3587 864.33 30.3345C863.51 24.1022 863.037 21.0126 862.743 19.9711C862.597 19.4553 862.664 19.1569 863.073 18.5051C863.737 17.4454 863.985 16.0673 863.764 14.6691C863.212 11.1767 858.62 0 857.738 0C857.636 0 857.308 0.509964 857.009 1.13349ZM884.677 17.2747C883.676 18.0623 883.333 19.4244 883.349 22.5619C883.364 25.357 883.623 27.2261 884.831 33.2492C885.284 35.5038 885.298 35.7461 884.981 35.8836C884.788 35.9672 884.129 36.2427 883.516 36.4961C882.236 37.0244 881.808 37.7358 881.864 39.2413C881.953 41.6413 882.985 42.7489 885.133 42.7489C886.399 42.7489 886.466 42.7757 886.609 43.3426C886.692 43.6691 886.763 45.0051 886.768 46.3113C886.776 48.4477 886.716 48.8272 886.17 50.0896C885.837 50.8615 885.518 51.6873 885.462 51.9248C885.323 52.5116 886.124 53.3256 886.854 53.3386C887.312 53.3468 887.627 53.6108 888.304 54.5541C890.171 57.1585 892.233 58.4265 893.647 57.8408C895.013 57.2756 896.141 55.3141 895.912 53.9027L895.794 53.1777L897.017 53.4655C897.69 53.6238 898.661 53.7548 899.175 53.7565C900.996 53.7632 901.774 52.3197 902.867 46.9074C904.344 39.5861 904.608 31.308 903.484 27.5558C903.344 27.0912 902.922 26.3845 902.546 25.9857C901.932 25.3354 901.741 25.2607 900.685 25.2607C899.053 25.2607 896.705 25.919 895.062 26.8375C892.965 28.0096 891.026 30.2606 890.99 31.5651L890.976 32.0617L890.787 31.5917C890.683 31.3332 890.241 29.5844 889.805 27.7054C888.342 21.4027 887.396 18.7191 886.184 17.4342C885.515 16.725 885.393 16.712 884.677 17.2747ZM855.275 19.9711C855.429 21.3971 855.489 21.5496 855.783 21.252C855.904 21.129 855.817 20.5886 855.559 19.8631L855.135 18.6757L855.275 19.9711ZM860.972 21.0597C860.336 21.8309 858.958 22.6699 858.327 22.6699H857.686L857.824 24.0193C857.899 24.7616 858.06 29.1092 858.181 33.681C858.381 41.2123 858.544 43.6279 858.876 43.9597C859.136 44.219 862.493 42.9918 863.052 42.4335C864.016 41.4695 864.006 39.1669 863.006 32.3836C862.577 29.4754 862.016 25.6506 861.759 23.8843C861.337 20.9882 861.259 20.7108 860.972 21.0597ZM872.73 72.3817L872.318 72.8675L872.804 72.4562C873.261 72.0697 873.388 71.8959 873.216 71.8959C873.175 71.8959 872.956 72.1144 872.73 72.3817ZM870.925 75.1459C870.54 75.8687 870.284 76.5199 870.357 76.5927C870.564 76.7995 870.838 76.3988 871.132 75.4583C871.281 74.9833 871.501 74.471 871.621 74.3196C871.741 74.1683 871.792 73.9966 871.733 73.9379C871.674 73.8792 871.311 74.4228 870.925 75.1459ZM881.945 77.1676C881.922 77.4941 884.921 83.404 885.405 83.9865C885.651 84.2834 885.409 83.6931 884.867 82.6749C884.325 81.6567 883.449 79.9564 882.92 78.8966C882.391 77.8367 881.952 77.0588 881.945 77.1676ZM900.294 107.412C900.294 107.531 900.484 107.939 900.716 108.319C901.196 109.107 902.039 111.011 903.563 114.753C904.688 117.513 904.823 116.938 903.742 113.997C902.964 111.883 900.294 106.783 900.294 107.412ZM896.335 149.307C895.828 150.371 895.899 150.552 896.429 149.547C896.67 149.09 896.829 148.679 896.783 148.632C896.736 148.585 896.535 148.889 896.335 149.307ZM895.562 150.969C895.448 151.268 894.909 152.398 894.365 153.481C893.821 154.565 893.425 155.451 893.484 155.451C893.667 155.451 896.006 150.663 895.883 150.54C895.82 150.477 895.675 150.67 895.562 150.969ZM739.706 174.76C739.772 174.931 739.963 175.018 740.13 174.954C740.495 174.814 740.323 174.45 739.892 174.45C739.716 174.45 739.638 174.581 739.706 174.76ZM931.616 176.205C926.822 177.208 921.429 180.525 918.927 184.01L918.228 184.984L918.791 185.125C919.1 185.203 920.338 185.803 921.542 186.459C924.819 188.244 930.633 191.017 932.097 191.492C933.636 191.991 933.551 192.372 934.728 179.74C934.894 177.959 935.098 176.331 935.182 176.123C935.312 175.801 935.211 175.748 934.501 175.761C934.043 175.769 932.744 175.969 931.616 176.205ZM703.152 176.294C700.619 176.85 696.144 178.615 696.462 178.933C696.673 179.144 705.662 181.867 705.761 181.75C705.792 181.713 705.925 180.53 706.057 179.121C706.188 177.712 706.407 176.425 706.543 176.26C706.75 176.012 706.596 175.965 705.631 175.983C704.993 175.995 703.877 176.135 703.152 176.294ZM942.205 176.722C942.534 177.119 942.419 179.512 941.779 185.569C941.238 190.682 941.209 192.551 941.668 192.727C941.85 192.797 945.18 192.453 949.067 191.962C952.954 191.472 956.45 191.072 956.836 191.073C957.222 191.074 957.538 190.965 957.538 190.83C957.538 190.367 955.647 186.595 954.761 185.291C952.16 181.463 948.152 178.445 943.621 176.902C941.852 176.3 941.855 176.301 942.205 176.722ZM713.665 177.184C713.813 177.573 713.811 178.407 713.659 179.766C713.536 180.87 713.435 181.875 713.435 181.998C713.435 182.146 714.93 182.224 717.81 182.228C720.215 182.231 722.573 182.321 723.048 182.429L723.912 182.625L723.048 181.871C721.676 180.673 719.264 178.997 717.972 178.344C716.973 177.838 713.83 176.609 713.536 176.609C713.486 176.609 713.544 176.868 713.665 177.184ZM915.026 191.552C914.329 193.956 914.118 195.469 914.118 198.043C914.118 201.735 914.909 204.985 916.652 208.454C916.95 209.048 917.228 209.572 917.269 209.618C917.311 209.663 917.858 209.21 918.485 208.61C919.113 208.011 920.198 207.05 920.897 206.476C921.596 205.902 922.967 204.752 923.943 203.921C924.919 203.09 926.097 202.102 926.561 201.727C927.92 200.625 928.807 199.683 928.807 199.34C928.807 198.629 927.672 197.82 920.491 193.416C918.352 192.105 916.35 190.795 916.042 190.506L915.482 189.979L915.026 191.552ZM958.311 197.957C958.129 198.25 956.775 198.539 951.088 199.499C945.647 200.417 943.325 200.993 942.75 201.567C942.136 202.181 942.383 203.116 943.96 206.142C948.515 214.884 948.721 215.318 948.639 216.017L948.559 216.704L949.97 215.675C954.728 212.207 958.184 205.844 958.553 199.873C958.673 197.931 958.614 197.466 958.311 197.957ZM932.847 205.594C931.456 206.594 926.224 210.558 924.039 212.268C921.839 213.99 921.359 214.159 920.481 213.521C920.13 213.266 920.426 213.606 921.139 214.277C923.711 216.697 927.265 218.654 930.752 219.568C933.389 220.259 937.596 220.402 940.406 219.895C942.225 219.566 942.453 219.48 942.019 219.286C941.493 219.05 940.774 217.659 937.091 209.764C936.097 207.634 935.137 205.666 934.957 205.392C934.513 204.715 934.002 204.764 932.847 205.594ZM686.872 206.268C686.883 206.653 688.483 209.689 688.672 209.683C688.765 209.679 689.396 209.148 690.074 208.502L691.307 207.327L689.086 206.676C687.685 206.265 686.867 206.114 686.872 206.268ZM697.889 210.452C697.132 211.016 696.116 211.795 695.631 212.182C693.859 213.598 692.84 214.182 692.384 214.044C691.033 213.633 695.776 217.27 697.749 218.157C701.56 219.869 703.48 220.305 707.279 220.319C708.971 220.325 711.042 220.197 711.981 220.029C713.525 219.751 713.624 219.703 713.222 219.422C712.701 219.058 712.45 218.603 710.737 214.932C710.017 213.388 709.332 211.97 709.217 211.78C709.072 211.542 707.581 211.121 704.437 210.43C701.924 209.878 699.731 209.426 699.566 209.426C699.4 209.426 698.645 209.888 697.889 210.452ZM719.387 214.197C719.584 214.578 719.808 215.326 719.885 215.858L720.024 216.826L721.614 215.559L723.205 214.292L721.938 214.044C721.242 213.908 720.302 213.731 719.85 213.65L719.028 213.505L719.387 214.197Z" fill="#DFDEDB"/>
<path fill-rule="evenodd" clip-rule="evenodd" d="M1238.47 43.4799C1237.03 44.6095 1236.46 46.8038 1236.97 49.2506C1237.76 53.0061 1239.56 56.5068 1245.65 66.1666C1249.78 72.7273 1251.67 76.3104 1252.27 78.7637C1252.65 80.2774 1252.65 80.4076 1252.27 80.7899C1251.7 81.3573 1249.42 81.4027 1236.02 81.1133C1228.37 80.9478 1216.8 80.957 1198.99 81.1425C1179.36 81.3467 1167.72 81.3424 1150.85 81.1236C1138.62 80.9652 1128.58 80.8046 1128.54 80.7667C1128.5 80.7291 1128.73 79.9781 1129.06 79.0979C1129.78 77.1045 1130.04 75.2789 1129.69 74.6302C1129.55 74.363 1128.93 73.9106 1128.32 73.6251C1126.38 72.7133 1099.73 66.2659 1069.04 59.2818C1053.59 55.7674 1050.66 55.1611 1047.84 54.9074C1044.01 54.5625 1041.12 55.7616 1039.85 58.2183C1039.32 59.248 1039.28 60.1521 1039.72 61.1821C1040.02 61.886 1040 61.9384 1038.76 63.1113C1037.38 64.4297 1036.81 65.8087 1037.08 67.225C1037.4 68.9203 1038.67 69.8018 1042.78 71.1602C1044.04 71.5789 1045.22 72.0108 1045.39 72.12C1045.62 72.2611 1045.23 72.667 1044.06 73.5173C1039.37 76.9362 1030.74 85.1577 1025.13 91.5679C1016.58 101.325 1006.82 113.903 1000.05 123.883C994.471 132.101 992.041 136.867 990.856 141.91C990.615 142.938 990.347 143.779 990.262 143.779C989.746 143.779 989.015 142.488 988.781 141.165C988.323 138.574 987.109 137.796 984.746 138.578C982.96 139.169 981.677 140.406 980.565 142.61C979.962 143.805 979.401 144.597 979.064 144.728C978.769 144.844 977.982 145.13 977.317 145.366C974.61 146.323 972.016 149.911 972 152.721C971.99 154.644 972.513 155.159 975.196 155.865C976.575 156.229 977.784 156.751 978.859 157.448C981.406 159.1 983.993 159.76 985.849 159.23C986.28 159.106 986.63 159.079 986.625 159.169C986.621 159.259 986.461 160.039 986.271 160.901C985.726 163.37 985.794 165.327 986.452 166.073C987.504 167.265 990.278 167.324 997.282 166.303C1011.02 164.299 1020.59 161.407 1026.93 157.342C1032.77 153.596 1036.46 149.023 1042.17 138.459C1043.96 135.156 1045.53 133.221 1048.3 130.924C1056.86 123.828 1066.05 120.758 1077.49 121.177C1083.23 121.388 1087.07 122.602 1091.66 125.664C1094.43 127.506 1095.18 128.242 1092.94 126.921C1091.85 126.274 1089.99 125.345 1088.83 124.857C1068.65 116.423 1045.69 126.627 1039.2 146.914C1038.11 150.321 1037.64 153.513 1037.64 157.404C1037.64 163.059 1038.67 167.464 1041.21 172.636C1046.28 182.977 1056.15 190.299 1067.67 192.265C1071.4 192.902 1076.84 192.902 1080.57 192.265C1085.65 191.397 1090.45 189.481 1094.92 186.532C1097.67 184.717 1102.25 180.325 1104.04 177.782C1110.77 168.227 1112.47 156.418 1108.64 145.713C1108.24 144.588 1107.94 143.634 1107.99 143.591C1108.15 143.425 1109.85 147.808 1110.3 149.583C1110.57 150.62 1111.11 153.184 1111.5 155.28C1112.31 159.572 1112.91 161.599 1113.98 163.603C1116.06 167.512 1118.93 169.085 1124.02 169.096C1125.62 169.099 1126.17 169.202 1126.91 169.631C1128.67 170.669 1133.87 170.694 1224.53 170.085C1266.98 169.801 1274.07 169.64 1277.71 168.88C1281.18 168.157 1283.77 166.798 1286 164.54C1288.99 161.499 1290.32 158.878 1292.52 151.668C1294.4 145.505 1295.57 143.237 1301.6 134.132C1306.11 127.332 1308.56 124.968 1313.62 122.568C1319.63 119.717 1327.66 118.399 1334.4 119.161C1338.18 119.589 1342.46 120.502 1345.29 121.484C1350.38 123.25 1352.44 124.631 1357.84 129.906C1364.39 136.315 1364.93 137.196 1366.84 144.644C1367.5 147.214 1368.33 150.105 1368.68 151.069C1370.03 154.834 1373.97 161.78 1375.57 163.24C1378.31 165.745 1384.4 165.293 1390.85 162.104C1394.46 160.322 1396.59 158.192 1396.59 156.363C1396.59 155.601 1396.94 155.698 1398.86 157.006C1401.38 158.71 1401.98 158.972 1403.42 158.966C1408.69 158.944 1412.1 152.242 1410.01 145.991C1409.05 143.118 1406.41 138.961 1404.57 137.415C1402.56 135.731 1401.1 137.347 1399.99 142.491C1399.7 143.796 1399.33 145.006 1399.16 145.179C1398.99 145.352 1398.23 145.557 1397.48 145.634L1396.11 145.775V144.921C1396.11 143.69 1395.22 138.659 1394.62 136.544C1393.86 133.841 1390.76 126.267 1388.85 122.436C1386.68 118.092 1384.26 114.889 1380.1 110.853C1374.14 105.059 1368.02 100.847 1359.12 96.4058C1350.58 92.1491 1340.78 88.3355 1332.7 86.1243C1320.87 82.886 1301.62 80.5205 1274.98 79.0304C1264.6 78.4494 1263.42 78.1678 1261.21 75.7343C1259.96 74.3529 1258.36 71.6756 1252.47 61.0615C1247.35 51.8493 1243.61 46.0796 1241.43 44.05C1240.14 42.8423 1239.45 42.7104 1238.47 43.4799ZM1326.53 121.983C1310.21 123.725 1297.19 135.331 1294.06 150.948C1293.41 154.185 1293.47 160.946 1294.18 164.202C1297.39 178.991 1308.94 189.836 1324.19 192.376C1327.32 192.897 1334.69 192.765 1337.54 192.136C1352.1 188.927 1362.75 178.486 1365.92 164.329C1366.69 160.886 1366.67 153.896 1365.89 150.3C1364.39 143.41 1361.26 137.714 1356.19 132.677C1350.83 127.35 1344.5 123.985 1337.12 122.551C1334.59 122.058 1328.76 121.745 1326.53 121.983Z" fill="#DFDEDB"/>
</svg>
