<svg width="156" height="144" viewBox="0 0 156 144" fill="none" xmlns="http://www.w3.org/2000/svg">
<path fill-rule="evenodd" clip-rule="evenodd" d="M126.566 3.94521H29.434C15.3455 3.94521 3.92453 15.4263 3.92453 29.589V114.411C3.92453 128.574 15.3455 140.055 29.434 140.055H126.566C140.655 140.055 152.075 128.574 152.075 114.411V29.589C152.075 15.4263 140.655 3.94521 126.566 3.94521ZM29.434 0C13.178 0 0 13.2475 0 29.589V114.411C0 130.753 13.178 144 29.434 144H126.566C142.822 144 156 130.753 156 114.411V29.589C156 13.2475 142.822 0 126.566 0H29.434Z" fill="#DFDEDB"/>
<path d="M77.4996 92.0429L92.8892 101.351C95.7075 103.057 99.1563 100.535 98.4146 97.3458L94.3355 79.8425L107.945 68.05C110.43 65.8992 109.095 61.82 105.831 61.5604L87.92 60.04L80.9113 43.5008C79.6505 40.4971 75.3488 40.4971 74.088 43.5008L67.0792 60.0029L49.168 61.5233C45.9046 61.7829 44.5696 65.8621 47.0542 68.0129L60.6638 79.8054L56.5846 97.3087C55.843 100.498 59.2917 103.02 62.11 101.314L77.4996 92.0429Z" fill="#2F5830"/>
</svg>
