<svg width="156" height="144" viewBox="0 0 156 144" fill="none" xmlns="http://www.w3.org/2000/svg">
<path fill-rule="evenodd" clip-rule="evenodd" d="M126.566 3.94521H29.434C15.3455 3.94521 3.92453 15.4263 3.92453 29.589V114.411C3.92453 128.574 15.3455 140.055 29.434 140.055H126.566C140.655 140.055 152.075 128.574 152.075 114.411V29.589C152.075 15.4263 140.655 3.94521 126.566 3.94521ZM29.434 0C13.178 0 0 13.2475 0 29.589V114.411C0 130.753 13.178 144 29.434 144H126.566C142.822 144 156 130.753 156 114.411V29.589C156 13.2475 142.822 0 126.566 0H29.434Z" fill="#DFDEDB"/>
<path d="M98.738 50.1392C95.9112 47.2838 92.5441 45.0198 88.8332 43.4793C85.1222 41.9388 81.1417 41.1527 77.1238 41.1667C60.2888 41.1667 46.568 54.8875 46.568 71.7225C46.568 77.1183 47.9863 82.36 50.638 86.985L46.3213 102.833L62.5088 98.5783C66.9796 101.014 72.0055 102.309 77.1238 102.309C93.9588 102.309 107.68 88.5883 107.68 71.7533C107.68 63.5825 104.504 55.905 98.738 50.1392ZM77.1238 97.1292C72.5605 97.1292 68.0896 95.8958 64.1738 93.5833L63.2488 93.0283L53.6288 95.5567L56.188 86.1833L55.5713 85.2275C53.036 81.179 51.6898 76.4993 51.6863 71.7225C51.6863 57.7242 63.0946 46.3158 77.093 46.3158C83.8763 46.3158 90.2588 48.9675 95.038 53.7775C97.4044 56.1331 99.2797 58.9349 100.555 62.0206C101.831 65.1063 102.481 68.4144 102.469 71.7533C102.53 85.7517 91.1221 97.1292 77.1238 97.1292ZM91.0605 78.1358C90.2896 77.7658 86.528 75.9158 85.8496 75.6383C85.1405 75.3917 84.6471 75.2683 84.123 76.0083C83.5988 76.7792 82.1496 78.5058 81.718 78.9992C81.2863 79.5233 80.8238 79.585 80.053 79.1842C79.2821 78.8142 76.8155 77.9817 73.9171 75.3917C71.6355 73.3567 70.1246 70.8592 69.6621 70.0883C69.2305 69.3175 69.6005 68.9167 70.0013 68.5158C70.3405 68.1767 70.7721 67.6217 71.1421 67.19C71.5121 66.7583 71.6663 66.4192 71.913 65.9258C72.1596 65.4017 72.0363 64.97 71.8513 64.6C71.6663 64.23 70.1246 60.4683 69.508 58.9267C68.8913 57.4467 68.2438 57.6317 67.7813 57.6008H66.3013C65.7771 57.6008 64.9755 57.7858 64.2663 58.5567C63.588 59.3275 61.6146 61.1775 61.6146 64.9392C61.6146 68.7008 64.3588 72.3392 64.7288 72.8325C65.0988 73.3567 70.1246 81.065 77.7713 84.3642C79.5905 85.1658 81.0088 85.6283 82.1188 85.9675C83.938 86.5533 85.603 86.4608 86.9288 86.2758C88.4088 86.06 91.4613 84.4258 92.078 82.6375C92.7255 80.8492 92.7255 79.3383 92.5096 78.9992C92.2938 78.66 91.8313 78.5058 91.0605 78.1358Z" fill="#315C32"/>
</svg>
