<svg width="35" height="34" viewBox="0 0 35 34" fill="none" xmlns="http://www.w3.org/2000/svg">
<path d="M17.4998 2.83337C15.5847 2.83337 13.6884 3.19981 11.919 3.91175C10.1497 4.62369 8.54205 5.6672 7.18786 6.98269C4.45296 9.63946 2.9165 13.2428 2.9165 17C2.9165 23.2617 7.10192 28.5742 12.8915 30.4584C13.6207 30.5717 13.854 30.1325 13.854 29.75V27.3559C9.81442 28.2059 8.954 25.4575 8.954 25.4575C8.28317 23.8142 7.33525 23.375 7.33525 23.375C6.00817 22.4967 7.43734 22.525 7.43734 22.525C8.89567 22.6242 9.66859 23.9842 9.66859 23.9842C10.9373 26.1375 13.0811 25.5 13.9123 25.16C14.0436 24.2392 14.4228 23.6159 14.8311 23.2617C11.5936 22.9075 8.19567 21.6892 8.19567 16.2917C8.19567 14.7192 8.74984 13.4584 9.69775 12.4525C9.55192 12.0984 9.0415 10.625 9.84359 8.71254C9.84359 8.71254 11.0686 8.33004 13.854 10.1575C15.0061 9.84587 16.2603 9.69004 17.4998 9.69004C18.7394 9.69004 19.9936 9.84587 21.1457 10.1575C23.9311 8.33004 25.1561 8.71254 25.1561 8.71254C25.9582 10.625 25.4478 12.0984 25.3019 12.4525C26.2498 13.4584 26.804 14.7192 26.804 16.2917C26.804 21.7034 23.3915 22.8934 20.1394 23.2475C20.6644 23.6867 21.1457 24.5509 21.1457 25.8684V29.75C21.1457 30.1325 21.379 30.5859 22.1228 30.4584C27.9123 28.56 32.0832 23.2617 32.0832 17C32.0832 15.1396 31.706 13.2975 30.9731 11.5787C30.2402 9.85991 29.166 8.29819 27.8118 6.98269C26.4576 5.6672 24.85 4.62369 23.0806 3.91175C21.3113 3.19981 19.4149 2.83337 17.4998 2.83337Z" fill="#B7B6B3"/>
</svg>
