<?xml version="1.0" encoding="UTF-8"?>
<!DOCTYPE svg PUBLIC "-//W3C//DTD SVG 1.1//EN" "http://www.w3.org/Graphics/SVG/1.1/DTD/svg11.dtd">
<svg xmlns="http://www.w3.org/2000/svg" version="1.1" width="966px" height="990px" style="shape-rendering:geometricPrecision; text-rendering:geometricPrecision; image-rendering:optimizeQuality; fill-rule:evenodd; clip-rule:evenodd" xmlns:xlink="http://www.w3.org/1999/xlink">
<g><path style="opacity:0.994" fill="#243e53" d="M 965.5,245.5 C 965.5,270.833 965.5,296.167 965.5,321.5C 907.823,254.652 850.656,187.318 794,119.5C 742.509,64.0059 679.675,44.5059 605.5,61C 535.859,82.3072 491.692,128.14 473,198.5C 461.081,255.92 472.748,307.92 508,354.5C 660.365,534.358 812.865,714.025 965.5,893.5C 965.5,918.833 965.5,944.167 965.5,969.5C 798.531,773.025 631.698,576.358 465,379.5C 415.169,307.062 406.169,229.729 438,147.5C 473.322,71.5252 532.156,25.3585 614.5,9C 698.675,-2.72278 769.841,22.1106 828,83.5C 873.614,137.757 919.447,191.757 965.5,245.5 Z"/></g>
<g><path style="opacity:0.987" fill="#3a536b" d="M 965.5,333.5 C 965.5,358.833 965.5,384.167 965.5,409.5C 892.21,324.276 819.377,238.61 747,152.5C 707.38,114.907 661.546,104.74 609.5,122C 563.608,141.592 536.775,176.092 529,225.5C 525.414,261.394 534.747,293.394 557,321.5C 693.406,481.731 829.573,642.064 965.5,802.5C 965.5,827.833 965.5,853.167 965.5,878.5C 814.489,701.652 663.989,524.318 514,346.5C 477.341,293.903 469.674,237.237 491,176.5C 513.451,123.34 552.284,88.1735 607.5,71C 678.74,54.0934 739.24,72.26 789,125.5C 847.698,195.025 906.531,264.358 965.5,333.5 Z"/></g>
<g><path style="opacity:0.993" fill="#c66c2b" d="M 965.5,427.5 C 965.5,452.833 965.5,478.167 965.5,503.5C 879.447,402.423 793.614,301.09 708,199.5C 682.996,174.213 654.496,169.38 622.5,185C 592.914,205.42 583.414,232.92 594,267.5C 597.541,275.03 601.874,282.03 607,288.5C 726.365,429.358 845.865,570.025 965.5,710.5C 965.5,735.833 965.5,761.167 965.5,786.5C 831.865,629.358 698.365,472.025 565,314.5C 535.485,272.216 532.818,228.216 557,182.5C 584.251,141.626 622.417,123.46 671.5,128C 701.281,132.472 726.114,145.972 746,168.5C 819.031,255.025 892.198,341.358 965.5,427.5 Z"/></g>
</svg>
