<svg width="245" height="92" viewBox="0 0 245 92" fill="none" xmlns="http://www.w3.org/2000/svg">
<path fill-rule="evenodd" clip-rule="evenodd" d="M133.748 0.0420566C133.018 0.225674 132.854 0.466854 131.801 2.90526C130.839 5.13101 130.684 5.38734 130.157 5.6142C129.999 5.68234 129.566 5.79598 129.194 5.86667C128.585 5.98221 127.614 6.18169 126.005 6.52177C125.23 6.68573 124.439 6.74965 123.981 6.68555C123.318 6.59282 123.108 6.44609 121.846 5.19499C120.613 3.97157 120.146 3.61294 119.543 3.42481C118.41 3.07177 117.31 3.45125 115.413 4.84944C114.826 5.28219 114.039 5.83744 113.664 6.08343C110.384 8.23403 108.671 9.43387 108.347 9.80527C108.074 10.12 107.803 10.6929 107.736 11.0976C107.624 11.7821 107.804 12.4665 108.505 14.0298C109.119 15.3971 109.187 15.635 109.187 16.4059C109.187 17.033 109.179 17.0749 108.986 17.4455C108.782 17.8373 108.465 18.3297 107.587 19.6137C107.319 20.0058 106.905 20.6607 106.666 21.0691C106.428 21.4775 106.166 21.9003 106.084 22.0087C105.707 22.5084 105.12 22.6123 102.368 22.665C100.44 22.702 100.274 22.7135 100.024 22.8284C99.5757 23.0346 99.3253 23.4048 99.0569 24.2582C98.8361 24.9603 98.7975 25.1397 97.8897 29.6721C96.8336 34.9453 96.7652 35.4376 96.9753 36.2492C97.185 37.0589 97.614 37.3819 99.6207 38.2404C100.996 38.8285 101.365 39.0424 101.875 39.5446C102.68 40.3373 102.88 40.915 103.344 43.7911C103.61 45.4357 103.623 45.6923 103.475 46.2612C103.283 46.9973 102.886 47.502 101.525 48.7398C100.845 49.3582 100.437 49.8728 100.223 50.381C99.9478 51.0348 100.036 51.4953 100.678 52.7611C101.545 54.469 102.88 56.5507 104.943 59.4136C105.832 60.6472 106.475 61.4624 106.927 61.9261C107.337 62.3478 107.633 62.4737 108.217 62.4737C108.864 62.4737 109.324 62.3181 111.093 61.5022C112.09 61.0418 112.601 60.9091 113.255 60.9404C113.723 60.9629 113.816 60.9887 114.255 61.218C115.169 61.6956 116.464 62.5224 117.281 63.1493C118.233 63.8802 118.883 64.5666 119.187 65.1643C119.404 65.5897 119.487 66.6059 119.443 68.2975C119.399 69.9801 119.412 70.0657 119.768 70.4302C120.267 70.9424 121.801 71.3883 125.374 72.0608C126.157 72.2081 127.786 72.5162 128.995 72.7456C131.602 73.2403 132.089 73.3038 132.656 73.2232C133.751 73.0676 134.179 72.5784 134.859 70.7011C135.265 69.5809 135.739 68.646 136.043 68.3654C136.901 67.5727 139.192 66.8204 141.51 66.5704C142.023 66.5152 142.218 66.5152 142.385 66.5703C143.048 66.7895 144.423 68.1949 145.902 70.1665C146.516 70.9833 147.499 72.2798 148.088 73.0475C149.069 74.3254 150.122 75.7108 155.044 82.1958C159.291 87.7908 160.588 89.4524 161.033 89.8691C163.71 92.3741 167.722 92.7064 170.764 90.6754C172.528 89.4974 173.7 87.7635 174.175 85.6262C174.304 85.0488 174.356 83.4376 174.267 82.7716C174.189 82.1846 173.983 81.4294 173.722 80.7701C173.354 79.8429 173.26 79.7108 168.991 74.1168C168.256 73.153 167.109 71.6426 166.442 70.7605C165.775 69.8783 165.092 68.9828 164.924 68.7705C164.061 67.6801 161.484 64.2383 160.921 63.4232C158.496 59.9126 157.422 57.7674 157.565 56.7216C157.625 56.2791 158.327 54.964 159.22 53.6225C160.457 51.7616 161.389 50.943 162.474 50.7629C162.68 50.7288 163.662 50.6964 164.657 50.6909C166.255 50.6821 166.493 50.6685 166.702 50.5743C167.527 50.2037 167.886 49.2244 168.653 45.2465C168.832 44.3154 169.186 42.4842 169.439 41.1774C169.878 38.9041 169.898 38.7639 169.901 37.9398C169.904 37.1002 169.9 37.0698 169.729 36.7309C169.404 36.0885 168.909 35.7673 167.473 35.2683C166.362 34.8821 165.623 34.5342 165.148 34.1731C164.839 33.9387 164.741 33.8161 164.543 33.4198C163.841 32.0145 163.261 29.3582 163.302 27.7312C163.321 26.9786 163.335 26.8964 163.492 26.5862C163.76 26.0551 164.107 25.6597 165.09 24.7607C165.596 24.2984 166.11 23.7807 166.232 23.6103C166.741 22.8997 166.881 22.2956 166.701 21.5741C166.505 20.7835 166 19.954 164.01 17.1541C163.003 15.7363 162.435 14.8831 161.931 14.0298C160.906 12.2964 160.352 11.6404 159.6 11.2693C158.659 10.8054 158.006 10.8766 156.168 11.6433C154.463 12.3541 154.272 12.4152 153.747 12.4176C153.07 12.4206 152.731 12.2629 151.049 11.162C147.871 9.08214 147.663 8.91908 147.532 8.40185C147.496 8.26267 147.454 7.41366 147.438 6.51518C147.422 5.6167 147.38 4.65435 147.344 4.37664C147.233 3.5195 146.857 2.89428 146.184 2.44655C145.341 1.88637 144.415 1.65814 141.117 1.19806C140.514 1.11394 139.22 0.874602 138.241 0.666273C135.484 0.0791247 134.27 -0.0894637 133.748 0.0420566ZM239.96 11.2748C238.213 11.4202 236.729 12.7024 236.282 14.4524C236.168 14.9004 236.165 15.161 236.166 26.7072C236.168 39.8986 236.135 38.9204 236.605 39.8705C237.354 41.3828 238.679 42.2135 240.346 42.2155C242.318 42.2178 243.984 40.9345 244.509 39.0091C244.609 38.6451 244.615 37.9397 244.615 26.7125C244.615 15.3745 244.61 14.7837 244.507 14.4211C244.306 13.7103 243.801 12.8514 243.332 12.4214C242.369 11.5391 241.271 11.1657 239.96 11.2748ZM131.749 14.5755C128.838 14.7943 125.75 15.6367 123.24 16.8963C120.799 18.1212 118.876 19.5196 117.04 21.4038C115.424 23.0626 114.32 24.6185 113.278 26.7056C112.15 28.9642 111.499 31.1785 111.162 33.9004C111.04 34.8858 111.061 38.358 111.195 39.3358C111.631 42.5156 112.625 45.3827 114.237 48.1123C115.857 50.856 118.182 53.3329 120.74 55.0431C123.968 57.2005 127.583 58.4384 131.524 58.736C132.682 58.8235 135.071 58.7772 136.051 58.6483C141.215 57.9691 146.312 55.2228 149.789 51.2463C153.034 47.5342 154.838 43.2059 155.235 38.1775C155.318 37.1183 155.272 35.037 155.142 34.0192C154.708 30.6183 153.418 27.1574 151.534 24.3364C149.307 21.0018 146.498 18.5033 143.013 16.756C140.638 15.5652 137.91 14.8201 135.105 14.5958C134.404 14.5398 132.386 14.5276 131.749 14.5755ZM131.689 21.4297C128.708 21.7257 125.798 22.8715 123.418 24.6858C122.613 25.2995 121.156 26.7709 120.527 27.605C118.842 29.8412 117.807 32.389 117.45 35.1776C117.325 36.1499 117.356 38.3378 117.509 39.3358C118.321 44.6408 121.809 49.1267 126.738 51.206C129.116 52.2091 131.288 52.6178 133.794 52.5338C136.214 52.4526 138.366 51.9135 140.478 50.8587C141.659 50.2693 142.746 49.4776 143.816 48.4281C145.026 47.2412 145.521 46.1832 145.526 44.7713C145.531 43.4222 144.998 42.4163 143.792 41.5008C142.913 40.833 142.137 40.5855 141.058 40.6288C139.956 40.6728 139.289 40.9713 137.726 42.1185C136.329 43.1441 135.673 43.4984 134.699 43.7538C133.702 44.015 132.421 44.0514 131.438 43.8465C129.839 43.5135 128.198 42.3181 127.108 40.693C125.688 38.5765 125.474 36.4038 126.476 34.2629C127.256 32.5946 128.547 31.2636 130.118 30.5091C131.216 29.9815 132.314 29.7921 133.578 29.9122C135.116 30.0585 136.087 30.4657 137.657 31.6236C138.965 32.5871 139.572 32.9222 140.395 33.1329C141.445 33.4022 142.564 33.1831 143.548 32.5153C144.896 31.6009 145.533 30.4857 145.523 29.059C145.512 27.6593 145.031 26.5901 143.906 25.4635C141.778 23.3337 139.113 22.0596 135.692 21.5371C134.793 21.3998 132.586 21.3407 131.689 21.4297ZM189.071 22.3163C185.826 22.5695 182.804 23.7913 180.378 25.8304C178.479 27.427 177.229 29.0385 176.123 31.3163C174.755 34.1337 174.325 37.2646 174.862 40.4942C175.311 43.1941 176.737 46.1104 178.639 48.2167C180.767 50.574 183.484 52.2394 186.439 52.9975C187.654 53.3092 188.319 53.3943 189.797 53.4269C191.302 53.4601 191.979 53.3931 193.231 53.0868C194.427 52.7941 196.003 52.1235 197.193 51.4004C197.494 51.2176 197.763 51.0681 197.791 51.0681C197.819 51.0681 197.926 51.1981 198.028 51.3569C198.32 51.8073 198.962 52.3762 199.463 52.6272C200.103 52.9479 200.56 53.052 201.33 53.052C202.078 53.052 202.531 52.9524 203.179 52.6455C204.277 52.126 205.049 51.261 205.473 50.0737L205.659 49.5533V42.9892C205.659 36.9425 205.65 36.3712 205.551 35.7419C205.269 33.9482 204.874 32.6489 204.15 31.1352C201.848 26.321 197.206 22.9879 191.962 22.3831C191.169 22.2916 189.794 22.2599 189.071 22.3163ZM225.908 22.7373C222.188 23.1021 218.742 24.7472 216.03 27.4532C213.362 30.1145 211.843 33.1361 211.28 36.9003C211.182 37.5504 211.173 38.1412 211.173 43.6129V49.6127L211.334 50.0892C211.64 50.9911 212.182 51.7192 212.939 52.2431C214.621 53.4083 216.696 53.3273 218.209 52.0374C218.778 51.5519 219.112 51.0571 219.423 50.2365L219.592 49.7909L219.629 43.9396C219.652 40.2818 219.689 37.977 219.727 37.7913C220.094 36.0209 220.726 34.7718 221.844 33.6117C222.502 32.9289 223.177 32.4333 224.003 32.0263C225.177 31.4484 225.916 31.2675 227.485 31.1739C228.257 31.1278 228.53 31.0868 228.908 30.9598C230.261 30.5053 231.281 29.503 231.72 28.1976C231.815 27.914 231.857 27.6143 231.878 27.0689C231.915 26.1388 231.818 25.6408 231.455 24.8872C230.968 23.8751 230.091 23.1591 228.961 22.8494C228.579 22.7447 228.29 22.7157 227.479 22.7007C226.924 22.6904 226.217 22.7069 225.908 22.7373ZM188.994 30.8982C187.414 31.1858 185.889 32.068 184.863 33.2876C184.099 34.1972 183.534 35.3407 183.298 36.4547C183.169 37.0637 183.153 38.5393 183.269 39.1279C183.979 42.7406 187.245 45.2282 190.831 44.8878C193.385 44.6454 195.435 43.1767 196.55 40.7909C197.82 38.0746 197.183 34.821 194.966 32.6991C194.008 31.7823 192.714 31.1267 191.413 30.8995C190.805 30.7933 189.574 30.7927 188.994 30.8982ZM239.473 44.358C238.529 44.5904 237.623 45.1931 237.006 45.9974C236.732 46.3552 236.422 47.0445 236.278 47.6181C236.102 48.3153 236.138 49.3389 236.363 50.0298C236.89 51.6521 238.269 52.794 239.991 53.0353C242.088 53.3293 244.224 51.8449 244.767 49.7152C244.907 49.1667 244.918 48.2319 244.791 47.6921C244.409 46.069 242.997 44.6631 241.411 44.3264C240.847 44.2068 240.033 44.2201 239.473 44.358Z" fill="#315C32"/>
<path fill-rule="evenodd" clip-rule="evenodd" d="M4.13023 11.1086C2.8669 11.441 1.89465 12.2076 1.3568 13.2955C0.834728 14.3514 0.880927 13.0398 0.880927 26.8084C0.880927 40.1617 0.860664 39.2991 1.21129 40.8923C1.81856 43.6519 3.35004 46.4037 5.42628 48.466C8.93529 51.9516 13.7535 53.5425 18.6492 52.832C20.2937 52.5934 21.5891 52.1899 23.1534 51.4291C27.8301 49.1544 31.0838 44.6184 31.7208 39.4847C31.8286 38.6159 31.8443 36.7677 31.751 35.9336C31.5497 34.1333 31.0771 32.5392 30.2461 30.8575C27.1366 24.5653 20.2896 21.1628 13.435 22.5037C12.2515 22.7352 10.631 23.2673 9.72369 23.7222C9.45648 23.8563 9.34854 23.8861 9.32846 23.8317C9.31321 23.7906 9.29342 21.6575 9.28438 19.0916C9.26595 13.8558 9.29342 14.197 8.81259 13.2233C8.45499 12.4992 7.77003 11.8286 6.99552 11.4443C6.68447 11.29 6.24995 11.1278 6.02073 11.0807C5.45086 10.9632 4.63718 10.9753 4.13023 11.1086ZM79.165 22.2674C76.9228 22.4383 74.8333 23.1341 73.1335 24.276C72.4177 24.7568 71.3377 25.8342 70.8693 26.5347C69.7419 28.2206 69.2164 30.2693 69.3843 32.3234C69.4892 33.6066 69.8019 34.5334 70.4787 35.5662C71.597 37.2728 73.0271 38.3926 75.7625 39.7035C77.6125 40.5901 78.0621 40.7814 79.2511 41.1879C82.0876 42.1574 83.3025 42.8095 83.4187 43.4246C83.5653 44.2004 82.5114 44.8152 80.9023 44.8929C79.1469 44.9776 77.3231 44.266 75.7625 42.8873C74.579 41.8418 73.3438 41.3297 71.9815 41.3196C71.2315 41.3141 70.7826 41.4168 70.0961 41.7511C69.197 42.1889 68.5133 43.0409 68.2841 44.0091C68.1402 44.617 68.1958 45.7297 68.4003 46.3355C69.2572 48.8731 71.5366 50.9154 74.7379 52.0138C76.631 52.6634 78.5649 52.9751 80.6955 52.9744C82.4035 52.9739 83.4438 52.8217 84.8961 52.3601C88.3602 51.259 90.9377 48.6403 91.6918 45.4555C91.8113 44.9507 91.8477 44.6121 91.8732 43.7678C91.9345 41.7397 91.5764 40.3471 90.6169 38.883C89.4859 37.157 87.9103 35.9144 85.5104 34.8559C84.0863 34.2279 82.7071 33.7692 80.1073 33.059C79.1626 32.801 78.3158 32.4444 78.0526 32.1939C77.743 31.8993 77.7653 31.3757 78.1032 31.0042C78.5149 30.5515 79.1422 30.3806 80.6069 30.3219C82.1239 30.2612 82.7264 30.3726 84.4906 31.04C86.1044 31.6505 86.3932 31.7305 86.9874 31.7323C87.6282 31.7342 88.0092 31.6421 88.6711 31.3251C89.3045 31.0218 89.7096 30.6815 90.0824 30.1396C91.1462 28.593 90.922 26.4122 89.55 24.9636C88.7843 24.1551 87.7461 23.5619 86.2147 23.0579C84.1527 22.3793 81.5411 22.0864 79.165 22.2674ZM39.1636 22.6469C38.0695 22.9074 37.5492 23.1804 36.888 23.8409C36.3331 24.3953 36.0504 24.8608 35.8163 25.6054L35.678 26.0455V32.706C35.678 38.7112 35.688 39.4315 35.7796 40.0267C36.3125 43.4871 37.7693 46.3416 40.2057 48.6996C42.9692 51.374 46.3868 52.8345 50.2407 52.9879C53.2489 53.1077 56.0857 52.3336 58.5187 50.729C60.1568 49.6487 61.3623 48.4558 62.4403 46.8486C63.9243 44.6358 64.7875 42.2453 65.0679 39.5719C65.1027 39.2408 65.1268 36.4036 65.1274 32.5834C65.1284 26.3769 65.1244 26.1366 65.0122 25.7007C64.7169 24.5539 63.9195 23.5647 62.8835 23.0596C62.2302 22.7412 61.6942 22.6149 60.993 22.614C59.2397 22.6119 57.6177 23.7093 56.9629 25.3408C56.6896 26.0217 56.6845 26.153 56.6823 32.5902C56.6802 38.7749 56.6667 39.2055 56.4484 40.0535C55.7723 42.6794 53.9238 44.3201 51.3723 44.5592C50.0184 44.686 48.8182 44.451 47.5822 43.8171C45.5926 42.7967 44.3929 41.019 44.1577 38.7427C44.1199 38.3766 44.0966 35.8652 44.0966 32.1547C44.0966 26.9816 44.0843 26.1102 44.0068 25.8085C43.6432 24.3924 42.6013 23.2916 41.1722 22.8133C40.7849 22.6837 40.5718 22.6519 39.9907 22.6369C39.6008 22.6269 39.2286 22.6314 39.1636 22.6469ZM14.9415 30.7679C12.1045 31.3787 9.91091 33.6377 9.4127 36.4617C9.30412 37.0771 9.31753 38.2571 9.44017 38.886C9.80935 40.7787 11.0093 42.5028 12.6859 43.5495C15.7029 45.4331 19.7765 44.6902 21.9167 41.8664C24.7564 38.1193 23.2303 32.7119 18.8723 31.0796C18.0352 30.766 17.6589 30.7011 16.5366 30.6767C15.6423 30.6571 15.3888 30.6716 14.9415 30.7679Z" fill="#315C32"/>
</svg>
