<svg width="51" height="51" viewBox="0 0 51 51" fill="none" xmlns="http://www.w3.org/2000/svg">
<path fill-rule="evenodd" clip-rule="evenodd" d="M25.5 51C28.8487 51 32.1646 50.3404 35.2584 49.0589C38.3522 47.7774 41.1633 45.8991 43.5312 43.5312C45.8991 41.1633 47.7774 38.3522 49.0589 35.2584C50.3404 32.1646 51 28.8487 51 25.5C51 22.1513 50.3404 18.8354 49.0589 15.7416C47.7774 12.6478 45.8991 9.83667 43.5312 7.46878C41.1633 5.10088 38.3522 3.22257 35.2584 1.94107C32.1646 0.659577 28.8487 -4.98996e-08 25.5 0C18.737 1.00777e-07 12.251 2.6866 7.46878 7.46878C2.6866 12.251 0 18.737 0 25.5C0 32.263 2.6866 38.749 7.46878 43.5312C12.251 48.3134 18.737 51 25.5 51ZM24.8427 35.8133L39.0093 18.8133L34.6573 15.1867L22.474 29.8038L16.1698 23.4968L12.1635 27.5032L20.6635 36.0032L22.8565 38.1962L24.8427 35.8133Z" fill="#315C32"/>
</svg>
