<svg width="64" height="63" viewBox="0 0 64 63" fill="none" xmlns="http://www.w3.org/2000/svg">
<path d="M63.2371 29.5541C62.4716 32.618 61.0961 35.502 59.1901 38.039C57.2842 40.576 54.8857 42.7155 52.1336 44.3337C49.3835 45.9496 46.3348 47.0119 43.1643 47.459C39.9938 47.9061 36.7646 47.7291 33.6642 46.9382C32.9624 46.7493 32.222 46.7493 31.5203 46.9382C30.8314 47.0892 30.1995 47.4274 29.6964 47.9145L16.0459 61.425C15.5244 61.916 14.9175 62.3107 14.254 62.5902C13.5762 62.8689 12.8477 63.0083 12.1133 62.9996C11.3893 63.0071 10.6715 62.8677 10.0046 62.5902C9.33683 62.3186 8.72845 61.923 8.21268 61.425L1.59862 54.9059C1.08246 54.4064 0.679054 53.8055 0.414677 53.1423C-0.138226 51.7991 -0.138226 50.2969 0.414677 48.9537C0.679054 48.2905 1.08246 47.6896 1.59862 47.1901L15.2843 33.7111C15.7868 33.2293 16.1416 32.6182 16.3083 31.9475C16.5003 31.2893 16.5003 30.5933 16.3083 29.932C15.2103 25.7967 15.2596 21.4472 16.4511 17.3371C17.6426 13.2269 19.9326 9.50667 23.0823 6.56416C26.2062 3.63989 30.0708 1.5951 34.2721 0.643475C38.4991 -0.352976 42.9227 -0.189587 47.0619 1.11587C47.4591 1.22973 47.8191 1.44404 48.106 1.73745C48.3928 2.03086 48.5966 2.39313 48.6969 2.78816C48.7973 3.1832 48.7907 3.59722 48.6779 3.98898C48.565 4.38074 48.3499 4.73656 48.0538 5.021L38.7167 14.2485C37.5862 15.4622 36.9484 17.0426 36.9248 18.689C36.8869 19.41 37.1268 20.1186 37.5968 20.673L43.0973 26.1213C43.5114 26.4188 43.9866 26.6237 44.4895 26.7216C44.9925 26.8195 45.5111 26.8081 46.0091 26.6882C47.3659 26.5049 48.6349 25.9232 49.6506 25.0191L58.9877 15.7916C59.2842 15.5103 59.6468 15.3056 60.0432 15.1957C60.4396 15.0858 60.8575 15.0741 61.2596 15.1617C61.664 15.259 62.0358 15.4582 62.3382 15.7398C62.6406 16.0215 62.8633 16.3758 62.9843 16.7679C64.2454 20.9284 64.3307 25.3479 63.2371 29.5541Z" fill="#D27C2C"/>
</svg>
