<svg width="38" height="39" viewBox="0 0 38 39" fill="none" xmlns="http://www.w3.org/2000/svg">
<path d="M21.7455 35.451C25.8851 31.7119 33.25 24.0727 33.25 17.0625C33.25 13.1837 31.7487 9.46378 29.0763 6.72106C26.4039 3.97834 22.7793 2.4375 19 2.4375C15.2207 2.4375 11.5961 3.97834 8.92373 6.72106C6.25133 9.46378 4.75 13.1837 4.75 17.0625C4.75 24.0727 12.1125 31.7119 16.2545 35.451C17.01 36.1431 17.9873 36.5256 19 36.5256C20.0127 36.5256 20.99 36.1431 21.7455 35.451ZM14.25 17.0625C14.25 15.7696 14.7504 14.5296 15.6412 13.6154C16.532 12.7011 17.7402 12.1875 19 12.1875C20.2598 12.1875 21.468 12.7011 22.3588 13.6154C23.2496 14.5296 23.75 15.7696 23.75 17.0625C23.75 18.3554 23.2496 19.5954 22.3588 20.5096C21.468 21.4239 20.2598 21.9375 19 21.9375C17.7402 21.9375 16.532 21.4239 15.6412 20.5096C14.7504 19.5954 14.25 18.3554 14.25 17.0625Z" fill="#2F5830"/>
</svg>
