<svg width="887" height="832" viewBox="0 0 887 832" fill="none" xmlns="http://www.w3.org/2000/svg">
<path fill-rule="evenodd" clip-rule="evenodd" d="M1046.24 1292.74L1041.7 -20.8583C1041.36 -118.548 961.858 -197.467 864.121 -197.129C766.384 -196.791 687.427 -117.324 687.765 -19.6343L692.308 1293.96C692.646 1391.65 772.151 1470.57 869.887 1470.23C967.624 1469.89 1046.58 1390.43 1046.24 1292.74ZM863.963 -242.835C740.971 -242.41 641.611 -142.409 642.037 -19.4761L646.58 1294.12C647.005 1417.05 747.054 1516.36 870.046 1515.94C993.037 1515.51 1092.4 1415.51 1091.97 1292.58L1087.43 -21.0165C1087 -143.949 986.955 -243.261 863.963 -242.835Z" fill="#253F54"/>
<path fill-rule="evenodd" clip-rule="evenodd" d="M991.852 1291.12L987.322 -18.8631C987.089 -86.0581 932.411 -140.342 865.195 -140.109C797.978 -139.877 743.677 -85.2163 743.909 -18.0213L748.44 1291.96C748.672 1359.16 803.35 1413.44 870.567 1413.21C937.783 1412.97 992.084 1358.31 991.852 1291.12ZM865.036 -185.849C772.551 -185.529 697.835 -110.319 698.155 -17.863L702.685 1292.12C703.005 1384.57 778.239 1459.27 870.725 1458.95C963.211 1458.63 1037.93 1383.42 1037.61 1290.96L1033.08 -19.0213C1032.76 -111.478 957.522 -186.169 865.036 -185.849Z" fill="#3B546C"/>
<path fill-rule="evenodd" clip-rule="evenodd" d="M934.266 1289.38L929.752 -15.8533C929.628 -51.6945 900.621 -80.6496 864.963 -80.5262C829.305 -80.4029 800.499 -51.2479 800.623 -15.4067L805.137 1289.83C805.261 1325.67 834.268 1354.63 869.926 1354.5C905.584 1354.38 934.39 1325.23 934.266 1289.38ZM864.805 -126.228C804.036 -126.018 754.943 -76.3309 755.155 -15.2494L759.669 1289.99C759.88 1351.07 809.315 1400.42 870.084 1400.2C930.854 1399.99 979.946 1350.31 979.735 1289.23L975.221 -16.0105C975.009 -77.092 925.575 -126.438 864.805 -126.228Z" fill="#C66D2C"/>
</svg>
