<svg width="83" height="32" viewBox="0 0 83 32" fill="none" xmlns="http://www.w3.org/2000/svg">
<path fill-rule="evenodd" clip-rule="evenodd" d="M44.082 1.00501C44.4368 0.161497 44.492 0.0780664 44.7378 0.0145484C44.9138 -0.0309478 45.3225 0.0273712 46.2511 0.230481C46.5806 0.302547 47.0165 0.38534 47.2197 0.414438C48.3304 0.573593 48.6423 0.652543 48.926 0.846323C49.1528 1.0012 49.2794 1.21749 49.3168 1.51399C49.3289 1.61006 49.3433 1.94296 49.3487 2.25377C49.3541 2.56458 49.3682 2.85827 49.3801 2.90641C49.4242 3.08534 49.4942 3.14174 50.5646 3.86122C51.1312 4.24204 51.2454 4.29662 51.4732 4.29557C51.6502 4.29475 51.7145 4.2736 52.2886 4.02773C52.9079 3.76248 53.1278 3.73786 53.4445 3.89833C53.6979 4.0267 53.8845 4.25363 54.2295 4.85326C54.3994 5.14843 54.5907 5.4436 54.93 5.93405C55.6 6.9026 55.7701 7.18955 55.8363 7.46302C55.8967 7.71261 55.8498 7.9216 55.6782 8.16741C55.637 8.22637 55.464 8.40543 55.2936 8.56535C54.9624 8.87634 54.8458 9.01312 54.7553 9.19683C54.7025 9.30416 54.6979 9.33258 54.6915 9.59292C54.6777 10.1557 54.8728 11.0746 55.1092 11.5608C55.1759 11.6978 55.2091 11.7403 55.3131 11.8213C55.4733 11.9463 55.722 12.0666 56.0963 12.2002C56.5797 12.3728 56.7466 12.4839 56.8559 12.7061C56.9135 12.8234 56.915 12.8339 56.914 13.1244C56.913 13.4094 56.9062 13.4579 56.7582 14.2443L56.4935 15.6519C56.2352 17.028 56.1144 17.3667 55.8367 17.4949C55.7661 17.5275 55.6858 17.5322 55.1477 17.5353C54.8127 17.5372 54.4819 17.5484 54.4126 17.5602C54.0471 17.6225 53.7333 17.9056 53.3165 18.5494C53.016 19.0135 52.7795 19.4684 52.7591 19.6215C52.7109 19.9832 53.0727 20.7253 53.8894 21.9397C54.079 22.2216 54.9469 23.4123 55.2378 23.7895C55.2944 23.8629 55.5245 24.1727 55.749 24.4779C55.9735 24.783 56.3598 25.3055 56.6075 25.6389C58.0452 27.574 58.0768 27.6197 58.2007 27.9404C58.2889 28.1685 58.3582 28.4298 58.3844 28.6328C58.4142 28.8632 58.3968 29.4205 58.3535 29.6203C58.1934 30.3596 57.7988 30.9594 57.2046 31.3669C56.18 32.0695 54.8288 31.9545 53.9273 31.088C53.7774 30.9439 53.3406 30.3691 51.9103 28.4336C50.2525 26.1903 49.8977 25.711 49.5675 25.269C49.3691 25.0034 49.0379 24.5549 48.8314 24.2724C48.333 23.5904 47.87 23.1042 47.6468 23.0284C47.5906 23.0093 47.5247 23.0093 47.3521 23.0284C46.5715 23.1149 45.7997 23.3751 45.5106 23.6493C45.4083 23.7464 45.2487 24.0698 45.112 24.4573C44.8828 25.1067 44.739 25.2759 44.3701 25.3298C44.1791 25.3576 44.0151 25.3357 43.1371 25.1646C42.73 25.0852 42.1813 24.9786 41.9177 24.9277C40.714 24.695 40.1976 24.5408 40.0293 24.3636C39.9096 24.2375 39.9052 24.2079 39.9199 23.6258C39.9347 23.0407 39.9068 22.6892 39.8338 22.542C39.7313 22.3352 39.5126 22.0978 39.1918 21.8449C38.9166 21.6281 38.4804 21.3421 38.1727 21.1769C38.025 21.0976 37.9937 21.0886 37.8358 21.0808C37.6156 21.07 37.4437 21.1159 37.1077 21.2752C36.5121 21.5574 36.357 21.6112 36.139 21.6112C35.9426 21.6112 35.8427 21.5677 35.7045 21.4218C35.5526 21.2614 35.3358 20.9794 35.0364 20.5527C34.3415 19.5623 33.8921 18.8422 33.6002 18.2514C33.3838 17.8135 33.3541 17.6542 33.4468 17.4281C33.5189 17.2523 33.6564 17.0743 33.8854 16.8603C34.3438 16.4322 34.4775 16.2576 34.5421 16.0029C34.5921 15.8061 34.5875 15.7174 34.498 15.1485C34.3416 14.1535 34.2743 13.9537 34.0032 13.6795C33.8315 13.5058 33.707 13.4318 33.244 13.2283C32.5681 12.9313 32.4236 12.8196 32.353 12.5395C32.2822 12.2588 32.3053 12.0885 32.661 10.2643C32.9667 8.69647 32.9797 8.63439 33.0541 8.39152C33.1445 8.09631 33.2288 7.96827 33.3799 7.89692C33.464 7.85718 33.5197 7.85319 34.1693 7.84041C35.096 7.82216 35.2939 7.78624 35.4208 7.61336C35.4483 7.57588 35.5365 7.42963 35.6168 7.28835C35.6971 7.14707 35.8367 6.92052 35.9269 6.78489C36.2225 6.3407 36.3296 6.17038 36.3982 6.03484C36.4632 5.90665 36.4659 5.89215 36.4659 5.67523C36.4659 5.40856 36.4429 5.32624 36.2363 4.85326C36 4.31248 35.9395 4.07571 35.9773 3.83894C35.9996 3.69894 36.0909 3.50076 36.1831 3.39189C36.2919 3.26342 36.8691 2.84836 37.9736 2.10441C38.0999 2.01932 38.365 1.82725 38.5627 1.67754C39.2015 1.19387 39.572 1.0626 39.9535 1.18473C40.1569 1.24981 40.3141 1.37387 40.7295 1.79708C41.1542 2.22987 41.225 2.28062 41.4484 2.3127C41.6028 2.33487 41.8689 2.31276 42.1302 2.25605C42.6721 2.1384 42.999 2.0694 43.2039 2.02943C43.3292 2.00498 43.4753 1.96567 43.5285 1.9421C43.7058 1.86362 43.7582 1.77495 44.082 1.00501ZM79.2707 4.99944C79.4212 4.39408 79.921 3.95054 80.5094 3.90024C80.9509 3.86249 81.3208 3.99168 81.6449 4.29686C81.8029 4.44562 81.9729 4.74274 82.0407 4.98861C82.0753 5.11407 82.077 5.31843 82.077 9.24054C82.077 13.1243 82.075 13.3683 82.0416 13.4942C81.8646 14.1603 81.3034 14.6042 80.6392 14.6034C80.078 14.6027 79.6317 14.3154 79.3795 13.7922C79.3586 13.7488 79.3406 13.7171 79.3252 13.6841C79.2238 13.4675 79.232 13.1995 79.2317 9.23869C79.2313 5.24458 79.2322 5.15443 79.2707 4.99944ZM41.1987 5.84486C42.0441 5.40913 43.0843 5.11773 44.0644 5.04204C44.2792 5.02546 44.9587 5.02967 45.1948 5.04907C46.1397 5.12666 47.0583 5.38439 47.8582 5.79633C49.0319 6.40076 49.9778 7.26507 50.728 8.41856C51.3626 9.39443 51.797 10.5916 51.9432 11.7681C51.987 12.1202 52.0026 12.8402 51.9744 13.2066C51.8408 14.946 51.2333 16.4433 50.1403 17.7274C48.9694 19.103 47.2527 20.053 45.5134 20.2879C45.1835 20.3325 44.3787 20.3485 43.9886 20.3183C42.6614 20.2153 41.444 19.7871 40.3569 19.0408C39.4951 18.4492 38.7124 17.5924 38.1667 16.6433C37.6237 15.699 37.289 14.7072 37.1422 13.6073C37.097 13.269 37.0898 12.0679 37.1309 11.727C37.2445 10.7855 37.4638 10.0194 37.8437 9.23815C38.1947 8.51617 38.5666 7.97794 39.1108 7.4041C39.7289 6.75234 40.3767 6.26857 41.1987 5.84486ZM41.2587 8.53943C42.0602 7.91184 43.0405 7.51548 44.0444 7.41308C44.3466 7.38228 45.0898 7.40275 45.3924 7.45022C46.5447 7.63099 47.4424 8.07173 48.1589 8.80847C48.5379 9.1982 48.6999 9.56807 48.7034 10.0522C48.707 10.5458 48.4925 10.9315 48.0384 11.2479C47.7069 11.4789 47.3302 11.5547 46.9764 11.4615C46.6994 11.3886 46.4947 11.2727 46.0545 10.9394C45.5255 10.5389 45.1986 10.398 44.6805 10.3474C44.255 10.3058 43.8851 10.3714 43.5152 10.5539C42.9863 10.8149 42.5514 11.2753 42.2886 11.8524C41.9513 12.593 42.0232 13.3446 42.5014 14.0767C42.8686 14.6389 43.4214 15.0524 43.9597 15.1676C44.2909 15.2385 44.7225 15.2259 45.058 15.1356C45.3862 15.0472 45.6071 14.9246 46.0776 14.5699C46.604 14.173 46.8288 14.0698 47.1997 14.0545C47.5631 14.0396 47.8245 14.1252 48.1206 14.3562C48.5267 14.6729 48.7063 15.0208 48.7047 15.4875C48.703 15.9759 48.5363 16.3419 48.1287 16.7525C47.7682 17.1155 47.402 17.3894 47.0045 17.5933C46.293 17.9582 45.5685 18.1447 44.7534 18.1728C43.9093 18.2018 43.1779 18.0605 42.377 17.7135C40.7167 16.9942 39.542 15.4424 39.2686 13.6073C39.2171 13.262 39.2066 12.5052 39.2486 12.1688C39.369 11.2042 39.7177 10.3228 40.2852 9.54929C40.4968 9.26073 40.9875 8.75173 41.2587 8.53943ZM60.4427 8.9354C61.2595 8.23 62.2773 7.80736 63.3701 7.71978C63.6138 7.70026 64.0767 7.71123 64.3438 7.74288C66.1102 7.95211 67.6734 9.10509 68.4488 10.7705C68.6925 11.2941 68.8256 11.7435 68.9207 12.364C68.954 12.5817 68.9568 12.7793 68.9568 14.871V17.1417L68.8942 17.3218C68.7514 17.7325 68.4917 18.0317 68.1218 18.2114C67.9033 18.3176 67.7508 18.352 67.499 18.352C67.2398 18.352 67.0857 18.316 66.8702 18.2051C66.7015 18.1183 66.4851 17.9215 66.387 17.7657C66.3524 17.7107 66.3164 17.6658 66.3069 17.6658C66.2975 17.6658 66.2069 17.7175 66.1056 17.7807C65.7048 18.0309 65.1742 18.2628 64.7713 18.3641C64.3497 18.47 64.1216 18.4932 63.6149 18.4817C63.1171 18.4704 62.8929 18.441 62.4838 18.3332C61.4887 18.0709 60.5736 17.4948 59.8568 16.6794C59.2163 15.9508 58.7359 14.9419 58.5847 14.008C58.4039 12.8908 58.5488 11.8077 59.0095 10.8331C59.3821 10.0452 59.803 9.4877 60.4427 8.9354ZM72.4498 9.49676C73.3633 8.56068 74.5239 7.99159 75.7766 7.86542C75.8809 7.85489 76.119 7.8492 76.3058 7.85274C76.579 7.85794 76.6764 7.86796 76.805 7.90417C77.1856 8.01132 77.4808 8.25902 77.645 8.60912C77.7673 8.86981 77.7998 9.04209 77.7875 9.36383C77.7803 9.55247 77.7661 9.65617 77.734 9.75427C77.5865 10.2058 77.2429 10.5526 76.7872 10.7098C76.6599 10.7537 76.568 10.7679 76.308 10.7839C75.7794 10.8162 75.5305 10.8788 75.1352 11.0787C74.8568 11.2195 74.6295 11.391 74.4079 11.6271C74.0316 12.0284 73.8185 12.4605 73.6951 13.073C73.6822 13.1372 73.6697 13.9345 73.6619 15.1998L73.6494 17.2239L73.5926 17.3781C73.4878 17.6619 73.3755 17.8331 73.1837 18.0011C72.6741 18.4473 71.9753 18.4753 71.4087 18.0722C71.1539 17.891 70.9712 17.6391 70.8684 17.3271L70.814 17.1623V15.0868C70.814 13.194 70.8172 12.9896 70.85 12.7647C71.0396 11.4626 71.5513 10.4174 72.4498 9.49676ZM61.9532 11.515C62.2984 11.0931 62.812 10.788 63.3443 10.6885C63.5395 10.652 63.9543 10.6522 64.1589 10.6889C64.597 10.7675 65.0329 10.9943 65.3555 11.3114C66.1022 12.0455 66.3167 13.171 65.8892 14.1106C65.5136 14.9359 64.8231 15.444 63.9628 15.5278C62.7552 15.6456 61.6553 14.7851 61.4161 13.5353C61.3771 13.3317 61.3826 12.8213 61.426 12.6106C61.5053 12.2253 61.6956 11.8297 61.9532 11.515ZM79.5146 15.9117C79.7221 15.6334 80.0275 15.425 80.3453 15.3446C80.5339 15.2969 80.8082 15.2922 80.9981 15.3336C81.5323 15.4501 82.0079 15.9365 82.1365 16.4979C82.1793 16.6847 82.1755 17.008 82.1284 17.1978C81.9453 17.9345 81.2261 18.4479 80.5196 18.3463C79.9397 18.2628 79.4755 17.8678 79.2978 17.3066C79.2222 17.0676 79.2101 16.7135 79.2692 16.4723C79.3179 16.2739 79.4223 16.0355 79.5146 15.9117ZM0.16121 4.57035C0.343016 4.1894 0.67166 3.92095 1.0987 3.80458C1.27006 3.75787 1.5451 3.75365 1.73773 3.79477C1.81521 3.8113 1.96209 3.86807 2.06723 3.92212C2.32904 4.05668 2.56057 4.29151 2.68145 4.54509C2.71589 4.61735 2.74262 4.66892 2.76341 4.72279C2.84074 4.92311 2.83602 5.15511 2.84093 6.60002C2.84398 7.49854 2.85067 8.24549 2.85582 8.2599C2.86261 8.27894 2.8991 8.26848 2.98942 8.22155C3.29612 8.06225 3.84389 7.87593 4.24395 7.79486C6.56095 7.32529 8.87542 8.51676 9.92649 10.7202C10.2074 11.309 10.3672 11.8673 10.4352 12.4977C10.4667 12.7897 10.4614 13.437 10.425 13.7412C10.2096 15.5389 9.10985 17.1273 7.52899 17.9238C7.00021 18.1903 6.56233 18.3315 6.00647 18.4151C4.35161 18.6639 2.72292 18.1068 1.53679 16.8862C0.834974 16.164 0.317295 15.2004 0.112025 14.2341C0.0941501 14.15 0.0791271 14.0854 0.0665021 14.0203C-0.00458632 13.6541 0.000353105 13.2731 0.000353105 9.30226C0.000353105 5.19618 -0.010973 4.92007 0.0946667 4.70014C0.113071 4.66182 0.135027 4.62521 0.16121 4.57035ZM24.4235 8.41545C24.9981 8.0156 25.7044 7.77195 26.4623 7.71211C27.2655 7.64872 28.1483 7.75128 28.8453 7.98893C29.3629 8.16541 29.7139 8.37314 29.9727 8.65625C30.4364 9.16351 30.5122 9.92719 30.1526 10.4688C30.0266 10.6585 29.8897 10.7777 29.6756 10.8839C29.4518 10.9949 29.323 11.0272 29.1064 11.0265C28.9056 11.0259 28.808 10.9978 28.2625 10.784C27.6661 10.5503 27.4625 10.5113 26.9497 10.5326C26.4546 10.5531 26.2425 10.613 26.1034 10.7715C25.9891 10.9016 25.9816 11.085 26.0862 11.1881C26.1752 11.2759 26.4615 11.4007 26.7808 11.4911C27.6596 11.7398 28.1258 11.9004 28.6072 12.1203C29.4184 12.491 29.951 12.9261 30.3333 13.5305C30.6576 14.0432 30.7787 14.5308 30.758 15.241C30.7494 15.5367 30.737 15.6553 30.6967 15.832C30.4417 16.9473 29.5705 17.8643 28.3995 18.2498C27.9086 18.4115 27.557 18.4648 26.9796 18.465C26.2594 18.4652 25.6057 18.356 24.9658 18.1286C23.8837 17.744 23.1132 17.0288 22.8235 16.1402C22.7544 15.928 22.7356 15.5384 22.7843 15.3255C22.8618 14.9865 23.0929 14.6881 23.3968 14.5348C23.6288 14.4178 23.7806 14.3818 24.0341 14.3837C24.4946 14.3873 24.9121 14.5666 25.3122 14.9327C25.8397 15.4155 26.4562 15.6647 27.0495 15.635C27.5935 15.6078 27.9497 15.3925 27.9002 15.1209C27.8609 14.9055 27.4502 14.6771 26.4914 14.3376C26.0895 14.1953 25.9375 14.1283 25.3122 13.8178C24.3875 13.3588 23.9041 12.9666 23.5261 12.369C23.2973 12.0074 23.1916 11.6828 23.1562 11.2335C23.0994 10.5142 23.277 9.79678 23.6581 9.20642C23.8165 8.9611 24.1815 8.58383 24.4235 8.41545ZM12.1716 8.26312C12.3951 8.03182 12.571 7.9362 12.9408 7.84498C12.9628 7.83956 13.0886 7.838 13.2204 7.84151C13.4168 7.84673 13.4889 7.85787 13.6198 7.90326C14.1029 8.07074 14.455 8.45624 14.578 8.9521C14.6041 9.05776 14.6083 9.36292 14.6083 11.1744C14.6083 12.4737 14.6162 13.3532 14.629 13.4814C14.7085 14.2785 15.114 14.901 15.7865 15.2583C16.2043 15.4803 16.61 15.5625 17.0677 15.5181C17.9301 15.4344 18.555 14.8599 18.7835 13.9404C18.8573 13.6434 18.8619 13.4926 18.8626 11.3269C18.8633 9.07274 18.865 9.02678 18.9574 8.78832C19.1788 8.21703 19.727 7.83274 20.3197 7.83348C20.5567 7.83378 20.7379 7.87803 20.9587 7.98953C21.3089 8.16638 21.5785 8.51279 21.6783 8.91435C21.7162 9.06699 21.7176 9.15116 21.7172 11.3245C21.717 12.6623 21.7089 13.6558 21.6971 13.7717C21.6023 14.7079 21.3106 15.545 20.8089 16.3199C20.4445 16.8827 20.037 17.3004 19.4833 17.6787C18.6609 18.2406 17.702 18.5116 16.6852 18.4697C15.3824 18.416 14.2272 17.9045 13.2931 16.968C12.4695 16.1423 11.9771 15.1427 11.797 13.931C11.766 13.7226 11.7626 13.4703 11.7626 11.3675V9.03512L11.8094 8.881C11.8885 8.62025 11.9841 8.45725 12.1716 8.26312ZM2.8843 12.6826C3.05271 11.6937 3.79419 10.9027 4.75318 10.6888C4.90435 10.6551 4.99004 10.65 5.29237 10.6568C5.67171 10.6654 5.79892 10.6881 6.08188 10.7979C7.55499 11.3695 8.07085 13.2631 7.11094 14.5752C6.38753 15.564 5.01053 15.8242 3.99073 15.1646C3.42401 14.7981 3.01838 14.1943 2.89359 13.5316C2.85213 13.3113 2.8476 12.8981 2.8843 12.6826Z" fill="#B7B6B3"/>
</svg>
