<svg width="378" height="158" viewBox="0 0 378 158" fill="none" xmlns="http://www.w3.org/2000/svg">
<path d="M130.753 55.8545C130.753 62.5379 128.476 68.1931 123.923 72.8201C119.369 77.3737 113.751 79.6505 107.067 79.6505C100.31 79.6505 94.6551 77.3737 90.1016 72.8201C85.548 68.2666 83.2712 62.6114 83.2712 55.8545V17.9572C83.2712 15.7538 83.9322 13.9545 85.2542 12.559C86.6497 11.1636 88.4491 10.4659 90.6524 10.4659C92.8557 10.4659 94.6551 11.1636 96.0506 12.559C97.446 13.9545 98.1437 15.7538 98.1437 17.9572V23.796H123.372C125.575 23.796 127.338 24.4937 128.66 25.8892C130.055 27.2112 130.753 28.9738 130.753 31.1772C130.753 36.1714 128.293 38.6685 123.372 38.6685H98.1437V55.8545C98.1437 58.3516 98.9883 60.4815 100.678 62.2441C102.44 63.9334 104.57 64.778 107.067 64.778C109.564 64.778 111.657 63.9334 113.347 62.2441C115.036 60.4815 115.881 58.3516 115.881 55.8545V54.863C115.881 52.7331 116.578 50.9704 117.974 49.575C119.443 48.1795 121.242 47.4818 123.372 47.4818C125.502 47.4818 127.264 48.1795 128.66 49.575C130.055 50.9704 130.753 52.7331 130.753 54.863V55.8545Z" fill="#474747"/>
<path d="M77.1644 72.2693C77.1644 74.4726 76.4667 76.272 75.0713 77.6674C73.6758 78.9894 71.8765 79.6504 69.6731 79.6504C67.4698 79.6504 65.6704 78.9894 64.275 77.6674C62.953 76.272 62.292 74.4726 62.292 72.2693V30.9568C62.292 28.7535 62.953 26.9908 64.275 25.6688C65.6704 24.2734 67.4698 23.5756 69.6731 23.5756C74.6673 23.5756 77.1644 26.036 77.1644 30.9568V72.2693ZM69.6731 0C67.176 0 65.0094 0.918056 63.1733 2.75417C61.4106 4.51683 60.5293 6.64672 60.5293 9.14382C60.5293 11.6409 61.4106 13.8075 63.1733 15.6436C65.0094 17.4063 67.176 18.2876 69.6731 18.2876C72.1702 18.2876 74.3001 17.4063 76.0628 15.6436C77.8989 13.8075 78.8169 11.6409 78.8169 9.14382C78.8169 6.64672 77.8989 4.51683 76.0628 2.75417C74.3001 0.918056 72.1702 0 69.6731 0Z" fill="#474747"/>
<path d="M28.0939 64.9983C31.7662 64.9983 34.8875 63.713 37.4581 61.1425C40.1021 58.4985 41.4241 55.3404 41.4241 51.6682C41.4241 47.9959 40.1021 44.8746 37.4581 42.304C34.8875 39.7334 31.7662 38.4482 28.0939 38.4482C24.4217 38.4482 21.3003 39.7334 18.7298 42.304C16.1592 44.8746 14.874 47.9959 14.874 51.6682V94.7433C14.874 96.9466 14.1762 98.746 12.7808 100.141C11.3853 101.537 9.58596 102.235 7.38262 102.235C5.17929 102.235 3.37991 101.537 1.98446 100.141C0.662464 98.746 0.00146484 96.9466 0.00146484 94.7433V51.6682C0.00146484 43.7362 2.68219 37.0894 8.04362 31.728C13.4785 26.2931 20.1619 23.5757 28.0939 23.5757C36.0259 23.5757 42.7094 26.2931 48.1443 31.728C53.5791 37.0894 56.2966 43.7362 56.2966 51.6682C56.2966 59.6002 53.5791 66.2836 48.1443 71.7185C42.7094 77.1534 36.0259 79.8708 28.0939 79.8708C25.8906 79.8708 24.0912 79.1731 22.6958 77.7776C21.3738 76.3822 20.7128 74.5828 20.7128 72.3795C20.7128 70.1761 21.3738 68.4135 22.6958 67.0915C24.0912 65.696 25.8906 64.9983 28.0939 64.9983Z" fill="#474747"/>
<rect width="24.7839" height="21.9234" transform="matrix(0.999996 0.00277286 -0.00313425 0.999995 149.699 114.085)" fill="#474747"/>
<rect width="24.7839" height="21.9234" transform="matrix(-0.999996 -0.00277286 0.00313425 -0.999995 149.571 157.93)" fill="#474747"/>
<rect width="24.7839" height="21.9234" transform="matrix(0.999996 0.00277286 -0.00313425 0.999995 99.822 113.947)" fill="#474747"/>
<rect width="24.7839" height="21.9234" transform="matrix(-0.999996 -0.00277286 0.00313425 -0.999995 99.6919 157.792)" fill="#474747"/>
<rect width="24.7839" height="21.9234" transform="matrix(0.999996 0.00277286 -0.00313425 0.999995 49.9443 113.809)" fill="#474747"/>
<rect width="24.7839" height="21.9234" transform="matrix(-0.999996 -0.00277286 0.00313425 -0.999995 49.8147 157.654)" fill="#474747"/>
<rect width="24.7839" height="21.9234" transform="matrix(0.999996 0.00285768 -0.00303983 0.999995 0.0666504 113.671)" fill="#474747"/>
<rect width="24.7839" height="21.9234" transform="matrix(-0.999996 -0.00277286 0.00313425 -0.999995 199.581 157.586)" fill="#474747"/>
<rect width="24.7839" height="21.9234" transform="matrix(0.999996 0.00277286 -0.00313425 0.999995 199.71 113.741)" fill="#474747"/>
<rect width="24.7839" height="21.9234" transform="matrix(-0.999996 -0.00277286 0.00313425 -0.999995 249.459 157.723)" fill="#474747"/>
<rect width="24.7839" height="21.9234" transform="matrix(0.999996 0.00277286 -0.00313425 0.999995 249.587 113.879)" fill="#474747"/>
<rect width="24.7839" height="21.9234" transform="matrix(-0.999996 -0.00277286 0.00313425 -0.999995 299.336 157.862)" fill="#474747"/>
<rect width="24.7839" height="21.9234" transform="matrix(0.999996 0.00277286 -0.00313425 0.999995 299.465 114.017)" fill="#474747"/>
<rect width="24.7839" height="21.9234" transform="matrix(0.999996 0.00277286 -0.00313425 0.999995 349.348 113.671)" fill="#474747"/>
<rect width="24.7839" height="21.9234" transform="matrix(-0.999996 -0.00285768 0.00303983 -0.999995 349.213 158)" fill="#474747"/>
<path d="M230.749 56.9163C230.749 63.5754 228.5 69.21 224.002 73.8202C219.504 78.3572 213.954 80.6257 207.352 80.6257C200.678 80.6257 195.091 78.3572 190.593 73.8202C186.095 69.2832 183.846 63.6486 183.846 56.9163V19.157C183.846 16.9617 184.499 15.1689 185.805 13.7785C187.184 12.3881 188.961 11.693 191.138 11.693C193.314 11.693 195.091 12.3881 196.47 13.7785C197.848 15.1689 198.538 16.9617 198.538 19.157V24.9746H223.458C225.634 24.9746 227.376 25.6698 228.681 27.0601C230.06 28.3773 230.749 30.1336 230.749 32.3289C230.749 37.3049 228.319 39.7929 223.458 39.7929H198.538V56.9163C198.538 59.4043 199.372 61.5265 201.04 63.2827C202.782 64.9658 204.886 65.8073 207.352 65.8073C209.819 65.8073 211.886 64.9658 213.555 63.2827C215.224 61.5265 216.058 59.4043 216.058 56.9163V55.9284C216.058 53.8063 216.747 52.05 218.126 50.6597C219.577 49.2693 221.354 48.5741 223.458 48.5741C225.562 48.5741 227.303 49.2693 228.681 50.6597C230.06 52.05 230.749 53.8063 230.749 55.9284V56.9163Z" fill="#474747"/>
<path d="M165.808 41.5038C164.558 42.7563 163.933 44.3035 163.933 46.1454L163.823 58.965C163.749 65.0064 161.617 70.1269 157.425 74.3264C153.307 78.5259 148.233 80.6257 142.203 80.6257C139.997 80.6257 138.195 79.9626 136.798 78.6364C135.475 77.2366 134.813 75.4315 134.813 73.2213C134.813 71.011 135.475 69.2059 136.798 67.8061C138.195 66.4062 139.997 65.7063 142.203 65.7063C144.115 65.7063 145.696 65.0801 146.946 63.8276C148.27 62.5014 148.932 60.8805 148.932 58.965C148.932 58.3019 148.932 57.5651 148.932 56.7547C149.005 53.8077 149.042 52.2973 149.042 52.2236V46.1454C149.042 40.0303 151.101 34.9098 155.219 30.7839C159.41 26.5844 164.558 24.4846 170.661 24.4846C172.868 24.4846 174.669 25.1846 176.066 26.5844C177.464 27.9106 178.162 29.6788 178.162 31.8891C178.162 34.0257 177.5 35.7571 176.177 37.0832C174.853 38.4094 173.088 39.183 170.882 39.404C168.75 39.5514 167.058 40.2513 165.808 41.5038Z" fill="#474747"/>
<path d="M349.166 65.7722C352.858 65.7722 355.997 64.4928 358.582 61.9341C361.24 59.3022 362.57 56.1586 362.57 52.5033C362.57 48.8479 361.24 45.7409 358.582 43.1822C355.997 40.6234 352.858 39.344 349.166 39.344C345.473 39.344 342.335 40.6234 339.75 43.1822C337.165 45.7409 335.873 48.8479 335.873 52.5033V95.3804C335.873 97.5736 335.171 99.3648 333.768 100.754C332.365 102.143 330.555 102.837 328.34 102.837C326.124 102.837 324.315 102.143 322.912 100.754C321.582 99.3648 320.918 97.5736 320.918 95.3804V52.5033C320.918 44.6077 323.613 37.9916 329.004 32.6548C334.469 27.2449 341.19 24.5399 349.166 24.5399C357.142 24.5399 363.862 27.2449 369.327 32.6548C374.792 37.9916 377.525 44.6077 377.525 52.5033C377.525 60.3988 374.792 67.0515 369.327 72.4614C363.862 77.8713 357.142 80.5763 349.166 80.5763C346.95 80.5763 345.141 79.8818 343.738 78.4928C342.408 77.1037 341.744 75.3126 341.744 73.1194C341.744 70.9262 342.408 69.1716 343.738 67.8557C345.141 66.4667 346.95 65.7722 349.166 65.7722Z" fill="#474747"/>
<path fill-rule="evenodd" clip-rule="evenodd" d="M275.505 18.8502C273.759 18.9078 272.3 19.0912 271.037 19.4116C267.708 20.2562 265.321 22.1368 263.158 25.6209C263.056 25.7855 262.951 25.9572 262.925 26.0023L262.877 26.0844L263.438 25.8937C263.747 25.7888 264.417 25.5607 264.927 25.3868C266.329 24.9086 266.958 24.7109 267.74 24.5023C269.524 24.0259 271.244 23.7933 274.18 23.6313C275.355 23.5664 275.777 23.5326 276.388 23.4542C278.084 23.2365 279.227 22.8516 280.2 22.1701C280.662 21.8464 281.121 21.4212 281.834 20.6552C282.389 20.0587 282.724 19.7055 283.007 19.4181C283.134 19.2898 283.232 19.1847 283.225 19.1847C283.218 19.1846 282.931 19.1612 282.586 19.1325C281.089 19.0082 279.67 18.9192 278.366 18.8677C277.734 18.8428 276.042 18.8325 275.505 18.8502ZM264.865 19.4678C263.644 19.5262 262.458 19.6721 261.439 19.8895C259.375 20.3297 258.035 21.0476 257.576 21.9582C257.183 22.7391 257.415 23.664 258.267 24.7115C258.56 25.0715 258.973 25.4914 259.399 25.8632L259.532 25.9785L259.744 25.7729C259.86 25.6598 260.091 25.4495 260.256 25.3056C260.565 25.036 260.711 24.9143 262.048 23.8052C263.354 22.7228 263.875 22.2607 264.566 21.5717C265.192 20.9468 265.517 20.5666 265.831 20.0917C265.961 19.8943 266.163 19.5165 266.163 19.4697C266.163 19.4459 265.349 19.4446 264.865 19.4678ZM291.698 20.0494C290.58 20.116 289.304 20.4915 287.963 21.1484C285.177 22.5134 282.778 24.9517 280.834 28.3943C278.805 31.9889 277.288 36.6673 276.38 42.1381C275.967 44.6315 275.679 47.3847 275.558 50.0005C275.468 51.9387 275.465 54.1145 275.549 55.8467C275.858 62.1993 277.026 67.9928 278.98 72.857C280.23 75.9691 281.782 78.6263 283.541 80.6666C285.821 83.3114 288.392 84.8763 291.001 85.2074C291.768 85.3049 292.64 85.2895 293.411 85.165C294.693 84.9578 295.99 84.4279 297.217 83.6103C300.001 81.7547 302.493 78.4092 304.548 73.7667C305.139 72.4326 305.721 70.9212 306.215 69.4409C307.427 65.8055 308.157 61.0873 308.368 55.5298C308.388 55.0059 308.431 53.0766 308.43 52.7652C308.426 51.9532 308.375 50.007 308.333 49.0761C307.953 40.7482 306.324 33.368 303.913 29.0546C302.674 26.8362 300.956 24.6908 299.175 23.135C296.677 20.9529 294.136 19.9042 291.698 20.0494ZM254.911 24.8108C254.689 24.8529 254.452 24.9372 254.204 25.0627C253.674 25.3298 253.198 25.7024 252.565 26.3455C251.445 27.4828 250.2 29.2293 248.896 31.4935C248.765 31.7211 248.644 31.9317 248.626 31.9614L248.593 32.0155L248.859 32.3224C249.447 33.0001 250.244 33.8389 251.586 35.1909C252.042 35.6512 252.704 36.3204 253.056 36.6781C253.407 37.0357 253.699 37.3249 253.703 37.3208C253.735 37.2877 256.483 32.3097 256.506 32.2419C256.557 32.0928 256.672 31.6584 256.749 31.327C256.889 30.7283 257 30.0422 257.063 29.4068C257.107 28.9512 257.107 27.8425 257.063 27.4698C256.978 26.7596 256.855 26.283 256.646 25.8478C256.377 25.2903 256.041 24.9676 255.588 24.8345C255.43 24.7879 255.094 24.7762 254.911 24.8108ZM276.132 25.3666C272.429 25.4322 269.474 25.8008 267.038 26.5008C262.009 27.9459 258.906 30.9258 257.071 36.0718C256.899 36.5554 256.521 37.7561 256.521 37.8201C256.521 37.8495 258.545 37.0758 260.83 36.1725C262.373 35.5626 262.905 35.3576 263.451 35.1617C266.225 34.1669 268.345 33.8458 272.679 33.7638C273.247 33.753 273.713 33.743 273.714 33.7414C273.734 33.7105 277.553 25.3788 277.553 25.3662C277.553 25.3459 277.294 25.346 276.132 25.3666ZM247.714 34.7663C247.008 35.6179 246.399 36.6586 245.838 37.9723C244.712 40.6093 243.945 44.1889 243.71 47.8963C243.678 48.3979 243.642 49.315 243.65 49.413L243.656 49.4858L247.7 52.6927C249.924 54.4565 251.749 55.8996 251.755 55.8996C251.76 55.8996 251.771 55.6638 251.777 55.3757C251.851 52.1493 252.068 47.8447 252.362 43.7758C252.448 42.5854 252.459 42.3475 252.459 41.7595C252.459 40.9342 252.403 40.2797 252.281 39.6641C251.877 37.6239 250.844 36.2631 248.813 35.0946C248.607 34.9761 248.05 34.6828 247.934 34.6317L247.855 34.5966L247.714 34.7663ZM269.35 35.7138C264.915 35.8589 261.485 37.004 259.006 39.167C257.536 40.4493 256.379 42.1288 255.577 44.1431C254.719 46.2987 254.26 48.6754 254.101 51.7791C254.055 52.6814 254.064 54.9715 254.116 55.5664L254.128 55.6998L254.985 54.9721C255.93 54.1693 256.361 53.7559 257.068 52.9765C257.498 52.5026 258.431 51.5682 258.764 51.2786C260.558 49.7159 262.27 48.8724 264.768 48.3191C265.828 48.0843 266.847 47.9207 269.377 47.5793C270.888 47.3754 271.501 47.29 271.509 47.2822C271.521 47.2699 273.386 35.8549 273.377 35.846C273.354 35.8234 272.189 35.748 271.425 35.7196C271.014 35.7044 269.747 35.7008 269.35 35.7138ZM292.917 36.3123C292.129 36.3876 291.466 36.6433 290.769 37.1408C290.359 37.4335 289.797 37.9608 289.44 38.3874C288.341 39.7008 287.471 41.4426 286.869 43.5357C286.283 45.572 285.89 47.8093 285.739 49.9741C285.683 50.7684 285.674 51.0008 285.664 51.9556C285.644 53.8989 285.761 55.5487 286.048 57.3523C286.98 63.2097 289.501 67.8505 292.246 68.7612C292.658 68.8979 292.795 68.9199 293.243 68.9204C293.583 68.9207 293.655 68.9157 293.817 68.8805C295.133 68.5947 296.245 67.5312 297.301 65.5493C297.999 64.2392 298.796 61.9361 299.15 60.2078C299.963 56.234 299.94 49.6984 299.096 44.9222C298.704 42.701 298.211 41.1224 297.496 39.7962C296.33 37.6323 294.96 36.4638 293.42 36.319C293.236 36.3017 293.053 36.2993 292.917 36.3123ZM269.209 49.6673C265.019 49.8191 261.786 50.8902 259.514 52.8803C259.262 53.101 258.804 53.5642 258.578 53.8279C257.171 55.4687 256.332 57.528 256.062 60.0025C255.992 60.646 255.982 60.859 255.982 61.7898C255.982 62.7461 255.993 62.9917 256.071 63.762C256.338 66.4051 257.091 69.232 258.353 72.3244C258.456 72.5786 258.547 72.7866 258.553 72.7866C258.56 72.7866 258.943 72.3963 259.403 71.9193C262.83 68.3718 264.543 66.776 265.942 65.8275C266.526 65.4321 266.987 65.1789 268.3 64.5329C269.301 64.0404 269.418 63.989 270.004 63.7884C270.987 63.4516 271.449 63.2441 271.979 62.9022L272.171 62.7784L272.16 62.5042C272.154 62.3534 272.077 59.409 271.989 55.9612C271.9 52.5134 271.827 49.6911 271.826 49.6896C271.824 49.688 271.557 49.6781 271.231 49.6675C270.584 49.6465 269.787 49.6464 269.209 49.6673ZM243.542 52.9178C243.542 53.4101 243.55 54.0229 243.559 54.2795C243.725 58.6224 244.453 63.2752 245.433 66.2669C245.502 66.4775 245.602 66.7608 245.656 66.8964C246.39 68.7534 247.967 70.0989 250.546 71.0675C251.692 71.4981 253.067 71.8641 255.248 72.3196C255.552 72.3833 255.806 72.4313 255.811 72.4262C255.82 72.4172 255.125 70.1848 254.611 68.5692C253.09 63.7968 251.903 60.9178 250.488 58.5713C249.633 57.1542 248.778 56.0479 247.728 55.0006C246.549 53.8258 245.382 52.9774 243.855 52.1852L243.542 52.0226L243.542 52.9178ZM271.03 65.69C269.362 65.7847 267.901 66.1684 266.543 66.8686C265.081 67.6217 263.86 68.705 262.976 70.0308C262.704 70.4392 262.585 70.6424 262.385 71.0408C261.886 72.0347 261.585 73.0773 261.472 74.1991C261.43 74.6099 261.43 75.4463 261.472 75.8418C261.699 77.9931 262.627 79.8925 264.236 81.4996C264.582 81.8454 265.273 82.4496 265.362 82.4836C265.385 82.4924 265.528 82.4075 265.835 82.203C266.438 81.8006 266.821 81.462 267.518 80.7122C268.253 79.9225 268.654 79.5405 269.218 79.0913C269.897 78.5513 270.49 78.1667 271.161 77.833C271.763 77.5335 272.222 77.3642 273.262 77.0574C274.337 76.7404 274.837 76.5586 275.458 76.2589C275.761 76.1124 275.807 76.0851 275.801 76.0539C275.797 76.0341 275.083 73.6991 274.215 70.865L272.636 65.7122L272.512 65.7011C272.297 65.682 271.304 65.6745 271.03 65.69ZM248.451 71.9702C248.451 71.9882 248.486 72.1377 248.529 72.3023C248.755 73.1688 249.043 73.9175 249.519 74.8733C250.344 76.5297 251.479 78.158 252.925 79.7598C253.225 80.0919 254.286 81.1496 254.614 81.4439C255.753 82.4655 256.856 83.2888 258.013 83.9812C260.083 85.2196 262.071 85.9003 264.044 86.0461C264.292 86.0644 265.156 86.0708 265.156 86.0544C265.156 86.0313 264.63 85.2048 264.366 84.8135C263.719 83.8547 263.106 83.0908 262.076 81.9609C261.348 81.1617 261.055 80.8179 259.92 79.434C258.391 77.569 257.949 77.0712 256.98 76.1258C255.326 74.5108 253.449 73.3645 251.267 72.6361C250.522 72.3874 249.777 72.1912 248.972 72.0318C248.468 71.932 248.451 71.93 248.451 71.9702ZM275.514 78.5977C274.339 78.6973 273.234 78.9376 272.223 79.313C270.511 79.9495 269.288 80.8801 268.802 81.9169C268.644 82.254 268.565 82.5767 268.552 82.941C268.532 83.451 268.638 83.9015 268.9 84.4293C269.089 84.8097 269.258 85.0275 269.519 85.2278C270.888 86.2785 274.356 86.6749 280.14 86.4421C281.154 86.4013 283.675 86.2696 283.687 86.2569C283.701 86.2426 277.058 78.6247 277.018 78.6083C276.966 78.5873 275.738 78.5787 275.514 78.5977Z" fill="#C66D2C"/>
</svg>
