<svg width="378" height="142" viewBox="0 0 378 142" fill="none" xmlns="http://www.w3.org/2000/svg">
<path fill-rule="evenodd" clip-rule="evenodd" d="M205.814 0.0649126C204.683 0.348319 204.429 0.72057 202.797 4.48416C201.308 7.91951 201.067 8.31514 200.251 8.66529C200.006 8.77046 199.334 8.94586 198.758 9.05496C197.815 9.2333 196.311 9.54118 193.818 10.0661C192.616 10.3192 191.392 10.4178 190.681 10.3189C189.654 10.1758 189.328 9.94928 187.374 8.01825C185.463 6.12995 184.74 5.57643 183.805 5.28606C182.049 4.74116 180.345 5.32686 177.406 7.48491C176.497 8.15285 175.277 9.00985 174.696 9.38953C169.615 12.7089 166.96 14.5608 166.459 15.134C166.035 15.6198 165.615 16.504 165.512 17.1287C165.339 18.1851 165.617 19.2415 166.704 21.6544C167.654 23.7648 167.76 24.1321 167.76 25.3219C167.76 26.2897 167.747 26.3545 167.449 26.9264C167.133 27.5312 166.641 28.2911 165.281 30.273C164.865 30.8781 164.223 31.889 163.854 32.5194C163.485 33.1497 163.079 33.8022 162.952 33.9695C162.368 34.7409 161.458 34.9011 157.195 34.9825C154.207 35.0396 153.95 35.0574 153.563 35.2347C152.868 35.553 152.48 36.1243 152.064 37.4415C151.722 38.5252 151.662 38.8021 150.256 45.7977C148.62 53.9366 148.514 54.6964 148.839 55.9492C149.164 57.199 149.829 57.6974 152.938 59.0225C155.068 59.9302 155.641 60.2603 156.431 61.0354C157.678 62.2589 157.987 63.1507 158.707 67.5898C159.119 70.1281 159.14 70.5242 158.91 71.4023C158.613 72.5384 157.998 73.3175 155.889 75.2279C154.835 76.1824 154.203 76.9766 153.871 77.761C153.445 78.7702 153.581 79.4809 154.577 81.4346C155.92 84.0706 157.987 87.2837 161.184 91.7025C162.561 93.6064 163.559 94.8647 164.258 95.5805C164.893 96.2313 165.353 96.4255 166.256 96.4255C167.259 96.4255 167.972 96.1855 170.713 94.9261C172.258 94.2156 173.049 94.0108 174.062 94.0591C174.789 94.0937 174.933 94.1336 175.612 94.4875C177.028 95.2247 179.035 96.5007 180.3 97.4683C181.776 98.5965 182.782 99.656 183.254 100.578C183.589 101.235 183.718 102.804 183.65 105.414C183.582 108.011 183.602 108.144 184.153 108.706C184.928 109.497 187.303 110.185 192.84 111.223C194.053 111.45 196.577 111.926 198.45 112.28C202.49 113.043 203.244 113.141 204.122 113.017C205.819 112.777 206.481 112.022 207.536 109.124C208.164 107.395 208.899 105.952 209.369 105.519C210.699 104.296 214.25 103.135 217.841 102.749C218.635 102.664 218.938 102.664 219.197 102.749C220.224 103.087 222.353 105.256 224.646 108.299C225.596 109.56 227.12 111.561 228.033 112.746C229.552 114.718 231.184 116.857 238.81 126.866C245.39 135.501 247.4 138.066 248.089 138.709C252.237 142.576 258.453 143.089 263.166 139.954C265.9 138.136 267.715 135.459 268.452 132.161C268.651 131.269 268.731 128.783 268.594 127.755C268.473 126.849 268.154 125.683 267.749 124.665C267.179 123.234 267.033 123.03 260.419 114.396C259.28 112.909 257.502 110.578 256.47 109.216C255.437 107.854 254.379 106.472 254.118 106.144C252.78 104.461 248.787 99.1491 247.915 97.8911C244.158 92.4727 242.493 89.1616 242.715 87.5475C242.809 86.8646 243.897 84.8348 245.279 82.7641C247.197 79.8919 248.64 78.6284 250.322 78.3505C250.641 78.2979 252.163 78.2479 253.704 78.2393C256.179 78.2258 256.548 78.2048 256.873 78.0594C258.151 77.4874 258.706 75.9758 259.895 69.8362C260.173 68.399 260.721 65.5727 261.113 63.5556C261.794 60.047 261.825 59.8305 261.829 58.5586C261.834 57.2626 261.827 57.2157 261.562 56.6926C261.059 55.7012 260.292 55.2054 258.067 54.4352C256.346 53.8391 255.201 53.3022 254.464 52.7448C253.986 52.383 253.834 52.1937 253.527 51.5821C252.439 49.4131 251.542 45.3132 251.605 42.8019C251.634 41.6403 251.655 41.5135 251.898 41.0346C252.315 40.215 252.851 39.6047 254.375 38.2171C255.159 37.5036 255.955 36.7046 256.144 36.4416C256.934 35.3448 257.149 34.4123 256.872 33.2987C256.567 32.0785 255.785 30.7982 252.702 26.4767C251.141 24.2884 250.261 22.9714 249.48 21.6544C247.892 18.9789 247.034 17.9664 245.868 17.3937C244.411 16.6777 243.4 16.7875 240.551 17.971C237.91 19.0681 237.614 19.1624 236.8 19.1661C235.751 19.1708 235.226 18.9272 232.62 17.2281C227.695 14.0179 227.373 13.7662 227.17 12.9679C227.116 12.7531 227.051 11.4427 227.026 10.0559C227.001 8.66914 226.935 7.18381 226.879 6.75517C226.707 5.43221 226.125 4.4672 225.082 3.77615C223.776 2.91153 222.341 2.55927 217.232 1.84915C216.297 1.71932 214.292 1.34991 212.776 1.02836C208.504 0.122126 206.624 -0.138084 205.814 0.0649126ZM370.377 17.4022C367.67 17.6266 365.371 19.6056 364.679 22.3067C364.502 22.9982 364.498 23.4004 364.499 41.2214C364.501 61.5819 364.451 60.072 365.179 61.5384C366.34 63.8726 368.393 65.1549 370.975 65.1579C374.03 65.1614 376.612 63.1807 377.426 60.209C377.58 59.6472 377.589 58.5584 377.589 41.2297C377.589 23.7299 377.581 22.8181 377.422 22.2583C377.11 21.1613 376.328 19.8356 375.601 19.1719C374.11 17.8102 372.409 17.2338 370.377 17.4022ZM202.716 22.4967C198.207 22.8344 193.422 24.1346 189.533 26.0788C185.751 27.9693 182.771 30.1278 179.928 33.0358C177.424 35.5962 175.713 37.9977 174.099 41.219C172.351 44.705 171.342 48.1228 170.82 52.3238C170.631 53.8448 170.664 59.204 170.871 60.7133C171.547 65.6211 173.087 70.0463 175.584 74.2594C178.095 78.4942 181.696 82.3172 185.66 84.9567C190.661 88.2866 196.262 90.1973 202.368 90.6567C204.162 90.7916 207.864 90.7202 209.382 90.5212C217.384 89.473 225.281 85.2341 230.668 79.0966C235.696 73.3671 238.49 66.6865 239.105 58.9254C239.235 57.2906 239.163 54.0782 238.962 52.5072C238.289 47.258 236.291 41.9163 233.371 37.5622C229.92 32.4155 225.569 28.5591 220.169 25.8622C216.489 24.0242 212.263 22.8743 207.917 22.5281C206.83 22.4415 203.704 22.4227 202.716 22.4967ZM202.624 33.0759C198.006 33.5328 193.496 35.3012 189.809 38.1015C188.561 39.0487 186.304 41.3198 185.33 42.6073C182.72 46.0588 181.115 49.9911 180.562 54.2951C180.369 55.7959 180.417 59.1729 180.654 60.7133C181.911 68.9013 187.316 75.8251 194.953 79.0344C198.638 80.5827 202.003 81.2134 205.886 81.0837C209.636 80.9585 212.969 80.1264 216.242 78.4983C218.071 77.5886 219.755 76.3666 221.413 74.7468C223.289 72.9148 224.055 71.2819 224.063 69.1027C224.071 67.0204 223.245 65.4679 221.376 64.0547C220.014 63.0241 218.811 62.6421 217.14 62.7088C215.433 62.7769 214.399 63.2375 211.978 65.0082C209.813 66.5912 208.797 67.138 207.287 67.5322C205.744 67.9354 203.758 67.9916 202.235 67.6754C199.758 67.1614 197.215 65.3163 195.526 62.8079C193.326 59.5413 192.995 56.1878 194.547 52.8834C195.756 50.3084 197.757 48.254 200.19 47.0896C201.892 46.2752 203.593 45.9828 205.551 46.1683C207.934 46.3941 209.438 47.0226 211.871 48.8097C213.897 50.2969 214.838 50.814 216.112 51.1393C217.74 51.5549 219.473 51.2167 220.998 50.1861C223.087 48.7746 224.074 47.0534 224.057 44.8513C224.041 42.6911 223.296 41.0408 221.552 39.3018C218.256 36.0147 214.127 34.0482 208.826 33.2416C207.433 33.0298 204.014 32.9385 202.624 33.0759ZM291.53 34.4443C286.503 34.8351 281.82 36.7208 278.063 39.8682C275.12 42.3325 273.183 44.8198 271.47 48.3354C269.35 52.6839 268.683 57.5164 269.515 62.5012C270.211 66.6684 272.421 71.1695 275.367 74.4205C278.665 78.059 282.875 80.6294 287.452 81.7995C289.335 82.2805 290.366 82.4119 292.656 82.4623C294.987 82.5135 296.036 82.41 297.976 81.9373C299.829 81.4856 302.27 80.4505 304.114 79.3344C304.58 79.0523 304.997 78.8215 305.041 78.8215C305.084 78.8215 305.25 79.0222 305.409 79.2673C305.86 79.9624 306.856 80.8405 307.632 81.228C308.623 81.7229 309.332 81.8835 310.525 81.8835C311.683 81.8835 312.385 81.7299 313.389 81.2562C315.091 80.4543 316.286 79.1192 316.943 77.2868L317.231 76.4835V66.352C317.231 57.0192 317.218 56.1375 317.065 55.1662C316.627 52.3977 316.015 50.3923 314.894 48.056C311.327 40.6254 304.135 35.4809 296.009 34.5474C294.781 34.4062 292.651 34.3572 291.53 34.4443ZM348.604 35.0941C342.842 35.6571 337.503 38.1963 333.3 42.3729C329.167 46.4805 326.813 51.1442 325.94 56.9541C325.789 57.9575 325.775 58.8693 325.775 67.3148V76.5752L326.025 77.3106C326.498 78.7026 327.338 79.8264 328.51 80.6351C331.117 82.4336 334.332 82.3085 336.676 80.3176C337.559 79.5682 338.075 78.8045 338.557 77.5379L338.819 76.8503L338.876 67.819C338.912 62.1734 338.969 58.616 339.029 58.3294C339.597 55.5967 340.577 53.6688 342.308 51.8783C343.327 50.8245 344.373 50.0595 345.654 49.4313C347.472 48.5393 348.617 48.2601 351.049 48.1157C352.245 48.0445 352.668 47.9812 353.254 47.7851C355.35 47.0837 356.931 45.5367 357.61 43.5219C357.757 43.0841 357.822 42.6215 357.856 41.7798C357.912 40.3442 357.762 39.5755 357.2 38.4124C356.444 36.8503 355.087 35.7451 353.336 35.267C352.744 35.1055 352.296 35.0607 351.039 35.0375C350.18 35.0218 349.084 35.0472 348.604 35.0941ZM291.411 47.6901C288.963 48.134 286.6 49.4957 285.011 51.378C283.827 52.782 282.951 54.547 282.586 56.2664C282.386 57.2063 282.361 59.4839 282.541 60.3923C283.641 65.9684 288.701 69.8079 294.257 69.2826C298.214 68.9083 301.391 66.6415 303.119 62.9591C305.086 58.7665 304.099 53.7448 300.664 50.4697C299.18 49.0546 297.174 48.0429 295.159 47.6921C294.218 47.5282 292.309 47.5272 291.411 47.6901ZM369.622 68.4648C368.16 68.8235 366.756 69.7536 365.801 70.9951C365.376 71.5474 364.896 72.6113 364.672 73.4966C364.4 74.5726 364.456 76.1526 364.804 77.2189C365.621 79.7229 367.756 81.4853 370.424 81.8579C373.674 82.3115 376.983 80.0205 377.825 76.7334C378.042 75.8868 378.06 74.444 377.863 73.6108C377.271 71.1057 375.083 68.9356 372.626 68.416C371.752 68.2314 370.49 68.2519 369.622 68.4648Z" fill="#315C32"/>
<path fill-rule="evenodd" clip-rule="evenodd" d="M5.05443 16.9752C3.0899 17.4945 1.57801 18.6923 0.74163 20.392C-0.0702172 22.0418 0.00162442 19.9925 0.00162442 41.5049C0.00162442 62.3684 -0.0298867 61.0206 0.515357 63.5099C1.45968 67.8215 3.8412 72.1211 7.06985 75.3433C12.5265 80.7893 20.0191 83.2749 27.6321 82.1649C30.1893 81.7921 32.2037 81.1616 34.6363 79.9729C41.9088 76.4189 46.9683 69.3316 47.959 61.3106C48.1266 59.9533 48.1511 57.0655 48.006 55.7624C47.6929 52.9496 46.958 50.4589 45.6657 47.8314C40.8304 38.0002 30.1829 32.6841 19.5238 34.7792C17.6834 35.1409 15.1634 35.9722 13.7525 36.683C13.337 36.8924 13.1691 36.9391 13.1379 36.8541C13.1142 36.7898 13.0834 33.4571 13.0694 29.448C13.0407 21.2675 13.0834 21.8006 12.3357 20.2793C11.7796 19.1479 10.7145 18.1001 9.51008 17.4997C9.02639 17.2585 8.35069 17.0052 7.99424 16.9315C7.10807 16.748 5.84275 16.7668 5.05443 16.9752ZM121.737 34.41C118.25 34.677 115.001 35.7641 112.358 37.5482C111.244 38.2995 109.565 39.9827 108.837 41.0773C107.083 43.7114 106.266 46.9123 106.527 50.1216C106.69 52.1267 107.177 53.5747 108.229 55.1883C109.968 57.8548 112.192 59.6043 116.446 61.6525C119.323 63.0378 120.022 63.3367 121.871 63.9718C126.282 65.4866 128.171 66.5055 128.352 67.4665C128.579 68.6786 126.941 69.6393 124.438 69.7607C121.709 69.893 118.873 68.7811 116.446 66.627C114.605 64.9934 112.685 64.1933 110.566 64.1776C109.4 64.169 108.702 64.3294 107.634 64.8518C106.236 65.5358 105.173 66.867 104.816 68.3797C104.593 69.3294 104.679 71.068 104.997 72.0145C106.33 75.9794 109.874 79.1704 114.852 80.8865C117.796 81.9014 120.804 82.3885 124.117 82.3874C126.773 82.3865 128.39 82.1487 130.649 81.4275C136.036 79.7072 140.044 75.6156 141.216 70.6397C141.402 69.851 141.459 69.3219 141.499 68.0026C141.594 64.834 141.037 62.6582 139.545 60.3706C137.786 57.6738 135.336 55.7324 131.604 54.0786C129.39 53.0973 127.245 52.3806 123.202 51.271C121.733 50.8679 120.416 50.3108 120.007 49.9194C119.525 49.4591 119.56 48.641 120.086 48.0605C120.726 47.3532 121.701 47.0861 123.979 46.9945C126.338 46.8997 127.275 47.0737 130.018 48.1164C132.528 49.0703 132.977 49.1953 133.901 49.1982C134.897 49.2012 135.49 49.0572 136.519 48.5619C137.504 48.088 138.134 47.5563 138.714 46.7097C140.368 44.2933 140.019 40.8859 137.886 38.6226C136.695 37.3594 135.081 36.4325 132.699 35.6451C129.493 34.5847 125.432 34.1271 121.737 34.41ZM59.5328 35.0028C57.8315 35.4098 57.0224 35.8365 55.9942 36.8685C55.1314 37.7347 54.6917 38.4619 54.3277 39.6253L54.1125 40.313V50.7195C54.1125 60.1022 54.1281 61.2276 54.2706 62.1575C55.0993 67.5641 57.3646 72.024 61.1534 75.7082C65.4507 79.8868 70.7652 82.1687 76.7583 82.4085C81.4362 82.5956 85.8474 81.3862 89.6309 78.8791C92.1781 77.1912 94.0528 75.3274 95.7291 72.8162C98.0368 69.359 99.3791 65.624 99.8152 61.447C99.8692 60.9296 99.9067 56.4967 99.9077 50.5279C99.9092 40.8308 99.9029 40.4552 99.7285 39.7742C99.2693 37.9825 98.0294 36.4368 96.4183 35.6478C95.4025 35.1503 94.5689 34.9529 93.4785 34.9515C90.7521 34.9482 88.2298 36.6628 87.2115 39.2118C86.7865 40.2758 86.7786 40.4809 86.7752 50.5385C86.7719 60.2017 86.751 60.8745 86.4114 62.1994C85.3601 66.3021 82.4856 68.8657 78.5178 69.2391C76.4125 69.4373 74.5462 69.0701 72.6242 68.0797C69.5302 66.4854 67.6646 63.7079 67.2989 60.1513C67.2401 59.5794 67.2039 55.6555 67.2039 49.858C67.2039 41.7756 67.1847 40.414 67.0642 39.9426C66.4988 37.7302 64.8786 36.0101 62.6564 35.2629C62.054 35.0603 61.7226 35.0106 60.819 34.9873C60.2126 34.9717 59.6339 34.9786 59.5328 35.0028ZM21.8665 47.6914C17.4547 48.6457 14.0436 52.1753 13.2689 56.5875C13.1 57.5491 13.1209 59.3926 13.3116 60.3753C13.8857 63.3324 15.7518 66.0263 18.3589 67.6616C23.0504 70.6045 29.3851 69.444 32.7131 65.0319C37.1291 59.1773 34.7559 50.7287 27.979 48.1783C26.6773 47.6884 26.0921 47.587 24.3469 47.5488C22.9561 47.5183 22.5619 47.5409 21.8665 47.6914Z" fill="#474747"/>
</svg>
