<svg width="67" height="30" viewBox="0 0 67 30" fill="none" xmlns="http://www.w3.org/2000/svg">
<path fill-rule="evenodd" clip-rule="evenodd" d="M13.3095 14.178C13.5568 13.9273 13.6821 13.6023 13.6854 13.2032L13.7474 5.71984C13.7548 4.82848 13.3197 4.37917 12.4423 4.37191C12.0552 4.3687 11.7381 4.49247 11.4908 4.74321C11.2566 4.98075 11.1378 5.29908 11.1345 5.69819L11.0725 13.1816C11.0692 13.5807 11.1826 13.9076 11.4128 14.1623C11.656 14.4038 11.9711 14.5261 12.3582 14.5293C12.7453 14.5325 13.0624 14.4154 13.3095 14.178ZM11.3317 0.590825C11.657 0.260902 12.039 0.0977579 12.4777 0.101392C12.9164 0.105026 13.2892 0.274423 13.5961 0.609583C13.9161 0.931546 14.0742 1.31869 14.0704 1.77102C14.0667 2.22335 13.9021 2.61447 13.5768 2.9444C13.2645 3.26112 12.889 3.41767 12.4503 3.41403C12.0116 3.4104 11.6322 3.2476 11.3123 2.92564C11.0054 2.59048 10.8538 2.19673 10.8576 1.74441C10.8613 1.29208 11.0193 0.907551 11.3317 0.590825ZM21.9 13.3711C22.7069 12.5395 23.1154 11.5185 23.1254 10.3078L23.1269 10.1282C23.1301 9.74242 23.0102 9.42211 22.7671 9.16731C22.524 8.91251 22.2154 8.78356 21.8412 8.78046C21.467 8.77736 21.1498 8.90112 20.8897 9.15176C20.6424 9.4025 20.5172 9.72078 20.514 10.1066L20.5125 10.2862C20.5088 10.7385 20.3572 11.1231 20.0578 11.4399C19.7585 11.7435 19.3895 11.8934 18.9508 11.8898C18.5121 11.8861 18.1391 11.73 17.832 11.4215C17.5379 11.0997 17.3927 10.7127 17.3964 10.2604L17.4222 7.14729L21.8544 7.184C22.7189 7.19116 23.1549 6.74242 23.1624 5.83776C23.1657 5.43865 23.0458 5.11834 22.8026 4.87684C22.5725 4.62215 22.2638 4.49319 21.8767 4.48999L17.4445 4.45327L17.4533 3.39562C17.4566 2.99651 17.3367 2.66955 17.0937 2.41475C16.8506 2.15995 16.5355 2.03094 16.1484 2.02774C15.7613 2.02453 15.4442 2.1483 15.1969 2.39904C14.9626 2.64989 14.8437 2.97487 14.8404 3.37398L14.7836 10.2387C14.7734 11.4627 15.1649 12.4904 15.9581 13.3218C16.7513 14.1533 17.7414 14.574 18.9285 14.5838C20.1026 14.5935 21.0931 14.1893 21.9 13.3711ZM5.07553 11.8147C5.72068 11.82 6.27099 11.5918 6.72646 11.1299C7.19493 10.6548 7.43193 10.0847 7.43744 9.41946C7.44295 8.75427 7.21538 8.18694 6.75472 7.71746C6.30697 7.24809 5.76052 7.01073 5.11537 7.00538C4.47021 7.00004 3.9199 7.22831 3.46444 7.69021C3.00897 8.1521 2.77849 8.71564 2.77298 9.38083L2.70834 17.1835C2.70504 17.5826 2.57976 17.9075 2.33251 18.1583C2.08525 18.409 1.76808 18.5328 1.38099 18.5296C0.993898 18.5264 0.678819 18.3974 0.435755 18.1426C0.205593 17.8879 0.0921654 17.561 0.0954714 17.1619L0.160104 9.35918C0.172005 7.92237 0.652941 6.72228 1.60291 5.75891C2.56589 4.78234 3.74415 4.29982 5.13768 4.31137C6.53121 4.32291 7.70132 4.82488 8.64799 5.81727C9.59477 6.79635 10.0622 8.0043 10.0503 9.44111C10.0384 10.8779 9.55097 12.0846 8.58799 13.0612C7.625 14.0377 6.44675 14.5203 5.05321 14.5087C4.66612 14.5055 4.35104 14.3765 4.10798 14.1217C3.87782 13.867 3.76439 13.5401 3.76769 13.141C3.771 12.7419 3.88977 12.4235 4.12401 12.186C4.37126 11.9353 4.68844 11.8115 5.07553 11.8147ZM30.7207 20.9317L26.3667 20.8832L26.3217 24.854L21.9686 24.8055L21.9236 28.7766L26.2777 28.8251L26.3226 24.8543L30.6758 24.9028L30.7207 20.9317ZM21.9575 20.8341L17.6035 20.7856L17.5585 24.7564L13.2063 24.7079L13.1614 28.679L17.5154 28.7275L17.5604 24.7567L21.9125 24.8052L21.9575 20.8341ZM13.1952 20.7366L8.8412 20.6881L8.79624 24.6588L4.44405 24.6103L4.39908 28.5814L8.75312 28.6299L8.79808 24.6593L13.1503 24.7077L13.1952 20.7366ZM4.43249 20.6393L0.0784557 20.5904L0.0338525 24.5615L4.38789 24.6104L4.43249 20.6393ZM35.0644 28.8355L30.7103 28.787L30.7553 24.8159L35.108 24.8644L35.1529 20.8936L39.507 20.9421L39.462 24.9132L35.1093 24.8647L35.0644 28.8355ZM43.8262 28.933L39.4721 28.8845L39.5171 24.9134L43.8702 24.9619L43.9152 20.9914L48.2692 21.0399L48.2243 25.011L43.8711 24.9625L43.8262 28.933ZM52.5894 29.0308L48.2353 28.9823L48.2803 25.0112L52.633 25.0597L52.6779 21.0887L57.032 21.1372L56.987 25.1083L52.6344 25.0598L52.5894 29.0308ZM61.4419 21.0987L65.7959 21.147L65.7508 25.1181L61.3968 25.0698L61.4419 21.0987ZM56.9971 29.0795L61.3512 29.1284L61.3958 25.1573L57.0418 25.1084L56.9971 29.0795ZM40.6907 10.6456C40.6807 11.8518 40.2772 12.8692 39.48 13.6977C38.683 14.513 37.7045 14.9159 36.5447 14.9062C35.3721 14.8965 34.3941 14.4775 33.6106 13.6491C32.8272 12.8207 32.4405 11.7968 32.4506 10.5773L32.5073 3.73756C32.5106 3.3399 32.628 3.01609 32.8595 2.76614C33.1038 2.51629 33.4171 2.39296 33.7994 2.39612C34.1818 2.39929 34.493 2.5278 34.7331 2.78166C34.9732 3.03552 35.0916 3.36128 35.0883 3.75894L35.0796 4.81273L39.4577 4.849C39.8401 4.85217 40.145 4.98063 40.3723 5.23438C40.6125 5.47498 40.7309 5.79411 40.7276 6.19177C40.7202 7.09314 40.2895 7.54028 39.4355 7.53321L35.0573 7.49694L35.0317 10.5987C35.0279 11.0494 35.1713 11.435 35.4618 11.7555C35.7652 12.063 36.1336 12.2185 36.5669 12.222C37.0003 12.2256 37.3648 12.0762 37.6605 11.7738C37.9562 11.4581 38.106 11.0749 38.1097 10.6242L38.1112 10.4452C38.1144 10.0608 38.2381 9.74371 38.4824 9.49386C38.7394 9.24412 39.0527 9.12078 39.4223 9.12385C39.7919 9.12691 40.0968 9.25537 40.3369 9.50923C40.577 9.76308 40.6954 10.0822 40.6922 10.4666L40.6907 10.6456ZM28.9688 8.59736C28.9715 8.26371 29.0837 7.98437 29.3052 7.75931C29.5267 7.53425 29.8249 7.40993 30.1998 7.38634C30.5877 7.34951 30.8989 7.21195 31.1334 6.97365C31.3679 6.73536 31.4868 6.42269 31.49 6.03567C31.4933 5.6353 31.3733 5.31398 31.1298 5.07173C30.8864 4.81613 30.571 4.68672 30.1834 4.68351C29.1111 4.67463 28.2036 5.04749 27.4609 5.80209C26.7312 6.54346 26.3618 7.46799 26.3526 8.57569L26.3435 9.67671C26.3434 9.69006 26.3347 9.96359 26.3173 10.4973L26.314 10.8977C26.3112 11.2447 26.1925 11.5373 25.9579 11.7756C25.7364 12.0007 25.4577 12.1118 25.1218 12.109C24.7342 12.1058 24.4167 12.23 24.1691 12.4815C23.9345 12.7332 23.8155 13.0592 23.8122 13.4595C23.8088 13.8599 23.9224 14.1878 24.1529 14.4433C24.3963 14.6856 24.7119 14.8083 25.0994 14.8115C26.1588 14.8203 27.0534 14.4473 27.7831 13.6926C28.5258 12.938 28.9082 12.0136 28.9302 10.9194L28.9688 8.59736ZM61.482 12.4221C62.1307 12.4275 62.6841 12.2003 63.142 11.7406C63.613 11.2677 63.8513 10.7002 63.8568 10.0381C63.8623 9.37597 63.6334 8.81123 63.1701 8.34387C62.7199 7.87661 62.1704 7.6403 61.5216 7.63492C60.8729 7.62955 60.3196 7.85673 59.8616 8.31646C59.4037 8.77619 59.172 9.33712 59.1665 9.99925L59.1021 17.7661C59.0989 18.1633 58.9729 18.4868 58.7243 18.7363C58.4757 18.9859 58.1568 19.1091 57.7676 19.1058C57.3783 19.1026 57.0615 18.9742 56.8171 18.7205C56.5856 18.467 56.4715 18.1416 56.4748 17.7443L56.5391 9.97749C56.551 8.54729 57.0345 7.35275 57.9896 6.39388C58.9579 5.42188 60.1426 4.94168 61.5439 4.95329C62.9451 4.9649 64.1217 5.46465 65.0737 6.45256C66.0258 7.42723 66.496 8.62966 66.4841 10.0599C66.4723 11.4901 65.9822 12.6912 65.014 13.6632C64.0458 14.6352 62.861 15.1154 61.4598 15.1038C61.0705 15.1005 60.7537 14.9721 60.5093 14.7185C60.2778 14.4649 60.1637 14.1395 60.167 13.7422C60.1703 13.3449 60.2897 13.0281 60.5252 12.7917C60.7738 12.5421 61.0928 12.4189 61.482 12.4221ZM47.8255 3.91058C48.0479 3.85437 48.3045 3.82328 48.6113 3.81539C48.7057 3.81296 49.0028 3.8173 49.1138 3.82273C49.343 3.83394 49.5921 3.85213 49.8549 3.87683L49.9671 3.88721C49.9683 3.88723 49.9509 3.90612 49.9285 3.92918C49.8782 3.98082 49.8188 4.04431 49.7204 4.15156C49.5941 4.28927 49.5129 4.36563 49.4312 4.42359C49.2592 4.54562 49.0578 4.61369 48.7595 4.65065C48.6521 4.66395 48.5779 4.66947 48.3714 4.6795C47.8553 4.70458 47.5527 4.74422 47.2386 4.82791C47.1009 4.86457 46.9902 4.89946 46.7431 4.98405L46.4808 5.07369L46.3819 5.10743L46.3904 5.09262C46.3951 5.08448 46.4138 5.05354 46.432 5.02387C46.8172 4.3959 47.2393 4.05872 47.8255 3.91058ZM46.1386 3.98317C46.318 3.94529 46.5264 3.92058 46.7411 3.91177C46.8261 3.90828 46.9692 3.90969 46.9691 3.91401C46.9691 3.92249 46.9331 3.99063 46.9099 4.02619C46.854 4.11176 46.7964 4.18016 46.6853 4.29245C46.5629 4.41624 46.4707 4.49918 46.2397 4.69336C46.0031 4.89231 45.9773 4.91415 45.9226 4.96253C45.8934 4.98836 45.8526 5.02612 45.8319 5.04643L45.7943 5.08338L45.7713 5.06228C45.6969 4.99431 45.625 4.91765 45.5741 4.85202C45.426 4.66103 45.3866 4.49317 45.4568 4.35228C45.5387 4.188 45.7753 4.05991 46.1386 3.98317ZM50.7966 4.24981C51.0332 4.13277 51.2579 4.06662 51.4544 4.05618C51.8828 4.03341 52.3277 4.22708 52.7633 4.62598C53.074 4.9104 53.3724 5.30152 53.5869 5.70517C54.004 6.49 54.2791 7.82923 54.3333 9.3383C54.3393 9.50699 54.3454 9.8596 54.3448 10.0067C54.3445 10.0631 54.3341 10.4125 54.3298 10.5074C54.2845 11.5138 54.1491 12.3674 53.9306 13.0241C53.8417 13.2916 53.7371 13.5645 53.6313 13.8053C53.2632 14.6432 52.8205 15.2456 52.3286 15.5777C52.1118 15.724 51.8831 15.8181 51.6575 15.8538C51.5219 15.8752 51.3688 15.8767 51.2341 15.8579C50.7763 15.7942 50.327 15.507 49.9304 15.0246C49.6244 14.6524 49.3557 14.1688 49.1408 13.6033C48.8048 12.7193 48.6082 11.6682 48.5636 10.517C48.5514 10.2031 48.5552 9.80901 48.5739 9.45806C48.599 8.9844 48.6537 8.4861 48.7302 8.03506C48.8979 7.0454 49.1713 6.20014 49.5332 5.55197C49.8799 4.93121 50.305 4.49302 50.7966 4.24981ZM44.8596 4.90972C44.9035 4.88736 44.9452 4.87243 44.9843 4.86513C45.0165 4.85913 45.0754 4.86174 45.1032 4.87039C45.1825 4.89518 45.2412 4.95412 45.2875 5.0555C45.3237 5.13464 45.3445 5.22115 45.3583 5.34992C45.3656 5.41748 45.3639 5.61831 45.3554 5.70078C45.3435 5.81579 45.3229 5.9399 45.2975 6.04816C45.2835 6.10807 45.2625 6.18658 45.2533 6.21352C45.2491 6.22576 44.759 7.12349 44.7532 7.12944C44.7525 7.13018 44.7018 7.07736 44.6405 7.01207C44.5793 6.94677 44.464 6.82459 44.3845 6.74054C44.1509 6.4937 44.0121 6.34059 43.9098 6.21698L43.8635 6.161L43.8693 6.15125C43.8725 6.14588 43.8942 6.10792 43.9176 6.06688C44.1501 5.65863 44.3714 5.34409 44.5699 5.1397C44.6821 5.02413 44.7663 4.95735 44.8596 4.90972ZM47.1124 5.1889C47.5414 5.06565 48.0611 5.00319 48.7116 4.99669C48.9158 4.99465 48.9614 4.99501 48.9614 4.99867C48.9613 5.00097 48.2779 6.50461 48.2743 6.51019C48.2741 6.51047 48.1923 6.51161 48.0925 6.51273C47.3309 6.52127 46.9579 6.57637 46.4691 6.75252C46.3728 6.78721 46.2791 6.82357 46.0071 6.93181C45.6043 7.0921 45.2476 7.22932 45.2476 7.22399C45.2477 7.21239 45.316 6.99545 45.347 6.9081C45.677 5.97861 46.2267 5.44335 47.1124 5.1889ZM43.3706 7.236C43.4711 6.99885 43.5796 6.81123 43.7049 6.658L43.7299 6.62746L43.7439 6.63394C43.7641 6.64336 43.8615 6.6973 43.8975 6.71907C44.2527 6.93369 44.4321 7.18168 44.5 7.55183C44.5205 7.66352 44.5293 7.78216 44.5281 7.93167C44.5273 8.03816 44.5249 8.08125 44.508 8.29675C44.4503 9.03336 44.4057 9.8128 44.3879 10.3971C44.3863 10.4493 44.3841 10.492 44.3831 10.492C44.3821 10.492 44.0637 10.2279 43.6756 9.90518L42.97 9.31839L42.9691 9.3052C42.9678 9.28744 42.9755 9.12137 42.9818 9.03055C43.0286 8.35933 43.1688 7.71204 43.3706 7.236ZM45.6821 7.47157C46.1209 7.08338 46.7253 6.88095 47.5047 6.86111C47.5744 6.85934 47.7971 6.86183 47.8693 6.86519C48.0034 6.87144 48.208 6.8868 48.2119 6.89093C48.2135 6.89255 47.8687 8.95755 47.8665 8.95977C47.8651 8.96118 47.7574 8.97574 47.4916 9.01049C47.0466 9.06864 46.8673 9.0968 46.6807 9.13778C46.241 9.23437 45.9391 9.38468 45.6215 9.66513C45.5626 9.7171 45.3972 9.88501 45.321 9.97022C45.1956 10.1104 45.1192 10.1846 44.952 10.3287L44.8004 10.4592L44.7986 10.4351C44.7903 10.3272 44.7921 9.91238 44.8015 9.749C44.834 9.18703 44.9183 8.75718 45.0723 8.36796C45.2162 8.00425 45.422 7.70171 45.6821 7.47157ZM51.2655 7.15077C51.3887 7.06167 51.5055 7.01632 51.6441 7.00382C51.6681 7.00166 51.7001 7.00237 51.7325 7.00578C52.0028 7.03425 52.2417 7.24789 52.4434 7.64157C52.567 7.88284 52.6512 8.1695 52.7168 8.57242C52.8579 9.43882 52.8521 10.6227 52.7032 11.3413C52.6385 11.6539 52.495 12.0699 52.3704 12.3062C52.1819 12.6637 51.985 12.8547 51.7534 12.9046C51.7249 12.9107 51.7123 12.9115 51.6525 12.911C51.5739 12.9102 51.5497 12.906 51.4775 12.8807C50.9966 12.7117 50.5607 11.8674 50.4058 10.805C50.3581 10.4779 50.3399 10.1789 50.3465 9.82691C50.3497 9.65397 50.3516 9.61189 50.3625 9.4681C50.3924 9.07618 50.4648 8.67148 50.5708 8.30347C50.6797 7.9252 50.8351 7.61096 51.0301 7.37465C51.0935 7.29789 51.193 7.2032 51.2655 7.15077ZM45.7508 9.95636C46.1531 9.59917 46.7225 9.40986 47.459 9.38846C47.5605 9.38551 47.7005 9.38669 47.8142 9.39145C47.8714 9.39383 47.9183 9.39602 47.9186 9.3963C47.9189 9.39658 47.9275 9.90791 47.9378 10.5326C47.9481 11.1573 47.9573 11.6907 47.9581 11.718L47.9596 11.7677L47.9258 11.7899C47.8322 11.851 47.7506 11.8879 47.5774 11.9475C47.4743 11.983 47.4535 11.9921 47.2769 12.0799C47.0452 12.195 46.9639 12.2402 46.8608 12.311C46.6135 12.4808 46.3102 12.7673 45.7029 13.4049C45.6212 13.4907 45.5534 13.5608 45.5522 13.5608C45.5511 13.5608 45.5355 13.523 45.5176 13.4768C45.3006 12.9148 45.1725 12.4016 45.1297 11.9225C45.1172 11.7828 45.1156 11.7383 45.1171 11.5651C45.1184 11.3965 45.1204 11.3579 45.1337 11.2414C45.1848 10.7936 45.3353 10.4218 45.585 10.1266C45.6252 10.0792 45.7062 9.99597 45.7508 9.95636ZM42.9458 10.1866C42.9445 10.1401 42.944 10.0291 42.9447 9.9399L42.946 9.77775L43.0008 9.80766C43.268 9.95338 43.4718 10.1088 43.677 10.3233C43.8599 10.5145 44.0085 10.7161 44.1566 10.9741C44.4017 11.4012 44.606 11.9244 44.8659 12.7911C44.9539 13.0845 45.0726 13.4899 45.071 13.4915C45.0701 13.4924 45.0256 13.4834 44.9722 13.4714C44.5897 13.3857 44.3488 13.3174 44.1481 13.2378C43.6964 13.0585 43.4213 12.8125 43.2951 12.4751C43.2859 12.4504 43.2687 12.399 43.2569 12.3607C43.0892 11.8174 42.9684 10.9735 42.9458 10.1866ZM46.9647 12.5004C47.2044 12.3756 47.4617 12.3082 47.7549 12.2935C47.803 12.2911 47.9774 12.2939 48.0151 12.2976L48.0369 12.2998L48.3065 13.2355C48.4549 13.7501 48.5768 14.1741 48.5774 14.1777C48.5784 14.1834 48.5704 14.1883 48.5168 14.2144C48.4073 14.2678 48.3192 14.3 48.1299 14.3558C47.9467 14.4099 47.8659 14.4399 47.7597 14.4933C47.6413 14.5527 47.5364 14.6215 47.4164 14.7184C47.3165 14.7989 47.2456 14.8675 47.1154 15.0095C46.9917 15.1443 46.924 15.2051 46.8173 15.2771C46.7631 15.3137 46.7378 15.3289 46.7338 15.3272C46.7183 15.3209 46.5978 15.2105 46.5375 15.1474C46.2572 14.8539 46.0971 14.5085 46.0604 14.1185C46.0537 14.0468 46.0549 13.8953 46.0628 13.8209C46.0844 13.6179 46.1389 13.4294 46.228 13.2501C46.2637 13.1783 46.2849 13.1416 46.3333 13.068C46.4906 12.8292 46.7069 12.6347 46.9647 12.5004ZM43.7808 13.4108C43.7794 13.404 43.7786 13.3994 43.7786 13.3982C43.7786 13.3909 43.7816 13.3913 43.87 13.4101C44.0113 13.4402 44.1419 13.4768 44.2724 13.5229C44.6546 13.658 44.9826 13.8684 45.2708 14.1634C45.4396 14.336 45.5165 14.4269 45.7824 14.7669C45.9797 15.0192 46.0307 15.0819 46.1574 15.2278C46.3366 15.4339 46.4431 15.5732 46.5553 15.7478C46.6011 15.8191 46.6924 15.9696 46.6924 15.9737C46.6923 15.9767 46.5405 15.9743 46.4969 15.9706C46.1505 15.9413 45.8023 15.8152 45.4405 15.5878C45.2383 15.4607 45.0457 15.31 44.8471 15.1233C44.7899 15.0695 44.6052 14.8763 44.553 14.8157C44.3013 14.5235 44.1043 14.2269 43.9619 13.9256C43.8797 13.7518 43.8302 13.6158 43.7918 13.4585C43.7873 13.4398 43.7832 13.4222 43.7808 13.4108ZM47.9441 14.7629C48.1221 14.6964 48.3167 14.6545 48.5232 14.6381C48.5626 14.635 48.7784 14.6384 48.7874 14.6422C48.7945 14.6453 49.95 16.0348 49.9476 16.0374C49.9455 16.0397 49.5024 16.0599 49.3242 16.0658C48.3077 16.0995 47.699 16.0227 47.46 15.8304C47.4145 15.7937 47.3852 15.754 47.3525 15.6848C47.3073 15.5888 47.2894 15.5071 47.2935 15.4147C47.2964 15.3488 47.3108 15.2904 47.3391 15.2296C47.426 15.0425 47.6422 14.8757 47.9441 14.7629Z" fill="#B7B6B3"/>
</svg>
