<svg width="49" height="61" viewBox="0 0 49 61" fill="none" xmlns="http://www.w3.org/2000/svg">
<path fill-rule="evenodd" clip-rule="evenodd" d="M31.6129 0.782051C31.6129 0.574638 31.5296 0.375721 31.3814 0.229058C31.2332 0.0823946 31.0322 0 30.8226 0H8.69355C6.38788 0 4.17664 0.906339 2.54628 2.51963C0.915924 4.13293 0 6.32102 0 8.60256V52.3974C0 54.679 0.915924 56.8671 2.54628 58.4804C4.17664 60.0937 6.38788 61 8.69355 61H40.3064C42.6121 61 44.8234 60.0937 46.4537 58.4804C48.0841 56.8671 49 54.679 49 52.3974V21.5752C49 21.3678 48.9167 21.1689 48.7685 21.0222C48.6203 20.8756 48.4193 20.7932 48.2097 20.7932H33.9839C33.355 20.7932 32.752 20.546 32.3073 20.106C31.8627 19.666 31.6129 19.0693 31.6129 18.447V0.782051ZM33.9839 31.2821C34.6127 31.2821 35.2158 31.5292 35.6604 31.9692C36.105 32.4092 36.3548 33.006 36.3548 33.6282C36.3548 34.2504 36.105 34.8472 35.6604 35.2872C35.2158 35.7272 34.6127 35.9744 33.9839 35.9744H15.0161C14.3873 35.9744 13.7842 35.7272 13.3396 35.2872C12.895 34.8472 12.6452 34.2504 12.6452 33.6282C12.6452 33.006 12.895 32.4092 13.3396 31.9692C13.7842 31.5292 14.3873 31.2821 15.0161 31.2821H33.9839ZM33.9839 43.7949C34.6127 43.7949 35.2158 44.0421 35.6604 44.482C36.105 44.922 36.3548 45.5188 36.3548 46.141C36.3548 46.7633 36.105 47.36 35.6604 47.8C35.2158 48.24 34.6127 48.4872 33.9839 48.4872H15.0161C14.3873 48.4872 13.7842 48.24 13.3396 47.8C12.895 47.36 12.6452 46.7633 12.6452 46.141C12.6452 45.5188 12.895 44.922 13.3396 44.482C13.7842 44.0421 14.3873 43.7949 15.0161 43.7949H33.9839Z" fill="#D27C2C"/>
</svg>
