<svg width="32" height="28" viewBox="0 0 32 28" fill="none" xmlns="http://www.w3.org/2000/svg">
<path d="M32 13.9345C32 13.2383 31.7266 12.5707 31.24 12.0784C30.7534 11.5861 30.0934 11.3095 29.4052 11.3095L8.85456 11.3095L15.6702 4.41452C16.1285 3.91691 16.3781 3.25875 16.3662 2.5787C16.3543 1.89864 16.082 1.2498 15.6066 0.76885C15.1312 0.287905 14.4898 0.0124092 13.8176 0.00041008C13.1454 -0.0115871 12.4948 0.240847 12.0029 0.704525L0.758852 12.0795C0.272935 12.5717 0 13.2389 0 13.9345C0 14.6302 0.272935 15.2973 0.758852 15.7895L12.0029 27.1645C12.2404 27.4224 12.5269 27.6293 12.8452 27.7728C13.1635 27.9162 13.5071 27.9934 13.8555 27.9996C14.2039 28.0058 14.55 27.941 14.8731 27.809C15.1962 27.6769 15.4897 27.4804 15.7361 27.2312C15.9824 26.9819 16.1767 26.685 16.3072 26.3581C16.4377 26.0313 16.5018 25.6812 16.4956 25.3287C16.4895 24.9762 16.4132 24.6286 16.2714 24.3066C16.1296 23.9846 15.9251 23.6948 15.6702 23.4545L8.85456 16.5595L29.4052 16.5595C30.8375 16.5595 32 15.3835 32 13.9345Z" fill="#D27C2C"/>
</svg>
